<?xml version="1.0" encoding="UTF-8"?>
<!DOCTYPE svg PUBLIC "-//W3C//DTD SVG 1.1//EN" "http://www.w3.org/Graphics/SVG/1.1/DTD/svg11.dtd">
<!-- Creator: CorelDRAW -->
<svg xmlns="http://www.w3.org/2000/svg" xml:space="preserve" width="5.0918mm" height="5.5187mm" version="1.1" style="shape-rendering:geometricPrecision; text-rendering:geometricPrecision; image-rendering:optimizeQuality; fill-rule:evenodd; clip-rule:evenodd"
viewBox="0 0 18.65 20.22"
 xmlns:xlink="http://www.w3.org/1999/xlink"
 xmlns:xodm="http://www.corel.com/coreldraw/odm/2003">
 <defs>
  <style type="text/css">
   <![CDATA[
    .fil0 {fill:url(#id0)}
   ]]>
  </style>
  <linearGradient id="id0" gradientUnits="userSpaceOnUse" x1="12.03" y1="16.53" x2="9.25" y2="5.96">
   <stop offset="0" style="stop-opacity:1; stop-color:#CB99FB"/>
   <stop offset="1" style="stop-opacity:1; stop-color:#B665FE"/>
  </linearGradient>
 </defs>
 <g id="Layer_x0020_1">
  <metadata id="CorelCorpID_0Corel-Layer"/>
  <path class="fil0" d="M14.18 0.02c-5.35,0.38 -3.93,6.44 -3.93,6.44 0,0 -2.82,-1.94 -6.44,-0.83 -3.62,1.11 -5.51,7.1 -1.78,11.23 3.73,4.13 7.22,3.29 7.22,3.29 -3.41,-1.61 -7.97,-5.64 -5.2,-9.83 1.92,-2.91 4.98,-2.36 6.73,-1.81 0.77,0.24 1.3,0.48 1.36,0.43 0.22,-0.18 -1.4,-5.21 1.85,-5.72 3.26,-0.51 3.85,3.65 3.85,3.65 1.21,-1.71 1.65,-6.86 -3.16,-6.86 -0.16,0 -0.34,0.01 -0.51,0.02z"/>
 </g>
</svg>
