<?xml version="1.0" encoding="UTF-8"?>
<!DOCTYPE svg PUBLIC "-//W3C//DTD SVG 1.1//EN" "http://www.w3.org/Graphics/SVG/1.1/DTD/svg11.dtd">
<!-- Creator: CorelDRAW -->
<svg xmlns="http://www.w3.org/2000/svg" xml:space="preserve" width="5.0918mm" height="5.5186mm" version="1.1" style="shape-rendering:geometricPrecision; text-rendering:geometricPrecision; image-rendering:optimizeQuality; fill-rule:evenodd; clip-rule:evenodd"
viewBox="0 0 29.08 31.52"
 xmlns:xlink="http://www.w3.org/1999/xlink"
 xmlns:xodm="http://www.corel.com/coreldraw/odm/2003">
 <defs>
  <style type="text/css">
   <![CDATA[
    .fil0 {fill:url(#id0)}
   ]]>
  </style>
  <linearGradient id="id0" gradientUnits="userSpaceOnUse" x1="18.75" y1="25.77" x2="14.42" y2="9.29">
   <stop offset="0" style="stop-opacity:1; stop-color:#FFE34D"/>
   <stop offset="1" style="stop-opacity:1; stop-color:#FDD400"/>
  </linearGradient>
 </defs>
 <g id="Layer_x0020_1">
  <metadata id="CorelCorpID_0Corel-Layer"/>
  <path class="fil0" d="M22.1 0.03c-8.34,0.59 -6.12,10.05 -6.12,10.05 0,0 -4.39,-3.04 -10.04,-1.3 -5.65,1.74 -8.59,11.07 -2.77,17.5 5.82,6.44 11.26,5.13 11.26,5.13 -5.32,-2.51 -12.42,-8.8 -8.11,-15.32 2.99,-4.53 7.76,-3.68 10.5,-2.83 1.2,0.37 2.02,0.75 2.13,0.66 0.34,-0.27 -2.19,-8.13 2.89,-8.92 5.08,-0.79 6,5.69 6,5.69 1.89,-2.67 2.57,-10.69 -4.93,-10.69 -0.26,0 -0.52,0.01 -0.8,0.03z"/>
 </g>
</svg>
