<?xml version="1.0" encoding="UTF-8"?>
<!DOCTYPE svg PUBLIC "-//W3C//DTD SVG 1.1//EN" "http://www.w3.org/Graphics/SVG/1.1/DTD/svg11.dtd">
<!-- Creator: CorelDRAW -->
<svg xmlns="http://www.w3.org/2000/svg" xml:space="preserve" width="5.0918mm" height="5.5188mm" version="1.1" style="shape-rendering:geometricPrecision; text-rendering:geometricPrecision; image-rendering:optimizeQuality; fill-rule:evenodd; clip-rule:evenodd"
viewBox="0 0 23.15 25.09"
 xmlns:xlink="http://www.w3.org/1999/xlink"
 xmlns:xodm="http://www.corel.com/coreldraw/odm/2003">
 <defs>
  <style type="text/css">
   <![CDATA[
    .fil0 {fill:url(#id0)}
   ]]>
  </style>
  <linearGradient id="id0" gradientUnits="userSpaceOnUse" x1="14.93" y1="20.52" x2="11.48" y2="7.4">
   <stop offset="0" style="stop-opacity:1; stop-color:#69FF6C"/>
   <stop offset="1" style="stop-opacity:1; stop-color:#0AFF00"/>
  </linearGradient>
 </defs>
 <g id="Layer_x0020_1">
  <metadata id="CorelCorpID_0Corel-Layer"/>
  <path class="fil0" d="M17.6 0.02c-6.64,0.47 -4.87,8 -4.87,8 0,0 -3.5,-2.42 -8,-1.03 -4.5,1.38 -6.84,8.81 -2.21,13.94 4.63,5.13 8.96,4.08 8.96,4.08 -4.23,-2 -9.89,-7.01 -6.46,-12.2 2.38,-3.61 6.18,-2.93 8.36,-2.25 0.96,0.3 1.61,0.6 1.69,0.53 0.27,-0.22 -1.74,-6.47 2.3,-7.1 4.05,-0.63 4.77,4.53 4.77,4.53 1.51,-2.12 2.05,-8.51 -3.92,-8.51 -0.2,0 -0.42,0.01 -0.64,0.02z"/>
 </g>
</svg>
