<?xml version="1.0" encoding="UTF-8"?>
<svg id="Layer_2" data-name="Layer 2" xmlns="http://www.w3.org/2000/svg" xmlns:xlink="http://www.w3.org/1999/xlink" viewBox="0 0 33.06 33.61">
  <defs>
    <style>
      .cls-1 {
        fill: url(#linear-gradient-2);
      }

      .cls-2 {
        fill: url(#linear-gradient);
      }
    </style>
    <linearGradient id="linear-gradient" x1="16.53" y1="16.4" x2="16.53" y2="-24.95" gradientUnits="userSpaceOnUse">
      <stop offset="0" stop-color="#a493e6"/>
      <stop offset=".32" stop-color="#9384ce"/>
      <stop offset=".98" stop-color="#695e92"/>
      <stop offset="1" stop-color="#685d91"/>
    </linearGradient>
    <linearGradient id="linear-gradient-2" x1="0" y1="16.81" x2="33.06" y2="16.81" gradientUnits="userSpaceOnUse">
      <stop offset="0" stop-color="#c06d1e"/>
      <stop offset=".06" stop-color="#cb8425"/>
      <stop offset=".19" stop-color="#e9c03a"/>
      <stop offset=".27" stop-color="#fce747"/>
      <stop offset=".32" stop-color="#f0cf3f"/>
      <stop offset=".42" stop-color="#d2932a"/>
      <stop offset=".48" stop-color="#c06d1e"/>
      <stop offset=".54" stop-color="#cb8425"/>
      <stop offset=".65" stop-color="#e9c03a"/>
      <stop offset=".71" stop-color="#fce747"/>
      <stop offset=".78" stop-color="#f0cf3f"/>
      <stop offset=".91" stop-color="#d2932a"/>
      <stop offset=".99" stop-color="#c06d1e"/>
    </linearGradient>
  </defs>
  <g id="Layer_1-2" data-name="Layer 1">
    <g>
      <path class="cls-2" d="M19.37,18.45c4.29-4.73,8.29-9.08,12.03-13.09-2.07-2.32-4.58-4.18-7.92-3.61-1.66.28-3.03.82-4.35,1.3-.1.15-.19.3-.3.45.62.25,1.13.6,1.43,1.14-1.81,1.6-12.41,11.1-13.11,13.09-1,2.86,1.48,5.45,2.75,6.61,1.27,1.16.53,4.86-8.25,7.61,0,0,13.5-.51,15.37-3.97,1.87-3.45-2.15-4.62-.99-6.66.59-1.03,2.22-1.64,3.33-2.87Z"/>
      <path class="cls-1" d="M24.68,1.66c2.75,0,4.91,1.68,6.72,3.71-3.74,4.01-7.74,8.35-12.03,13.09-1.12,1.23-2.75,1.84-3.33,2.87-1.16,2.04,2.86,3.21.99,6.66-1.87,3.45-15.37,3.97-15.37,3.97,8.78-2.75,9.52-6.45,8.25-7.61-1.27-1.16-3.75-3.75-2.75-6.61.7-1.99,11.3-11.49,13.11-13.09-.3-.54-.81-.89-1.43-1.14.11-.15.2-.3.3-.45,1.32-.48,2.69-1.02,4.35-1.3.41-.07.81-.1,1.19-.1M24.68,0c-.48,0-.98.04-1.47.13-1.65.28-3.03.79-4.26,1.23l-.38.14c-.34.12-.63.35-.82.66l-.08.12c-.05.08-.1.16-.17.25-.3.41-.4.94-.26,1.43.08.29.24.55.46.76-4.26,3.82-11.38,10.42-12.11,12.47-.66,1.87-.65,4.84,3.14,8.33.04.46-1.05,2.82-7.57,4.86-.79.25-1.28,1.04-1.14,1.86.14.8.83,1.38,1.63,1.38.02,0,.04,0,.06,0,3.39-.13,14.61-.86,16.76-4.83,1.52-2.82.23-4.76-.54-5.93-.15-.23-.37-.56-.44-.73.18-.25.69-.61,1.11-.9.63-.44,1.35-.95,1.99-1.65,4.15-4.58,8.19-8.97,12.01-13.07.58-.63.6-1.59.03-2.23-1.63-1.83-4.23-4.27-7.96-4.27h0Z"/>
    </g>
  </g>
</svg>