<?xml version="1.0" encoding="UTF-8"?>
<!DOCTYPE svg PUBLIC "-//W3C//DTD SVG 1.1//EN" "http://www.w3.org/Graphics/SVG/1.1/DTD/svg11.dtd">
<!-- Creator: CorelDRAW -->
<svg xmlns="http://www.w3.org/2000/svg" xml:space="preserve" width="641.08mm" height="89.8943mm" version="1.1" style="shape-rendering:geometricPrecision; text-rendering:geometricPrecision; image-rendering:optimizeQuality; fill-rule:evenodd; clip-rule:evenodd"
viewBox="0 0 81871.07 11480.22"
 xmlns:xlink="http://www.w3.org/1999/xlink"
 xmlns:xodm="http://www.corel.com/coreldraw/odm/2003">
 <defs>
  <style type="text/css">
   <![CDATA[
    .fil0 {fill:#2A2A36;fill-rule:nonzero}
    .fil1 {fill:#31324A;fill-rule:nonzero}
   ]]>
  </style>
    <clipPath id="id0">
     <path d="M33756.32 1.12l0 732.05 -29855.45 0c-1666.09,0 -3016.19,1349.72 -3016.19,3013.18l0 3987.08c0,1663.46 1350.1,3013.19 3016.19,3013.19l29855.45 0 0 732.05 -30353.37 0c-1876.73,0 -3399.19,-1522.93 -3399.19,-3405.36l0 -4666.84c0,-1882.42 1522.46,-3405.35 3399.19,-3405.35l30353.37 0zm0 777.81l0 9921.94 -29855.45 0c-823.47,0 -1560.76,-330.07 -2106.54,-869.32 -536.22,-535.96 -861.77,-1277.82 -861.77,-2098.11l0 -3987.08c0,-820.28 325.55,-1562.15 861.77,-2098.11 545.79,-539.23 1283.07,-869.31 2106.54,-869.31l29855.45 0z"/>
    </clipPath>
    <clipPath id="id1">
     <path d="M33688.76 11478.67l0 -732.05 2352.25 0 0 732.05 -2352.25 0zm0 -777.81l0 -9921.94 2352.25 0 0 9921.94 -2352.25 0zm0 -9967.7l0 -732.05 2352.25 0 0 732.05 -2352.25 0z"/>
    </clipPath>
    <clipPath id="id2">
     <path d="M81265.54 1469.08l0 0c-614.47,-887.47 -1640.91,-1469.08 -2801.89,-1469.08l0 0c1162.37,0 2187.42,581.61 2801.89,1469.08z"/>
    </clipPath>
    <clipPath id="id3">
     <path d="M81219.91 1403.97l0 0c409.32,562.21 650.95,1254.54 650.95,2003.6l0 0c0,-749.06 -241.64,-1441.39 -650.95,-2003.6z"/>
    </clipPath>
    <clipPath id="id4">
     <path d="M80226.43 10989.41c985.8,-597.16 1644.43,-1680 1644.43,-2916.47l0 0c0,1236.47 -658.63,2319.3 -1644.43,2916.47l0 0z"/>
    </clipPath>
    <clipPath id="id5">
     <path d="M78464.05 11480.22c672.33,0 1299.22,-195.15 1827.82,-531.55l0 0c-528.6,336.4 -1155.49,531.55 -1827.82,531.55z"/>
    </clipPath>
    <clipPath id="id6">
     <path d="M78464.55 11478.67l-7.85 0 0 -771.27c1434.95,-232.03 2530.32,-1473.92 2530.32,-2973.97l0 -3987.08c0,-1500.04 -1095.36,-2741.93 -2530.32,-2973.96l0 -650.35 -2534.24 0c-288.56,-78.44 -590.87,-120.91 -902.98,-120.91l3443.11 0c1882.53,0 3407.77,1522.93 3407.77,3405.35l0 4666.84c0,1882.43 -1525.24,3405.36 -3407.77,3405.36l1.97 0z"/>
    </clipPath>
    <clipPath id="id7">
     <path d="M78457.15 771.47c-158.08,-25.41 -319.88,-38.84 -484.64,-38.84l-841.65 0c-353.29,-278.93 -762.98,-489.54 -1208.3,-611.72l2534.58 0 0 650.56 0 0z"/>
    </clipPath>
    <clipPath id="id8">
     <path d="M78457.69 10662.34l0 -2021.92 -77.85 0 0 0 77.85 0 0 -2838.56 -30.69 0 30.69 0 0 -2841.39 -59.88 0 0 0 59.88 0 0 -2143c625.81,101.37 1185.74,399.88 1614.68,830.73 537.47,537.87 869.84,1278.48 869.84,2100.77l0 3984.69c0,819.46 -332.37,1560.09 -869.84,2097.95 -428.93,430.86 -988.87,729.35 -1614.68,830.74l0 0z"/>
    </clipPath>
    <clipPath id="id9">
     <path d="M78457.61 2960.72l-59.78 0c-114.63,-875.83 -562.07,-1647.32 -1210.95,-2182.94l785.21 0c165.65,0 327.49,13.91 485.52,39.84l0 2143.09 0 0z"/>
    </clipPath>
    <clipPath id="id10">
     <path d="M78457.45 5800.27l-30.2 0 0 -2392.58c0,-151.7 -9.92,-300.93 -29.27,-446.84l59.47 0 0 2839.42 0 0z"/>
    </clipPath>
    <clipPath id="id11">
     <path d="M78457.45 8640.58l-77.52 0c31.1,-185.1 47.34,-374.31 47.34,-568.45l0 -2271.31 30.18 0 0 2839.77 0 0z"/>
    </clipPath>
    <clipPath id="id12">
     <path d="M78457.36 11480.14l-2840.25 0 0 -52.65c564.57,-99.54 1081.89,-338.92 1513.81,-680.33l841.45 0 0 -22.21 0 -23.04 -785.08 0c618.45,-510.86 1054.52,-1235.6 1192.97,-2061.54l77.1 0 0 2022.05c-157.51,26.33 -320.01,39.49 -484.98,39.49l0 23.04 0 22.21c164.97,0 326.64,-13.15 484.98,-38.66l0 771.64 0 0z"/>
    </clipPath>
    <clipPath id="id13">
     <path d="M75617.41 11480.14l-597.98 0c204.15,0 403.66,-17.89 597.98,-52.3l0 52.3 0 0z"/>
    </clipPath>
    <clipPath id="id14">
     <path d="M48693.92 11478.67l-12651.61 0 0 -732.05 10541.79 0c580.65,460.8 1312.77,732.05 2109.81,732.05l0 0zm-2167.51 -777.81l-10484.1 0 0 -9921.94 10484.1 0c-757.37,624.2 -1240.63,1568.69 -1240.63,2627.54l0 4666.84c0,1058.86 483.26,2003.34 1240.63,2627.55l0 0zm57.7 -9967.7l-10541.79 0 0 -732.05 12651.61 0c-797.04,0 -1529.16,271.25 -2109.81,732.05l0 0z"/>
    </clipPath>
    <clipPath id="id15">
     <path d="M55737.64 11480.13l-7043.81 0c-796.57,0 -1530.46,-273.84 -2110.26,-732.55l9154.07 0 0 732.55 0 0z"/>
    </clipPath>
    <clipPath id="id16">
     <path d="M58578.25 10747.58l0 732.55 2840.24 0 0 -732.55 -2840.24 0z"/>
    </clipPath>
    <clipPath id="id17">
     <path d="M64258.59 10747.58l0 732.55 2838.94 0 0 -732.55 -2838.94 0z"/>
    </clipPath>
    <clipPath id="id18">
     <path d="M61418.61 10747.58l0 732.55 2839.75 0 0 -732.55 -2839.75 0z"/>
    </clipPath>
    <clipPath id="id19">
     <path d="M55739.17 10747.58l0 732.55 2838.94 0 0 -732.55 -2838.94 0z"/>
    </clipPath>
    <clipPath id="id20">
     <path d="M72773.52 10702.8l0 0 0 -2063.16 -5674.51 0 0 2063.16 0 -2063.16 -2841.96 0 -2841.96 0 0 2063.16 0 -2063.16 -2832.55 0 -2841.96 0 0 2063.16 -9212.84 0c-762.25,-624.59 -1242.18,-1571.4 -1242.18,-2631.24l0 -4663.32c0,-1059.84 479.93,-2006.64 1242.18,-2631.24l9212.84 0 0 2184.7 2841.96 0 0 -2184.7 0 2184.7 2832.55 0 2841.96 0 0 -2184.7 0 2184.7 2841.96 0 0 -2184.7 0 2184.7 2841.96 0 0 -2184.7 0 2184.7 2832.55 0 2841.95 0 0 -2184.7 0 2184.7 2785.5 0 0 0 -2785.5 0 -2841.95 0 0 2837.56 2841.95 0 2813.74 0 -2813.74 0 0 2840.39 2766.68 0 0 0 -2766.68 0 -2841.95 0 0 2063.16 0 0zm0 -2063.16l2841.95 0 0 -2840.39 -2841.95 0 -2832.55 0 0 2840.39 2832.55 0 0 0zm-5674.51 -2840.39l0 2840.39 2841.96 0 0 -2840.39 -2841.96 0 0 0zm-2841.96 0l0 2840.39 2841.96 0 0 -2840.39 -2841.96 0 0 0zm-2841.96 2840.39l2841.96 0 0 -2840.39 -2841.96 0 -2832.55 0 0 2840.39 2832.55 0 0 0zm-5674.51 -2840.39l0 2840.39 2841.96 0 0 -2840.39 -2841.96 0 0 0zm14200.4 0l2832.55 0 0 -2837.56 -2832.55 0 -2841.96 0 0 2837.56 2841.96 0 0 0zm-5683.92 0l2841.96 0 0 -2837.56 -2841.96 0 -2841.96 0 0 2837.56 2841.96 0 0 0zm-5674.51 0l2832.55 0 0 -2837.56 -2832.55 0 -2841.96 0 0 2837.56 2841.96 0 0 0z"/>
    </clipPath>
    <clipPath id="id21">
     <path d="M55739.17 777.78l0 2182.94 2838.94 0 0 -2182.94 -2838.94 0z"/>
    </clipPath>
    <clipPath id="id22">
     <path d="M61418.61 777.78l0 2182.94 2839.75 0 0 -2182.94 -2839.75 0z"/>
    </clipPath>
    <clipPath id="id23">
     <path d="M58578.25 777.78l0 2182.94 2840.24 0 0 -2182.94 -2840.24 0z"/>
    </clipPath>
    <clipPath id="id24">
     <path d="M64258.59 777.78l0 2182.94 2838.94 0 0 -2182.94 -2838.94 0z"/>
    </clipPath>
    <clipPath id="id25">
     <path d="M58578.25 2960.85l0 2839.42 2840.24 0 0 -2839.42 -2840.24 0z"/>
    </clipPath>
    <clipPath id="id26">
     <path d="M64258.59 2960.85l0 2839.42 2838.94 0 0 -2839.42 -2838.94 0z"/>
    </clipPath>
    <clipPath id="id27">
     <path d="M61418.61 2960.85l0 2839.42 2839.75 0 0 -2839.42 -2839.75 0z"/>
    </clipPath>
    <clipPath id="id28">
     <path d="M55739.17 2960.85l0 2839.42 2838.94 0 0 -2839.42 -2838.94 0z"/>
    </clipPath>
    <clipPath id="id29">
     <path d="M55739.17 5800.81l0 2839.77 2838.94 0 0 -2839.77 -2838.94 0z"/>
    </clipPath>
    <clipPath id="id30">
     <path d="M61418.61 5800.81l0 2839.77 2839.75 0 0 -2839.77 -2839.75 0z"/>
    </clipPath>
    <clipPath id="id31">
     <path d="M58578.25 5800.81l0 2839.77 2840.24 0 0 -2839.77 -2840.24 0z"/>
    </clipPath>
    <clipPath id="id32">
     <path d="M64258.59 5800.81l0 2839.77 2838.94 0 0 -2839.77 -2838.94 0z"/>
    </clipPath>
    <clipPath id="id33">
     <path d="M58578.25 8640.44l0 2061.5 2840.24 0 0 -2061.5 -2840.24 0z"/>
    </clipPath>
    <clipPath id="id34">
     <path d="M64258.59 8640.44l0 2061.5 2838.94 0 0 -2061.5 -2838.94 0z"/>
    </clipPath>
    <clipPath id="id35">
     <path d="M61418.61 8640.44l0 2061.5 2839.75 0 0 -2061.5 -2839.75 0z"/>
    </clipPath>
    <clipPath id="id36">
     <path d="M55739.17 8640.44l0 2061.5 2838.94 0 0 -2061.5 -2838.94 0z"/>
    </clipPath>
    <clipPath id="id37">
     <path d="M67097.68 777.78l0 2182.94 2840.24 0 0 -2182.94 -2840.24 0z"/>
    </clipPath>
    <clipPath id="id38">
     <path d="M72777.6 777.78l0 2182.94 2839.77 0 0 -2182.94 -2839.77 0z"/>
    </clipPath>
    <clipPath id="id39">
     <path d="M69938.04 777.78l0 2182.94 2839.77 0 0 -2182.94 -2839.77 0z"/>
    </clipPath>
    <clipPath id="id40">
     <path d="M78397.59 2960.72l-2780.61 0 0 -2182.94 1570.37 0c648.12,535.62 1095.86,1307.1 1210.24,2182.94l0 0z"/>
    </clipPath>
    <clipPath id="id41">
     <path d="M69938.04 2960.85l0 2839.42 2839.77 0 0 -2839.42 -2839.77 0z"/>
    </clipPath>
    <clipPath id="id42">
     <path d="M78427.18 5800.27l-2809.86 0 0 -2839.42 2780.43 0c19.62,145.91 29.42,295.13 29.42,446.84l0 2392.58 0 0z"/>
    </clipPath>
    <clipPath id="id43">
     <path d="M72777.6 2960.85l0 2839.42 2839.77 0 0 -2839.42 -2839.77 0z"/>
    </clipPath>
    <clipPath id="id44">
     <path d="M67097.68 2960.85l0 2839.42 2840.24 0 0 -2839.42 -2840.24 0z"/>
    </clipPath>
    <clipPath id="id45">
     <path d="M67097.68 5800.81l0 2839.77 2840.24 0 0 -2839.77 -2840.24 0z"/>
    </clipPath>
    <clipPath id="id46">
     <path d="M72777.6 5800.81l0 2839.77 2839.77 0 0 -2839.77 -2839.77 0z"/>
    </clipPath>
    <clipPath id="id47">
     <path d="M69938.04 5800.81l0 2839.77 2839.77 0 0 -2839.77 -2839.77 0z"/>
    </clipPath>
    <clipPath id="id48">
     <path d="M78379.76 8640.58l-2762.44 0 0 -2839.77 2809.86 0 0 2271.31c0,194.14 -16.35,383.35 -47.42,568.45l0 0z"/>
    </clipPath>
    <clipPath id="id49">
     <path d="M75614.76 732.65l0 0 0 -611.75 -5673.68 0 0 611.75 0 -611.75 -2841 0 0 611.75 0 -611.75 -2841.02 0 0 611.75 0 -611.75 -2841 0 -2841 0 0 611.75 0 -611.75 -2841 0 0 611.75 -9156.21 0c583.2,-458.7 1316.36,-732.53 2116.18,-732.53l26327.21 0c308.26,0 608.2,42.04 899.79,120.79l-308.26 0 0 611.75 0 0z"/>
    </clipPath>
    <clipPath id="id50">
     <path d="M55739.17 120.89l0 611.86 2838.94 0 0 -611.86 -2838.94 0z"/>
    </clipPath>
    <clipPath id="id51">
     <path d="M61418.61 120.89l0 611.86 2839.75 0 0 -611.86 -2839.75 0z"/>
    </clipPath>
    <clipPath id="id52">
     <path d="M58578.25 120.89l0 611.86 2840.24 0 0 -611.86 -2840.24 0z"/>
    </clipPath>
    <clipPath id="id53">
     <path d="M64258.59 120.89l0 611.86 2838.94 0 0 -611.86 -2838.94 0z"/>
    </clipPath>
    <clipPath id="id54">
     <path d="M67097.68 120.89l0 611.86 2840.24 0 0 -611.86 -2840.24 0z"/>
    </clipPath>
    <clipPath id="id55">
     <path d="M72777.6 120.89l0 611.86 2839.77 0 0 -611.86 -2839.77 0z"/>
    </clipPath>
    <clipPath id="id56">
     <path d="M69938.04 120.89l0 611.86 2839.77 0 0 -611.86 -2839.77 0z"/>
    </clipPath>
    <clipPath id="id57">
     <path d="M77130.69 732.75l-1513.44 0 0 -611.86 304.94 0c445.7,122.18 855.89,332.78 1208.5,611.86l0 0z"/>
    </clipPath>
    <clipPath id="id58">
     <path d="M72777.8 11480.14l-2839.77 0 0 -732.98 2839.77 0 0 732.98 0 0zm0 -778.23l-2839.77 0 0 -2061.54 2839.77 0 0 2061.54 0 0z"/>
    </clipPath>
    <clipPath id="id59">
     <path d="M75617.44 11427.77l0 -680.56 1512.96 0c-432.16,341.49 -948.82,580.79 -1512.96,680.56l0 0zm1569.29 -725.16l-1569.29 0 0 -2061.95 2762.74 0c-138.41,825.75 -574.6,1550.92 -1193.46,2061.95l0 0z"/>
    </clipPath>
    <clipPath id="id60">
     <path d="M75019.31 11480.14l-2241.71 0 0 -732.98 2839.77 0 0 680.33c-194.14,34.56 -394.04,52.65 -598.06,52.65l0 0zm598.06 -778.23l-2839.77 0 0 -2061.54 2839.77 0 0 2061.54 0 0z"/>
    </clipPath>
    <clipPath id="id61">
     <path d="M69937.92 11480.14l-2840.24 0 0 -732.98 2840.24 0 0 732.98 0 0zm0 -778.23l-2840.24 0 0 -2061.54 2840.24 0 0 2061.54 0 0z"/>
    </clipPath>
 </defs>
 <g id="Layer_x0020_1">
  <metadata id="CorelCorpID_0Corel-Layer"/>
  <g id="_2003667771504">
   <path class="fil0" d="M78463.74 11480.13l-75056.26 0c-1881.89,0 -3407.48,-1525.57 -3407.48,-3407.5l0 -4665.09c0,-1881.89 1525.59,-3407.5 3407.48,-3407.5l75056.26 0c1881.84,0 3407.32,1525.61 3407.32,3407.5l0 4665.09c0,1881.93 -1525.48,3407.5 -3407.32,3407.5z"/>
   <polygon class="fil1" points="55738.8,2960.69 58578.44,2960.69 58578.44,120.89 55738.8,120.89 "/>
   <polygon class="fil1" points="61418.57,2960.69 64258.21,2960.69 64258.21,120.89 61418.57,120.89 "/>
   <polygon class="fil0" points="58578.46,2960.69 61418.57,2960.69 61418.57,120.89 58578.46,120.89 "/>
   <polygon class="fil0" points="64258.22,2960.69 67097.9,2960.69 67097.9,120.89 64258.22,120.89 "/>
   <polygon class="fil1" points="58578.46,5800.53 61418.57,5800.53 61418.57,2960.69 58578.46,2960.69 "/>
   <polygon class="fil1" points="64258.22,5800.53 67097.9,5800.53 67097.9,2960.69 64258.22,2960.69 "/>
   <polygon class="fil0" points="61418.57,5800.53 64258.21,5800.53 64258.21,2960.69 61418.57,2960.69 "/>
   <polygon class="fil0" points="55738.8,5800.53 58578.44,5800.53 58578.44,2960.69 55738.8,2960.69 "/>
   <polygon class="fil1" points="55738.8,8640.34 58578.44,8640.34 58578.44,5800.55 55738.8,5800.55 "/>
   <polygon class="fil1" points="61418.57,8640.34 64258.21,8640.34 64258.21,5800.55 61418.57,5800.55 "/>
   <polygon class="fil0" points="58578.46,8640.34 61418.57,8640.34 61418.57,5800.55 58578.46,5800.55 "/>
   <polygon class="fil0" points="64258.22,8640.34 67097.9,8640.34 67097.9,5800.55 64258.22,5800.55 "/>
   <polygon class="fil1" points="58578.46,11480.13 61418.57,11480.13 61418.57,8640.32 58578.46,8640.32 "/>
   <polygon class="fil1" points="64258.22,11480.13 67097.9,11480.13 67097.9,8640.32 64258.22,8640.32 "/>
   <polygon class="fil0" points="61418.57,11480.13 64258.21,11480.13 64258.21,8640.32 61418.57,8640.32 "/>
   <polygon class="fil0" points="55738.8,11480.13 58578.44,11480.13 58578.44,8640.32 55738.8,8640.32 "/>
   <polygon class="fil1" points="67097.89,2960.69 69938.01,2960.69 69938.01,120.89 67097.89,120.89 "/>
   <polygon class="fil1" points="72777.66,2960.69 75617.32,2960.69 75617.32,120.89 72777.66,120.89 "/>
   <polygon class="fil0" points="69938,2960.69 72777.65,2960.69 72777.65,120.89 69938,120.89 "/>
   <polygon class="fil0" points="75617.32,2960.69 78457.45,2960.69 78457.45,120.89 75617.32,120.89 "/>
   <polygon class="fil1" points="69938,5800.53 72777.65,5800.53 72777.65,2960.69 69938,2960.69 "/>
   <polygon class="fil1" points="75617.32,5800.53 78457.45,5800.53 78457.45,2960.69 75617.32,2960.69 "/>
   <polygon class="fil0" points="72777.66,5800.53 75617.32,5800.53 75617.32,2960.69 72777.66,2960.69 "/>
   <polygon class="fil0" points="67097.89,5800.53 69938.01,5800.53 69938.01,2960.69 67097.89,2960.69 "/>
   <polygon class="fil1" points="67097.89,8640.34 69938.01,8640.34 69938.01,5800.55 67097.89,5800.55 "/>
   <polygon class="fil1" points="72777.66,8640.34 75617.32,8640.34 75617.32,5800.55 72777.66,5800.55 "/>
   <polygon class="fil0" points="69938,8640.34 72777.65,8640.34 72777.65,5800.55 69938,5800.55 "/>
   <polygon class="fil0" points="75617.32,8640.34 78457.45,8640.34 78457.45,5800.55 75617.32,5800.55 "/>
   <polygon class="fil1" points="69938,11480.13 72777.65,11480.13 72777.65,8640.32 69938,8640.32 "/>
   <polygon class="fil1" points="75617.32,11480.13 78457.45,11480.13 78457.45,8640.32 75617.32,8640.32 "/>
   <polygon class="fil0" points="72777.66,11480.13 75617.32,11480.13 75617.32,8640.32 72777.66,8640.32 "/>
   <polygon class="fil0" points="67097.89,11480.13 69938.01,11480.13 69938.01,8640.32 67097.89,8640.32 "/>
   <g style="clip-path:url(#id0)">
    <image x="-24.97" y="-25.03" width="33781.29" height="11529.84" xlink:href="background_Images\background_ImgID1.png"/>
   </g>
   <g style="clip-path:url(#id1)">
    <image x="33687.84" y="-25.03" width="3267.21" height="11529.84" xlink:href="background_Images\background_ImgID2.png"/>
   </g>
   <g style="clip-path:url(#id2)">
    <image x="77023.86" y="-25.03" width="4893.61" height="1496.65" xlink:href="background_Images\background_ImgID3.png"/>
   </g>
   <g style="clip-path:url(#id3)">
    <image x="80222.59" y="1403.15" width="1694.87" height="2942.83" xlink:href="background_Images\background_ImgID4.png"/>
   </g>
   <g style="clip-path:url(#id4)">
    <image x="80222.59" y="7133.82" width="1694.87" height="4371" xlink:href="background_Images\background_ImgID5.png"/>
   </g>
   <g style="clip-path:url(#id5)">
    <image x="77023.86" y="10008.17" width="3271.71" height="1496.65" xlink:href="background_Images\background_ImgID6.png"/>
   </g>
   <g style="clip-path:url(#id6)">
    <image x="74992" y="-25.03" width="6925.47" height="11529.84" xlink:href="background_Images\background_ImgID7.png"/>
   </g>
   <g style="clip-path:url(#id7)">
    <image x="75879.53" y="83.1" width="2618.45" height="717.24" xlink:href="background_Images\background_ImgID8.png"/>
   </g>
   <g style="clip-path:url(#id8)">
    <image x="78343.9" y="772.4" width="2640.97" height="9934.98" xlink:href="background_Images\background_ImgID9.png"/>
   </g>
   <g style="clip-path:url(#id9)">
    <image x="77154.52" y="754.39" width="1343.46" height="2231" xlink:href="background_Images\background_ImgID10.png"/>
   </g>
   <g style="clip-path:url(#id10)">
    <image x="78366.43" y="2916.9" width="131.55" height="2924.81" xlink:href="background_Images\background_ImgID11.png"/>
   </g>
   <g style="clip-path:url(#id11)">
    <image x="78343.9" y="5768.74" width="154.08" height="2902.28" xlink:href="background_Images\background_ImgID12.png"/>
   </g>
   <g style="clip-path:url(#id12)">
    <image x="75573.17" y="8602.54" width="2924.81" height="2902.28" xlink:href="background_Images\background_ImgID13.png"/>
   </g>
   <g style="clip-path:url(#id13)">
    <image x="74992" y="11391.28" width="654.16" height="113.53" xlink:href="background_Images\background_ImgID14.png"/>
   </g>
   <g style="clip-path:url(#id14)">
    <image x="35999.03" y="-25.03" width="12723.74" height="11529.84" xlink:href="background_Images\background_ImgID15.png"/>
   </g>
   <g style="clip-path:url(#id15)">
    <image x="46554.84" y="10720" width="9214.14" height="784.82" xlink:href="background_Images\background_ImgID16.png"/>
   </g>
   <g style="clip-path:url(#id16)">
    <image x="58534.31" y="10720" width="2924.81" height="784.82" xlink:href="background_Images\background_ImgID17.png"/>
   </g>
   <g style="clip-path:url(#id17)">
    <image x="64219.94" y="10720" width="2902.28" height="784.82" xlink:href="background_Images\background_ImgID18.png"/>
   </g>
   <g style="clip-path:url(#id18)">
    <image x="61390.64" y="10720" width="2902.28" height="784.82" xlink:href="background_Images\background_ImgID19.png"/>
   </g>
   <g style="clip-path:url(#id19)">
    <image x="55700.5" y="10720" width="2902.28" height="784.82" xlink:href="background_Images\background_ImgID20.png"/>
   </g>
   <g style="clip-path:url(#id20)">
    <image x="45257.33" y="754.38" width="33200.11" height="9971.03" xlink:href="background_Images\background_ImgID21.png"/>
   </g>
   <g style="clip-path:url(#id21)">
    <image x="55700.5" y="754.39" width="2902.28" height="2231" xlink:href="background_Images\background_ImgID22.png"/>
   </g>
   <g style="clip-path:url(#id22)">
    <image x="61390.64" y="754.39" width="2902.28" height="2231" xlink:href="background_Images\background_ImgID23.png"/>
   </g>
   <g style="clip-path:url(#id23)">
    <image x="58534.31" y="754.39" width="2924.81" height="2231" xlink:href="background_Images\background_ImgID24.png"/>
   </g>
   <g style="clip-path:url(#id24)">
    <image x="64219.94" y="754.39" width="2902.28" height="2231" xlink:href="background_Images\background_ImgID25.png"/>
   </g>
   <g style="clip-path:url(#id25)">
    <image x="58534.31" y="2916.9" width="2924.81" height="2924.81" xlink:href="background_Images\background_ImgID26.png"/>
   </g>
   <g style="clip-path:url(#id26)">
    <image x="64219.94" y="2916.9" width="2902.28" height="2924.81" xlink:href="background_Images\background_ImgID27.png"/>
   </g>
   <g style="clip-path:url(#id27)">
    <image x="61390.64" y="2916.9" width="2902.28" height="2924.81" xlink:href="background_Images\background_ImgID28.png"/>
   </g>
   <g style="clip-path:url(#id28)">
    <image x="55700.5" y="2916.9" width="2902.28" height="2924.81" xlink:href="background_Images\background_ImgID29.png"/>
   </g>
   <g style="clip-path:url(#id29)">
    <image x="55700.5" y="5768.74" width="2902.28" height="2902.28" xlink:href="background_Images\background_ImgID30.png"/>
   </g>
   <g style="clip-path:url(#id30)">
    <image x="61390.64" y="5768.74" width="2902.28" height="2902.28" xlink:href="background_Images\background_ImgID31.png"/>
   </g>
   <g style="clip-path:url(#id31)">
    <image x="58534.31" y="5768.74" width="2924.81" height="2902.28" xlink:href="background_Images\background_ImgID32.png"/>
   </g>
   <g style="clip-path:url(#id32)">
    <image x="64219.94" y="5768.74" width="2902.28" height="2902.28" xlink:href="background_Images\background_ImgID33.png"/>
   </g>
   <g style="clip-path:url(#id33)">
    <image x="58534.31" y="8602.53" width="2924.81" height="2122.88" xlink:href="background_Images\background_ImgID34.png"/>
   </g>
   <g style="clip-path:url(#id34)">
    <image x="64219.94" y="8602.53" width="2902.28" height="2122.88" xlink:href="background_Images\background_ImgID35.png"/>
   </g>
   <g style="clip-path:url(#id35)">
    <image x="61390.64" y="8602.53" width="2902.28" height="2122.88" xlink:href="background_Images\background_ImgID36.png"/>
   </g>
   <g style="clip-path:url(#id36)">
    <image x="55700.5" y="8602.53" width="2902.28" height="2122.88" xlink:href="background_Images\background_ImgID37.png"/>
   </g>
   <g style="clip-path:url(#id37)">
    <image x="67053.74" y="754.39" width="2924.81" height="2231" xlink:href="background_Images\background_ImgID38.png"/>
   </g>
   <g style="clip-path:url(#id38)">
    <image x="72743.87" y="754.39" width="2902.28" height="2231" xlink:href="background_Images\background_ImgID39.png"/>
   </g>
   <g style="clip-path:url(#id39)">
    <image x="69910.07" y="754.39" width="2902.28" height="2231" xlink:href="background_Images\background_ImgID40.png"/>
   </g>
   <g style="clip-path:url(#id40)">
    <image x="75573.17" y="754.39" width="2861.73" height="2231" xlink:href="background_Images\background_ImgID41.png"/>
   </g>
   <g style="clip-path:url(#id41)">
    <image x="69910.07" y="2916.9" width="2902.28" height="2924.81" xlink:href="background_Images\background_ImgID42.png"/>
   </g>
   <g style="clip-path:url(#id42)">
    <image x="75573.17" y="2916.9" width="2884.26" height="2924.81" xlink:href="background_Images\background_ImgID43.png"/>
   </g>
   <g style="clip-path:url(#id43)">
    <image x="72743.87" y="2916.9" width="2902.28" height="2924.81" xlink:href="background_Images\background_ImgID44.png"/>
   </g>
   <g style="clip-path:url(#id44)">
    <image x="67053.74" y="2916.9" width="2924.81" height="2924.81" xlink:href="background_Images\background_ImgID45.png"/>
   </g>
   <g style="clip-path:url(#id45)">
    <image x="67053.74" y="5768.74" width="2924.81" height="2902.28" xlink:href="background_Images\background_ImgID46.png"/>
   </g>
   <g style="clip-path:url(#id46)">
    <image x="72743.87" y="5768.74" width="2902.28" height="2902.28" xlink:href="background_Images\background_ImgID47.png"/>
   </g>
   <g style="clip-path:url(#id47)">
    <image x="69910.07" y="5768.74" width="2902.28" height="2902.28" xlink:href="background_Images\background_ImgID48.png"/>
   </g>
   <g style="clip-path:url(#id48)">
    <image x="75573.17" y="5768.74" width="2884.26" height="2902.28" xlink:href="background_Images\background_ImgID49.png"/>
   </g>
   <g style="clip-path:url(#id49)">
    <image x="46554.84" y="-25.03" width="29393.17" height="784.82" xlink:href="background_Images\background_ImgID50.png"/>
   </g>
   <g style="clip-path:url(#id50)">
    <image x="55700.5" y="83.1" width="2902.28" height="676.69" xlink:href="background_Images\background_ImgID51.png"/>
   </g>
   <g style="clip-path:url(#id51)">
    <image x="61390.64" y="83.1" width="2902.28" height="676.69" xlink:href="background_Images\background_ImgID52.png"/>
   </g>
   <g style="clip-path:url(#id52)">
    <image x="58534.31" y="83.1" width="2924.81" height="676.69" xlink:href="background_Images\background_ImgID53.png"/>
   </g>
   <g style="clip-path:url(#id53)">
    <image x="64219.94" y="83.1" width="2902.28" height="676.69" xlink:href="background_Images\background_ImgID54.png"/>
   </g>
   <g style="clip-path:url(#id54)">
    <image x="67053.74" y="83.1" width="2924.81" height="676.69" xlink:href="background_Images\background_ImgID55.png"/>
   </g>
   <g style="clip-path:url(#id55)">
    <image x="72743.87" y="83.1" width="2902.28" height="676.69" xlink:href="background_Images\background_ImgID56.png"/>
   </g>
   <g style="clip-path:url(#id56)">
    <image x="69910.07" y="83.1" width="2902.28" height="676.69" xlink:href="background_Images\background_ImgID57.png"/>
   </g>
   <g style="clip-path:url(#id57)">
    <image x="75573.17" y="83.1" width="1586.75" height="676.69" xlink:href="background_Images\background_ImgID58.png"/>
   </g>
   <g style="clip-path:url(#id58)">
    <image x="69910.07" y="8602.54" width="2902.28" height="2902.28" xlink:href="background_Images\background_ImgID59.png"/>
   </g>
   <g style="clip-path:url(#id59)">
    <image x="75573.17" y="8602.54" width="2839.21" height="2861.74" xlink:href="background_Images\background_ImgID60.png"/>
   </g>
   <g style="clip-path:url(#id60)">
    <image x="72743.87" y="8602.54" width="2902.28" height="2902.28" xlink:href="background_Images\background_ImgID61.png"/>
   </g>
   <g style="clip-path:url(#id61)">
    <image x="67053.74" y="8602.54" width="2924.81" height="2902.28" xlink:href="background_Images\background_ImgID62.png"/>
   </g>
  </g>
 </g>
</svg>
