<?xml version="1.0" encoding="UTF-8"?>
<!DOCTYPE svg PUBLIC "-//W3C//DTD SVG 1.1//EN" "http://www.w3.org/Graphics/SVG/1.1/DTD/svg11.dtd">
<!-- Creator: CorelDRAW -->
<svg xmlns="http://www.w3.org/2000/svg" xml:space="preserve" width="92.8389mm" height="51.946mm" version="1.1" style="shape-rendering:geometricPrecision; text-rendering:geometricPrecision; image-rendering:optimizeQuality; fill-rule:evenodd; clip-rule:evenodd"
viewBox="0 0 3340.83 1869.29"
 xmlns:xlink="http://www.w3.org/1999/xlink"
 xmlns:xodm="http://www.corel.com/coreldraw/odm/2003">
 <defs>
  <style type="text/css">
   <![CDATA[
    .str2 {stroke:#141E2C;stroke-width:22.16;stroke-linecap:round;stroke-linejoin:round;stroke-miterlimit:10}
    .str0 {stroke:#141E2C;stroke-width:101.56;stroke-linecap:round;stroke-linejoin:round;stroke-miterlimit:10}
    .str1 {stroke:#141E2C;stroke-width:63.47;stroke-linecap:round;stroke-linejoin:round;stroke-miterlimit:10}
    .fil1 {fill:none;fill-rule:nonzero}
    .fil36 {fill:#0CEF45;fill-rule:nonzero}
    .fil4 {fill:#141E2C;fill-rule:nonzero}
    .fil42 {fill:#295B73;fill-rule:nonzero}
    .fil29 {fill:#313134;fill-rule:nonzero}
    .fil39 {fill:#44AAF6;fill-rule:nonzero}
    .fil28 {fill:#454547;fill-rule:nonzero}
    .fil46 {fill:#984E0C;fill-rule:nonzero}
    .fil30 {fill:#9BDBE9;fill-rule:nonzero}
    .fil31 {fill:#A062C0;fill-rule:nonzero}
    .fil27 {fill:#D8DFE8;fill-rule:nonzero}
    .fil26 {fill:#FBFBF6;fill-rule:nonzero}
    .fil38 {fill:#FF0095;fill-rule:nonzero}
    .fil37 {fill:#FFD304;fill-rule:nonzero}
    .fil7 {fill:white;fill-rule:nonzero}
    .fil5 {fill:#A32B5C;fill-rule:nonzero;fill-opacity:0.278431}
    .fil32 {fill:#0A0306;fill-rule:nonzero;fill-opacity:0.509804}
    .fil45 {fill:black;fill-rule:nonzero;fill-opacity:0.588235}
    .fil41 {fill:black;fill-rule:nonzero;fill-opacity:0.670588}
    .fil43 {fill:#D1FFFB;fill-rule:nonzero}
    .fil13 {fill:url(#id36);fill-rule:nonzero}
    .fil24 {fill:url(#id37);fill-rule:nonzero}
    .fil33 {fill:url(#id38);fill-rule:nonzero}
    .fil34 {fill:url(#id39);fill-rule:nonzero}
    .fil20 {fill:url(#id40);fill-rule:nonzero}
    .fil9 {fill:url(#id41);fill-rule:nonzero}
    .fil12 {fill:url(#id42);fill-rule:nonzero}
    .fil17 {fill:url(#id43);fill-rule:nonzero}
    .fil16 {fill:url(#id44);fill-rule:nonzero}
    .fil15 {fill:url(#id45);fill-rule:nonzero}
    .fil25 {fill:url(#id46);fill-rule:nonzero}
    .fil21 {fill:url(#id47);fill-rule:nonzero}
    .fil19 {fill:url(#id48);fill-rule:nonzero}
    .fil11 {fill:url(#id49);fill-rule:nonzero}
    .fil23 {fill:url(#id50);fill-rule:nonzero}
    .fil8 {fill:url(#id51);fill-rule:nonzero}
    .fil35 {fill:url(#id52);fill-rule:nonzero}
    .fil6 {fill:url(#id53);fill-rule:nonzero}
    .fil2 {fill:url(#id54);fill-rule:nonzero}
    .fil22 {fill:url(#id55);fill-rule:nonzero}
    .fil44 {fill:url(#id56);fill-rule:nonzero}
    .fil40 {fill:url(#id57);fill-rule:nonzero}
    .fil18 {fill:url(#id58);fill-rule:nonzero}
    .fil10 {fill:url(#id59);fill-rule:nonzero}
    .fil14 {fill:url(#id60);fill-rule:nonzero}
    .fil3 {fill:url(#id61);fill-rule:nonzero}
    .fil0 {fill:url(#id62);fill-rule:nonzero;fill-opacity:0.800000}
   ]]>
  </style>
      <mask id="id0">
  <linearGradient id="id1" gradientUnits="userSpaceOnUse" x1="2365.97" y1="328.57" x2="2570.51" y2="244.8">
   <stop offset="0" style="stop-opacity:0.639216; stop-color:white"/>
   <stop offset="0.121569" style="stop-opacity:0.639216; stop-color:white"/>
   <stop offset="0.870588" style="stop-opacity:0.639216; stop-color:white"/>
   <stop offset="1" style="stop-opacity:0; stop-color:white"/>
  </linearGradient>
       <rect style="fill:url(#id1)" x="2361.18" y="243.41" width="129.65" height="121.14"/>
      </mask>
      <mask id="id2">
  <linearGradient id="id3" gradientUnits="userSpaceOnUse" x1="2396.55" y1="301.3" x2="2429.62" y2="269.89">
   <stop offset="0" style="stop-opacity:0.639216; stop-color:white"/>
   <stop offset="0.121569" style="stop-opacity:0.639216; stop-color:white"/>
   <stop offset="0.870588" style="stop-opacity:0.639216; stop-color:white"/>
   <stop offset="1" style="stop-opacity:0; stop-color:white"/>
  </linearGradient>
       <rect style="fill:url(#id3)" x="2395.52" y="281.49" width="21.47" height="21.17"/>
      </mask>
      <mask id="id4">
  <linearGradient id="id5" gradientUnits="userSpaceOnUse" x1="2399.64" y1="312.45" x2="2415.43" y2="297.45">
   <stop offset="0" style="stop-opacity:0.639216; stop-color:white"/>
   <stop offset="0.121569" style="stop-opacity:0.639216; stop-color:white"/>
   <stop offset="0.870588" style="stop-opacity:0.639216; stop-color:white"/>
   <stop offset="1" style="stop-opacity:0; stop-color:white"/>
  </linearGradient>
       <rect style="fill:url(#id5)" x="2398.39" y="302.23" width="11.77" height="11.63"/>
      </mask>
      <mask id="id6">
  <linearGradient id="id7" gradientUnits="userSpaceOnUse" x1="2487.76" y1="498.2" x2="2649.77" y2="347.85">
   <stop offset="0" style="stop-opacity:0.639216; stop-color:white"/>
   <stop offset="0.121569" style="stop-opacity:0.639216; stop-color:white"/>
   <stop offset="0.870588" style="stop-opacity:0.639216; stop-color:white"/>
   <stop offset="1" style="stop-opacity:0; stop-color:white"/>
  </linearGradient>
       <rect style="fill:url(#id7)" x="2471.69" y="391.24" width="127.24" height="125.66"/>
      </mask>
      <mask id="id8">
  <linearGradient id="id9" gradientUnits="userSpaceOnUse" x1="2490.07" y1="460.61" x2="2509.98" y2="419.58">
   <stop offset="0" style="stop-opacity:0.639216; stop-color:white"/>
   <stop offset="0.121569" style="stop-opacity:0.639216; stop-color:white"/>
   <stop offset="0.870588" style="stop-opacity:0.639216; stop-color:white"/>
   <stop offset="1" style="stop-opacity:0; stop-color:white"/>
  </linearGradient>
       <rect style="fill:url(#id9)" x="2487.11" y="436.36" width="17.6" height="24.41"/>
      </mask>
      <mask id="id10">
  <linearGradient id="id11" gradientUnits="userSpaceOnUse" x1="2496.88" y1="469.96" x2="2506.39" y2="450.38">
   <stop offset="0" style="stop-opacity:0.639216; stop-color:white"/>
   <stop offset="0.121569" style="stop-opacity:0.639216; stop-color:white"/>
   <stop offset="0.870588" style="stop-opacity:0.639216; stop-color:white"/>
   <stop offset="1" style="stop-opacity:0; stop-color:white"/>
  </linearGradient>
       <rect style="fill:url(#id11)" x="2494.66" y="457.66" width="10.02" height="13.11"/>
      </mask>
      <mask id="id12">
  <linearGradient id="id13" gradientUnits="userSpaceOnUse" x1="2655.26" y1="631.49" x2="2757.28" y2="435.42">
   <stop offset="0" style="stop-opacity:0.639216; stop-color:white"/>
   <stop offset="0.121569" style="stop-opacity:0.639216; stop-color:white"/>
   <stop offset="0.870588" style="stop-opacity:0.639216; stop-color:white"/>
   <stop offset="1" style="stop-opacity:0; stop-color:white"/>
  </linearGradient>
       <rect style="fill:url(#id13)" x="2626.33" y="508.76" width="117.74" height="130.37"/>
      </mask>
      <mask id="id14">
  <linearGradient id="id15" gradientUnits="userSpaceOnUse" x1="2633.57" y1="581.52" x2="2638.52" y2="536.16">
   <stop offset="0" style="stop-opacity:0.639216; stop-color:white"/>
   <stop offset="0.121569" style="stop-opacity:0.639216; stop-color:white"/>
   <stop offset="0.870588" style="stop-opacity:0.639216; stop-color:white"/>
   <stop offset="1" style="stop-opacity:0; stop-color:white"/>
  </linearGradient>
       <rect style="fill:url(#id15)" x="2627.45" y="555.25" width="15.14" height="25.91"/>
      </mask>
      <mask id="id16">
  <linearGradient id="id17" gradientUnits="userSpaceOnUse" x1="2643.13" y1="588.03" x2="2645.49" y2="566.38">
   <stop offset="0" style="stop-opacity:0.639216; stop-color:white"/>
   <stop offset="0.121569" style="stop-opacity:0.639216; stop-color:white"/>
   <stop offset="0.870588" style="stop-opacity:0.639216; stop-color:white"/>
   <stop offset="1" style="stop-opacity:0; stop-color:white"/>
  </linearGradient>
       <rect style="fill:url(#id17)" x="2639.35" y="574.78" width="8.94" height="13.8"/>
      </mask>
      <mask id="id18">
  <linearGradient id="id19" gradientUnits="userSpaceOnUse" x1="2826.13" y1="706.78" x2="2876.47" y2="491.56">
   <stop offset="0" style="stop-opacity:0.639216; stop-color:white"/>
   <stop offset="0.121569" style="stop-opacity:0.639216; stop-color:white"/>
   <stop offset="0.870588" style="stop-opacity:0.639216; stop-color:white"/>
   <stop offset="1" style="stop-opacity:0; stop-color:white"/>
  </linearGradient>
       <rect style="fill:url(#id19)" x="2777.03" y="581.1" width="127.76" height="125.02"/>
      </mask>
      <mask id="id20">
  <linearGradient id="id21" gradientUnits="userSpaceOnUse" x1="2800.82" y1="651.38" x2="2794.4" y2="606.21">
   <stop offset="0" style="stop-opacity:0.639216; stop-color:white"/>
   <stop offset="0.121569" style="stop-opacity:0.639216; stop-color:white"/>
   <stop offset="0.870588" style="stop-opacity:0.639216; stop-color:white"/>
   <stop offset="1" style="stop-opacity:0; stop-color:white"/>
  </linearGradient>
       <rect style="fill:url(#id21)" x="2791.25" y="625.23" width="15.35" height="25.79"/>
      </mask>
      <mask id="id22">
  <linearGradient id="id23" gradientUnits="userSpaceOnUse" x1="2811.69" y1="655.32" x2="2808.63" y2="633.77">
   <stop offset="0" style="stop-opacity:0.639216; stop-color:white"/>
   <stop offset="0.121569" style="stop-opacity:0.639216; stop-color:white"/>
   <stop offset="0.870588" style="stop-opacity:0.639216; stop-color:white"/>
   <stop offset="1" style="stop-opacity:0; stop-color:white"/>
  </linearGradient>
       <rect style="fill:url(#id23)" x="2806.28" y="642.12" width="9.03" height="13.74"/>
      </mask>
      <mask id="id24">
  <linearGradient id="id25" gradientUnits="userSpaceOnUse" x1="2992.65" y1="743.62" x2="3022.57" y2="524.63">
   <stop offset="0" style="stop-opacity:0.639216; stop-color:white"/>
   <stop offset="0.121569" style="stop-opacity:0.639216; stop-color:white"/>
   <stop offset="0.870588" style="stop-opacity:0.639216; stop-color:white"/>
   <stop offset="1" style="stop-opacity:0; stop-color:white"/>
  </linearGradient>
       <rect style="fill:url(#id25)" x="2936.6" y="618.77" width="129.67" height="121.15"/>
      </mask>
      <mask id="id26">
  <linearGradient id="id27" gradientUnits="userSpaceOnUse" x1="2966.37" y1="687.06" x2="2955.74" y2="642.69">
   <stop offset="0" style="stop-opacity:0.639216; stop-color:white"/>
   <stop offset="0.121569" style="stop-opacity:0.639216; stop-color:white"/>
   <stop offset="0.870588" style="stop-opacity:0.639216; stop-color:white"/>
   <stop offset="1" style="stop-opacity:0; stop-color:white"/>
  </linearGradient>
       <rect style="fill:url(#id27)" x="2955.3" y="661.29" width="15.91" height="25.48"/>
      </mask>
      <mask id="id28">
  <linearGradient id="id29" gradientUnits="userSpaceOnUse" x1="2977.57" y1="689.96" x2="2972.5" y2="668.79">
   <stop offset="0" style="stop-opacity:0.639216; stop-color:white"/>
   <stop offset="0.121569" style="stop-opacity:0.639216; stop-color:white"/>
   <stop offset="0.870588" style="stop-opacity:0.639216; stop-color:white"/>
   <stop offset="1" style="stop-opacity:0; stop-color:white"/>
  </linearGradient>
       <rect style="fill:url(#id29)" x="2971.44" y="676.94" width="9.27" height="13.6"/>
      </mask>
     <mask id="id30">
  <linearGradient id="id31" gradientUnits="userSpaceOnUse" x1="2987.51" y1="1134.08" x2="2954.69" y2="1352.27">
   <stop offset="0" style="stop-opacity:0.639216; stop-color:white"/>
   <stop offset="0.419608" style="stop-opacity:0.321569; stop-color:white"/>
   <stop offset="1" style="stop-opacity:0; stop-color:white"/>
  </linearGradient>
      <rect style="fill:url(#id31)" x="2788.03" y="1205.59" width="345.79" height="210.46"/>
     </mask>
      <mask id="id32">
  <linearGradient id="id33" gradientUnits="userSpaceOnUse" x1="2967.44" y1="1238.98" x2="3061.12" y2="1241.15">
   <stop offset="0" style="stop-opacity:0.639216; stop-color:white"/>
   <stop offset="0.419608" style="stop-opacity:0.321569; stop-color:white"/>
   <stop offset="1" style="stop-opacity:0; stop-color:white"/>
  </linearGradient>
       <rect style="fill:url(#id33)" x="2912.26" y="1221.69" width="49.65" height="33.16"/>
      </mask>
      <mask id="id34">
  <linearGradient id="id35" gradientUnits="userSpaceOnUse" x1="2961.47" y1="1237.61" x2="3056.71" y2="1239.81">
   <stop offset="0" style="stop-opacity:0.639216; stop-color:white"/>
   <stop offset="0.419608" style="stop-opacity:0.321569; stop-color:white"/>
   <stop offset="1" style="stop-opacity:0; stop-color:white"/>
  </linearGradient>
       <rect style="fill:url(#id35)" x="2959.05" y="1229.41" width="23.42" height="16.83"/>
      </mask>
  <linearGradient id="id36" gradientUnits="userSpaceOnUse" x1="2496.88" y1="469.96" x2="2506.39" y2="450.38">
   <stop offset="0" style="stop-opacity:1; stop-color:white"/>
   <stop offset="0.121569" style="stop-opacity:1; stop-color:white"/>
   <stop offset="0.870588" style="stop-opacity:1; stop-color:white"/>
   <stop offset="1" style="stop-opacity:1; stop-color:white"/>
  </linearGradient>
  <linearGradient id="id37" gradientUnits="userSpaceOnUse" xlink:href="#id36" x1="2966.37" y1="687.06" x2="2955.74" y2="642.69">
  </linearGradient>
  <linearGradient id="id38" gradientUnits="userSpaceOnUse" x1="2987.51" y1="1134.08" x2="2954.69" y2="1352.27">
   <stop offset="0" style="stop-opacity:1; stop-color:white"/>
   <stop offset="0.419608" style="stop-opacity:1; stop-color:white"/>
   <stop offset="1" style="stop-opacity:1; stop-color:white"/>
  </linearGradient>
  <linearGradient id="id39" gradientUnits="userSpaceOnUse" xlink:href="#id38" x1="2967.44" y1="1238.98" x2="3061.12" y2="1241.15">
  </linearGradient>
  <linearGradient id="id40" gradientUnits="userSpaceOnUse" xlink:href="#id36" x1="2800.82" y1="651.38" x2="2794.4" y2="606.21">
  </linearGradient>
  <linearGradient id="id41" gradientUnits="userSpaceOnUse" xlink:href="#id36" x1="2399.64" y1="312.45" x2="2415.43" y2="297.45">
  </linearGradient>
  <linearGradient id="id42" gradientUnits="userSpaceOnUse" xlink:href="#id36" x1="2490.07" y1="460.61" x2="2509.98" y2="419.58">
  </linearGradient>
  <linearGradient id="id43" gradientUnits="userSpaceOnUse" xlink:href="#id36" x1="2643.13" y1="588.03" x2="2645.49" y2="566.38">
  </linearGradient>
  <linearGradient id="id44" gradientUnits="userSpaceOnUse" xlink:href="#id36" x1="2633.57" y1="581.52" x2="2638.52" y2="536.16">
  </linearGradient>
  <linearGradient id="id45" gradientUnits="userSpaceOnUse" xlink:href="#id36" x1="2655.26" y1="631.49" x2="2757.28" y2="435.42">
  </linearGradient>
  <linearGradient id="id46" gradientUnits="userSpaceOnUse" xlink:href="#id36" x1="2977.57" y1="689.96" x2="2972.5" y2="668.79">
  </linearGradient>
  <linearGradient id="id47" gradientUnits="userSpaceOnUse" xlink:href="#id36" x1="2811.69" y1="655.32" x2="2808.63" y2="633.77">
  </linearGradient>
  <linearGradient id="id48" gradientUnits="userSpaceOnUse" xlink:href="#id36" x1="2826.13" y1="706.78" x2="2876.47" y2="491.56">
  </linearGradient>
  <linearGradient id="id49" gradientUnits="userSpaceOnUse" xlink:href="#id36" x1="2487.76" y1="498.2" x2="2649.77" y2="347.85">
  </linearGradient>
  <linearGradient id="id50" gradientUnits="userSpaceOnUse" xlink:href="#id36" x1="2992.65" y1="743.62" x2="3022.57" y2="524.63">
  </linearGradient>
  <linearGradient id="id51" gradientUnits="userSpaceOnUse" xlink:href="#id36" x1="2396.55" y1="301.3" x2="2429.62" y2="269.89">
  </linearGradient>
  <linearGradient id="id52" gradientUnits="userSpaceOnUse" xlink:href="#id38" x1="2961.47" y1="1237.61" x2="3056.71" y2="1239.81">
  </linearGradient>
  <linearGradient id="id53" gradientUnits="userSpaceOnUse" xlink:href="#id36" x1="2365.97" y1="328.57" x2="2570.51" y2="244.8">
  </linearGradient>
  <radialGradient id="id54" gradientUnits="userSpaceOnUse" gradientTransform="matrix(1.5836 -0 -0 1.5836 -522 -452)" cx="893.9" cy="774.7" r="809.61" fx="893.9" fy="774.7">
   <stop offset="0" style="stop-opacity:1; stop-color:#FF73BB"/>
   <stop offset="0.690196" style="stop-opacity:1; stop-color:#FF73BB"/>
   <stop offset="0.968627" style="stop-opacity:1; stop-color:#E73A80"/>
   <stop offset="1" style="stop-opacity:1; stop-color:#E73A80"/>
  </radialGradient>
  <radialGradient id="id55" gradientUnits="userSpaceOnUse" gradientTransform="matrix(0.109714 -2.32045 2.3205 0.109717 917 7640)" cx="3002.13" cy="756.54" r="81.47" fx="3002.13" fy="756.54">
   <stop offset="0" style="stop-opacity:1; stop-color:#37BCF8"/>
   <stop offset="0.270588" style="stop-opacity:1; stop-color:#37BCF8"/>
   <stop offset="0.611765" style="stop-opacity:1; stop-color:#1D94CD"/>
   <stop offset="1" style="stop-opacity:1; stop-color:#036CA3"/>
  </radialGradient>
  <radialGradient id="id56" gradientUnits="userSpaceOnUse" gradientTransform="matrix(-0.828926 2.02007 -2.02008 -0.828928 6797 -5571)" cx="3189.55" cy="477.08" r="124.82" fx="3189.55" fy="477.08">
   <stop offset="0" style="stop-opacity:1; stop-color:#FFC199"/>
   <stop offset="0.109804" style="stop-opacity:1; stop-color:#FFC199"/>
   <stop offset="0.458824" style="stop-opacity:1; stop-color:#FDC18D"/>
   <stop offset="0.74902" style="stop-opacity:1; stop-color:#FCC182"/>
   <stop offset="1" style="stop-opacity:1; stop-color:#FCC182"/>
  </radialGradient>
  <radialGradient id="id57" gradientUnits="userSpaceOnUse" gradientTransform="matrix(0.904367 1.38707 -1.38707 0.904367 1748 -157)" cx="199.47" cy="1246.66" r="213.42" fx="199.47" fy="1246.66">
   <stop offset="0" style="stop-opacity:1; stop-color:#ABFBF6"/>
   <stop offset="0.109804" style="stop-opacity:1; stop-color:#ABFBF6"/>
   <stop offset="0.458824" style="stop-opacity:1; stop-color:#95EFE9"/>
   <stop offset="0.74902" style="stop-opacity:1; stop-color:#80E4DD"/>
   <stop offset="1" style="stop-opacity:1; stop-color:#80E4DD"/>
  </radialGradient>
  <radialGradient id="id58" gradientUnits="userSpaceOnUse" gradientTransform="matrix(0.111231 -2.35253 2.35253 0.111231 833 7347)" cx="2850.16" cy="722.52" r="80.37" fx="2850.16" fy="722.52">
   <stop offset="0" style="stop-opacity:1; stop-color:#FF3786"/>
   <stop offset="0.270588" style="stop-opacity:1; stop-color:#FF3786"/>
   <stop offset="0.611765" style="stop-opacity:1; stop-color:#D13171"/>
   <stop offset="1" style="stop-opacity:1; stop-color:#A32B5C"/>
  </radialGradient>
  <radialGradient id="id59" gradientUnits="userSpaceOnUse" gradientTransform="matrix(0.111655 -2.3615 2.36151 0.111655 1087 6563)" xlink:href="#id58" cx="2586.28" cy="512.62" r="80.07" fx="2586.28" fy="512.62">
  </radialGradient>
  <radialGradient id="id60" gradientUnits="userSpaceOnUse" gradientTransform="matrix(0.109149 -2.30851 2.30856 0.109152 931 6833)" cx="2711.59" cy="643.06" r="81.9" fx="2711.59" fy="643.06">
   <stop offset="0" style="stop-opacity:1; stop-color:#80F837"/>
   <stop offset="0.188235" style="stop-opacity:1; stop-color:#80F837"/>
   <stop offset="0.568627" style="stop-opacity:1; stop-color:#41CD27"/>
   <stop offset="1" style="stop-opacity:1; stop-color:#03A318"/>
  </radialGradient>
  <radialGradient id="id61" gradientUnits="userSpaceOnUse" gradientTransform="matrix(0.109745 -2.3211 2.32105 0.109742 1428 6083)" xlink:href="#id55" cx="2490.48" cy="340.04" r="81.46" fx="2490.48" fy="340.04">
  </radialGradient>
  <linearGradient id="id62" gradientUnits="userSpaceOnUse" x1="1671.76" y1="1818.54" x2="1671.76" y2="129.93">
   <stop offset="0" style="stop-opacity:1; stop-color:#3180BB"/>
   <stop offset="0.568627" style="stop-opacity:1; stop-color:#192735"/>
   <stop offset="0.94902" style="stop-opacity:1; stop-color:#192735"/>
   <stop offset="1" style="stop-opacity:1; stop-color:#192735"/>
  </linearGradient>
 </defs>
 <g id="__x0023_Layer_x0020_1">
  <metadata id="CorelCorpID_0Corel-Layer"/>
  <g id="_1336036992112">
   <g>
    <g>
     <path class="fil0" d="M1671.76 129.93c-916.18,0 -1555.73,493.27 -1555.73,950.48 0,135.57 76.81,248.86 215.23,339.07l-95.05 370.09c-4.71,18.68 14.05,34.65 31.74,27.02l517 -222.95c245.2,55.62 546.94,83.98 886.81,83.98 916.18,0 1555.73,-205.88 1555.73,-597.21 0,-488.33 -639.55,-950.48 -1555.73,-950.48z"/>
    </g>
    <path class="fil1 str0" d="M1671.76 129.93c-916.18,0 -1555.73,493.27 -1555.73,950.48 0,135.57 76.81,248.86 215.23,339.07"/>
    <line class="fil1 str0" x1="331.27" y1="1419.47" x2="236.21" y2= "1789.57" />
    <path class="fil1 str0" d="M236.21 1789.57c-4.71,18.68 14.05,34.65 31.74,27.02"/>
    <line class="fil1 str0" x1="267.96" y1="1816.59" x2="784.95" y2= "1593.63" />
    <path class="fil1 str0" d="M784.95 1593.63c245.2,55.62 546.94,83.98 886.81,83.98 916.18,0 1555.73,-205.88 1555.73,-597.21 0,-488.33 -639.55,-950.48 -1555.73,-950.48"/>
    <path class="fil2" d="M1671.76 161.67l0.41 -0 0.41 -0.01 0.41 -0.01 0.41 -0.02 0.4 -0.03 0.41 -0.03 0.4 -0.03 0.4 -0.04 0.4 -0.04 0.4 -0.05 0.4 -0.05 0.4 -0.06 0.39 -0.06 0.39 -0.07 0.39 -0.07 0.39 -0.08 0.39 -0.08 0.39 -0.09 0.38 -0.09 0.38 -0.1 0.38 -0.1 0.38 -0.1 0.37 -0.11 0.37 -0.12 0.37 -0.12 0.37 -0.12 0.37 -0.13 0.37 -0.13 0.36 -0.14 0.36 -0.14 0.36 -0.14 0.36 -0.15 0.36 -0.15 0.35 -0.15 0.35 -0.16 0.35 -0.17 0.35 -0.17 0.34 -0.17 0.34 -0.18 0.34 -0.18 0.33 -0.18 0.33 -0.19 0.33 -0.19 0.33 -0.2 0.33 -0.2 0.32 -0.21 0.32 -0.21 0.32 -0.21 0.32 -0.22 0.31 -0.22 0.31 -0.22 0.31 -0.23 0.31 -0.23 0.3 -0.23 0.3 -0.24 0.3 -0.24 0.3 -0.24 0.29 -0.25 0.29 -0.25 0.28 -0.25 0.28 -0.26 0.28 -0.26 0.27 -0.26 0.27 -0.27 0.27 -0.27 0.26 -0.27 0.26 -0.28 0.26 -0.28 0.25 -0.28 0.25 -0.29 0.25 -0.29 0.24 -0.3 0.24 -0.3 0.24 -0.3 0.23 -0.3 0.23 -0.31 0.23 -0.31 0.22 -0.31 0.22 -0.31 0.22 -0.32 0.21 -0.32 0.21 -0.32 0.21 -0.32 0.2 -0.33 0.2 -0.33 0.19 -0.33 0.19 -0.33 0.18 -0.33 0.18 -0.34 0.18 -0.34 0.17 -0.34 0.17 -0.35 0.17 -0.35 0.16 -0.35 0.15 -0.35 0.15 -0.36 0.15 -0.36 0.14 -0.36 0.14 -0.36 0.14 -0.36 0.13 -0.37 0.13 -0.37 0.12 -0.37 0.12 -0.37 0.12 -0.37 0.11 -0.37 0.1 -0.38 0.1 -0.38 0.1 -0.38 0.09 -0.38 0.09 -0.39 0.08 -0.39 0.08 -0.39 0.07 -0.39 0.07 -0.39 0.06 -0.39 0.06 -0.4 0.05 -0.4 0.05 -0.4 0.04 -0.4 0.04 -0.4 0.03 -0.4 0.03 -0.41 0.03 -0.4 0.02 -0.41 0.01 -0.41 0.01 -0.41 0 -0.41 -0 -0.41 -0.01 -0.41 -0.01 -0.41 -0.02 -0.41 -0.03 -0.4 -0.03 -0.41 -0.03 -0.4 -0.04 -0.4 -0.04 -0.4 -0.05 -0.4 -0.05 -0.4 -0.06 -0.4 -0.06 -0.39 -0.07 -0.39 -0.07 -0.39 -0.08 -0.39 -0.08 -0.39 -0.09 -0.39 -0.09 -0.38 -0.1 -0.38 -0.1 -0.38 -0.1 -0.38 -0.11 -0.37 -0.12 -0.37 -0.12 -0.37 -0.12 -0.37 -0.13 -0.37 -0.13 -0.37 -0.14 -0.36 -0.14 -0.36 -0.14 -0.36 -0.15 -0.36 -0.15 -0.36 -0.15 -0.35 -0.16 -0.35 -0.17 -0.35 -0.17 -0.35 -0.17 -0.34 -0.18 -0.34 -0.18 -0.34 -0.18 -0.33 -0.19 -0.33 -0.19 -0.33 -0.2 -0.33 -0.2 -0.33 -0.21 -0.32 -0.21 -0.32 -0.21 -0.32 -0.22 -0.32 -0.22 -0.31 -0.22 -0.31 -0.23 -0.31 -0.23 -0.31 -0.23 -0.3 -0.24 -0.3 -0.24 -0.3 -0.24 -0.3 -0.25 -0.29 -0.25 -0.29 -0.25 -0.28 -0.26 -0.28 -0.26 -0.28 -0.26 -0.27 -0.27 -0.27 -0.27 -0.27 -0.27 -0.26 -0.28 -0.26 -0.28 -0.26 -0.28 -0.25 -0.29 -0.25 -0.29 -0.25 -0.3 -0.24 -0.3 -0.24 -0.3 -0.24 -0.3 -0.23 -0.31 -0.23 -0.31 -0.23 -0.31 -0.22 -0.31 -0.22 -0.32 -0.22 -0.32 -0.21 -0.32 -0.21 -0.32 -0.21 -0.33 -0.2 -0.33 -0.2 -0.33 -0.19 -0.33 -0.19 -0.33 -0.18 -0.34 -0.18 -0.34 -0.18 -0.34 -0.17 -0.35 -0.17 -0.35 -0.17 -0.35 -0.16 -0.35 -0.15 -0.36 -0.15 -0.36 -0.15 -0.36 -0.14 -0.36 -0.14 -0.36 -0.14 -0.37 -0.13 -0.37 -0.13 -0.37 -0.12 -0.37 -0.12 -0.37 -0.12 -0.37 -0.11 -0.38 -0.1 -0.38 -0.1 -0.38 -0.1 -0.38 -0.09 -0.39 -0.09 -0.39 -0.08 -0.39 -0.08 -0.39 -0.07 -0.39 -0.07 -0.39 -0.06 -0.4 -0.06 -0.4 -0.05 -0.4 -0.05 -0.4 -0.04 -0.4 -0.04 -0.4 -0.03 -0.41 -0.03 -0.4 -0.03 -0.41 -0.02 -0.41 -0.01 -0.41 -0.01 -0.41 -0zm-1523.99 982.22l0 0 0.03 -5.02 0.08 -5.02 0.14 -5.01 0.19 -5.03 0.25 -5.03 0.3 -5.03 0.35 -5.04 0.41 -5.04 0.46 -5.05 0.52 -5.06 0.57 -5.05 0.62 -5.04 0.68 -5.06 0.73 -5.07 0.78 -5.06 0.84 -5.06 0.9 -5.07 0.95 -5.07 1 -5.08 1.05 -5.08 1.1 -5.07 1.16 -5.08 1.22 -5.09 1.26 -5.08 1.32 -5.08 1.37 -5.08 1.43 -5.09 1.48 -5.09 1.53 -5.07 1.58 -5.09 1.63 -5.09 1.69 -5.08 1.74 -5.09 1.8 -5.1 1.84 -5.09 1.89 -5.08 1.95 -5.08 2 -5.09 2.06 -5.09 2.1 -5.08 2.16 -5.07 2.21 -5.08 2.26 -5.08 2.31 -5.07 2.36 -5.08 2.41 -5.06 2.47 -5.07 2.52 -5.08 2.56 -5.05 2.62 -5.06 2.67 -5.05 2.72 -5.05 2.77 -5.05 2.82 -5.05 2.87 -5.03 2.93 -5.03 2.98 -5.03 3.02 -5.02 3.08 -5.02 3.13 -5.02 3.17 -5 3.23 -5.01 3.27 -4.99 3.33 -4.98 3.37 -4.98 3.43 -4.98 3.47 -4.97 3.52 -4.96 3.57 -4.95 3.62 -4.95 3.66 -4.93 3.72 -4.93 3.76 -4.92 3.82 -4.91 3.86 -4.91 3.91 -4.89 3.96 -4.89 4.01 -4.88 4.06 -4.87 4.1 -4.86 4.15 -4.84 4.21 -4.84 4.25 -4.83 4.29 -4.81 4.34 -4.8 4.4 -4.8 4.44 -4.79 4.48 -4.77 4.53 -4.76 4.59 -4.76 4.62 -4.74 4.67 -4.72 4.72 -4.72 4.77 -4.7 4.81 -4.69 4.87 -4.68 4.9 -4.66 4.95 -4.64 5 -4.64 5.04 -4.62 5.08 -4.6 5.14 -4.6 5.18 -4.58 5.22 -4.56 5.27 -4.55 5.32 -4.53 5.35 -4.51 5.4 -4.5 5.45 -4.49 5.49 -4.47 5.54 -4.45 5.58 -4.44 5.62 -4.42 5.67 -4.4 5.72 -4.39 5.76 -4.37 5.8 -4.35 5.84 -4.33 5.89 -4.31 5.93 -4.3 5.98 -4.28 6.02 -4.27 6.06 -4.24 6.09 -4.22 6.15 -4.2 6.19 -4.2 6.23 -4.17 6.27 -4.15 6.31 -4.13 6.35 -4.11 6.39 -4.09 6.44 -4.07 6.47 -4.04 6.52 -4.02 6.56 -4.01 6.6 -3.98 6.65 -3.97 6.69 -3.94 6.73 -3.92 6.76 -3.89 6.81 -3.87 6.85 -3.85 6.89 -3.83 6.92 -3.8 6.97 -3.78 7.01 -3.76 7.04 -3.74 7.09 -3.71 7.13 -3.69 7.16 -3.67 7.2 -3.64 7.25 -3.62 7.28 -3.59 7.32 -3.57 7.37 -3.54 7.39 -3.52 7.43 -3.49 7.47 -3.47 7.51 -3.44 7.56 -3.42 7.59 -3.39 7.63 -3.36 7.66 -3.34 7.7 -3.3 7.75 -3.29 7.77 -3.26 7.81 -3.22 7.86 -3.21 7.88 -3.17 7.92 -3.14 7.97 -3.12 7.99 -3.09 8.03 -3.06 8.07 -3.03 8.11 -3 8.14 -2.98 8.18 -2.94 8.2 -2.91 8.25 -2.88 8.28 -2.86 8.32 -2.82 8.36 -2.79 8.39 -2.76 8.42 -2.73 8.45 -2.7 8.49 -2.67 8.52 -2.64 8.56 -2.61 8.6 -2.58 8.63 -2.55 8.66 -2.51 8.7 -2.48 8.73 -2.45 8.77 -2.41 8.8 -2.39 8.83 -2.35 8.86 -2.31 8.9 -2.29 8.93 -2.25 8.96 -2.21 9 -2.18 9.03 -2.15 9.06 -2.11 9.09 -2.08 9.13 -2.04 9.16 -2.01 9.18 -1.97 9.22 -1.94 9.26 -1.91 9.28 -1.87 9.31 -1.83 9.35 -1.8 9.37 -1.76 9.41 -1.72 9.44 -1.69 9.47 -1.65 9.5 -1.62 9.53 -1.58 9.56 -1.54 9.59 -1.5 9.63 -1.46 9.65 -1.43 9.68 -1.39 9.71 -1.35 9.74 -1.31 9.77 -1.27 9.8 -1.23 9.82 -1.19 9.86 -1.15 9.89 -1.12 9.92 -1.08 9.94 -1.04 9.97 -0.99 10 -0.96 10.03 -0.91 10.05 -0.87 10.09 -0.83 10.11 -0.79 10.14 -0.75 10.16 -0.71 10.19 -0.67 10.23 -0.63 10.25 -0.59 10.27 -0.54 10.3 -0.5 10.33 -0.46 10.36 -0.42 10.39 -0.37 10.4 -0.33 10.43 -0.28 10.46 -0.24 10.49 -0.2 10.51 -0.15 10.54 -0.11 10.57 -0.07 10.59 -0.02 0 -63.48 -10.86 0.03 -10.83 0.07 -10.81 0.11 -10.78 0.16 -10.75 0.2 -10.73 0.25 -10.71 0.29 -10.68 0.34 -10.65 0.38 -10.62 0.42 -10.59 0.47 -10.57 0.51 -10.55 0.56 -10.51 0.6 -10.49 0.64 -10.47 0.69 -10.44 0.73 -10.41 0.77 -10.38 0.81 -10.35 0.86 -10.33 0.9 -10.3 0.94 -10.26 0.98 -10.24 1.02 -10.21 1.07 -10.18 1.1 -10.15 1.14 -10.12 1.19 -10.1 1.22 -10.07 1.27 -10.04 1.31 -10.01 1.35 -9.98 1.39 -9.96 1.43 -9.92 1.46 -9.89 1.5 -9.87 1.54 -9.83 1.58 -9.8 1.62 -9.77 1.66 -9.73 1.7 -9.71 1.73 -9.68 1.77 -9.65 1.81 -9.61 1.85 -9.59 1.88 -9.56 1.93 -9.51 1.96 -9.49 1.99 -9.47 2.04 -9.42 2.07 -9.4 2.1 -9.36 2.14 -9.33 2.18 -9.3 2.21 -9.26 2.25 -9.24 2.29 -9.2 2.32 -9.16 2.35 -9.14 2.39 -9.11 2.42 -9.07 2.46 -9.03 2.49 -9.01 2.52 -8.96 2.56 -8.94 2.59 -8.9 2.63 -8.86 2.66 -8.83 2.69 -8.8 2.72 -8.77 2.76 -8.73 2.79 -8.69 2.82 -8.66 2.85 -8.62 2.89 -8.6 2.91 -8.56 2.95 -8.51 2.98 -8.49 3.01 -8.45 3.04 -8.42 3.07 -8.37 3.1 -8.34 3.13 -8.31 3.16 -8.27 3.2 -8.23 3.22 -8.2 3.25 -8.17 3.29 -8.11 3.31 -8.09 3.34 -8.05 3.37 -8.01 3.39 -7.98 3.43 -7.94 3.46 -7.9 3.48 -7.87 3.52 -7.82 3.53 -7.79 3.57 -7.75 3.59 -7.72 3.62 -7.68 3.65 -7.63 3.67 -7.6 3.7 -7.55 3.73 -7.52 3.75 -7.48 3.78 -7.45 3.81 -7.39 3.83 -7.36 3.86 -7.32 3.88 -7.28 3.91 -7.25 3.93 -7.2 3.96 -7.16 3.98 -7.12 4.01 -7.08 4.03 -7.05 4.06 -7.01 4.08 -6.96 4.11 -6.92 4.12 -6.88 4.15 -6.84 4.17 -6.8 4.2 -6.76 4.22 -6.71 4.24 -6.68 4.26 -6.64 4.29 -6.59 4.31 -6.56 4.34 -6.51 4.35 -6.46 4.37 -6.42 4.4 -6.39 4.42 -6.34 4.44 -6.29 4.45 -6.25 4.48 -6.21 4.5 -6.17 4.52 -6.13 4.55 -6.08 4.56 -6.03 4.58 -5.99 4.6 -5.95 4.62 -5.91 4.65 -5.86 4.66 -5.82 4.68 -5.78 4.7 -5.73 4.71 -5.69 4.73 -5.64 4.76 -5.6 4.77 -5.55 4.79 -5.51 4.81 -5.46 4.83 -5.41 4.84 -5.37 4.87 -5.32 4.88 -5.28 4.89 -5.24 4.92 -5.19 4.93 -5.14 4.94 -5.09 4.96 -5.05 4.98 -5 4.99 -4.96 5.01 -4.9 5.03 -4.85 5.03 -4.81 5.06 -4.78 5.08 -4.71 5.09 -4.67 5.09 -4.62 5.12 -4.58 5.14 -4.52 5.14 -4.48 5.15 -4.44 5.18 -4.38 5.19 -4.33 5.2 -4.29 5.21 -4.24 5.23 -4.19 5.24 -4.14 5.25 -4.09 5.26 -4.04 5.28 -3.99 5.29 -3.94 5.31 -3.89 5.31 -3.84 5.33 -3.79 5.34 -3.74 5.35 -3.69 5.36 -3.64 5.37 -3.59 5.39 -3.54 5.4 -3.49 5.4 -3.43 5.42 -3.38 5.42 -3.34 5.44 -3.29 5.46 -3.22 5.45 -3.18 5.47 -3.13 5.48 -3.07 5.48 -3.02 5.49 -2.97 5.51 -2.91 5.51 -2.86 5.52 -2.81 5.54 -2.75 5.53 -2.7 5.54 -2.65 5.56 -2.59 5.56 -2.54 5.57 -2.48 5.58 -2.43 5.57 -2.38 5.6 -2.32 5.6 -2.26 5.6 -2.21 5.61 -2.16 5.62 -2.1 5.64 -2.04 5.63 -1.98 5.62 -1.93 5.64 -1.87 5.65 -1.81 5.65 -1.76 5.65 -1.71 5.68 -1.64 5.66 -1.59 5.67 -1.53 5.68 -1.48 5.69 -1.41 5.68 -1.35 5.68 -1.3 5.69 -1.24 5.7 -1.18 5.7 -1.12 5.7 -1.06 5.7 -1 5.7 -0.95 5.71 -0.89 5.71 -0.82 5.71 -0.77 5.7 -0.71 5.73 -0.64 5.71 -0.58 5.7 -0.53 5.71 -0.46 5.71 -0.4 5.71 -0.34 5.71 -0.28 5.71 -0.22 5.7 -0.15 5.72 -0.09 5.71 -0.03 5.7 0 0zm0 0l0 0.41 0.01 0.41 0.01 0.41 0.02 0.41 0.03 0.4 0.03 0.41 0.03 0.4 0.04 0.4 0.04 0.4 0.05 0.4 0.05 0.4 0.06 0.4 0.06 0.39 0.07 0.39 0.07 0.39 0.08 0.39 0.08 0.39 0.09 0.39 0.09 0.38 0.1 0.38 0.1 0.38 0.1 0.38 0.11 0.37 0.12 0.37 0.12 0.37 0.12 0.37 0.13 0.37 0.13 0.37 0.14 0.36 0.14 0.36 0.14 0.36 0.15 0.36 0.15 0.36 0.15 0.35 0.16 0.35 0.17 0.35 0.17 0.35 0.17 0.34 0.18 0.34 0.18 0.34 0.18 0.33 0.19 0.33 0.19 0.33 0.2 0.33 0.2 0.33 0.21 0.32 0.21 0.32 0.21 0.32 0.22 0.32 0.22 0.31 0.22 0.31 0.23 0.31 0.23 0.31 0.23 0.3 0.24 0.3 0.24 0.3 0.24 0.3 0.25 0.29 0.25 0.29 0.25 0.28 0.26 0.28 0.26 0.28 0.26 0.27 0.27 0.27 0.27 0.27 0.27 0.26 0.28 0.26 0.28 0.26 0.28 0.25 0.29 0.25 0.29 0.25 0.3 0.24 0.3 0.24 0.3 0.24 0.3 0.23 0.31 0.23 0.31 0.23 0.31 0.22 0.31 0.22 0.32 0.22 0.32 0.21 0.32 0.21 0.32 0.21 0.33 0.2 0.33 0.2 0.33 0.19 0.33 0.19 0.33 0.18 0.34 0.18 0.34 0.18 0.34 0.17 0.35 0.17 0.35 0.17 0.35 0.16 0.35 0.15 0.36 0.15 0.36 0.15 0.36 0.14 0.36 0.14 0.36 0.14 0.37 0.13 0.37 0.13 0.37 0.12 0.37 0.12 0.37 0.12 0.37 0.11 0.38 0.1 0.38 0.1 0.38 0.1 0.38 0.09 0.39 0.09 0.39 0.08 0.39 0.08 0.39 0.07 0.39 0.07 0.39 0.06 0.4 0.06 0.4 0.05 0.4 0.05 0.4 0.04 0.4 0.04 0.4 0.03 0.41 0.03 0.4 0.03 0.41 0.02 0.41 0.01 0.41 0.01 0.41 0 0.41 -0 0.41 -0.01 0.41 -0.01 0.41 -0.02 0.4 -0.03 0.41 -0.03 0.4 -0.03 0.4 -0.04 0.4 -0.04 0.4 -0.05 0.4 -0.05 0.4 -0.06 0.39 -0.06 0.39 -0.07 0.39 -0.07 0.39 -0.08 0.39 -0.08 0.39 -0.09 0.38 -0.09 0.38 -0.1 0.38 -0.1 0.38 -0.1 0.37 -0.11 0.37 -0.12 0.37 -0.12 0.37 -0.12 0.37 -0.13 0.37 -0.13 0.36 -0.14 0.36 -0.14 0.36 -0.14 0.36 -0.15 0.36 -0.15 0.35 -0.15 0.35 -0.16 0.35 -0.17 0.35 -0.17 0.34 -0.17 0.34 -0.18 0.34 -0.18 0.33 -0.18 0.33 -0.19 0.33 -0.19 0.33 -0.2 0.33 -0.2 0.32 -0.21 0.32 -0.21 0.32 -0.21 0.32 -0.22 0.31 -0.22 0.31 -0.22 0.31 -0.23 0.31 -0.23 0.3 -0.23 0.3 -0.24 0.3 -0.24 0.3 -0.24 0.29 -0.25 0.29 -0.25 0.28 -0.25 0.28 -0.26 0.28 -0.26 0.27 -0.26 0.27 -0.27 0.27 -0.27 0.26 -0.27 0.26 -0.28 0.26 -0.28 0.25 -0.28 0.25 -0.29 0.25 -0.29 0.24 -0.3 0.24 -0.3 0.24 -0.3 0.23 -0.3 0.23 -0.31 0.23 -0.31 0.22 -0.31 0.22 -0.31 0.22 -0.32 0.21 -0.32 0.21 -0.32 0.21 -0.32 0.2 -0.33 0.2 -0.33 0.19 -0.33 0.19 -0.33 0.18 -0.33 0.18 -0.34 0.18 -0.34 0.17 -0.34 0.17 -0.35 0.17 -0.35 0.16 -0.35 0.15 -0.35 0.15 -0.36 0.15 -0.36 0.14 -0.36 0.14 -0.36 0.14 -0.36 0.13 -0.37 0.13 -0.37 0.12 -0.37 0.12 -0.37 0.12 -0.37 0.11 -0.37 0.1 -0.38 0.1 -0.38 0.1 -0.38 0.09 -0.38 0.09 -0.39 0.08 -0.39 0.08 -0.39 0.07 -0.39 0.07 -0.39 0.06 -0.39 0.06 -0.4 0.05 -0.4 0.05 -0.4 0.04 -0.4 0.04 -0.4 0.03 -0.4 0.03 -0.41 0.03 -0.4 0.02 -0.41 0.01 -0.41 0.01 -0.41 0 -0.41zm200.82 312.48l-1.54 -1.01 -1.55 -1.02 -1.56 -1.03 -1.53 -1.01 -1.53 -1.02 -1.51 -1.01 -1.5 -1.02 -1.52 -1.03 -1.51 -1.03 -1.52 -1.04 -1.49 -1.03 -1.46 -1.01 -1.5 -1.05 -1.48 -1.04 -1.46 -1.04 -1.47 -1.04 -1.45 -1.04 -1.46 -1.05 -1.43 -1.03 -1.46 -1.07 -1.43 -1.04 -1.41 -1.04 -1.45 -1.07 -1.41 -1.05 -1.4 -1.05 -1.41 -1.06 -1.41 -1.07 -1.38 -1.05 -1.4 -1.07 -1.39 -1.07 -1.36 -1.05 -1.36 -1.06 -1.37 -1.08 -1.36 -1.07 -1.36 -1.08 -1.33 -1.06 -1.35 -1.09 -1.33 -1.07 -1.31 -1.07 -1.35 -1.1 -1.31 -1.07 -1.3 -1.08 -1.31 -1.09 -1.31 -1.09 -1.28 -1.08 -1.29 -1.09 -1.27 -1.08 -1.26 -1.09 -1.29 -1.12 -1.26 -1.09 -1.25 -1.09 -1.27 -1.12 -1.25 -1.1 -1.21 -1.08 -1.22 -1.1 -1.23 -1.11 -1.21 -1.1 -1.22 -1.12 -1.23 -1.13 -1.19 -1.1 -1.17 -1.09 -1.19 -1.12 -1.19 -1.13 -1.17 -1.11 -1.18 -1.13 -1.17 -1.13 -1.13 -1.1 -1.16 -1.14 -1.17 -1.15 -1.12 -1.1 -1.14 -1.14 -1.14 -1.14 -1.11 -1.13 -1.11 -1.13 -1.1 -1.13 -1.12 -1.15 -1.11 -1.15 -1.1 -1.15 -1.06 -1.12 -1.09 -1.16 -1.08 -1.15 -1.05 -1.12 -1.09 -1.18 -1.07 -1.16 -1.03 -1.13 -1.05 -1.16 -1.03 -1.15 -1.04 -1.17 -1.04 -1.17 -1 -1.13 -1.02 -1.17 -1 -1.15 -1.01 -1.18 -1 -1.18 -0.97 -1.14 -0.98 -1.16 -1 -1.2 -0.97 -1.16 -0.96 -1.17 -0.97 -1.18 -0.95 -1.17 -0.95 -1.19 -0.95 -1.19 -0.91 -1.16 -0.92 -1.17 -0.95 -1.22 -0.9 -1.16 -0.9 -1.18 -0.93 -1.22 -0.89 -1.18 -0.89 -1.18 -0.89 -1.19 -0.89 -1.2 -0.87 -1.18 -0.86 -1.19 -0.87 -1.21 -0.85 -1.19 -0.86 -1.21 -0.84 -1.19 -0.83 -1.19 -0.84 -1.22 -0.82 -1.2 -0.81 -1.2 -0.8 -1.2 -0.82 -1.23 -0.81 -1.22 -0.8 -1.22 -0.78 -1.19 -0.77 -1.21 -0.8 -1.25 -0.76 -1.21 -0.76 -1.21 -0.76 -1.22 -0.76 -1.24 -0.75 -1.23 -0.72 -1.2 -0.74 -1.25 -0.72 -1.22 -0.71 -1.21 -0.73 -1.27 -0.72 -1.25 -0.69 -1.21 -0.69 -1.23 -0.7 -1.26 -0.68 -1.23 -0.67 -1.23 -0.69 -1.28 -0.67 -1.24 -0.64 -1.22 -0.65 -1.25 -0.66 -1.27 -0.64 -1.24 -0.64 -1.26 -0.64 -1.26 -0.62 -1.25 -0.62 -1.26 -0.61 -1.25 -0.6 -1.25 -0.6 -1.27 -0.6 -1.28 -0.59 -1.27 -0.58 -1.26 -0.56 -1.25 -0.58 -1.3 -0.56 -1.26 -0.55 -1.25 -0.56 -1.3 -0.55 -1.28 -0.55 -1.3 -0.53 -1.26 -0.52 -1.26 -0.54 -1.32 -0.51 -1.27 -0.5 -1.27 -0.51 -1.32 -0.49 -1.26 -0.49 -1.29 -0.49 -1.31 -0.47 -1.27 -0.48 -1.3 -0.47 -1.32 -0.46 -1.28 -0.45 -1.3 -0.46 -1.33 -0.44 -1.3 -0.44 -1.3 -0.43 -1.3 -0.43 -1.33 -0.41 -1.29 -0.41 -1.31 -0.41 -1.34 -0.4 -1.31 -0.39 -1.31 -0.38 -1.3 -0.39 -1.35 -0.39 -1.36 -0.36 -1.27 -0.36 -1.32 -0.37 -1.35 -0.35 -1.32 -0.36 -1.37 -0.34 -1.32 -0.32 -1.28 -0.33 -1.37 -0.33 -1.37 -0.32 -1.34 -0.31 -1.34 -0.3 -1.34 -0.29 -1.34 -0.29 -1.34 -0.29 -1.38 -0.28 -1.35 -0.27 -1.35 -0.27 -1.39 -0.26 -1.35 -0.25 -1.36 -0.24 -1.36 -0.24 -1.36 -0.23 -1.35 -0.23 -1.4 -0.22 -1.37 -0.22 -1.36 -0.22 -1.4 -0.21 -1.37 -0.19 -1.34 -0.19 -1.38 -0.19 -1.44 -0.18 -1.38 -0.17 -1.35 -0.17 -1.38 -0.17 -1.42 -0.15 -1.39 -0.15 -1.39 -0.14 -1.39 -0.13 -1.4 -0.14 -1.44 -0.12 -1.4 -0.12 -1.4 -0.11 -1.41 -0.1 -1.41 -0.1 -1.4 -0.09 -1.41 -0.09 -1.45 -0.08 -1.41 -0.07 -1.42 -0.07 -1.42 -0.06 -1.43 -0.05 -1.43 -0.05 -1.43 -0.04 -1.46 -0.04 -1.4 -0.03 -1.44 -0.02 -1.47 -0.02 -1.44 -0.01 -1.44 0 -1.44 -63.48 0 0.01 1.73 0.01 1.73 0.02 1.73 0.03 1.69 0.03 1.72 0.04 1.76 0.05 1.69 0.05 1.72 0.07 1.71 0.07 1.72 0.08 1.71 0.09 1.71 0.1 1.71 0.1 1.67 0.11 1.71 0.12 1.71 0.13 1.7 0.13 1.7 0.14 1.7 0.15 1.7 0.15 1.66 0.16 1.69 0.18 1.69 0.18 1.69 0.19 1.69 0.19 1.66 0.2 1.68 0.22 1.71 0.22 1.69 0.22 1.61 0.23 1.67 0.25 1.71 0.25 1.67 0.25 1.64 0.26 1.67 0.27 1.66 0.27 1.63 0.28 1.67 0.29 1.66 0.3 1.65 0.31 1.66 0.32 1.66 0.32 1.62 0.33 1.65 0.34 1.64 0.34 1.61 0.35 1.65 0.36 1.64 0.37 1.64 0.38 1.64 0.38 1.64 0.39 1.59 0.39 1.6 0.41 1.67 0.42 1.63 0.41 1.58 0.43 1.63 0.42 1.58 0.44 1.62 0.46 1.66 0.45 1.57 0.45 1.58 0.48 1.62 0.48 1.6 0.49 1.6 0.49 1.57 0.5 1.6 0.51 1.61 0.51 1.56 0.52 1.59 0.53 1.59 0.54 1.59 0.54 1.55 0.55 1.58 0.56 1.59 0.56 1.54 0.57 1.56 0.59 1.59 0.58 1.54 0.59 1.57 0.61 1.58 0.59 1.52 0.62 1.58 0.63 1.55 0.62 1.51 0.64 1.57 0.65 1.56 0.64 1.52 0.65 1.53 0.65 1.51 0.68 1.55 0.68 1.54 0.68 1.5 0.7 1.55 0.7 1.53 0.71 1.51 0.71 1.5 0.72 1.51 0.73 1.52 0.74 1.52 0.74 1.5 0.75 1.51 0.75 1.5 0.76 1.5 0.77 1.5 0.76 1.48 0.78 1.49 0.8 1.51 0.8 1.5 0.78 1.45 0.81 1.49 0.82 1.49 0.81 1.45 0.83 1.49 0.85 1.49 0.83 1.45 0.83 1.43 0.87 1.49 0.87 1.46 0.86 1.44 0.89 1.48 0.88 1.44 0.88 1.44 0.9 1.45 0.91 1.45 0.92 1.45 0.9 1.41 0.93 1.44 0.94 1.45 0.94 1.43 0.93 1.41 0.94 1.41 0.96 1.43 0.97 1.43 0.97 1.42 0.96 1.4 0.99 1.42 1 1.42 0.99 1.39 1.01 1.41 1 1.39 1.01 1.4 1.03 1.4 1.02 1.39 1.04 1.39 1.04 1.39 1.05 1.39 1.03 1.35 1.07 1.39 1.09 1.4 1.05 1.34 1.08 1.38 1.11 1.39 1.08 1.35 1.09 1.35 1.11 1.37 1.1 1.35 1.12 1.36 1.13 1.36 1.1 1.32 1.14 1.36 1.16 1.37 1.14 1.33 1.14 1.33 1.17 1.35 1.16 1.32 1.19 1.36 1.17 1.32 1.17 1.32 1.2 1.33 1.19 1.31 1.22 1.34 1.2 1.3 1.19 1.28 1.24 1.34 1.22 1.3 1.22 1.3 1.26 1.32 1.24 1.29 1.25 1.29 1.25 1.28 1.27 1.3 1.28 1.3 1.28 1.29 1.27 1.27 1.28 1.27 1.32 1.31 1.27 1.25 1.29 1.27 1.34 1.29 1.31 1.26 1.31 1.26 1.34 1.27 1.32 1.25 1.33 1.25 1.37 1.28 1.36 1.26 1.34 1.23 1.35 1.24 1.38 1.25 1.36 1.23 1.39 1.25 1.41 1.26 1.39 1.23 1.37 1.21 1.41 1.23 1.42 1.23 1.39 1.2 1.43 1.23 1.44 1.23 1.42 1.21 1.45 1.22 1.44 1.21 1.44 1.2 1.47 1.21 1.47 1.21 1.44 1.18 1.49 1.21 1.49 1.2 1.48 1.19 1.5 1.2 1.49 1.18 1.49 1.18 1.5 1.17 1.53 1.19 1.53 1.18 1.51 1.17 1.52 1.17 1.55 1.18 1.54 1.16 1.54 1.16 1.57 1.17 1.57 1.16 1.54 1.14 1.58 1.17 1.59 1.16 1.56 1.14 1.6 1.16 1.58 1.14 1.61 1.15 1.6 1.13 1.62 1.14 1.61 1.13 1.6 1.12 1.65 1.15 1.64 1.13 1.62 1.11 1.63 1.12 1.64 1.12 1.66 1.12 1.67 1.12 1.66 1.11 1.68 1.12 1.66 1.09 1.67 1.1 1.7 1.11zm0 0l0.35 0.22 0.35 0.22 0.35 0.21 0.35 0.21 0.35 0.2 0.35 0.2 0.36 0.19 0.36 0.19 0.36 0.18 0.36 0.18 0.36 0.17 0.36 0.17 0.36 0.16 0.36 0.16 0.37 0.15 0.37 0.15 0.37 0.14 0.37 0.14 0.37 0.13 0.37 0.13 0.37 0.12 0.37 0.12 0.37 0.11 0.37 0.11 0.38 0.1 0.38 0.1 0.37 0.09 0.38 0.09 0.38 0.09 0.38 0.08 0.38 0.08 0.38 0.07 0.38 0.07 0.38 0.06 0.38 0.05 0.38 0.05 0.38 0.05 0.38 0.04 0.39 0.04 0.38 0.03 0.38 0.03 0.39 0.02 0.38 0.02 0.38 0.01 0.39 0.01 0.38 0.01 0.38 0 0.38 -0 0.38 -0.01 0.38 -0.01 0.38 -0.02 0.38 -0.02 0.38 -0.03 0.38 -0.03 0.38 -0.04 0.38 -0.04 0.38 -0.04 0.38 -0.05 0.38 -0.05 0.38 -0.06 0.37 -0.06 0.37 -0.07 0.37 -0.07 0.37 -0.08 0.37 -0.08 0.37 -0.09 0.37 -0.09 0.37 -0.09 0.37 -0.1 0.37 -0.1 0.37 -0.11 0.36 -0.11 0.36 -0.12 0.36 -0.12 0.36 -0.12 0.36 -0.13 0.36 -0.13 0.36 -0.14 0.36 -0.14 0.35 -0.14 0.35 -0.15 0.35 -0.15 0.35 -0.16 0.35 -0.16 0.35 -0.17 0.34 -0.17 0.34 -0.18 0.34 -0.18 0.34 -0.18 0.33 -0.19 0.33 -0.19 0.33 -0.2 0.33 -0.2 0.33 -0.21 0.32 -0.21 0.32 -0.22 0.32 -0.22 0.32 -0.22 0.31 -0.23 0.31 -0.23 0.31 -0.23 0.31 -0.24 0.31 -0.24 0.3 -0.25 0.3 -0.25 0.3 -0.26 0.29 -0.26 0.29 -0.26 0.29 -0.27 0.28 -0.27 0.28 -0.27 0.28 -0.28 0.27 -0.28 0.27 -0.28 0.27 -0.29 0.27 -0.3 0.26 -0.3 0.26 -0.3 0.26 -0.31 0.26 -0.31 0.25 -0.31 0.25 -0.32 0.24 -0.32 0.24 -0.33 0.23 -0.33 0.23 -0.33 0.23 -0.34 0.23 -0.34 0.22 -0.35 0.22 -0.35 0.21 -0.35 0.21 -0.35 0.2 -0.35 0.2 -0.35 0.19 -0.36 0.19 -0.36 0.18 -0.36 0.18 -0.36 0.17 -0.36 0.17 -0.36 0.16 -0.36 0.16 -0.36 0.15 -0.37 0.15 -0.37 0.14 -0.37 0.14 -0.37 0.13 -0.37 0.13 -0.37 0.12 -0.37 0.12 -0.37 0.11 -0.37 0.11 -0.37 0.1 -0.38 0.1 -0.38 0.09 -0.37 0.09 -0.38 0.09 -0.38 0.08 -0.38 0.08 -0.38 0.07 -0.38 0.07 -0.38 0.06 -0.38 0.05 -0.38 0.05 -0.38 0.05 -0.38 0.04 -0.38 0.04 -0.39 0.03 -0.38 0.03 -0.38 0.02 -0.39 0.02 -0.38 0.01 -0.38 0.01 -0.39 0.01 -0.38 0 -0.38 -0 -0.38 -0.01 -0.38 -0.01 -0.38 -0.02 -0.38 -0.02 -0.38 -0.03 -0.38 -0.03 -0.38 -0.04 -0.38 -0.04 -0.38 -0.04 -0.38 -0.05 -0.38 -0.05 -0.38 -0.06 -0.38 -0.06 -0.37 -0.07 -0.37 -0.07 -0.37 -0.08 -0.37 -0.08 -0.37 -0.09 -0.37 -0.09 -0.37 -0.09 -0.37 -0.1 -0.37 -0.1 -0.37 -0.11 -0.37 -0.11 -0.36 -0.12 -0.36 -0.12 -0.36 -0.12 -0.36 -0.13 -0.36 -0.13 -0.36 -0.14 -0.36 -0.14 -0.36 -0.14 -0.35 -0.15 -0.35 -0.15 -0.35 -0.16 -0.35 -0.16 -0.35 -0.17 -0.35 -0.17 -0.34 -0.18 -0.34 -0.18 -0.34 -0.18 -0.34 -0.19 -0.33 -0.19 -0.33 -0.2 -0.33 -0.2 -0.33 -0.21 -0.33 -0.21 -0.32 -0.22 -0.32 -0.22 -0.32 -0.22 -0.32 -0.23 -0.31 -0.23 -0.31 -0.23 -0.31 -0.24 -0.31 -0.24 -0.31 -0.25 -0.3 -0.25 -0.3 -0.26 -0.3 -0.26 -0.29 -0.26 -0.29 -0.27 -0.29 -0.27 -0.28 -0.27 -0.28 -0.28 -0.28 -0.28 -0.27 -0.28 -0.27 -0.29 -0.27 -0.3 -0.27 -0.3 -0.26 -0.3 -0.26 -0.31 -0.26 -0.31 -0.26 -0.31 -0.25 -0.32 -0.25 -0.32 -0.24 -0.33 -0.24 -0.33 -0.23 -0.33 -0.23 -0.34 -0.23 -0.34 -0.23 -34.65 53.18z"/>
    <line class="fil1 str1" x1="331.27" y1="1419.47" x2="236.21" y2= "1789.57" />
    <path class="fil1 str1" d="M236.21 1789.57c-4.71,18.68 14.05,34.65 31.74,27.02"/>
    <line class="fil1 str1" x1="267.96" y1="1816.59" x2="784.95" y2= "1593.63" />
    <path class="fil1 str1" d="M784.95 1593.63c245.2,55.62 546.94,83.98 886.81,83.98 916.18,0 1555.73,-205.88 1555.73,-597.21 0,-488.33 -639.55,-950.48 -1555.73,-950.48"/>
   </g>
   <g>
    <path class="fil1 str2" d="M2427.54 213.33c0,0 78.75,402.7 658.74,422.5"/>
    <g>
     <g>
      <path class="fil3" d="M2492.64 378.21l-137.75 -17.08c-4.71,-0.62 -8.63,-3.73 -10.25,-8.12 -1.47,-4.1 -0.81,-8.55 1.75,-11.96l83.64 -110.78c2.4,-3.17 6.06,-4.99 10.03,-4.99 5.09,0 9.66,3.02 11.63,7.7l54.09 127.81c1.65,3.9 1.24,8.34 -1.1,11.88 -2.35,3.54 -6.27,5.65 -10.48,5.65 -0.16,0 -1.39,-0.08 -1.55,-0.09z"/>
      <path class="fil4" d="M2440.05 229.24c3.28,0 6.52,1.83 7.98,5.27l54.09 127.8c2.45,5.78 -1.89,12.02 -7.92,12.02 -0.35,0 -0.71,-0.02 -1.08,-0.06l-137.74 -17.09c-3.44,-0.44 -5.96,-2.68 -7.01,-5.55 -0.93,-2.59 -0.72,-5.66 1.19,-8.21l43.15 -57.17 40.48 -53.6c1.75,-2.31 4.31,-3.41 6.86,-3.41zm0 -7.94l0 0c0,0 0,0 -0,0 -5.22,0 -10.02,2.39 -13.18,6.55l-40.49 53.61 -43.15 57.17c-3.38,4.51 -4.24,10.36 -2.32,15.68 2.14,5.84 7.3,9.94 13.47,10.73l137.77 17.09c0.71,0.09 1.39,0.13 2.05,0.13 5.55,0 10.7,-2.78 13.79,-7.44 3.07,-4.64 3.61,-10.48 1.44,-15.61l-54.09 -127.81c-2.6,-6.14 -8.6,-10.12 -15.29,-10.12z"/>
     </g>
     <path class="fil5" d="M2493.11 374.27l-137.74 -17.09c-3.44,-0.44 -5.96,-2.68 -7.01,-5.55 66.2,11.66 106.66,-14.58 89.88,-50.78 -9.45,-20.42 -28.33,-18.56 -45.54,-14.6l40.48 -53.6c4.01,-5.28 12.25,-4.26 14.84,1.86l54.09 127.81c2.59,6.12 -2.42,12.74 -9,11.95z"/>
     <path class="fil6" style="mask:url(#id0)" d="M2442.62 247.39c-1.28,-3.03 -5.37,-3.54 -7.35,-0.91l-71.85 95.16c-1.98,2.63 -0.38,6.42 2.89,6.82l118.34 14.68c3.27,0.4 5.75,-2.88 4.47,-5.91l-46.49 -109.84z"/>
     <g>
      <path class="fil7" d="M2440.05 232.99c1.58,0 3.59,0.78 4.53,2.98l54.08 127.8c0.65,1.54 0.5,3.21 -0.42,4.6 -0.9,1.35 -2.36,2.17 -4.52,2.17 -0.05,0 -0.09,0 -0.14,0l-137.72 -17.08c-1.86,-0.24 -3.34,-1.41 -3.97,-3.11 -0.28,-0.77 -0.77,-2.77 0.65,-4.68l43.15 -57.17 40.48 -53.59c1.28,-1.68 2.98,-1.93 3.88,-1.93zm-0 -3.75l0 0c-2.54,0 -5.11,1.1 -6.86,3.41l-40.48 53.6 -43.15 57.17c-1.91,2.54 -2.12,5.62 -1.19,8.21 1.05,2.87 3.57,5.11 7.01,5.55l137.74 17.09c0.36,0.04 0.72,0.06 1.08,0.06 6.03,0 10.37,-6.23 7.92,-12.02l-54.09 -127.8c-1.46,-3.44 -4.7,-5.27 -7.98,-5.27z"/>
     </g>
     <path class="fil8" style="mask:url(#id2)" d="M2410.52 296.47c-4.6,4.47 -10.24,6.14 -12.6,3.71 -2.36,-2.42 -0.54,-8.01 4.07,-12.49 4.6,-4.47 10.24,-6.14 12.6,-3.71 2.36,2.42 0.54,8.01 -4.07,12.49z"/>
     <path class="fil9" style="mask:url(#id4)" d="M2406.4 310.24c-2.2,2.14 -4.93,2.88 -6.11,1.67 -1.18,-1.21 -0.35,-3.93 1.84,-6.06 2.2,-2.13 4.93,-2.88 6.11,-1.67 1.18,1.21 0.36,3.92 -1.84,6.06z"/>
    </g>
    <g>
     <g>
      <path class="fil10" d="M2469.1 531.62c-3.63,0 -7.07,-1.59 -9.45,-4.37 -2.81,-3.3 -3.77,-7.7 -2.57,-11.79l39.34 -133.12c1.6,-5.39 6.48,-9.01 12.12,-9.01 3.46,0 6.7,1.4 9.11,3.94l95.57 100.62c3.14,3.3 4.24,7.87 2.96,12.23 -1.29,4.38 -4.7,7.63 -9.12,8.69l-134.95 32.44c-1,0.25 -2.02,0.36 -3.01,0.36z"/>
      <path class="fil4" d="M2508.54 377.3c2.23,0 4.48,0.85 6.23,2.69l95.57 100.62c4.58,4.82 2.22,12.78 -4.22,14.35l-134.94 32.45c-0.7,0.17 -1.4,0.24 -2.07,0.24 -2.57,0 -4.87,-1.14 -6.45,-2.97 -1.78,-2.1 -2.66,-5.05 -1.77,-8.11l20.29 -68.69 19.05 -64.41c1.17,-3.93 4.71,-6.17 8.32,-6.17zm0 -7.94l0 0c0,0 0,0 0,0 -7.41,0 -13.81,4.76 -15.92,11.84l-19.05 64.43 -20.29 68.69c-1.58,5.41 -0.33,11.19 3.34,15.5 3.16,3.68 7.71,5.77 12.49,5.77 1.3,0 2.61,-0.15 3.89,-0.46l134.98 -32.46c5.83,-1.42 10.31,-5.69 12,-11.44 1.69,-5.74 0.24,-11.76 -3.88,-16.1l-95.58 -100.62c-3.16,-3.33 -7.42,-5.16 -11.98,-5.16z"/>
     </g>
     <path class="fil5" d="M2606.12 494.96l-134.94 32.45c-3.38,0.8 -6.53,-0.42 -8.52,-2.73 66.07,-12.37 94.72,-51.17 66.28,-79.15 -16.03,-15.79 -33.05,-7.41 -47.76,2.36l19.05 -64.41c1.9,-6.35 9.97,-8.3 14.55,-3.48l95.57 100.62c4.58,4.82 2.22,12.78 -4.22,14.35z"/>
     <path class="fil11" style="mask:url(#id6)" d="M2514.24 393.95c-2.27,-2.39 -6.27,-1.43 -7.2,1.73l-33.79 114.35c-0.94,3.16 1.9,6.14 5.1,5.37l115.94 -27.88c3.2,-0.77 4.37,-4.72 2.1,-7.1l-82.14 -86.48z"/>
     <g>
      <path class="fil7" d="M2508.54 381.05c0.94,0 2.31,0.27 3.51,1.53l95.58 100.62c1.75,1.85 1.39,3.94 1.14,4.75 -0.5,1.7 -1.82,2.96 -3.52,3.38l-134.93 32.44c-0.41,0.1 -0.81,0.14 -1.21,0.14 -1.4,0 -2.68,-0.59 -3.59,-1.65 -0.53,-0.63 -1.7,-2.33 -1.03,-4.62l20.29 -68.69 19.04 -64.4c0.72,-2.41 2.89,-3.49 4.73,-3.5zm0 -3.75l0 0c-3.61,0 -7.15,2.25 -8.32,6.17l-19.05 64.41 -20.29 68.69c-0.89,3.06 -0.01,6.01 1.77,8.11 1.58,1.83 3.88,2.97 6.45,2.97 0.67,0 1.37,-0.08 2.07,-0.24l134.94 -32.45c6.44,-1.57 8.8,-9.53 4.22,-14.35l-95.57 -100.62c-1.75,-1.84 -4,-2.69 -6.23,-2.69z"/>
     </g>
     <path class="fil12" style="mask:url(#id8)" d="M2501.45 451.18c-2.73,5.8 -7.43,9.35 -10.49,7.9 -3.06,-1.44 -3.32,-7.31 -0.59,-13.12 2.73,-5.8 7.43,-9.34 10.49,-7.9 3.06,1.44 3.32,7.31 0.59,13.12z"/>
     <path class="fil13" style="mask:url(#id10)" d="M2502.44 465.52c-1.31,2.77 -3.6,4.43 -5.13,3.71 -1.53,-0.72 -1.71,-3.55 -0.41,-6.32 1.31,-2.77 3.6,-4.43 5.13,-3.71 1.53,0.72 1.71,3.55 0.41,6.32z"/>
    </g>
    <g>
     <g>
      <path class="fil14" d="M2633.52 656.16c-2.16,0 -4.29,-0.57 -6.19,-1.65 -3.76,-2.17 -6.14,-6 -6.39,-10.25l-7.72 -138.59c-0.19,-3.49 1.03,-6.8 3.42,-9.32 2.39,-2.53 5.74,-3.98 9.18,-3.98 1.97,0 3.88,0.46 5.67,1.36l123.85 62.62c4.06,2.05 6.64,6 6.9,10.54 0.26,4.55 -1.86,8.77 -5.66,11.26l-116.19 75.95c-2.09,1.36 -4.48,2.07 -6.89,2.07z"/>
      <path class="fil4" d="M2625.83 496.34c1.29,0 2.62,0.3 3.89,0.94l123.85 62.62c5.93,3 6.38,11.29 0.85,14.93l-116.17 75.94c-1.5,0.97 -3.13,1.42 -4.71,1.42 -1.49,0 -2.94,-0.4 -4.23,-1.13 -2.39,-1.37 -4.21,-3.86 -4.39,-7.04l-3.99 -71.51 -3.72 -67.07c-0.27,-5.19 3.94,-9.11 8.64,-9.11zm0 -7.93l0 0c0,0 0,0 0,0 -4.53,0 -8.92,1.9 -12.06,5.21 -3.15,3.32 -4.74,7.67 -4.5,12.26l3.72 67.08 3.99 71.51c0.33,5.62 3.45,10.65 8.36,13.47 2.53,1.44 5.35,2.19 8.19,2.19 3.18,0 6.3,-0.93 9.03,-2.7l116.2 -75.96c5.02,-3.3 7.79,-8.83 7.46,-14.81 -0.34,-5.97 -3.73,-11.15 -9.07,-13.85l-123.85 -62.61c-2.36,-1.19 -4.87,-1.8 -7.47,-1.8z"/>
     </g>
     <path class="fil5" d="M2754.42 574.83l-116.17 75.94c-2.91,1.89 -6.29,1.8 -8.94,0.3 58.06,-33.87 72,-80.04 35.8,-96.83 -20.41,-9.48 -33.62,4.13 -44.19,18.28l-3.72 -67.07c-0.35,-6.62 6.6,-11.17 12.53,-8.17l123.85 62.62c5.93,3 6.38,11.29 0.85,14.93z"/>
     <path class="fil15" style="mask:url(#id12)" d="M2633.91 510.6c-2.94,-1.49 -6.38,0.77 -6.2,4.05l6.63 119.06c0.18,3.29 3.86,5.15 6.61,3.34l99.81 -65.24c2.76,-1.8 2.53,-5.91 -0.41,-7.39l-106.44 -53.82z"/>
     <g>
      <path class="fil7" d="M2625.83 500.09c0.75,0 1.49,0.18 2.2,0.54l123.85 62.61c2.27,1.15 2.63,3.24 2.67,4.09 0.1,1.77 -0.72,3.4 -2.18,4.37l-116.16 75.93c-0.84,0.54 -1.74,0.82 -2.68,0.82 -0.82,0 -1.64,-0.22 -2.36,-0.63 -0.71,-0.41 -2.38,-1.62 -2.52,-4l-3.99 -71.51 -3.72 -67.05c-0.09,-1.73 0.66,-2.91 1.31,-3.6 0.94,-1 2.25,-1.57 3.58,-1.57zm0 -3.75l0 0c-4.69,0 -8.91,3.92 -8.64,9.11l3.72 67.07 3.99 71.51c0.19,3.18 2.01,5.66 4.39,7.04 1.28,0.73 2.74,1.13 4.23,1.13 1.59,0 3.21,-0.45 4.71,-1.42l116.17 -75.94c5.53,-3.64 5.08,-11.94 -0.85,-14.93l-123.85 -62.62c-1.28,-0.64 -2.61,-0.94 -3.89,-0.94z"/>
     </g>
     <path class="fil16" style="mask:url(#id14)" d="M2641.11 568.8c-0.62,6.39 -3.85,11.3 -7.22,10.97 -3.36,-0.33 -5.58,-5.77 -4.96,-12.16 0.62,-6.39 3.85,-11.3 7.22,-10.97 3.36,0.33 5.58,5.77 4.96,12.16z"/>
     <path class="fil17" style="mask:url(#id16)" d="M2646.87 581.97c-0.3,3.05 -1.9,5.39 -3.58,5.22 -1.68,-0.16 -2.8,-2.77 -2.51,-5.82 0.3,-3.05 1.9,-5.38 3.58,-5.22 1.68,0.16 2.81,2.77 2.51,5.81z"/>
    </g>
    <g>
     <g>
      <path class="fil18" d="M2816.17 724.09c-1.12,0 -2.25,-0.15 -3.33,-0.45 -4.18,-1.18 -7.43,-4.29 -8.73,-8.36l-41.78 -132.38c-1.21,-3.86 -0.53,-7.96 1.87,-11.21 2.38,-3.24 6.17,-5.17 10.13,-5.17 0.92,0 1.86,0.1 2.78,0.3l135.49 30.03c4.44,0.99 7.91,4.17 9.28,8.52 1.37,4.34 0.37,8.94 -2.7,12.3l-93.78 102.32c-2.44,2.65 -5.72,4.1 -9.24,4.1z"/>
      <path class="fil4" d="M2774.34 570.5c0.62,0 1.26,0.07 1.91,0.21l135.49 30.03c6.49,1.44 8.98,9.36 4.52,14.26l-93.77 102.32c-1.76,1.9 -4.04,2.81 -6.31,2.81 -0.77,0 -1.54,-0.1 -2.28,-0.31 -2.65,-0.74 -5.03,-2.7 -6,-5.73l-21.56 -68.3 -20.2 -64.06c-1.78,-5.69 2.59,-11.23 8.21,-11.23zm0 -7.93l0 0c-5.22,0 -10.2,2.53 -13.33,6.78 -3.15,4.29 -4.05,9.67 -2.46,14.75l20.21 64.08 21.56 68.3c1.71,5.36 5.98,9.46 11.43,10.99 1.47,0.4 2.95,0.6 4.42,0.6 4.63,0 8.94,-1.9 12.13,-5.35l93.8 -102.35c4.04,-4.44 5.37,-10.49 3.56,-16.19 -1.81,-5.7 -6.37,-9.89 -12.21,-11.18l-135.49 -30.03c-1.2,-0.27 -2.42,-0.4 -3.63,-0.4z"/>
     </g>
     <path class="fil5" d="M2916.26 615l-93.77 102.32c-2.36,2.55 -5.65,3.3 -8.59,2.5 47.88,-47.18 49.96,-95.36 10.73,-102.68 -22.12,-4.13 -31.56,12.32 -38.29,28.64l-20.2 -64.06c-1.98,-6.32 3.63,-12.45 10.12,-11.02l135.49 30.03c6.49,1.44 8.98,9.36 4.52,14.26z"/>
     <path class="fil19" style="mask:url(#id18)" d="M2783.61 582.58c-3.21,-0.71 -6,2.32 -5.01,5.46l35.88 113.72c0.99,3.14 5.01,4.03 7.23,1.6l80.57 -87.9c2.22,-2.43 0.99,-6.35 -2.23,-7.07l-116.45 -25.81z"/>
     <g>
      <path class="fil7" d="M2774.34 574.25c0.36,0 0.73,0.04 1.1,0.12l135.49 30.03c2.48,0.55 3.35,2.49 3.6,3.3 0.54,1.69 0.14,3.47 -1.04,4.77l-93.76 102.31c-1.23,1.32 -2.61,1.6 -3.56,1.6 -0.44,0 -0.87,-0.06 -1.27,-0.17 -0.79,-0.22 -2.71,-0.98 -3.43,-3.25l-21.56 -68.3 -20.2 -64.05c-0.64,-2.05 0.18,-3.6 0.72,-4.34 0.93,-1.26 2.39,-2.02 3.91,-2.02zm0 -3.75l0 0c-5.62,0 -9.99,5.53 -8.21,11.23l20.2 64.06 21.56 68.3c0.96,3.03 3.35,4.99 6,5.73 0.74,0.21 1.51,0.31 2.28,0.31 2.27,0 4.55,-0.9 6.31,-2.81l93.77 -102.32c4.46,-4.9 1.97,-12.82 -4.52,-14.26l-135.49 -30.03c-0.65,-0.14 -1.29,-0.21 -1.91,-0.21z"/>
     </g>
     <path class="fil20" style="mask:url(#id20)" d="M2804.98 637.19c0.98,6.34 -0.94,11.9 -4.28,12.41 -3.34,0.51 -6.84,-4.21 -7.82,-10.55 -0.98,-6.34 0.94,-11.9 4.28,-12.42 3.34,-0.51 6.84,4.21 7.82,10.55z"/>
     <path class="fil21" style="mask:url(#id22)" d="M2813.82 648.53c0.47,3.03 -0.51,5.69 -2.18,5.94 -1.67,0.26 -3.4,-1.99 -3.87,-5.01 -0.46,-3.03 0.51,-5.69 2.18,-5.94 1.67,-0.26 3.4,1.99 3.87,5.01z"/>
    </g>
    <g>
     <g>
      <path class="fil22" d="M2987.31 758.06c-0.74,0 -1.47,-0.06 -2.2,-0.2 -4.26,-0.76 -7.79,-3.56 -9.46,-7.49l-54 -127.88c-1.64,-3.91 -1.22,-8.33 1.13,-11.85 2.35,-3.53 6.26,-5.64 10.47,-5.64 0.16,0 1.43,0.09 1.59,0.1l137.71 17.18c4.53,0.57 8.28,3.42 10.05,7.61 1.77,4.19 1.2,8.87 -1.54,12.5l-83.76 110.67c-2.44,3.19 -6.07,5 -9.98,5z"/>
      <path class="fil4" d="M2933.23 608.98c0.36,0 0.73,0.03 1.11,0.07l137.71 17.19c6.6,0.82 9.82,8.48 5.83,13.77l-83.76 110.67c-1.76,2.3 -4.29,3.42 -6.82,3.42 -0.5,0 -1,-0.04 -1.5,-0.13 -2.71,-0.49 -5.26,-2.22 -6.51,-5.14l-27.87 -65.98 -26.12 -61.88c-2.41,-5.76 1.9,-11.98 7.93,-11.99zm0 -7.93l0 0c0,0 0,0 0,0 -5.53,0 -10.68,2.77 -13.76,7.41 -3.08,4.63 -3.63,10.45 -1.49,15.58l26.13 61.9 27.87 65.98c2.21,5.18 6.84,8.86 12.41,9.87 0.99,0.17 1.95,0.26 2.91,0.26 5.17,0 9.95,-2.39 13.13,-6.54l83.78 -110.69c3.61,-4.8 4.37,-10.94 2.03,-16.45 -2.33,-5.51 -7.27,-9.24 -13.21,-9.99l-137.71 -17.19c-0.71,-0.09 -1.41,-0.13 -2.09,-0.13z"/>
     </g>
     <path class="fil5" d="M3077.89 640.01l-83.76 110.67c-2.11,2.76 -5.31,3.82 -8.32,3.29 43.24,-51.46 40.79,-99.63 1.05,-103.23 -22.41,-2.04 -30.26,15.23 -35.43,32.11l-26.12 -61.88c-2.56,-6.11 2.45,-12.74 9.04,-11.91l137.71 17.19c6.6,0.82 9.82,8.48 5.83,13.77z"/>
     <path class="fil23" style="mask:url(#id24)" d="M2942.78 620.17c-3.27,-0.41 -5.75,2.88 -4.47,5.91l46.39 109.85c1.28,3.03 5.36,3.54 7.35,0.92l71.97 -95.08c1.99,-2.62 0.39,-6.42 -2.88,-6.82l-118.36 -14.78z"/>
     <g>
      <path class="fil7" d="M2933.23 612.73c0.21,0 0.43,0.01 0.65,0.04l137.71 17.19c2.52,0.31 3.56,2.16 3.89,2.94 0.69,1.63 0.47,3.44 -0.58,4.85l-83.76 110.65c-0.96,1.26 -2.32,1.95 -3.84,1.95 -0.29,0 -0.57,-0.03 -0.83,-0.07 -0.81,-0.15 -2.79,-0.72 -3.72,-2.91l-27.87 -65.98 -26.11 -61.87c-0.64,-1.53 -0.48,-3.21 0.44,-4.59 0.92,-1.37 2.43,-2.2 4.04,-2.2zm0 -3.75l0 0c-6.03,0 -10.35,6.22 -7.93,11.99l26.12 61.88 27.87 65.98c1.25,2.93 3.8,4.65 6.51,5.14 0.49,0.09 0.99,0.13 1.5,0.13 2.53,0 5.06,-1.12 6.82,-3.42l83.76 -110.67c3.99,-5.29 0.76,-12.95 -5.83,-13.77l-137.71 -17.19c-0.38,-0.05 -0.75,-0.07 -1.11,-0.07z"/>
     </g>
     <path class="fil24" style="mask:url(#id26)" d="M2969.19 672.54c1.57,6.22 0.18,11.94 -3.1,12.76 -3.27,0.82 -7.2,-3.55 -8.77,-9.77 -1.57,-6.22 -0.18,-11.94 3.1,-12.76 3.28,-0.82 7.2,3.55 8.77,9.77z"/>
     <path class="fil25" style="mask:url(#id28)" d="M2979.05 683c0.75,2.97 0.03,5.71 -1.61,6.12 -1.64,0.41 -3.57,-1.66 -4.32,-4.63 -0.75,-2.97 -0.03,-5.71 1.61,-6.12 1.64,-0.41 3.57,1.66 4.32,4.63z"/>
    </g>
   </g>
   <g>
    <g>
     <g>
      <path class="fil26" d="M3021.88 1265.63c-8.25,0 -16.57,-1.12 -24.72,-3.32 -20.44,-5.52 -37.95,-17.31 -49.3,-33.19 -11.63,-16.28 -15.43,-34.85 -10.72,-52.32 0.27,-0.99 0.53,-1.82 1.01,-2.81 7.82,-26.05 35.76,-44.17 69.15,-44.17 8.26,0 16.58,1.12 24.74,3.32 39.89,10.76 66.78,45.86 61.24,79.89 -0.37,1.96 -0.75,3.87 -1.22,5.6 -7.59,28.12 -35.79,47 -70.18,47z"/>
      <path class="fil4" d="M3007.3 1136.17c7.54,0 15.3,1 23.08,3.1 37.38,10.09 61.64,42.02 56.62,72.75 -0.31,1.62 -0.65,3.38 -1.08,4.97 -6.98,25.86 -33.52,42.3 -64.05,42.3 -7.52,0 -15.29,-1 -23.06,-3.09 -39.34,-10.62 -64.25,-45.49 -55.54,-77.72 0.17,-0.62 0.3,-1.1 0.59,-1.68 7.57,-24.94 33.61,-40.62 63.44,-40.62zm0.01 -12.7l0 0c0,0 0,0 0,0 -35.87,0 -66.03,19.59 -75.35,48.82 -0.39,0.93 -0.66,1.82 -0.95,2.87 -10.53,38.99 18.4,80.84 64.49,93.29 8.69,2.35 17.56,3.53 26.37,3.53 37.3,0 67.96,-20.77 76.31,-51.68 0.51,-1.9 0.93,-3.98 1.3,-5.92 6.22,-38.14 -22.08,-75.57 -65.79,-87.37 -8.69,-2.35 -17.58,-3.54 -26.39,-3.54z"/>
     </g>
     <path class="fil27" d="M3085.93 1216.99c-8.7,32.24 -47.77,49.83 -87.12,39.2 -39.34,-10.62 -64.25,-45.49 -55.54,-77.72 0.17,-0.62 0.3,-1.1 0.59,-1.68 24.46,-15.09 58.57,-23.11 101.28,-1.58 19.46,9.73 32.83,22.54 41.87,36.81 -0.31,1.63 -0.65,3.38 -1.08,4.97z"/>
     <g>
      <path class="fil26" d="M3007.31 1139.34c7.42,0 14.91,1 22.25,2.99 35.23,9.51 59.09,39.9 54.33,69.1 -0.3,1.55 -0.62,3.21 -1.03,4.73 -6.45,23.9 -30.96,39.95 -60.99,39.95 -7.41,0 -14.89,-1 -22.24,-2.99 -37.64,-10.16 -61.56,-43.28 -53.31,-73.83 0.11,-0.4 0.18,-0.72 0.56,-1.59 6.97,-22.94 31.25,-38.36 60.41,-38.36zm-0.01 -3.17l0 0c-29.84,0 -55.87,15.68 -63.44,40.62 -0.29,0.58 -0.42,1.07 -0.59,1.68 -8.7,32.23 16.2,67.1 55.54,77.72 7.78,2.1 15.54,3.09 23.06,3.09 30.53,0 57.07,-16.43 64.05,-42.3 0.43,-1.59 0.77,-3.34 1.08,-4.97 5.01,-30.73 -19.24,-62.66 -56.62,-72.75 -7.78,-2.1 -15.55,-3.1 -23.08,-3.1z"/>
     </g>
    </g>
    <g>
     <path class="fil26" d="M3026.9 1674.89c-114.17,0 -261.09,-51.21 -320.82,-111.82 -20.09,-20.4 -30.14,-41.16 -29.83,-61.71 0.2,-13.54 3.48,-28.69 9.76,-45.03 3.79,-9.77 8.72,-20.01 15.07,-31.33 0.18,-0.32 0.39,-0.62 0.62,-0.91 2.96,-5.23 6.05,-10.41 9.5,-15.62 16.16,-25.15 37.45,-51.43 63.24,-78.05 77.21,-79.57 173.12,-139.57 223.09,-139.57 4.93,0 9.5,0.57 13.6,1.67l1.93 0.51c45.43,10.45 94.09,101.54 122.56,187.49 0.15,0.31 0.29,0.63 0.39,0.96l0.01 -0.01c16.68,50.81 26.88,100.52 29.5,143.75l0.25 4.21c1.16,20.61 0.36,39.5 -2.38,55.96 -2.76,16.99 -7.58,31.67 -14.33,43.62 -16.85,30 -59.09,45.87 -122.17,45.87z"/>
     <path class="fil4" d="M2997.53 1197.2c4.34,0 8.33,0.47 11.94,1.45l1.96 0.53c0,0 0,0 0.25,0.06 0.37,0.1 0.37,0.1 0.61,0.17 38.63,8.86 86.92,91.06 117.51,183.74 0.09,0.15 0.21,0.19 0.18,0.31 15.59,47.47 26.5,97.62 29.21,142.15 0.04,1.32 0.2,2.68 0.23,4.01 1.11,19.76 0.45,38.26 -2.29,54.74 -2.58,15.87 -7.03,29.93 -13.59,41.57 -16.83,29.96 -61.45,42.63 -116.64,42.63 -139.13,0 -345.58,-80.44 -344.3,-167.1 0.19,-13.36 3.57,-27.83 9.33,-42.84 3.88,-10 8.85,-20.1 14.67,-30.49 0,0 0.01,0 0.04,0 0.04,0 0.1,-0.01 0.12,-0.09 3.02,-5.36 6.17,-10.69 9.72,-16.05 16.56,-25.77 38.27,-52.12 62.51,-77.14 72.76,-74.98 168.48,-137.64 218.53,-137.64zm0.01 -12.7l0 0c0,0 0,0 -0,0 -59.31,0.01 -159.41,71.19 -227.64,141.49 -26.09,26.92 -47.65,53.54 -64.08,79.12 -2.99,4.51 -5.95,9.36 -9.42,15.46 -0.31,0.42 -0.59,0.86 -0.85,1.33 -6.49,11.57 -11.54,22.07 -15.44,32.11 -6.57,17.11 -9.99,32.99 -10.19,47.26 -0.33,22.31 10.32,44.6 31.66,66.26 60.74,61.64 209.73,113.71 325.33,113.71 65.5,0 109.66,-16.98 127.71,-49.11 7.1,-12.61 12.17,-28 15.05,-45.75 2.8,-16.86 3.63,-36.22 2.43,-57.49 -0.01,-0.49 -0.06,-1.36 -0.13,-2.22 -0.04,-0.48 -0.08,-0.96 -0.09,-1.43 -2.68,-44.18 -12.99,-94.44 -29.84,-145.75l-0.01 0c-0.14,-0.45 -0.31,-0.9 -0.5,-1.33 -29.04,-87.53 -79.28,-180.34 -126.41,-191.14l-2.34 -0.64c-4.63,-1.25 -9.76,-1.89 -15.24,-1.89z"/>
    </g>
    <path class="fil27" d="M3159.42 1529.61c-25.49,-62.9 -62.15,-134.81 -140.52,-176.22 -143.65,-75.74 -270.52,31.04 -312.13,74.64 3.02,-5.36 6.17,-10.69 9.72,-16.05 16.56,-25.77 38.27,-52.12 62.51,-77.14 79.07,-81.48 185.24,-148.41 230.47,-136.19l1.96 0.53c0,0 0,0 0.25,0.06 0.37,0.1 0.37,0.1 0.61,0.17 38.63,8.86 86.92,91.06 117.51,183.74 0.09,0.15 0.21,0.19 0.18,0.31 15.59,47.47 26.5,97.62 29.21,142.15 0.04,1.32 0.2,2.68 0.23,4.01z"/>
    <path class="fil27" d="M3143.54 1625.98c-59.26,105.5 -462.72,-3.44 -460.94,-124.47 0.19,-13.36 3.57,-27.83 9.33,-42.84 21.62,48.97 74.89,108.32 202.79,145.49 121.56,35.32 206.86,12.59 262.4,-19.75 -2.58,15.87 -7.03,29.93 -13.59,41.57z"/>
    <g>
     <path class="fil26" d="M2997.55 1204.82c3.7,0 7.04,0.4 9.95,1.18l2.21 0.6c0.09,0.03 0.8,0.21 0.89,0.23 54.42,12.49 133.51,191.52 141.05,319.31 1.38,21.62 0.72,40.81 -1.98,57.06 -2.5,15.39 -6.77,28.53 -12.72,39.08 -14.05,25.01 -53.13,38.78 -110.05,38.78 -111.01,0 -253.39,-49.31 -310.91,-107.67 -17.39,-17.65 -26.09,-35.06 -25.84,-51.76 0.17,-11.88 3.14,-25.42 8.81,-40.2 5.63,-14.36 13.65,-29.59 23.88,-45.3 63.34,-98.73 209.68,-211.29 274.71,-211.3zm-0.01 -7.55l0 0c-66.72,0.01 -214.75,111.43 -281.06,214.77 -10.33,15.88 -18.64,31.52 -24.55,46.63 -5.76,15.01 -9.15,29.48 -9.33,42.84 -1.27,86.65 205.17,167.1 344.3,167.1 55.18,0 99.81,-12.67 116.64,-42.63 6.56,-11.64 11.01,-25.69 13.59,-41.57 2.92,-17.62 3.41,-37.48 2.06,-58.75 -7.76,-131.49 -88.46,-312.78 -146.9,-326.2 -0.24,-0.06 -0.24,-0.06 -0.61,-0.17 -0.24,-0.06 -0.24,-0.06 -0.24,-0.06l-1.96 -0.53c-3.61,-0.98 -7.59,-1.44 -11.93,-1.44z"/>
    </g>
    <g>
     <g>
      <path class="fil28" d="M2952.85 1548.13c-10.8,0 -22.04,-1.55 -33.41,-4.62 -40.42,-10.91 -67.4,-36.82 -61.42,-58.99 2.38,-8.78 9.65,-15.68 21.03,-19.97 7.84,-3.05 17.69,-4.67 28.43,-4.67 10.63,0 22.13,1.6 33.29,4.61 22.75,6.14 42.69,17.78 53.33,31.16 7.65,9.41 10.47,19.04 8.1,27.82 -4.11,15.23 -23.03,24.67 -49.36,24.67z"/>
      <path class="fil29" d="M2907.5 1464.05c10.04,0 21.03,1.45 32.2,4.46 22.58,6.1 41.33,17.39 51.15,29.73 6.5,7.98 9.42,16.38 7.33,24.13 -3.71,13.76 -21.91,21.58 -45.32,21.58 -10.06,0 -21.08,-1.44 -32.32,-4.48 -37.41,-10.1 -63.79,-34.18 -58.48,-53.86 2.09,-7.74 8.85,-13.53 18.47,-17.16 7.43,-2.89 16.7,-4.4 26.97,-4.4zm0 -8.35l0 0c0,0 0,0 0,0 -11.27,0 -21.65,1.72 -30,4.97 -12.62,4.75 -20.77,12.64 -23.51,22.77 -6.59,24.42 21.68,52.57 64.36,64.1 11.72,3.16 23.33,4.77 34.5,4.77 28.3,0 48.76,-10.64 53.38,-27.76 2.73,-10.13 -0.35,-21.05 -8.91,-31.58 -11.12,-13.97 -31.86,-26.16 -55.45,-32.52 -11.5,-3.11 -23.39,-4.75 -34.37,-4.75z"/>
     </g>
     <g>
      <path class="fil26" d="M2990.85 1498.24c-14.17,3.79 -35.72,2.81 -58.29,-3.28 -22.58,-6.1 -41.68,-16.1 -52.02,-26.51 14.7,-5.72 36.59,-6.04 59.16,0.05 22.58,6.1 41.33,17.39 51.15,29.73z"/>
     </g>
    </g>
    <g>
     <g>
      <path class="fil26" d="M3084.89 1593.05c-6.52,0 -13.44,-1.44 -20.02,-4.14 -20.03,-8.26 -31.3,-25.47 -25.66,-39.18 3.58,-8.68 13.22,-13.85 25.78,-13.85 6.51,0 13.44,1.43 20.03,4.14 9.28,3.83 17.07,9.82 21.94,16.88 5.21,7.55 6.53,15.46 3.71,22.28 -3.58,8.68 -13.22,13.86 -25.78,13.86z"/>
      <path class="fil29" d="M3065 1539.66c5.83,0 12.24,1.25 18.58,3.86 17.81,7.34 28.37,22.67 23.6,34.24 -3.07,7.45 -11.75,11.52 -22.29,11.52 -5.84,0 -12.24,-1.25 -18.59,-3.86 -17.81,-7.34 -28.37,-22.67 -23.6,-34.24 3.07,-7.45 11.75,-11.52 22.29,-11.52zm0 -7.55l0 0c-0,0 -0,0 -0,0 -14.15,0 -25.09,6.06 -29.27,16.2 -6.46,15.66 5.71,35.03 27.71,44.1 7.04,2.9 14.46,4.43 21.47,4.43 14.15,0 25.09,-6.05 29.27,-16.19 6.46,-15.66 -5.71,-35.03 -27.71,-44.1 -7.04,-2.9 -14.46,-4.43 -21.46,-4.43z"/>
     </g>
     <path class="fil29" d="M3089.58 1527.12c0,0 2.49,-19.12 -8.17,-47.12 -10.66,-28.01 9.29,-50.78 30.36,-32.67 21.07,18.11 18.87,69.52 -22.19,79.79z"/>
     <path class="fil29" d="M3063.72 1598.37c0,0 -11.51,20.82 -39.63,34.95 -28.12,14.13 4.52,38.13 35.63,24.16 31.11,-13.97 19.58,-49.66 4,-59.11z"/>
    </g>
    <g>
     <g>
      <path class="fil26" d="M2792.7 1513.85c-2.53,0 -5.13,-0.18 -7.77,-0.54 -9.94,-1.36 -18.99,-5.21 -25.48,-10.81 -6.94,-6 -10.22,-13.33 -9.21,-20.63 1.74,-12.65 15.78,-21.47 34.13,-21.47 2.52,0 5.12,0.17 7.75,0.53 21.47,2.96 36.71,16.77 34.7,31.44 -1.74,12.65 -15.77,21.47 -34.11,21.47z"/>
      <path class="fil29" d="M2784.36 1464.18c2.36,0 4.78,0.16 7.24,0.5 19.08,2.62 33.17,14.79 31.47,27.19 -1.49,10.8 -14.46,18.2 -30.39,18.2 -2.36,0 -4.78,-0.16 -7.24,-0.5 -19.08,-2.62 -33.17,-14.79 -31.47,-27.19 1.49,-10.8 14.46,-18.2 30.39,-18.2zm0 -7.55l0 0c-20.3,0 -35.87,10.17 -37.87,24.73 -1.17,8.49 2.66,17.24 10.48,24.01 7.04,6.08 16.78,10.23 27.44,11.7 2.76,0.38 5.54,0.57 8.27,0.57 20.3,0 35.87,-10.17 37.87,-24.73 2.3,-16.78 -14.35,-32.46 -37.92,-35.7 -2.76,-0.38 -5.54,-0.57 -8.27,-0.57z"/>
     </g>
     <path class="fil29" d="M2794.68 1447.49c0,0 7.47,-17.77 30.78,-36.6 23.31,-18.83 17.53,-48.56 -9.79,-43.51 -27.32,5.05 -51.3,50.57 -20.99,80.11z"/>
     <path class="fil29" d="M2781.17 1522.07c0,0 -0.53,23.79 16.65,50.15 17.18,26.36 -23.1,30.67 -42.95,2.94 -19.85,-27.73 8.08,-52.77 26.3,-53.09z"/>
    </g>
    <g>
     <path class="fil30" d="M3155.25 1499.52c-5.51,-22.07 -12.69,-42.23 -21.74,-61.07 -46.17,-95.77 -140.58,-118.52 -152.09,-120.96l31.39 -116.24c53.74,13.71 126.8,170.17 142.43,298.27z"/>
     <path class="fil4" d="M3014.9 1199.66l0.06 0 -0.06 0zm-0.96 3.56l0 0c48.64,14.93 114.94,152.53 136,272.05 -4.29,-13.12 -9.27,-25.58 -14.99,-37.51 -44.93,-93.2 -135.17,-117.71 -151.55,-121.45l30.55 -113.09zm-1.49 -5.41l0 0c-0.41,0.23 -0.58,0.88 -0.76,1.53l-32.22 119.34c0.32,0.09 0.64,0.18 0.64,0.18 8.88,1.71 105.17,23.21 151.97,120.28 13.73,28.62 22.01,58.2 27.15,86.58 -7.75,-131.52 -88.55,-312.88 -146.9,-326.21 0.18,-0.64 0.35,-1.29 0.12,-1.7z"/>
    </g>
    <g>
     <path class="fil31" d="M2732.79 1391.26c70.66,-95.58 201.61,-192.39 264.73,-192.39 4.23,0 8.1,0.46 11.5,1.39l1.49 0.4 -31.49 116.15c-6.96,-2.24 -32.57,-9.79 -67.43,-9.79 -45.94,0 -87.95,12.72 -124.88,37.78 -18.67,12.73 -36.73,28.3 -53.92,46.46z"/>
     <path class="fil4" d="M3014.9 1199.66l0.06 0 -0.06 0zm-17.38 0.79l0 0c4.02,0 7.69,0.43 10.92,1.29l-30.54 113.08c-8.16,-2.56 -33.03,-9.39 -66.32,-9.39 -46.26,-0 -88.57,12.8 -125.77,38.06 -12.23,8.34 -24.2,17.89 -35.84,28.59 72.42,-87.17 190.5,-171.63 247.55,-171.63zm0 -3.17l0 0c-66.68,0 -214.77,111.45 -281.02,214.77 19.49,-23.46 43.1,-46.85 71.1,-65.94 43.62,-29.62 88.53,-37.51 123.99,-37.51 36.87,0 63.53,8.54 67.88,10.07 0.32,0.09 0.64,0.18 0.64,0.18l32.22 -119.34c0.18,-0.64 0.35,-1.29 0.12,-1.7 -0.41,0.23 -0.58,0.88 -0.76,1.53 -0.32,-0.09 -0.32,-0.09 -0.32,-0.09l-1.93 -0.53c-3.6,-0.97 -7.58,-1.44 -11.91,-1.44z"/>
    </g>
    <path class="fil32" d="M3129.82 1383.18c-22.63,-40.83 -54.69,-83.8 -97.96,-112.98 -71.74,-48.43 -185.7,16.66 -252.84,64.67 79.07,-81.48 185.24,-148.4 230.47,-136.19l1.96 0.53c0,0 0,0 0.25,0.07 0.37,0.1 0.37,0.1 0.61,0.17 38.63,8.85 86.92,91.06 117.51,183.74z"/>
    <path class="fil33" style="mask:url(#id30)" d="M2789.4 1332.96c0,0 173.88,-152.81 230.99,-121.86 57.11,30.95 112.06,203.58 112.06,203.58l-343.04 -81.72z"/>
    <g>
     <path class="fil34" style="mask:url(#id32)" d="M2959.98 1227.23c2.79,5.77 -5.21,15.4 -17.85,21.5 -12.65,6.1 -25.16,6.37 -27.94,0.59 -2.79,-5.77 5.21,-15.4 17.85,-21.5 12.65,-6.1 25.16,-6.37 27.94,-0.59z"/>
     <path class="fil35" style="mask:url(#id34)" d="M2980.79 1232.98c1.36,2.82 -2.03,7.28 -7.57,9.95 -5.54,2.67 -11.14,2.55 -12.5,-0.27 -1.36,-2.82 2.03,-7.28 7.57,-9.95 5.54,-2.67 11.14,-2.55 12.5,0.27z"/>
    </g>
   </g>
   <g>
    <g>
     <path class="fil36" d="M1058.45 1852.86c-0.45,0 -0.9,-0.1 -1.33,-0.28l-71.36 -32.8c-1.1,-0.51 -1.82,-1.6 -1.85,-2.81 -0.03,-1.22 0.64,-2.34 1.72,-2.89l71.37 -36.87c0.46,-0.23 0.95,-0.36 1.46,-0.36 0.47,0 0.94,0.1 1.38,0.31l49.72 24.01c0.94,0.46 1.6,1.36 1.76,2.4 0.15,1.04 -0.22,2.08 -1,2.8l-49.72 45.66c-0.59,0.55 -1.36,0.83 -2.14,0.83z"/>
     <path class="fil7" d="M1058.45 1780.02l49.72 24.02 -49.72 45.66 -71.37 -32.81 71.37 -36.87zm0 -6.35l0 0c-1,0 -2,0.24 -2.91,0.71l-71.37 36.87c-2.16,1.11 -3.49,3.36 -3.43,5.79 0.06,2.43 1.49,4.61 3.7,5.62l71.37 32.81c0.85,0.39 1.75,0.58 2.65,0.58 1.56,0 3.1,-0.58 4.3,-1.67l49.72 -45.66c1.55,-1.43 2.29,-3.52 1.99,-5.6 -0.31,-2.08 -1.62,-3.88 -3.52,-4.79l-49.72 -24.01c-0.87,-0.42 -1.82,-0.63 -2.76,-0.63z"/>
    </g>
    <g>
     <path class="fil36" d="M1145.2 79.2c-0.45,0 -0.9,-0.1 -1.33,-0.28l-71.36 -32.81c-1.1,-0.51 -1.82,-1.6 -1.85,-2.81 -0.03,-1.22 0.64,-2.34 1.72,-2.89l71.37 -36.87c0.46,-0.23 0.95,-0.36 1.46,-0.36 0.47,0 0.94,0.1 1.38,0.31l49.72 24.02c0.94,0.46 1.6,1.36 1.76,2.4 0.15,1.04 -0.22,2.08 -1,2.8l-49.72 45.67c-0.59,0.55 -1.36,0.83 -2.14,0.83z"/>
     <path class="fil7" d="M1145.2 6.35l49.72 24.01 -49.72 45.66 -71.37 -32.81 71.37 -36.87zm0 -6.35l0 0c-1,0 -2,0.24 -2.91,0.71l-71.37 36.87c-2.16,1.11 -3.49,3.36 -3.43,5.78 0.06,2.43 1.49,4.61 3.7,5.62l71.37 32.81c0.85,0.39 1.75,0.58 2.65,0.58 1.56,0 3.1,-0.58 4.3,-1.67l49.72 -45.66c1.55,-1.42 2.29,-3.52 1.99,-5.6 -0.31,-2.08 -1.62,-3.88 -3.52,-4.79l-49.72 -24.01c-0.87,-0.42 -1.82,-0.63 -2.76,-0.63z"/>
    </g>
    <g>
     <path class="fil36" d="M2648.36 1345.11c-0.87,0 -1.73,-0.36 -2.34,-1.03l-28.85 -31.55c-0.67,-0.73 -0.96,-1.75 -0.77,-2.73 0.18,-0.98 0.81,-1.81 1.7,-2.26l28.85 -14.42c0.45,-0.22 0.93,-0.33 1.42,-0.33 0.3,0 0.59,0.04 0.89,0.12 10.95,3.19 49.78,21.93 51.43,22.74 1.1,0.54 1.81,1.65 1.79,2.88 -0.01,1.24 -0.73,2.34 -1.85,2.86l-50.93 23.43c-0.43,0.18 -0.88,0.28 -1.33,0.28z"/>
     <path class="fil7" d="M2648.36 1295.96c10.82,3.16 50.94,22.54 50.94,22.54l-50.94 23.44 -28.85 -31.55 28.85 -14.43zm0 -6.35l0 0c-0.98,0 -1.95,0.23 -2.84,0.67l-28.85 14.43c-1.78,0.89 -3.04,2.56 -3.4,4.52 -0.36,1.96 0.22,3.97 1.56,5.44l28.85 31.56c1.23,1.35 2.94,2.06 4.69,2.06 0.9,0 1.8,-0.19 2.65,-0.58l50.94 -23.44c2.23,-1.03 3.67,-3.25 3.7,-5.71 0.02,-2.46 -1.37,-4.71 -3.59,-5.78 -1.66,-0.8 -40.72,-19.65 -51.92,-22.92 -0.58,-0.17 -1.18,-0.26 -1.78,-0.26z"/>
    </g>
    <g>
     <path class="fil37" d="M877.03 1695.35l-146.46 -26.56c-1.36,-0.24 -2.41,-1.34 -2.59,-2.71l-14.72 -112.53c-0.13,-0.98 0.22,-1.97 0.92,-2.68 0.59,-0.58 1.4,-0.91 2.22,-0.91 0.16,0 85.17,12.57 85.17,12.57 0.8,0.11 1.51,0.52 2.01,1.15 18.68,23.27 74.42,122.76 76.78,126.98 0.6,1.07 0.53,2.39 -0.19,3.4 -0.6,0.84 -1.57,1.33 -2.58,1.33 -0.19,0 -0.38,-0.01 -0.56,-0.05z"/>
     <path class="fil7" d="M716.42 1553.14l84.7 12.54c18.73,23.33 76.48,126.55 76.48,126.55l-146.46 -26.55 -14.72 -112.54zm0 -6.35l0 0c-1.65,0 -3.25,0.65 -4.45,1.82 -1.42,1.4 -2.1,3.38 -1.84,5.35l14.72 112.54c0.36,2.74 2.44,4.93 5.16,5.42l146.46 26.55c0.38,0.07 0.76,0.1 1.13,0.1 2.03,0 3.96,-0.97 5.17,-2.66 1.43,-2 1.57,-4.64 0.37,-6.79 -2.37,-4.23 -58.23,-103.95 -77.07,-127.42 -1,-1.25 -2.44,-2.07 -4.02,-2.31l-84.7 -12.54c-0.31,-0.04 -0.62,-0.07 -0.93,-0.07z"/>
    </g>
    <g>
     <path class="fil38" d="M3092.93 867.25c-0.94,0 -1.83,-0.41 -2.43,-1.13l-37.88 -45.09c-0.79,-0.95 -0.97,-2.27 -0.45,-3.38 0.52,-1.12 1.64,-1.84 2.88,-1.84l60.43 0c1.13,0 2.17,0.61 2.75,1.59l26.15 45.09c0.57,0.98 0.57,2.18 0.01,3.17 -0.57,0.98 -1.62,1.59 -2.75,1.59l-48.7 0z"/>
     <path class="fil7" d="M3115.48 818.98l26.16 45.1 -48.71 0 -37.88 -45.1 60.43 0zm0 -6.35l0 0 -60.43 0c-2.46,0 -4.71,1.43 -5.75,3.67 -1.04,2.24 -0.69,4.88 0.9,6.77l37.88 45.1c1.21,1.44 2.99,2.26 4.86,2.26l48.71 0c2.27,0 4.37,-1.21 5.5,-3.18 1.13,-1.97 1.13,-4.39 -0.01,-6.35l-26.15 -45.1c-1.14,-1.96 -3.23,-3.16 -5.49,-3.16z"/>
    </g>
    <g>
     <path class="fil38" d="M58.29 1647.34c-1.04,0 -2.01,-0.51 -2.6,-1.35 -0.59,-0.85 -0.74,-1.93 -0.38,-2.9l18.04 -49.61c0.46,-1.26 1.66,-2.09 2.98,-2.09 0.05,0 69.62,3.61 69.62,3.61 1.25,0.08 2.35,0.87 2.8,2.05 0.45,1.18 0.15,2.52 -0.74,3.4l-46.91 46c-0.59,0.58 -1.4,0.91 -2.22,0.91l-40.58 0z"/>
     <path class="fil7" d="M76.33 1594.56l69.45 3.61 -46.9 46 -40.58 0 18.04 -49.61zm0 -6.35l0 0c-2.66,0 -5.05,1.66 -5.96,4.18l-18.04 49.61c-0.71,1.94 -0.42,4.11 0.77,5.81 1.19,1.7 3.13,2.71 5.2,2.71l40.58 0c1.66,0 3.26,-0.65 4.45,-1.81l46.9 -46c1.8,-1.76 2.38,-4.42 1.49,-6.78 -0.89,-2.35 -3.09,-3.96 -5.61,-4.09l-69.45 -3.61c-0.11,-0.01 -0.22,-0.01 -0.33,-0.01z"/>
    </g>
    <g>
     <path class="fil39" d="M217.38 1092.39c-0.61,0 -1.22,-0.17 -1.76,-0.53 -1.22,-0.81 -1.73,-2.35 -1.23,-3.72 0.22,-0.63 22.44,-63.08 -4.92,-73.92 -3.22,-1.28 -6.56,-2.53 -9.95,-3.81 -28.3,-10.6 -63.52,-23.8 -63.81,-67.74l12.36 -31.25c-5.3,2.34 -12.89,4.74 -21.87,4.74 -8.47,0 -16.73,-2.14 -24.53,-6.36 -47.71,-25.74 -64.95,-56.72 -51.23,-92.11 17.59,-45.37 52.7,-75.35 54.18,-76.62 0.58,-0.48 1.3,-0.74 2.05,-0.74 0.23,0 0.46,0.03 0.68,0.08 0.97,0.21 1.78,0.87 2.2,1.76l19.84 42.66c0.48,1.03 0.37,2.23 -0.27,3.16 -19.16,27.42 -47.95,75.27 -43.62,86.91 0.34,0.91 2.21,1.46 5.01,1.46 24.73,0 100.5,-38.79 101.26,-39.19 0.46,-0.23 0.96,-0.35 1.45,-0.35 1.05,0 2.08,0.53 2.68,1.48l24.01 37.98c0.66,1.05 0.65,2.39 -0.03,3.44 -25.15,38.44 -49.97,84.3 -46.22,91.37 1,1.89 4.46,2.25 10.09,2.25l4.79 -0.01c21.87,0 43.65,5.94 54.92,49.02l8.91 36.61c0.27,1.13 -0.08,2.31 -0.92,3.09l-31.91 29.53c-0.61,0.56 -1.37,0.85 -2.16,0.85z"/>
     <g>
      <path class="fil7" d="M106.67 743.5l19.84 42.65c0,0 -50.51,72.29 -44,89.83 0.91,2.47 3.77,3.53 7.99,3.53 25.78,0 102.71,-39.54 102.71,-39.54l24.01 37.99c0,0 -53.33,81.48 -46.37,94.59 1.9,3.59 6.65,3.94 12.9,3.94 1.51,0 3.11,-0.02 4.78,-0.02 16.65,0 40.18,2.03 51.85,46.66l8.91 36.56 -31.91 29.53c0,0 23.84,-65.83 -6.73,-77.95 -30.57,-12.12 -71.46,-21.91 -71.76,-68.63l15.39 -38.26c0,0 -11.64,8.59 -28.08,8.59 -6.98,0 -14.83,-1.55 -23.01,-5.97 -27.46,-14.82 -67.27,-43.02 -49.77,-88.17 17.5,-45.15 53.27,-75.33 53.27,-75.33zm0 -6.35l0 0c-1.48,0 -2.94,0.52 -4.09,1.5 -1.51,1.27 -37.21,31.75 -55.09,77.89 -14.38,37.11 3.34,69.43 52.68,96.06 8.27,4.47 17.03,6.73 26.03,6.73 6.08,0 11.57,-1.04 16.21,-2.44l-9.4 23.39c-0.31,0.76 -0.46,1.58 -0.46,2.41 0.3,46.14 36.65,59.76 65.86,70.71 3.38,1.27 6.7,2.51 9.91,3.79 20.24,8.02 8.73,54.31 3.1,69.89 -0.99,2.75 0.03,5.83 2.46,7.45 1.07,0.71 2.29,1.06 3.5,1.06 1.56,0 3.11,-0.57 4.31,-1.69l31.91 -29.53c1.69,-1.57 2.4,-3.92 1.86,-6.16l-8.91 -36.56c-11.88,-45.4 -35.99,-51.51 -58.02,-51.51l-2.55 0.01 -2.23 0.01c-3.84,0 -6.26,-0.21 -7.21,-0.62 -1.05,-9.41 22.81,-52.66 45.99,-88.08 1.36,-2.08 1.38,-4.76 0.05,-6.87l-24.01 -37.99c-1.2,-1.9 -3.25,-2.96 -5.37,-2.96 -0.98,0 -1.97,0.23 -2.9,0.7 -21.02,10.8 -79.93,38.84 -99.81,38.84 -1.1,0 -1.82,-0.1 -2.25,-0.19 -1.71,-10.15 20.64,-50.53 43.46,-83.18 1.3,-1.86 1.51,-4.26 0.55,-6.32l-19.84 -42.65c-0.83,-1.79 -2.46,-3.09 -4.39,-3.52 -0.46,-0.1 -0.91,-0.15 -1.37,-0.15z"/>
     </g>
    </g>
    <g>
     <path class="fil39" d="M3265.28 1257.27c-26.63,0 -43.93,-19.46 -51.43,-57.84 -2.95,-15.15 2.92,-26.23 8.05,-32.64l-22.18 1.78c-33.06,-10.29 -34.67,-38.68 -35.96,-61.49 -0.15,-2.69 -0.3,-5.36 -0.5,-7.93 -1.38,-18.34 -39.63,-19.27 -47.28,-19.27 -2.2,0 -3.66,0.06 -3.71,0.06 -1.41,0 -2.65,-0.93 -3.04,-2.28 -0.41,-1.41 0.19,-2.91 1.46,-3.64l28.18 -16.22c0.49,-0.28 1.04,-0.42 1.58,-0.42 0.56,0 1.13,0.15 1.63,0.46l24.13 14.49c32.9,20.52 26.45,40.76 22.6,52.85 -1.17,3.67 -2.38,7.46 -1.34,8.52 0,0 1.07,0.89 6.08,0.89 19.98,0 68.15,-13.65 68.64,-13.79 0.28,-0.09 0.58,-0.12 0.87,-0.12 0.92,0 1.8,0.4 2.41,1.12l21.79 25.6c1.07,1.25 1,3.11 -0.16,4.28 -30.12,30.66 -53.8,61.64 -50.65,66.29 0.58,0.45 2.5,1.46 8.11,1.46 20.48,0 62.5,-13.28 62.92,-13.42 0.32,-0.1 0.64,-0.15 0.96,-0.15 0.77,0 1.54,0.28 2.13,0.83l26.04 23.65c0.73,0.66 1.12,1.63 1.03,2.62 -0.08,0.98 -0.62,1.87 -1.46,2.4 -1.23,0.78 -30.6,19.28 -67.11,21.76 -1.3,0.1 -2.55,0.14 -3.79,0.14 -0,0 -0,0 -0,0z"/>
     <path class="fil7" d="M3140.46 1060.56l24.12 14.49c44.32,27.65 12.83,53 20.64,60.88 1.29,1.3 4.27,1.84 8.35,1.84 20.66,0 69.49,-13.91 69.49,-13.91l21.78 25.59c0,0 -61.4,62.47 -50.33,71.02 1.95,1.5 5.51,2.13 10.05,2.13 21.22,0 63.87,-13.56 63.87,-13.56l26.04 23.65c0,0 -29.5,18.82 -65.63,21.28 -1.22,0.08 -2.41,0.12 -3.57,0.12 -33.3,0 -43.99,-33.14 -48.31,-55.27 -4.47,-22.9 13.23,-35.89 13.23,-35.89l-30.73 2.48c-33.29,-10.61 -31.19,-41.98 -33.04,-66.5 -1.55,-20.54 -38.49,-22.2 -50.45,-22.2 -2.32,0 -3.7,0.06 -3.7,0.06l28.18 -16.21zm0 -6.35l0 0c-1.09,0 -2.19,0.28 -3.17,0.85l-28.18 16.21c-2.54,1.46 -3.75,4.47 -2.93,7.28 0.79,2.72 3.29,4.57 6.1,4.57 0.09,0 0.19,-0 0.28,-0.01 0.08,-0 1.34,-0.05 3.42,-0.05 19.78,0 43.21,4.28 44.13,16.33 0.19,2.56 0.34,5.2 0.49,7.88 1.35,23.78 3.03,53.37 36.95,64.18 0.62,0.2 1.27,0.3 1.93,0.3 0.17,0 0.34,-0.01 0.51,-0.02l15.59 -1.26c-4.11,7.1 -7.27,17.06 -4.83,29.56 7.83,40.08 26.18,60.4 54.54,60.4 1.31,0 2.63,-0.05 4.01,-0.14 37.31,-2.53 67.35,-21.45 68.61,-22.26 1.67,-1.06 2.74,-2.84 2.91,-4.81 0.17,-1.97 -0.59,-3.91 -2.06,-5.24l-26.04 -23.65c-1.19,-1.08 -2.71,-1.65 -4.27,-1.65 -0.64,0 -1.29,0.1 -1.93,0.3 -0.42,0.13 -41.96,13.26 -61.94,13.26 -2.35,0 -3.88,-0.19 -4.83,-0.4 2.47,-9.41 26.76,-38.67 49.64,-61.96 2.31,-2.34 2.44,-6.06 0.31,-8.56l-21.78 -25.59c-1.22,-1.44 -3,-2.23 -4.83,-2.23 -0.58,0 -1.17,0.08 -1.74,0.24 -0.48,0.14 -48.22,13.67 -67.76,13.67 -1.46,0 -2.49,-0.08 -3.19,-0.17 0.28,-1.38 0.94,-3.46 1.46,-5.1 3.86,-12.12 11.05,-34.69 -23.9,-56.5l-24.21 -14.55c-1,-0.6 -2.14,-0.91 -3.27,-0.91z"/>
    </g>
    <g>
     <path class="fil38" d="M2458.49 1820.9c-0.85,0 -1.69,-0.35 -2.31,-0.99l-30.78 -32.64c-0.79,-0.84 -1.07,-2.04 -0.72,-3.13l11.73 -37.01c14.11,-42.04 36.76,-46.9 52.58,-46.9 3.51,0 6.86,0.25 9.92,0.47 2.45,0.19 4.7,0.36 6.72,0.36 4.48,0 5.66,-0.93 6.23,-1.84 4.44,-7.14 -17.46,-55.13 -41.18,-97.39 -0.61,-1.08 -0.53,-2.41 0.21,-3.42l27.38 -37.43c0.61,-0.84 1.58,-1.3 2.56,-1.3 0.56,0 1.13,0.15 1.64,0.46 0.79,0.47 79.03,47.49 102.85,47.48 1.3,0 3.56,-0.16 4.05,-1.25 5.28,-11.71 -21.01,-63.01 -38.82,-92.61 -0.58,-0.96 -0.61,-2.18 -0.06,-3.16l23.41 -42.52c0.48,-0.87 1.33,-1.46 2.31,-1.61 0.15,-0.02 0.32,-0.04 0.47,-0.04 0.82,0 1.61,0.31 2.21,0.89 1.44,1.39 35.46,34.69 50.38,82.61 11.62,37.33 -8.27,67.98 -59.12,91.11 -7.19,3.27 -14.64,4.93 -22.15,4.93 -10.89,0 -19.86,-3.44 -25.8,-6.59l10.4 31.97c-3.22,46.36 -40.37,57.47 -70.21,66.4 -3.58,1.08 -7.11,2.13 -10.52,3.22 -29.02,9.29 -10.5,75.22 -10.31,75.87 0.4,1.41 -0.21,2.91 -1.48,3.63 -0.49,0.28 -1.03,0.42 -1.57,0.42z"/>
     <g>
      <path class="fil7" d="M2596.67 1469.6c0,0 34.7,33.57 49.56,81.28 14.85,47.71 -28.11,73.95 -57.41,87.28 -7.43,3.38 -14.47,4.65 -20.83,4.65 -18.71,0 -31.58,-10.93 -31.58,-10.93l13.16 40.46c-3.59,48.08 -46.36,55.29 -78.68,65.62 -32.32,10.33 -12.39,79.77 -12.39,79.77l-30.78 -32.63 11.73 -37.01c13.15,-39.19 33.27,-44.68 49.56,-44.68 6.33,0 12.08,0.83 16.62,0.83 4.15,0 7.29,-0.69 8.94,-3.34 8.08,-13 -41.11,-100.62 -41.11,-100.62l27.38 -37.42c0,0 79.51,47.95 104.49,47.95 3.52,0 5.96,-0.95 6.94,-3.13 7.93,-17.6 -39,-95.55 -39,-95.55l23.41 -42.52zm0 -6.35l0 0c-0.31,0 -0.63,0.03 -0.95,0.07 -1.95,0.3 -3.66,1.48 -4.61,3.21l-23.41 42.52c-1.09,1.98 -1.04,4.4 0.12,6.33 21.22,35.25 41.69,78.54 38.9,88.96 -0.3,0.05 -0.76,0.1 -1.4,0.1 -19.04,0 -79.52,-33.96 -101.21,-47.04 -1.02,-0.62 -2.16,-0.91 -3.27,-0.91 -1.96,0 -3.89,0.91 -5.13,2.6l-27.38 37.42c-1.47,2.01 -1.63,4.69 -0.41,6.86 21.71,38.67 43.53,85.61 41.12,94.37 -0.01,-0.04 -0.06,-0.06 -0.16,-0.06 -0.35,0 -1.31,0.19 -3.26,0.19 -1.94,0 -4.12,-0.17 -6.48,-0.35 -3.13,-0.23 -6.55,-0.48 -10.14,-0.48 -16.8,0 -40.83,5.08 -55.57,49l-11.76 37.11c-0.69,2.2 -0.15,4.6 1.44,6.27l30.78 32.64c1.23,1.31 2.91,1.99 4.62,1.99 1.07,0 2.15,-0.27 3.14,-0.83 2.54,-1.45 3.77,-4.45 2.96,-7.27 -5.06,-17.67 -13.44,-65.05 8.22,-71.97 3.39,-1.09 6.9,-2.13 10.47,-3.2 30.77,-9.21 69.08,-20.66 72.61,-67.99 0.06,-0.82 -0.04,-1.65 -0.3,-2.43l-8.17 -25.14c5.64,2.18 12.63,3.91 20.56,3.91 7.96,0 15.85,-1.76 23.46,-5.21 52.55,-23.9 73.01,-55.85 60.84,-94.94 -15.16,-48.69 -49.74,-82.54 -51.2,-83.95 -1.19,-1.15 -2.78,-1.78 -4.41,-1.78z"/>
     </g>
    </g>
    <g>
     <path class="fil38" d="M2268.85 332.72c-1.11,0 -2.16,-0.58 -2.75,-1.58l-17.49 -30.09c-0.58,-1 -0.57,-2.23 0.02,-3.22l15.4 -25.88c11.52,-18.66 24.23,-27.71 38.86,-27.71 6.66,0 12.59,1.86 17.36,3.35 3.14,0.98 5.84,1.84 7.7,1.84 1.14,0 1.48,-0.33 1.64,-0.5 4.19,-4.35 -3.9,-44.95 -14.1,-80.15 -0.35,-1.19 0.04,-2.48 0.98,-3.29l27.29 -23.44c0.6,-0.52 1.33,-0.77 2.07,-0.77 0.8,0 1.6,0.3 2.21,0.91 21.47,20.9 59.64,54.07 70.65,54.07 6.47,-7.48 -3.41,-49.13 -12.21,-76.36 -0.35,-1.08 -0.1,-2.26 0.66,-3.1l25.2 -27.99c0.61,-0.67 1.47,-1.05 2.36,-1.05 0.09,0 0.17,0 0.26,0.01 0.99,0.08 1.88,0.61 2.41,1.44 0.85,1.31 20.76,32.62 23.59,71.64 2.22,30.66 -18.42,50.56 -61.32,59.16 -2.9,0.58 -5.8,0.87 -8.64,0.87 -12.06,0 -21.05,-5.15 -26.58,-9.63l2.07 24.28c-10.81,35.21 -41.1,37.05 -65.45,38.54 -2.89,0.18 -5.73,0.35 -8.49,0.57 -18.99,1.53 -21.26,40.04 -20.53,54.76 0.08,1.46 -0.86,2.79 -2.27,3.2 -0.3,0.1 -0.6,0.14 -0.9,0.14z"/>
     <path class="fil7" d="M2434.7 90.93c0,0 20.29,31.49 23.09,70.15 2.8,38.66 -34.29,50.91 -58.78,55.81 -2.81,0.56 -5.48,0.81 -8.01,0.81 -19.51,0 -30.48,-14.81 -30.48,-14.81l2.8 32.89c-11.2,35.69 -44.79,33.59 -71.03,35.69 -26.24,2.1 -23.44,58.08 -23.44,58.08l-17.49 -30.09 15.39 -25.89c12.93,-20.94 25.45,-26.16 36.14,-26.16 10.65,0 19.48,5.19 25.06,5.19 1.55,0 2.85,-0.4 3.88,-1.42 8.4,-8.4 -13.3,-83.27 -13.3,-83.27l27.29 -23.44c0,0 56.45,54.98 72.86,54.98 1.49,0 2.66,-0.46 3.41,-1.45 9.1,-11.9 -12.59,-79.07 -12.59,-79.07l25.19 -27.99zm-0 -6.34l0 0c-1.79,0 -3.51,0.76 -4.72,2.1l-25.19 27.99c-1.51,1.68 -2.02,4.04 -1.32,6.2 10.44,32.35 16.57,64.05 14.12,72.09 -10.09,-2.05 -42.11,-28.49 -67.33,-53.05 -1.23,-1.19 -2.83,-1.8 -4.43,-1.8 -1.47,0 -2.94,0.51 -4.13,1.53l-27.29 23.44c-1.89,1.62 -2.66,4.19 -1.96,6.58 8.93,30.84 16.67,67.66 14.8,76.51 -1.59,-0.22 -3.85,-0.92 -6.04,-1.61 -4.97,-1.56 -11.16,-3.5 -18.31,-3.5 -15.83,0 -29.42,9.54 -41.54,29.17l-15.45 25.98c-1.18,1.98 -1.19,4.44 -0.03,6.43l17.49 30.09c1.16,1.99 3.27,3.16 5.49,3.16 0.6,0 1.21,-0.08 1.8,-0.26 2.81,-0.83 4.68,-3.47 4.54,-6.4 -0.63,-12.93 1.25,-50.13 17.61,-51.44 2.75,-0.22 5.57,-0.39 8.45,-0.57 25.31,-1.55 56.81,-3.48 68.13,-39.55 0.25,-0.79 0.34,-1.62 0.27,-2.44l-1.49 -17.56c5.78,3.45 13.45,6.37 22.85,6.37 3.04,0 6.16,-0.32 9.26,-0.94 55.72,-11.14 65.49,-40.13 63.87,-62.49 -2.88,-39.82 -23.22,-71.79 -24.09,-73.13 -1.07,-1.66 -2.85,-2.73 -4.83,-2.89 -0.17,-0.01 -0.34,-0.02 -0.51,-0.02z"/>
    </g>
    <g>
     <path class="fil37" d="M2724.81 477.05c-1.43,0 -2.58,-1.16 -2.58,-2.59l0 -76.32c0,-1.43 1.15,-2.59 2.58,-2.59l70.21 0c1.43,0 2.58,1.17 2.58,2.59l0 76.32c0,1.43 -1.16,2.59 -2.58,2.59l-70.21 0z"/>
     <path class="fil7" d="M2795.02 398.14l0 76.31 -70.21 0 0 -76.31 70.21 0zm0 -5.17l0 0 -70.21 0c-2.86,0 -5.17,2.32 -5.17,5.17l0 76.31c0,2.86 2.32,5.17 5.17,5.17l70.21 0c2.86,0 5.17,-2.32 5.17,-5.17l0 -76.31c0,-2.86 -2.31,-5.17 -5.17,-5.17z"/>
    </g>
    <g>
     <path class="fil37" d="M3220.82 1477.13c-1.75,0 -3.17,-1.43 -3.17,-3.17l0 -70.59c0,-1.75 1.42,-3.17 3.17,-3.17l64.94 0c1.76,0 3.17,1.43 3.17,3.17l0 70.59c0,1.75 -1.42,3.17 -3.17,3.17l-64.94 0z"/>
     <path class="fil7" d="M3285.77 1403.37l0 70.59 -64.94 0 0 -70.59 64.94 0zm0 -6.35l0 0 -64.94 0c-3.5,0 -6.35,2.84 -6.35,6.35l0 70.59c0,3.5 2.84,6.35 6.35,6.35l64.94 0c3.5,0 6.35,-2.84 6.35,-6.35l0 -70.59c0,-3.5 -2.84,-6.35 -6.35,-6.35z"/>
    </g>
    <g>
     <path class="fil37" d="M358.86 636.39c-1.75,0 -3.17,-1.43 -3.17,-3.17l0 -70.59c0,-1.75 1.42,-3.17 3.17,-3.17l64.95 0c1.75,0 3.17,1.43 3.17,3.17l0 70.59c0,1.75 -1.42,3.17 -3.17,3.17l-64.95 0z"/>
     <path class="fil7" d="M423.81 562.63l0 70.59 -64.94 0 0 -70.59 64.94 0zm0 -6.34l0 0 -64.94 0c-3.5,0 -6.35,2.84 -6.35,6.34l0 70.59c0,3.51 2.84,6.35 6.35,6.35l64.94 0c3.5,0 6.35,-2.84 6.35,-6.35l0 -70.59c0,-3.5 -2.84,-6.34 -6.35,-6.34z"/>
    </g>
   </g>
   <g>
    <g>
     <g>
      <path class="fil40" d="M157.67 1493.99c-59.51,0 -107.76,-16.01 -132.4,-43.92 -7.9,-8.96 -13.23,-18.94 -15.83,-29.65 -3.49,-13.66 -2.52,-28.03 2.9,-42.62 18.71,-52.16 91.04,-102.19 179.96,-124.42 31.19,-7.81 62.09,-11.77 91.85,-11.77 47.56,0 88.62,10.36 115.63,29.18 16.97,11.8 28.21,27.12 32.5,44.3 6.48,26.06 -3.39,55.37 -27.78,82.54 -33.1,37.35 -89.68,68.24 -155.2,84.68 -31.12,7.75 -61.94,11.68 -91.62,11.68 -0.01,0 -0.01,0 -0.02,0zm11.62 -132.36l0 0c1.72,0.38 4.57,0.76 9.09,0.76 10.58,0 25.02,-2.1 39.64,-5.75 23.82,-5.95 39,-13.48 44.77,-17.85 -4.09,-1.4 -11.84,-2.93 -23.24,-2.93 -10.05,0 -20.39,1.23 -29.91,3.57 -22.9,5.73 -36.51,16.7 -40.35,22.2z"/>
      <path class="fil4" d="M284.16 1249c46.07,0 85.66,9.92 111.41,27.85 15.24,10.6 25.58,24.12 29.55,40.03 6.1,24.52 -3.97,51.16 -26.11,75.81 -30.88,34.86 -85.49,65.87 -151.5,82.45 -31.23,7.78 -61.73,11.47 -89.84,11.47 -56.6,0 -103.49,-14.94 -126.87,-41.43 -6.89,-7.82 -11.8,-16.7 -14.18,-26.51 -3.18,-12.46 -2.12,-25.45 2.65,-38.31 17.5,-48.78 85.76,-97.55 174.83,-119.82 31.33,-7.84 61.9,-11.55 90.06,-11.55zm-105.78 120.77l0 0c10.76,0 25.51,-1.99 41.44,-5.97 30.75,-7.69 54.21,-19.75 52.49,-26.91 -1.2,-4.71 -14.91,-8.42 -32.75,-8.42 -9.77,0 -20.79,1.12 -31.66,3.79 -30.75,7.69 -48.78,25.19 -46.92,32.34 0.83,3.45 7.39,5.17 17.41,5.17zm105.78 -135.55l0 0c-30.36,0 -61.87,4.03 -93.65,11.99 -92.63,23.16 -165.31,73.86 -185.15,129.17 -5.89,15.88 -6.95,31.73 -3.06,46.95 2.85,11.73 8.73,22.77 17.41,32.62 26.06,29.51 76.34,46.43 137.95,46.43 30.3,0 61.73,-4.01 93.42,-11.91 66.96,-16.81 124.9,-48.51 158.99,-86.98 26.02,-28.98 36.48,-60.67 29.39,-89.18 -4.74,-18.95 -17,-35.75 -35.46,-48.59 -28.23,-19.67 -70.8,-30.5 -119.85,-30.5zm-93.08 119.95l0 0c5.42,-2.81 12.22,-5.54 20.39,-7.58 8.02,-1.97 16.73,-3.11 25.32,-3.31 -5.75,2.08 -12.6,4.2 -20.55,6.19 -8.77,2.19 -17.45,3.8 -25.15,4.7z"/>
     </g>
     <path class="fil41" d="M247.51 1475.14c-112.8,28.1 -216.18,2.78 -230.9,-56.46 -3.18,-12.46 -2.12,-25.45 2.65,-38.31 14.58,29.95 48.91,53.68 120.48,53.02 193.38,-1.72 252.1,-94.77 258.33,-135.33 1.06,-7.16 0,-14.31 -2.52,-21.21 15.24,10.6 25.58,24.12 29.55,40.03 14.71,59.25 -64.81,130.03 -177.61,158.26z"/>
     <g>
      <path class="fil42" d="M129.86 1356.1c16.37,4.78 32.89,4.91 48.98,3.67 16.11,-1.76 31.96,-5.21 47.36,-10.44 15.43,-5.08 30.59,-11.2 44.06,-19.76 13.26,-8.6 25.99,-19.5 31.34,-35.79 0.94,17.71 -11.12,34.08 -24.5,45.07 -13.63,11.58 -29.91,18.83 -46.3,24.51 -16.57,5.32 -34.09,8.46 -51.66,7.89 -17.38,-0.8 -35.41,-4.7 -49.29,-15.15z"/>
     </g>
    </g>
    <g>
     <path class="fil42" d="M131.27 1378.38c-2.74,7.1 -5.05,13.37 -6.81,19.97 -0.94,3.26 -1.7,6.57 -2.47,9.98 -0.83,3.41 -1.26,6.91 -2.29,10.66 -3.43,-6.89 -3.6,-15.02 -1.63,-22.42 1.07,-3.69 2.62,-7.27 4.89,-10.37 2.21,-3.12 4.84,-6 8.29,-7.82z"/>
    </g>
    <g>
     <path class="fil42" d="M147.63 1388.25c0.57,5.45 -0.1,10 -0.72,14.54 -0.78,4.59 -1.62,8.59 -2.67,13.94 -2.07,-1.91 -3.09,-4.53 -3.7,-7.13 -0.65,-2.63 -0.49,-5.28 -0.17,-7.85 0.48,-2.55 1.17,-5.03 2.43,-7.3 1.21,-2.27 2.62,-4.47 4.82,-6.2z"/>
    </g>
    <g>
     <path class="fil42" d="M335.44 1369.92c5.52,0.53 10.02,4.81 11.97,9.99 1.9,5.25 1.08,11.41 -2.67,15.39 -0.81,-2.68 -1.06,-4.97 -1.68,-7.11 -0.58,-2.13 -1.12,-4.09 -1.86,-5.99 -1.31,-3.91 -3.26,-7.48 -5.76,-12.28z"/>
    </g>
    <g>
     <path class="fil42" d="M372.11 1307.31c2.75,-1.68 5.77,-2.35 8.83,-2.7 3.08,-0.39 6.2,-0.06 9.28,0.75 3.02,0.95 6.07,2.33 8.42,4.69 2.35,2.34 4.04,5.34 4.21,8.54 -5.06,-3.85 -9.29,-5.44 -14.43,-6.86 -5.03,-1.51 -10.35,-2.42 -16.31,-4.43z"/>
    </g>
    <g>
     <path class="fil42" d="M283.84 1244.98c2.63,4.1 3.27,8.08 3.45,12.08 -0.05,2 -0.12,4.01 -0.69,6.03 -0.51,2.02 -1.12,4.06 -2.48,6.14 -1.4,-1.95 -2.06,-3.96 -2.62,-5.98 -0.63,-2.02 -0.74,-4.06 -0.83,-6.1 0.08,-4.08 0.64,-8.18 3.17,-12.17z"/>
    </g>
    <g>
     <path class="fil42" d="M311.47 1243.58c2.15,4.82 2.32,9.59 2.03,14.28 -0.29,2.34 -0.59,4.67 -1.4,6.95 -0.74,2.28 -1.59,4.54 -3.17,6.69 -1.16,-2.5 -1.58,-4.9 -1.9,-7.27 -0.39,-2.38 -0.26,-4.7 -0.13,-7.01 0.55,-4.61 1.57,-9.15 4.57,-13.63z"/>
    </g>
    <path class="fil43" d="M399.01 1392.7c18.16,-31.15 29.43,-68.52 2.79,-94.37 -53.68,-52.49 -215.79,-48.25 -319.04,26.24 -61.1,44.01 -61.77,90.13 -51.96,120.62 -6.89,-7.82 -11.8,-16.7 -14.18,-26.51 -3.18,-12.46 -2.12,-25.45 2.65,-38.31 17.5,-48.78 85.76,-97.55 174.83,-119.82 82.58,-20.68 159.98,-12.59 201.47,16.3 15.24,10.6 25.58,24.12 29.55,40.03 6.1,24.52 -3.97,51.16 -26.11,75.81z"/>
    <path class="fil43" d="M187.9 1272.92c3.46,6.76 -6.39,18.71 -21.99,26.68 -15.6,7.97 -31.05,8.96 -34.51,2.2 -3.46,-6.76 6.39,-18.71 21.99,-26.68 15.6,-7.97 31.05,-8.96 34.51,-2.2z"/>
    <path class="fil43" d="M208.94 1287.12c1.91,3.75 -2.48,9.82 -9.81,13.57 -7.33,3.75 -14.83,3.75 -16.74,0.01 -1.91,-3.75 2.48,-9.82 9.81,-13.57 7.33,-3.75 14.83,-3.75 16.74,-0.01z"/>
   </g>
   <g>
    <g>
     <g>
      <path class="fil44" d="M3234.22 757.98c-38,-0.63 -83.89,-18.08 -125.88,-47.84 -60.36,-42.96 -98.33,-102.82 -92.33,-145.59 1.25,-8.98 4.39,-17 9.3,-23.85 6.2,-8.79 14.99,-15.35 26.11,-19.44 9.46,-3.6 20.55,-5.43 32.89,-5.43 38.64,0 85.38,17.47 128.25,47.92 52.21,37.05 88.61,87.56 92.72,128.66 1.59,15.66 -1.71,29.76 -9.53,40.75 -11.57,16.26 -31.82,24.85 -58.58,24.85l-2.94 -0.04zm-95.72 -153.86l0 0c2.45,4.45 11.17,14.38 27.05,25.66 13.95,9.91 26.37,15.79 32.56,17.05 -2.48,-6.3 -12.09,-19.92 -26.74,-30.42 -12.84,-9.12 -24.92,-12.35 -31.36,-12.35 -0.58,0 -1.08,0.02 -1.5,0.06z"/>
      <path class="fil4" d="M3084.31 521.46c35.82,0 81.84,16.23 124.98,46.88 52.87,37.53 86.54,86.32 90.38,124.64 1.42,14.07 -1.28,26.75 -8.51,36.93 -10.75,15.09 -30.07,22.48 -54.01,22.48 -0.92,0 -1.86,-0.01 -2.79,-0.03 -35.47,-0.6 -80.47,-16.83 -122.75,-46.81 -60.2,-42.82 -95.63,-100.34 -90.03,-140.22 1.11,-7.86 3.82,-15.1 8.31,-21.34 5.63,-8.01 13.67,-13.84 23.48,-17.45 8.97,-3.41 19.44,-5.09 30.95,-5.09zm115.96 131.26l0 0c1.72,0 2.95,-0.42 3.59,-1.32 3.3,-4.69 -9.62,-25.52 -29.23,-39.57 -13.46,-9.56 -26.62,-13.41 -34.63,-13.41 -3.7,0 -6.3,0.82 -7.32,2.28 -3.29,4.54 9.93,19.67 29.61,33.66 15.82,11.24 30.94,18.35 37.98,18.35zm-115.96 -142.52l0 0c-13.03,0 -24.79,1.96 -34.96,5.83 -12.11,4.46 -21.8,11.7 -28.68,21.49 -5.38,7.46 -8.85,16.33 -10.25,26.24 -6.38,45.49 31.66,106.15 94.65,150.97 42.9,30.41 89.94,48.23 129.09,48.89 0.95,0.02 1.97,0.04 2.98,0.04 28.65,0 50.49,-9.41 63.17,-27.21 8.62,-12.13 12.26,-27.55 10.55,-44.59 -4.34,-43.3 -40.76,-94.14 -95.06,-132.69 -43.79,-31.11 -91.72,-48.96 -131.49,-48.96zm98.32 123.84l0 0c-4.06,-2.3 -8.7,-5.22 -13.82,-8.85 -6.14,-4.36 -11.19,-8.54 -15.14,-12.2 4.31,1.75 9.24,4.33 14.45,8.02 5.81,4.16 10.67,8.74 14.51,13.03z"/>
     </g>
     <path class="fil45" d="M3111.59 705.55c-72.14,-51.34 -108.71,-123.69 -81.72,-161.56 5.63,-8.01 13.67,-13.84 23.48,-17.45 -10.11,23.28 -6.83,54.89 29.01,95.97 96.8,111.03 179.72,98.91 206.27,82.42 4.67,-2.93 8.28,-7.09 11.02,-11.96 1.42,14.07 -1.28,26.75 -8.51,36.93 -26.99,37.86 -107.34,26.92 -179.56,-24.36z"/>
     <g>
      <path class="fil46" d="M3122.18 578.51c5.35,11.84 13.45,21.46 22.15,30.16 9,8.45 18.85,15.91 29.5,22.23 10.59,6.41 21.63,12.15 33.26,15.7 11.54,3.41 24.16,5.37 36.23,0.4 -9.78,9.31 -25.22,10.45 -38.21,8.15 -13.45,-2.16 -25.72,-7.97 -37.12,-14.64 -11.28,-6.95 -21.78,-15.53 -30.16,-25.98 -8.15,-10.45 -14.82,-22.82 -15.65,-36.02z"/>
     </g>
    </g>
    <g>
     <path class="fil46" d="M3109.99 590.36c-5.42,2.04 -10.3,3.52 -14.93,5.96 -4.85,1.96 -9.03,4.9 -14.29,7.47 2.23,-5.5 7.01,-9.35 12.16,-12.04 5.36,-2.18 11.44,-3.53 17.06,-1.39z"/>
    </g>
    <g>
     <path class="fil46" d="M3112.38 604.71c-2.81,3.14 -5.92,4.72 -8.77,6.79 -3.16,1.66 -5.7,3.41 -9.38,5.36 0.22,-4.41 3.63,-7.44 6.75,-9.66 3.5,-1.78 7.19,-3.28 11.4,-2.49z"/>
    </g>
    <g>
     <path class="fil46" d="M3216.04 704.3c2.53,3.49 1.99,8.11 0.15,11.88 -2.25,3.57 -5.97,6.35 -10.22,6.08 2.32,-3.5 4.51,-5.64 5.82,-8.54 1.8,-2.63 2.59,-5.63 4.25,-9.41z"/>
    </g>
    <g>
     <path class="fil46" d="M3270.42 694.49c4.65,1.58 7.79,5.29 10.09,9.51 0.81,2.27 1.6,4.67 1.46,7.2 -0.19,2.52 -1.09,4.98 -2.85,6.66 -0.4,-4.8 -1.26,-8.13 -3.18,-11.75 -1.45,-3.76 -3.83,-7.12 -5.52,-11.63z"/>
    </g>
    <g>
     <path class="fil46" d="M3262.75 612.55c-0.99,3.64 -3.18,5.74 -5.28,7.98 -2.49,1.79 -4.86,3.7 -8.61,4.2 0.87,-3.56 3.14,-5.71 5.28,-7.98 2.53,-1.82 4.97,-3.77 8.61,-4.2z"/>
    </g>
    <g>
     <path class="fil46" d="M3277.26 627.84c-1.66,3.73 -4.51,5.93 -7.26,8.25 -3.09,1.84 -6.1,3.81 -10.15,4.12 1.75,-3.82 4.54,-5.96 7.26,-8.25 3.06,-1.8 6,-3.73 10.15,-4.12z"/>
    </g>
    <path class="fil43" d="M3234.35 752.36c27.01,-4.92 54.22,-16.92 55.98,-45.14 3.77,-57.06 -78.99,-148.74 -173.24,-171.58 -55.73,-13.55 -82.74,8.92 -95.52,29.69 1.11,-7.86 3.82,-15.1 8.31,-21.34 5.63,-8.01 13.67,-13.84 23.48,-17.45 36.89,-14.04 98.92,1.29 155.93,41.79 52.87,37.53 86.54,86.32 90.38,124.64 1.42,14.07 -1.28,26.75 -8.51,36.93 -11.17,15.68 -31.57,23.04 -56.8,22.45z"/>
    <path class="fil43" d="M3199.06 570.89c-2.2,5.35 -13.99,5.57 -26.33,0.49 -12.35,-5.07 -20.57,-13.53 -18.37,-18.87 2.2,-5.35 13.99,-5.57 26.33,-0.5 12.34,5.08 20.57,13.53 18.37,18.88z"/>
    <path class="fil43" d="M3201.27 590.09c-1.22,2.96 -6.91,3.43 -12.71,1.04 -5.8,-2.39 -9.52,-6.72 -8.3,-9.68 1.22,-2.96 6.91,-3.43 12.71,-1.04 5.8,2.39 9.51,6.72 8.3,9.68z"/>
   </g>
  </g>
 </g>
</svg>
