<?xml version="1.0" encoding="UTF-8"?>
<!DOCTYPE svg PUBLIC "-//W3C//DTD SVG 1.1//EN" "http://www.w3.org/Graphics/SVG/1.1/DTD/svg11.dtd">
<!-- Creator: CorelDRAW -->
<svg xmlns="http://www.w3.org/2000/svg" xml:space="preserve" width="111.255mm" height="18.6933mm" version="1.1" style="shape-rendering:geometricPrecision; text-rendering:geometricPrecision; image-rendering:optimizeQuality; fill-rule:evenodd; clip-rule:evenodd"
viewBox="0 0 11776.28 1978.67"
 xmlns:xlink="http://www.w3.org/1999/xlink"
 xmlns:xodm="http://www.corel.com/coreldraw/odm/2003">
 <defs>
  <style type="text/css">
   <![CDATA[
    .str0 {stroke:#201E19;stroke-width:39.53;stroke-linecap:round;stroke-linejoin:round;stroke-miterlimit:10;stroke-opacity:0.411765}
    .fil3 {fill:none}
    .fil4 {fill:#201E19;fill-opacity:0.360784}
    .fil1 {fill:url(#id0)}
    .fil0 {fill:url(#id1)}
    .fil2 {fill:url(#id2)}
   ]]>
  </style>
  <linearGradient id="id0" gradientUnits="userSpaceOnUse" x1="5892.21" y1="1849.05" x2="5882.75" y2="-147.65">
   <stop offset="0" style="stop-opacity:1; stop-color:#F160A8"/>
   <stop offset="0.631373" style="stop-opacity:1; stop-color:#F175B2"/>
   <stop offset="1" style="stop-opacity:1; stop-color:#F18ABD"/>
  </linearGradient>
  <radialGradient id="id1" gradientUnits="userSpaceOnUse" gradientTransform="matrix(0.999954 -0 -0 0.999977 1 0)" cx="11261.75" cy="314.85" r="231.39" fx="11261.75" fy="314.85">
   <stop offset="0" style="stop-opacity:1; stop-color:#E8A32E"/>
   <stop offset="0.160784" style="stop-opacity:1; stop-color:#F3C86B"/>
   <stop offset="0.25098" style="stop-opacity:1; stop-color:#FEECA8"/>
   <stop offset="0.431373" style="stop-opacity:1; stop-color:#F3C76B"/>
   <stop offset="0.521569" style="stop-opacity:1; stop-color:#E8A32E"/>
   <stop offset="0.721569" style="stop-opacity:1; stop-color:#F3C86B"/>
   <stop offset="0.831373" style="stop-opacity:1; stop-color:#FEECA8"/>
   <stop offset="0.941176" style="stop-opacity:1; stop-color:#F3C76B"/>
   <stop offset="1" style="stop-opacity:1; stop-color:#E8A32E"/>
  </radialGradient>
  <radialGradient id="id2" gradientUnits="userSpaceOnUse" gradientTransform="matrix(0.717019 -0 -0 0.717022 1666 280)" xlink:href="#id1" cx="5888.14" cy="989.33" r="5888.15" fx="5888.14" fy="989.33">
  </radialGradient>
 </defs>
 <g id="__x0023_Layer_x0020_1">
  <metadata id="CorelCorpID_0Corel-Layer"/>
  <g id="_1881639461296">
   <g>
    <path class="fil0" d="M11409.96 166.65l0 296.41 -296.42 0 0 -296.41 296.42 0zm83.17 -83.18l0 0 -83.17 0 -296.42 0 -83.17 0 0 83.18 0 296.41 0 83.18 83.17 0 296.42 0 83.17 0 0 -83.18 0 -296.41 0 -83.18z"/>
   </g>
   <g>
    <path class="fil0" d="M11409.96 1516.43l0 296.41 -296.42 0 0 -296.41 296.42 0zm83.17 -83.18l0 0 -83.17 0 -296.42 0 -83.17 0 0 83.18 0 296.41 0 83.18 83.17 0 296.42 0 83.17 0 0 -83.18 0 -296.41 0 -83.18z"/>
   </g>
   <g>
    <path class="fil0" d="M658.29 166.65l0 296.41 -296.41 0 0 -296.41 296.41 0zm83.17 -83.18l0 0 -83.17 0 -296.41 0 -83.18 0 0 83.18 0 296.41 0 83.18 83.18 0 296.41 0 83.17 0 0 -83.18 0 -296.41 0 -83.18z"/>
   </g>
   <g>
    <path class="fil0" d="M658.29 1516.43l0 296.41 -296.41 0 0 -296.41 296.41 0zm83.17 -83.18l0 0 -83.17 0 -296.41 0 -83.18 0 0 83.18 0 296.41 0 83.18 83.18 0 296.41 0 83.17 0 0 -83.18 0 -296.41 0 -83.18z"/>
   </g>
   <g>
    <path class="fil1" d="M11504.18 417.25c247.93,335.73 251.29,792.97 8.31,1132.3l-8.31 11.6c-184.64,0 -334.07,149.7 -334.07,334.35l-10566.21 0c0,-184.64 -149.43,-334.35 -334.07,-334.35 -247.94,-340.92 -247.99,-802.75 -0.14,-1143.72l0.14 -0.18c184.64,0 334.07,-149.43 334.07,-334.07l10566.21 0c0,184.64 149.43,334.07 334.07,334.07z"/>
    <path class="fil2" d="M11170.1 83.18c0,184.64 149.43,334.07 334.07,334.07 247.93,335.73 251.29,792.97 8.31,1132.3l-8.31 11.6c-184.64,0 -334.07,149.7 -334.07,334.35l-10566.21 0c0,-184.64 -149.43,-334.35 -334.07,-334.35 -247.93,-340.92 -247.99,-802.75 -0.14,-1143.71l0.14 -0.19c184.64,0 334.07,-149.43 334.07,-334.07l10566.21 0zm83.17 -83.18l0 0 -83.17 0 -10566.21 0 -83.17 0 0 83.18c0,138.35 -112.56,250.91 -250.91,250.91l-42.53 0 -24.9 34.48c-269.92,371.31 -269.85,870.24 0.16,1241.51l24.92 34.25 42.35 0c138.35,0 250.91,112.69 250.91,251.18l0 83.18 83.17 0 10566.21 0 83.17 0 0 -83.18c0,-138.49 112.56,-251.18 250.91,-251.18l42.74 0 24.89 -34.75 8.31 -11.6c264.82,-369.85 261.2,-864.2 -9.03,-1230.13l-24.93 -33.76 -41.98 0c-138.35,0 -250.91,-112.56 -250.91,-250.91l0 -83.18z"/>
   </g>
   <g>
    <polyline class="fil3 str0" points="1043.13,355.19 1095.51,410.38 1040.62,464.98 941.77,358.13 1047.76,253.82 1210.97,415.34 1046.08,574.33 829.47,358.13 1044.82,145.71 1275.74,368.65 "/>
    <polyline class="fil3 str0" points="2247.59,355.19 2299.97,410.38 2245.08,464.98 2146.22,358.13 2252.22,253.82 2415.43,415.34 2250.54,574.33 2033.92,358.13 2249.28,145.71 2480.2,368.65 "/>
    <polyline class="fil3 str0" points="3489.4,355.19 3541.77,410.38 3486.88,464.98 3388.03,358.13 3494.02,253.82 3657.22,415.34 3492.34,574.33 3275.72,358.13 3491.08,145.71 3722,368.65 "/>
    <polyline class="fil3 str0" points="4768.55,355.19 4820.92,410.38 4766.02,464.98 4667.17,358.13 4773.17,253.82 4936.37,415.34 4771.49,574.33 4554.87,358.13 4770.23,145.71 5001.15,368.65 "/>
    <polyline class="fil3 str0" points="6047.68,355.19 6100.06,410.38 6045.16,464.98 5946.31,358.13 6052.31,253.82 6215.52,415.34 6050.63,574.33 5834,358.13 6049.37,145.71 6280.29,368.65 "/>
    <polyline class="fil3 str0" points="7252.14,355.19 7304.52,410.38 7249.62,464.98 7150.77,358.13 7256.77,253.82 7419.98,415.34 7255.09,574.33 7038.46,358.13 7253.83,145.71 7484.75,368.65 "/>
    <polyline class="fil3 str0" points="8531.29,355.19 8583.66,410.38 8528.76,464.98 8429.92,358.13 8535.92,253.82 8699.11,415.34 8534.23,574.33 8317.61,358.13 8532.97,145.71 8763.89,368.65 "/>
    <polyline class="fil3 str0" points="9810.44,355.19 9862.8,410.38 9807.91,464.98 9709.07,358.13 9815.06,253.82 9978.26,415.34 9813.38,574.33 9596.76,358.13 9812.11,145.71 10043.04,368.65 "/>
    <polyline class="fil3 str0" points="1043.13,1618.85 1095.51,1674.04 1040.62,1728.63 941.77,1621.79 1047.76,1517.48 1210.97,1678.99 1046.08,1837.99 829.47,1621.79 1044.82,1409.37 1275.74,1632.3 "/>
    <polyline class="fil3 str0" points="2247.59,1618.85 2299.97,1674.04 2245.08,1728.63 2146.22,1621.79 2252.22,1517.48 2415.43,1678.99 2250.54,1837.99 2033.92,1621.79 2249.28,1409.37 2480.2,1632.3 "/>
    <polyline class="fil3 str0" points="3489.4,1618.85 3541.77,1674.04 3486.88,1728.63 3388.03,1621.79 3494.02,1517.48 3657.22,1678.99 3492.34,1837.99 3275.72,1621.79 3491.08,1409.37 3722,1632.3 "/>
    <polyline class="fil3 str0" points="4768.55,1618.85 4820.92,1674.04 4766.02,1728.63 4667.17,1621.79 4773.17,1517.48 4936.37,1678.99 4771.49,1837.99 4554.87,1621.79 4770.23,1409.37 5001.15,1632.3 "/>
    <polyline class="fil3 str0" points="6047.68,1618.85 6100.06,1674.04 6045.16,1728.63 5946.31,1621.79 6052.31,1517.48 6215.52,1678.99 6050.63,1837.99 5834,1621.79 6049.37,1409.37 6280.29,1632.3 "/>
    <polyline class="fil3 str0" points="7252.14,1618.85 7304.52,1674.04 7249.62,1728.63 7150.77,1621.79 7256.77,1517.48 7419.98,1678.99 7255.09,1837.99 7038.46,1621.79 7253.83,1409.37 7484.75,1632.3 "/>
    <polyline class="fil3 str0" points="8531.29,1618.85 8583.66,1674.04 8528.76,1728.63 8429.92,1621.79 8535.92,1517.48 8699.11,1678.99 8534.23,1837.99 8317.61,1621.79 8532.97,1409.37 8763.89,1632.3 "/>
    <polyline class="fil3 str0" points="9810.44,1618.85 9862.8,1674.04 9807.91,1728.63 9709.07,1621.79 9815.06,1517.48 9978.26,1678.99 9813.38,1837.99 9596.76,1621.79 9812.11,1409.37 10043.04,1632.3 "/>
    <polyline class="fil3 str0" points="10983.87,355.19 11036.25,410.38 10981.35,464.98 10882.5,358.13 10988.5,253.82 11151.71,415.34 10986.82,574.33 10770.19,358.13 10985.56,145.71 11216.48,368.65 "/>
    <polyline class="fil3 str0" points="10983.87,1618.85 11036.25,1674.04 10981.35,1728.63 10882.5,1621.79 10988.5,1517.48 11151.71,1678.99 10986.82,1837.99 10770.19,1621.79 10985.56,1409.37 11216.48,1632.3 "/>
    <polyline class="fil3 str0" points="10430.04,996.47 10482.41,1051.66 10427.52,1106.25 10328.67,999.41 10434.66,895.09 10597.86,1056.62 10432.98,1215.62 10216.36,999.41 10431.72,787 10662.64,1009.93 "/>
    <polyline class="fil3 str0" points="11400.5,996.47 11452.86,1051.66 11397.97,1106.25 11299.12,999.41 11405.12,895.09 11568.32,1056.62 11403.44,1215.62 11186.82,999.41 11402.17,787 11633.1,1009.93 "/>
    <polyline class="fil3 str0" points="9175.04,996.47 9227.42,1051.66 9172.53,1106.25 9073.67,999.41 9179.67,895.09 9342.88,1056.62 9177.99,1215.62 8961.37,999.41 9176.73,787 9407.65,1009.93 "/>
    <polyline class="fil3 str0" points="7920.05,996.47 7972.43,1051.66 7917.53,1106.25 7818.68,999.41 7924.68,895.09 8087.89,1056.62 7922.99,1215.62 7706.37,999.41 7921.74,787 8152.66,1009.93 "/>
    <polyline class="fil3 str0" points="6665.06,996.47 6717.43,1051.66 6662.54,1106.25 6563.69,999.41 6669.69,895.09 6832.89,1056.62 6668.01,1215.62 6451.38,999.41 6666.74,787 6897.66,1009.93 "/>
    <polyline class="fil3 str0" points="5410.07,996.47 5462.44,1051.66 5407.55,1106.25 5308.71,999.41 5414.7,895.09 5577.9,1056.62 5413.02,1215.62 5196.4,999.41 5411.75,787 5642.68,1009.93 "/>
    <polyline class="fil3 str0" points="4155.09,996.47 4207.46,1051.66 4152.56,1106.25 4053.71,999.41 4159.71,895.09 4322.91,1056.62 4158.03,1215.62 3941.41,999.41 4156.77,787 4387.69,1009.93 "/>
    <polyline class="fil3 str0" points="2900.09,996.47 2952.47,1051.66 2897.56,1106.25 2798.72,999.41 2904.72,895.09 3067.92,1056.62 2903.04,1215.62 2686.41,999.41 2901.78,787 3132.7,1009.93 "/>
    <polyline class="fil3 str0" points="1645.1,996.47 1697.47,1051.66 1642.57,1106.25 1543.73,999.41 1649.73,895.09 1812.92,1056.62 1648.04,1215.62 1431.42,999.41 1646.78,787 1877.7,1009.93 "/>
    <polyline class="fil3 str0" points="390.12,996.47 442.49,1051.66 387.6,1106.25 288.75,999.41 394.74,895.09 557.94,1056.62 393.06,1215.62 176.44,999.41 391.8,787 622.72,1009.93 "/>
   </g>
   <g>
    <path class="fil4" d="M641.24 83.18l0.19 0 -0.19 0zm10493.39 37.34l0 0c18.14,180.98 166.76,324.08 350.13,333.57 227.69,321.05 228.18,748.3 -0.14,1070.22 -183.31,9.57 -331.87,152.75 -349.99,333.84l-10495.25 0c-18.12,-181.08 -166.65,-324.25 -349.95,-333.84 -225.05,-322.25 -225.09,-747.75 0,-1070.23 183.29,-9.58 331.81,-152.65 349.95,-333.56l10495.25 0zm35.48 -37.34l0 0 -10566.21 0c0,184.64 -149.43,334.07 -334.07,334.07l-0.14 0.19c-247.86,340.96 -247.8,802.8 0.14,1143.71 184.64,0 334.07,149.7 334.07,334.35l10566.21 0c0,-184.64 149.43,-334.35 334.07,-334.35l8.31 -11.6c242.98,-339.33 239.62,-796.57 -8.31,-1132.3 -184.64,0 -334.07,-149.43 -334.07,-334.07z"/>
   </g>
  </g>
 </g>
</svg>
