<?xml version="1.0" encoding="UTF-8"?>
<!DOCTYPE svg PUBLIC "-//W3C//DTD SVG 1.1//EN" "http://www.w3.org/Graphics/SVG/1.1/DTD/svg11.dtd">
<!-- Creator: CorelDRAW -->
<svg xmlns="http://www.w3.org/2000/svg" xml:space="preserve" width="91.8311mm" height="20.4014mm" version="1.1" style="shape-rendering:geometricPrecision; text-rendering:geometricPrecision; image-rendering:optimizeQuality; fill-rule:evenodd; clip-rule:evenodd"
viewBox="0 0 20155.04 4477.69"
 xmlns:xlink="http://www.w3.org/1999/xlink"
 xmlns:xodm="http://www.corel.com/coreldraw/odm/2003">
 <defs>
  <style type="text/css">
   <![CDATA[
    .fil1 {fill:none;fill-rule:nonzero}
    .fil0 {fill:gray}
    .fil6 {fill:url(#id0);fill-rule:nonzero}
    .fil8 {fill:url(#id1);fill-rule:nonzero}
    .fil4 {fill:url(#id2);fill-rule:nonzero}
    .fil9 {fill:url(#id3);fill-rule:nonzero}
    .fil10 {fill:url(#id4);fill-rule:nonzero}
    .fil2 {fill:url(#id5);fill-rule:nonzero}
    .fil15 {fill:url(#id6);fill-rule:nonzero}
    .fil14 {fill:url(#id7);fill-rule:nonzero}
    .fil13 {fill:url(#id8);fill-rule:nonzero}
    .fil12 {fill:url(#id9);fill-rule:nonzero}
    .fil16 {fill:url(#id10);fill-rule:nonzero}
    .fil11 {fill:url(#id11);fill-rule:nonzero}
    .fil5 {fill:url(#id12);fill-rule:nonzero}
    .fil7 {fill:url(#id13);fill-rule:nonzero}
    .fil3 {fill:url(#id14);fill-rule:nonzero}
    .fil19 {fill:url(#id15);fill-rule:nonzero;fill-opacity:0.478431}
    .fil18 {fill:url(#id16);fill-rule:nonzero;fill-opacity:0.478431}
    .fil20 {fill:url(#id17);fill-rule:nonzero;fill-opacity:0.478431}
    .fil17 {fill:url(#id18);fill-rule:nonzero;fill-opacity:0.478431}
   ]]>
  </style>
  <linearGradient id="id0" gradientUnits="userSpaceOnUse" x1="19008.97" y1="2476.67" x2="18865.12" y2="2812.81">
   <stop offset="0" style="stop-opacity:1; stop-color:#FFFBE8"/>
   <stop offset="0.341176" style="stop-opacity:1; stop-color:#FFFBE8"/>
   <stop offset="0.909804" style="stop-opacity:1; stop-color:#F1F1EF"/>
   <stop offset="1" style="stop-opacity:1; stop-color:#F1F1EF"/>
  </linearGradient>
  <linearGradient id="id1" gradientUnits="userSpaceOnUse" xlink:href="#id0" x1="2635.58" y1="1502.71" x2="2597.17" y2="1592.48">
  </linearGradient>
  <linearGradient id="id2" gradientUnits="userSpaceOnUse" xlink:href="#id0" x1="329.13" y1="1233.56" x2="187.26" y2="1565.06">
  </linearGradient>
  <linearGradient id="id3" gradientUnits="userSpaceOnUse" xlink:href="#id0" x1="2078.12" y1="3104.65" x2="1971.72" y2="3353.3">
  </linearGradient>
  <linearGradient id="id4" gradientUnits="userSpaceOnUse" xlink:href="#id0" x1="6710.59" y1="3144.2" x2="6604.18" y2="3392.85">
  </linearGradient>
  <linearGradient id="id5" gradientUnits="userSpaceOnUse" xlink:href="#id0" x1="8005.73" y1="1596.19" x2="7934.8" y2="1761.94">
  </linearGradient>
  <linearGradient id="id6" gradientUnits="userSpaceOnUse" xlink:href="#id0" x1="16903.92" y1="2970.94" x2="16848.74" y2="3099.88">
  </linearGradient>
  <linearGradient id="id7" gradientUnits="userSpaceOnUse" xlink:href="#id0" x1="18123.56" y1="1367.12" x2="18028.99" y2="1588.13">
  </linearGradient>
  <linearGradient id="id8" gradientUnits="userSpaceOnUse" xlink:href="#id0" x1="14413.15" y1="2421.54" x2="14350.12" y2="2568.85">
  </linearGradient>
  <linearGradient id="id9" gradientUnits="userSpaceOnUse" xlink:href="#id0" x1="11751.33" y1="2908.26" x2="11664.63" y2="3110.86">
  </linearGradient>
  <linearGradient id="id10" gradientUnits="userSpaceOnUse" xlink:href="#id0" x1="17434.29" y1="2162.38" x2="17429.57" y2="2165.12">
  </linearGradient>
  <linearGradient id="id11" gradientUnits="userSpaceOnUse" xlink:href="#id0" x1="10046.45" y1="1194.54" x2="9947.93" y2="1424.75">
  </linearGradient>
  <linearGradient id="id12" gradientUnits="userSpaceOnUse" xlink:href="#id0" x1="14733.92" y1="933.75" x2="14592.05" y2="1265.23">
  </linearGradient>
  <linearGradient id="id13" gradientUnits="userSpaceOnUse" xlink:href="#id0" x1="181.16" y1="2950.31" x2="73.79" y2="3201.24">
  </linearGradient>
  <linearGradient id="id14" gradientUnits="userSpaceOnUse" xlink:href="#id0" x1="9635.19" y1="2498.86" x2="9496.29" y2="2823.43">
  </linearGradient>
  <linearGradient id="id15" gradientUnits="userSpaceOnUse" xlink:href="#id0" x1="16578.52" y1="698.71" x2="16240.53" y2="1488.52">
  </linearGradient>
  <linearGradient id="id16" gradientUnits="userSpaceOnUse" xlink:href="#id0" x1="15526.9" y1="3298.75" x2="15349.06" y2="3714.3">
  </linearGradient>
  <linearGradient id="id17" gradientUnits="userSpaceOnUse" xlink:href="#id0" x1="6506.21" y1="1133.86" x2="6134.75" y2="2001.87">
  </linearGradient>
  <linearGradient id="id18" gradientUnits="userSpaceOnUse" xlink:href="#id0" x1="12251.93" y1="826.92" x2="11686.43" y2="2148.35">
  </linearGradient>
 </defs>
 <rect class="fil0" x="-35568.74" y="-12803.15" width="61941.99" height="46456.5"/>
 <g id="__x0023_Layer_x0020_1">
  <metadata id="CorelCorpID_0Corel-Layer"/>
  <g id="_2743496297152">
   <line class="fil1" x1="20155.04" y1="0.04" x2="16982.16" y2= "0.04" />
   <g>
    <line class="fil1" x1="1305.57" y1="4477.65" x2="8244.4" y2= "4477.65" />
    <g>
     <path class="fil2" d="M8004.68 1737.22c0,32.77 -26.54,59.3 -59.3,59.3 -32.75,0 -59.3,-26.54 -59.3,-59.3 0,-32.75 26.56,-59.3 59.3,-59.3 32.77,0 59.3,26.56 59.3,59.3z"/>
     <path class="fil3" d="M9633.13 2775.08c0,64.13 -51.99,116.13 -116.13,116.13 -64.15,0 -116.15,-51.99 -116.15,-116.13 0,-64.15 51.99,-116.15 116.15,-116.15 64.13,0 116.13,51.99 116.13,116.15z"/>
     <path class="fil4" d="M327.02 1515.66c0,65.51 -53.11,118.61 -118.63,118.61 -65.49,0 -118.61,-53.09 -118.61,-118.61 0,-65.51 53.11,-118.61 118.61,-118.61 65.51,0 118.63,53.09 118.63,118.61z"/>
     <path class="fil5" d="M14731.82 1215.83c0,65.51 -53.09,118.61 -118.61,118.61 -65.51,0 -118.61,-53.09 -118.61,-118.61 0,-65.51 53.09,-118.61 118.61,-118.61 65.51,0 118.61,53.09 118.61,118.61z"/>
     <path class="fil6" d="M19006.81 2762.72c0,66.41 -53.86,120.25 -120.27,120.25 -66.41,0 -120.25,-53.84 -120.25,-120.25 0,-66.44 53.84,-120.27 120.25,-120.27 66.41,0 120.27,53.84 120.27,120.27z"/>
     <path class="fil7" d="M179.58 3163.84c0,49.6 -40.21,89.79 -89.79,89.79 -49.58,0 -89.79,-40.19 -89.79,-89.79 0,-49.58 40.21,-89.77 89.79,-89.77 49.58,0 89.79,40.19 89.79,89.77z"/>
     <path class="fil8" d="M2635.01 1579.09c0,17.73 -14.38,32.11 -32.11,32.11 -17.76,0 -32.13,-14.38 -32.13,-32.11 0,-17.76 14.38,-32.13 32.13,-32.13 17.73,0 32.11,14.38 32.11,32.13z"/>
     <path class="fil9" d="M2076.54 3316.23c0,49.14 -39.81,88.98 -88.96,88.98 -49.12,0 -88.96,-39.84 -88.96,-88.98 0,-49.12 39.84,-88.96 88.96,-88.96 49.14,0 88.96,39.84 88.96,88.96z"/>
     <path class="fil10" d="M6709.01 3355.78c0,49.12 -39.81,88.96 -88.96,88.96 -49.12,0 -88.96,-39.84 -88.96,-88.96 0,-49.14 39.84,-88.96 88.96,-88.96 49.14,0 88.96,39.81 88.96,88.96z"/>
     <path class="fil11" d="M10044.98 1390.45c0,45.5 -36.87,82.37 -82.37,82.37 -45.5,0 -82.37,-36.87 -82.37,-82.37 0,-45.48 36.87,-82.37 82.37,-82.37 45.5,0 82.37,36.89 82.37,82.37z"/>
     <path class="fil12" d="M11750.03 3080.66c0,40.03 -32.44,72.49 -72.47,72.49 -40.03,0 -72.49,-32.46 -72.49,-72.49 0,-40.03 32.46,-72.49 72.49,-72.49 40.03,0 72.47,32.46 72.47,72.49z"/>
     <path class="fil13" d="M14412.23 2546.91c0,29.1 -23.62,52.72 -52.72,52.72 -29.12,0 -52.72,-23.62 -52.72,-52.72 0,-29.12 23.59,-52.72 52.72,-52.72 29.1,0 52.72,23.59 52.72,52.72z"/>
     <path class="fil14" d="M18122.16 1555.19c0,43.68 -35.4,79.08 -79.08,79.08 -43.68,0 -79.08,-35.4 -79.08,-79.08 0,-43.68 35.4,-79.08 79.08,-79.08 43.68,0 79.08,35.4 79.08,79.08z"/>
     <path class="fil15" d="M16903.08 3080.66c0,25.48 -20.65,46.13 -46.11,46.13 -25.48,0 -46.13,-20.65 -46.13,-46.13 0,-25.48 20.65,-46.13 46.13,-46.13 25.46,0 46.11,20.65 46.11,46.13z"/>
     <path class="fil16" d="M17443.44 2164.73c0,0 -5.9,0 -13.19,0 -7.29,0 -13.17,0 -13.17,0 0,0 5.88,0 13.17,0 7.29,0 13.19,0 13.19,0z"/>
    </g>
    <g>
     <path class="fil17" d="M11423.86 1212.54l918.04 623.94c52.78,35.88 66.5,107.79 30.62,160.57 -35.88,52.81 -107.79,66.52 -160.57,30.64 -6.58,-4.48 -12.97,-9.96 -18.3,-15.45l-769.78 -799.7z"/>
     <path class="fil18" d="M15266.49 3420.02l288.68 196.21c16.59,11.28 20.92,33.89 9.64,50.48 -11.28,16.61 -33.91,20.92 -50.5,9.64 -2.06,-1.4 -4.08,-3.14 -5.75,-4.85l-242.06 -251.48z"/>
     <path class="fil19" d="M16083.59 929.19l548.72 372.94c31.56,21.44 39.75,64.42 18.3,95.96 -21.44,31.56 -64.42,39.77 -95.98,18.3 -3.93,-2.66 -7.75,-5.95 -10.93,-9.22l-460.12 -477.98z"/>
     <path class="fil20" d="M5962.27 1387.15l603.04 409.86c34.68,23.57 43.68,70.8 20.1,105.48 -23.57,34.68 -70.78,43.68 -105.46,20.1 -4.32,-2.92 -8.52,-6.54 -12.03,-10.14l-505.66 -525.3z"/>
    </g>
   </g>
  </g>
 </g>
</svg>
