<?xml version="1.0" encoding="UTF-8"?>
<!DOCTYPE svg PUBLIC "-//W3C//DTD SVG 1.1//EN" "http://www.w3.org/Graphics/SVG/1.1/DTD/svg11.dtd">
<!-- Creator: CorelDRAW -->
<svg xmlns="http://www.w3.org/2000/svg" xml:space="preserve" width="638.92mm" height="122.233mm" version="1.1" style="shape-rendering:geometricPrecision; text-rendering:geometricPrecision; image-rendering:optimizeQuality; fill-rule:evenodd; clip-rule:evenodd"
viewBox="0 0 217529.92 41615.98"
 xmlns:xlink="http://www.w3.org/1999/xlink"
 xmlns:xodm="http://www.corel.com/coreldraw/odm/2003">
 <defs>
  <style type="text/css">
   <![CDATA[
    .fil0 {fill:#ED5AA2}
   ]]>
  </style>
 </defs>
 <g id="Layer_x0020_1">
  <metadata id="CorelCorpID_0Corel-Layer"/>
  <g id="_2619945479296">
   <g>
    <path class="fil0" d="M5709.7 6293.67l-579.27 599.32c-135.85,-157.23 -237.95,-292.77 -389.83,-428.88 -223.58,-200.43 -946.53,-1070.39 -1190.74,-1256.83 80.93,-185.76 278.13,-317.89 414.86,-451.59l1278.99 -1292.13c46.88,24.21 2929.81,2761.41 3015.06,2956.84l-3009.68 2893.82 -4176.59 -4157.79c130.7,-196.01 4060.69,-4018.51 4134.37,-4090.11 146.5,68.33 510.66,431.74 635.31,579.68l3443.98 3314.09c246.43,228.11 709.39,855.35 1074.54,849.39 376.66,-6.13 521.9,-432.39 313.19,-716.78 -119.4,-162.67 -458.91,-443.32 -625.88,-599.49l-1576.05 -1507.68c-115.42,-108.51 -188.65,-218.44 -305.02,-327.02l-2515.29 -2426.36c-261,-243.64 -488.33,-349.73 -807.75,-45.86l-4365.44 4293.27c-796.31,778.03 -627.1,709.43 722.5,2061.18 840.1,841.46 1655.58,1646.42 2496.39,2487.3 1723.95,1724.08 1291.25,1732.66 2672.62,455.58l614.27 -609.91c220.18,-205.27 420.85,-381.32 635.85,-589.89l613.79 -610.15c215.14,-200.23 460.31,-396.3 647.05,-620.36 150.83,-180.99 525.61,-380.54 444,-736.26 -59.65,-259.95 -1466.72,-1481.23 -1824.79,-1894.38l-1836.88 -1837.66c-374.27,-345.2 -545.66,-198.59 -829.07,83.72l-1860.98 1813.73c-871.42,853.58 -500.04,718.35 680.96,2096.96 114.4,133.53 141.4,161.14 290.31,300.32l612.16 654.27c327.46,350.37 456.73,736.56 1117.85,72.04 355.58,-357.39 1139.95,-991.95 1094.66,-1349.26 -31.83,-251.5 -645.39,-812.01 -851.37,-1011.11 -226.44,-218.95 -411.66,-552.81 -680.42,-587.1 -362.15,-46.17 -835.81,369.64 -132.03,976.35 182.59,157.43 440.19,464.36 604.36,658.77z"/>
    <path class="fil0" d="M28683.07 6293.67l-579.27 599.32c-135.85,-157.23 -237.95,-292.77 -389.83,-428.88 -223.58,-200.43 -946.53,-1070.39 -1190.74,-1256.83 80.93,-185.76 278.13,-317.89 414.86,-451.59l1278.99 -1292.13c46.88,24.21 2929.81,2761.41 3015.06,2956.84l-3009.68 2893.82 -4176.59 -4157.79c130.7,-196.01 4060.69,-4018.51 4134.37,-4090.11 146.5,68.33 510.66,431.74 635.31,579.68l3443.98 3314.09c246.43,228.11 709.39,855.35 1074.54,849.39 376.66,-6.13 521.9,-432.39 313.19,-716.78 -119.4,-162.67 -458.91,-443.32 -625.88,-599.49l-1576.05 -1507.68c-115.42,-108.51 -188.65,-218.44 -305.02,-327.02l-2515.29 -2426.36c-261,-243.64 -488.33,-349.73 -807.75,-45.86l-4365.44 4293.27c-796.31,778.03 -627.1,709.43 722.5,2061.18 840.1,841.46 1655.58,1646.42 2496.39,2487.3 1723.95,1724.08 1291.25,1732.66 2672.62,455.58l614.27 -609.91c220.18,-205.27 420.85,-381.32 635.85,-589.89l613.79 -610.15c215.14,-200.23 460.31,-396.3 647.05,-620.36 150.83,-180.99 525.61,-380.54 444,-736.26 -59.65,-259.95 -1466.72,-1481.23 -1824.79,-1894.38l-1836.88 -1837.66c-374.27,-345.2 -545.66,-198.59 -829.07,83.72l-1860.98 1813.73c-871.42,853.58 -500.04,718.35 680.96,2096.96 114.4,133.53 141.4,161.14 290.31,300.32l612.16 654.27c327.46,350.37 456.73,736.56 1117.85,72.04 355.58,-357.39 1139.95,-991.95 1094.66,-1349.26 -31.83,-251.5 -645.39,-812.01 -851.37,-1011.11 -226.44,-218.95 -411.66,-552.81 -680.42,-587.1 -362.15,-46.17 -835.81,369.64 -132.03,976.35 182.59,157.43 440.19,464.36 604.36,658.77z"/>
    <path class="fil0" d="M51656.43 6293.67l-579.27 599.32c-135.85,-157.23 -237.95,-292.77 -389.83,-428.88 -223.58,-200.43 -946.53,-1070.39 -1190.74,-1256.83 80.93,-185.76 278.13,-317.89 414.86,-451.59l1278.99 -1292.13c46.88,24.21 2929.81,2761.41 3015.06,2956.84l-3009.68 2893.82 -4176.59 -4157.79c130.7,-196.01 4060.69,-4018.51 4134.37,-4090.11 146.5,68.33 510.66,431.74 635.31,579.68l3443.98 3314.09c246.43,228.11 709.39,855.35 1074.54,849.39 376.66,-6.13 521.9,-432.39 313.19,-716.78 -119.4,-162.67 -458.91,-443.32 -625.88,-599.49l-1576.05 -1507.68c-115.42,-108.51 -188.65,-218.44 -305.02,-327.02l-2515.29 -2426.36c-261,-243.64 -488.33,-349.73 -807.75,-45.86l-4365.44 4293.27c-796.31,778.03 -627.1,709.43 722.5,2061.18 840.1,841.46 1655.58,1646.42 2496.39,2487.3 1723.95,1724.08 1291.25,1732.66 2672.62,455.58l614.27 -609.91c220.18,-205.27 420.85,-381.32 635.85,-589.89l613.79 -610.15c215.14,-200.23 460.31,-396.3 647.05,-620.36 150.83,-180.99 525.61,-380.54 444,-736.26 -59.65,-259.95 -1466.72,-1481.23 -1824.79,-1894.38l-1836.88 -1837.66c-374.27,-345.2 -545.66,-198.59 -829.07,83.72l-1860.98 1813.73c-871.42,853.58 -500.04,718.35 680.96,2096.96 114.4,133.53 141.4,161.14 290.31,300.32l612.16 654.27c327.46,350.37 456.73,736.56 1117.85,72.04 355.58,-357.39 1139.95,-991.95 1094.66,-1349.26 -31.83,-251.5 -645.39,-812.01 -851.37,-1011.11 -226.44,-218.95 -411.66,-552.81 -680.42,-587.1 -362.15,-46.17 -835.81,369.64 -132.03,976.35 182.59,157.43 440.19,464.36 604.36,658.77z"/>
    <path class="fil0" d="M74629.8 6293.67l-579.27 599.32c-135.85,-157.23 -237.95,-292.77 -389.83,-428.88 -223.58,-200.43 -946.53,-1070.39 -1190.74,-1256.83 80.93,-185.76 278.13,-317.89 414.86,-451.59l1278.99 -1292.13c46.88,24.21 2929.81,2761.41 3015.06,2956.84l-3009.68 2893.82 -4176.59 -4157.79c130.7,-196.01 4060.69,-4018.51 4134.37,-4090.11 146.5,68.33 510.66,431.74 635.31,579.68l3443.98 3314.09c246.43,228.11 709.39,855.35 1074.54,849.39 376.66,-6.13 521.9,-432.39 313.19,-716.78 -119.4,-162.67 -458.91,-443.32 -625.88,-599.49l-1576.05 -1507.68c-115.42,-108.51 -188.65,-218.44 -305.02,-327.02l-2515.29 -2426.36c-261,-243.64 -488.33,-349.73 -807.75,-45.86l-4365.44 4293.27c-796.31,778.03 -627.1,709.43 722.5,2061.18 840.1,841.46 1655.58,1646.42 2496.39,2487.3 1723.95,1724.08 1291.25,1732.66 2672.62,455.58l614.27 -609.91c220.18,-205.27 420.85,-381.32 635.85,-589.89l613.79 -610.15c215.14,-200.23 460.31,-396.3 647.05,-620.36 150.83,-180.99 525.61,-380.54 444,-736.26 -59.65,-259.95 -1466.72,-1481.23 -1824.79,-1894.38l-1836.88 -1837.66c-374.27,-345.2 -545.66,-198.59 -829.07,83.72l-1860.98 1813.73c-871.42,853.58 -500.04,718.35 680.96,2096.96 114.4,133.53 141.4,161.14 290.31,300.32l612.16 654.27c327.46,350.37 456.73,736.56 1117.85,72.04 355.58,-357.39 1139.95,-991.95 1094.66,-1349.26 -31.83,-251.5 -645.39,-812.01 -851.37,-1011.11 -226.44,-218.95 -411.66,-552.81 -680.42,-587.1 -362.15,-46.17 -835.81,369.64 -132.03,976.35 182.59,157.43 440.19,464.36 604.36,658.77z"/>
    <path class="fil0" d="M97603.16 6293.67l-579.27 599.32c-135.85,-157.23 -237.95,-292.77 -389.83,-428.88 -223.58,-200.43 -946.53,-1070.39 -1190.74,-1256.83 80.93,-185.76 278.13,-317.89 414.86,-451.59l1278.99 -1292.13c46.88,24.21 2929.81,2761.41 3015.06,2956.84l-3009.68 2893.82 -4176.59 -4157.79c130.7,-196.01 4060.69,-4018.51 4134.37,-4090.11 146.5,68.33 510.66,431.74 635.31,579.68l3443.98 3314.09c246.43,228.11 709.39,855.35 1074.54,849.39 376.66,-6.13 521.9,-432.39 313.19,-716.78 -119.4,-162.67 -458.91,-443.32 -625.88,-599.49l-1576.05 -1507.68c-115.42,-108.51 -188.65,-218.44 -305.02,-327.02l-2515.29 -2426.36c-261,-243.64 -488.33,-349.73 -807.75,-45.86l-4365.44 4293.27c-796.31,778.03 -627.1,709.43 722.5,2061.18 840.1,841.46 1655.58,1646.42 2496.39,2487.3 1723.95,1724.08 1291.25,1732.66 2672.62,455.58l614.27 -609.91c220.18,-205.27 420.85,-381.32 635.85,-589.89l613.79 -610.15c215.14,-200.23 460.31,-396.3 647.05,-620.36 150.83,-180.99 525.61,-380.54 444,-736.26 -59.65,-259.95 -1466.72,-1481.23 -1824.79,-1894.38l-1836.88 -1837.66c-374.27,-345.2 -545.66,-198.59 -829.07,83.72l-1860.98 1813.73c-871.42,853.58 -500.04,718.35 680.96,2096.96 114.4,133.53 141.4,161.14 290.31,300.32l612.16 654.27c327.46,350.37 456.73,736.56 1117.85,72.04 355.58,-357.39 1139.95,-991.95 1094.66,-1349.26 -31.83,-251.5 -645.39,-812.01 -851.37,-1011.11 -226.44,-218.95 -411.66,-552.81 -680.42,-587.1 -362.15,-46.17 -835.81,369.64 -132.03,976.35 182.59,157.43 440.19,464.36 604.36,658.77z"/>
    <path class="fil0" d="M120576.53 6293.67l-579.27 599.32c-135.85,-157.23 -237.95,-292.77 -389.83,-428.88 -223.58,-200.43 -946.53,-1070.39 -1190.74,-1256.83 80.93,-185.76 278.13,-317.89 414.86,-451.59l1278.99 -1292.13c46.88,24.21 2929.81,2761.41 3015.06,2956.84l-3009.68 2893.82 -4176.59 -4157.79c130.7,-196.01 4060.69,-4018.51 4134.37,-4090.11 146.5,68.33 510.66,431.74 635.31,579.68l3443.98 3314.09c246.43,228.11 709.39,855.35 1074.54,849.39 376.66,-6.13 521.9,-432.39 313.19,-716.78 -119.4,-162.67 -458.91,-443.32 -625.88,-599.49l-1576.05 -1507.68c-115.42,-108.51 -188.65,-218.44 -305.02,-327.02l-2515.29 -2426.36c-261,-243.64 -488.33,-349.73 -807.75,-45.86l-4365.44 4293.27c-796.31,778.03 -627.1,709.43 722.5,2061.18 840.1,841.46 1655.58,1646.42 2496.39,2487.3 1723.95,1724.08 1291.25,1732.66 2672.62,455.58l614.27 -609.91c220.18,-205.27 420.85,-381.32 635.85,-589.89l613.79 -610.15c215.14,-200.23 460.31,-396.3 647.05,-620.36 150.83,-180.99 525.61,-380.54 444,-736.26 -59.65,-259.95 -1466.72,-1481.23 -1824.79,-1894.38l-1836.88 -1837.66c-374.27,-345.2 -545.66,-198.59 -829.07,83.72l-1860.98 1813.73c-871.42,853.58 -500.04,718.35 680.96,2096.96 114.4,133.53 141.4,161.14 290.31,300.32l612.16 654.27c327.46,350.37 456.73,736.56 1117.85,72.04 355.58,-357.39 1139.95,-991.95 1094.66,-1349.26 -31.83,-251.5 -645.39,-812.01 -851.37,-1011.11 -226.44,-218.95 -411.66,-552.81 -680.42,-587.1 -362.15,-46.17 -835.81,369.64 -132.03,976.35 182.59,157.43 440.19,464.36 604.36,658.77z"/>
    <path class="fil0" d="M143549.9 6293.67l-579.27 599.32c-135.85,-157.23 -237.95,-292.77 -389.83,-428.88 -223.58,-200.43 -946.53,-1070.39 -1190.74,-1256.83 80.93,-185.76 278.13,-317.89 414.86,-451.59l1278.99 -1292.13c46.88,24.21 2929.81,2761.41 3015.06,2956.84l-3009.68 2893.82 -4176.59 -4157.79c130.7,-196.01 4060.69,-4018.51 4134.37,-4090.11 146.5,68.33 510.66,431.74 635.31,579.68l3443.98 3314.09c246.43,228.11 709.39,855.35 1074.54,849.39 376.66,-6.13 521.9,-432.39 313.19,-716.78 -119.4,-162.67 -458.91,-443.32 -625.88,-599.49l-1576.05 -1507.68c-115.42,-108.51 -188.65,-218.44 -305.02,-327.02l-2515.29 -2426.36c-261,-243.64 -488.33,-349.73 -807.75,-45.86l-4365.44 4293.27c-796.31,778.03 -627.1,709.43 722.5,2061.18 840.1,841.46 1655.58,1646.42 2496.39,2487.3 1723.95,1724.08 1291.25,1732.66 2672.62,455.58l614.27 -609.91c220.18,-205.27 420.85,-381.32 635.85,-589.89l613.79 -610.15c215.14,-200.23 460.31,-396.3 647.05,-620.36 150.83,-180.99 525.61,-380.54 444,-736.26 -59.65,-259.95 -1466.72,-1481.23 -1824.79,-1894.38l-1836.88 -1837.66c-374.27,-345.2 -545.66,-198.59 -829.07,83.72l-1860.98 1813.73c-871.42,853.58 -500.04,718.35 680.96,2096.96 114.4,133.53 141.4,161.14 290.31,300.32l612.16 654.27c327.46,350.37 456.73,736.56 1117.85,72.04 355.58,-357.39 1139.95,-991.95 1094.66,-1349.26 -31.83,-251.5 -645.39,-812.01 -851.37,-1011.11 -226.44,-218.95 -411.66,-552.81 -680.42,-587.1 -362.15,-46.17 -835.81,369.64 -132.03,976.35 182.59,157.43 440.19,464.36 604.36,658.77z"/>
    <path class="fil0" d="M166523.26 6293.67l-579.27 599.32c-135.85,-157.23 -237.95,-292.77 -389.83,-428.88 -223.58,-200.43 -946.53,-1070.39 -1190.74,-1256.83 80.93,-185.76 278.13,-317.89 414.86,-451.59l1278.99 -1292.13c46.88,24.21 2929.81,2761.41 3015.06,2956.84l-3009.68 2893.82 -4176.59 -4157.79c130.7,-196.01 4060.69,-4018.51 4134.37,-4090.11 146.5,68.33 510.66,431.74 635.31,579.68l3443.98 3314.09c246.43,228.11 709.39,855.35 1074.54,849.39 376.66,-6.13 521.9,-432.39 313.19,-716.78 -119.4,-162.67 -458.91,-443.32 -625.88,-599.49l-1576.05 -1507.68c-115.42,-108.51 -188.65,-218.44 -305.02,-327.02l-2515.29 -2426.36c-261,-243.64 -488.33,-349.73 -807.75,-45.86l-4365.44 4293.27c-796.31,778.03 -627.1,709.43 722.5,2061.18 840.1,841.46 1655.58,1646.42 2496.39,2487.3 1723.95,1724.08 1291.25,1732.66 2672.62,455.58l614.27 -609.91c220.18,-205.27 420.85,-381.32 635.85,-589.89l613.79 -610.15c215.14,-200.23 460.31,-396.3 647.05,-620.36 150.83,-180.99 525.61,-380.54 444,-736.26 -59.65,-259.95 -1466.72,-1481.23 -1824.79,-1894.38l-1836.88 -1837.66c-374.27,-345.2 -545.66,-198.59 -829.07,83.72l-1860.98 1813.73c-871.42,853.58 -500.04,718.35 680.96,2096.96 114.4,133.53 141.4,161.14 290.31,300.32l612.16 654.27c327.46,350.37 456.73,736.56 1117.85,72.04 355.58,-357.39 1139.95,-991.95 1094.66,-1349.26 -31.83,-251.5 -645.39,-812.01 -851.37,-1011.11 -226.44,-218.95 -411.66,-552.81 -680.42,-587.1 -362.15,-46.17 -835.81,369.64 -132.03,976.35 182.59,157.43 440.19,464.36 604.36,658.77z"/>
    <path class="fil0" d="M189496.63 6293.67l-579.27 599.32c-135.85,-157.23 -237.95,-292.77 -389.83,-428.88 -223.58,-200.43 -946.53,-1070.39 -1190.74,-1256.83 80.93,-185.76 278.13,-317.89 414.86,-451.59l1278.99 -1292.13c46.88,24.21 2929.81,2761.41 3015.06,2956.84l-3009.68 2893.82 -4176.59 -4157.79c130.7,-196.01 4060.69,-4018.51 4134.37,-4090.11 146.5,68.33 510.66,431.74 635.31,579.68l3443.98 3314.09c246.43,228.11 709.39,855.35 1074.54,849.39 376.66,-6.13 521.9,-432.39 313.19,-716.78 -119.4,-162.67 -458.91,-443.32 -625.88,-599.49l-1576.05 -1507.68c-115.42,-108.51 -188.65,-218.44 -305.02,-327.02l-2515.29 -2426.36c-261,-243.64 -488.33,-349.73 -807.75,-45.86l-4365.44 4293.27c-796.31,778.03 -627.1,709.43 722.5,2061.18 840.1,841.46 1655.58,1646.42 2496.39,2487.3 1723.95,1724.08 1291.25,1732.66 2672.62,455.58l614.27 -609.91c220.18,-205.27 420.85,-381.32 635.85,-589.89l613.79 -610.15c215.14,-200.23 460.31,-396.3 647.05,-620.36 150.83,-180.99 525.61,-380.54 444,-736.26 -59.65,-259.95 -1466.72,-1481.23 -1824.79,-1894.38l-1836.88 -1837.66c-374.27,-345.2 -545.66,-198.59 -829.07,83.72l-1860.98 1813.73c-871.42,853.58 -500.04,718.35 680.96,2096.96 114.4,133.53 141.4,161.14 290.31,300.32l612.16 654.27c327.46,350.37 456.73,736.56 1117.85,72.04 355.58,-357.39 1139.95,-991.95 1094.66,-1349.26 -31.83,-251.5 -645.39,-812.01 -851.37,-1011.11 -226.44,-218.95 -411.66,-552.81 -680.42,-587.1 -362.15,-46.17 -835.81,369.64 -132.03,976.35 182.59,157.43 440.19,464.36 604.36,658.77z"/>
    <path class="fil0" d="M212469.99 6293.67l-579.27 599.32c-135.85,-157.23 -237.95,-292.77 -389.83,-428.88 -223.58,-200.43 -946.53,-1070.39 -1190.74,-1256.83 80.93,-185.76 278.13,-317.89 414.86,-451.59l1278.99 -1292.13c46.88,24.21 2929.81,2761.41 3015.06,2956.84l-3009.68 2893.82 -4176.59 -4157.79c130.7,-196.01 4060.69,-4018.51 4134.37,-4090.11 146.5,68.33 510.66,431.74 635.31,579.68l3443.98 3314.09c246.43,228.11 709.39,855.35 1074.54,849.39 376.66,-6.13 521.9,-432.39 313.19,-716.78 -119.4,-162.67 -458.91,-443.32 -625.88,-599.49l-1576.05 -1507.68c-115.42,-108.51 -188.65,-218.44 -305.02,-327.02l-2515.29 -2426.36c-261,-243.64 -488.33,-349.73 -807.75,-45.86l-4365.44 4293.27c-796.31,778.03 -627.1,709.43 722.5,2061.18 840.1,841.46 1655.58,1646.42 2496.39,2487.3 1723.95,1724.08 1291.25,1732.66 2672.62,455.58l614.27 -609.91c220.18,-205.27 420.85,-381.32 635.85,-589.89l613.79 -610.15c215.14,-200.23 460.31,-396.3 647.05,-620.36 150.83,-180.99 525.61,-380.54 444,-736.26 -59.65,-259.95 -1466.72,-1481.23 -1824.79,-1894.38l-1836.88 -1837.66c-374.27,-345.2 -545.66,-198.59 -829.07,83.72l-1860.98 1813.73c-871.42,853.58 -500.04,718.35 680.96,2096.96 114.4,133.53 141.4,161.14 290.31,300.32l612.16 654.27c327.46,350.37 456.73,736.56 1117.85,72.04 355.58,-357.39 1139.95,-991.95 1094.66,-1349.26 -31.83,-251.5 -645.39,-812.01 -851.37,-1011.11 -226.44,-218.95 -411.66,-552.81 -680.42,-587.1 -362.15,-46.17 -835.81,369.64 -132.03,976.35 182.59,157.43 440.19,464.36 604.36,658.77z"/>
   </g>
   <path class="fil0" d="M5709.7 37521.65l-579.27 599.32c-135.85,-157.23 -237.95,-292.77 -389.83,-428.88 -223.58,-200.43 -946.53,-1070.39 -1190.74,-1256.83 80.93,-185.76 278.13,-317.89 414.86,-451.59l1278.99 -1292.13c46.88,24.21 2929.81,2761.41 3015.06,2956.84l-3009.68 2893.82 -4176.59 -4157.79c130.7,-196.01 4060.69,-4018.51 4134.37,-4090.11 146.5,68.33 510.66,431.74 635.31,579.68l3443.98 3314.09c246.43,228.11 709.39,855.35 1074.54,849.39 376.66,-6.13 521.9,-432.39 313.19,-716.78 -119.4,-162.67 -458.91,-443.32 -625.88,-599.49l-1576.05 -1507.68c-115.42,-108.51 -188.65,-218.44 -305.02,-327.02l-2515.29 -2426.36c-261,-243.64 -488.33,-349.73 -807.75,-45.86l-4365.44 4293.27c-796.31,778.03 -627.1,709.43 722.5,2061.18 840.1,841.46 1655.58,1646.42 2496.39,2487.3 1723.95,1724.08 1291.25,1732.66 2672.62,455.58l614.27 -609.91c220.18,-205.27 420.85,-381.32 635.85,-589.89l613.79 -610.15c215.14,-200.23 460.31,-396.3 647.05,-620.36 150.83,-180.99 525.61,-380.54 444,-736.26 -59.65,-259.95 -1466.72,-1481.23 -1824.79,-1894.38l-1836.88 -1837.66c-374.27,-345.2 -545.66,-198.59 -829.07,83.72l-1860.98 1813.73c-871.42,853.58 -500.04,718.35 680.96,2096.96 114.4,133.53 141.4,161.14 290.31,300.32l612.16 654.27c327.46,350.37 456.73,736.56 1117.85,72.04 355.58,-357.39 1139.95,-991.95 1094.66,-1349.26 -31.83,-251.5 -645.39,-812.01 -851.37,-1011.11 -226.44,-218.95 -411.66,-552.81 -680.42,-587.1 -362.15,-46.17 -835.81,369.64 -132.03,976.35 182.59,157.43 440.19,464.36 604.36,658.77z"/>
   <path class="fil0" d="M28683.07 37521.65l-579.27 599.32c-135.85,-157.23 -237.95,-292.77 -389.83,-428.88 -223.58,-200.43 -946.53,-1070.39 -1190.74,-1256.83 80.93,-185.76 278.13,-317.89 414.86,-451.59l1278.99 -1292.13c46.88,24.21 2929.81,2761.41 3015.06,2956.84l-3009.68 2893.82 -4176.59 -4157.79c130.7,-196.01 4060.69,-4018.51 4134.37,-4090.11 146.5,68.33 510.66,431.74 635.31,579.68l3443.98 3314.09c246.43,228.11 709.39,855.35 1074.54,849.39 376.66,-6.13 521.9,-432.39 313.19,-716.78 -119.4,-162.67 -458.91,-443.32 -625.88,-599.49l-1576.05 -1507.68c-115.42,-108.51 -188.65,-218.44 -305.02,-327.02l-2515.29 -2426.36c-261,-243.64 -488.33,-349.73 -807.75,-45.86l-4365.44 4293.27c-796.31,778.03 -627.1,709.43 722.5,2061.18 840.1,841.46 1655.58,1646.42 2496.39,2487.3 1723.95,1724.08 1291.25,1732.66 2672.62,455.58l614.27 -609.91c220.18,-205.27 420.85,-381.32 635.85,-589.89l613.79 -610.15c215.14,-200.23 460.31,-396.3 647.05,-620.36 150.83,-180.99 525.61,-380.54 444,-736.26 -59.65,-259.95 -1466.72,-1481.23 -1824.79,-1894.38l-1836.88 -1837.66c-374.27,-345.2 -545.66,-198.59 -829.07,83.72l-1860.98 1813.73c-871.42,853.58 -500.04,718.35 680.96,2096.96 114.4,133.53 141.4,161.14 290.31,300.32l612.16 654.27c327.46,350.37 456.73,736.56 1117.85,72.04 355.58,-357.39 1139.95,-991.95 1094.66,-1349.26 -31.83,-251.5 -645.39,-812.01 -851.37,-1011.11 -226.44,-218.95 -411.66,-552.81 -680.42,-587.1 -362.15,-46.17 -835.81,369.64 -132.03,976.35 182.59,157.43 440.19,464.36 604.36,658.77z"/>
   <path class="fil0" d="M51656.43 37521.65l-579.27 599.32c-135.85,-157.23 -237.95,-292.77 -389.83,-428.88 -223.58,-200.43 -946.53,-1070.39 -1190.74,-1256.83 80.93,-185.76 278.13,-317.89 414.86,-451.59l1278.99 -1292.13c46.88,24.21 2929.81,2761.41 3015.06,2956.84l-3009.68 2893.82 -4176.59 -4157.79c130.7,-196.01 4060.69,-4018.51 4134.37,-4090.11 146.5,68.33 510.66,431.74 635.31,579.68l3443.98 3314.09c246.43,228.11 709.39,855.35 1074.54,849.39 376.66,-6.13 521.9,-432.39 313.19,-716.78 -119.4,-162.67 -458.91,-443.32 -625.88,-599.49l-1576.05 -1507.68c-115.42,-108.51 -188.65,-218.44 -305.02,-327.02l-2515.29 -2426.36c-261,-243.64 -488.33,-349.73 -807.75,-45.86l-4365.44 4293.27c-796.31,778.03 -627.1,709.43 722.5,2061.18 840.1,841.46 1655.58,1646.42 2496.39,2487.3 1723.95,1724.08 1291.25,1732.66 2672.62,455.58l614.27 -609.91c220.18,-205.27 420.85,-381.32 635.85,-589.89l613.79 -610.15c215.14,-200.23 460.31,-396.3 647.05,-620.36 150.83,-180.99 525.61,-380.54 444,-736.26 -59.65,-259.95 -1466.72,-1481.23 -1824.79,-1894.38l-1836.88 -1837.66c-374.27,-345.2 -545.66,-198.59 -829.07,83.72l-1860.98 1813.73c-871.42,853.58 -500.04,718.35 680.96,2096.96 114.4,133.53 141.4,161.14 290.31,300.32l612.16 654.27c327.46,350.37 456.73,736.56 1117.85,72.04 355.58,-357.39 1139.95,-991.95 1094.66,-1349.26 -31.83,-251.5 -645.39,-812.01 -851.37,-1011.11 -226.44,-218.95 -411.66,-552.81 -680.42,-587.1 -362.15,-46.17 -835.81,369.64 -132.03,976.35 182.59,157.43 440.19,464.36 604.36,658.77z"/>
   <path class="fil0" d="M74629.8 37521.65l-579.27 599.32c-135.85,-157.23 -237.95,-292.77 -389.83,-428.88 -223.58,-200.43 -946.53,-1070.39 -1190.74,-1256.83 80.93,-185.76 278.13,-317.89 414.86,-451.59l1278.99 -1292.13c46.88,24.21 2929.81,2761.41 3015.06,2956.84l-3009.68 2893.82 -4176.59 -4157.79c130.7,-196.01 4060.69,-4018.51 4134.37,-4090.11 146.5,68.33 510.66,431.74 635.31,579.68l3443.98 3314.09c246.43,228.11 709.39,855.35 1074.54,849.39 376.66,-6.13 521.9,-432.39 313.19,-716.78 -119.4,-162.67 -458.91,-443.32 -625.88,-599.49l-1576.05 -1507.68c-115.42,-108.51 -188.65,-218.44 -305.02,-327.02l-2515.29 -2426.36c-261,-243.64 -488.33,-349.73 -807.75,-45.86l-4365.44 4293.27c-796.31,778.03 -627.1,709.43 722.5,2061.18 840.1,841.46 1655.58,1646.42 2496.39,2487.3 1723.95,1724.08 1291.25,1732.66 2672.62,455.58l614.27 -609.91c220.18,-205.27 420.85,-381.32 635.85,-589.89l613.79 -610.15c215.14,-200.23 460.31,-396.3 647.05,-620.36 150.83,-180.99 525.61,-380.54 444,-736.26 -59.65,-259.95 -1466.72,-1481.23 -1824.79,-1894.38l-1836.88 -1837.66c-374.27,-345.2 -545.66,-198.59 -829.07,83.72l-1860.98 1813.73c-871.42,853.58 -500.04,718.35 680.96,2096.96 114.4,133.53 141.4,161.14 290.31,300.32l612.16 654.27c327.46,350.37 456.73,736.56 1117.85,72.04 355.58,-357.39 1139.95,-991.95 1094.66,-1349.26 -31.83,-251.5 -645.39,-812.01 -851.37,-1011.11 -226.44,-218.95 -411.66,-552.81 -680.42,-587.1 -362.15,-46.17 -835.81,369.64 -132.03,976.35 182.59,157.43 440.19,464.36 604.36,658.77z"/>
   <path class="fil0" d="M97603.16 37521.65l-579.27 599.32c-135.85,-157.23 -237.95,-292.77 -389.83,-428.88 -223.58,-200.43 -946.53,-1070.39 -1190.74,-1256.83 80.93,-185.76 278.13,-317.89 414.86,-451.59l1278.99 -1292.13c46.88,24.21 2929.81,2761.41 3015.06,2956.84l-3009.68 2893.82 -4176.59 -4157.79c130.7,-196.01 4060.69,-4018.51 4134.37,-4090.11 146.5,68.33 510.66,431.74 635.31,579.68l3443.98 3314.09c246.43,228.11 709.39,855.35 1074.54,849.39 376.66,-6.13 521.9,-432.39 313.19,-716.78 -119.4,-162.67 -458.91,-443.32 -625.88,-599.49l-1576.05 -1507.68c-115.42,-108.51 -188.65,-218.44 -305.02,-327.02l-2515.29 -2426.36c-261,-243.64 -488.33,-349.73 -807.75,-45.86l-4365.44 4293.27c-796.31,778.03 -627.1,709.43 722.5,2061.18 840.1,841.46 1655.58,1646.42 2496.39,2487.3 1723.95,1724.08 1291.25,1732.66 2672.62,455.58l614.27 -609.91c220.18,-205.27 420.85,-381.32 635.85,-589.89l613.79 -610.15c215.14,-200.23 460.31,-396.3 647.05,-620.36 150.83,-180.99 525.61,-380.54 444,-736.26 -59.65,-259.95 -1466.72,-1481.23 -1824.79,-1894.38l-1836.88 -1837.66c-374.27,-345.2 -545.66,-198.59 -829.07,83.72l-1860.98 1813.73c-871.42,853.58 -500.04,718.35 680.96,2096.96 114.4,133.53 141.4,161.14 290.31,300.32l612.16 654.27c327.46,350.37 456.73,736.56 1117.85,72.04 355.58,-357.39 1139.95,-991.95 1094.66,-1349.26 -31.83,-251.5 -645.39,-812.01 -851.37,-1011.11 -226.44,-218.95 -411.66,-552.81 -680.42,-587.1 -362.15,-46.17 -835.81,369.64 -132.03,976.35 182.59,157.43 440.19,464.36 604.36,658.77z"/>
   <path class="fil0" d="M120576.53 37521.65l-579.27 599.32c-135.85,-157.23 -237.95,-292.77 -389.83,-428.88 -223.58,-200.43 -946.53,-1070.39 -1190.74,-1256.83 80.93,-185.76 278.13,-317.89 414.86,-451.59l1278.99 -1292.13c46.88,24.21 2929.81,2761.41 3015.06,2956.84l-3009.68 2893.82 -4176.59 -4157.79c130.7,-196.01 4060.69,-4018.51 4134.37,-4090.11 146.5,68.33 510.66,431.74 635.31,579.68l3443.98 3314.09c246.43,228.11 709.39,855.35 1074.54,849.39 376.66,-6.13 521.9,-432.39 313.19,-716.78 -119.4,-162.67 -458.91,-443.32 -625.88,-599.49l-1576.05 -1507.68c-115.42,-108.51 -188.65,-218.44 -305.02,-327.02l-2515.29 -2426.36c-261,-243.64 -488.33,-349.73 -807.75,-45.86l-4365.44 4293.27c-796.31,778.03 -627.1,709.43 722.5,2061.18 840.1,841.46 1655.58,1646.42 2496.39,2487.3 1723.95,1724.08 1291.25,1732.66 2672.62,455.58l614.27 -609.91c220.18,-205.27 420.85,-381.32 635.85,-589.89l613.79 -610.15c215.14,-200.23 460.31,-396.3 647.05,-620.36 150.83,-180.99 525.61,-380.54 444,-736.26 -59.65,-259.95 -1466.72,-1481.23 -1824.79,-1894.38l-1836.88 -1837.66c-374.27,-345.2 -545.66,-198.59 -829.07,83.72l-1860.98 1813.73c-871.42,853.58 -500.04,718.35 680.96,2096.96 114.4,133.53 141.4,161.14 290.31,300.32l612.16 654.27c327.46,350.37 456.73,736.56 1117.85,72.04 355.58,-357.39 1139.95,-991.95 1094.66,-1349.26 -31.83,-251.5 -645.39,-812.01 -851.37,-1011.11 -226.44,-218.95 -411.66,-552.81 -680.42,-587.1 -362.15,-46.17 -835.81,369.64 -132.03,976.35 182.59,157.43 440.19,464.36 604.36,658.77z"/>
   <path class="fil0" d="M143549.9 37521.65l-579.27 599.32c-135.85,-157.23 -237.95,-292.77 -389.83,-428.88 -223.58,-200.43 -946.53,-1070.39 -1190.74,-1256.83 80.93,-185.76 278.13,-317.89 414.86,-451.59l1278.99 -1292.13c46.88,24.21 2929.81,2761.41 3015.06,2956.84l-3009.68 2893.82 -4176.59 -4157.79c130.7,-196.01 4060.69,-4018.51 4134.37,-4090.11 146.5,68.33 510.66,431.74 635.31,579.68l3443.98 3314.09c246.43,228.11 709.39,855.35 1074.54,849.39 376.66,-6.13 521.9,-432.39 313.19,-716.78 -119.4,-162.67 -458.91,-443.32 -625.88,-599.49l-1576.05 -1507.68c-115.42,-108.51 -188.65,-218.44 -305.02,-327.02l-2515.29 -2426.36c-261,-243.64 -488.33,-349.73 -807.75,-45.86l-4365.44 4293.27c-796.31,778.03 -627.1,709.43 722.5,2061.18 840.1,841.46 1655.58,1646.42 2496.39,2487.3 1723.95,1724.08 1291.25,1732.66 2672.62,455.58l614.27 -609.91c220.18,-205.27 420.85,-381.32 635.85,-589.89l613.79 -610.15c215.14,-200.23 460.31,-396.3 647.05,-620.36 150.83,-180.99 525.61,-380.54 444,-736.26 -59.65,-259.95 -1466.72,-1481.23 -1824.79,-1894.38l-1836.88 -1837.66c-374.27,-345.2 -545.66,-198.59 -829.07,83.72l-1860.98 1813.73c-871.42,853.58 -500.04,718.35 680.96,2096.96 114.4,133.53 141.4,161.14 290.31,300.32l612.16 654.27c327.46,350.37 456.73,736.56 1117.85,72.04 355.58,-357.39 1139.95,-991.95 1094.66,-1349.26 -31.83,-251.5 -645.39,-812.01 -851.37,-1011.11 -226.44,-218.95 -411.66,-552.81 -680.42,-587.1 -362.15,-46.17 -835.81,369.64 -132.03,976.35 182.59,157.43 440.19,464.36 604.36,658.77z"/>
   <path class="fil0" d="M166523.26 37521.65l-579.27 599.32c-135.85,-157.23 -237.95,-292.77 -389.83,-428.88 -223.58,-200.43 -946.53,-1070.39 -1190.74,-1256.83 80.93,-185.76 278.13,-317.89 414.86,-451.59l1278.99 -1292.13c46.88,24.21 2929.81,2761.41 3015.06,2956.84l-3009.68 2893.82 -4176.59 -4157.79c130.7,-196.01 4060.69,-4018.51 4134.37,-4090.11 146.5,68.33 510.66,431.74 635.31,579.68l3443.98 3314.09c246.43,228.11 709.39,855.35 1074.54,849.39 376.66,-6.13 521.9,-432.39 313.19,-716.78 -119.4,-162.67 -458.91,-443.32 -625.88,-599.49l-1576.05 -1507.68c-115.42,-108.51 -188.65,-218.44 -305.02,-327.02l-2515.29 -2426.36c-261,-243.64 -488.33,-349.73 -807.75,-45.86l-4365.44 4293.27c-796.31,778.03 -627.1,709.43 722.5,2061.18 840.1,841.46 1655.58,1646.42 2496.39,2487.3 1723.95,1724.08 1291.25,1732.66 2672.62,455.58l614.27 -609.91c220.18,-205.27 420.85,-381.32 635.85,-589.89l613.79 -610.15c215.14,-200.23 460.31,-396.3 647.05,-620.36 150.83,-180.99 525.61,-380.54 444,-736.26 -59.65,-259.95 -1466.72,-1481.23 -1824.79,-1894.38l-1836.88 -1837.66c-374.27,-345.2 -545.66,-198.59 -829.07,83.72l-1860.98 1813.73c-871.42,853.58 -500.04,718.35 680.96,2096.96 114.4,133.53 141.4,161.14 290.31,300.32l612.16 654.27c327.46,350.37 456.73,736.56 1117.85,72.04 355.58,-357.39 1139.95,-991.95 1094.66,-1349.26 -31.83,-251.5 -645.39,-812.01 -851.37,-1011.11 -226.44,-218.95 -411.66,-552.81 -680.42,-587.1 -362.15,-46.17 -835.81,369.64 -132.03,976.35 182.59,157.43 440.19,464.36 604.36,658.77z"/>
   <path class="fil0" d="M189496.63 37521.65l-579.27 599.32c-135.85,-157.23 -237.95,-292.77 -389.83,-428.88 -223.58,-200.43 -946.53,-1070.39 -1190.74,-1256.83 80.93,-185.76 278.13,-317.89 414.86,-451.59l1278.99 -1292.13c46.88,24.21 2929.81,2761.41 3015.06,2956.84l-3009.68 2893.82 -4176.59 -4157.79c130.7,-196.01 4060.69,-4018.51 4134.37,-4090.11 146.5,68.33 510.66,431.74 635.31,579.68l3443.98 3314.09c246.43,228.11 709.39,855.35 1074.54,849.39 376.66,-6.13 521.9,-432.39 313.19,-716.78 -119.4,-162.67 -458.91,-443.32 -625.88,-599.49l-1576.05 -1507.68c-115.42,-108.51 -188.65,-218.44 -305.02,-327.02l-2515.29 -2426.36c-261,-243.64 -488.33,-349.73 -807.75,-45.86l-4365.44 4293.27c-796.31,778.03 -627.1,709.43 722.5,2061.18 840.1,841.46 1655.58,1646.42 2496.39,2487.3 1723.95,1724.08 1291.25,1732.66 2672.62,455.58l614.27 -609.91c220.18,-205.27 420.85,-381.32 635.85,-589.89l613.79 -610.15c215.14,-200.23 460.31,-396.3 647.05,-620.36 150.83,-180.99 525.61,-380.54 444,-736.26 -59.65,-259.95 -1466.72,-1481.23 -1824.79,-1894.38l-1836.88 -1837.66c-374.27,-345.2 -545.66,-198.59 -829.07,83.72l-1860.98 1813.73c-871.42,853.58 -500.04,718.35 680.96,2096.96 114.4,133.53 141.4,161.14 290.31,300.32l612.16 654.27c327.46,350.37 456.73,736.56 1117.85,72.04 355.58,-357.39 1139.95,-991.95 1094.66,-1349.26 -31.83,-251.5 -645.39,-812.01 -851.37,-1011.11 -226.44,-218.95 -411.66,-552.81 -680.42,-587.1 -362.15,-46.17 -835.81,369.64 -132.03,976.35 182.59,157.43 440.19,464.36 604.36,658.77z"/>
   <path class="fil0" d="M212469.99 37521.65l-579.27 599.32c-135.85,-157.23 -237.95,-292.77 -389.83,-428.88 -223.58,-200.43 -946.53,-1070.39 -1190.74,-1256.83 80.93,-185.76 278.13,-317.89 414.86,-451.59l1278.99 -1292.13c46.88,24.21 2929.81,2761.41 3015.06,2956.84l-3009.68 2893.82 -4176.59 -4157.79c130.7,-196.01 4060.69,-4018.51 4134.37,-4090.11 146.5,68.33 510.66,431.74 635.31,579.68l3443.98 3314.09c246.43,228.11 709.39,855.35 1074.54,849.39 376.66,-6.13 521.9,-432.39 313.19,-716.78 -119.4,-162.67 -458.91,-443.32 -625.88,-599.49l-1576.05 -1507.68c-115.42,-108.51 -188.65,-218.44 -305.02,-327.02l-2515.29 -2426.36c-261,-243.64 -488.33,-349.73 -807.75,-45.86l-4365.44 4293.27c-796.31,778.03 -627.1,709.43 722.5,2061.18 840.1,841.46 1655.58,1646.42 2496.39,2487.3 1723.95,1724.08 1291.25,1732.66 2672.62,455.58l614.27 -609.91c220.18,-205.27 420.85,-381.32 635.85,-589.89l613.79 -610.15c215.14,-200.23 460.31,-396.3 647.05,-620.36 150.83,-180.99 525.61,-380.54 444,-736.26 -59.65,-259.95 -1466.72,-1481.23 -1824.79,-1894.38l-1836.88 -1837.66c-374.27,-345.2 -545.66,-198.59 -829.07,83.72l-1860.98 1813.73c-871.42,853.58 -500.04,718.35 680.96,2096.96 114.4,133.53 141.4,161.14 290.31,300.32l612.16 654.27c327.46,350.37 456.73,736.56 1117.85,72.04 355.58,-357.39 1139.95,-991.95 1094.66,-1349.26 -31.83,-251.5 -645.39,-812.01 -851.37,-1011.11 -226.44,-218.95 -411.66,-552.81 -680.42,-587.1 -362.15,-46.17 -835.81,369.64 -132.03,976.35 182.59,157.43 440.19,464.36 604.36,658.77z"/>
   <g>
    <path class="fil0" d="M17196.39 22661.02l-579.27 599.32c-135.85,-157.23 -237.95,-292.77 -389.83,-428.88 -223.58,-200.43 -946.53,-1070.39 -1190.74,-1256.83 80.93,-185.76 278.13,-317.89 414.86,-451.59l1278.99 -1292.13c46.88,24.21 2929.81,2761.41 3015.06,2956.84l-3009.68 2893.82 -4176.59 -4157.79c130.7,-196.01 4060.69,-4018.51 4134.37,-4090.11 146.5,68.33 510.66,431.74 635.31,579.68l3443.98 3314.09c246.43,228.11 709.39,855.35 1074.54,849.39 376.66,-6.13 521.9,-432.39 313.19,-716.78 -119.4,-162.67 -458.91,-443.32 -625.88,-599.49l-1576.05 -1507.68c-115.42,-108.51 -188.65,-218.44 -305.02,-327.02l-2515.29 -2426.36c-261,-243.64 -488.33,-349.73 -807.75,-45.86l-4365.44 4293.27c-796.31,778.03 -627.1,709.43 722.5,2061.18 840.1,841.46 1655.58,1646.42 2496.39,2487.3 1723.95,1724.08 1291.25,1732.66 2672.62,455.58l614.27 -609.91c220.18,-205.27 420.85,-381.32 635.85,-589.89l613.79 -610.15c215.14,-200.23 460.31,-396.3 647.05,-620.36 150.83,-180.99 525.61,-380.54 444,-736.26 -59.65,-259.95 -1466.72,-1481.23 -1824.79,-1894.38l-1836.88 -1837.66c-374.27,-345.2 -545.66,-198.59 -829.07,83.72l-1860.98 1813.73c-871.42,853.58 -500.04,718.35 680.96,2096.96 114.4,133.53 141.4,161.14 290.31,300.32l612.16 654.27c327.46,350.37 456.73,736.56 1117.85,72.04 355.58,-357.39 1139.95,-991.95 1094.66,-1349.26 -31.83,-251.5 -645.39,-812.01 -851.37,-1011.11 -226.44,-218.95 -411.66,-552.81 -680.42,-587.1 -362.15,-46.17 -835.81,369.64 -132.03,976.35 182.59,157.43 440.19,464.36 604.36,658.77z"/>
    <path class="fil0" d="M40169.75 22661.02l-579.27 599.32c-135.85,-157.23 -237.95,-292.77 -389.83,-428.88 -223.58,-200.43 -946.53,-1070.39 -1190.74,-1256.83 80.93,-185.76 278.13,-317.89 414.86,-451.59l1278.99 -1292.13c46.88,24.21 2929.81,2761.41 3015.06,2956.84l-3009.68 2893.82 -4176.59 -4157.79c130.7,-196.01 4060.69,-4018.51 4134.37,-4090.11 146.5,68.33 510.66,431.74 635.31,579.68l3443.98 3314.09c246.43,228.11 709.39,855.35 1074.54,849.39 376.66,-6.13 521.9,-432.39 313.19,-716.78 -119.4,-162.67 -458.91,-443.32 -625.88,-599.49l-1576.05 -1507.68c-115.42,-108.51 -188.65,-218.44 -305.02,-327.02l-2515.29 -2426.36c-261,-243.64 -488.33,-349.73 -807.75,-45.86l-4365.44 4293.27c-796.31,778.03 -627.1,709.43 722.5,2061.18 840.1,841.46 1655.58,1646.42 2496.39,2487.3 1723.95,1724.08 1291.25,1732.66 2672.62,455.58l614.27 -609.91c220.18,-205.27 420.85,-381.32 635.85,-589.89l613.79 -610.15c215.14,-200.23 460.31,-396.3 647.05,-620.36 150.83,-180.99 525.61,-380.54 444,-736.26 -59.65,-259.95 -1466.72,-1481.23 -1824.79,-1894.38l-1836.88 -1837.66c-374.27,-345.2 -545.66,-198.59 -829.07,83.72l-1860.98 1813.73c-871.42,853.58 -500.04,718.35 680.96,2096.96 114.4,133.53 141.4,161.14 290.31,300.32l612.16 654.27c327.46,350.37 456.73,736.56 1117.85,72.04 355.58,-357.39 1139.95,-991.95 1094.66,-1349.26 -31.83,-251.5 -645.39,-812.01 -851.37,-1011.11 -226.44,-218.95 -411.66,-552.81 -680.42,-587.1 -362.15,-46.17 -835.81,369.64 -132.03,976.35 182.59,157.43 440.19,464.36 604.36,658.77z"/>
    <path class="fil0" d="M63143.12 22661.02l-579.27 599.32c-135.85,-157.23 -237.95,-292.77 -389.83,-428.88 -223.58,-200.43 -946.53,-1070.39 -1190.74,-1256.83 80.93,-185.76 278.13,-317.89 414.86,-451.59l1278.99 -1292.13c46.88,24.21 2929.81,2761.41 3015.06,2956.84l-3009.68 2893.82 -4176.59 -4157.79c130.7,-196.01 4060.69,-4018.51 4134.37,-4090.11 146.5,68.33 510.66,431.74 635.31,579.68l3443.98 3314.09c246.43,228.11 709.39,855.35 1074.54,849.39 376.66,-6.13 521.9,-432.39 313.19,-716.78 -119.4,-162.67 -458.91,-443.32 -625.88,-599.49l-1576.05 -1507.68c-115.42,-108.51 -188.65,-218.44 -305.02,-327.02l-2515.29 -2426.36c-261,-243.64 -488.33,-349.73 -807.75,-45.86l-4365.44 4293.27c-796.31,778.03 -627.1,709.43 722.5,2061.18 840.1,841.46 1655.58,1646.42 2496.39,2487.3 1723.95,1724.08 1291.25,1732.66 2672.62,455.58l614.27 -609.91c220.18,-205.27 420.85,-381.32 635.85,-589.89l613.79 -610.15c215.14,-200.23 460.31,-396.3 647.05,-620.36 150.83,-180.99 525.61,-380.54 444,-736.26 -59.65,-259.95 -1466.72,-1481.23 -1824.79,-1894.38l-1836.88 -1837.66c-374.27,-345.2 -545.66,-198.59 -829.07,83.72l-1860.98 1813.73c-871.42,853.58 -500.04,718.35 680.96,2096.96 114.4,133.53 141.4,161.14 290.31,300.32l612.16 654.27c327.46,350.37 456.73,736.56 1117.85,72.04 355.58,-357.39 1139.95,-991.95 1094.66,-1349.26 -31.83,-251.5 -645.39,-812.01 -851.37,-1011.11 -226.44,-218.95 -411.66,-552.81 -680.42,-587.1 -362.15,-46.17 -835.81,369.64 -132.03,976.35 182.59,157.43 440.19,464.36 604.36,658.77z"/>
    <path class="fil0" d="M86116.48 22661.02l-579.27 599.32c-135.85,-157.23 -237.95,-292.77 -389.83,-428.88 -223.58,-200.43 -946.53,-1070.39 -1190.74,-1256.83 80.93,-185.76 278.13,-317.89 414.86,-451.59l1278.99 -1292.13c46.88,24.21 2929.81,2761.41 3015.06,2956.84l-3009.68 2893.82 -4176.59 -4157.79c130.7,-196.01 4060.69,-4018.51 4134.37,-4090.11 146.5,68.33 510.66,431.74 635.31,579.68l3443.98 3314.09c246.43,228.11 709.39,855.35 1074.54,849.39 376.66,-6.13 521.9,-432.39 313.19,-716.78 -119.4,-162.67 -458.91,-443.32 -625.88,-599.49l-1576.05 -1507.68c-115.42,-108.51 -188.65,-218.44 -305.02,-327.02l-2515.29 -2426.36c-261,-243.64 -488.33,-349.73 -807.75,-45.86l-4365.44 4293.27c-796.31,778.03 -627.1,709.43 722.5,2061.18 840.1,841.46 1655.58,1646.42 2496.39,2487.3 1723.95,1724.08 1291.25,1732.66 2672.62,455.58l614.27 -609.91c220.18,-205.27 420.85,-381.32 635.85,-589.89l613.79 -610.15c215.14,-200.23 460.31,-396.3 647.05,-620.36 150.83,-180.99 525.61,-380.54 444,-736.26 -59.65,-259.95 -1466.72,-1481.23 -1824.79,-1894.38l-1836.88 -1837.66c-374.27,-345.2 -545.66,-198.59 -829.07,83.72l-1860.98 1813.73c-871.42,853.58 -500.04,718.35 680.96,2096.96 114.4,133.53 141.4,161.14 290.31,300.32l612.16 654.27c327.46,350.37 456.73,736.56 1117.85,72.04 355.58,-357.39 1139.95,-991.95 1094.66,-1349.26 -31.83,-251.5 -645.39,-812.01 -851.37,-1011.11 -226.44,-218.95 -411.66,-552.81 -680.42,-587.1 -362.15,-46.17 -835.81,369.64 -132.03,976.35 182.59,157.43 440.19,464.36 604.36,658.77z"/>
    <path class="fil0" d="M109089.85 22661.02l-579.27 599.32c-135.85,-157.23 -237.95,-292.77 -389.83,-428.88 -223.58,-200.43 -946.53,-1070.39 -1190.74,-1256.83 80.93,-185.76 278.13,-317.89 414.86,-451.59l1278.99 -1292.13c46.88,24.21 2929.81,2761.41 3015.06,2956.84l-3009.68 2893.82 -4176.59 -4157.79c130.7,-196.01 4060.69,-4018.51 4134.37,-4090.11 146.5,68.33 510.66,431.74 635.31,579.68l3443.98 3314.09c246.43,228.11 709.39,855.35 1074.54,849.39 376.66,-6.13 521.9,-432.39 313.19,-716.78 -119.4,-162.67 -458.91,-443.32 -625.88,-599.49l-1576.05 -1507.68c-115.42,-108.51 -188.65,-218.44 -305.02,-327.02l-2515.29 -2426.36c-261,-243.64 -488.33,-349.73 -807.75,-45.86l-4365.44 4293.27c-796.31,778.03 -627.1,709.43 722.5,2061.18 840.1,841.46 1655.58,1646.42 2496.39,2487.3 1723.95,1724.08 1291.25,1732.66 2672.62,455.58l614.27 -609.91c220.18,-205.27 420.85,-381.32 635.85,-589.89l613.79 -610.15c215.14,-200.23 460.31,-396.3 647.05,-620.36 150.83,-180.99 525.61,-380.54 444,-736.26 -59.65,-259.95 -1466.72,-1481.23 -1824.79,-1894.38l-1836.88 -1837.66c-374.27,-345.2 -545.66,-198.59 -829.07,83.72l-1860.98 1813.73c-871.42,853.58 -500.04,718.35 680.96,2096.96 114.4,133.53 141.4,161.14 290.31,300.32l612.16 654.27c327.46,350.37 456.73,736.56 1117.85,72.04 355.58,-357.39 1139.95,-991.95 1094.66,-1349.26 -31.83,-251.5 -645.39,-812.01 -851.37,-1011.11 -226.44,-218.95 -411.66,-552.81 -680.42,-587.1 -362.15,-46.17 -835.81,369.64 -132.03,976.35 182.59,157.43 440.19,464.36 604.36,658.77z"/>
    <path class="fil0" d="M132063.21 22661.02l-579.27 599.32c-135.85,-157.23 -237.95,-292.77 -389.83,-428.88 -223.58,-200.43 -946.53,-1070.39 -1190.74,-1256.83 80.93,-185.76 278.13,-317.89 414.86,-451.59l1278.99 -1292.13c46.88,24.21 2929.81,2761.41 3015.06,2956.84l-3009.68 2893.82 -4176.59 -4157.79c130.7,-196.01 4060.69,-4018.51 4134.37,-4090.11 146.5,68.33 510.66,431.74 635.31,579.68l3443.98 3314.09c246.43,228.11 709.39,855.35 1074.54,849.39 376.66,-6.13 521.9,-432.39 313.19,-716.78 -119.4,-162.67 -458.91,-443.32 -625.88,-599.49l-1576.05 -1507.68c-115.42,-108.51 -188.65,-218.44 -305.02,-327.02l-2515.29 -2426.36c-261,-243.64 -488.33,-349.73 -807.75,-45.86l-4365.44 4293.27c-796.31,778.03 -627.1,709.43 722.5,2061.18 840.1,841.46 1655.58,1646.42 2496.39,2487.3 1723.95,1724.08 1291.25,1732.66 2672.62,455.58l614.27 -609.91c220.18,-205.27 420.85,-381.32 635.85,-589.89l613.79 -610.15c215.14,-200.23 460.31,-396.3 647.05,-620.36 150.83,-180.99 525.61,-380.54 444,-736.26 -59.65,-259.95 -1466.72,-1481.23 -1824.79,-1894.38l-1836.88 -1837.66c-374.27,-345.2 -545.66,-198.59 -829.07,83.72l-1860.98 1813.73c-871.42,853.58 -500.04,718.35 680.96,2096.96 114.4,133.53 141.4,161.14 290.31,300.32l612.16 654.27c327.46,350.37 456.73,736.56 1117.85,72.04 355.58,-357.39 1139.95,-991.95 1094.66,-1349.26 -31.83,-251.5 -645.39,-812.01 -851.37,-1011.11 -226.44,-218.95 -411.66,-552.81 -680.42,-587.1 -362.15,-46.17 -835.81,369.64 -132.03,976.35 182.59,157.43 440.19,464.36 604.36,658.77z"/>
    <path class="fil0" d="M155036.58 22661.02l-579.27 599.32c-135.85,-157.23 -237.95,-292.77 -389.83,-428.88 -223.58,-200.43 -946.53,-1070.39 -1190.74,-1256.83 80.93,-185.76 278.13,-317.89 414.86,-451.59l1278.99 -1292.13c46.88,24.21 2929.81,2761.41 3015.06,2956.84l-3009.68 2893.82 -4176.59 -4157.79c130.7,-196.01 4060.69,-4018.51 4134.37,-4090.11 146.5,68.33 510.66,431.74 635.31,579.68l3443.98 3314.09c246.43,228.11 709.39,855.35 1074.54,849.39 376.66,-6.13 521.9,-432.39 313.19,-716.78 -119.4,-162.67 -458.91,-443.32 -625.88,-599.49l-1576.05 -1507.68c-115.42,-108.51 -188.65,-218.44 -305.02,-327.02l-2515.29 -2426.36c-261,-243.64 -488.33,-349.73 -807.75,-45.86l-4365.44 4293.27c-796.31,778.03 -627.1,709.43 722.5,2061.18 840.1,841.46 1655.58,1646.42 2496.39,2487.3 1723.95,1724.08 1291.25,1732.66 2672.62,455.58l614.27 -609.91c220.18,-205.27 420.85,-381.32 635.85,-589.89l613.79 -610.15c215.14,-200.23 460.31,-396.3 647.05,-620.36 150.83,-180.99 525.61,-380.54 444,-736.26 -59.65,-259.95 -1466.72,-1481.23 -1824.79,-1894.38l-1836.88 -1837.66c-374.27,-345.2 -545.66,-198.59 -829.07,83.72l-1860.98 1813.73c-871.42,853.58 -500.04,718.35 680.96,2096.96 114.4,133.53 141.4,161.14 290.31,300.32l612.16 654.27c327.46,350.37 456.73,736.56 1117.85,72.04 355.58,-357.39 1139.95,-991.95 1094.66,-1349.26 -31.83,-251.5 -645.39,-812.01 -851.37,-1011.11 -226.44,-218.95 -411.66,-552.81 -680.42,-587.1 -362.15,-46.17 -835.81,369.64 -132.03,976.35 182.59,157.43 440.19,464.36 604.36,658.77z"/>
    <path class="fil0" d="M178009.94 22661.02l-579.27 599.32c-135.85,-157.23 -237.95,-292.77 -389.83,-428.88 -223.58,-200.43 -946.53,-1070.39 -1190.74,-1256.83 80.93,-185.76 278.13,-317.89 414.86,-451.59l1278.99 -1292.13c46.88,24.21 2929.81,2761.41 3015.06,2956.84l-3009.68 2893.82 -4176.59 -4157.79c130.7,-196.01 4060.69,-4018.51 4134.37,-4090.11 146.5,68.33 510.66,431.74 635.31,579.68l3443.98 3314.09c246.43,228.11 709.39,855.35 1074.54,849.39 376.66,-6.13 521.9,-432.39 313.19,-716.78 -119.4,-162.67 -458.91,-443.32 -625.88,-599.49l-1576.05 -1507.68c-115.42,-108.51 -188.65,-218.44 -305.02,-327.02l-2515.29 -2426.36c-261,-243.64 -488.33,-349.73 -807.75,-45.86l-4365.44 4293.27c-796.31,778.03 -627.1,709.43 722.5,2061.18 840.1,841.46 1655.58,1646.42 2496.39,2487.3 1723.95,1724.08 1291.25,1732.66 2672.62,455.58l614.27 -609.91c220.18,-205.27 420.85,-381.32 635.85,-589.89l613.79 -610.15c215.14,-200.23 460.31,-396.3 647.05,-620.36 150.83,-180.99 525.61,-380.54 444,-736.26 -59.65,-259.95 -1466.72,-1481.23 -1824.79,-1894.38l-1836.88 -1837.66c-374.27,-345.2 -545.66,-198.59 -829.07,83.72l-1860.98 1813.73c-871.42,853.58 -500.04,718.35 680.96,2096.96 114.4,133.53 141.4,161.14 290.31,300.32l612.16 654.27c327.46,350.37 456.73,736.56 1117.85,72.04 355.58,-357.39 1139.95,-991.95 1094.66,-1349.26 -31.83,-251.5 -645.39,-812.01 -851.37,-1011.11 -226.44,-218.95 -411.66,-552.81 -680.42,-587.1 -362.15,-46.17 -835.81,369.64 -132.03,976.35 182.59,157.43 440.19,464.36 604.36,658.77z"/>
    <path class="fil0" d="M200983.31 22661.02l-579.27 599.32c-135.85,-157.23 -237.95,-292.77 -389.83,-428.88 -223.58,-200.43 -946.53,-1070.39 -1190.74,-1256.83 80.93,-185.76 278.13,-317.89 414.86,-451.59l1278.99 -1292.13c46.88,24.21 2929.81,2761.41 3015.06,2956.84l-3009.68 2893.82 -4176.59 -4157.79c130.7,-196.01 4060.69,-4018.51 4134.37,-4090.11 146.5,68.33 510.66,431.74 635.31,579.68l3443.98 3314.09c246.43,228.11 709.39,855.35 1074.54,849.39 376.66,-6.13 521.9,-432.39 313.19,-716.78 -119.4,-162.67 -458.91,-443.32 -625.88,-599.49l-1576.05 -1507.68c-115.42,-108.51 -188.65,-218.44 -305.02,-327.02l-2515.29 -2426.36c-261,-243.64 -488.33,-349.73 -807.75,-45.86l-4365.44 4293.27c-796.31,778.03 -627.1,709.43 722.5,2061.18 840.1,841.46 1655.58,1646.42 2496.39,2487.3 1723.95,1724.08 1291.25,1732.66 2672.62,455.58l614.27 -609.91c220.18,-205.27 420.85,-381.32 635.85,-589.89l613.79 -610.15c215.14,-200.23 460.31,-396.3 647.05,-620.36 150.83,-180.99 525.61,-380.54 444,-736.26 -59.65,-259.95 -1466.72,-1481.23 -1824.79,-1894.38l-1836.88 -1837.66c-374.27,-345.2 -545.66,-198.59 -829.07,83.72l-1860.98 1813.73c-871.42,853.58 -500.04,718.35 680.96,2096.96 114.4,133.53 141.4,161.14 290.31,300.32l612.16 654.27c327.46,350.37 456.73,736.56 1117.85,72.04 355.58,-357.39 1139.95,-991.95 1094.66,-1349.26 -31.83,-251.5 -645.39,-812.01 -851.37,-1011.11 -226.44,-218.95 -411.66,-552.81 -680.42,-587.1 -362.15,-46.17 -835.81,369.64 -132.03,976.35 182.59,157.43 440.19,464.36 604.36,658.77z"/>
   </g>
  </g>
 </g>
</svg>
