<?xml version="1.0" encoding="UTF-8"?>
<!DOCTYPE svg PUBLIC "-//W3C//DTD SVG 1.1//EN" "http://www.w3.org/Graphics/SVG/1.1/DTD/svg11.dtd">
<!-- Creator: CorelDRAW -->
<svg xmlns="http://www.w3.org/2000/svg" xml:space="preserve" width="109.106mm" height="18.4196mm" version="1.1" style="shape-rendering:geometricPrecision; text-rendering:geometricPrecision; image-rendering:optimizeQuality; fill-rule:evenodd; clip-rule:evenodd"
viewBox="0 0 8001.64 1350.86"
 xmlns:xlink="http://www.w3.org/1999/xlink"
 xmlns:xodm="http://www.corel.com/coreldraw/odm/2003">
 <defs>
  <style type="text/css">
   <![CDATA[
    .str0 {stroke:#C7AB8D;stroke-width:12.94;stroke-miterlimit:10}
    .fil1 {fill:none;fill-rule:nonzero}
    .fil2 {fill:#FFEBF8;fill-rule:nonzero}
    .fil0 {fill:url(#id0)}
   ]]>
  </style>
  <radialGradient id="id0" gradientUnits="userSpaceOnUse" gradientTransform="matrix(0.918351 -0 -0 0.91835 346 650)" cx="4240.88" cy="7956.57" r="4000.81" fx="4240.88" fy="7956.57">
   <stop offset="0" style="stop-opacity:1; stop-color:#FFEFDF"/>
   <stop offset="0.0784314" style="stop-opacity:1; stop-color:#FFEFDF"/>
   <stop offset="0.337255" style="stop-opacity:1; stop-color:#F5DFCB"/>
   <stop offset="1" style="stop-opacity:1; stop-color:#EBD0B7"/>
   <stop offset="1" style="stop-opacity:1; stop-color:#EBD0B7"/>
  </radialGradient>
 </defs>
 <g id="Layer_x0020_1">
  <metadata id="CorelCorpID_0Corel-Layer"/>
  <g id="_2805580564560">
   <path class="fil0" d="M284.45 1350.86l7432.72 0c157.12,0 284.46,-127.37 284.46,-284.46l0 -781.95c0,-157.07 -127.34,-284.44 -284.46,-284.44l-7432.72 0c-157.1,0 -284.43,127.37 -284.43,284.44l0 781.95c0,157.1 127.34,284.46 284.43,284.46z"/>
   <g>
    <line class="fil1 str0" x1="154.49" y1="31.36" x2="154.49" y2= "1319.5" />
    <line class="fil1 str0" x1="431.93" y1="0" x2="431.93" y2= "1350.86" />
    <line class="fil1 str0" x1="709.36" y1="0" x2="709.36" y2= "1350.86" />
    <line class="fil1 str0" x1="986.81" y1="0" x2="986.81" y2= "1350.86" />
    <line class="fil1 str0" x1="1264.24" y1="0" x2="1264.24" y2= "1350.86" />
    <line class="fil1 str0" x1="1541.68" y1="0" x2="1541.68" y2= "1350.86" />
    <line class="fil1 str0" x1="1819.11" y1="0" x2="1819.11" y2= "1350.86" />
    <line class="fil1 str0" x1="2096.56" y1="0" x2="2096.56" y2= "1350.86" />
    <line class="fil1 str0" x1="2373.99" y1="0" x2="2373.99" y2= "1350.86" />
    <line class="fil1 str0" x1="2651.43" y1="0" x2="2651.43" y2= "1350.86" />
    <line class="fil1 str0" x1="2928.86" y1="0" x2="2928.86" y2= "1350.86" />
    <line class="fil1 str0" x1="3206.3" y1="0" x2="3206.3" y2= "1350.86" />
    <line class="fil1 str0" x1="3483.73" y1="0" x2="3483.73" y2= "1350.86" />
    <line class="fil1 str0" x1="3761.17" y1="0" x2="3761.17" y2= "1350.86" />
    <line class="fil1 str0" x1="4038.6" y1="0" x2="4038.6" y2= "1350.86" />
    <line class="fil1 str0" x1="4316.05" y1="0" x2="4316.05" y2= "1350.86" />
    <line class="fil1 str0" x1="4593.49" y1="0" x2="4593.49" y2= "1350.86" />
    <line class="fil1 str0" x1="4870.92" y1="0" x2="4870.92" y2= "1350.86" />
    <line class="fil1 str0" x1="5148.36" y1="0" x2="5148.36" y2= "1350.86" />
    <line class="fil1 str0" x1="5425.8" y1="0" x2="5425.8" y2= "1350.86" />
    <line class="fil1 str0" x1="5703.23" y1="0" x2="5703.23" y2= "1350.86" />
    <line class="fil1 str0" x1="5980.67" y1="0" x2="5980.67" y2= "1350.86" />
    <line class="fil1 str0" x1="6258.11" y1="0" x2="6258.11" y2= "1350.86" />
    <line class="fil1 str0" x1="6535.54" y1="0" x2="6535.54" y2= "1350.86" />
    <line class="fil1 str0" x1="6812.98" y1="0" x2="6812.98" y2= "1350.86" />
    <line class="fil1 str0" x1="7090.41" y1="0" x2="7090.41" y2= "1350.86" />
    <line class="fil1 str0" x1="7367.86" y1="0" x2="7367.86" y2= "1350.86" />
    <line class="fil1 str0" x1="7645.28" y1="0" x2="7645.28" y2= "1350.86" />
    <line class="fil1 str0" x1="7922.73" y1="87.82" x2="7922.73" y2= "1263.03" />
    <line class="fil1 str0" x1="42.1" y1="135.49" x2="7959.54" y2= "135.49" />
    <line class="fil1 str0" x1="0.01" y1="386.51" x2="8001.63" y2= "386.51" />
    <line class="fil1 str0" x1="0.01" y1="637.52" x2="8001.63" y2= "637.52" />
    <line class="fil1 str0" x1="0.01" y1="888.54" x2="8001.63" y2= "888.54" />
    <line class="fil1 str0" x1="9.53" y1="1139.55" x2="7992.12" y2= "1139.55" />
   </g>
   <g>
    <image x="-0" y="12.64" width="8001.64" height="1311.24" xlink:href="bgleaf_Images\bgleaf_ImgID1.png"/>
   </g>
   <path class="fil2" d="M7717.18 0.01l-7432.71 0c-157.1,0 -284.46,127.34 -284.46,284.43l0 781.96c0,157.12 127.37,284.46 284.46,284.46l7432.71 0c157.1,0 284.46,-127.34 284.46,-284.46l0 -781.96c0,-157.1 -127.37,-284.43 -284.46,-284.43zm0 25.87c142.58,0 258.6,115.98 258.6,258.57l0 781.96c0,142.58 -116.01,258.59 -258.6,258.59l-7432.71 0c-142.58,0 -258.59,-116.01 -258.59,-258.59l0 -781.96c0,-142.58 116.01,-258.57 258.59,-258.57l7432.71 0z"/>
  </g>
 </g>
</svg>
