<?xml version="1.0" encoding="UTF-8"?>
<!DOCTYPE svg PUBLIC "-//W3C//DTD SVG 1.1//EN" "http://www.w3.org/Graphics/SVG/1.1/DTD/svg11.dtd">
<!-- Creator: CorelDRAW -->
<svg xmlns="http://www.w3.org/2000/svg" xml:space="preserve" width="109.106mm" height="18.4196mm" version="1.1" style="shape-rendering:geometricPrecision; text-rendering:geometricPrecision; image-rendering:optimizeQuality; fill-rule:evenodd; clip-rule:evenodd"
viewBox="0 0 1986.26 335.33"
 xmlns:xlink="http://www.w3.org/1999/xlink"
 xmlns:xodm="http://www.corel.com/coreldraw/odm/2003">
 <defs>
  <style type="text/css">
   <![CDATA[
    .str0 {stroke:#C7AB8D;stroke-width:3.21;stroke-miterlimit:10}
    .fil1 {fill:none;fill-rule:nonzero}
    .fil2 {fill:#FFEBF8;fill-rule:nonzero}
    .fil0 {fill:url(#id0)}
   ]]>
  </style>
  <radialGradient id="id0" gradientUnits="userSpaceOnUse" gradientTransform="matrix(0.918351 -0 -0 0.918349 86 161)" cx="1052.72" cy="1975.07" r="993.13" fx="1052.72" fy="1975.07">
   <stop offset="0" style="stop-opacity:1; stop-color:#FFEFDF"/>
   <stop offset="0.0784314" style="stop-opacity:1; stop-color:#FFEFDF"/>
   <stop offset="0.337255" style="stop-opacity:1; stop-color:#F5DFCB"/>
   <stop offset="1" style="stop-opacity:1; stop-color:#EBD0B7"/>
   <stop offset="1" style="stop-opacity:1; stop-color:#EBD0B7"/>
  </radialGradient>
 </defs>
 <g id="Layer_x0020_1">
  <metadata id="CorelCorpID_0Corel-Layer"/>
  <g id="_2805588447488">
   <path class="fil0" d="M70.61 335.33l1845.04 0c39,0 70.61,-31.62 70.61,-70.61l0 -194.11c0,-38.99 -31.61,-70.61 -70.61,-70.61l-1845.04 0c-39,0 -70.61,31.62 -70.61,70.61l0 194.11c0,39 31.61,70.61 70.61,70.61z"/>
   <g>
    <line class="fil1 str0" x1="38.35" y1="7.78" x2="38.35" y2= "327.54" />
    <line class="fil1 str0" x1="107.22" y1="0" x2="107.22" y2= "335.33" />
    <line class="fil1 str0" x1="176.09" y1="0" x2="176.09" y2= "335.33" />
    <line class="fil1 str0" x1="244.96" y1="0" x2="244.96" y2= "335.33" />
    <line class="fil1 str0" x1="313.83" y1="0" x2="313.83" y2= "335.33" />
    <line class="fil1 str0" x1="382.69" y1="0" x2="382.69" y2= "335.33" />
    <line class="fil1 str0" x1="451.56" y1="0" x2="451.56" y2= "335.33" />
    <line class="fil1 str0" x1="520.43" y1="0" x2="520.43" y2= "335.33" />
    <line class="fil1 str0" x1="589.3" y1="0" x2="589.3" y2= "335.33" />
    <line class="fil1 str0" x1="658.17" y1="0" x2="658.17" y2= "335.33" />
    <line class="fil1 str0" x1="727.03" y1="0" x2="727.03" y2= "335.33" />
    <line class="fil1 str0" x1="795.91" y1="0" x2="795.91" y2= "335.33" />
    <line class="fil1 str0" x1="864.77" y1="0" x2="864.77" y2= "335.33" />
    <line class="fil1 str0" x1="933.64" y1="0" x2="933.64" y2= "335.33" />
    <line class="fil1 str0" x1="1002.51" y1="0" x2="1002.51" y2= "335.33" />
    <line class="fil1 str0" x1="1071.38" y1="0" x2="1071.38" y2= "335.33" />
    <line class="fil1 str0" x1="1140.25" y1="0" x2="1140.25" y2= "335.33" />
    <line class="fil1 str0" x1="1209.12" y1="0" x2="1209.12" y2= "335.33" />
    <line class="fil1 str0" x1="1277.99" y1="0" x2="1277.99" y2= "335.33" />
    <line class="fil1 str0" x1="1346.85" y1="0" x2="1346.85" y2= "335.33" />
    <line class="fil1 str0" x1="1415.72" y1="0" x2="1415.72" y2= "335.33" />
    <line class="fil1 str0" x1="1484.59" y1="0" x2="1484.59" y2= "335.33" />
    <line class="fil1 str0" x1="1553.46" y1="0" x2="1553.46" y2= "335.33" />
    <line class="fil1 str0" x1="1622.33" y1="0" x2="1622.33" y2= "335.33" />
    <line class="fil1 str0" x1="1691.2" y1="0" x2="1691.2" y2= "335.33" />
    <line class="fil1 str0" x1="1760.07" y1="0" x2="1760.07" y2= "335.33" />
    <line class="fil1 str0" x1="1828.94" y1="0" x2="1828.94" y2= "335.33" />
    <line class="fil1 str0" x1="1897.8" y1="0" x2="1897.8" y2= "335.33" />
    <line class="fil1 str0" x1="1966.67" y1="21.8" x2="1966.67" y2= "313.52" />
    <line class="fil1 str0" x1="10.45" y1="33.63" x2="1975.81" y2= "33.63" />
    <line class="fil1 str0" x1="0" y1="95.94" x2="1986.26" y2= "95.94" />
    <line class="fil1 str0" x1="0" y1="158.25" x2="1986.26" y2= "158.25" />
    <line class="fil1 str0" x1="0" y1="220.56" x2="1986.26" y2= "220.56" />
    <line class="fil1 str0" x1="2.36" y1="282.87" x2="1983.9" y2= "282.87" />
   </g>
   <g>
    <image x="18.77" y="17.49" width="1948.71" height="300.34" xlink:href="bgleafff_Images\bgleafff_ImgID1.png"/>
   </g>
   <path class="fil2" d="M1915.65 0l-1845.04 0c-39,0 -70.61,31.61 -70.61,70.61l0 194.11c0,39 31.62,70.61 70.61,70.61l1845.04 0c39,0 70.61,-31.61 70.61,-70.61l0 -194.11c0,-39 -31.62,-70.61 -70.61,-70.61zm0 6.42c35.39,0 64.19,28.79 64.19,64.18l0 194.11c0,35.39 -28.8,64.19 -64.19,64.19l-1845.04 0c-35.39,0 -64.19,-28.8 -64.19,-64.19l0 -194.11c0,-35.39 28.8,-64.18 64.19,-64.18l1845.04 0z"/>
  </g>
 </g>
</svg>
