<?xml version="1.0" encoding="UTF-8"?>
<!DOCTYPE svg PUBLIC "-//W3C//DTD SVG 1.1//EN" "http://www.w3.org/Graphics/SVG/1.1/DTD/svg11.dtd">
<!-- Creator: CorelDRAW -->
<svg xmlns="http://www.w3.org/2000/svg" xml:space="preserve" width="109.106mm" height="18.4196mm" version="1.1" style="shape-rendering:geometricPrecision; text-rendering:geometricPrecision; image-rendering:optimizeQuality; fill-rule:evenodd; clip-rule:evenodd"
viewBox="0 0 7968.94 1345.34"
 xmlns:xlink="http://www.w3.org/1999/xlink"
 xmlns:xodm="http://www.corel.com/coreldraw/odm/2003">
 <defs>
  <style type="text/css">
   <![CDATA[
    .str0 {stroke:#C7AB8D;stroke-width:12.88;stroke-miterlimit:10}
    .fil1 {fill:none;fill-rule:nonzero}
    .fil3 {fill:#FFEBF8;fill-rule:nonzero}
    .fil2 {fill:url(#id0)}
    .fil0 {fill:url(#id1)}
   ]]>
  </style>
  <linearGradient id="id0" gradientUnits="userSpaceOnUse" x1="3984.47" y1="6.16" x2="3984.47" y2="1297.12">
   <stop offset="0" style="stop-opacity:1; stop-color:#FFFACC"/>
   <stop offset="0.168627" style="stop-opacity:1; stop-color:#FFECAE"/>
   <stop offset="1" style="stop-opacity:1; stop-color:#FFDE8F"/>
  </linearGradient>
  <radialGradient id="id1" gradientUnits="userSpaceOnUse" gradientTransform="matrix(0.918351 -0 -0 0.91835 345 647)" cx="4223.55" cy="7924.05" r="3984.46" fx="4223.55" fy="7924.05">
   <stop offset="0" style="stop-opacity:1; stop-color:#FFEFDF"/>
   <stop offset="0.0784314" style="stop-opacity:1; stop-color:#FFEFDF"/>
   <stop offset="0.337255" style="stop-opacity:1; stop-color:#F5DFCB"/>
   <stop offset="1" style="stop-opacity:1; stop-color:#EBD0B7"/>
   <stop offset="1" style="stop-opacity:1; stop-color:#EBD0B7"/>
  </radialGradient>
 </defs>
 <g id="Layer_x0020_1">
  <metadata id="CorelCorpID_0Corel-Layer"/>
  <g id="_2805584831248">
   <path class="fil0" d="M283.29 1345.34l7402.35 0c156.48,0 283.3,-126.85 283.3,-283.3l0 -778.76c0,-156.43 -126.82,-283.28 -283.3,-283.28l-7402.35 0c-156.46,0 -283.27,126.85 -283.27,283.28l0 778.76c0,156.46 126.82,283.3 283.27,283.3z"/>
   <line class="fil1 str0" x1="153.86" y1="31.23" x2="153.86" y2= "1314.11" />
   <line class="fil1 str0" x1="430.17" y1="0" x2="430.17" y2= "1345.34" />
   <line class="fil1 str0" x1="706.47" y1="0" x2="706.47" y2= "1345.34" />
   <line class="fil1 str0" x1="982.78" y1="0" x2="982.78" y2= "1345.34" />
   <line class="fil1 str0" x1="1259.07" y1="0" x2="1259.07" y2= "1345.34" />
   <line class="fil1 str0" x1="1535.38" y1="0" x2="1535.38" y2= "1345.34" />
   <line class="fil1 str0" x1="1811.68" y1="0" x2="1811.68" y2= "1345.34" />
   <line class="fil1 str0" x1="2087.99" y1="0" x2="2087.99" y2= "1345.34" />
   <line class="fil1 str0" x1="2364.29" y1="0" x2="2364.29" y2= "1345.34" />
   <line class="fil1 str0" x1="2640.59" y1="0" x2="2640.59" y2= "1345.34" />
   <line class="fil1 str0" x1="2916.89" y1="0" x2="2916.89" y2= "1345.34" />
   <line class="fil1 str0" x1="3193.2" y1="0" x2="3193.2" y2= "1345.34" />
   <line class="fil1 str0" x1="3469.5" y1="0" x2="3469.5" y2= "1345.34" />
   <line class="fil1 str0" x1="3745.8" y1="0" x2="3745.8" y2= "1345.34" />
   <line class="fil1 str0" x1="4022.1" y1="0" x2="4022.1" y2= "1345.34" />
   <line class="fil1 str0" x1="4298.41" y1="0" x2="4298.41" y2= "1345.34" />
   <line class="fil1 str0" x1="4574.72" y1="0" x2="4574.72" y2= "1345.34" />
   <line class="fil1 str0" x1="4851.02" y1="0" x2="4851.02" y2= "1345.34" />
   <line class="fil1 str0" x1="5127.33" y1="0" x2="5127.33" y2= "1345.34" />
   <line class="fil1 str0" x1="5403.63" y1="0" x2="5403.63" y2= "1345.34" />
   <line class="fil1 str0" x1="5679.93" y1="0" x2="5679.93" y2= "1345.34" />
   <line class="fil1 str0" x1="5956.23" y1="0" x2="5956.23" y2= "1345.34" />
   <line class="fil1 str0" x1="6232.54" y1="0" x2="6232.54" y2= "1345.34" />
   <line class="fil1 str0" x1="6508.84" y1="0" x2="6508.84" y2= "1345.34" />
   <line class="fil1 str0" x1="6785.14" y1="0" x2="6785.14" y2= "1345.34" />
   <line class="fil1 str0" x1="7061.44" y1="0" x2="7061.44" y2= "1345.34" />
   <line class="fil1 str0" x1="7337.75" y1="0" x2="7337.75" y2= "1345.34" />
   <line class="fil1 str0" x1="7614.04" y1="0" x2="7614.04" y2= "1345.34" />
   <line class="fil1 str0" x1="7890.35" y1="87.46" x2="7890.35" y2= "1257.87" />
   <line class="fil1 str0" x1="41.93" y1="134.94" x2="7927.02" y2= "134.94" />
   <line class="fil1 str0" x1="0.01" y1="384.93" x2="7968.94" y2= "384.93" />
   <line class="fil1 str0" x1="0.01" y1="634.92" x2="7968.94" y2= "634.92" />
   <line class="fil1 str0" x1="0.01" y1="884.91" x2="7968.94" y2= "884.91" />
   <line class="fil1 str0" x1="9.49" y1="1134.89" x2="7959.46" y2= "1134.89" />
   <path class="fil2" d="M219.43 1318.47l7530.08 0c121.18,0 219.43,-104.42 219.43,-233.3l0 -839.25c0,-128.87 -98.25,-233.34 -219.43,-233.34l-7530.08 0c-121.18,0 -219.43,104.47 -219.43,233.34l0 839.25c0,128.88 98.25,233.3 219.43,233.3z"/>
   <path class="fil3" d="M7685.64 0.01l-7402.34 0c-156.46,0 -283.3,126.82 -283.3,283.27l0 778.77c0,156.48 126.85,283.29 283.3,283.29l7402.34 0c156.46,0 283.3,-126.82 283.3,-283.29l0 -778.77c0,-156.46 -126.85,-283.27 -283.3,-283.27zm0 25.76c142,0 257.54,115.51 257.54,257.51l0 778.77c0,141.99 -115.54,257.53 -257.54,257.53l-7402.34 0c-142,0 -257.53,-115.54 -257.53,-257.53l0 -778.77c0,-142 115.53,-257.51 257.53,-257.51l7402.34 0z"/>
  </g>
 </g>
</svg>
