<?xml version="1.0" encoding="UTF-8"?>
<!DOCTYPE svg PUBLIC "-//W3C//DTD SVG 1.1//EN" "http://www.w3.org/Graphics/SVG/1.1/DTD/svg11.dtd">
<!-- Creator: CorelDRAW -->
<svg xmlns="http://www.w3.org/2000/svg" xml:space="preserve" width="111.556mm" height="15.0448mm" version="1.1" style="shape-rendering:geometricPrecision; text-rendering:geometricPrecision; image-rendering:optimizeQuality; fill-rule:evenodd; clip-rule:evenodd"
viewBox="0 0 18744.47 2527.93"
 xmlns:xlink="http://www.w3.org/1999/xlink"
 xmlns:xodm="http://www.corel.com/coreldraw/odm/2003">
 <defs>
  <style type="text/css">
   <![CDATA[
    .fil0 {fill:#00A2E9;fill-rule:nonzero}
   ]]>
  </style>
 </defs>
 <g id="Layer_x0020_1">
  <metadata id="CorelCorpID_0Corel-Layer"/>
  <g id="_1337467053760">
   <path class="fil0" d="M422.57 85.63c1.04,-32.13 -12.82,-55.99 -32.75,-70.25 -88.37,40.91 -166.35,100.48 -228.89,173.62 45.52,48.49 104.48,80.94 104.85,81.16l0 0.05 0 -0.05 0 0.05 0 -0.05c0.66,-0.35 153.53,-84.42 156.79,-184.53z"/>
   <path class="fil0" d="M1034.24 85.63c3.26,-100.3 -138.89,-120.27 -156.79,-17.91 -17.84,-102.36 -159.98,-82.38 -156.72,17.91 3.26,100.11 156.13,184.17 156.72,184.53l0 0.05 0 -0.05 0.07 0.05 0 -0.05c0.59,-0.35 153.46,-84.42 156.72,-184.53z"/>
   <path class="fil0" d="M1645.92 85.63c3.26,-100.3 -138.87,-120.27 -156.79,-17.91 -17.89,-102.36 -159.98,-82.38 -156.79,17.91 3.33,100.11 156.2,184.17 156.79,184.53l0 0.05 0 -0.05 0.07 0.05 0 -0.05c0.59,-0.35 153.46,-84.42 156.72,-184.53z"/>
   <path class="fil0" d="M2257.59 85.63c3.26,-100.3 -138.89,-120.27 -156.79,-17.91 -17.84,-102.36 -160,-82.38 -156.72,17.91 3.26,100.11 156.13,184.17 156.72,184.53l0 0.05 0 -0.05 0.05 0.05 0 -0.05c0.6,-0.35 153.48,-84.42 156.74,-184.53z"/>
   <path class="fil0" d="M2869.28 85.63c3.26,-100.3 -138.87,-120.27 -156.79,-17.91 -17.84,-102.36 -159.98,-82.38 -156.79,17.91 3.33,100.11 156.2,184.17 156.79,184.53l0 0.05 0 -0.05 0.07 0.05 0 -0.05c0.59,-0.35 153.46,-84.42 156.72,-184.53z"/>
   <path class="fil0" d="M3480.95 85.63c3.26,-100.3 -138.89,-120.27 -156.79,-17.91 -17.84,-102.36 -160,-82.38 -156.74,17.91 3.26,100.11 156.13,184.17 156.74,184.53l0 0.05 0 -0.05 0.05 0.05 0 -0.05c0.59,-0.35 153.48,-84.42 156.74,-184.53z"/>
   <path class="fil0" d="M4092.63 85.63c3.26,-100.3 -138.87,-120.27 -156.79,-17.91 -17.84,-102.36 -159.98,-82.38 -156.72,17.91 3.26,100.11 156.13,184.17 156.72,184.53l0 0.05 0 -0.05 0.07 0.05 0 -0.05c0.59,-0.35 153.46,-84.42 156.72,-184.53z"/>
   <path class="fil0" d="M4704.3 85.63c3.26,-100.3 -138.89,-120.27 -156.79,-17.91 -17.84,-102.36 -160,-82.38 -156.74,17.91 3.26,100.11 156.13,184.17 156.74,184.53l0 0.05 0 -0.05 0.05 0.05 0 -0.05c0.59,-0.35 153.48,-84.42 156.74,-184.53z"/>
   <path class="fil0" d="M5315.98 85.63c3.26,-100.3 -138.87,-120.27 -156.79,-17.91 -17.84,-102.36 -159.98,-82.38 -156.72,17.91 3.26,100.11 156.13,184.17 156.67,184.53l0 0.05 0.05 -0.05 0 0.05 0 -0.05c0.66,-0.35 153.53,-84.42 156.79,-184.53z"/>
   <path class="fil0" d="M5927.67 85.63c3.26,-100.3 -138.87,-120.27 -156.79,-17.91 -17.84,-102.36 -160.05,-82.38 -156.72,17.91 3.26,100.11 156.13,184.17 156.67,184.53l0 0.05 0.05 -0.05 0 0.05 0 -0.05c0.66,-0.35 153.53,-84.42 156.79,-184.53z"/>
   <path class="fil0" d="M6539.35 85.63c3.28,-100.3 -138.87,-120.27 -156.84,-17.91 -17.84,-102.36 -159.98,-82.38 -156.72,17.91 3.31,100.11 156.13,184.17 156.72,184.53l0 0.05 0 -0.05 0.07 0.05 0 -0.05c0.59,-0.35 153.46,-84.42 156.77,-184.53z"/>
   <path class="fil0" d="M7151.01 85.63c3.31,-100.3 -138.89,-120.27 -156.79,-17.91 -17.84,-102.36 -160,-82.38 -156.74,17.91 3.26,100.11 156.13,184.17 156.74,184.53l0 0.05 0 -0.05 0.05 0.05 0 -0.05c0.59,-0.35 153.46,-84.42 156.74,-184.53z"/>
   <path class="fil0" d="M7762.69 85.63c3.26,-100.3 -138.89,-120.27 -156.79,-17.91 -17.84,-102.36 -160,-82.38 -156.74,17.91 3.26,100.11 156.13,184.17 156.74,184.53l0 0.05 0 -0.05 0 0.05 0 -0.05c0.66,-0.35 153.53,-84.42 156.79,-184.53z"/>
   <path class="fil0" d="M8374.38 85.63c3.26,-100.3 -138.87,-120.27 -156.79,-17.91 -17.84,-102.36 -160.05,-82.38 -156.72,17.91 3.26,100.11 156.13,184.17 156.67,184.53l0 0.05 0.05 -0.05 0 0.05 0 -0.05c0.66,-0.35 153.53,-84.42 156.79,-184.53z"/>
   <path class="fil0" d="M8986.06 85.63c3.26,-100.3 -138.87,-120.27 -156.79,-17.91 -17.89,-102.36 -160.05,-82.38 -156.77,17.91 3.31,100.11 156.18,184.17 156.72,184.53l0 0.05 0.05 -0.05 0 0.05 0 -0.05c0.6,-0.35 153.48,-84.42 156.79,-184.53z"/>
   <path class="fil0" d="M9597.69 85.63c3.33,-100.3 -138.87,-120.27 -156.77,-17.91 -17.84,-102.36 -160,-82.38 -156.74,17.91 3.26,100.11 156.13,184.17 156.74,184.53l0 0.05 0 -0.05 0.05 0.05 0 -0.05c0.59,-0.35 153.46,-84.42 156.72,-184.53z"/>
   <path class="fil0" d="M10209.4 85.63c3.26,-100.3 -138.89,-120.27 -156.79,-17.91 -17.84,-102.36 -160,-82.38 -156.74,17.91 3.26,100.11 156.13,184.17 156.74,184.53l0 0.05 0 -0.05 0.05 0.05 0 -0.05c0.6,-0.35 153.48,-84.42 156.74,-184.53z"/>
   <path class="fil0" d="M10821.08 85.63c3.26,-100.3 -138.89,-120.27 -156.79,-17.91 -17.84,-102.36 -160.05,-82.38 -156.74,17.91 3.26,100.11 156.15,184.17 156.67,184.53l0 0.05 0.07 -0.05 0 0.05 0 -0.05c0.66,-0.35 153.53,-84.42 156.79,-184.53z"/>
   <path class="fil0" d="M11432.83 85.63c3.26,-100.3 -138.89,-120.27 -156.79,-17.91 -17.84,-102.36 -160.05,-82.38 -156.74,17.91 3.26,100.11 156.13,184.17 156.67,184.53l0 0.05 0.07 -0.05 0 0.05 0 -0.05c0.64,-0.35 153.53,-84.42 156.79,-184.53z"/>
   <path class="fil0" d="M12044.47 85.63c3.31,-100.3 -138.89,-120.27 -156.79,-17.91 -17.84,-102.36 -160,-82.38 -156.74,17.91 3.26,100.11 156.13,184.17 156.74,184.53l0 0.05 0 -0.05 0.05 0.05 0 -0.05c0.59,-0.35 153.48,-84.42 156.74,-184.53z"/>
   <path class="fil0" d="M12656.15 85.63c3.26,-100.3 -138.89,-120.27 -156.79,-17.91 -17.84,-102.36 -160,-82.38 -156.74,17.91 3.26,100.11 156.15,184.17 156.74,184.53l0 0.05 0 -0.05 0.05 0.05 0 -0.05c0.6,-0.35 153.48,-84.42 156.74,-184.53z"/>
   <path class="fil0" d="M13267.84 85.63c3.26,-100.3 -138.87,-120.27 -156.79,-17.91 -17.83,-102.36 -159.98,-82.38 -156.72,17.91 3.26,100.11 156.13,184.17 156.67,184.53l0 0.05 0.05 -0.05 0 0.05 0 -0.05c0.66,-0.35 153.53,-84.42 156.79,-184.53z"/>
   <path class="fil0" d="M13879.54 85.63c3.26,-100.3 -138.89,-120.27 -156.79,-17.91 -17.84,-102.36 -160.05,-82.38 -156.74,17.91 3.26,100.11 156.13,184.17 156.67,184.53l0 0.05 0.07 -0.05 0 0.05 0 -0.05c0.64,-0.35 153.53,-84.42 156.79,-184.53z"/>
   <path class="fil0" d="M14491.23 85.63c3.26,-100.3 -138.87,-120.27 -156.84,-17.91 -17.84,-102.36 -160,-82.38 -156.74,17.91 3.33,100.11 156.13,184.17 156.74,184.53l0 0.05 0 -0.05 0.05 0.05 0 -0.05c0.59,-0.35 153.48,-84.42 156.79,-184.53z"/>
   <path class="fil0" d="M15102.86 85.63c3.31,-100.3 -138.89,-120.27 -156.79,-17.91 -17.84,-102.36 -160,-82.38 -156.74,17.91 3.26,100.11 156.15,184.17 156.74,184.53l0 0.05 0 -0.05 0.05 0.05 0 -0.05c0.6,-0.35 153.48,-84.42 156.74,-184.53z"/>
   <path class="fil0" d="M15714.55 85.63c3.26,-100.3 -138.89,-120.27 -156.79,-17.91 -17.84,-102.36 -159.98,-82.38 -156.72,17.91 3.26,100.11 156.13,184.17 156.72,184.53l0 0.05 0 -0.05 0 0.05 0 -0.05c0.66,-0.35 153.53,-84.42 156.79,-184.53z"/>
   <path class="fil0" d="M16325.54 85.63c3.33,-100.3 -138.87,-120.27 -156.79,-17.91 -17.84,-102.36 -159.98,-82.38 -156.72,17.91 3.26,100.11 156.13,184.17 156.72,184.53l0 0.05 0 -0.05 0.07 0.05 0 -0.05c0.59,-0.35 153.46,-84.42 156.72,-184.53z"/>
   <path class="fil0" d="M16937.23 85.63c3.26,-100.3 -138.87,-120.27 -156.79,-17.91 -17.83,-102.36 -159.98,-82.38 -156.72,17.91 3.26,100.11 156.13,184.17 156.72,184.53l0 0.05 0 -0.05 0.07 0.05 0 -0.05c0.59,-0.35 153.46,-84.42 156.72,-184.53z"/>
   <path class="fil0" d="M17548.93 85.63c3.26,-100.3 -138.89,-120.27 -156.79,-17.91 -17.84,-102.36 -160.05,-82.38 -156.74,17.91 3.26,100.11 156.13,184.17 156.67,184.53l0 0.05 0.07 -0.05 0 0.05 0 -0.05c0.64,-0.35 153.53,-84.42 156.79,-184.53z"/>
   <path class="fil0" d="M18160.66 85.63c3.26,-100.3 -138.87,-120.27 -156.79,-17.91 -17.83,-102.36 -160.05,-82.38 -156.72,17.91 3.26,100.11 156.13,184.17 156.67,184.53l0 0.05 0.05 -0.05 0 0.05 0 -0.05c0.66,-0.35 153.53,-84.42 156.79,-184.53z"/>
   <path class="fil0" d="M18458.98 75.6c-0.22,3.26 -0.3,6.59 -0.18,10.03 3.26,100.11 156.13,184.17 156.72,184.53l0 0.05 0 -0.05 0.07 0.05 0 -0.05c0.13,-0.08 7.86,-4.34 19.79,-12 -46.71,-71.46 -106.66,-133.48 -176.39,-182.56z"/>
   <path class="fil0" d="M112.31 435.61c1.41,-43.25 -24.23,-71.55 -55.28,-81.56 -32.24,72.99 -51.9,152.79 -56.15,236.67 45.54,-33.13 109.34,-90.82 111.44,-155.11z"/>
   <path class="fil0" d="M723.99 435.61c3.26,-100.3 -138.89,-120.27 -156.79,-17.96 -17.84,-102.31 -160,-82.33 -156.74,17.96 3.28,100.11 156.15,184.17 156.74,184.53l0 0.05 0 -0.05 0.05 0.05 0 -0.05c0.6,-0.35 153.48,-84.42 156.74,-184.53z"/>
   <path class="fil0" d="M1335.65 435.61c3.26,-100.3 -138.87,-120.27 -156.79,-17.96 -17.83,-102.31 -159.98,-82.33 -156.72,17.96 3.26,100.11 156.13,184.17 156.72,184.53l0 0.05 0 -0.05 0.07 0.05 0 -0.05c0.59,-0.35 153.46,-84.42 156.72,-184.53z"/>
   <path class="fil0" d="M1947.35 435.61c3.26,-100.3 -138.89,-120.27 -156.79,-17.96 -17.84,-102.31 -160,-82.33 -156.74,17.96 3.28,100.11 156.15,184.17 156.74,184.53l0 0.05 0 -0.05 0.05 0.05 0 -0.05c0.6,-0.35 153.48,-84.42 156.74,-184.53z"/>
   <path class="fil0" d="M2559 435.61c3.26,-100.3 -138.87,-120.27 -156.79,-17.96 -17.83,-102.31 -159.98,-82.33 -156.72,17.96 3.26,100.11 156.13,184.17 156.72,184.53l0 0.05 0 -0.05 0.07 0.05 0 -0.05c0.59,-0.35 153.46,-84.42 156.72,-184.53z"/>
   <path class="fil0" d="M3170.7 435.61c3.26,-100.3 -138.89,-120.27 -156.79,-17.96 -17.84,-102.31 -160,-82.33 -156.74,17.96 3.26,100.11 156.15,184.17 156.74,184.53l0 0.05 0 -0.05 0.05 0.05 0 -0.05c0.6,-0.35 153.48,-84.42 156.74,-184.53z"/>
   <path class="fil0" d="M3782.39 435.61c3.26,-100.3 -138.89,-120.27 -156.79,-17.96 -17.89,-102.31 -159.98,-82.33 -156.79,17.96 3.33,100.11 156.13,184.17 156.74,184.53l0 0.05 0.05 -0.05 0 0.05 0 -0.05c0.66,-0.35 153.53,-84.42 156.79,-184.53z"/>
   <path class="fil0" d="M4394.05 435.61c3.26,-100.3 -138.89,-120.27 -156.79,-17.96 -17.84,-102.31 -160,-82.33 -156.74,17.96 3.26,100.11 156.13,184.17 156.74,184.53l0 0.05 0 -0.05 0.05 0.05 0 -0.05c0.59,-0.35 153.46,-84.42 156.74,-184.53z"/>
   <path class="fil0" d="M5005.71 435.61c3.33,-100.3 -138.82,-120.27 -156.79,-17.96 -17.84,-102.31 -159.98,-82.33 -156.72,17.96 3.26,100.11 156.13,184.17 156.72,184.53l0 0.05 0 -0.05 0.07 0.05 0 -0.05c0.59,-0.35 153.46,-84.42 156.72,-184.53z"/>
   <path class="fil0" d="M5617.39 435.61c3.28,-100.3 -138.87,-120.27 -156.77,-17.96 -17.84,-102.31 -160,-82.33 -156.74,17.96 3.26,100.11 156.13,184.17 156.74,184.53l0 0.05 0 -0.05 0 0.05 0 -0.05c0.64,-0.35 153.51,-84.42 156.77,-184.53z"/>
   <path class="fil0" d="M6229.09 435.61c3.26,-100.3 -138.89,-120.27 -156.79,-17.96 -17.84,-102.31 -160.05,-82.33 -156.72,17.96 3.26,100.11 156.13,184.17 156.67,184.53l0 0.05 0.05 -0.05 0 0.05 0 -0.05c0.66,-0.35 153.53,-84.42 156.79,-184.53z"/>
   <path class="fil0" d="M6840.78 435.61c3.26,-100.3 -138.87,-120.27 -156.79,-17.96 -17.89,-102.31 -160.05,-82.33 -156.79,17.96 3.33,100.11 156.2,184.17 156.74,184.53l0 0.05 0.05 -0.05 0 0.05 0 -0.05c0.66,-0.35 153.48,-84.42 156.79,-184.53z"/>
   <path class="fil0" d="M7452.41 435.61c3.33,-100.3 -138.87,-120.27 -156.79,-17.96 -17.84,-102.31 -159.98,-82.33 -156.72,17.96 3.26,100.11 156.13,184.17 156.72,184.53l0 0.05 0 -0.05 0.07 0.05 0 -0.05c0.59,-0.35 153.46,-84.42 156.72,-184.53z"/>
   <path class="fil0" d="M8064.1 435.61c3.26,-100.3 -138.87,-120.27 -156.79,-17.96 -17.83,-102.31 -159.98,-82.33 -156.72,17.96 3.26,100.11 156.13,184.17 156.72,184.53l0 0.05 0 -0.05 0.07 0.05 0 -0.05c0.59,-0.35 153.46,-84.42 156.72,-184.53z"/>
   <path class="fil0" d="M8675.8 435.61c3.26,-100.3 -138.89,-120.27 -156.79,-17.96 -17.84,-102.31 -160,-82.33 -156.74,17.96 3.26,100.11 156.13,184.17 156.67,184.53l0 0.05 0.07 -0.05 0 0.05 0 -0.05c0.64,-0.35 153.53,-84.42 156.79,-184.53z"/>
   <path class="fil0" d="M9287.48 435.61c3.26,-100.3 -138.87,-120.27 -156.79,-17.96 -17.84,-102.31 -160.05,-82.33 -156.72,17.96 3.26,100.11 156.13,184.17 156.67,184.53l0 0.05 0.05 -0.05 0 0.05 0 -0.05c0.66,-0.35 153.53,-84.42 156.79,-184.53z"/>
   <path class="fil0" d="M9899.12 435.61c3.31,-100.3 -138.89,-120.27 -156.79,-17.96 -17.84,-102.31 -160,-82.33 -156.74,17.96 3.26,100.11 156.15,184.17 156.74,184.53l0 0.05 0 -0.05 0.05 0.05 0 -0.05c0.6,-0.35 153.48,-84.42 156.74,-184.53z"/>
   <path class="fil0" d="M10510.8 435.61c3.33,-100.3 -138.87,-120.27 -156.79,-17.96 -17.83,-102.31 -159.98,-82.33 -156.72,17.96 3.26,100.11 156.13,184.17 156.72,184.53l0 0.05 0 -0.05 0.07 0.05 0 -0.05c0.59,-0.35 153.46,-84.42 156.72,-184.53z"/>
   <path class="fil0" d="M11122.56 435.61c3.26,-100.3 -138.87,-120.27 -156.79,-17.96 -17.84,-102.31 -159.98,-82.33 -156.72,17.96 3.26,100.11 156.13,184.17 156.67,184.53l0 0.05 0.05 -0.05 0 0.05 0 -0.05c0.66,-0.35 153.53,-84.42 156.79,-184.53z"/>
   <path class="fil0" d="M11734.24 435.61c3.26,-100.3 -138.87,-120.27 -156.79,-17.96 -17.83,-102.31 -160.05,-82.33 -156.72,17.96 3.26,100.11 156.13,184.17 156.67,184.53l0 0.05 0.05 -0.05 0 0.05 0 -0.05c0.66,-0.35 153.53,-84.42 156.79,-184.53z"/>
   <path class="fil0" d="M12345.94 435.61c3.26,-100.3 -138.89,-120.27 -156.85,-17.96 -17.84,-102.31 -159.98,-82.33 -156.72,17.96 3.31,100.11 156.18,184.17 156.72,184.53l0 0.05 0 -0.05 0.07 0.05 0 -0.05c0.59,-0.35 153.46,-84.42 156.79,-184.53z"/>
   <path class="fil0" d="M12957.58 435.61c3.31,-100.3 -138.89,-120.27 -156.79,-17.96 -17.84,-102.31 -160,-82.33 -156.74,17.96 3.26,100.11 156.13,184.17 156.74,184.53l0 0.05 0 -0.05 0.05 0.05 0 -0.05c0.59,-0.35 153.48,-84.42 156.74,-184.53z"/>
   <path class="fil0" d="M13569.26 435.61c3.26,-100.3 -138.89,-120.27 -156.79,-17.96 -17.84,-102.31 -160,-82.33 -156.74,17.96 3.26,100.11 156.15,184.17 156.74,184.53l0 0.05 0 -0.05 0.05 0.05 0 -0.05c0.6,-0.35 153.48,-84.42 156.74,-184.53z"/>
   <path class="fil0" d="M14180.95 435.61c3.26,-100.3 -138.87,-120.27 -156.79,-17.96 -17.84,-102.31 -160.05,-82.33 -156.72,17.96 3.26,100.11 156.13,184.17 156.67,184.53l0 0.05 0.05 -0.05 0 0.05 0 -0.05c0.66,-0.35 153.53,-84.42 156.79,-184.53z"/>
   <path class="fil0" d="M14792.65 435.61c3.26,-100.3 -138.89,-120.27 -156.79,-17.96 -17.84,-102.31 -160.05,-82.33 -156.79,17.96 3.31,100.11 156.18,184.17 156.72,184.53l0 0.05 0.07 -0.05 0 0.05 0 -0.05c0.64,-0.35 153.46,-84.42 156.79,-184.53z"/>
   <path class="fil0" d="M15404.28 435.61c3.31,-100.3 -138.89,-120.27 -156.79,-17.96 -17.84,-102.31 -160,-82.33 -156.74,17.96 3.26,100.11 156.13,184.17 156.74,184.53l0 0.05 0 -0.05 0.05 0.05 0 -0.05c0.59,-0.35 153.48,-84.42 156.74,-184.53z"/>
   <path class="fil0" d="M16015.33 435.61c3.26,-100.3 -138.89,-120.27 -156.79,-17.96 -17.84,-102.31 -160.05,-82.33 -156.72,17.96 3.26,100.11 156.13,184.17 156.65,184.53l0 0.05 0.07 -0.05 0 0.05 0 -0.05c0.66,-0.35 153.53,-84.42 156.79,-184.53z"/>
   <path class="fil0" d="M16626.96 435.61c3.31,-100.3 -138.89,-120.27 -156.79,-17.96 -17.84,-102.31 -160,-82.33 -156.74,17.96 3.26,100.11 156.13,184.17 156.74,184.53l0 0.05 0 -0.05 0.05 0.05 0 -0.05c0.59,-0.35 153.48,-84.42 156.74,-184.53z"/>
   <path class="fil0" d="M17238.65 435.61c3.33,-100.3 -138.87,-120.27 -156.79,-17.96 -17.84,-102.31 -159.98,-82.33 -156.72,17.96 3.26,100.11 156.13,184.17 156.72,184.53l0 0.05 0 -0.05 0.07 0.05 0 -0.05c0.59,-0.35 153.46,-84.42 156.72,-184.53z"/>
   <path class="fil0" d="M17850.4 435.61c3.26,-100.3 -138.89,-120.27 -156.79,-17.96 -17.84,-102.31 -160,-82.33 -156.72,17.96 3.26,100.11 156.13,184.17 156.65,184.53l0 0.05 0.07 -0.05 0 0.05 0 -0.05c0.66,-0.35 153.53,-84.42 156.79,-184.53z"/>
   <path class="fil0" d="M18462.09 435.61c3.26,-100.3 -138.87,-120.27 -156.79,-17.96 -17.84,-102.31 -160.05,-82.33 -156.72,17.96 3.26,100.11 156.13,184.17 156.67,184.53l0 0.05 0.05 -0.05 0 0.05 0 -0.05c0.66,-0.35 153.53,-84.42 156.79,-184.53z"/>
   <path class="fil0" d="M422.57 808.28c3.26,-100.3 -138.87,-120.26 -156.79,-17.89 -17.89,-102.36 -159.98,-82.4 -156.79,17.89 3.33,100.13 156.2,184.17 156.79,184.53l0 0.07 0 -0.07 0 0.07 0 -0.07c0.66,-0.35 153.53,-84.4 156.79,-184.53z"/>
   <path class="fil0" d="M1034.24 808.28c3.26,-100.3 -138.89,-120.26 -156.79,-17.89 -17.84,-102.36 -159.98,-82.4 -156.72,17.89 3.26,100.13 156.13,184.17 156.72,184.53l0 0.07 0 -0.07 0.07 0.07 0 -0.07c0.59,-0.35 153.46,-84.4 156.72,-184.53z"/>
   <path class="fil0" d="M1645.92 808.28c3.26,-100.3 -138.87,-120.26 -156.79,-17.89 -17.89,-102.36 -159.98,-82.4 -156.79,17.89 3.33,100.13 156.2,184.17 156.79,184.53l0 0.07 0 -0.07 0.07 0.07 0 -0.07c0.59,-0.35 153.46,-84.4 156.72,-184.53z"/>
   <path class="fil0" d="M2257.59 808.28c3.26,-100.3 -138.89,-120.26 -156.79,-17.89 -17.84,-102.36 -160,-82.4 -156.72,17.89 3.26,100.13 156.13,184.17 156.72,184.53l0 0.07 0 -0.07 0.05 0.07 0 -0.07c0.6,-0.35 153.48,-84.4 156.74,-184.53z"/>
   <path class="fil0" d="M2869.28 808.28c3.26,-100.3 -138.87,-120.26 -156.79,-17.89 -17.84,-102.36 -159.98,-82.4 -156.79,17.89 3.33,100.13 156.2,184.17 156.79,184.53l0 0.07 0 -0.07 0.07 0.07 0 -0.07c0.59,-0.35 153.46,-84.4 156.72,-184.53z"/>
   <path class="fil0" d="M3480.95 808.28c3.26,-100.3 -138.89,-120.26 -156.79,-17.89 -17.84,-102.36 -160,-82.4 -156.74,17.89 3.26,100.13 156.13,184.17 156.74,184.53l0 0.07 0 -0.07 0.05 0.07 0 -0.07c0.59,-0.35 153.48,-84.4 156.74,-184.53z"/>
   <path class="fil0" d="M4092.63 808.28c3.26,-100.3 -138.87,-120.26 -156.79,-17.89 -17.84,-102.36 -159.98,-82.4 -156.72,17.89 3.26,100.13 156.13,184.17 156.72,184.53l0 0.07 0 -0.07 0.07 0.07 0 -0.07c0.59,-0.35 153.46,-84.4 156.72,-184.53z"/>
   <path class="fil0" d="M4704.3 808.28c3.26,-100.3 -138.89,-120.26 -156.79,-17.89 -17.84,-102.36 -160,-82.4 -156.74,17.89 3.26,100.13 156.13,184.17 156.74,184.53l0 0.07 0 -0.07 0.05 0.07 0 -0.07c0.59,-0.35 153.48,-84.4 156.74,-184.53z"/>
   <path class="fil0" d="M5315.98 808.28c3.26,-100.3 -138.87,-120.26 -156.79,-17.89 -17.84,-102.36 -159.98,-82.4 -156.72,17.89 3.26,100.13 156.13,184.17 156.67,184.53l0 0.07 0.05 -0.07 0 0.07 0 -0.07c0.66,-0.35 153.53,-84.4 156.79,-184.53z"/>
   <path class="fil0" d="M5927.67 808.28c3.26,-100.3 -138.87,-120.26 -156.79,-17.89 -17.84,-102.36 -160.05,-82.4 -156.72,17.89 3.26,100.13 156.13,184.17 156.67,184.53l0 0.07 0.05 -0.07 0 0.07 0 -0.07c0.66,-0.35 153.53,-84.4 156.79,-184.53z"/>
   <path class="fil0" d="M6539.35 808.28c3.28,-100.3 -138.87,-120.26 -156.84,-17.89 -17.84,-102.36 -159.98,-82.4 -156.72,17.89 3.31,100.13 156.13,184.17 156.72,184.53l0 0.07 0 -0.07 0.07 0.07 0 -0.07c0.59,-0.35 153.46,-84.4 156.77,-184.53z"/>
   <path class="fil0" d="M7151.01 808.28c3.31,-100.3 -138.89,-120.26 -156.79,-17.89 -17.84,-102.36 -160,-82.4 -156.74,17.89 3.26,100.13 156.13,184.17 156.74,184.53l0 0.07 0 -0.07 0.05 0.07 0 -0.07c0.59,-0.35 153.46,-84.4 156.74,-184.53z"/>
   <path class="fil0" d="M7762.69 808.28c3.26,-100.3 -138.89,-120.26 -156.79,-17.89 -17.84,-102.36 -160,-82.4 -156.74,17.89 3.26,100.13 156.13,184.17 156.74,184.53l0 0.07 0 -0.07 0 0.07 0 -0.07c0.66,-0.35 153.53,-84.4 156.79,-184.53z"/>
   <path class="fil0" d="M8374.38 808.28c3.26,-100.3 -138.87,-120.26 -156.79,-17.89 -17.84,-102.36 -160.05,-82.4 -156.72,17.89 3.26,100.13 156.13,184.17 156.67,184.53l0 0.07 0.05 -0.07 0 0.07 0 -0.07c0.66,-0.35 153.53,-84.4 156.79,-184.53z"/>
   <path class="fil0" d="M8986.06 808.28c3.26,-100.3 -138.87,-120.26 -156.79,-17.89 -17.89,-102.36 -160.05,-82.4 -156.77,17.89 3.31,100.13 156.18,184.17 156.72,184.53l0 0.07 0.05 -0.07 0 0.07 0 -0.07c0.6,-0.35 153.48,-84.4 156.79,-184.53z"/>
   <path class="fil0" d="M9597.69 808.28c3.33,-100.3 -138.87,-120.26 -156.77,-17.89 -17.84,-102.36 -160,-82.4 -156.74,17.89 3.26,100.13 156.13,184.17 156.74,184.53l0 0.07 0 -0.07 0.05 0.07 0 -0.07c0.59,-0.35 153.46,-84.4 156.72,-184.53z"/>
   <path class="fil0" d="M10209.4 808.28c3.26,-100.3 -138.89,-120.26 -156.79,-17.89 -17.84,-102.36 -160,-82.4 -156.74,17.89 3.26,100.13 156.13,184.17 156.74,184.53l0 0.07 0 -0.07 0.05 0.07 0 -0.07c0.6,-0.35 153.48,-84.4 156.74,-184.53z"/>
   <path class="fil0" d="M10821.08 808.28c3.26,-100.3 -138.89,-120.26 -156.79,-17.89 -17.84,-102.36 -160.05,-82.4 -156.74,17.89 3.26,100.13 156.15,184.17 156.67,184.53l0 0.07 0.07 -0.07 0 0.07 0 -0.07c0.66,-0.35 153.53,-84.4 156.79,-184.53z"/>
   <path class="fil0" d="M11432.83 808.28c3.26,-100.3 -138.89,-120.26 -156.79,-17.89 -17.84,-102.36 -160.05,-82.4 -156.74,17.89 3.26,100.13 156.13,184.17 156.67,184.53l0 0.07 0.07 -0.07 0 0.07 0 -0.07c0.64,-0.35 153.53,-84.4 156.79,-184.53z"/>
   <path class="fil0" d="M12044.47 808.28c3.31,-100.3 -138.89,-120.26 -156.79,-17.89 -17.84,-102.36 -160,-82.4 -156.74,17.89 3.26,100.13 156.13,184.17 156.74,184.53l0 0.07 0 -0.07 0.05 0.07 0 -0.07c0.59,-0.35 153.48,-84.4 156.74,-184.53z"/>
   <path class="fil0" d="M12656.15 808.28c3.26,-100.3 -138.89,-120.26 -156.79,-17.89 -17.84,-102.36 -160,-82.4 -156.74,17.89 3.26,100.13 156.15,184.17 156.74,184.53l0 0.07 0 -0.07 0.05 0.07 0 -0.07c0.6,-0.35 153.48,-84.4 156.74,-184.53z"/>
   <path class="fil0" d="M13267.84 808.28c3.26,-100.3 -138.87,-120.26 -156.79,-17.89 -17.83,-102.36 -159.98,-82.4 -156.72,17.89 3.26,100.13 156.13,184.17 156.67,184.53l0 0.07 0.05 -0.07 0 0.07 0 -0.07c0.66,-0.35 153.53,-84.4 156.79,-184.53z"/>
   <path class="fil0" d="M13879.54 808.28c3.26,-100.3 -138.89,-120.26 -156.79,-17.89 -17.84,-102.36 -160.05,-82.4 -156.74,17.89 3.26,100.13 156.13,184.17 156.67,184.53l0 0.07 0.07 -0.07 0 0.07 0 -0.07c0.64,-0.35 153.53,-84.4 156.79,-184.53z"/>
   <path class="fil0" d="M14491.23 808.28c3.26,-100.3 -138.87,-120.26 -156.84,-17.89 -17.84,-102.36 -160,-82.4 -156.74,17.89 3.33,100.13 156.13,184.17 156.74,184.53l0 0.07 0 -0.07 0.05 0.07 0 -0.07c0.59,-0.35 153.48,-84.4 156.79,-184.53z"/>
   <path class="fil0" d="M15102.86 808.28c3.31,-100.3 -138.89,-120.26 -156.79,-17.89 -17.84,-102.36 -160,-82.4 -156.74,17.89 3.26,100.13 156.15,184.17 156.74,184.53l0 0.07 0 -0.07 0.05 0.07 0 -0.07c0.6,-0.35 153.48,-84.4 156.74,-184.53z"/>
   <path class="fil0" d="M15714.55 808.28c3.26,-100.3 -138.89,-120.26 -156.79,-17.89 -17.84,-102.36 -159.98,-82.4 -156.72,17.89 3.26,100.13 156.13,184.17 156.72,184.53l0 0.07 0 -0.07 0 0.07 0 -0.07c0.66,-0.35 153.53,-84.4 156.79,-184.53z"/>
   <path class="fil0" d="M16325.54 808.28c3.33,-100.3 -138.87,-120.26 -156.79,-17.89 -17.84,-102.36 -159.98,-82.4 -156.72,17.89 3.26,100.13 156.13,184.17 156.72,184.53l0 0.07 0 -0.07 0.07 0.07 0 -0.07c0.59,-0.35 153.46,-84.4 156.72,-184.53z"/>
   <path class="fil0" d="M16937.23 808.28c3.26,-100.3 -138.87,-120.26 -156.79,-17.89 -17.83,-102.36 -159.98,-82.4 -156.72,17.89 3.26,100.13 156.13,184.17 156.72,184.53l0 0.07 0 -0.07 0.07 0.07 0 -0.07c0.59,-0.35 153.46,-84.4 156.72,-184.53z"/>
   <path class="fil0" d="M17548.93 808.28c3.26,-100.3 -138.89,-120.26 -156.79,-17.89 -17.84,-102.36 -160.05,-82.4 -156.74,17.89 3.26,100.13 156.13,184.17 156.67,184.53l0 0.07 0.07 -0.07 0 0.07 0 -0.07c0.64,-0.35 153.53,-84.4 156.79,-184.53z"/>
   <path class="fil0" d="M18160.66 808.28c3.26,-100.3 -138.87,-120.26 -156.79,-17.89 -17.83,-102.36 -160.05,-82.4 -156.72,17.89 3.26,100.13 156.13,184.17 156.67,184.53l0 0.07 0.05 -0.07 0 0.07 0 -0.07c0.66,-0.35 153.53,-84.4 156.79,-184.53z"/>
   <path class="fil0" d="M18744.47 741.84c-41.57,-35.03 -116.31,-23.81 -128.96,48.54 -17.83,-102.36 -159.98,-82.4 -156.72,17.89 3.26,100.13 156.13,184.17 156.72,184.53l0 0.07 0 -0.07 0.07 0.07 0 -0.07c0.44,-0.27 83.95,-46.19 128.89,-110.54l0 -140.42z"/>
   <path class="fil0" d="M112.31 1158.26c2.25,-69.18 -64.69,-100.14 -112.31,-79.09l0 234.82c45.6,-33.02 110.21,-91 112.31,-155.73z"/>
   <path class="fil0" d="M723.99 1158.26c3.26,-100.3 -138.89,-120.26 -156.79,-17.89 -17.84,-102.36 -160,-82.4 -156.74,17.89 3.28,100.13 156.15,184.17 156.74,184.53l0 0.07 0 -0.07 0.05 0.07 0 -0.07c0.6,-0.35 153.48,-84.4 156.74,-184.53z"/>
   <path class="fil0" d="M1335.65 1158.26c3.26,-100.3 -138.87,-120.26 -156.79,-17.89 -17.83,-102.36 -159.98,-82.4 -156.72,17.89 3.26,100.13 156.13,184.17 156.72,184.53l0 0.07 0 -0.07 0.07 0.07 0 -0.07c0.59,-0.35 153.46,-84.4 156.72,-184.53z"/>
   <path class="fil0" d="M1947.35 1158.26c3.26,-100.3 -138.89,-120.26 -156.79,-17.89 -17.84,-102.36 -160,-82.4 -156.74,17.89 3.28,100.13 156.15,184.17 156.74,184.53l0 0.07 0 -0.07 0.05 0.07 0 -0.07c0.6,-0.35 153.48,-84.4 156.74,-184.53z"/>
   <path class="fil0" d="M2559 1158.26c3.26,-100.3 -138.87,-120.26 -156.79,-17.89 -17.83,-102.36 -159.98,-82.4 -156.72,17.89 3.26,100.13 156.13,184.17 156.72,184.53l0 0.07 0 -0.07 0.07 0.07 0 -0.07c0.59,-0.35 153.46,-84.4 156.72,-184.53z"/>
   <path class="fil0" d="M3170.7 1158.26c3.26,-100.3 -138.89,-120.26 -156.79,-17.89 -17.84,-102.36 -160,-82.4 -156.74,17.89 3.26,100.13 156.15,184.17 156.74,184.53l0 0.07 0 -0.07 0.05 0.07 0 -0.07c0.6,-0.35 153.48,-84.4 156.74,-184.53z"/>
   <path class="fil0" d="M3782.39 1158.26c3.26,-100.3 -138.89,-120.26 -156.79,-17.89 -17.89,-102.36 -159.98,-82.4 -156.79,17.89 3.33,100.13 156.13,184.17 156.74,184.53l0 0.07 0.05 -0.07 0 0.07 0 -0.07c0.66,-0.35 153.53,-84.4 156.79,-184.53z"/>
   <path class="fil0" d="M4394.05 1158.26c3.26,-100.3 -138.89,-120.26 -156.79,-17.89 -17.84,-102.36 -160,-82.4 -156.74,17.89 3.26,100.13 156.13,184.17 156.74,184.53l0 0.07 0 -0.07 0.05 0.07 0 -0.07c0.59,-0.35 153.46,-84.4 156.74,-184.53z"/>
   <path class="fil0" d="M5005.71 1158.26c3.33,-100.3 -138.82,-120.26 -156.79,-17.89 -17.84,-102.36 -159.98,-82.4 -156.72,17.89 3.26,100.13 156.13,184.17 156.72,184.53l0 0.07 0 -0.07 0.07 0.07 0 -0.07c0.59,-0.35 153.46,-84.4 156.72,-184.53z"/>
   <path class="fil0" d="M5617.39 1158.26c3.28,-100.3 -138.87,-120.26 -156.77,-17.89 -17.84,-102.36 -160,-82.4 -156.74,17.89 3.26,100.13 156.13,184.17 156.74,184.53l0 0.07 0 -0.07 0 0.07 0 -0.07c0.64,-0.35 153.51,-84.4 156.77,-184.53z"/>
   <path class="fil0" d="M6229.09 1158.26c3.26,-100.3 -138.89,-120.26 -156.79,-17.89 -17.84,-102.36 -160.05,-82.4 -156.72,17.89 3.26,100.13 156.13,184.17 156.67,184.53l0 0.07 0.05 -0.07 0 0.07 0 -0.07c0.66,-0.35 153.53,-84.4 156.79,-184.53z"/>
   <path class="fil0" d="M6840.78 1158.26c3.26,-100.3 -138.87,-120.26 -156.79,-17.89 -17.89,-102.36 -160.05,-82.4 -156.79,17.89 3.33,100.13 156.2,184.17 156.74,184.53l0 0.07 0.05 -0.07 0 0.07 0 -0.07c0.66,-0.35 153.48,-84.4 156.79,-184.53z"/>
   <path class="fil0" d="M7452.41 1158.26c3.33,-100.3 -138.87,-120.26 -156.79,-17.89 -17.84,-102.36 -159.98,-82.4 -156.72,17.89 3.26,100.13 156.13,184.17 156.72,184.53l0 0.07 0 -0.07 0.07 0.07 0 -0.07c0.59,-0.35 153.46,-84.4 156.72,-184.53z"/>
   <path class="fil0" d="M8064.1 1158.26c3.26,-100.3 -138.87,-120.26 -156.79,-17.89 -17.83,-102.36 -159.98,-82.4 -156.72,17.89 3.26,100.13 156.13,184.17 156.72,184.53l0 0.07 0 -0.07 0.07 0.07 0 -0.07c0.59,-0.35 153.46,-84.4 156.72,-184.53z"/>
   <path class="fil0" d="M8675.8 1158.26c3.26,-100.3 -138.89,-120.26 -156.79,-17.89 -17.84,-102.36 -160,-82.4 -156.74,17.89 3.26,100.13 156.13,184.17 156.67,184.53l0 0.07 0.07 -0.07 0 0.07 0 -0.07c0.64,-0.35 153.53,-84.4 156.79,-184.53z"/>
   <path class="fil0" d="M9287.48 1158.26c3.26,-100.3 -138.87,-120.26 -156.79,-17.89 -17.84,-102.36 -160.05,-82.4 -156.72,17.89 3.26,100.13 156.13,184.17 156.67,184.53l0 0.07 0.05 -0.07 0 0.07 0 -0.07c0.66,-0.35 153.53,-84.4 156.79,-184.53z"/>
   <path class="fil0" d="M9899.12 1158.26c3.31,-100.3 -138.89,-120.26 -156.79,-17.89 -17.84,-102.36 -160,-82.4 -156.74,17.89 3.26,100.13 156.15,184.17 156.74,184.53l0 0.07 0 -0.07 0.05 0.07 0 -0.07c0.6,-0.35 153.48,-84.4 156.74,-184.53z"/>
   <path class="fil0" d="M10510.8 1158.26c3.33,-100.3 -138.87,-120.26 -156.79,-17.89 -17.83,-102.36 -159.98,-82.4 -156.72,17.89 3.26,100.13 156.13,184.17 156.72,184.53l0 0.07 0 -0.07 0.07 0.07 0 -0.07c0.59,-0.35 153.46,-84.4 156.72,-184.53z"/>
   <path class="fil0" d="M11122.56 1158.26c3.26,-100.3 -138.87,-120.26 -156.79,-17.89 -17.84,-102.36 -159.98,-82.4 -156.72,17.89 3.26,100.13 156.13,184.17 156.67,184.53l0 0.07 0.05 -0.07 0 0.07 0 -0.07c0.66,-0.35 153.53,-84.4 156.79,-184.53z"/>
   <path class="fil0" d="M11734.24 1158.26c3.26,-100.3 -138.87,-120.26 -156.79,-17.89 -17.83,-102.36 -160.05,-82.4 -156.72,17.89 3.26,100.13 156.13,184.17 156.67,184.53l0 0.07 0.05 -0.07 0 0.07 0 -0.07c0.66,-0.35 153.53,-84.4 156.79,-184.53z"/>
   <path class="fil0" d="M12345.94 1158.26c3.26,-100.3 -138.89,-120.26 -156.85,-17.89 -17.84,-102.36 -159.98,-82.4 -156.72,17.89 3.31,100.13 156.18,184.17 156.72,184.53l0 0.07 0 -0.07 0.07 0.07 0 -0.07c0.59,-0.35 153.46,-84.4 156.79,-184.53z"/>
   <path class="fil0" d="M12957.58 1158.26c3.31,-100.3 -138.89,-120.26 -156.79,-17.89 -17.84,-102.36 -160,-82.4 -156.74,17.89 3.26,100.13 156.13,184.17 156.74,184.53l0 0.07 0 -0.07 0.05 0.07 0 -0.07c0.59,-0.35 153.48,-84.4 156.74,-184.53z"/>
   <path class="fil0" d="M13569.26 1158.26c3.26,-100.3 -138.89,-120.26 -156.79,-17.89 -17.84,-102.36 -160,-82.4 -156.74,17.89 3.26,100.13 156.15,184.17 156.74,184.53l0 0.07 0 -0.07 0.05 0.07 0 -0.07c0.6,-0.35 153.48,-84.4 156.74,-184.53z"/>
   <path class="fil0" d="M14180.95 1158.26c3.26,-100.3 -138.87,-120.26 -156.79,-17.89 -17.84,-102.36 -160.05,-82.4 -156.72,17.89 3.26,100.13 156.13,184.17 156.67,184.53l0 0.07 0.05 -0.07 0 0.07 0 -0.07c0.66,-0.35 153.53,-84.4 156.79,-184.53z"/>
   <path class="fil0" d="M14792.65 1158.26c3.26,-100.3 -138.89,-120.26 -156.79,-17.89 -17.84,-102.36 -160.05,-82.4 -156.79,17.89 3.31,100.13 156.18,184.17 156.72,184.53l0 0.07 0.07 -0.07 0 0.07 0 -0.07c0.64,-0.35 153.46,-84.4 156.79,-184.53z"/>
   <path class="fil0" d="M15404.28 1158.26c3.31,-100.3 -138.89,-120.26 -156.79,-17.89 -17.84,-102.36 -160,-82.4 -156.74,17.89 3.26,100.13 156.13,184.17 156.74,184.53l0 0.07 0 -0.07 0.05 0.07 0 -0.07c0.59,-0.35 153.48,-84.4 156.74,-184.53z"/>
   <path class="fil0" d="M16015.33 1158.26c3.26,-100.3 -138.89,-120.26 -156.79,-17.89 -17.84,-102.36 -160.05,-82.4 -156.72,17.89 3.26,100.13 156.13,184.17 156.65,184.53l0 0.07 0.07 -0.07 0 0.07 0 -0.07c0.66,-0.35 153.53,-84.4 156.79,-184.53z"/>
   <path class="fil0" d="M16626.96 1158.26c3.31,-100.3 -138.89,-120.26 -156.79,-17.89 -17.84,-102.36 -160,-82.4 -156.74,17.89 3.26,100.13 156.13,184.17 156.74,184.53l0 0.07 0 -0.07 0.05 0.07 0 -0.07c0.59,-0.35 153.48,-84.4 156.74,-184.53z"/>
   <path class="fil0" d="M17238.65 1158.26c3.33,-100.3 -138.87,-120.26 -156.79,-17.89 -17.84,-102.36 -159.98,-82.4 -156.72,17.89 3.26,100.13 156.13,184.17 156.72,184.53l0 0.07 0 -0.07 0.07 0.07 0 -0.07c0.59,-0.35 153.46,-84.4 156.72,-184.53z"/>
   <path class="fil0" d="M17850.4 1158.26c3.26,-100.3 -138.89,-120.26 -156.79,-17.89 -17.84,-102.36 -160,-82.4 -156.72,17.89 3.26,100.13 156.13,184.17 156.65,184.53l0 0.07 0.07 -0.07 0 0.07 0 -0.07c0.66,-0.35 153.53,-84.4 156.79,-184.53z"/>
   <path class="fil0" d="M18462.09 1158.26c3.26,-100.3 -138.87,-120.26 -156.79,-17.89 -17.84,-102.36 -160.05,-82.4 -156.72,17.89 3.26,100.13 156.13,184.17 156.67,184.53l0 0.07 0.05 -0.07 0 0.07 0 -0.07c0.66,-0.35 153.53,-84.4 156.79,-184.53z"/>
   <path class="fil0" d="M422.57 1530.94c3.26,-100.24 -138.87,-120.27 -156.79,-17.89 -17.89,-102.38 -159.98,-82.35 -156.79,17.89 3.33,100.11 156.2,184.22 156.79,184.53l0 0.05 0 -0.05c0.66,-0.3 153.53,-84.42 156.79,-184.53z"/>
   <path class="fil0" d="M1034.24 1530.94c3.26,-100.24 -138.89,-120.27 -156.79,-17.89 -17.84,-102.38 -159.98,-82.35 -156.72,17.89 3.26,100.11 156.13,184.22 156.72,184.53l0 0.05 0.07 0 0 -0.05c0.59,-0.3 153.46,-84.42 156.72,-184.53z"/>
   <path class="fil0" d="M1645.92 1530.94c3.26,-100.24 -138.87,-120.27 -156.79,-17.89 -17.89,-102.38 -159.98,-82.35 -156.79,17.89 3.33,100.11 156.2,184.22 156.79,184.53l0 0.05 0.07 0 0 -0.05c0.59,-0.3 153.46,-84.42 156.72,-184.53z"/>
   <path class="fil0" d="M2257.59 1530.94c3.26,-100.24 -138.89,-120.27 -156.79,-17.89 -17.84,-102.38 -160,-82.35 -156.72,17.89 3.26,100.11 156.13,184.22 156.72,184.53l0 0.05 0.05 0 0 -0.05c0.6,-0.3 153.48,-84.42 156.74,-184.53z"/>
   <path class="fil0" d="M2869.28 1530.94c3.26,-100.24 -138.87,-120.27 -156.79,-17.89 -17.84,-102.38 -159.98,-82.35 -156.79,17.89 3.33,100.11 156.2,184.22 156.79,184.53l0 0.05 0.07 0 0 -0.05c0.59,-0.3 153.46,-84.42 156.72,-184.53z"/>
   <path class="fil0" d="M3480.95 1530.94c3.26,-100.24 -138.89,-120.27 -156.79,-17.89 -17.84,-102.38 -160,-82.35 -156.74,17.89 3.26,100.11 156.13,184.22 156.74,184.53l0 0.05 0.05 0 0 -0.05c0.59,-0.3 153.48,-84.42 156.74,-184.53z"/>
   <path class="fil0" d="M4092.63 1530.94c3.26,-100.24 -138.87,-120.27 -156.79,-17.89 -17.84,-102.38 -159.98,-82.35 -156.72,17.89 3.26,100.11 156.13,184.22 156.72,184.53l0 0.05 0.07 0 0 -0.05c0.59,-0.3 153.46,-84.42 156.72,-184.53z"/>
   <path class="fil0" d="M4704.3 1530.94c3.26,-100.24 -138.89,-120.27 -156.79,-17.89 -17.84,-102.38 -160,-82.35 -156.74,17.89 3.26,100.11 156.13,184.22 156.74,184.53l0 0.05 0.05 0 0 -0.05c0.59,-0.3 153.48,-84.42 156.74,-184.53z"/>
   <path class="fil0" d="M5315.98 1530.94c3.26,-100.24 -138.87,-120.27 -156.79,-17.89 -17.84,-102.38 -159.98,-82.35 -156.72,17.89 3.26,100.11 156.13,184.22 156.67,184.53l0 0.05 0.05 0 0 -0.05c0.66,-0.3 153.53,-84.42 156.79,-184.53z"/>
   <path class="fil0" d="M5927.67 1530.94c3.26,-100.24 -138.87,-120.27 -156.79,-17.89 -17.84,-102.38 -160.05,-82.35 -156.72,17.89 3.26,100.11 156.13,184.22 156.67,184.53l0 0.05 0.05 0 0 -0.05c0.66,-0.3 153.53,-84.42 156.79,-184.53z"/>
   <path class="fil0" d="M6539.35 1530.94c3.28,-100.24 -138.87,-120.27 -156.84,-17.89 -17.84,-102.38 -159.98,-82.35 -156.72,17.89 3.31,100.11 156.13,184.22 156.72,184.53l0 0.05 0.07 0 0 -0.05c0.59,-0.3 153.46,-84.42 156.77,-184.53z"/>
   <path class="fil0" d="M7151.01 1530.94c3.31,-100.24 -138.89,-120.27 -156.79,-17.89 -17.84,-102.38 -160,-82.35 -156.74,17.89 3.26,100.11 156.13,184.22 156.74,184.53l0 0.05 0.05 0 0 -0.05c0.59,-0.3 153.46,-84.42 156.74,-184.53z"/>
   <path class="fil0" d="M7762.69 1530.94c3.26,-100.24 -138.89,-120.27 -156.79,-17.89 -17.84,-102.38 -160,-82.35 -156.74,17.89 3.26,100.11 156.13,184.22 156.74,184.53l0 0.05 0 -0.05c0.66,-0.3 153.53,-84.42 156.79,-184.53z"/>
   <path class="fil0" d="M8374.38 1530.94c3.26,-100.24 -138.87,-120.27 -156.79,-17.89 -17.84,-102.38 -160.05,-82.35 -156.72,17.89 3.26,100.11 156.13,184.22 156.67,184.53l0 0.05 0.05 0 0 -0.05c0.66,-0.3 153.53,-84.42 156.79,-184.53z"/>
   <path class="fil0" d="M8986.06 1530.94c3.26,-100.24 -138.87,-120.27 -156.79,-17.89 -17.89,-102.38 -160.05,-82.35 -156.77,17.89 3.31,100.11 156.18,184.22 156.72,184.53l0 0.05 0.05 0 0 -0.05c0.6,-0.3 153.48,-84.42 156.79,-184.53z"/>
   <path class="fil0" d="M9597.69 1530.94c3.33,-100.24 -138.87,-120.27 -156.77,-17.89 -17.84,-102.38 -160,-82.35 -156.74,17.89 3.26,100.11 156.13,184.22 156.74,184.53l0 0.05 0.05 0 0 -0.05c0.59,-0.3 153.46,-84.42 156.72,-184.53z"/>
   <path class="fil0" d="M10209.4 1530.94c3.26,-100.24 -138.89,-120.27 -156.79,-17.89 -17.84,-102.38 -160,-82.35 -156.74,17.89 3.26,100.11 156.13,184.22 156.74,184.53l0 0.05 0.05 0 0 -0.05c0.6,-0.3 153.48,-84.42 156.74,-184.53z"/>
   <path class="fil0" d="M10821.08 1530.94c3.26,-100.24 -138.89,-120.27 -156.79,-17.89 -17.84,-102.38 -160.05,-82.35 -156.74,17.89 3.26,100.11 156.15,184.22 156.67,184.53l0 0.05 0.07 0 0 -0.05c0.66,-0.3 153.53,-84.42 156.79,-184.53z"/>
   <path class="fil0" d="M11432.83 1530.94c3.26,-100.24 -138.89,-120.27 -156.79,-17.89 -17.84,-102.38 -160.05,-82.35 -156.74,17.89 3.26,100.11 156.13,184.22 156.67,184.53l0 0.05 0.07 0 0 -0.05c0.64,-0.3 153.53,-84.42 156.79,-184.53z"/>
   <path class="fil0" d="M12044.47 1530.94c3.31,-100.24 -138.89,-120.27 -156.79,-17.89 -17.84,-102.38 -160,-82.35 -156.74,17.89 3.26,100.11 156.13,184.22 156.74,184.53l0 0.05 0.05 0 0 -0.05c0.59,-0.3 153.48,-84.42 156.74,-184.53z"/>
   <path class="fil0" d="M12656.15 1530.94c3.26,-100.24 -138.89,-120.27 -156.79,-17.89 -17.84,-102.38 -160,-82.35 -156.74,17.89 3.26,100.11 156.15,184.22 156.74,184.53l0 0.05 0.05 0 0 -0.05c0.6,-0.3 153.48,-84.42 156.74,-184.53z"/>
   <path class="fil0" d="M13267.84 1530.94c3.26,-100.24 -138.87,-120.27 -156.79,-17.89 -17.83,-102.38 -159.98,-82.35 -156.72,17.89 3.26,100.11 156.13,184.22 156.67,184.53l0 0.05 0.05 0 0 -0.05c0.66,-0.3 153.53,-84.42 156.79,-184.53z"/>
   <path class="fil0" d="M13879.54 1530.94c3.26,-100.24 -138.89,-120.27 -156.79,-17.89 -17.84,-102.38 -160.05,-82.35 -156.74,17.89 3.26,100.11 156.13,184.22 156.67,184.53l0 0.05 0.07 0 0 -0.05c0.64,-0.3 153.53,-84.42 156.79,-184.53z"/>
   <path class="fil0" d="M14491.23 1530.94c3.26,-100.24 -138.87,-120.27 -156.84,-17.89 -17.84,-102.38 -160,-82.35 -156.74,17.89 3.33,100.11 156.13,184.22 156.74,184.53l0 0.05 0.05 0 0 -0.05c0.59,-0.3 153.48,-84.42 156.79,-184.53z"/>
   <path class="fil0" d="M15102.86 1530.94c3.31,-100.24 -138.89,-120.27 -156.79,-17.89 -17.84,-102.38 -160,-82.35 -156.74,17.89 3.26,100.11 156.15,184.22 156.74,184.53l0 0.05 0.05 0 0 -0.05c0.6,-0.3 153.48,-84.42 156.74,-184.53z"/>
   <path class="fil0" d="M15714.55 1530.94c3.26,-100.24 -138.89,-120.27 -156.79,-17.89 -17.84,-102.38 -159.98,-82.35 -156.72,17.89 3.26,100.11 156.13,184.22 156.72,184.53l0 0.05 0 -0.05c0.66,-0.3 153.53,-84.42 156.79,-184.53z"/>
   <path class="fil0" d="M16325.54 1530.94c3.33,-100.24 -138.87,-120.27 -156.79,-17.89 -17.84,-102.38 -159.98,-82.35 -156.72,17.89 3.26,100.11 156.13,184.22 156.72,184.53l0 0.05 0.07 0 0 -0.05c0.59,-0.3 153.46,-84.42 156.72,-184.53z"/>
   <path class="fil0" d="M16937.23 1530.94c3.26,-100.24 -138.87,-120.27 -156.79,-17.89 -17.83,-102.38 -159.98,-82.35 -156.72,17.89 3.26,100.11 156.13,184.22 156.72,184.53l0 0.05 0.07 0 0 -0.05c0.59,-0.3 153.46,-84.42 156.72,-184.53z"/>
   <path class="fil0" d="M17548.93 1530.94c3.26,-100.24 -138.89,-120.27 -156.79,-17.89 -17.84,-102.38 -160.05,-82.35 -156.74,17.89 3.26,100.11 156.13,184.22 156.67,184.53l0 0.05 0.07 0 0 -0.05c0.64,-0.3 153.53,-84.42 156.79,-184.53z"/>
   <path class="fil0" d="M18160.66 1530.94c3.26,-100.24 -138.87,-120.27 -156.79,-17.89 -17.83,-102.38 -160.05,-82.35 -156.72,17.89 3.26,100.11 156.13,184.22 156.67,184.53l0 0.05 0.05 0 0 -0.05c0.66,-0.3 153.53,-84.42 156.79,-184.53z"/>
   <path class="fil0" d="M18744.47 1464.52c-41.57,-35.05 -116.31,-23.83 -128.96,48.53 -17.83,-102.38 -159.98,-82.35 -156.72,17.89 3.26,100.11 156.13,184.22 156.72,184.53l0 0.05 0.07 0 0 -0.05c0.44,-0.22 83.95,-46.19 128.89,-110.54l0 -140.4z"/>
   <path class="fil0" d="M112.31 1880.93c2.25,-69.18 -64.69,-100.13 -112.31,-79.09l0 54.37c0,56.89 7.09,112.12 20.4,164.88 42.33,-34.11 90.1,-84.69 91.91,-140.17z"/>
   <path class="fil0" d="M723.99 1880.93c3.26,-100.3 -138.89,-120.27 -156.79,-17.89 -17.84,-102.38 -160,-82.4 -156.74,17.89 3.28,100.11 156.15,184.22 156.74,184.53l0 0.07 0.05 0 0 -0.07c0.6,-0.3 153.48,-84.42 156.74,-184.53z"/>
   <path class="fil0" d="M1335.65 1880.93c3.26,-100.3 -138.87,-120.27 -156.79,-17.89 -17.83,-102.38 -159.98,-82.4 -156.72,17.89 3.26,100.11 156.13,184.22 156.72,184.53l0 0.07 0.07 0 0 -0.07c0.59,-0.3 153.46,-84.42 156.72,-184.53z"/>
   <path class="fil0" d="M1947.35 1880.93c3.26,-100.3 -138.89,-120.27 -156.79,-17.89 -17.84,-102.38 -160,-82.4 -156.74,17.89 3.28,100.11 156.15,184.22 156.74,184.53l0 0.07 0.05 0 0 -0.07c0.6,-0.3 153.48,-84.42 156.74,-184.53z"/>
   <path class="fil0" d="M2559 1880.93c3.26,-100.3 -138.87,-120.27 -156.79,-17.89 -17.83,-102.38 -159.98,-82.4 -156.72,17.89 3.26,100.11 156.13,184.22 156.72,184.53l0 0.07 0.07 0 0 -0.07c0.59,-0.3 153.46,-84.42 156.72,-184.53z"/>
   <path class="fil0" d="M3170.7 1880.93c3.26,-100.3 -138.89,-120.27 -156.79,-17.89 -17.84,-102.38 -160,-82.4 -156.74,17.89 3.26,100.11 156.15,184.22 156.74,184.53l0 0.07 0.05 0 0 -0.07c0.6,-0.3 153.48,-84.42 156.74,-184.53z"/>
   <path class="fil0" d="M3782.39 1880.93c3.26,-100.3 -138.89,-120.27 -156.79,-17.89 -17.89,-102.38 -159.98,-82.4 -156.79,17.89 3.33,100.11 156.13,184.22 156.74,184.53l0 0.07 0.05 0 0 -0.07c0.66,-0.3 153.53,-84.42 156.79,-184.53z"/>
   <path class="fil0" d="M4394.05 1880.93c3.26,-100.3 -138.89,-120.27 -156.79,-17.89 -17.84,-102.38 -160,-82.4 -156.74,17.89 3.26,100.11 156.13,184.22 156.74,184.53l0 0.07 0.05 0 0 -0.07c0.59,-0.3 153.46,-84.42 156.74,-184.53z"/>
   <path class="fil0" d="M5005.71 1880.93c3.33,-100.3 -138.82,-120.27 -156.79,-17.89 -17.84,-102.38 -159.98,-82.4 -156.72,17.89 3.26,100.11 156.13,184.22 156.72,184.53l0 0.07 0.07 0 0 -0.07c0.59,-0.3 153.46,-84.42 156.72,-184.53z"/>
   <path class="fil0" d="M5617.39 1880.93c3.28,-100.3 -138.87,-120.27 -156.77,-17.89 -17.84,-102.38 -160,-82.4 -156.74,17.89 3.26,100.11 156.13,184.22 156.74,184.53l0 0.07 0 -0.07c0.64,-0.3 153.51,-84.42 156.77,-184.53z"/>
   <path class="fil0" d="M6229.09 1880.93c3.26,-100.3 -138.89,-120.27 -156.79,-17.89 -17.84,-102.38 -160.05,-82.4 -156.72,17.89 3.26,100.11 156.13,184.22 156.67,184.53l0 0.07 0.05 0 0 -0.07c0.66,-0.3 153.53,-84.42 156.79,-184.53z"/>
   <path class="fil0" d="M6840.78 1880.93c3.26,-100.3 -138.87,-120.27 -156.79,-17.89 -17.89,-102.38 -160.05,-82.4 -156.79,17.89 3.33,100.11 156.2,184.22 156.74,184.53l0 0.07 0.05 0 0 -0.07c0.66,-0.3 153.48,-84.42 156.79,-184.53z"/>
   <path class="fil0" d="M7452.41 1880.93c3.33,-100.3 -138.87,-120.27 -156.79,-17.89 -17.84,-102.38 -159.98,-82.4 -156.72,17.89 3.26,100.11 156.13,184.22 156.72,184.53l0 0.07 0.07 0 0 -0.07c0.59,-0.3 153.46,-84.42 156.72,-184.53z"/>
   <path class="fil0" d="M8064.1 1880.93c3.26,-100.3 -138.87,-120.27 -156.79,-17.89 -17.83,-102.38 -159.98,-82.4 -156.72,17.89 3.26,100.11 156.13,184.22 156.72,184.53l0 0.07 0.07 0 0 -0.07c0.59,-0.3 153.46,-84.42 156.72,-184.53z"/>
   <path class="fil0" d="M8675.8 1880.93c3.26,-100.3 -138.89,-120.27 -156.79,-17.89 -17.84,-102.38 -160,-82.4 -156.74,17.89 3.26,100.11 156.13,184.22 156.67,184.53l0 0.07 0.07 0 0 -0.07c0.64,-0.3 153.53,-84.42 156.79,-184.53z"/>
   <path class="fil0" d="M9287.48 1880.93c3.26,-100.3 -138.87,-120.27 -156.79,-17.89 -17.84,-102.38 -160.05,-82.4 -156.72,17.89 3.26,100.11 156.13,184.22 156.67,184.53l0 0.07 0.05 0 0 -0.07c0.66,-0.3 153.53,-84.42 156.79,-184.53z"/>
   <path class="fil0" d="M9899.12 1880.93c3.31,-100.3 -138.89,-120.27 -156.79,-17.89 -17.84,-102.38 -160,-82.4 -156.74,17.89 3.26,100.11 156.15,184.22 156.74,184.53l0 0.07 0.05 0 0 -0.07c0.6,-0.3 153.48,-84.42 156.74,-184.53z"/>
   <path class="fil0" d="M10510.8 1880.93c3.33,-100.3 -138.87,-120.27 -156.79,-17.89 -17.83,-102.38 -159.98,-82.4 -156.72,17.89 3.26,100.11 156.13,184.22 156.72,184.53l0 0.07 0.07 0 0 -0.07c0.59,-0.3 153.46,-84.42 156.72,-184.53z"/>
   <path class="fil0" d="M11122.56 1880.93c3.26,-100.3 -138.87,-120.27 -156.79,-17.89 -17.84,-102.38 -159.98,-82.4 -156.72,17.89 3.26,100.11 156.13,184.22 156.67,184.53l0 0.07 0.05 0 0 -0.07c0.66,-0.3 153.53,-84.42 156.79,-184.53z"/>
   <path class="fil0" d="M11734.24 1880.93c3.26,-100.3 -138.87,-120.27 -156.79,-17.89 -17.83,-102.38 -160.05,-82.4 -156.72,17.89 3.26,100.11 156.13,184.22 156.67,184.53l0 0.07 0.05 0 0 -0.07c0.66,-0.3 153.53,-84.42 156.79,-184.53z"/>
   <path class="fil0" d="M12345.94 1880.93c3.26,-100.3 -138.89,-120.27 -156.85,-17.89 -17.84,-102.38 -159.98,-82.4 -156.72,17.89 3.31,100.11 156.18,184.22 156.72,184.53l0 0.07 0.07 0 0 -0.07c0.59,-0.3 153.46,-84.42 156.79,-184.53z"/>
   <path class="fil0" d="M12957.58 1880.93c3.31,-100.3 -138.89,-120.27 -156.79,-17.89 -17.84,-102.38 -160,-82.4 -156.74,17.89 3.26,100.11 156.13,184.22 156.74,184.53l0 0.07 0.05 0 0 -0.07c0.59,-0.3 153.48,-84.42 156.74,-184.53z"/>
   <path class="fil0" d="M13569.26 1880.93c3.26,-100.3 -138.89,-120.27 -156.79,-17.89 -17.84,-102.38 -160,-82.4 -156.74,17.89 3.26,100.11 156.15,184.22 156.74,184.53l0 0.07 0.05 0 0 -0.07c0.6,-0.3 153.48,-84.42 156.74,-184.53z"/>
   <path class="fil0" d="M14180.95 1880.93c3.26,-100.3 -138.87,-120.27 -156.79,-17.89 -17.84,-102.38 -160.05,-82.4 -156.72,17.89 3.26,100.11 156.13,184.22 156.67,184.53l0 0.07 0.05 0 0 -0.07c0.66,-0.3 153.53,-84.42 156.79,-184.53z"/>
   <path class="fil0" d="M14792.65 1880.93c3.26,-100.3 -138.89,-120.27 -156.79,-17.89 -17.84,-102.38 -160.05,-82.4 -156.79,17.89 3.31,100.11 156.18,184.22 156.72,184.53l0 0.07 0.07 0 0 -0.07c0.64,-0.3 153.46,-84.42 156.79,-184.53z"/>
   <path class="fil0" d="M15404.28 1880.93c3.31,-100.3 -138.89,-120.27 -156.79,-17.89 -17.84,-102.38 -160,-82.4 -156.74,17.89 3.26,100.11 156.13,184.22 156.74,184.53l0 0.07 0.05 0 0 -0.07c0.59,-0.3 153.48,-84.42 156.74,-184.53z"/>
   <path class="fil0" d="M16015.33 1880.93c3.26,-100.3 -138.89,-120.27 -156.79,-17.89 -17.84,-102.38 -160.05,-82.4 -156.72,17.89 3.26,100.11 156.13,184.22 156.65,184.53l0 0.07 0.07 0 0 -0.07c0.66,-0.3 153.53,-84.42 156.79,-184.53z"/>
   <path class="fil0" d="M16626.96 1880.93c3.31,-100.3 -138.89,-120.27 -156.79,-17.89 -17.84,-102.38 -160,-82.4 -156.74,17.89 3.26,100.11 156.13,184.22 156.74,184.53l0 0.07 0.05 0 0 -0.07c0.59,-0.3 153.48,-84.42 156.74,-184.53z"/>
   <path class="fil0" d="M17238.65 1880.93c3.33,-100.3 -138.87,-120.27 -156.79,-17.89 -17.84,-102.38 -159.98,-82.4 -156.72,17.89 3.26,100.11 156.13,184.22 156.72,184.53l0 0.07 0.07 0 0 -0.07c0.59,-0.3 153.46,-84.42 156.72,-184.53z"/>
   <path class="fil0" d="M17850.4 1880.93c3.26,-100.3 -138.89,-120.27 -156.79,-17.89 -17.84,-102.38 -160,-82.4 -156.72,17.89 3.26,100.11 156.13,184.22 156.65,184.53l0 0.07 0.07 0 0 -0.07c0.66,-0.3 153.53,-84.42 156.79,-184.53z"/>
   <path class="fil0" d="M18462.09 1880.93c3.26,-100.3 -138.87,-120.27 -156.79,-17.89 -17.84,-102.38 -160.05,-82.4 -156.72,17.89 3.26,100.11 156.13,184.22 156.67,184.53l0 0.07 0.05 0 0 -0.07c0.66,-0.3 153.53,-84.42 156.79,-184.53z"/>
   <path class="fil0" d="M422.57 2253.61c3.26,-100.24 -138.87,-120.27 -156.79,-17.91 -16.2,-92.67 -134.19,-85.02 -154.01,-8.37 49.7,74.86 113.99,139.14 188.83,188.85 45.5,-31.42 119.7,-93.14 121.97,-162.57z"/>
   <path class="fil0" d="M1034.24 2253.61c3.26,-100.24 -138.89,-120.27 -156.79,-17.91 -17.84,-102.36 -159.98,-82.33 -156.72,17.91 3.26,100.11 156.13,184.22 156.72,184.51l0 0.07 0.07 0 0 -0.07c0.59,-0.29 153.46,-84.4 156.72,-184.51z"/>
   <path class="fil0" d="M1645.92 2253.61c3.26,-100.24 -138.87,-120.27 -156.79,-17.91 -17.89,-102.36 -159.98,-82.33 -156.79,17.91 3.33,100.11 156.2,184.22 156.79,184.51l0 0.07 0.07 0 0 -0.07c0.59,-0.29 153.46,-84.4 156.72,-184.51z"/>
   <path class="fil0" d="M2257.59 2253.61c3.26,-100.24 -138.89,-120.27 -156.79,-17.91 -17.84,-102.36 -160,-82.33 -156.72,17.91 3.26,100.11 156.13,184.22 156.72,184.51l0 0.07 0.05 0 0 -0.07c0.6,-0.29 153.48,-84.4 156.74,-184.51z"/>
   <path class="fil0" d="M2869.28 2253.61c3.26,-100.24 -138.87,-120.27 -156.79,-17.91 -17.84,-102.36 -159.98,-82.33 -156.79,17.91 3.33,100.11 156.2,184.22 156.79,184.51l0 0.07 0.07 0 0 -0.07c0.59,-0.29 153.46,-84.4 156.72,-184.51z"/>
   <path class="fil0" d="M3480.95 2253.61c3.26,-100.24 -138.89,-120.27 -156.79,-17.91 -17.84,-102.36 -160,-82.33 -156.74,17.91 3.26,100.11 156.13,184.22 156.74,184.51l0 0.07 0.05 0 0 -0.07c0.59,-0.29 153.48,-84.4 156.74,-184.51z"/>
   <path class="fil0" d="M4092.63 2253.61c3.26,-100.24 -138.87,-120.27 -156.79,-17.91 -17.84,-102.36 -159.98,-82.33 -156.72,17.91 3.26,100.11 156.13,184.22 156.72,184.51l0 0.07 0.07 0 0 -0.07c0.59,-0.29 153.46,-84.4 156.72,-184.51z"/>
   <path class="fil0" d="M4704.3 2253.61c3.26,-100.24 -138.89,-120.27 -156.79,-17.91 -17.84,-102.36 -160,-82.33 -156.74,17.91 3.26,100.11 156.13,184.22 156.74,184.51l0 0.07 0.05 0 0 -0.07c0.59,-0.29 153.48,-84.4 156.74,-184.51z"/>
   <path class="fil0" d="M5315.98 2253.61c3.26,-100.24 -138.87,-120.27 -156.79,-17.91 -17.84,-102.36 -159.98,-82.33 -156.72,17.91 3.26,100.11 156.13,184.22 156.67,184.51l0 0.07 0.05 0 0 -0.07c0.66,-0.29 153.53,-84.4 156.79,-184.51z"/>
   <path class="fil0" d="M5927.67 2253.61c3.26,-100.24 -138.87,-120.27 -156.79,-17.91 -17.84,-102.36 -160.05,-82.33 -156.72,17.91 3.26,100.11 156.13,184.22 156.67,184.51l0 0.07 0.05 0 0 -0.07c0.66,-0.29 153.53,-84.4 156.79,-184.51z"/>
   <path class="fil0" d="M6539.35 2253.61c3.28,-100.24 -138.87,-120.27 -156.84,-17.91 -17.84,-102.36 -159.98,-82.33 -156.72,17.91 3.31,100.11 156.13,184.22 156.72,184.51l0 0.07 0.07 0 0 -0.07c0.59,-0.29 153.46,-84.4 156.77,-184.51z"/>
   <path class="fil0" d="M7151.01 2253.61c3.31,-100.24 -138.89,-120.27 -156.79,-17.91 -17.84,-102.36 -160,-82.33 -156.74,17.91 3.26,100.11 156.13,184.22 156.74,184.51l0 0.07 0.05 0 0 -0.07c0.59,-0.29 153.46,-84.4 156.74,-184.51z"/>
   <path class="fil0" d="M7762.69 2253.61c3.26,-100.24 -138.89,-120.27 -156.79,-17.91 -17.84,-102.36 -160,-82.33 -156.74,17.91 3.26,100.11 156.13,184.22 156.74,184.51l0 0.07 0 -0.07c0.66,-0.29 153.53,-84.4 156.79,-184.51z"/>
   <path class="fil0" d="M8374.38 2253.61c3.26,-100.24 -138.87,-120.27 -156.79,-17.91 -17.84,-102.36 -160.05,-82.33 -156.72,17.91 3.26,100.11 156.13,184.22 156.67,184.51l0 0.07 0.05 0 0 -0.07c0.66,-0.29 153.53,-84.4 156.79,-184.51z"/>
   <path class="fil0" d="M8986.06 2253.61c3.26,-100.24 -138.87,-120.27 -156.79,-17.91 -17.89,-102.36 -160.05,-82.33 -156.77,17.91 3.31,100.11 156.18,184.22 156.72,184.51l0 0.07 0.05 0 0 -0.07c0.6,-0.29 153.48,-84.4 156.79,-184.51z"/>
   <path class="fil0" d="M9597.69 2253.61c3.33,-100.24 -138.87,-120.27 -156.77,-17.91 -17.84,-102.36 -160,-82.33 -156.74,17.91 3.26,100.11 156.13,184.22 156.74,184.51l0 0.07 0.05 0 0 -0.07c0.59,-0.29 153.46,-84.4 156.72,-184.51z"/>
   <path class="fil0" d="M10209.4 2253.61c3.26,-100.24 -138.89,-120.27 -156.79,-17.91 -17.84,-102.36 -160,-82.33 -156.74,17.91 3.26,100.11 156.13,184.22 156.74,184.51l0 0.07 0.05 0 0 -0.07c0.6,-0.29 153.48,-84.4 156.74,-184.51z"/>
   <path class="fil0" d="M10821.08 2253.61c3.26,-100.24 -138.89,-120.27 -156.79,-17.91 -17.84,-102.36 -160.05,-82.33 -156.74,17.91 3.26,100.11 156.15,184.22 156.67,184.51l0 0.07 0.07 0 0 -0.07c0.66,-0.29 153.53,-84.4 156.79,-184.51z"/>
   <path class="fil0" d="M11432.83 2253.61c3.26,-100.24 -138.89,-120.27 -156.79,-17.91 -17.84,-102.36 -160.05,-82.33 -156.74,17.91 3.26,100.11 156.13,184.22 156.67,184.51l0 0.07 0.07 0 0 -0.07c0.64,-0.29 153.53,-84.4 156.79,-184.51z"/>
   <path class="fil0" d="M12044.47 2253.61c3.31,-100.24 -138.89,-120.27 -156.79,-17.91 -17.84,-102.36 -160,-82.33 -156.74,17.91 3.26,100.11 156.13,184.22 156.74,184.51l0 0.07 0.05 0 0 -0.07c0.59,-0.29 153.48,-84.4 156.74,-184.51z"/>
   <path class="fil0" d="M12656.15 2253.61c3.26,-100.24 -138.89,-120.27 -156.79,-17.91 -17.84,-102.36 -160,-82.33 -156.74,17.91 3.26,100.11 156.15,184.22 156.74,184.51l0 0.07 0.05 0 0 -0.07c0.6,-0.29 153.48,-84.4 156.74,-184.51z"/>
   <path class="fil0" d="M13267.84 2253.61c3.26,-100.24 -138.87,-120.27 -156.79,-17.91 -17.83,-102.36 -159.98,-82.33 -156.72,17.91 3.26,100.11 156.13,184.22 156.67,184.51l0 0.07 0.05 0 0 -0.07c0.66,-0.29 153.53,-84.4 156.79,-184.51z"/>
   <path class="fil0" d="M13879.54 2253.61c3.26,-100.24 -138.89,-120.27 -156.79,-17.91 -17.84,-102.36 -160.05,-82.33 -156.74,17.91 3.26,100.11 156.13,184.22 156.67,184.51l0 0.07 0.07 0 0 -0.07c0.64,-0.29 153.53,-84.4 156.79,-184.51z"/>
   <path class="fil0" d="M14491.23 2253.61c3.26,-100.24 -138.87,-120.27 -156.84,-17.91 -17.84,-102.36 -160,-82.33 -156.74,17.91 3.33,100.11 156.13,184.22 156.74,184.51l0 0.07 0.05 0 0 -0.07c0.59,-0.29 153.48,-84.4 156.79,-184.51z"/>
   <path class="fil0" d="M15102.86 2253.61c3.31,-100.24 -138.89,-120.27 -156.79,-17.91 -17.84,-102.36 -160,-82.33 -156.74,17.91 3.26,100.11 156.15,184.22 156.74,184.51l0 0.07 0.05 0 0 -0.07c0.6,-0.29 153.48,-84.4 156.74,-184.51z"/>
   <path class="fil0" d="M15714.55 2253.61c3.26,-100.24 -138.89,-120.27 -156.79,-17.91 -17.84,-102.36 -159.98,-82.33 -156.72,17.91 3.26,100.11 156.13,184.22 156.72,184.51l0 0.07 0 -0.07c0.66,-0.29 153.53,-84.4 156.79,-184.51z"/>
   <path class="fil0" d="M16325.54 2253.61c3.33,-100.24 -138.87,-120.27 -156.79,-17.91 -17.84,-102.36 -159.98,-82.33 -156.72,17.91 3.26,100.11 156.13,184.22 156.72,184.51l0 0.07 0.07 0 0 -0.07c0.59,-0.29 153.46,-84.4 156.72,-184.51z"/>
   <path class="fil0" d="M16937.23 2253.61c3.26,-100.24 -138.87,-120.27 -156.79,-17.91 -17.83,-102.36 -159.98,-82.33 -156.72,17.91 3.26,100.11 156.13,184.22 156.72,184.51l0 0.07 0.07 0 0 -0.07c0.59,-0.29 153.46,-84.4 156.72,-184.51z"/>
   <path class="fil0" d="M17548.93 2253.61c3.26,-100.24 -138.89,-120.27 -156.79,-17.91 -17.84,-102.36 -160.05,-82.33 -156.74,17.91 3.26,100.11 156.13,184.22 156.67,184.51l0 0.07 0.07 0 0 -0.07c0.64,-0.29 153.53,-84.4 156.79,-184.51z"/>
   <path class="fil0" d="M18160.66 2253.61c3.26,-100.24 -138.87,-120.27 -156.79,-17.91 -17.83,-102.36 -160.05,-82.33 -156.72,17.91 3.26,100.11 156.13,184.22 156.67,184.51l0 0.07 0.05 0 0 -0.07c0.66,-0.29 153.53,-84.4 156.79,-184.51z"/>
   <path class="fil0" d="M18665.55 2172.35c-23.89,8.33 -44.01,28.88 -50.04,63.35 -17.83,-102.36 -159.98,-82.33 -156.72,17.91 1.31,40.02 26.51,77.48 56.36,108.06 60.84,-53.3 111.97,-117.4 150.4,-189.32z"/>
   <path class="fil0" d="M682.51 2527.93c-22.16,-11.93 -49.48,-13.36 -72.15,-2.81 20.18,1.81 40.63,2.81 61.3,2.81l10.85 0z"/>
   <path class="fil0" d="M1294.16 2527.93c-23.98,-12.89 -53.94,-13.53 -77.56,0l77.56 0zm-152.99 0c-23.62,-13.54 -53.58,-12.9 -77.54,0l77.54 0z"/>
   <path class="fil0" d="M1905.86 2527.93c-23.98,-12.89 -53.95,-13.53 -77.58,0l77.58 0zm-152.99 0c-23.62,-13.54 -53.6,-12.9 -77.56,0l77.56 0z"/>
   <path class="fil0" d="M2517.51 2527.93c-23.98,-12.89 -53.94,-13.53 -77.56,0l77.56 0zm-152.99 0c-23.62,-13.54 -53.58,-12.9 -77.54,0l77.54 0z"/>
   <path class="fil0" d="M3129.21 2527.93c-23.98,-12.89 -53.95,-13.53 -77.58,0l77.58 0zm-152.99 0c-23.62,-13.54 -53.6,-12.9 -77.56,0l77.56 0z"/>
   <path class="fil0" d="M3740.9 2527.93c-23.98,-12.89 -53.95,-13.53 -77.58,0l77.58 0zm-153.02 0c-23.62,-13.54 -53.58,-12.9 -77.54,0l77.54 0z"/>
   <path class="fil0" d="M4352.57 2527.93c-23.98,-12.89 -53.95,-13.53 -77.58,0l77.58 0zm-152.99 0c-23.62,-13.54 -53.6,-12.9 -77.56,0l77.56 0z"/>
   <path class="fil0" d="M4964.27 2527.93c-23.98,-12.89 -53.94,-13.53 -77.58,0l77.58 0zm-153.04 0c-23.62,-13.54 -53.58,-12.9 -77.54,0l77.54 0z"/>
   <path class="fil0" d="M5575.92 2527.93c-23.98,-12.89 -53.95,-13.53 -77.58,0l77.58 0zm-152.99 0c-23.62,-13.54 -53.6,-12.9 -77.56,0l77.56 0z"/>
   <path class="fil0" d="M6187.61 2527.93c-23.98,-12.89 -53.95,-13.53 -77.58,0l77.58 0zm-153.01 0c-23.62,-13.54 -53.6,-12.9 -77.56,0l77.56 0z"/>
   <path class="fil0" d="M6799.29 2527.93c-23.98,-12.89 -53.94,-13.53 -77.56,0l77.56 0zm-153.02 0c-23.62,-13.54 -53.62,-12.9 -77.58,0l77.58 0z"/>
   <path class="fil0" d="M7410.96 2527.93c-23.98,-12.89 -53.95,-13.53 -77.59,0l77.59 0zm-153.02 0c-23.62,-13.54 -53.58,-12.9 -77.54,0l77.54 0z"/>
   <path class="fil0" d="M8022.61 2527.93c-23.98,-12.89 -53.94,-13.53 -77.56,0l77.56 0zm-152.99 0c-23.62,-13.54 -53.58,-12.9 -77.54,0l77.54 0z"/>
   <path class="fil0" d="M8634.31 2527.93c-23.98,-12.89 -53.95,-13.53 -77.58,0l77.58 0zm-152.99 0c-23.62,-13.54 -53.6,-12.9 -77.56,0l77.56 0z"/>
   <path class="fil0" d="M9246 2527.93c-23.98,-12.89 -53.94,-13.53 -77.56,0l77.56 0zm-153.01 0c-23.62,-13.54 -53.6,-12.9 -77.56,0l77.56 0z"/>
   <path class="fil0" d="M9857.65 2527.93c-23.98,-12.89 -53.95,-13.53 -77.58,0l77.58 0zm-153.01 0c-23.62,-13.54 -53.6,-12.9 -77.56,0l77.56 0z"/>
   <path class="fil0" d="M10469.35 2527.93c-23.98,-12.89 -53.95,-13.53 -77.59,0l77.59 0zm-153.02 0c-23.62,-13.54 -53.58,-12.9 -77.54,0l77.54 0z"/>
   <path class="fil0" d="M11081.07 2527.93c-23.98,-12.89 -53.94,-13.53 -77.56,0l77.56 0zm-152.99 0c-23.62,-13.54 -53.58,-12.9 -77.54,0l77.54 0z"/>
   <path class="fil0" d="M11692.75 2527.93c-23.98,-12.89 -53.94,-13.53 -77.56,0l77.56 0zm-152.99 0c-23.62,-13.54 -53.62,-12.9 -77.58,0l77.58 0z"/>
   <path class="fil0" d="M12304.46 2527.93c-23.98,-12.89 -53.95,-13.53 -77.59,0l77.59 0zm-153.06 0c-23.62,-13.54 -53.58,-12.9 -77.54,0l77.54 0z"/>
   <path class="fil0" d="M12916.11 2527.93c-23.98,-12.89 -53.95,-13.53 -77.58,0l77.58 0zm-153.01 0c-23.62,-13.54 -53.6,-12.9 -77.56,0l77.56 0z"/>
   <path class="fil0" d="M13527.78 2527.93c-23.98,-12.89 -53.95,-13.53 -77.58,0l77.58 0zm-152.99 0c-23.62,-13.54 -53.6,-12.9 -77.56,0l77.56 0z"/>
   <path class="fil0" d="M14139.46 2527.93c-23.98,-12.89 -53.94,-13.53 -77.56,0l77.56 0zm-153.01 0c-23.62,-13.54 -53.6,-12.9 -77.56,0l77.56 0z"/>
   <path class="fil0" d="M14751.16 2527.93c-23.98,-12.89 -53.95,-13.53 -77.58,0l77.58 0zm-153.01 0c-23.64,-13.54 -53.6,-12.9 -77.58,0l77.58 0z"/>
   <path class="fil0" d="M15362.81 2527.93c-23.98,-12.89 -53.95,-13.53 -77.58,0l77.58 0zm-153.01 0c-23.62,-13.54 -53.6,-12.9 -77.56,0l77.56 0z"/>
   <path class="fil0" d="M15973.84 2527.93c-23.98,-12.89 -53.95,-13.53 -77.58,0l77.58 0zm-153.01 0c-23.62,-13.54 -53.6,-12.9 -77.56,0l77.56 0z"/>
   <path class="fil0" d="M16585.5 2527.93c-23.98,-12.89 -53.95,-13.53 -77.58,0l77.58 0zm-153.01 0c-23.62,-13.54 -53.6,-12.9 -77.56,0l77.56 0z"/>
   <path class="fil0" d="M17197.2 2527.93c-23.98,-12.89 -53.95,-13.53 -77.59,0l77.59 0zm-153.02 0c-23.62,-13.54 -53.58,-12.9 -77.54,0l77.54 0z"/>
   <path class="fil0" d="M17808.92 2527.93c-23.98,-12.89 -53.95,-13.53 -77.58,0l77.58 0zm-152.99 0c-23.62,-13.54 -53.6,-12.9 -77.56,0l77.56 0z"/>
  </g>
 </g>
</svg>
