<?xml version="1.0" encoding="UTF-8"?>
<!DOCTYPE svg PUBLIC "-//W3C//DTD SVG 1.1//EN" "http://www.w3.org/Graphics/SVG/1.1/DTD/svg11.dtd">
<!-- Creator: CorelDRAW -->
<svg xmlns="http://www.w3.org/2000/svg" xml:space="preserve" width="29.5065mm" height="29.8891mm" version="1.1" style="shape-rendering:geometricPrecision; text-rendering:geometricPrecision; image-rendering:optimizeQuality; fill-rule:evenodd; clip-rule:evenodd"
viewBox="0 0 52.21 52.89"
 xmlns:xlink="http://www.w3.org/1999/xlink"
 xmlns:xodm="http://www.corel.com/coreldraw/odm/2003">
 <defs>
  <style type="text/css">
   <![CDATA[
    .fil1 {fill:url(#id1)}
    .fil0 {fill:url(#id2)}
   ]]>
  </style>
    <clipPath id="id0">
     <path d="M29.75 47.63c-0.51,0 -1.02,-0.2 -1.42,-0.64l-7.89 -8.8c-0.36,-0.4 -0.88,-0.63 -1.43,-0.63 -0.07,0 -0.16,0 -0.24,0.01l-11.72 1.51c-0.09,0.01 -0.17,0.01 -0.26,0.01 -1.43,0 -2.4,-1.57 -1.64,-2.87l5.93 -10.22c0.31,-0.55 0.34,-1.22 0.07,-1.79l-5.06 -10.67c-0.62,-1.31 0.36,-2.74 1.71,-2.74 0.14,0 0.27,0.03 0.41,0.05l11.55 2.48c0.12,0.03 0.26,0.04 0.4,0.04 0.48,0 0.96,-0.18 1.32,-0.52l8.59 -8.12c0.39,-0.35 0.84,-0.52 1.3,-0.52 0.92,0 1.8,0.67 1.91,1.71l1.22 11.75c0.06,0.63 0.43,1.18 0.98,1.48l10.37 5.66c1.39,0.77 1.3,2.79 -0.15,3.44l-10.8 4.78c-0.58,0.25 -0.99,0.78 -1.11,1.4l-2.19 11.6c-0.19,0.99 -1.03,1.57 -1.89,1.57l0 0z"/>
    </clipPath>
  <linearGradient id="id1" gradientUnits="userSpaceOnUse" x1="-0.62" y1="14.62" x2="50.07" y2="33.49">
   <stop offset="0" style="stop-opacity:1; stop-color:#E84944"/>
   <stop offset="0.509804" style="stop-opacity:1; stop-color:#FDD705"/>
   <stop offset="0.619608" style="stop-opacity:1; stop-color:#FEDB3D"/>
   <stop offset="1" style="stop-opacity:1; stop-color:#E84944"/>
  </linearGradient>
  <linearGradient id="id2" gradientUnits="userSpaceOnUse" x1="32.06" y1="0.07" x2="21.48" y2="36.87">
   <stop offset="0" style="stop-opacity:1; stop-color:#FBF059"/>
   <stop offset="1" style="stop-opacity:1; stop-color:#EF8A74"/>
  </linearGradient>
 </defs>
 <g id="__x0023_Layer_x0020_2">
  <metadata id="CorelCorpID_0Corel-Layer"/>
  <g id="_1990759951920">
   <path class="fil0" d="M30.77 52.39c-0.07,0 -0.14,-0 -0.2,-0.01 -0.42,-0.04 -0.82,-0.22 -1.13,-0.5 -0.3,-0.28 -0.62,-0.68 -0.93,-1.02l-3.73 -4.21c-1.25,-1.4 -2.49,-2.81 -3.71,-4.23l-0.92 -1.06c-0.16,-0.18 -0.28,-0.34 -0.49,-0.55 -0.2,-0.19 -0.42,-0.35 -0.66,-0.48 -0.38,-0.2 -0.82,-0.3 -1.24,-0.3 -0.12,0 -0.24,0.01 -0.35,0.02l-1.4 0.16c-3.73,0.42 -7.46,0.8 -11.18,1.25l-1.4 0.16 -0.17 0.02 -0.13 0c-0.04,0 -0.07,0 -0.11,0 -0.05,0 -0.1,-0 -0.14,-0.01 -0.17,-0.01 -0.33,-0.06 -0.48,-0.13 -0.61,-0.25 -1.02,-0.94 -0.97,-1.58 0.01,-0.16 0.05,-0.32 0.1,-0.47 0.02,-0.08 0.07,-0.15 0.11,-0.22 0.03,-0.07 0.11,-0.19 0.16,-0.29l0.71 -1.21 1.43 -2.42 2.86 -4.85 1.43 -2.42 0.72 -1.23c0.31,-0.55 0.45,-1.2 0.39,-1.84 -0.03,-0.32 -0.11,-0.63 -0.23,-0.92l-0.31 -0.67 -0.6 -1.27 -1.2 -2.54 -2.41 -5.08 -1.22 -2.53 -0.31 -0.63 -0.15 -0.31 -0.08 -0.22c-0.09,-0.29 -0.08,-0.59 0.02,-0.88 0.19,-0.58 0.76,-1.03 1.37,-1.04 0.03,-0 0.07,-0 0.1,-0 0.04,0 0.09,0 0.13,0.01 0.08,0.01 0.15,0.01 0.28,0.04l0.69 0.14 1.38 0.28c3.67,0.75 7.36,1.44 11.05,2.12l0.69 0.13c0.18,0.04 0.41,0.07 0.63,0.07 0.07,0 0.13,-0 0.19,-0.01 0.57,-0.04 1.11,-0.26 1.55,-0.61 0.23,-0.19 0.37,-0.35 0.54,-0.52l0.5 -0.5 1 -0.99 3.99 -3.97c1.32,-1.33 2.68,-2.62 4.02,-3.94 0.34,-0.34 0.66,-0.65 1.09,-0.8 0.24,-0.09 0.5,-0.14 0.76,-0.14 0.19,0 0.38,0.02 0.56,0.07 0.88,0.21 1.59,1 1.67,1.92 0.38,3.73 0.74,7.46 1.03,11.2l0.22 2.81c0.01,0.47 0.15,1.04 0.45,1.47 0.15,0.22 0.33,0.42 0.54,0.59 0.1,0.09 0.22,0.16 0.33,0.23l0.31 0.18 4.87 2.83c1.62,0.94 3.24,1.89 4.87,2.81l2.42 1.38c0.58,0.34 0.87,1.04 0.75,1.69 -0.06,0.32 -0.22,0.62 -0.46,0.84 -0.11,0.11 -0.25,0.21 -0.4,0.28 -0.06,0.04 -0.17,0.09 -0.28,0.13l-0.32 0.14 -2.57 1.14c-1.72,0.76 -3.42,1.54 -5.12,2.32l-2.55 1.18 -1.27 0.59 -0.64 0.3 -0.32 0.15c-0.12,0.06 -0.26,0.13 -0.38,0.21 -0.49,0.32 -0.88,0.78 -1.09,1.31 -0.11,0.25 -0.18,0.58 -0.21,0.79l-0.12 0.69 -0.46 2.78 -0.92 5.55 -0.48 2.77 -0.24 1.39 -0.12 0.69c-0.04,0.22 -0.1,0.41 -0.19,0.6 -0.33,0.7 -1.09,1.14 -1.86,1.14zm-11.75 -14.84c0.54,0 1.06,0.23 1.43,0.64l7.89 8.79c0.39,0.44 0.91,0.64 1.41,0.64 0.86,0 1.71,-0.58 1.89,-1.56l2.18 -11.61c0.12,-0.62 0.53,-1.14 1.11,-1.4l10.8 -4.78c1.45,-0.64 1.53,-2.67 0.14,-3.43l-10.37 -5.66c-0.55,-0.3 -0.92,-0.86 -0.99,-1.48l-1.21 -11.75c-0.11,-1.06 -0.99,-1.72 -1.91,-1.72 -0.46,0 -0.92,0.16 -1.3,0.52l-8.59 8.11c-0.36,0.34 -0.83,0.52 -1.31,0.52 -0.13,0 -0.27,-0.01 -0.4,-0.04l-11.55 -2.48c-0.14,-0.03 -0.28,-0.04 -0.42,-0.04 -1.35,0 -2.33,1.43 -1.72,2.74l5.06 10.67c0.27,0.57 0.24,1.23 -0.07,1.78l-5.93 10.22c-0.75,1.3 0.21,2.87 1.64,2.87 0.08,0 0.17,-0.01 0.26,-0.02l11.72 -1.51c0.08,-0.01 0.16,-0.02 0.24,-0.02z"/>
   <path class="fil1" d="M30.79 52.89c-0.09,0 -0.19,-0 -0.28,-0.02 -0.52,-0.05 -1.01,-0.28 -1.4,-0.63 -0.38,-0.36 -0.65,-0.7 -0.98,-1.05l-3.78 -4.16c-0.9,-0.99 -1.8,-1.98 -2.71,-2.97 -0.3,-0.33 -0.61,-0.66 -0.91,-0.99 -0.06,-0.06 -0.12,-0.13 -0.18,-0.19l-0.96 -1.03c-0.34,-0.37 -0.58,-0.66 -0.95,-0.81 -0.26,-0.12 -0.53,-0.18 -0.81,-0.18 -0.11,0 -0.22,0.01 -0.33,0.03l-1.39 0.2c-3.71,0.54 -7.42,1.12 -11.13,1.64l-1.39 0.2 -0.17 0.03 -0.22 0.02c-0.08,0.01 -0.15,0.01 -0.23,0.01 -0.07,0 -0.15,-0 -0.22,-0.01 -0.3,-0.02 -0.6,-0.09 -0.88,-0.21 -1.14,-0.45 -1.91,-1.64 -1.86,-2.88 0.01,-0.31 0.07,-0.61 0.17,-0.9 0.04,-0.15 0.12,-0.28 0.18,-0.42 0.07,-0.14 0.12,-0.22 0.18,-0.33l0.7 -1.22 1.39 -2.44 2.79 -4.89 0.85 -1.5 0.54 -0.94 0.69 -1.21c0.14,-0.27 0.2,-0.57 0.17,-0.87 -0.02,-0.15 -0.05,-0.3 -0.12,-0.43l-0.29 -0.6 -0.61 -1.27 -0.53 -1.12 -0.34 -0.72 -0.33 -0.7 -2.41 -5.08 -1.19 -2.55 -0.3 -0.64 -0.15 -0.33c-0.05,-0.13 -0.1,-0.26 -0.15,-0.39 -0.01,-0.02 -0.01,-0.04 -0.02,-0.05 -0.03,-0.1 -0.05,-0.21 -0.07,-0.31 -0.09,-0.52 -0.05,-1.07 0.13,-1.57 0.15,-0.44 0.4,-0.84 0.72,-1.17 0.12,-0.12 0.25,-0.24 0.38,-0.34 0.51,-0.38 1.14,-0.59 1.77,-0.6 0.03,-0 0.07,-0 0.1,-0 0.12,0 0.25,0 0.36,0.03 0.16,0.02 0.32,0.05 0.41,0.07l0.69 0.16 1.37 0.31c0.55,0.12 1.1,0.25 1.64,0.37 3.11,0.71 6.21,1.47 9.31,2.23l0.68 0.17c0.2,0.05 0.35,0.08 0.53,0.08 0.01,0 0.02,0 0.04,-0 0.37,-0 0.74,-0.12 1.05,-0.35 0.14,-0.1 0.33,-0.28 0.5,-0.43l0.52 -0.47 1.05 -0.94 0.32 -0.29 3.87 -3.47c0.16,-0.14 0.32,-0.28 0.47,-0.42 0.3,-0.27 0.61,-0.55 0.91,-0.82 0.93,-0.84 1.85,-1.7 2.78,-2.54 0.33,-0.31 0.71,-0.67 1.18,-0.83 0.26,-0.1 0.53,-0.14 0.81,-0.14 0.21,0 0.43,0.03 0.63,0.09 0.47,0.12 0.89,0.39 1.21,0.75 0.18,0.2 0.32,0.44 0.42,0.69 0.08,0.21 0.13,0.42 0.15,0.65 0.02,0.16 0.03,0.32 0.05,0.48 0,0.01 0,0.02 0,0.03 0,0.01 0,0.03 0,0.04 0.03,0.26 0.06,0.53 0.08,0.79 0.03,0.27 0.06,0.55 0.09,0.82 0.14,1.3 0.28,2.59 0.43,3.89 0.1,0.91 0.21,1.81 0.32,2.72 0.02,0.13 0.03,0.27 0.05,0.4 0.08,0.67 0.17,1.34 0.25,2.01l0.36 2.79c0.06,0.91 0.56,1.57 1.4,1.91l5.01 2.57c0.25,0.13 0.49,0.25 0.74,0.38 0.49,0.25 0.97,0.5 1.46,0.75 0.94,0.48 1.87,0.96 2.8,1.45 0.84,0.44 1.64,0.85 2.51,1.33 0.52,0.3 0.95,0.78 1.2,1.33 0.25,0.56 0.33,1.18 0.23,1.78 -0.03,0.18 -0.08,0.37 -0.15,0.54 -0.15,0.39 -0.38,0.76 -0.69,1.06 -0.21,0.22 -0.47,0.4 -0.74,0.54 -0.14,0.08 -0.25,0.12 -0.35,0.17l-0.32 0.14 -2.57 1.13c-1.71,0.76 -3.44,1.49 -5.16,2.24l-2.59 1.09 -1.3 0.54 -0.65 0.27 -0.32 0.14c-0.09,0.04 -0.17,0.07 -0.24,0.12 -0.31,0.18 -0.56,0.46 -0.71,0.79 -0.14,0.29 -0.2,0.8 -0.31,1.25l-0.58 2.75 -0.56 2.66 -0.33 1.58 -0.27 1.27 -0.56 2.76 -0.28 1.38 -0.14 0.69c-0.05,0.24 -0.13,0.5 -0.24,0.73 -0.42,0.87 -1.36,1.4 -2.31,1.4zm-13.04 -12.84c0.43,0 0.86,0.1 1.24,0.3 0.25,0.12 0.47,0.29 0.66,0.48 0.2,0.21 0.32,0.36 0.49,0.55l0.92 1.06c1.22,1.42 2.46,2.83 3.71,4.23l3.73 4.21c0.31,0.34 0.62,0.74 0.93,1.02 0.32,0.28 0.71,0.46 1.13,0.5 0.07,0.01 0.14,0.01 0.2,0.01 0.77,0 1.53,-0.44 1.86,-1.14 0.09,-0.19 0.15,-0.38 0.19,-0.6l0.12 -0.69 0.24 -1.39 0.48 -2.77 0.92 -5.55 0.46 -2.78 0.12 -0.69c0.03,-0.21 0.09,-0.54 0.21,-0.79 0.22,-0.53 0.6,-1 1.09,-1.31 0.12,-0.08 0.26,-0.15 0.38,-0.21l0.32 -0.15 0.64 -0.3 1.27 -0.59 2.55 -1.18c1.71,-0.78 3.41,-1.56 5.12,-2.32l2.57 -1.14 0.32 -0.14c0.11,-0.05 0.22,-0.1 0.28,-0.13 0.15,-0.07 0.28,-0.16 0.4,-0.28 0.23,-0.22 0.39,-0.52 0.46,-0.84 0.13,-0.66 -0.17,-1.35 -0.75,-1.69l-2.42 -1.38c-1.63,-0.92 -3.25,-1.87 -4.87,-2.81l-4.87 -2.83 -0.31 -0.18c-0.12,-0.07 -0.23,-0.14 -0.33,-0.23 -0.21,-0.17 -0.39,-0.37 -0.54,-0.59 -0.3,-0.43 -0.44,-1.01 -0.45,-1.47l-0.22 -2.81c-0.29,-3.74 -0.65,-7.47 -1.03,-11.2 -0.08,-0.92 -0.79,-1.7 -1.67,-1.92 -0.18,-0.05 -0.37,-0.07 -0.56,-0.07 -0.26,0 -0.52,0.05 -0.76,0.14 -0.43,0.15 -0.75,0.46 -1.09,0.8 -1.34,1.31 -2.7,2.61 -4.02,3.94l-3.99 3.97 -1 0.99 -0.5 0.5c-0.17,0.17 -0.31,0.32 -0.54,0.52 -0.43,0.35 -0.98,0.57 -1.55,0.61 -0.06,0.01 -0.13,0.01 -0.19,0.01 -0.22,0 -0.45,-0.03 -0.63,-0.07l-0.69 -0.13c-3.69,-0.68 -7.38,-1.37 -11.05,-2.12l-1.38 -0.28 -0.69 -0.14c-0.13,-0.03 -0.2,-0.03 -0.28,-0.04 -0.04,-0.01 -0.09,-0.01 -0.13,-0.01 -0.03,0 -0.07,0 -0.1,0 -0.61,0 -1.18,0.45 -1.37,1.04 -0.1,0.29 -0.1,0.59 -0.02,0.88l0.08 0.22 0.15 0.31 0.31 0.63 1.22 2.53 2.41 5.08 1.2 2.54 0.6 1.27 0.31 0.67c0.12,0.29 0.2,0.61 0.23,0.92 0.06,0.63 -0.08,1.29 -0.39,1.84l-0.72 1.23 -1.43 2.42 -2.86 4.85 -1.43 2.42 -0.71 1.21c-0.05,0.09 -0.13,0.22 -0.16,0.29 -0.03,0.08 -0.08,0.14 -0.11,0.22 -0.06,0.15 -0.1,0.31 -0.1,0.47 -0.05,0.64 0.36,1.33 0.97,1.58 0.15,0.07 0.31,0.12 0.48,0.13 0.05,0.01 0.1,0.01 0.14,0.01 0.04,0 0.07,-0 0.11,-0l0.13 -0 0.17 -0.02 1.4 -0.16c3.72,-0.45 7.46,-0.83 11.18,-1.25l1.4 -0.16c0.12,-0.02 0.23,-0.02 0.35,-0.02z"/>
   <g style="clip-path:url(#id0)">
    <image x="3.81" y="3.75" width="43.83" height="44.39" xlink:href="bigstars_Images\bigstars_ImgID1.png"/>
   </g>
  </g>
 </g>
</svg>
