<?xml version="1.0" encoding="UTF-8"?>
<!DOCTYPE svg PUBLIC "-//W3C//DTD SVG 1.1//EN" "http://www.w3.org/Graphics/SVG/1.1/DTD/svg11.dtd">
<!-- Creator: CorelDRAW -->
<svg xmlns="http://www.w3.org/2000/svg" xml:space="preserve" width="5.54mm" height="5.5399mm" version="1.1" style="shape-rendering:geometricPrecision; text-rendering:geometricPrecision; image-rendering:optimizeQuality; fill-rule:evenodd; clip-rule:evenodd"
viewBox="0 0 4.93 4.93"
 xmlns:xlink="http://www.w3.org/1999/xlink"
 xmlns:xodm="http://www.corel.com/coreldraw/odm/2003">
 <defs>
  <style type="text/css">
   <![CDATA[
    .fil1 {fill:black;fill-rule:nonzero}
    .fil0 {fill:url(#id0);fill-rule:nonzero}
   ]]>
  </style>
  <radialGradient id="id0" gradientUnits="userSpaceOnUse" gradientTransform="matrix(1.52061 1.97268 -1.97272 1.52064 0 -2)" cx="0.85" cy="0.43" r="1.57" fx="0.85" fy="0.43">
   <stop offset="0" style="stop-opacity:1; stop-color:#4A4A4A"/>
   <stop offset="1" style="stop-opacity:1; stop-color:#1E1E1E"/>
  </radialGradient>
 </defs>
 <g id="__x0023_Layer_x0020_1">
  <metadata id="CorelCorpID_0Corel-Layer"/>
  <g id="_2760211115664">
   <path class="fil0" d="M2.46 4.77c-1.27,0 -2.31,-1.03 -2.31,-2.31 0,-1.27 1.03,-2.31 2.31,-2.31 1.27,0 2.31,1.03 2.31,2.31 0,1.27 -1.03,2.31 -2.31,2.31z"/>
   <path class="fil1" d="M2.46 0.31c1.19,0 2.15,0.96 2.15,2.15 0,1.19 -0.96,2.15 -2.15,2.15 -1.19,0 -2.15,-0.96 -2.15,-2.15 0,-1.19 0.96,-2.15 2.15,-2.15zm0 -0.31l0 0c-1.36,0 -2.46,1.11 -2.46,2.46 0,1.36 1.11,2.46 2.46,2.46 1.36,0 2.46,-1.11 2.46,-2.46 0,-1.36 -1.11,-2.46 -2.46,-2.46z"/>
  </g>
 </g>
</svg>
