<?xml version="1.0" encoding="UTF-8"?>
<!DOCTYPE svg PUBLIC "-//W3C//DTD SVG 1.1//EN" "http://www.w3.org/Graphics/SVG/1.1/DTD/svg11.dtd">
<!-- Creator: CorelDRAW -->
<svg xmlns="http://www.w3.org/2000/svg" xml:space="preserve" width="10.3367mm" height="24.6904mm" version="1.1" style="shape-rendering:geometricPrecision; text-rendering:geometricPrecision; image-rendering:optimizeQuality; fill-rule:evenodd; clip-rule:evenodd"
viewBox="0 0 14.54 34.73"
 xmlns:xlink="http://www.w3.org/1999/xlink"
 xmlns:xodm="http://www.corel.com/coreldraw/odm/2003">
 <defs>
  <style type="text/css">
   <![CDATA[
    .fil1 {fill:black;fill-rule:nonzero}
    .fil2 {fill:white;fill-rule:nonzero}
    .fil0 {fill:url(#id0);fill-rule:nonzero}
   ]]>
  </style>
  <radialGradient id="id0" gradientUnits="userSpaceOnUse" gradientTransform="matrix(0.7649 -0 -0 0.764903 2 4)" cx="7.27" cy="17.36" r="17.18" fx="7.27" fy="17.36">
   <stop offset="0" style="stop-opacity:1; stop-color:#4A4A4A"/>
   <stop offset="1" style="stop-opacity:1; stop-color:#1E1E1E"/>
  </radialGradient>
 </defs>
 <g id="__x0023_Layer_x0020_1">
  <metadata id="CorelCorpID_0Corel-Layer"/>
  <g id="_2761550287440">
   <g>
    <path class="fil0" d="M4.79 34.55c-0.08,0 -0.15,-0.05 -0.17,-0.13 -0.05,-0.16 -1.11,-3.7 -1.17,-6.22 -0.68,0.65 -2.31,2.33 -2.91,3.89 -0.03,0.07 -0.09,0.12 -0.17,0.12 -0.01,0 -0.02,-0 -0.03,-0 -0.08,-0.01 -0.15,-0.09 -0.15,-0.17 -0,-0.05 -0.16,-4.82 2.67,-14.26 1.08,-3.61 2.46,-7.46 4.11,-11.46 1.7,-4.13 3.12,-6.13 4.32,-6.13 0.32,0 0.61,0.14 0.88,0.41 2.19,2.19 2.19,13.26 2.19,13.73 0,0.03 -0.01,0.06 -0.02,0.09 -0.01,0.03 -1.5,2.66 -2.89,6.41 0,0 -0,0.01 -0.01,0.01 -1.76,4.73 -2.58,9 -2.45,12.7 0,0.08 -0.04,0.14 -0.11,0.17 -0.02,0.01 -0.05,0.01 -0.07,0.01 -0.05,0 -0.1,-0.02 -0.13,-0.06 -0.08,-0.08 -1.78,-1.86 -2.59,-3.91 -0.33,0.88 -1.04,2.91 -1.12,4.64 -0,0.09 -0.07,0.16 -0.16,0.17 -0.01,0 -0.01,0 -0.02,0z"/>
    <path class="fil1" d="M11.29 0.36c2.92,-0 2.89,13.95 2.89,13.95 0,0 -1.49,2.63 -2.9,6.43 0,0 -0,0 -0,0 -1.35,3.62 -2.62,8.3 -2.47,12.78 0,0 -2,-2.07 -2.71,-4.3 0,0 -1.2,2.82 -1.31,5.14 0,0 -1.23,-4.07 -1.17,-6.58 0,0 -2.48,2.2 -3.25,4.24 0,0 -0.19,-4.69 2.66,-14.2 0.97,-3.25 2.3,-7.06 4.11,-11.44 1.81,-4.39 3.16,-6.02 4.16,-6.02zm0 -0.36l0 0c0,0 -0,0 -0,0 -1.31,0 -2.73,1.99 -4.49,6.25 -1.65,4 -3.04,7.86 -4.12,11.47 -2.83,9.46 -2.68,14.12 -2.67,14.32 0.01,0.17 0.13,0.32 0.3,0.34 0.02,0 0.04,0 0.06,0 0.15,0 0.28,-0.09 0.34,-0.23 0.51,-1.33 1.81,-2.77 2.57,-3.54 0.16,2.5 1.12,5.7 1.16,5.85 0.05,0.15 0.19,0.26 0.35,0.26 0.01,0 0.03,-0 0.04,-0 0.17,-0.02 0.31,-0.17 0.32,-0.34 0.07,-1.47 0.59,-3.16 0.95,-4.15 0.87,1.91 2.37,3.47 2.44,3.55 0.07,0.07 0.16,0.11 0.26,0.11 0.05,0 0.1,-0.01 0.14,-0.03 0.14,-0.06 0.23,-0.2 0.22,-0.35 -0.13,-3.68 0.69,-7.93 2.44,-12.63 0,-0.01 0,-0.01 0.01,-0.02l0 0c1.38,-3.73 2.86,-6.35 2.88,-6.38 0.03,-0.05 0.05,-0.12 0.05,-0.18 0,-0.47 -0,-11.61 -2.24,-13.85 -0.3,-0.3 -0.64,-0.46 -1.01,-0.46z"/>
   </g>
   <path class="fil2" d="M8.8 33.53c0,0 -2,-2.07 -2.71,-4.3 0,0 -1.2,2.82 -1.31,5.14 0,0 -1.23,-4.07 -1.17,-6.58 0,0 -2.48,2.2 -3.25,4.24 0,0 -0.19,-4.69 2.66,-14.2l0.54 0.58c0,0 -1.89,5.71 -2.49,10.46l2.89 -1.98 0.64 5.05c0,0 0.77,-2.19 1.58,-3.76 0,0 0.91,2.2 2.19,4.1 0,0 -0.12,-5.52 2.9,-11.54 -1.35,3.62 -2.62,8.3 -2.47,12.78z"/>
  </g>
 </g>
</svg>
