<?xml version="1.0" encoding="UTF-8"?>
<!DOCTYPE svg PUBLIC "-//W3C//DTD SVG 1.1//EN" "http://www.w3.org/Graphics/SVG/1.1/DTD/svg11.dtd">
<!-- Creator: CorelDRAW -->
<svg xmlns="http://www.w3.org/2000/svg" xml:space="preserve" width="25.0705mm" height="24.9682mm" version="1.1" style="shape-rendering:geometricPrecision; text-rendering:geometricPrecision; image-rendering:optimizeQuality; fill-rule:evenodd; clip-rule:evenodd"
viewBox="0 0 89.36 89"
 xmlns:xlink="http://www.w3.org/1999/xlink"
 xmlns:xodm="http://www.corel.com/coreldraw/odm/2003">
 <defs>
  <style type="text/css">
   <![CDATA[
    .fil2 {fill:#FEFEFE}
    .fil0 {fill:#C7C0DF;fill-rule:nonzero}
    .fil1 {fill:#2F4C74;fill-rule:nonzero}
   ]]>
  </style>
 </defs>
 <g id="Layer_x0020_1">
  <metadata id="CorelCorpID_0Corel-Layer"/>
  <g id="_2445312402192">
   <path class="fil0" d="M19.44 86.45c-9.31,0 -16.89,-7.57 -16.89,-16.89l0 -50.13c0,-9.31 7.57,-16.89 16.89,-16.89l50.49 0c9.31,0 16.89,7.58 16.89,16.89l0 50.13c0,9.31 -7.58,16.89 -16.89,16.89l-50.49 0z"/>
   <path class="fil1" d="M69.93 0l-50.49 0c-10.73,0 -19.44,8.7 -19.44,19.44l0 50.13c0,10.73 8.7,19.44 19.44,19.44l50.49 0c10.73,0 19.44,-8.7 19.44,-19.44l0 -50.13c0,-10.73 -8.7,-19.44 -19.44,-19.44zm0 5.1c7.91,0 14.34,6.43 14.34,14.34l0 50.13c0,7.91 -6.43,14.34 -14.34,14.34l-50.49 0c-7.91,0 -14.34,-6.43 -14.34,-14.34l0 -50.13c0,-7.91 6.43,-14.34 14.34,-14.34l50.49 0z"/>
   <path class="fil2" d="M54.46 51.4c0.51,0.14 5.04,4.89 5.51,5.36l4.73 4.73c0.26,0.26 0.53,0.41 0.64,0.79 0.5,-0.52 1.04,0.29 2.4,-1.36 0.47,-0.57 0.36,-0.68 0.45,-1.27 0.09,-0.56 0.2,-0.28 0.2,-0.62l0 -29.07c0,-0.37 -0.09,-0.03 -0.19,-0.53 -0.1,-0.49 0.03,-0.55 -0.21,-1l-0.25 -0.36c-0.71,-0.87 -1.23,-1.16 -2.3,-1.16 -0.36,0 -5.18,5.02 -5.51,5.36l-2.63 2.66c-0.02,0.01 -0.04,0.03 -0.05,0.05l-1.83 1.83c-0.25,0.25 -0.7,0.78 -0.96,0.87 0,-1.22 0.07,-6.98 -0.04,-7.69 -0.23,-1.44 -1.48,-2.73 -2.75,-3.04 -0.47,-0.11 -0.49,0.06 -1.07,-0.15l-23.99 -0.1c-1.43,-0 -0.71,-0.08 -1.76,0.17 -0.85,0.2 -0.74,-0.07 -1.56,0.37 -2.2,1.18 -1.88,2.54 -2.2,3.49 -0.21,0.64 -0.07,22.48 -0.07,25.24 0,0.57 -0.05,1.4 -0,1.94 0.04,0.41 0.08,0.32 0.13,0.48 0.16,0.48 0.06,0.72 0.16,1.07 0.27,0.91 0.93,1.64 1.72,2.14 0.49,0.31 0.74,0.44 1.45,0.48 1.08,0.07 -0.26,0.21 1.83,0.21 3.54,-0.01 23.83,0.1 24.33,-0.07 0.99,-0.33 0.88,0.12 2.13,-0.72 0.73,-0.49 1.43,-1.3 1.64,-2.33 0.27,-1.36 0.07,-5.95 0.07,-7.76z"/>
  </g>
 </g>
</svg>
