<?xml version="1.0" encoding="UTF-8"?>
<!DOCTYPE svg PUBLIC "-//W3C//DTD SVG 1.1//EN" "http://www.w3.org/Graphics/SVG/1.1/DTD/svg11.dtd">
<!-- Creator: CorelDRAW -->
<svg xmlns="http://www.w3.org/2000/svg" xml:space="preserve" width="26.6266mm" height="19.9999mm" version="1.1" style="shape-rendering:geometricPrecision; text-rendering:geometricPrecision; image-rendering:optimizeQuality; fill-rule:evenodd; clip-rule:evenodd"
viewBox="0 0 643.45 483.31"
 xmlns:xlink="http://www.w3.org/1999/xlink"
 xmlns:xodm="http://www.corel.com/coreldraw/odm/2003">
 <defs>
  <style type="text/css">
   <![CDATA[
    .fil0 {fill:white}
   ]]>
  </style>
 </defs>
 <g id="Layer_x0020_1">
  <metadata id="CorelCorpID_0Corel-Layer"/>
  <path class="fil0" d="M454.47 335.37c6.95,1.85 68.42,66.35 74.83,72.77l64.15 64.14c3.5,3.48 7.25,5.57 8.62,10.69 6.73,-7.09 14.16,3.91 32.53,-18.52 6.37,-7.78 4.89,-9.26 6.1,-17.23 1.16,-7.67 2.75,-3.82 2.75,-8.39l0 -394.52c0,-4.95 -1.25,-0.36 -2.57,-7.18 -1.3,-6.69 0.43,-7.5 -2.84,-13.51l-3.45 -4.94c-9.64,-11.76 -16.64,-15.75 -31.15,-15.75 -4.88,0 -70.24,68.17 -74.83,72.77l-35.66 36.07c-0.21,0.2 -0.51,0.47 -0.72,0.66l-24.79 24.87c-3.39,3.39 -9.44,10.58 -12.97,11.86 0,-16.61 1.01,-94.69 -0.51,-104.33 -3.09,-19.55 -20.14,-37.08 -37.34,-41.29 -6.36,-1.55 -6.63,0.81 -14.57,-1.98l-325.55 -1.38c-19.39,-0 -9.66,-1.05 -23.92,2.29 -11.57,2.71 -10,-0.97 -21.17,5.03 -29.79,16 -25.55,34.42 -29.83,47.42 -2.87,8.75 -0.95,305.06 -0.95,342.53 0,7.74 -0.69,18.96 -0.05,26.26 0.48,5.58 1.15,4.41 1.83,6.47 2.15,6.51 0.82,9.7 2.22,14.46 3.65,12.35 12.67,22.27 23.29,28.99 6.62,4.19 10,5.92 19.65,6.56 14.63,0.97 -3.58,2.84 24.79,2.79 47.99,-0.09 323.3,1.3 330.11,-0.96 13.38,-4.45 11.93,1.6 28.85,-9.77 9.96,-6.7 19.42,-17.68 22.21,-31.59 3.68,-18.4 0.94,-80.73 0.94,-105.28z"/>
 </g>
</svg>
