<?xml version="1.0" encoding="UTF-8"?>
<!DOCTYPE svg PUBLIC "-//W3C//DTD SVG 1.1//EN" "http://www.w3.org/Graphics/SVG/1.1/DTD/svg11.dtd">
<!-- Creator: CorelDRAW -->
<svg xmlns="http://www.w3.org/2000/svg" xml:space="preserve" width="26.6265mm" height="20mm" version="1.1" style="shape-rendering:geometricPrecision; text-rendering:geometricPrecision; image-rendering:optimizeQuality; fill-rule:evenodd; clip-rule:evenodd"
viewBox="0 0 556.93 418.33"
 xmlns:xlink="http://www.w3.org/1999/xlink"
 xmlns:xodm="http://www.corel.com/coreldraw/odm/2003">
 <defs>
  <style type="text/css">
   <![CDATA[
    .fil0 {fill:#B3B3B3}
    .fil1 {fill:white}
   ]]>
  </style>
 </defs>
 <rect class="fil0" x="-4283.46" y="-151.94" width="5903.08" height="4427.31"/>
 <g id="Layer_x0020_1">
  <metadata id="CorelCorpID_0Corel-Layer"/>
  <path class="fil1" d="M393.36 290.27c6.01,1.6 59.22,57.43 64.77,62.98l55.52 55.52c3.03,3.01 6.28,4.82 7.46,9.25 5.82,-6.14 12.25,3.38 28.16,-16.03 5.52,-6.73 4.23,-8.02 5.28,-14.92 1.01,-6.63 2.38,-3.31 2.38,-7.26l0 -341.47c0,-4.29 -1.08,-0.32 -2.22,-6.22 -1.12,-5.79 0.37,-6.49 -2.46,-11.69l-2.98 -4.27c-8.34,-10.18 -14.41,-13.64 -26.96,-13.64 -4.23,0 -60.8,59.01 -64.77,62.98l-30.87 31.22c-0.18,0.17 -0.44,0.4 -0.62,0.57l-21.46 21.53c-2.94,2.93 -8.17,9.16 -11.23,10.26 0,-14.37 0.88,-81.95 -0.44,-90.3 -2.68,-16.93 -17.43,-32.09 -32.32,-35.74 -5.5,-1.34 -5.74,0.7 -12.61,-1.72l-281.78 -1.19c-16.78,-0 -8.36,-0.91 -20.7,1.98 -10.01,2.35 -8.65,-0.84 -18.33,4.36 -25.79,13.84 -22.12,29.8 -25.82,41.04 -2.49,7.57 -0.82,264.04 -0.82,296.48 0,6.7 -0.59,16.41 -0.05,22.73 0.42,4.83 0.99,3.82 1.58,5.6 1.86,5.64 0.71,8.4 1.92,12.51 3.16,10.69 10.97,19.27 20.16,25.09 5.73,3.63 8.65,5.13 17.01,5.68 12.66,0.84 -3.1,2.46 21.46,2.42 41.54,-0.08 279.83,1.13 285.72,-0.83 11.58,-3.85 10.32,1.39 24.97,-8.46 8.62,-5.8 16.81,-15.3 19.22,-27.34 3.18,-15.93 0.81,-69.87 0.81,-91.12z"/>
 </g>
</svg>
