<?xml version="1.0" encoding="UTF-8"?>
<!DOCTYPE svg PUBLIC "-//W3C//DTD SVG 1.1//EN" "http://www.w3.org/Graphics/SVG/1.1/DTD/svg11.dtd">
<!-- Creator: CorelDRAW -->
<svg xmlns="http://www.w3.org/2000/svg" xml:space="preserve" width="8.4471mm" height="9.9052mm" version="1.1" style="shape-rendering:geometricPrecision; text-rendering:geometricPrecision; image-rendering:optimizeQuality; fill-rule:evenodd; clip-rule:evenodd"
viewBox="0 0 10.56 12.38"
 xmlns:xlink="http://www.w3.org/1999/xlink"
 xmlns:xodm="http://www.corel.com/coreldraw/odm/2003">
 <defs>
  <style type="text/css">
   <![CDATA[
    .fil1 {fill:#700000;fill-rule:nonzero}
    .fil2 {fill:white;fill-rule:nonzero}
    .fil0 {fill:url(#id0);fill-rule:nonzero}
   ]]>
  </style>
  <radialGradient id="id0" gradientUnits="userSpaceOnUse" gradientTransform="matrix(0.926143 -0 -0 0.926143 0 0)" cx="5.28" cy="6.19" r="5.91" fx="5.28" fy="6.19">
   <stop offset="0" style="stop-opacity:1; stop-color:#C9102A"/>
   <stop offset="1" style="stop-opacity:1; stop-color:#A30017"/>
  </radialGradient>
 </defs>
 <g id="__x0023_Layer_x0020_1">
  <metadata id="CorelCorpID_0Corel-Layer"/>
  <g id="_2760211140960">
   <g>
    <path class="fil0" d="M6.76 12.1c-2.41,0 -5.61,-0.84 -6.05,-1.16 -0.09,-0.06 -0.13,-0.17 -0.11,-0.28 0,-0 0.02,-0.12 0.05,-0.34 0.17,-1.15 0.64,-5.22 -0.36,-9.17 -0.02,-0.09 -0,-0.18 0.06,-0.25 0.05,-0.06 0.13,-0.1 0.21,-0.1 0.01,0 0.02,0 0.03,0 0.01,0 1.42,0.14 3.04,0.14 1.02,0 1.91,-0.05 2.65,-0.16 2.46,-0.35 3.68,-0.51 3.68,-0.51 0.01,-0 0.02,-0 0.04,-0 0.07,0 0.14,0.03 0.19,0.07 0.06,0.05 0.09,0.13 0.09,0.21 -0.01,0.31 -0.23,7.59 -0.52,10.05 -0.02,0.16 -0.07,0.32 -0.14,0.46 -0.36,0.68 -1.32,1.03 -2.86,1.03z"/>
    <g>
     <path class="fil1" d="M10 0.56c0,0 -0.23,7.55 -0.52,10.02 -0.02,0.13 -0.05,0.25 -0.11,0.36 -0.34,0.65 -1.37,0.88 -2.61,0.88 -2.38,0 -5.52,-0.84 -5.89,-1.11 0,0 0.02,-0.12 0.06,-0.35 0.18,-1.2 0.65,-5.29 -0.36,-9.28 0,0 1.41,0.14 3.07,0.14 0.88,0 1.84,-0.04 2.69,-0.16 2.46,-0.35 3.68,-0.51 3.68,-0.51zm0 -0.56l0 0c-0.02,0 -0.05,0 -0.07,0 -0.01,0 -1.25,0.16 -3.68,0.51 -0.72,0.1 -1.6,0.15 -2.61,0.15 -1.61,0 -3,-0.14 -3.02,-0.14 -0.02,-0 -0.04,-0 -0.05,-0 -0.16,0 -0.32,0.07 -0.42,0.19 -0.12,0.14 -0.16,0.32 -0.12,0.5 0.99,3.9 0.52,7.92 0.35,9.06 -0.03,0.21 -0.05,0.33 -0.05,0.33 -0.04,0.21 0.05,0.43 0.23,0.55 0.55,0.39 3.84,1.21 6.22,1.21 1.68,0 2.69,-0.39 3.1,-1.18 0.09,-0.17 0.14,-0.35 0.17,-0.55 0.3,-2.47 0.52,-9.76 0.53,-10.07 0,-0.16 -0.06,-0.32 -0.18,-0.43 -0.1,-0.09 -0.24,-0.14 -0.37,-0.14zm0 1.12l0 0 0 0 -0 0z"/>
    </g>
   </g>
   <path class="fil2" d="M3.77 2.18c-0.98,-0.09 -1.89,-0.23 -1.89,-0.23 0,0 0.59,5.1 -0.54,7.74 -0.14,0.32 -0.27,0.53 -0.41,0.66 0.18,-1.2 0.65,-5.29 -0.36,-9.28 0,0 3.31,0.33 5.76,-0.02 2.46,-0.35 3.68,-0.51 3.68,-0.51 0,0 -0.23,7.55 -0.52,10.02 -0.02,0.13 -0.05,0.25 -0.11,0.36l-0.74 -2.74 0.15 -6.45c0,0 -4.03,0.53 -5.01,0.44z"/>
  </g>
 </g>
</svg>
