<?xml version="1.0" encoding="UTF-8"?>
<!DOCTYPE svg PUBLIC "-//W3C//DTD SVG 1.1//EN" "http://www.w3.org/Graphics/SVG/1.1/DTD/svg11.dtd">
<!-- Creator: CorelDRAW -->
<svg xmlns="http://www.w3.org/2000/svg" xml:space="preserve" width="21.1098mm" height="11.4336mm" version="1.1" style="shape-rendering:geometricPrecision; text-rendering:geometricPrecision; image-rendering:optimizeQuality; fill-rule:evenodd; clip-rule:evenodd"
viewBox="0 0 174.33 94.42"
 xmlns:xlink="http://www.w3.org/1999/xlink"
 xmlns:xodm="http://www.corel.com/coreldraw/odm/2003">
 <defs>
  <style type="text/css">
   <![CDATA[
    .fil0 {fill:gray}
    .fil3 {fill:#C6C6C6;fill-rule:nonzero}
    .fil2 {fill:white;fill-rule:nonzero}
    .fil5 {fill:#FB74C7;fill-rule:nonzero;fill-opacity:0.219608}
    .fil6 {fill:url(#id2);fill-rule:nonzero}
    .fil4 {fill:url(#id3);fill-rule:nonzero}
    .fil1 {fill:url(#id4);fill-rule:nonzero}
   ]]>
  </style>
     <mask id="id0">
  <radialGradient id="id1" gradientUnits="userSpaceOnUse" cx="3.23" cy="53.98" r="0" fx="3.23" fy="53.98">
   <stop offset="0" style="stop-opacity:0; stop-color:white"/>
   <stop offset="0.0313725" style="stop-opacity:0; stop-color:white"/>
   <stop offset="0.65098" style="stop-opacity:0.0901961; stop-color:white"/>
   <stop offset="1" style="stop-opacity:0.176471; stop-color:white"/>
  </radialGradient>
      <rect style="fill:url(#id1)" x="2.91" y="53.67" width="168.64" height="37.96"/>
     </mask>
  <linearGradient id="id2" gradientUnits="userSpaceOnUse" x1="35.44" y1="13.2" x2="61.84" y2="13.2">
   <stop offset="0" style="stop-opacity:1; stop-color:#FFFBE8"/>
   <stop offset="0.341176" style="stop-opacity:1; stop-color:#FFFBE8"/>
   <stop offset="0.909804" style="stop-opacity:1; stop-color:#F1F1EF"/>
   <stop offset="1" style="stop-opacity:1; stop-color:#F1F1EF"/>
  </linearGradient>
  <linearGradient id="id3" gradientUnits="userSpaceOnUse" x1="51.1" y1="20.83" x2="47.56" y2="9.9">
   <stop offset="0" style="stop-opacity:1; stop-color:#E8F9FF"/>
   <stop offset="0.341176" style="stop-opacity:1; stop-color:#E8F9FF"/>
   <stop offset="0.909804" style="stop-opacity:1; stop-color:#EAEDF1"/>
   <stop offset="1" style="stop-opacity:1; stop-color:#EAEDF1"/>
  </linearGradient>
  <radialGradient id="id4" gradientUnits="userSpaceOnUse" gradientTransform="matrix(0.966622 -0.280823 0.280822 0.966618 -16 26)" cx="85.52" cy="68.59" r="85.55" fx="85.52" fy="68.59">
   <stop offset="0" style="stop-opacity:1; stop-color:white"/>
   <stop offset="0.0313725" style="stop-opacity:0; stop-color:white"/>
   <stop offset="0.65098" style="stop-opacity:1; stop-color:white"/>
   <stop offset="1" style="stop-opacity:1; stop-color:white"/>
  </radialGradient>
 </defs>
 <rect class="fil0" x="-110.07" y="-176.51" width="2330.64" height="1747.98"/>
 <g id="__x0023_Layer_x0020_1">
  <metadata id="CorelCorpID_0Corel-Layer"/>
  <g id="_2743826130352">
   <g>
    <g>
     <path class="fil1" d="M96.82 92.87c-18.93,0 -27.85,-9.41 -28.22,-9.81 -0.38,-0.41 -0.51,-0.99 -0.34,-1.52 0.02,-0.07 1.99,-6.51 -0.81,-11.3 -1.48,-2.54 -4.11,-4.22 -7.78,-5 -1.57,-0.33 -3.01,-0.49 -4.28,-0.49 -1.4,0 -2.6,0.2 -3.58,0.6 -1.6,0.66 -2.42,1.84 -2.84,3 0.85,-0.54 1.84,-1.07 2.93,-1.47 1.25,-0.46 2.51,-0.69 3.74,-0.69 2.2,0 4.26,0.74 6.13,2.2 3.43,2.67 4.69,7 3.27,11.29 -1.63,4.93 -6.16,8.2 -11.53,8.32l-0.54 0.01c-6.27,0 -9.09,-2.74 -10.35,-4.96 -2.26,2.08 -6.66,4.98 -13.69,4.98 -1.88,0 -3.87,-0.22 -5.89,-0.64 -11.95,-2.54 -13.05,-8.3 -14.02,-13.38 -0.27,-1.4 -0.52,-2.72 -0.98,-4 -1.88,-5.14 -4.73,-5.34 -4.86,-5.35 -0.62,-0.03 -1.18,-0.44 -1.39,-1.02 -0.21,-0.58 -0.07,-1.24 0.38,-1.67 0,0 0.36,-0.34 1.06,-0.84 0.03,-0.02 0.28,-0.2 0.31,-0.22 1.64,-1.01 3.47,-1.54 5.3,-1.54 2.34,0 4.69,0.84 6.99,2.48 2.57,1.85 5.04,2.86 6.95,2.86 4.26,0 5.36,-5.44 5.54,-10.01 0.31,-8.46 6.39,-13.71 15.88,-13.71 4.49,0 9.25,1.2 13.65,3.42 -0.18,-4.21 0.32,-11.98 5.37,-18.64 4.85,-6.38 12.65,-10.12 23.2,-11.09 1.26,-0.12 2.48,-0.17 3.66,-0.17 16.69,0 25.61,11.19 26.83,21.59 1.05,8.94 -3.37,19.26 -15.58,22.16 -2.74,0.65 -5.29,0.98 -7.57,0.98 -0,0 -0,0 -0,0 -5.02,0 -8.93,-1.56 -11.61,-4.64 -0.81,-0.92 -1.45,-1.93 -1.96,-2.96 0.07,0.21 0.15,0.42 0.23,0.63 1.16,2.86 3.71,4.98 7.57,6.32 2.65,0.92 5.41,1.38 8.22,1.38 11.5,0 20.99,-7.77 21.16,-17.31 0.01,-0.51 0.27,-0.99 0.7,-1.27 0.26,-0.17 0.55,-0.25 0.85,-0.25 0.2,0 0.4,0.04 0.59,0.12 0.33,0.14 8.12,3.43 10.34,11.33 0.13,0.45 0.04,0.92 -0.21,1.29 2.19,-1.28 4.77,-2.03 7.45,-2.03 5.59,0 10.9,3.14 14.96,8.82 5.11,7.2 10.56,8.92 14.24,9.1l0.65 0.01c0.77,0 1.46,-0.06 2.02,-0.14 0.86,-0.12 1.44,-0.29 1.7,-0.37 0.05,-0.01 0.25,-0.07 0.3,-0.08 0.1,-0.02 0.2,-0.03 0.3,-0.03 0.48,0 0.94,0.22 1.23,0.61 0.36,0.47 0.42,1.1 0.15,1.63 -0.05,0.11 -5.4,10.54 -16.59,10.54 -0.72,0 -1.46,-0.04 -2.2,-0.13 -1.35,2.45 -5.36,7.96 -14.15,7.96 -1.19,0 -2.43,-0.1 -3.7,-0.31 -8.33,-1.34 -12.78,-6.04 -15.02,-9.63 -1.83,4.98 -6.92,12.19 -21.07,12.94 -1.05,0.06 -2.07,0.08 -3.07,0.08zm30.85 -37.63l0 0c-2.67,1.83 -8,6.39 -5.31,12.28 2.23,4.92 6.36,5.46 8.03,5.46 1.48,0 2.55,-0.37 3.08,-0.68 -0.56,-0.29 -1.51,-0.64 -2.2,-0.9 -3.36,-1.25 -9.62,-3.57 -7.6,-10.27 0.69,-2.3 2.11,-4.32 3.99,-5.89z"/>
     <path class="fil2" d="M90.07 16.07c28.91,0 34.05,35.19 10.88,40.7 -2.74,0.65 -5.13,0.94 -7.22,0.94 -16.21,0 -13.81,-17.41 -13.81,-17.41 0,0 -7.4,14.6 7.53,19.77 2.89,1 5.85,1.47 8.72,1.47 11.9,0 22.52,-7.97 22.71,-18.84 0,0 7.4,3.06 9.44,10.32 0,0 -11.48,6.16 -7.37,15.15 2.18,4.81 6.2,6.36 9.44,6.36 2.83,0 5.06,-1.18 4.94,-2.39 -0.26,-2.65 -12.63,-2.43 -10.17,-10.56 1.36,-4.53 6.21,-8.17 11.89,-8.17 4.49,0 9.49,2.27 13.7,8.17 5.44,7.67 11.35,9.55 15.43,9.74l0.03 0c0.25,0.01 0.49,0.01 0.72,0.01 0.86,0 1.62,-0.06 2.23,-0.16 1.2,-0.17 1.93,-0.43 2.07,-0.46 -0.29,0.57 -5.25,9.69 -15.21,9.69 -0.98,0 -2.01,-0.09 -3.09,-0.28 0,0 -3.12,8.11 -13.26,8.11 -1.07,0 -2.22,-0.09 -3.45,-0.29 -12.86,-2.07 -15.79,-12.85 -15.79,-12.85 0,0 -0.13,15.06 -20.63,16.14 -1.02,0.05 -2.02,0.08 -2.99,0.08 -18.47,0 -27.08,-9.32 -27.08,-9.32 0,0 4.84,-15.2 -9.75,-18.28 -1.75,-0.37 -3.27,-0.53 -4.59,-0.53 -1.71,0 -3.08,0.27 -4.17,0.72 -5.02,2.07 -4.16,7.94 -4.16,7.94 0,0 2.22,-2.38 5.36,-3.51 0.99,-0.36 2.08,-0.6 3.21,-0.6 1.66,0 3.43,0.51 5.18,1.88 6.75,5.24 2.33,16.62 -7.35,16.84 -0.17,0 -0.35,0.01 -0.51,0.01 -9.18,0 -9.79,-6.33 -9.79,-6.33 0,0 -4.23,6.36 -14.24,6.36 -1.69,0 -3.55,-0.18 -5.58,-0.61 -14.01,-2.98 -11.58,-10.03 -13.86,-16.38 -2.33,-6.37 -6.27,-6.37 -6.27,-6.37 0,0 0.31,-0.29 0.92,-0.72 0.08,-0.05 0.16,-0.12 0.24,-0.17 0.97,-0.6 2.51,-1.3 4.48,-1.3 1.73,0 3.79,0.55 6.09,2.19 2.67,1.91 5.43,3.15 7.85,3.15 3.82,0 6.76,-3.09 7.08,-11.5 0.3,-8.34 6.6,-12.22 14.33,-12.22 4.97,0 10.54,1.61 15.47,4.67 0,0 -5.1,-28.02 26.88,-30.98 1.21,-0.11 2.38,-0.17 3.52,-0.17zm0 -3.09l0 0c-1.24,0 -2.52,0.06 -3.81,0.18 -10.99,1.02 -19.16,4.95 -24.28,11.69 -4.44,5.85 -5.55,12.52 -5.69,17.15 -3.96,-1.66 -8.12,-2.55 -12.09,-2.55 -10.25,0 -17.09,5.97 -17.43,15.21 -0.15,3.88 -0.96,8.52 -3.99,8.52 -1.58,0 -3.73,-0.91 -6.04,-2.57 -2.56,-1.84 -5.22,-2.77 -7.89,-2.77 -2.12,0 -4.23,0.61 -6.1,1.77 -0.08,0.05 -0.26,0.17 -0.35,0.24 -0.02,0.01 -0.05,0.03 -0.07,0.05 -0.79,0.57 -1.2,0.96 -1.2,0.96 -0.97,0.92 -1.44,2.37 -0.88,3.58 0.51,1.1 1.46,1.81 2.62,1.81 0.09,0 0.17,-0 0.26,-0.01 0.4,0.09 2.13,0.7 3.45,4.33 0.41,1.15 0.65,2.41 0.91,3.75 1.01,5.28 2.26,11.84 15.21,14.6 2.14,0.45 4.23,0.67 6.22,0.67 6.28,0 10.64,-2.2 13.35,-4.25 1.91,2.27 5.24,4.23 10.68,4.23 0.19,0 0.39,-0 0.59,-0.01 6.03,-0.14 11.12,-3.82 12.96,-9.38 1.24,-3.75 0.7,-7.54 -1.39,-10.49 0.37,0.4 0.7,0.85 0.98,1.32 2.46,4.19 0.7,10.02 0.68,10.07 -0.33,1.06 -0.07,2.22 0.68,3.03 0.39,0.42 9.76,10.31 29.35,10.31 1.02,0 2.07,-0.03 3.15,-0.08 12.76,-0.67 18.61,-6.39 21.3,-11.42 2.73,3.37 7.24,6.92 14.47,8.09 1.34,0.22 2.67,0.33 3.94,0.33 8.62,0 13.07,-4.9 14.97,-7.87 0.46,0.03 0.92,0.05 1.38,0.05 12.12,0 17.92,-11.28 17.98,-11.4 0.53,-1.05 0.41,-2.31 -0.29,-3.25 -0.59,-0.79 -1.51,-1.24 -2.47,-1.24 -0.19,0 -0.37,0.02 -0.56,0.05 -0.08,0.01 -0.24,0.05 -0.47,0.12 -0.26,0.08 -0.74,0.22 -1.46,0.32 -0.41,0.06 -1.01,0.13 -1.81,0.13 -0.19,0 -0.39,-0 -0.59,-0.01 -0.02,0 -0.04,-0 -0.06,-0 -3.33,-0.17 -8.28,-1.78 -13,-8.44 -4.36,-6.12 -10.12,-9.48 -16.23,-9.48 -2.08,0 -4.11,0.41 -5.97,1.14 -2.67,-8.09 -10.67,-11.48 -11.02,-11.62 -0.38,-0.16 -0.78,-0.23 -1.18,-0.23 -0.11,0 -0.21,0.01 -0.32,0.02 0.05,-1.24 0,-2.48 -0.14,-3.69 -1.3,-11.06 -10.72,-22.96 -28.36,-22.96z"/>
    </g>
    <path class="fil3" style="mask:url(#id0)" d="M171.24 70.73c-0.31,0.62 -6.29,11.57 -18.31,9.42 0,0 -3.82,9.9 -16.71,7.8 -12.86,-2.07 -15.78,-12.85 -15.78,-12.85 0,0 -0.12,15.06 -20.62,16.14 -20.53,1.11 -30.09,-9.22 -30.09,-9.22 0,0 4.84,-15.2 -9.74,-18.29 -14.58,-3.06 -12.92,8.14 -12.92,8.14 0,0 7,-7.52 13.75,-2.24 6.75,5.25 2.34,16.62 -7.34,16.85 -9.68,0.23 -10.3,-6.32 -10.3,-6.32 0,0 -5.8,8.68 -19.82,5.73 -14.03,-2.98 -11.59,-10.01 -13.87,-16.37 -2.31,-6.38 -6.26,-6.38 -6.26,-6.38 0,0 0.4,-0.4 1.14,-0.88 5.06,0.57 10.94,2.84 16.43,8.91 13.56,14.95 18.03,3.06 26.51,-9.05 8.48,-12.11 27.81,-10.81 34.4,4.79 6.6,15.63 22.63,13.67 27.68,4.45 5.06,-9.22 10.61,4.11 20.13,9.16 9.56,5.05 14.4,-10.66 14.4,-10.66 0,0 4.1,8.45 18,3.35 1.51,-0.57 2.96,-1.19 4.25,-1.87 0.03,0.03 0.03,0 0.03,0 2.9,0.14 4.81,-0.54 5.03,-0.6z"/>
   </g>
   <g>
    <g>
     <path class="fil4" d="M61.83 13.21c-10.59,1.42 -11.76,2.58 -13.2,13.17 -1.42,-10.59 -2.58,-11.76 -13.2,-13.17 10.62,-1.45 11.78,-2.61 13.2,-13.2 1.45,10.59 2.61,11.75 13.2,13.2z"/>
    </g>
    <path class="fil5" d="M61.83 13.21c-10.59,1.42 -11.76,2.58 -13.2,13.17l0 -26.37c1.45,10.59 2.61,11.75 13.2,13.2z"/>
    <path class="fil5" d="M61.83 13.21c-10.59,1.42 -11.76,2.58 -13.2,13.17 -1.42,-10.59 -2.58,-11.76 -13.2,-13.17l26.4 0z"/>
    <g>
     <path class="fil6" d="M48.64 2.83c1.24,7.43 2.94,9.13 10.36,10.36 -7.43,1.24 -9.13,2.94 -10.36,10.36 -1.24,-7.43 -2.94,-9.13 -10.36,-10.36 7.43,-1.24 9.13,-2.94 10.36,-10.36zm0 -2.83l0 0c-1.44,10.59 -2.61,11.76 -13.2,13.2 10.59,1.44 11.76,2.61 13.2,13.2 1.44,-10.59 2.61,-11.76 13.2,-13.2 -10.59,-1.44 -11.76,-2.61 -13.2,-13.2z"/>
    </g>
   </g>
  </g>
 </g>
</svg>
