<?xml version="1.0" encoding="UTF-8"?>
<!DOCTYPE svg PUBLIC "-//W3C//DTD SVG 1.1//EN" "http://www.w3.org/Graphics/SVG/1.1/DTD/svg11.dtd">
<!-- Creator: CorelDRAW -->
<svg xmlns="http://www.w3.org/2000/svg" xml:space="preserve" width="11.3363mm" height="7.6385mm" version="1.1" style="shape-rendering:geometricPrecision; text-rendering:geometricPrecision; image-rendering:optimizeQuality; fill-rule:evenodd; clip-rule:evenodd"
viewBox="0 0 154.27 103.95"
 xmlns:xlink="http://www.w3.org/1999/xlink"
 xmlns:xodm="http://www.corel.com/coreldraw/odm/2003">
 <defs>
  <style type="text/css">
   <![CDATA[
    .fil0 {fill:gray}
    .fil4 {fill:#EC60C6;fill-rule:nonzero}
    .fil9 {fill:#EC8DC7;fill-rule:nonzero}
    .fil6 {fill:#49C2FB;fill-rule:nonzero;fill-opacity:0.219608}
    .fil10 {fill:#FB74C7;fill-rule:nonzero;fill-opacity:0.219608}
    .fil5 {fill:#FFFBF5;fill-rule:nonzero}
    .fil11 {fill:url(#id0);fill-rule:nonzero}
    .fil8 {fill:url(#id1);fill-rule:nonzero}
    .fil12 {fill:url(#id2);fill-rule:nonzero}
    .fil3 {fill:url(#id3);fill-rule:nonzero}
    .fil14 {fill:url(#id4);fill-rule:nonzero}
    .fil2 {fill:url(#id5);fill-rule:nonzero}
    .fil7 {fill:url(#id6);fill-rule:nonzero}
    .fil1 {fill:url(#id7);fill-rule:nonzero}
    .fil15 {fill:url(#id8);fill-rule:nonzero}
    .fil13 {fill:url(#id9);fill-rule:nonzero}
   ]]>
  </style>
  <linearGradient id="id0" gradientUnits="userSpaceOnUse" x1="83.71" y1="51.43" x2="151.91" y2="51.43">
   <stop offset="0" style="stop-opacity:1; stop-color:#FFFBE8"/>
   <stop offset="0.341176" style="stop-opacity:1; stop-color:#FFFBE8"/>
   <stop offset="0.909804" style="stop-opacity:1; stop-color:#F1F1EF"/>
   <stop offset="1" style="stop-opacity:1; stop-color:#F1F1EF"/>
  </linearGradient>
  <linearGradient id="id1" gradientUnits="userSpaceOnUse" x1="82.53" y1="51.43" x2="153.09" y2="51.43">
   <stop offset="0" style="stop-opacity:1; stop-color:#F7E8FF"/>
   <stop offset="0.341176" style="stop-opacity:1; stop-color:#F7E8FF"/>
   <stop offset="0.909804" style="stop-opacity:1; stop-color:#F1EAEC"/>
   <stop offset="1" style="stop-opacity:1; stop-color:#F1EAEC"/>
  </linearGradient>
  <linearGradient id="id2" gradientUnits="userSpaceOnUse" x1="12.89" y1="74.5" x2="49.55" y2="74.5">
   <stop offset="0" style="stop-opacity:1; stop-color:#E8F9FF"/>
   <stop offset="0.341176" style="stop-opacity:1; stop-color:#E8F9FF"/>
   <stop offset="0.909804" style="stop-opacity:1; stop-color:#EAEDF1"/>
   <stop offset="1" style="stop-opacity:1; stop-color:#EAEDF1"/>
  </linearGradient>
  <linearGradient id="id3" gradientUnits="userSpaceOnUse" xlink:href="#id2" x1="96.4" y1="91.15" x2="139.21" y2="91.15">
  </linearGradient>
  <linearGradient id="id4" gradientUnits="userSpaceOnUse" xlink:href="#id1" x1="1.01" y1="40.49" x2="61.43" y2="40.49">
  </linearGradient>
  <linearGradient id="id5" gradientUnits="userSpaceOnUse" xlink:href="#id0" x1="32.35" y1="-0.77" x2="30.09" y2="29.98">
  </linearGradient>
  <linearGradient id="id6" gradientUnits="userSpaceOnUse" xlink:href="#id0" x1="97.12" y1="91.15" x2="138.5" y2="91.15">
  </linearGradient>
  <linearGradient id="id7" gradientUnits="userSpaceOnUse" xlink:href="#id0" x1="119.19" y1="5.92" x2="116.42" y2="43.72">
  </linearGradient>
  <linearGradient id="id8" gradientUnits="userSpaceOnUse" xlink:href="#id0" x1="2.02" y1="40.49" x2="60.42" y2="40.49">
  </linearGradient>
  <linearGradient id="id9" gradientUnits="userSpaceOnUse" xlink:href="#id0" x1="13.5" y1="74.5" x2="48.94" y2="74.5">
  </linearGradient>
 </defs>
 <rect class="fil0" x="-1353.87" y="-836.9" width="3840.6" height="2880.45"/>
 <g id="__x0023_Layer_x0020_1">
  <metadata id="CorelCorpID_0Corel-Layer"/>
  <g id="_2743823748928">
   <polygon class="fil1" points="116.61,0 116.61,49.64 119.01,49.64 119.01,0 "/>
   <polygon class="fil2" points="32.42,29.21 32.42,0 30.02,0 30.02,29.21 "/>
   <g>
    <g>
     <g>
      <path class="fil3" d="M112.28 103.21c-2.73,-0.12 -4.33,-1.36 -5.19,-2.37 -0.96,-1.12 -1.4,-2.36 -1.58,-3.09 -0.07,0 -0.14,0 -0.22,0 -1.21,0 -3.52,-0.1 -5.46,-0.8 -3.29,-1.2 -3.64,-3.4 -3.36,-5.04 0.85,-4.88 7.11,-5.41 9.76,-5.41 0.13,0 0.26,0.01 0.38,0.01 -0.07,-1.03 0.02,-2.76 1.11,-4.31 1.17,-1.68 3.17,-2.69 5.92,-3.01 0.76,-0.09 1.45,-0.13 2.08,-0.13 2.65,0 4.56,0.7 5.67,2.08 0.3,0.37 0.49,0.73 0.63,1.06 0.73,-0.45 1.83,-1.02 3.09,-1.22 0.31,-0.05 0.64,-0.08 0.97,-0.08 1.25,0 2.38,0.43 3.35,1.26 2.53,2.16 3.83,4.37 4.34,5.39 0.37,-0.07 0.88,-0.14 1.43,-0.14 1.36,0 2.44,0.43 3.13,1.23 0.79,0.91 1.05,2.28 0.78,4.06 -0.11,0.78 -0.27,1.38 -0.48,1.89 -0.77,2.06 -2.37,3.21 -4.5,3.21 -0.35,0 -0.68,-0.03 -0.96,-0.07 -0.18,1.41 -1.09,3.89 -5.17,4.58 -0.78,0.14 -1.53,0.2 -2.25,0.2 -3.07,0 -5.41,-1.08 -6.48,-1.7 -0.71,0.94 -2.45,2.43 -6.24,2.43l-0.75 -0.02z"/>
      <g>
       <path class="fil4" d="M115.72 79.78c5.84,0 5.84,3.62 5.84,3.62 0,0 1.61,-1.38 3.66,-1.71 0.28,-0.05 0.56,-0.07 0.85,-0.07 0.95,0 1.95,0.29 2.88,1.08 3.26,2.79 4.41,5.68 4.41,5.68 0,0 0.84,-0.26 1.85,-0.26 1.66,0 3.76,0.71 3.2,4.46 -0.1,0.67 -0.24,1.24 -0.44,1.71 -0.85,2.29 -2.55,2.78 -3.83,2.78 -0.93,0 -1.65,-0.26 -1.65,-0.26 0,0 0.54,3.9 -4.61,4.77 -0.74,0.13 -1.45,0.19 -2.13,0.19 -4,0 -6.71,-1.97 -6.71,-1.97 0,0 -1.05,2.71 -6.02,2.71 -0.23,0 -0.46,-0.01 -0.7,-0.02 -2.29,-0.1 -3.77,-1.04 -4.67,-2.12 -1.34,-1.55 -1.55,-3.36 -1.55,-3.36 0,0 -0.31,0.02 -0.8,0.02 -1.16,0 -3.38,-0.1 -5.21,-0.76 -1.85,-0.67 -3.29,-1.92 -2.89,-4.24 0.76,-4.33 6.51,-4.81 9.05,-4.81 0.74,0 1.2,0.04 1.2,0.04 0,0 -1.55,-6.46 6.29,-7.36 0.73,-0.08 1.39,-0.12 2,-0.12zm0 -1.43c-0.65,0 -1.37,0.04 -2.16,0.13 -2.97,0.34 -5.13,1.46 -6.43,3.31 -0.96,1.38 -1.22,2.88 -1.25,4.01 -5.78,0.08 -9.46,2.26 -10.11,6 -0.27,1.56 -0.14,4.4 3.81,5.83 1.88,0.67 4.07,0.82 5.38,0.84 0.26,0.8 0.73,1.87 1.59,2.85 0.94,1.11 2.7,2.48 5.69,2.61 0.26,0.01 0.52,0.02 0.77,0.02 3.5,0 5.42,-1.23 6.41,-2.25 1.29,0.66 3.53,1.52 6.32,1.52 0.79,0 1.59,-0.07 2.38,-0.21 3.7,-0.63 5.19,-2.71 5.65,-4.5 0.11,0.01 0.23,0.01 0.35,0.01 2.45,0 4.29,-1.32 5.18,-3.71 0.21,-0.49 0.38,-1.15 0.51,-2 0.3,-1.99 -0.02,-3.55 -0.95,-4.63 -0.83,-0.97 -2.1,-1.48 -3.67,-1.48 -0.38,0 -0.73,0.03 -1.05,0.07 -0.66,-1.2 -1.99,-3.2 -4.27,-5.15 -1.08,-0.93 -2.4,-1.43 -3.81,-1.43 -0.37,0 -0.74,0.03 -1.1,0.1 -1.02,0.17 -1.94,0.55 -2.67,0.93 -0.1,-0.17 -0.22,-0.34 -0.36,-0.51 -1.25,-1.56 -3.35,-2.34 -6.22,-2.34z"/>
      </g>
     </g>
     <path class="fil5" d="M138.4 92.58c-0.1,0.67 -0.24,1.24 -0.44,1.71 -3.23,-3.13 -8,-3.06 -8,-3.06 0,0 0.91,-3.66 -1.82,-5.01 -2.69,-1.35 -6.56,1.18 -6.56,1.18 0,0 -3.7,-4.98 -9.01,-2.89 -5.31,2.08 -2.69,7.3 -2.69,7.3 0,0 -6.42,-2.25 -8.94,0 -1.34,1.21 -1.24,3.06 -0.87,4.47 -1.85,-0.67 -3.29,-1.92 -2.89,-4.24 0.98,-5.58 10.26,-4.77 10.26,-4.77 0,0 -1.55,-6.46 6.29,-7.36 7.83,-0.91 7.83,3.5 7.83,3.5 0,0 4.17,-3.5 7.4,-0.7 3.26,2.79 4.41,5.68 4.41,5.68 0,0 5.95,-1.82 5.04,4.2z"/>
     <path class="fil6" d="M138.4 92.58c-0.1,0.67 -0.24,1.24 -0.44,1.71 -1.48,3.97 -5.48,2.52 -5.48,2.52 0,0 0.54,3.9 -4.61,4.77 -5.14,0.91 -8.84,-1.78 -8.84,-1.78 0,0 -1.14,2.96 -6.72,2.69 -2.29,-0.1 -3.77,-1.04 -4.67,-2.12 6.14,-0.12 7.19,-5.1 10.5,-5.49 15,-1.76 9.81,-8.42 7.08,-13.21 1.18,-0.2 2.52,-0.03 3.73,1.01 3.26,2.79 4.41,5.68 4.41,5.68 0,0 5.95,-1.82 5.04,4.2z"/>
     <path class="fil5" d="M129.91 99.08c0,0.93 -1.53,1.69 -3.42,1.69 -1.89,0 -3.42,-0.76 -3.42,-1.69 0,-0.93 1.53,-1.69 3.42,-1.69 1.89,0 3.42,0.76 3.42,1.69z"/>
     <path class="fil5" d="M117.81 85.16c0,0.93 -1.53,1.69 -3.42,1.69 -1.89,0 -3.42,-0.76 -3.42,-1.69 0,-0.93 1.53,-1.69 3.42,-1.69 1.89,0 3.42,0.76 3.42,1.69z"/>
     <path class="fil5" d="M126.94 96.18c0,0.47 -0.77,0.85 -1.71,0.85 -0.94,0 -1.71,-0.38 -1.71,-0.85 0,-0.47 0.77,-0.84 1.71,-0.84 0.95,0 1.71,0.38 1.71,0.84z"/>
     <path class="fil5" d="M117.13 88.39c0,0.47 -0.77,0.85 -1.71,0.85 -0.95,0 -1.71,-0.38 -1.71,-0.85 0,-0.47 0.77,-0.84 1.71,-0.84 0.95,0 1.71,0.38 1.71,0.84z"/>
     <g>
      <path class="fil7" d="M115.72 80.81c4.57,0 4.79,2.34 4.8,2.58 0,0.4 0.23,0.77 0.6,0.94 0.14,0.06 0.29,0.1 0.44,0.1 0.24,0 0.48,-0.08 0.67,-0.24 0.01,-0.01 1.44,-1.2 3.17,-1.48 0.22,-0.04 0.45,-0.06 0.68,-0.06 0.82,0 1.56,0.28 2.2,0.83 3,2.57 4.11,5.25 4.12,5.28 0.16,0.4 0.55,0.65 0.96,0.65 0.1,0 0.2,-0.01 0.3,-0.04 0.01,-0 0.72,-0.21 1.55,-0.21 0.84,0 1.44,0.21 1.79,0.62 0.55,0.64 0.51,1.79 0.38,2.65 -0.1,0.63 -0.22,1.11 -0.38,1.51 -0.53,1.42 -1.46,2.1 -2.86,2.1 -0.73,0 -1.29,-0.19 -1.29,-0.19 -0.11,-0.04 -0.23,-0.06 -0.34,-0.06 -0.23,0 -0.46,0.08 -0.65,0.23 -0.28,0.22 -0.43,0.58 -0.39,0.94 0.04,0.3 0.22,2.95 -3.76,3.62 -0.65,0.11 -1.3,0.17 -1.95,0.17 -3.59,0 -6.08,-1.76 -6.1,-1.77 -0.17,-0.13 -0.38,-0.19 -0.59,-0.19 -0.1,0 -0.2,0.01 -0.29,0.04 -0.3,0.08 -0.56,0.31 -0.68,0.59 -0.04,0.08 -0.95,2.06 -5.06,2.06 -0.21,0 -0.43,-0.01 -0.66,-0.02 -1.69,-0.07 -3.01,-0.66 -3.94,-1.76 -1.1,-1.27 -1.3,-2.79 -1.3,-2.8 -0.06,-0.53 -0.5,-0.92 -1.03,-0.92 -0.02,0 -0.04,0 -0.06,0 -0.01,0 -0.3,0.02 -0.74,0.02 -1.09,0 -3.17,-0.09 -4.86,-0.69 -2.3,-0.84 -2.4,-2.09 -2.22,-3.09 0.62,-3.57 5.82,-3.96 8.03,-3.96 0.66,0 1.09,0.04 1.11,0.04 0.03,0 0.06,0 0.09,0 0.3,0 0.59,-0.13 0.78,-0.36 0.22,-0.25 0.3,-0.59 0.23,-0.91 -0.01,-0.02 -0.47,-2.15 0.72,-3.84 0.87,-1.24 2.45,-1.99 4.67,-2.25 0.69,-0.08 1.31,-0.12 1.88,-0.12zm0 -1.04c-0.6,0 -1.27,0.04 -2,0.12 -7.83,0.91 -6.29,7.36 -6.29,7.36 0,0 -0.47,-0.04 -1.2,-0.04 -2.54,0 -8.3,0.49 -9.05,4.81 -0.4,2.32 1.04,3.56 2.89,4.24 1.84,0.66 4.05,0.76 5.21,0.76 0.5,0 0.8,-0.02 0.8,-0.02 0,0 0.2,1.82 1.55,3.36 0.91,1.08 2.39,2.02 4.67,2.12 0.24,0.01 0.48,0.02 0.7,0.02 4.97,0 6.02,-2.71 6.02,-2.71 0,0 2.71,1.97 6.71,1.97 0.68,0 1.39,-0.06 2.13,-0.19 5.14,-0.87 4.61,-4.77 4.61,-4.77 0,0 0.71,0.26 1.65,0.26 1.28,0 2.98,-0.48 3.83,-2.78 0.2,-0.47 0.34,-1.04 0.44,-1.71 0.57,-3.75 -1.54,-4.46 -3.2,-4.46 -1,0 -1.85,0.26 -1.85,0.26 0,0 -1.14,-2.89 -4.41,-5.68 -0.93,-0.8 -1.93,-1.08 -2.88,-1.08 -0.29,0 -0.58,0.03 -0.85,0.07 -2.05,0.34 -3.66,1.71 -3.66,1.71 0,0 0,-3.62 -5.84,-3.62z"/>
     </g>
    </g>
    <g>
     <g>
      <path class="fil8" d="M108.7 71.32c-4.51,-0.2 -7.14,-2.24 -8.55,-3.91 -1.6,-1.83 -2.31,-3.88 -2.61,-5.1 -0.11,0 -0.23,0.01 -0.36,0.01 -1.99,0 -5.8,-0.17 -8.99,-1.32 -5.42,-1.96 -6,-5.6 -5.53,-8.29 1.4,-8.05 11.71,-8.92 16.08,-8.92 0.22,0 0.43,0.01 0.62,0.01 -0.11,-1.7 0.04,-4.55 1.83,-7.11 1.93,-2.76 5.21,-4.43 9.76,-4.95 1.26,-0.15 2.4,-0.21 3.43,-0.21 4.36,0 7.51,1.15 9.34,3.43 0.49,0.6 0.81,1.2 1.03,1.74 1.2,-0.75 3.01,-1.67 5.1,-2.02 0.52,-0.09 1.05,-0.14 1.6,-0.14 2.06,0 3.92,0.69 5.51,2.07 4.16,3.56 6.31,7.22 7.15,8.89 0.62,-0.12 1.46,-0.24 2.38,-0.24 2.23,0 4.01,0.7 5.15,2.02 1.3,1.51 1.74,3.76 1.29,6.69 -0.2,1.31 -0.45,2.3 -0.8,3.12 -1.27,3.39 -3.9,5.29 -7.4,5.29 -0.59,0 -1.12,-0.06 -1.58,-0.13 -0.3,2.32 -1.8,6.41 -8.52,7.56 -1.22,0.22 -2.47,0.32 -3.7,0.32 -5.06,0 -8.91,-1.79 -10.68,-2.8 -1.18,1.54 -4.05,4.01 -10.31,4.01 -0.39,0 -0.79,-0.01 -1.21,-0.03z"/>
      <g>
       <path class="fil9" d="M114.37 32.7c9.62,0 9.62,5.97 9.62,5.97 0,0 2.66,-2.27 6.04,-2.83 0.46,-0.08 0.93,-0.12 1.41,-0.12 1.56,0 3.22,0.47 4.74,1.79 5.37,4.6 7.26,9.36 7.26,9.36 0,0 1.39,-0.42 3.04,-0.42 2.74,-0 6.2,1.16 5.27,7.35 -0.17,1.11 -0.39,2.05 -0.72,2.83 -1.41,3.78 -4.21,4.58 -6.32,4.58 -1.54,0 -2.71,-0.42 -2.71,-0.42 0,0 0.89,6.43 -7.59,7.87 -1.22,0.22 -2.4,0.31 -3.51,0.31 -6.6,0 -11.06,-3.25 -11.06,-3.25 0,0 -1.72,4.46 -9.92,4.46 -0.37,0 -0.76,-0.01 -1.16,-0.03 -3.77,-0.17 -6.21,-1.72 -7.7,-3.49 -2.22,-2.55 -2.55,-5.54 -2.55,-5.54 0,0 -0.5,0.03 -1.33,0.03 -1.92,0 -5.57,-0.16 -8.59,-1.25 -3.05,-1.11 -5.43,-3.16 -4.77,-6.98 1.25,-7.13 10.73,-7.94 14.92,-7.94 1.21,0 1.98,0.07 1.98,0.07 0,0 -2.55,-10.64 10.36,-12.13 1.21,-0.14 2.3,-0.2 3.29,-0.2zm0 -2.37c-1.11,0 -2.31,0.07 -3.56,0.22 -4.89,0.57 -8.46,2.4 -10.59,5.45 -1.58,2.27 -2.01,4.74 -2.06,6.6 -9.53,0.14 -15.59,3.73 -16.67,9.89 -0.45,2.57 -0.22,7.24 6.29,9.61 3.1,1.11 6.7,1.36 8.87,1.39 0.43,1.33 1.21,3.07 2.62,4.7 1.54,1.83 4.44,4.08 9.38,4.3 0.43,0.02 0.85,0.03 1.26,0.03 5.77,0 8.93,-2.02 10.57,-3.72 2.13,1.08 5.81,2.5 10.42,2.5 1.31,0 2.63,-0.12 3.92,-0.35 6.09,-1.03 8.56,-4.46 9.31,-7.42 0.19,0.01 0.38,0.01 0.58,0.01 4.03,0 7.07,-2.17 8.54,-6.12 0.35,-0.81 0.63,-1.89 0.84,-3.3 0.5,-3.28 -0.03,-5.85 -1.56,-7.63 -1.37,-1.59 -3.46,-2.43 -6.04,-2.43 -0.62,0 -1.21,0.05 -1.73,0.12 -1.09,-1.97 -3.28,-5.28 -7.03,-8.49 -1.79,-1.54 -3.96,-2.35 -6.28,-2.35 -0.62,0 -1.22,0.06 -1.81,0.16 -1.68,0.27 -3.2,0.9 -4.4,1.54 -0.17,-0.28 -0.37,-0.56 -0.6,-0.85 -2.07,-2.56 -5.52,-3.86 -10.26,-3.86z"/>
      </g>
     </g>
     <path class="fil5" d="M151.75 53.79c-0.17,1.11 -0.39,2.05 -0.72,2.83 -5.32,-5.15 -13.19,-5.04 -13.19,-5.04 0,0 1.5,-6.04 -2.99,-8.26 -4.43,-2.22 -10.8,1.94 -10.8,1.94 0,0 -6.1,-8.2 -14.85,-4.76 -8.75,3.43 -4.43,12.02 -4.43,12.02 0,0 -10.58,-3.71 -14.74,0 -2.22,1.99 -2.05,5.04 -1.44,7.37 -3.05,-1.11 -5.43,-3.16 -4.77,-6.98 1.61,-9.2 16.9,-7.87 16.9,-7.87 0,0 -2.55,-10.64 10.36,-12.13 12.91,-1.5 12.91,5.76 12.91,5.76 0,0 6.87,-5.76 12.19,-1.16 5.37,4.6 7.26,9.36 7.26,9.36 0,0 9.81,-2.99 8.31,6.93z"/>
     <path class="fil10" d="M151.75 53.79c-0.17,1.11 -0.39,2.05 -0.72,2.83 -2.44,6.54 -9.03,4.15 -9.03,4.15 0,0 0.89,6.43 -7.59,7.87 -8.48,1.5 -14.57,-2.94 -14.57,-2.94 0,0 -1.88,4.88 -11.08,4.43 -3.77,-0.17 -6.21,-1.72 -7.7,-3.49 10.11,-0.19 11.84,-8.4 17.3,-9.04 24.71,-2.89 16.16,-13.87 11.67,-21.76 1.94,-0.33 4.16,-0.06 6.15,1.66 5.37,4.6 7.26,9.36 7.26,9.36 0,0 9.81,-2.99 8.31,6.93z"/>
     <path class="fil5" d="M137.76 64.51c0,1.54 -2.53,2.78 -5.64,2.78 -3.11,0 -5.64,-1.25 -5.64,-2.78 0,-1.54 2.53,-2.78 5.64,-2.78 3.11,0 5.64,1.25 5.64,2.78z"/>
     <path class="fil5" d="M117.81 41.58c0,1.54 -2.53,2.78 -5.64,2.78 -3.11,0 -5.64,-1.25 -5.64,-2.78 0,-1.54 2.53,-2.78 5.64,-2.78 3.12,0 5.64,1.25 5.64,2.78z"/>
     <path class="fil5" d="M132.86 59.74c0,0.77 -1.26,1.39 -2.82,1.39 -1.56,0 -2.82,-0.62 -2.82,-1.39 0,-0.77 1.26,-1.39 2.82,-1.39 1.56,0 2.82,0.62 2.82,1.39z"/>
     <path class="fil5" d="M116.69 46.9c0,0.77 -1.26,1.39 -2.82,1.39 -1.56,0 -2.82,-0.62 -2.82,-1.39 0,-0.77 1.26,-1.39 2.82,-1.39 1.56,0 2.82,0.62 2.82,1.39z"/>
     <g>
      <path class="fil11" d="M114.37 34.41c7.54,0 7.9,3.85 7.91,4.26 0,0.66 0.39,1.27 0.99,1.55 0.23,0.11 0.47,0.16 0.72,0.16 0.4,0 0.79,-0.14 1.11,-0.4 0.02,-0.02 2.37,-1.98 5.22,-2.44 0.36,-0.06 0.74,-0.1 1.12,-0.1 1.35,0 2.57,0.46 3.63,1.37 4.95,4.23 6.76,8.65 6.78,8.69 0.26,0.67 0.91,1.08 1.59,1.08 0.16,0 0.33,-0.02 0.49,-0.07 0.01,-0 1.19,-0.35 2.55,-0.35 1.38,0 2.38,0.34 2.96,1.02 0.9,1.05 0.84,2.96 0.62,4.37 -0.16,1.04 -0.35,1.83 -0.63,2.48 -0.87,2.33 -2.41,3.47 -4.72,3.47 -1.19,0 -2.13,-0.32 -2.13,-0.32 -0.19,-0.07 -0.39,-0.1 -0.58,-0.1 -0.39,0 -0.76,0.13 -1.07,0.38 -0.47,0.38 -0.7,0.97 -0.62,1.56 0.03,0.19 0.58,4.8 -6.2,5.95 -1.06,0.19 -2.14,0.28 -3.21,0.28 -5.92,0 -10.02,-2.89 -10.06,-2.92 -0.29,-0.21 -0.63,-0.31 -0.98,-0.31 -0.16,0 -0.32,0.02 -0.47,0.06 -0.5,0.13 -0.92,0.51 -1.12,0.98 -0.06,0.14 -1.57,3.4 -8.34,3.4 -0.35,0 -0.7,-0.01 -1.08,-0.03 -2.78,-0.12 -4.96,-1.09 -6.49,-2.91 -1.82,-2.09 -2.14,-4.59 -2.14,-4.61 -0.1,-0.87 -0.83,-1.52 -1.7,-1.52 -0.03,0 -0.07,0 -0.1,0 -0.02,0 -0.49,0.03 -1.23,0.03 -1.8,0 -5.23,-0.15 -8.01,-1.15 -3.79,-1.38 -3.95,-3.44 -3.67,-5.08 1.03,-5.89 9.6,-6.52 13.24,-6.52 1.09,0 1.8,0.06 1.83,0.06 0.05,0 0.1,0.01 0.14,0.01 0.49,0 0.96,-0.22 1.29,-0.59 0.36,-0.41 0.5,-0.97 0.38,-1.51 -0.01,-0.04 -0.78,-3.54 1.19,-6.34 1.44,-2.04 4.03,-3.29 7.7,-3.71 1.1,-0.13 2.14,-0.19 3.09,-0.19zm0 -1.71c-0.99,0 -2.09,0.06 -3.29,0.2 -12.91,1.5 -10.36,12.13 -10.36,12.13 0,0 -0.77,-0.07 -1.98,-0.07 -4.19,0 -13.67,0.8 -14.92,7.94 -0.66,3.82 1.72,5.87 4.77,6.98 3.03,1.09 6.67,1.25 8.59,1.25 0.82,0 1.33,-0.03 1.33,-0.03 0,0 0.33,2.99 2.55,5.54 1.5,1.77 3.93,3.32 7.7,3.49 0.4,0.02 0.79,0.03 1.16,0.03 8.2,0 9.92,-4.46 9.92,-4.46 0,0 4.46,3.25 11.06,3.25 1.11,0 2.29,-0.09 3.51,-0.31 8.48,-1.44 7.59,-7.87 7.59,-7.87 0,0 1.17,0.42 2.71,0.42 2.11,0 4.91,-0.8 6.32,-4.58 0.33,-0.78 0.55,-1.72 0.72,-2.83 0.93,-6.19 -2.53,-7.35 -5.27,-7.35 -1.65,0 -3.04,0.42 -3.04,0.42 0,0 -1.88,-4.77 -7.26,-9.36 -1.53,-1.31 -3.18,-1.79 -4.74,-1.79 -0.48,0 -0.95,0.04 -1.41,0.12 -3.38,0.56 -6.04,2.83 -6.04,2.83 0,0 0,-5.97 -9.62,-5.97z"/>
     </g>
    </g>
    <g>
     <g>
      <path class="fil12" d="M26.49 84.83c-2.34,-0.11 -3.71,-1.16 -4.44,-2.03 -0.83,-0.96 -1.2,-2.02 -1.35,-2.65l-0.17 0c-1.04,0 -3.02,-0.09 -4.68,-0.68 -2.82,-1.02 -3.12,-2.91 -2.88,-4.31 0.73,-4.18 6.09,-4.64 8.35,-4.64 0.12,0 0.23,0 0.33,0 -0.06,-0.88 0.02,-2.36 0.95,-3.69 1,-1.44 2.71,-2.3 5.07,-2.57 0.65,-0.07 1.24,-0.11 1.78,-0.11 2.26,0 3.9,0.6 4.85,1.78 0.25,0.31 0.42,0.63 0.53,0.91 0.62,-0.39 1.57,-0.87 2.65,-1.05 0.27,-0.05 0.54,-0.07 0.83,-0.07 1.07,0 2.04,0.36 2.87,1.08 2.16,1.85 3.28,3.75 3.72,4.61 0.32,-0.06 0.76,-0.12 1.23,-0.12 1.16,0 2.08,0.37 2.68,1.05 0.67,0.79 0.9,1.96 0.67,3.48 -0.11,0.7 -0.24,1.2 -0.42,1.62 -0.66,1.76 -2.03,2.75 -3.85,2.75 -0.3,0 -0.58,-0.03 -0.82,-0.07 -0.15,1.2 -0.94,3.33 -4.43,3.92 -0.67,0.12 -1.32,0.17 -1.93,0.17 -2.63,0 -4.63,-0.93 -5.55,-1.45 -0.61,0.8 -2.11,2.09 -5.35,2.09l-0.63 -0.01z"/>
      <g>
       <path class="fil4" d="M29.44 64.77c5,0 5,3.1 5,3.1 0,0 1.38,-1.18 3.14,-1.47 0.24,-0.04 0.48,-0.06 0.73,-0.06 0.81,0 1.67,0.24 2.46,0.93 2.79,2.39 3.77,4.87 3.77,4.87 0,0 0.72,-0.22 1.58,-0.22 1.42,-0 3.22,0.6 2.74,3.82 -0.09,0.58 -0.2,1.06 -0.37,1.47 -0.73,1.97 -2.19,2.38 -3.28,2.38 -0.8,0 -1.41,-0.22 -1.41,-0.22 0,0 0.46,3.34 -3.94,4.09 -0.64,0.11 -1.25,0.16 -1.82,0.16 -3.43,0 -5.75,-1.69 -5.75,-1.69 0,0 -0.9,2.32 -5.15,2.32 -0.19,0 -0.39,-0 -0.6,-0.01 -1.96,-0.09 -3.22,-0.89 -4,-1.81 -1.15,-1.32 -1.32,-2.88 -1.32,-2.88 0,0 -0.26,0.02 -0.69,0.02 -1,0 -2.89,-0.09 -4.46,-0.65 -1.58,-0.58 -2.82,-1.64 -2.48,-3.63 0.65,-3.71 5.58,-4.12 7.75,-4.12 0.63,0 1.03,0.03 1.03,0.03 0,0 -1.32,-5.53 5.38,-6.3 0.63,-0.07 1.19,-0.1 1.71,-0.1zm0 -1.23c-0.56,0 -1.17,0.04 -1.85,0.11 -2.54,0.3 -4.4,1.25 -5.5,2.83 -0.82,1.18 -1.05,2.46 -1.07,3.43 -4.95,0.07 -8.1,1.94 -8.66,5.14 -0.23,1.34 -0.12,3.76 3.27,4.99 1.61,0.58 3.48,0.7 4.61,0.72 0.22,0.69 0.63,1.6 1.36,2.44 0.8,0.95 2.31,2.12 4.87,2.23 0.22,0.01 0.44,0.02 0.66,0.02 3,0 4.64,-1.05 5.49,-1.93 1.11,0.56 3.02,1.3 5.41,1.3 0.68,0 1.36,-0.06 2.04,-0.18 3.17,-0.54 4.45,-2.32 4.84,-3.86 0.1,0.01 0.2,0.01 0.3,0.01 2.1,0 3.67,-1.13 4.44,-3.18 0.18,-0.42 0.33,-0.98 0.44,-1.71 0.26,-1.71 -0.02,-3.04 -0.81,-3.97 -0.71,-0.83 -1.8,-1.26 -3.14,-1.26 -0.32,0 -0.63,0.02 -0.9,0.06 -0.57,-1.02 -1.71,-2.74 -3.66,-4.41 -0.93,-0.8 -2.06,-1.22 -3.26,-1.22 -0.32,0 -0.63,0.03 -0.94,0.08 -0.87,0.14 -1.66,0.47 -2.29,0.8 -0.09,-0.15 -0.19,-0.29 -0.31,-0.44 -1.07,-1.33 -2.87,-2.01 -5.33,-2.01z"/>
      </g>
     </g>
     <path class="fil5" d="M48.86 75.72c-0.09,0.58 -0.2,1.06 -0.37,1.47 -2.76,-2.68 -6.85,-2.62 -6.85,-2.62 0,0 0.78,-3.14 -1.55,-4.29 -2.3,-1.15 -5.61,1.01 -5.61,1.01 0,0 -3.17,-4.26 -7.72,-2.48 -4.55,1.79 -2.3,6.25 -2.3,6.25 0,0 -5.5,-1.93 -7.66,0 -1.15,1.04 -1.07,2.62 -0.75,3.83 -1.58,-0.58 -2.82,-1.64 -2.48,-3.63 0.84,-4.78 8.78,-4.09 8.78,-4.09 0,0 -1.33,-5.53 5.38,-6.3 6.71,-0.78 6.71,2.99 6.71,2.99 0,0 3.57,-2.99 6.33,-0.6 2.79,2.39 3.77,4.87 3.77,4.87 0,0 5.1,-1.55 4.32,3.6z"/>
     <path class="fil6" d="M48.86 75.72c-0.09,0.58 -0.2,1.06 -0.37,1.47 -1.27,3.4 -4.69,2.16 -4.69,2.16 0,0 0.46,3.34 -3.94,4.09 -4.41,0.78 -7.57,-1.53 -7.57,-1.53 0,0 -0.98,2.53 -5.76,2.3 -1.96,-0.09 -3.22,-0.89 -4,-1.81 5.25,-0.1 6.15,-4.37 8.99,-4.7 12.84,-1.5 8.4,-7.21 6.07,-11.31 1.01,-0.17 2.16,-0.03 3.2,0.86 2.79,2.39 3.77,4.87 3.77,4.87 0,0 5.1,-1.55 4.32,3.6z"/>
     <path class="fil5" d="M41.59 81.29c0,0.8 -1.31,1.45 -2.93,1.45 -1.62,0 -2.93,-0.65 -2.93,-1.45 0,-0.8 1.31,-1.45 2.93,-1.45 1.62,0 2.93,0.65 2.93,1.45z"/>
     <path class="fil5" d="M31.22 69.38c0,0.8 -1.31,1.45 -2.93,1.45 -1.62,0 -2.93,-0.65 -2.93,-1.45 0,-0.8 1.31,-1.45 2.93,-1.45 1.62,0 2.93,0.65 2.93,1.45z"/>
     <path class="fil5" d="M39.04 78.81c0,0.4 -0.66,0.72 -1.47,0.72 -0.81,0 -1.47,-0.32 -1.47,-0.72 0,-0.4 0.66,-0.72 1.47,-0.72 0.81,0 1.47,0.32 1.47,0.72z"/>
     <path class="fil5" d="M30.64 72.14c0,0.4 -0.66,0.72 -1.46,0.72 -0.81,0 -1.47,-0.32 -1.47,-0.72 0,-0.4 0.66,-0.72 1.47,-0.72 0.81,0 1.46,0.32 1.46,0.72z"/>
     <g>
      <path class="fil13" d="M29.44 65.65c3.92,0 4.1,2 4.11,2.21 0,0.35 0.2,0.66 0.51,0.8 0.12,0.05 0.25,0.08 0.37,0.08 0.21,0 0.41,-0.07 0.57,-0.21 0.01,-0.01 1.23,-1.03 2.71,-1.27 0.19,-0.03 0.38,-0.05 0.58,-0.05 0.7,0 1.34,0.24 1.89,0.71 2.57,2.2 3.52,4.5 3.52,4.52 0.14,0.34 0.47,0.56 0.83,0.56 0.08,0 0.17,-0.01 0.25,-0.04 0.01,-0 0.62,-0.18 1.32,-0.18 0.72,0 1.23,0.18 1.54,0.53 0.47,0.55 0.44,1.54 0.33,2.27 -0.08,0.54 -0.18,0.95 -0.33,1.29 -0.45,1.21 -1.25,1.8 -2.45,1.8 -0.62,0 -1.11,-0.17 -1.11,-0.17 -0.1,-0.03 -0.2,-0.05 -0.3,-0.05 -0.2,0 -0.4,0.07 -0.56,0.2 -0.24,0.19 -0.36,0.5 -0.33,0.8 0.03,0.26 0.19,2.52 -3.22,3.1 -0.55,0.1 -1.11,0.15 -1.67,0.15 -3.08,0 -5.21,-1.5 -5.23,-1.52 -0.15,-0.11 -0.33,-0.16 -0.51,-0.16 -0.08,0 -0.17,0.01 -0.25,0.03 -0.26,0.07 -0.47,0.26 -0.58,0.51 -0.03,0.07 -0.82,1.77 -4.33,1.77 -0.18,0 -0.37,-0 -0.56,-0.01 -1.45,-0.06 -2.58,-0.57 -3.37,-1.51 -0.94,-1.08 -1.11,-2.39 -1.11,-2.4 -0.05,-0.45 -0.43,-0.79 -0.88,-0.79 -0.02,0 -0.03,0 -0.05,0 -0.01,0 -0.25,0.01 -0.64,0.01 -0.93,0 -2.72,-0.08 -4.16,-0.6 -1.97,-0.72 -2.05,-1.79 -1.91,-2.64 0.53,-3.06 4.99,-3.39 6.88,-3.39 0.57,0 0.93,0.03 0.95,0.03 0.02,0 0.05,0 0.07,0 0.26,0 0.5,-0.11 0.67,-0.31 0.19,-0.21 0.26,-0.51 0.19,-0.78 -0,-0.02 -0.41,-1.84 0.62,-3.29 0.75,-1.06 2.09,-1.71 4,-1.93 0.59,-0.07 1.12,-0.1 1.61,-0.1zm0 -0.89c-0.51,0 -1.08,0.03 -1.71,0.1 -6.71,0.78 -5.38,6.3 -5.38,6.3 0,0 -0.4,-0.03 -1.03,-0.03 -2.18,0 -7.1,0.42 -7.75,4.12 -0.35,1.99 0.89,3.05 2.48,3.63 1.57,0.56 3.47,0.65 4.46,0.65 0.43,0 0.69,-0.02 0.69,-0.02 0,0 0.17,1.56 1.32,2.88 0.78,0.92 2.04,1.73 4,1.81 0.21,0.01 0.41,0.01 0.6,0.01 4.26,0 5.15,-2.32 5.15,-2.32 0,0 2.32,1.69 5.75,1.69 0.58,0 1.19,-0.05 1.82,-0.16 4.41,-0.75 3.94,-4.09 3.94,-4.09 0,0 0.61,0.22 1.41,0.22 1.1,0 2.55,-0.42 3.28,-2.38 0.17,-0.4 0.29,-0.89 0.37,-1.47 0.49,-3.21 -1.31,-3.82 -2.74,-3.82 -0.86,0 -1.58,0.22 -1.58,0.22 0,0 -0.98,-2.48 -3.77,-4.87 -0.79,-0.68 -1.65,-0.93 -2.46,-0.93 -0.25,0 -0.49,0.02 -0.73,0.06 -1.76,0.29 -3.14,1.47 -3.14,1.47 0,0 0,-3.1 -5,-3.1z"/>
     </g>
    </g>
    <g>
     <g>
      <path class="fil14" d="M23.42 57.52c-3.87,-0.17 -6.12,-1.92 -7.32,-3.35 -1.37,-1.57 -1.98,-3.32 -2.24,-4.36 -0.1,0 -0.21,0.01 -0.32,0.01 -1.7,0 -4.95,-0.15 -7.69,-1.13 -4.64,-1.69 -5.14,-4.8 -4.74,-7.11 1.2,-6.89 10.04,-7.63 13.78,-7.63 0.19,0 0.36,0 0.53,0.01 -0.1,-1.46 0.03,-3.9 1.56,-6.09 1.65,-2.36 4.47,-3.79 8.36,-4.25 1.07,-0.12 2.05,-0.18 2.93,-0.18 3.74,0 6.43,0.98 8,2.93 0.41,0.52 0.69,1.04 0.88,1.5 1.03,-0.64 2.59,-1.43 4.37,-1.72 0.44,-0.08 0.9,-0.12 1.37,-0.12 1.77,0 3.35,0.6 4.72,1.77 3.56,3.05 5.41,6.18 6.13,7.61 0.53,-0.1 1.25,-0.2 2.03,-0.2 1.91,0 3.43,0.59 4.41,1.73 1.11,1.29 1.48,3.22 1.11,5.73 -0.17,1.12 -0.39,1.97 -0.69,2.67 -1.08,2.91 -3.34,4.53 -6.34,4.53 -0.5,0 -0.96,-0.05 -1.36,-0.11 -0.26,1.99 -1.55,5.5 -7.3,6.47 -1.1,0.19 -2.17,0.28 -3.17,0.28 -4.33,0 -7.62,-1.53 -9.15,-2.4 -1.01,1.32 -3.46,3.44 -8.82,3.44 -0.34,0 -0.68,-0.01 -1.04,-0.02z"/>
      <g>
       <path class="fil9" d="M28.28 24.45c8.24,0 8.24,5.11 8.24,5.11 0,0 2.28,-1.94 5.17,-2.42 0.39,-0.07 0.79,-0.1 1.2,-0.1 1.34,0 2.75,0.4 4.06,1.53 4.6,3.94 6.21,8.02 6.21,8.02 0,0 1.19,-0.36 2.6,-0.36 2.35,0 5.31,1 4.51,6.29 -0.14,0.95 -0.33,1.76 -0.62,2.42 -1.21,3.24 -3.6,3.92 -5.41,3.92 -1.32,0 -2.32,-0.36 -2.32,-0.36 0,0 0.76,5.5 -6.5,6.74 -1.05,0.19 -2.05,0.26 -3.01,0.26 -5.65,0 -9.47,-2.78 -9.47,-2.78 0,0 -1.48,3.82 -8.5,3.82 -0.32,0 -0.65,-0.01 -0.99,-0.02 -3.23,-0.14 -5.31,-1.47 -6.59,-2.99 -1.9,-2.18 -2.18,-4.74 -2.18,-4.74 0,0 -0.43,0.02 -1.13,0.02 -1.64,0 -4.77,-0.14 -7.36,-1.07 -2.61,-0.95 -4.65,-2.7 -4.08,-5.98 1.07,-6.11 9.19,-6.79 12.77,-6.79 1.04,0 1.7,0.06 1.7,0.06 0,0 -2.18,-9.11 8.87,-10.39 1.03,-0.12 1.97,-0.17 2.82,-0.17zm0 -2.02c-0.95,0 -1.98,0.06 -3.05,0.19 -4.19,0.49 -7.24,2.06 -9.07,4.67 -1.36,1.94 -1.72,4.06 -1.76,5.66 -8.16,0.12 -13.35,3.19 -14.27,8.47 -0.38,2.2 -0.19,6.2 5.38,8.23 2.66,0.95 5.74,1.16 7.59,1.19 0.37,1.13 1.04,2.63 2.25,4.03 1.32,1.56 3.8,3.5 8.03,3.68 0.37,0.02 0.73,0.03 1.08,0.03 4.94,0 7.65,-1.73 9.05,-3.18 1.83,0.93 4.98,2.14 8.92,2.14 1.12,0 2.25,-0.1 3.36,-0.29 5.22,-0.89 7.33,-3.82 7.97,-6.36 0.16,0.01 0.32,0.01 0.49,0.01 3.45,0 6.05,-1.86 7.31,-5.24 0.3,-0.7 0.54,-1.62 0.72,-2.83 0.42,-2.81 -0.03,-5.01 -1.34,-6.54 -1.17,-1.36 -2.96,-2.08 -5.18,-2.08 -0.53,0 -1.04,0.04 -1.48,0.1 -0.94,-1.69 -2.81,-4.52 -6.02,-7.27 -1.53,-1.32 -3.39,-2.01 -5.38,-2.01 -0.53,0 -1.05,0.05 -1.55,0.13 -1.44,0.24 -2.74,0.77 -3.77,1.31 -0.15,-0.24 -0.32,-0.48 -0.51,-0.72 -1.77,-2.2 -4.72,-3.31 -8.78,-3.31z"/>
      </g>
     </g>
     <path class="fil5" d="M60.28 42.51c-0.14,0.95 -0.33,1.76 -0.62,2.42 -4.55,-4.41 -11.29,-4.32 -11.29,-4.32 0,0 1.28,-5.17 -2.56,-7.07 -3.8,-1.9 -9.25,1.66 -9.25,1.66 0,0 -5.22,-7.02 -12.72,-4.08 -7.5,2.94 -3.8,10.29 -3.8,10.29 0,0 -9.06,-3.18 -12.62,0 -1.9,1.71 -1.76,4.32 -1.23,6.31 -2.61,-0.95 -4.65,-2.7 -4.08,-5.98 1.38,-7.88 14.47,-6.74 14.47,-6.74 0,0 -2.18,-9.11 8.87,-10.39 11.06,-1.28 11.06,4.93 11.06,4.93 0,0 5.88,-4.93 10.44,-1 4.6,3.94 6.21,8.02 6.21,8.02 0,0 8.4,-2.56 7.12,5.93z"/>
     <path class="fil10" d="M60.28 42.51c-0.14,0.95 -0.33,1.76 -0.62,2.42 -2.09,5.6 -7.73,3.56 -7.73,3.56 0,0 0.76,5.5 -6.5,6.74 -7.26,1.28 -12.48,-2.51 -12.48,-2.51 0,0 -1.61,4.18 -9.49,3.8 -3.23,-0.14 -5.31,-1.47 -6.59,-2.99 8.66,-0.17 10.14,-7.19 14.82,-7.74 21.16,-2.48 13.84,-11.88 10,-18.64 1.66,-0.28 3.56,-0.05 5.27,1.42 4.6,3.94 6.21,8.02 6.21,8.02 0,0 8.4,-2.56 7.12,5.93z"/>
     <path class="fil5" d="M48.31 51.69c0,1.32 -2.16,2.38 -4.83,2.38 -2.67,0 -4.83,-1.07 -4.83,-2.38 0,-1.32 2.16,-2.38 4.83,-2.38 2.67,0 4.83,1.07 4.83,2.38z"/>
     <path class="fil5" d="M31.22 32.05c0,1.32 -2.16,2.38 -4.83,2.38 -2.67,0 -4.83,-1.07 -4.83,-2.38 0,-1.32 2.16,-2.38 4.83,-2.38 2.67,0 4.83,1.07 4.83,2.38z"/>
     <path class="fil5" d="M44.11 47.6c0,0.66 -1.08,1.19 -2.42,1.19 -1.33,0 -2.42,-0.53 -2.42,-1.19 0,-0.66 1.08,-1.19 2.42,-1.19 1.33,0 2.42,0.53 2.42,1.19z"/>
     <path class="fil5" d="M30.26 36.61c0,0.66 -1.08,1.19 -2.42,1.19 -1.33,0 -2.41,-0.53 -2.41,-1.19 0,-0.66 1.08,-1.19 2.41,-1.19 1.33,0 2.42,0.53 2.42,1.19z"/>
     <g>
      <path class="fil15" d="M28.28 25.92c6.45,0 6.76,3.29 6.78,3.65 0,0.57 0.33,1.08 0.85,1.32 0.2,0.09 0.41,0.14 0.62,0.14 0.34,0 0.68,-0.12 0.95,-0.35 0.02,-0.02 2.02,-1.69 4.47,-2.09 0.31,-0.05 0.63,-0.08 0.96,-0.08 1.16,0 2.2,0.39 3.11,1.18 4.24,3.63 5.79,7.41 5.81,7.45 0.23,0.57 0.78,0.92 1.36,0.92 0.14,0 0.28,-0.02 0.42,-0.06 0.01,-0 1.02,-0.3 2.18,-0.3 1.18,0 2.03,0.29 2.53,0.87 0.77,0.9 0.72,2.53 0.53,3.74 -0.13,0.89 -0.3,1.56 -0.54,2.13 -0.75,2 -2.07,2.97 -4.04,2.97 -1.02,0 -1.82,-0.27 -1.82,-0.28 -0.16,-0.06 -0.32,-0.08 -0.48,-0.08 -0.33,0 -0.65,0.11 -0.92,0.32 -0.4,0.31 -0.6,0.82 -0.54,1.32 0.05,0.42 0.32,4.16 -5.3,5.11 -0.91,0.16 -1.83,0.24 -2.75,0.24 -5.07,0 -8.58,-2.48 -8.61,-2.5 -0.25,-0.18 -0.54,-0.27 -0.84,-0.27 -0.14,0 -0.27,0.02 -0.41,0.05 -0.43,0.12 -0.79,0.43 -0.96,0.84 -0.05,0.12 -1.34,2.91 -7.14,2.91 -0.3,0 -0.6,-0.01 -0.93,-0.02 -2.38,-0.1 -4.25,-0.94 -5.56,-2.49 -1.56,-1.79 -1.83,-3.93 -1.83,-3.95 -0.08,-0.74 -0.71,-1.3 -1.45,-1.3 -0.03,0 -0.06,0 -0.09,0 -0.02,0 -0.42,0.02 -1.05,0.02 -1.54,0 -4.48,-0.13 -6.86,-0.98 -3.25,-1.18 -3.38,-2.95 -3.14,-4.35 0.88,-5.04 8.22,-5.58 11.33,-5.58 0.94,0 1.54,0.05 1.57,0.05 0.04,0 0.08,0 0.12,0 0.42,0 0.83,-0.19 1.11,-0.51 0.31,-0.35 0.42,-0.83 0.32,-1.29 -0.01,-0.03 -0.67,-3.03 1.02,-5.42 1.23,-1.75 3.45,-2.82 6.6,-3.18 0.94,-0.11 1.83,-0.16 2.65,-0.16zm0 -1.46c-0.85,0 -1.79,0.05 -2.82,0.17 -11.05,1.28 -8.87,10.39 -8.87,10.39 0,0 -0.66,-0.06 -1.7,-0.06 -3.59,0 -11.71,0.69 -12.77,6.79 -0.57,3.27 1.47,5.03 4.08,5.98 2.59,0.93 5.72,1.07 7.36,1.07 0.7,0 1.13,-0.02 1.13,-0.02 0,0 0.28,2.56 2.18,4.74 1.28,1.52 3.37,2.85 6.59,2.99 0.34,0.02 0.67,0.02 0.99,0.02 7.02,0 8.5,-3.82 8.5,-3.82 0,0 3.82,2.78 9.47,2.78 0.95,0 1.96,-0.08 3.01,-0.26 7.26,-1.23 6.5,-6.74 6.5,-6.74 0,0 1,0.36 2.32,0.36 1.81,0 4.21,-0.68 5.41,-3.92 0.28,-0.66 0.47,-1.47 0.62,-2.42 0.8,-5.3 -2.17,-6.29 -4.51,-6.29 -1.41,0 -2.6,0.36 -2.6,0.36 0,0 -1.61,-4.08 -6.21,-8.02 -1.31,-1.13 -2.72,-1.53 -4.06,-1.53 -0.41,0 -0.82,0.04 -1.2,0.1 -2.89,0.47 -5.17,2.42 -5.17,2.42 0,0 0,-5.11 -8.24,-5.11z"/>
     </g>
    </g>
   </g>
  </g>
 </g>
</svg>
