<?xml version="1.0" encoding="UTF-8"?>
<!DOCTYPE svg PUBLIC "-//W3C//DTD SVG 1.1//EN" "http://www.w3.org/Graphics/SVG/1.1/DTD/svg11.dtd">
<!-- Creator: CorelDRAW -->
<svg xmlns="http://www.w3.org/2000/svg" xml:space="preserve" width="43.1794mm" height="12.404mm" version="1.1" style="shape-rendering:geometricPrecision; text-rendering:geometricPrecision; image-rendering:optimizeQuality; fill-rule:evenodd; clip-rule:evenodd"
viewBox="0 0 5611.89 1612.11"
 xmlns:xlink="http://www.w3.org/1999/xlink"
 xmlns:xodm="http://www.corel.com/coreldraw/odm/2003">
 <defs>
  <style type="text/css">
   <![CDATA[
    .fil0 {fill:gray}
    .fil2 {fill:white;fill-rule:nonzero}
    .fil3 {fill:#C6C6C6;fill-rule:nonzero;fill-opacity:0.180392}
    .fil6 {fill:#FB74C7;fill-rule:nonzero;fill-opacity:0.219608}
    .fil9 {fill:url(#id4);fill-rule:nonzero}
    .fil7 {fill:url(#id5);fill-rule:nonzero}
    .fil5 {fill:url(#id6);fill-rule:nonzero}
    .fil8 {fill:url(#id7);fill-rule:nonzero}
    .fil1 {fill:url(#id8);fill-rule:nonzero}
    .fil4 {fill:url(#id9);fill-rule:nonzero}
   ]]>
  </style>
      <mask id="id0">
  <radialGradient id="id1" gradientUnits="userSpaceOnUse" cx="781.65" cy="405.34" r="0" fx="781.65" fy="405.34">
   <stop offset="0" style="stop-opacity:0; stop-color:white"/>
   <stop offset="0.0313725" style="stop-opacity:0; stop-color:white"/>
   <stop offset="0.65098" style="stop-opacity:0.501961; stop-color:white"/>
   <stop offset="1" style="stop-opacity:1; stop-color:white"/>
  </radialGradient>
       <rect style="fill:url(#id1)" x="776.69" y="400.39" width="2223.51" height="1023.84"/>
      </mask>
      <mask id="id2">
  <radialGradient id="id3" gradientUnits="userSpaceOnUse" cx="2894.92" cy="195.7" r="0" fx="2894.92" fy="195.7">
   <stop offset="0" style="stop-opacity:0; stop-color:white"/>
   <stop offset="0.0313725" style="stop-opacity:0; stop-color:white"/>
   <stop offset="0.65098" style="stop-opacity:0.501961; stop-color:white"/>
   <stop offset="1" style="stop-opacity:1; stop-color:white"/>
  </radialGradient>
       <rect style="fill:url(#id3)" x="2889.97" y="190.75" width="2702.54" height="1242.95"/>
      </mask>
  <linearGradient id="id4" gradientUnits="userSpaceOnUse" x1="4869.82" y1="165.06" x2="5199.95" y2="165.06">
   <stop offset="0" style="stop-opacity:1; stop-color:#FFFBE8"/>
   <stop offset="0.341176" style="stop-opacity:1; stop-color:#FFFBE8"/>
   <stop offset="0.909804" style="stop-opacity:1; stop-color:#F1F1EF"/>
   <stop offset="1" style="stop-opacity:1; stop-color:#F1F1EF"/>
  </linearGradient>
  <linearGradient id="id5" gradientUnits="userSpaceOnUse" xlink:href="#id4" x1="0.18" y1="1404.37" x2="415.65" y2="1404.37">
  </linearGradient>
  <linearGradient id="id6" gradientUnits="userSpaceOnUse" x1="246.63" y1="1524.42" x2="190.95" y2="1352.4">
   <stop offset="0" style="stop-opacity:1; stop-color:#E8F9FF"/>
   <stop offset="0.341176" style="stop-opacity:1; stop-color:#E8F9FF"/>
   <stop offset="0.909804" style="stop-opacity:1; stop-color:#EAEDF1"/>
   <stop offset="1" style="stop-opacity:1; stop-color:#EAEDF1"/>
  </linearGradient>
  <linearGradient id="id7" gradientUnits="userSpaceOnUse" xlink:href="#id6" x1="5065.64" y1="260.44" x2="5021.4" y2="123.75">
  </linearGradient>
  <radialGradient id="id8" gradientUnits="userSpaceOnUse" gradientTransform="matrix(3410.09 -990.698 990.704 3410.11 -7.45715E+06 -1.91798E+06)" cx="1866.32" cy="1104.96" r="1106.81" fx="1866.32" fy="1104.96">
   <stop offset="0" style="stop-opacity:1; stop-color:white"/>
   <stop offset="0.0313725" style="stop-opacity:1; stop-color:white"/>
   <stop offset="0.65098" style="stop-opacity:1; stop-color:white"/>
   <stop offset="1" style="stop-opacity:1; stop-color:white"/>
  </radialGradient>
  <radialGradient id="id9" gradientUnits="userSpaceOnUse" gradientTransform="matrix(3410 -990.672 990.667 3409.98 -1.54033E+07 607475)" xlink:href="#id8" cx="4214.3" cy="1046.51" r="1346.33" fx="4214.3" fy="1046.51">
  </radialGradient>
 </defs>
 <rect class="fil0" x="-16184.46" y="-3551.95" width="36679.52" height="27509.65"/>
 <g id="__x0023_Layer_x0020_1">
  <metadata id="CorelCorpID_0Corel-Layer"/>
  <g id="_2743826129680">
   <g>
    <g>
     <path class="fil1" style="mask:url(#id0)" d="M2012.73 1419.26c-244.92,0.04 -360.36,-121.83 -365.14,-126.98 -4.89,-5.29 -6.59,-12.81 -4.39,-19.66 0.22,-0.81 25.8,-84.18 -10.51,-146.28 -19.21,-32.87 -53.1,-54.63 -100.75,-64.66 -20.33,-4.25 -38.91,-6.45 -55.3,-6.45 -18.08,0 -33.66,2.65 -46.39,7.84 -20.64,8.51 -31.34,23.82 -36.75,38.87 10.97,-6.99 23.77,-13.8 37.96,-18.95 16.26,-5.9 32.56,-8.95 48.4,-8.95 28.44,0 55.17,9.58 79.34,28.48 44.46,34.57 60.72,90.59 42.32,146.15 -21.09,63.8 -79.71,106.08 -149.28,107.6l-7.12 0.09c-81.09,0 -117.58,-35.47 -133.83,-64.16 -29.2,26.9 -86.19,64.42 -177.04,64.48 -24.41,0 -50.1,-2.82 -76.39,-8.29 -154.61,-32.91 -168.84,-107.37 -181.38,-173.05 -3.44,-18.09 -6.71,-35.2 -12.67,-51.75 -24.3,-66.58 -61.29,-69.18 -62.86,-69.27 -8.01,-0.4 -15.26,-5.64 -18.04,-13.2 -2.73,-7.62 -0.9,-16.13 5.06,-21.59 0,0 4.67,-4.3 13.62,-10.79 0.4,-0.31 3.89,-2.78 4.34,-3.04 20.91,-12.94 44.59,-19.79 68.38,-19.79 30.31,0 60.76,10.79 90.44,32.14 33.31,23.87 65.23,36.99 89.86,36.99 44.28,0 68.38,-43.56 71.64,-129.54 3.99,-109.42 82.75,-177.43 205.52,-177.43 58.16,0 119.63,15.53 176.64,44.28 -2.38,-54.5 4.12,-155.1 69.44,-241.21 62.73,-82.61 163.71,-130.88 300.17,-143.51 16.26,-1.52 32.1,-2.27 47.42,-2.27 215.99,0 331.38,144.85 347.13,279.44 13.57,115.64 -43.51,249.21 -201.66,286.77 -35.51,8.42 -68.47,12.67 -98.02,12.67 -64.96,0 -115.51,-20.18 -150.25,-59.99 -10.44,-12 -18.77,-24.98 -25.34,-38.37 0.84,2.73 1.87,5.46 2.95,8.15 15.05,36.98 48,64.46 98.01,81.8 34.3,11.87 70.08,17.91 106.34,17.91 148.8,0 271.66,-100.52 273.8,-224.1 0.09,-6.63 3.5,-12.76 9.05,-16.39 3.31,-2.14 7.12,-3.26 10.97,-3.26 2.6,0 5.2,0.49 7.66,1.52 4.26,1.74 105.09,44.41 133.79,146.63 1.61,5.82 0.49,11.92 -2.73,16.66 28.38,-16.61 61.79,-26.24 96.45,-26.24 72.31,0 141.08,40.56 193.6,114.18 66.05,93.23 136.7,115.48 184.29,117.71l8.69 0.18c9.94,0 18.75,-0.71 25.93,-1.83 11.01,-1.52 18.48,-3.72 21.94,-4.74 1.38,-0.23 2.82,-0.36 4.25,-0.36 6.58,0 13.79,2.51 17.51,7.53 4.56,6.04 7.38,13.66 3.99,20.46 -0.73,1.35 -70.26,136.44 -214.8,136.44 -9.31,0 -18.85,-0.58 -28.42,-1.7 -17.47,31.7 -69.36,102.93 -183.14,102.93 -15.31,0 -31.43,-1.34 -47.85,-4.03 -107.78,-17.32 -165.45,-78.18 -194.42,-124.56 -23.69,64.39 -89.55,157.83 -272.63,167.5 -13.62,0.71 -26.86,1.03 -39.76,1.03zm399.34 -486.88l0 0c-34.61,23.64 -103.52,82.7 -68.73,158.95 28.84,63.71 82.29,70.61 103.97,70.61 19.07,0 32.91,-4.8 39.85,-8.82 -7.25,-3.81 -19.48,-8.33 -28.35,-11.59 -43.56,-16.17 -124.61,-46.16 -98.37,-132.93 8.92,-29.7 27.27,-55.92 51.62,-76.21z"/>
     <path class="fil2" d="M1925.42 425.37c374.07,0 440.7,455.44 140.86,526.73 -35.48,8.4 -66.44,12.13 -93.38,12.13 -209.81,0 -178.67,-225.38 -178.67,-225.38 0,0 -95.76,188.97 97.45,255.9 37.46,12.96 75.65,18.99 112.85,18.99 154,0 291.41,-103.09 293.87,-243.75 0,0 95.76,39.54 122.16,133.55 0,0 -148.55,79.7 -95.42,196.12 28.16,62.31 80.24,82.32 122.17,82.32 36.64,0 65.52,-15.27 63.93,-30.96 -3.38,-34.23 -163.43,-31.44 -131.63,-136.66 17.58,-58.62 80.4,-105.78 153.93,-105.78 58.08,0 122.83,29.4 177.34,105.78 70.38,99.31 146.85,123.59 199.64,126.08l0.34 0c3.17,0.13 6.28,0.19 9.29,0.19 11.09,0 20.96,-0.83 28.94,-2.07 15.56,-2.17 25.03,-5.6 26.72,-5.91 -3.69,7.37 -67.95,125.39 -196.83,125.39 -12.71,0 -26.05,-1.14 -40.02,-3.67 0,0 -40.42,104.94 -171.58,104.94 -13.85,0 -28.7,-1.17 -44.63,-3.76 -166.49,-26.77 -204.39,-166.24 -204.39,-166.24 0,0 -1.69,194.87 -266.96,208.88 -13.23,0.7 -26.14,1.04 -38.67,1.04 -238.98,0 -350.47,-120.58 -350.47,-120.58 0,0 62.61,-196.74 -126.21,-236.59 -22.68,-4.74 -42.34,-6.84 -59.38,-6.84 -22.13,0 -39.83,3.52 -53.98,9.32 -64.97,26.77 -53.81,102.74 -53.81,102.74 0,0 28.77,-30.82 69.38,-45.45 12.8,-4.69 26.85,-7.79 41.58,-7.79 21.46,0 44.36,6.56 67.04,24.29 87.3,67.86 30.11,215.11 -95.08,217.92 -2.25,0.05 -4.47,0.08 -6.64,0.08 -118.85,0 -126.68,-81.96 -126.68,-81.96 0,0 -54.74,82.24 -184.29,82.24 -21.9,0 -45.92,-2.35 -72.18,-7.84 -181.37,-38.6 -149.9,-129.82 -179.34,-212 -30.11,-82.5 -81.2,-82.5 -81.2,-82.5 0,0 4.05,-3.73 11.84,-9.34 1.01,-0.62 2.03,-1.55 3.04,-2.17 12.58,-7.77 32.52,-16.87 57.94,-16.87 22.42,0 49.1,7.08 78.76,28.38 34.52,24.75 70.3,40.78 101.57,40.78 49.37,0 87.51,-39.98 91.64,-148.81 3.91,-107.95 85.49,-158.18 185.49,-158.18 64.37,0 136.39,20.81 200.25,60.43 0,0 -65.97,-362.69 347.86,-400.97 15.66,-1.46 30.87,-2.17 45.58,-2.17zm0 -40.04l0 0c-16.08,0 -32.66,0.78 -49.3,2.34 -142.26,13.15 -248,64.09 -314.25,151.35 -57.48,75.74 -71.86,162.04 -73.63,222.01 -51.3,-21.51 -105.12,-33 -156.52,-33 -132.66,0 -221.18,77.25 -225.51,196.8 -1.92,50.23 -12.42,110.2 -51.62,110.2 -20.52,0 -48.3,-11.81 -78.23,-33.27 -33.14,-23.81 -67.5,-35.9 -102.1,-35.9 -27.49,0 -54.81,7.9 -78.99,22.85 -1.14,0.7 -3.77,2.56 -4.83,3.38 -10.81,7.76 -16.12,12.74 -16.12,12.74 -12.59,11.84 -18.66,30.7 -11.37,46.37 6.64,14.27 18.87,23.42 33.97,23.42 1.47,0 2.96,-0.08 4.5,-0.26 -0.52,0.14 24.71,4.42 43.6,56.17 5.33,14.87 8.45,31.22 11.75,48.53 13.05,68.27 29.28,153.24 196.87,188.92 27.72,5.8 54.76,8.72 80.53,8.72 81.26,0 137.73,-28.44 172.75,-55.03 24.73,29.37 67.87,54.74 138.22,54.74l7.64 -0.09c78.07,-1.75 143.95,-49.4 167.75,-121.38 16.06,-48.59 8.99,-97.55 -17.97,-135.78 4.85,5.22 9.07,10.93 12.72,17.14 31.82,54.16 8.99,129.62 8.76,130.37 -4.24,13.66 -0.91,28.68 8.8,39.2 5.04,5.45 126.29,133.42 379.88,133.42 13.2,0 26.83,-0.35 40.77,-1.08 165.17,-8.72 240.89,-82.74 275.59,-147.76 35.38,43.6 93.76,89.61 187.28,104.66 17.42,2.82 34.58,4.26 51,4.26 111.59,0 169.11,-63.4 193.77,-101.91 5.99,0.42 11.94,0.64 17.83,0.64 156.86,0 231.9,-146.02 232.64,-147.49 6.82,-13.59 5.35,-29.87 -3.78,-42.02 -7.64,-10.18 -19.56,-16 -32.01,-16 -2.42,0 -4.86,0.22 -7.29,0.68 -1.33,0.25 -4.83,1.16 -6.13,1.53 -3.34,0.97 -9.57,2.79 -18.87,4.09 -5.28,0.81 -13.1,1.68 -23.38,1.68 -2.47,0 -5.02,-0.05 -7.63,-0.16 -43.28,-2.03 -107.6,-22.63 -168.97,-109.22 -56.47,-79.14 -131.02,-122.66 -210.01,-122.66 -26.92,0 -53.14,5.26 -77.28,14.82 -34.58,-104.74 -138.06,-148.53 -142.57,-150.4 -4.91,-2.03 -10.11,-3.03 -15.28,-3.03 -1.36,0 -2.74,0.08 -4.11,0.21 0.64,-16.05 0.01,-32.05 -1.83,-47.74 -16.78,-143.08 -138.79,-297.08 -367.04,-297.08z"/>
    </g>
    <path class="fil3" d="M2975.9 1132.67c-3.98,8.08 -81.39,149.76 -236.98,121.87 0,0 -49.47,128.1 -216.24,100.93 -166.36,-26.79 -204.26,-166.27 -204.26,-166.27 0,0 -1.6,194.9 -266.91,208.86 -265.7,14.31 -389.38,-119.3 -389.38,-119.3 0,0 62.63,-196.74 -126.07,-236.76 -188.71,-39.64 -167.18,105.35 -167.18,105.35 0,0 90.57,-97.27 177.94,-29 87.38,67.91 30.32,215.1 -94.95,218.03 -125.28,2.94 -133.24,-81.85 -133.24,-81.85 0,0 -75.02,112.32 -256.54,74.15 -181.52,-38.55 -150.01,-129.58 -179.52,-211.79 -29.93,-82.59 -81,-82.59 -81,-82.59 0,0 5.19,-5.13 14.76,-11.37 65.43,7.34 141.62,36.7 212.64,115.25 175.55,193.44 233.39,39.64 343.11,-117.09 109.72,-156.74 359.87,-139.86 445.24,62.03 85.38,202.24 292.84,176.91 358.27,57.63 65.43,-119.3 137.24,53.22 260.52,118.56 123.68,65.33 186.32,-138.01 186.32,-138.01 0,0 53.07,109.38 232.99,43.3 19.55,-7.33 38.3,-15.41 55.05,-24.23 0.4,0.38 0.4,0 0.4,0 37.5,1.85 62.24,-6.97 65.02,-7.71z"/>
   </g>
   <g>
    <g>
     <path class="fil4" style="mask:url(#id2)" d="M4392.01 1428.75c-297.83,0 -438.25,-148.16 -444.07,-154.47 -5.95,-6.41 -7.97,-15.54 -5.37,-23.87 0.35,-1.03 31.39,-102.39 -12.76,-177.89 -23.38,-39.98 -64.62,-66.44 -122.51,-78.67 -24.76,-5.15 -47.37,-7.79 -67.3,-7.79 -21.99,0 -40.97,3.17 -56.33,9.49 -25.25,10.44 -38.29,29.06 -44.86,47.37 13.35,-8.55 29.01,-16.88 46.29,-23.15 19.7,-7.21 39.54,-10.88 58.8,-10.88 34.61,0 67.06,11.63 96.58,34.65 54.04,42.04 73.78,110.11 51.44,177.66 -25.66,77.64 -96.93,129.04 -181.56,130.93l-8.55 0.09c-98.68,0 -143.09,-43.16 -162.85,-78.1 -35.49,32.78 -104.81,78.45 -215.36,78.45 -29.7,0 -60.9,-3.41 -92.78,-10.07 -188.1,-39.98 -205.37,-130.56 -220.64,-210.48 -4.21,-21.99 -8.2,-42.81 -15.4,-62.92 -29.55,-80.94 -74.51,-84.13 -76.39,-84.22 -9.76,-0.49 -18.57,-6.85 -21.94,-16.08 -3.31,-9.18 -1.12,-19.56 6.04,-26.24 0,0 5.69,-5.24 16.62,-13.11 0.04,-0.04 5.09,-3.63 5.15,-3.67 25.56,-15.76 54.35,-24.13 83.23,-24.13 36.9,0 73.93,13.15 110.02,39.08 40.47,29.06 79.29,45.05 109.29,45.05 67.08,0 84.4,-85.66 87.13,-157.56 4.83,-133.07 100.57,-215.77 249.94,-215.77 70.7,0 145.52,18.9 214.78,53.82 -2.86,-66.23 4.96,-188.59 84.45,-293.28 76.25,-100.46 199.06,-159.21 365.04,-174.57 19.79,-1.83 39.06,-2.73 57.63,-2.73 262.74,0 403.03,176.14 422.18,339.8 16.52,140.68 -52.92,303.07 -245.18,348.79 -43.16,10.2 -83.28,15.4 -119.24,15.4 0,0 0,0 -0.04,0 -79.03,0 -140.51,-24.54 -182.68,-72.98 -12.67,-14.52 -22.74,-30.27 -30.8,-46.53 1.07,3.28 2.27,6.59 3.57,9.81 18.27,44.94 58.34,78.4 119.15,99.44 41.73,14.41 85.21,21.76 129.3,21.76 180.98,0 330.35,-122.23 332.99,-272.49 0.14,-8.02 4.26,-15.49 11.02,-19.92 3.98,-2.65 8.64,-3.99 13.33,-3.99 3.15,0 6.32,0.62 9.32,1.83 5.2,2.16 127.78,54.04 162.72,178.34 1.96,7.07 0.62,14.47 -3.31,20.24 34.47,-20.2 75.08,-31.88 117.22,-31.88 87.97,0 171.62,49.35 235.51,138.84 80.33,113.37 166.2,140.42 224.1,143.2l10.25 0.18c12.22,0 23.06,-0.9 31.83,-2.25 13.53,-1.87 22.65,-4.56 26.83,-5.77 0.71,-0.22 3.94,-1.12 4.7,-1.25 1.52,-0.32 3.08,-0.45 4.65,-0.45 7.53,0 14.78,3.5 19.43,9.67 5.6,7.4 6.5,17.38 2.33,25.66 -0.84,1.66 -85.74,165.85 -261.13,165.85 -11.37,0 -22.93,-0.68 -34.61,-2.07 -21.22,38.56 -84.35,125.24 -222.71,125.24 -18.66,0 -38.24,-1.65 -58.2,-4.87 -131.11,-21.09 -201.18,-95.11 -236.41,-151.52 -28.8,78.31 -108.9,191.9 -331.61,203.67 -16.52,0.9 -32.63,1.3 -48.27,1.3zm485.5 -592.05l0 0c-42.14,28.83 -125.78,100.61 -83.46,193.25 35.05,77.5 100.07,85.88 126.39,85.88 23.29,0 40.08,-5.87 48.54,-10.75 -8.86,-4.61 -23.73,-10.12 -34.57,-14.15 -52.92,-19.61 -151.46,-56.15 -119.6,-161.64 10.84,-36.08 33.14,-67.92 62.7,-92.59z"/>
     <path class="fil2" d="M4285.8 220.06c454.91,0 535.94,553.85 171.3,640.55 -43.14,10.22 -80.79,14.74 -113.57,14.74 -255.12,0 -217.27,-274.07 -217.27,-274.07 0,0 -116.46,229.81 118.5,311.19 45.55,15.76 92,23.1 137.24,23.1 187.27,0 354.38,-125.37 357.37,-296.43 0,0 116.45,48.09 148.54,162.42 0,0 -180.64,96.92 -116.03,238.5 34.26,75.77 97.59,100.1 148.58,100.1 44.54,0 79.66,-18.57 77.73,-37.64 -4.11,-41.64 -198.75,-38.24 -160.07,-166.19 21.38,-71.29 97.77,-128.64 187.19,-128.64 70.62,0 149.38,35.74 215.65,128.64 85.6,120.77 178.59,150.29 242.78,153.32l0.42 0c3.87,0.16 7.66,0.23 11.33,0.23 13.48,0 25.46,-1.01 35.17,-2.51 18.92,-2.65 30.45,-6.81 32.5,-7.19 -4.5,8.95 -82.63,152.48 -239.37,152.48 -15.45,0 -31.67,-1.39 -48.67,-4.46 0,0 -49.15,127.61 -208.65,127.61 -16.84,0 -34.91,-1.43 -54.29,-4.57 -202.45,-32.56 -248.54,-202.16 -248.54,-202.16 0,0 -2.07,236.99 -324.67,254.03 -16.09,0.84 -31.78,1.25 -47.01,1.25 -290.62,0 -426.2,-146.63 -426.2,-146.63 0,0 76.12,-239.26 -153.49,-287.72 -27.57,-5.77 -51.49,-8.3 -72.21,-8.3 -26.9,0 -48.44,4.28 -65.63,11.33 -79.01,32.56 -65.43,124.94 -65.43,124.94 0,0 34.97,-37.48 84.35,-55.27 15.58,-5.71 32.66,-9.46 50.57,-9.46 26.1,0 53.95,7.98 81.53,29.53 106.16,82.53 36.61,261.6 -115.63,265 -2.73,0.08 -5.43,0.1 -8.07,0.1 -144.55,0 -154.06,-99.67 -154.06,-99.67 0,0 -66.56,100.02 -224.11,100.02 -26.63,0 -55.85,-2.86 -87.79,-9.54 -220.55,-46.94 -182.29,-157.87 -218.08,-257.82 -36.62,-100.32 -98.76,-100.32 -98.76,-100.32 0,0 4.94,-4.55 14.4,-11.36 1.25,-0.75 2.47,-1.9 3.7,-2.65 15.31,-9.45 39.55,-20.51 70.46,-20.51 27.27,0 59.72,8.6 95.79,34.52 41.97,30.1 85.48,49.6 123.51,49.6 60.04,0 106.42,-48.62 111.46,-180.97 4.76,-131.27 103.95,-192.36 225.56,-192.36 78.29,0 165.85,25.3 243.53,73.5 0,0 -80.24,-441.06 423.02,-487.62 19.04,-1.78 37.53,-2.64 55.43,-2.64zm0 -48.7l0 0c-19.55,0 -39.72,0.95 -59.95,2.85 -173,16 -301.59,77.93 -382.14,184.05 -69.92,92.11 -87.39,197.07 -89.55,269.98 -62.37,-26.15 -127.82,-40.12 -190.34,-40.12 -161.33,0 -268.97,93.94 -274.23,239.31 -2.33,61.1 -15.12,134.03 -62.79,134.03 -24.94,0 -58.72,-14.37 -95.12,-40.47 -40.3,-28.96 -82.09,-43.66 -124.17,-43.66 -33.41,0 -66.63,9.62 -96.05,27.79 -1.26,0.78 -4,2.69 -5.47,3.8 -0.36,0.25 -0.74,0.51 -1.09,0.77 -12.48,8.98 -18.94,15.05 -18.94,15.05 -15.31,14.4 -22.68,37.33 -13.82,56.38 8.08,17.35 22.95,28.49 41.3,28.49 1.36,0 2.73,-0.06 4.13,-0.18 6.25,1.46 33.49,11 54.38,68.17 6.47,18.09 10.27,37.96 14.28,59 15.86,83.04 35.6,186.37 239.41,229.76 33.7,7.04 66.6,10.59 97.93,10.59 98.81,0 167.49,-34.58 210.09,-66.91 30.07,35.71 82.52,66.57 168.09,66.57 3.03,0 6.13,-0.04 9.28,-0.12 94.94,-2.13 175.07,-60.06 204,-147.59 19.53,-59.1 10.93,-118.65 -21.85,-165.12 5.99,6.47 11.22,13.54 15.69,21.24 38.22,65.61 10.77,157.08 10.49,157.97 -5.32,16.7 -1.25,34.97 10.64,47.84 6.13,6.62 153.58,162.26 461.97,162.26 16.06,0 32.61,-0.43 49.58,-1.33 200.86,-10.61 292.95,-100.61 335.15,-179.68 43.02,53.03 114.02,108.98 227.75,127.28 21.17,3.43 42.06,5.17 62.02,5.17 135.7,0 205.66,-77.08 235.64,-123.91 7.28,0.51 14.52,0.77 21.68,0.77 190.71,0 282.02,-177.56 282.91,-179.35 8.29,-16.52 6.51,-36.31 -4.6,-51.1 -9.29,-12.37 -23.8,-19.44 -38.94,-19.44 -2.94,0 -5.9,0.26 -8.86,0.81 -1.25,0.23 -3.77,0.81 -7.45,1.87 -4.07,1.2 -11.63,3.41 -22.95,4.99 -6.41,0.97 -15.92,2.04 -28.41,2.04 -3.02,0 -6.12,-0.06 -9.29,-0.21 -0.27,0 -0.6,-0.01 -0.94,-0.03 -52.47,-2.68 -130.29,-28.01 -204.55,-132.79 -68.67,-96.24 -159.34,-149.18 -255.4,-149.18 -32.73,0 -64.63,6.41 -93.98,18.01 -42.06,-127.37 -167.89,-180.61 -173.38,-182.89 -5.98,-2.47 -12.29,-3.68 -18.59,-3.69 -1.68,0 -3.34,0.09 -5,0.26 0.78,-19.52 0.01,-38.96 -2.22,-58.04 -20.4,-174.01 -168.79,-361.28 -446.36,-361.28z"/>
    </g>
    <path class="fil3" d="M5563.28 1080.21c-4.85,9.83 -98.97,182.12 -288.19,148.2 0,0 -60.16,155.78 -262.96,122.75 -202.32,-32.6 -248.41,-202.22 -248.41,-202.22 0,0 -1.94,237.03 -324.58,253.99 -323.12,17.4 -473.53,-145.07 -473.53,-145.07 0,0 76.17,-239.27 -153.31,-287.92 -229.48,-48.22 -203.28,128.11 -203.28,128.11 0,0 110.12,-118.3 216.38,-35.26 106.25,82.57 36.87,261.57 -115.48,265.15 -152.33,3.56 -162.04,-99.54 -162.04,-99.54 0,0 -91.21,136.58 -311.96,90.16 -220.76,-46.87 -182.43,-157.57 -218.33,-257.56 -36.39,-100.44 -98.49,-100.44 -98.49,-100.44 0,0 6.3,-6.24 17.95,-13.83 79.57,8.93 172.23,44.63 258.6,140.16 213.48,235.24 283.82,48.22 417.25,-142.39 133.42,-190.6 437.62,-170.06 541.45,75.43 103.83,245.96 356.11,215.16 435.69,70.09 79.57,-145.08 166.89,64.72 316.81,144.17 150.41,79.46 226.58,-167.84 226.58,-167.84 0,0 64.53,133.02 283.34,52.68 23.77,-8.93 46.57,-18.74 66.95,-29.46 0.49,0.45 0.49,0 0.49,0 45.61,2.24 75.68,-8.47 79.07,-9.37z"/>
   </g>
   <g>
    <g>
     <path class="fil5" d="M415.52 1404.59c-166.64,22.3 -185.02,40.67 -207.76,207.31 -22.3,-166.64 -40.67,-185.01 -207.75,-207.31 167.09,-22.74 185.45,-41.12 207.75,-207.76 22.74,166.64 41.12,185.02 207.76,207.76z"/>
    </g>
    <path class="fil6" d="M415.52 1404.59c-166.64,22.3 -185.02,40.67 -207.76,207.31l0 -415.08c22.74,166.64 41.12,185.02 207.76,207.76z"/>
    <path class="fil6" d="M415.52 1404.59c-166.64,22.3 -185.02,40.67 -207.76,207.31 -22.3,-166.64 -40.67,-185.01 -207.75,-207.31l415.52 0z"/>
    <g>
     <path class="fil7" d="M207.91 1241.25c19.44,116.91 46.23,143.68 163.12,163.13 -116.89,19.43 -143.68,46.22 -163.12,163.11 -19.44,-116.89 -46.22,-143.68 -163.12,-163.11 116.91,-19.46 143.68,-46.23 163.12,-163.13zm0 -44.6l0 0c-22.67,166.68 -41.04,185.06 -207.73,207.74 166.68,22.67 185.06,41.04 207.73,207.73 22.68,-166.68 41.06,-185.06 207.74,-207.73 -166.68,-22.68 -185.06,-41.06 -207.74,-207.74z"/>
    </g>
   </g>
   <g>
    <g>
     <path class="fil8" d="M5199.84 165.23c-132.42,17.73 -147.02,32.32 -165.08,164.73 -17.73,-132.41 -32.32,-147.01 -165.08,-164.73 132.76,-18.07 147.36,-32.67 165.08,-165.08 18.07,132.41 32.66,147.02 165.08,165.08z"/>
    </g>
    <path class="fil6" d="M5199.84 165.23c-132.42,17.73 -147.02,32.32 -165.08,164.73l0 -329.82c18.07,132.41 32.66,147.02 165.08,165.08z"/>
    <path class="fil6" d="M5199.84 165.23c-132.42,17.73 -147.02,32.32 -165.08,164.73 -17.73,-132.41 -32.32,-147.01 -165.08,-164.73l330.17 0z"/>
    <g>
     <path class="fil9" d="M5034.88 35.44c15.45,92.89 36.73,114.18 129.62,129.62 -92.89,15.45 -114.16,36.73 -129.62,129.62 -15.44,-92.89 -36.73,-114.16 -129.62,-129.62 92.89,-15.44 114.18,-36.73 129.62,-129.62zm0 -35.44l0 0c-18.01,132.45 -32.61,147.04 -165.06,165.06 132.45,18.01 147.04,32.62 165.06,165.07 18.01,-132.45 32.62,-147.06 165.07,-165.07 -132.45,-18.01 -147.06,-32.61 -165.07,-165.06z"/>
    </g>
   </g>
  </g>
 </g>
</svg>
