<?xml version="1.0" encoding="UTF-8"?>
<!DOCTYPE svg PUBLIC "-//W3C//DTD SVG 1.1//EN" "http://www.w3.org/Graphics/SVG/1.1/DTD/svg11.dtd">
<!-- Creator: CorelDRAW -->
<svg xmlns="http://www.w3.org/2000/svg" xml:space="preserve" width="7.3369mm" height="16.3421mm" version="1.1" style="shape-rendering:geometricPrecision; text-rendering:geometricPrecision; image-rendering:optimizeQuality; fill-rule:evenodd; clip-rule:evenodd"
viewBox="0 0 141.04 314.15"
 xmlns:xlink="http://www.w3.org/1999/xlink"
 xmlns:xodm="http://www.corel.com/coreldraw/odm/2003">
 <defs>
  <style type="text/css">
   <![CDATA[
    .fil0 {fill:url(#id0);fill-rule:nonzero}
   ]]>
  </style>
  <radialGradient id="id0" gradientUnits="userSpaceOnUse" gradientTransform="matrix(0.910514 -0 -0 0.754457 6 39)" cx="70.52" cy="157.07" r="157.07" fx="70.52" fy="157.07">
   <stop offset="0" style="stop-opacity:1; stop-color:#FFE1D7"/>
   <stop offset="1" style="stop-opacity:1; stop-color:#FFBBA6"/>
  </radialGradient>
 </defs>
 <g id="__x0023_Layer_x0020_1">
  <metadata id="CorelCorpID_0Corel-Layer"/>
  <path class="fil0" d="M-0 314.15c1.75,-0.39 3.45,-0.78 5.15,-1.21 18.64,-4.62 36.11,-11.54 51.87,-20.3 29.17,-16.35 52.63,-39.19 67.26,-66.06 9.68,-17.84 15.53,-37.43 16.57,-58.04 0.14,-2.27 0.19,-4.54 0.19,-6.85l0 -10.83c0,-59.76 -40.07,-111.74 -99.17,-138.54 -10.43,-4.73 -21.38,-8.64 -32.9,-11.7l-3.59 -0.62c33.99,10.72 84.54,40.09 112.62,120.78 35.21,101.26 -70.66,168.93 -118.01,193.37z"/>
 </g>
</svg>
