<?xml version="1.0" encoding="UTF-8"?>
<!DOCTYPE svg PUBLIC "-//W3C//DTD SVG 1.1//EN" "http://www.w3.org/Graphics/SVG/1.1/DTD/svg11.dtd">
<!-- Creator: CorelDRAW -->
<svg xmlns="http://www.w3.org/2000/svg" xml:space="preserve" width="20mm" height="18.1108mm" version="1.1" style="shape-rendering:geometricPrecision; text-rendering:geometricPrecision; image-rendering:optimizeQuality; fill-rule:evenodd; clip-rule:evenodd"
viewBox="0 0 167.83 151.98"
 xmlns:xlink="http://www.w3.org/1999/xlink"
 xmlns:xodm="http://www.corel.com/coreldraw/odm/2003">
 <defs>
  <style type="text/css">
   <![CDATA[
    .fil1 {fill:#FEFEFE}
    .fil0 {fill:#B3B3B3}
   ]]>
  </style>
 </defs>
 <rect class="fil0" x="-2184.39" y="-75.36" width="2368.31" height="1776.23"/>
 <g id="Layer_x0020_1">
  <metadata id="CorelCorpID_0Corel-Layer"/>
  <path class="fil1" d="M82.43 151.98c12.86,0 16.51,-4.96 23.43,-14.2l52.35 -68.94c5.87,-7.85 11.19,-13.13 9.2,-24.49 -0.95,-5.41 -4.42,-10.3 -7.8,-13.76l-14.4 -16.29c-0.86,-1.08 -1.05,-1.33 -2.05,-2.33 -1.7,-1.7 -3.45,-4.52 -6.34,-6.81 -3.18,-2.52 -7.86,-5.16 -12.38,-5.16l-81.1 0c-2.2,0 -5,0.96 -6.74,1.66 -4.74,1.91 -6.82,4.68 -9.79,7.74l-6.01 6.78c-0.87,1.04 -1.05,1.35 -2.03,2.35 -0.92,0.95 -1.08,1.43 -2,2.38 -2.04,2.09 -12.56,14.04 -13.86,16.46 -3.58,6.69 -3.87,14.24 -0.74,20.96 2.17,4.65 41.88,55.86 44.61,59.51 2.38,3.18 19.46,26.47 23.01,29.23 2.98,2.32 7.56,4.9 12.64,4.9z"/>
 </g>
</svg>
