<?xml version="1.0" encoding="UTF-8"?>
<!DOCTYPE svg PUBLIC "-//W3C//DTD SVG 1.1//EN" "http://www.w3.org/Graphics/SVG/1.1/DTD/svg11.dtd">
<!-- Creator: CorelDRAW -->
<svg xmlns="http://www.w3.org/2000/svg" xml:space="preserve" width="20mm" height="18.1108mm" version="1.1" style="shape-rendering:geometricPrecision; text-rendering:geometricPrecision; image-rendering:optimizeQuality; fill-rule:evenodd; clip-rule:evenodd"
viewBox="0 0 180.82 163.74"
 xmlns:xlink="http://www.w3.org/1999/xlink"
 xmlns:xodm="http://www.corel.com/coreldraw/odm/2003">
 <defs>
  <style type="text/css">
   <![CDATA[
    .fil0 {fill:#FEFEFE}
   ]]>
  </style>
 </defs>
 <g id="Layer_x0020_1">
  <metadata id="CorelCorpID_0Corel-Layer"/>
  <path class="fil0" d="M88.81 163.74c13.85,0 17.79,-5.35 25.25,-15.29l56.4 -74.28c6.33,-8.46 12.06,-14.15 9.91,-26.38 -1.02,-5.83 -4.77,-11.09 -8.4,-14.82l-15.51 -17.55c-0.93,-1.16 -1.13,-1.43 -2.21,-2.51 -1.83,-1.83 -3.72,-4.87 -6.83,-7.34 -3.42,-2.71 -8.46,-5.56 -13.33,-5.56l-87.38 0c-2.37,0 -5.39,1.04 -7.26,1.79 -5.11,2.06 -7.35,5.05 -10.55,8.34l-6.47 7.3c-0.94,1.12 -1.13,1.45 -2.19,2.54 -1,1.02 -1.16,1.55 -2.16,2.57 -2.2,2.26 -13.53,15.12 -14.93,17.74 -3.86,7.21 -4.17,15.34 -0.79,22.58 2.34,5.01 45.12,60.19 48.07,64.11 2.56,3.42 20.96,28.51 24.79,31.5 3.21,2.5 8.15,5.28 13.62,5.28z"/>
 </g>
</svg>
