<?xml version="1.0" encoding="UTF-8"?>
<!DOCTYPE svg PUBLIC "-//W3C//DTD SVG 1.1//EN" "http://www.w3.org/Graphics/SVG/1.1/DTD/svg11.dtd">
<!-- Creator: CorelDRAW -->
<svg xmlns="http://www.w3.org/2000/svg" xml:space="preserve" width="16.8582mm" height="3.888mm" version="1.1" style="shape-rendering:geometricPrecision; text-rendering:geometricPrecision; image-rendering:optimizeQuality; fill-rule:evenodd; clip-rule:evenodd"
viewBox="0 0 117.23 27.04"
 xmlns:xlink="http://www.w3.org/1999/xlink"
 xmlns:xodm="http://www.corel.com/coreldraw/odm/2003">
 <defs>
  <style type="text/css">
   <![CDATA[
    .fil1 {fill:#400995;fill-rule:nonzero}
    .fil3 {fill:url(#id0);fill-rule:nonzero}
    .fil0 {fill:url(#id1);fill-rule:nonzero}
    .fil2 {fill:url(#id2);fill-rule:nonzero}
   ]]>
  </style>
  <linearGradient id="id0" gradientUnits="userSpaceOnUse" x1="103.62" y1="3.12" x2="103.8" y2="23.89">
   <stop offset="0" style="stop-opacity:1; stop-color:white"/>
   <stop offset="0.0509804" style="stop-opacity:1; stop-color:white"/>
   <stop offset="0.709804" style="stop-opacity:1; stop-color:white"/>
   <stop offset="1" style="stop-opacity:1; stop-color:#FFD9E8"/>
  </linearGradient>
  <linearGradient id="id1" gradientUnits="userSpaceOnUse" xlink:href="#id0" x1="13.43" y1="3.12" x2="13.61" y2="23.89">
  </linearGradient>
  <linearGradient id="id2" gradientUnits="userSpaceOnUse" xlink:href="#id0" x1="58.52" y1="3.12" x2="58.71" y2="23.89">
  </linearGradient>
 </defs>
 <g id="__x0023_Layer_x0020_1">
  <metadata id="CorelCorpID_0Corel-Layer"/>
  <g id="_2759741755632">
   <g>
    <path class="fil0" d="M13.52 24.45c-6.03,0 -10.93,-4.9 -10.93,-10.93 0,-6.03 4.9,-10.93 10.93,-10.93 6.03,0 10.94,4.9 10.94,10.93 0,6.03 -4.91,10.93 -10.94,10.93z"/>
    <g>
     <path class="fil1" d="M13.52 5.17c4.61,0 8.35,3.74 8.35,8.35 0,4.61 -3.74,8.35 -8.35,8.35 -4.61,0 -8.35,-3.74 -8.35,-8.35 0,-4.61 3.74,-8.35 8.35,-8.35zm0 -5.17l0 0c-7.45,0 -13.52,6.06 -13.52,13.52 0,7.45 6.06,13.52 13.52,13.52 7.45,0 13.52,-6.06 13.52,-13.52 0,-7.45 -6.06,-13.52 -13.52,-13.52z"/>
    </g>
   </g>
   <g>
    <path class="fil2" d="M58.62 24.45c-6.03,0 -10.94,-4.9 -10.94,-10.93 0,-6.03 4.91,-10.93 10.94,-10.93 6.03,0 10.94,4.9 10.94,10.93 0,6.03 -4.91,10.93 -10.94,10.93z"/>
    <g>
     <path class="fil1" d="M58.62 5.17c4.61,0 8.35,3.74 8.35,8.35 0,4.61 -3.74,8.35 -8.35,8.35 -4.61,0 -8.35,-3.74 -8.35,-8.35 0,-4.61 3.74,-8.35 8.35,-8.35zm0 -5.17l0 0c-7.45,0 -13.52,6.06 -13.52,13.52 0,7.45 6.06,13.52 13.52,13.52 7.45,0 13.52,-6.06 13.52,-13.52 0,-7.45 -6.06,-13.52 -13.52,-13.52z"/>
    </g>
   </g>
   <g>
    <path class="fil3" d="M103.71 24.45c-6.03,0 -10.94,-4.9 -10.94,-10.93 0,-6.03 4.91,-10.93 10.94,-10.93 6.03,0 10.94,4.9 10.94,10.93 0,6.03 -4.91,10.93 -10.94,10.93z"/>
    <g>
     <path class="fil1" d="M103.71 5.17c4.61,0 8.35,3.74 8.35,8.35 0,4.61 -3.74,8.35 -8.35,8.35 -4.61,0 -8.35,-3.74 -8.35,-8.35 0,-4.61 3.74,-8.35 8.35,-8.35zm0 -5.17l0 0c-7.45,0 -13.52,6.06 -13.52,13.52 0,7.45 6.06,13.52 13.52,13.52 7.45,0 13.52,-6.06 13.52,-13.52 0,-7.45 -6.06,-13.52 -13.52,-13.52z"/>
    </g>
   </g>
  </g>
 </g>
</svg>
