<?xml version="1.0" encoding="UTF-8"?>
<!DOCTYPE svg PUBLIC "-//W3C//DTD SVG 1.1//EN" "http://www.w3.org/Graphics/SVG/1.1/DTD/svg11.dtd">
<!-- Creator: CorelDRAW -->
<svg xmlns="http://www.w3.org/2000/svg" xml:space="preserve" width="15.1098mm" height="3.888mm" version="1.1" style="shape-rendering:geometricPrecision; text-rendering:geometricPrecision; image-rendering:optimizeQuality; fill-rule:evenodd; clip-rule:evenodd"
viewBox="0 0 63.39 16.31"
 xmlns:xlink="http://www.w3.org/1999/xlink"
 xmlns:xodm="http://www.corel.com/coreldraw/odm/2003">
 <defs>
  <style type="text/css">
   <![CDATA[
    .fil0 {fill:#400995;fill-rule:nonzero}
   ]]>
  </style>
 </defs>
 <g id="__x0023_Layer_x0020_1">
  <metadata id="CorelCorpID_0Corel-Layer"/>
  <g id="_2759749924096">
   <path class="fil0" d="M55.24 3.12c2.78,0 5.04,2.26 5.04,5.04 0,2.78 -2.26,5.04 -5.04,5.04 -2.78,0 -5.04,-2.26 -5.04,-5.04 0,-2.78 2.26,-5.04 5.04,-5.04zm0 -3.12l0 0c-4.5,0 -8.16,3.66 -8.16,8.16 0,4.5 3.66,8.16 8.16,8.16 4.5,0 8.16,-3.66 8.16,-8.16 0,-4.5 -3.66,-8.16 -8.16,-8.16z"/>
   <path class="fil0" d="M32.13 3.12c2.78,0 5.04,2.26 5.04,5.04 0,2.78 -2.26,5.04 -5.04,5.04 -2.78,0 -5.04,-2.26 -5.04,-5.04 0,-2.78 2.26,-5.04 5.04,-5.04zm0 -3.12l0 0c-4.5,0 -8.16,3.66 -8.16,8.16 0,4.5 3.66,8.16 8.16,8.16 4.5,0 8.16,-3.66 8.16,-8.16 0,-4.5 -3.66,-8.16 -8.16,-8.16z"/>
   <path class="fil0" d="M8.16 3.12c2.78,0 5.04,2.26 5.04,5.04 0,2.78 -2.26,5.04 -5.04,5.04 -2.78,0 -5.04,-2.26 -5.04,-5.04 0,-2.78 2.26,-5.04 5.04,-5.04zm0 -3.12l0 0c-4.5,0 -8.16,3.66 -8.16,8.16 0,4.5 3.66,8.16 8.16,8.16 4.5,0 8.16,-3.66 8.16,-8.16 0,-4.5 -3.66,-8.16 -8.16,-8.16z"/>
  </g>
 </g>
</svg>
