<?xml version="1.0" encoding="UTF-8"?>
<!DOCTYPE svg PUBLIC "-//W3C//DTD SVG 1.1//EN" "http://www.w3.org/Graphics/SVG/1.1/DTD/svg11.dtd">
<!-- Creator: CorelDRAW -->
<svg xmlns="http://www.w3.org/2000/svg" xml:space="preserve" width="61.1434mm" height="70.7283mm" version="1.1" style="shape-rendering:geometricPrecision; text-rendering:geometricPrecision; image-rendering:optimizeQuality; fill-rule:evenodd; clip-rule:evenodd"
viewBox="0 0 278.29 321.91"
 xmlns:xlink="http://www.w3.org/1999/xlink"
 xmlns:xodm="http://www.corel.com/coreldraw/odm/2003">
 <defs>
  <style type="text/css">
   <![CDATA[
    .fil3 {fill:#1C69EA;fill-rule:nonzero}
    .fil9 {fill:#CC0F66;fill-rule:nonzero}
    .fil8 {fill:white;fill-rule:nonzero}
    .fil1 {fill:url(#id13)}
    .fil0 {fill:url(#id14)}
    .fil14 {fill:url(#id15);fill-rule:nonzero}
    .fil17 {fill:url(#id16);fill-rule:nonzero}
    .fil5 {fill:url(#id17);fill-rule:nonzero}
    .fil16 {fill:url(#id18);fill-rule:nonzero}
    .fil13 {fill:url(#id19);fill-rule:nonzero}
    .fil2 {fill:url(#id20);fill-rule:nonzero}
    .fil15 {fill:url(#id21);fill-rule:nonzero}
    .fil10 {fill:url(#id22);fill-rule:nonzero}
    .fil7 {fill:url(#id23);fill-rule:nonzero}
    .fil12 {fill:url(#id24);fill-rule:nonzero}
    .fil6 {fill:url(#id25);fill-rule:nonzero}
    .fil11 {fill:url(#id26);fill-rule:nonzero}
    .fil4 {fill:url(#id27);fill-rule:nonzero}
   ]]>
  </style>
     <clipPath id="id0">
      <path d="M244.28 55.13c-1,0 -1.99,-0.68 -2.18,-1.83l-2.41 -13.46c-0.13,-0.71 -0.62,-1.33 -1.27,-1.63l-12.46 -5.64c-1.68,-0.76 -1.75,-3.1 -0.13,-3.98l12.06 -6.44c0.63,-0.35 1.07,-0.98 1.15,-1.71l1.53 -13.59c0.13,-1.21 1.16,-1.97 2.22,-1.97 0.53,0 1.07,0.18 1.5,0.62l9.88 9.46c0.4,0.41 0.96,0.62 1.52,0.62 0.15,0 0.31,-0.02 0.46,-0.05l13.39 -2.75c0.16,-0.03 0.31,-0.05 0.47,-0.05 1.57,0 2.69,1.68 1.97,3.18l-5.96 12.31c-0.32,0.67 -0.31,1.44 0.06,2.07l6.77 11.88c0.85,1.5 -0.28,3.31 -1.91,3.31 -0.12,0 -0.21,-0.02 -0.32,-0.03l-13.55 -1.86c-0.1,-0.02 -0.19,-0.02 -0.31,-0.02 -0.6,0 -1.21,0.26 -1.63,0.71l-9.22 10.1c-0.44,0.5 -1.04,0.73 -1.62,0.73l0 0z"/>
     </clipPath>
     <mask id="id1">
  <linearGradient id="id2" gradientUnits="userSpaceOnUse" x1="141.44" y1="36.46" x2="128.16" y2="151.89">
   <stop offset="0" style="stop-opacity:1; stop-color:white"/>
   <stop offset="0.231373" style="stop-opacity:1; stop-color:white"/>
   <stop offset="0.619608" style="stop-opacity:0; stop-color:white"/>
   <stop offset="1" style="stop-opacity:1; stop-color:white"/>
  </linearGradient>
      <rect style="fill:url(#id2)" x="66.35" y="76.97" width="126.33" height="126.38"/>
     </mask>
     <mask id="id3">
  <linearGradient id="id4" gradientUnits="userSpaceOnUse" x1="132.67" y1="91.98" x2="169.84" y2="144.92">
   <stop offset="0" style="stop-opacity:1; stop-color:white"/>
   <stop offset="0.231373" style="stop-opacity:1; stop-color:white"/>
   <stop offset="0.619608" style="stop-opacity:0; stop-color:white"/>
   <stop offset="1" style="stop-opacity:1; stop-color:white"/>
  </linearGradient>
      <rect style="fill:url(#id4)" x="113.3" y="75.73" width="28.74" height="18.27"/>
     </mask>
     <mask id="id5">
  <linearGradient id="id6" gradientUnits="userSpaceOnUse" x1="130.1" y1="83.28" x2="167.3" y2="136.25">
   <stop offset="0" style="stop-opacity:1; stop-color:white"/>
   <stop offset="0.231373" style="stop-opacity:1; stop-color:white"/>
   <stop offset="0.619608" style="stop-opacity:0; stop-color:white"/>
   <stop offset="1" style="stop-opacity:1; stop-color:white"/>
  </linearGradient>
      <rect style="fill:url(#id6)" x="136.32" y="95.86" width="11.37" height="8.75"/>
     </mask>
      <mask id="id7">
  <radialGradient id="id8" gradientUnits="userSpaceOnUse" cx="31.86" cy="122.54" r="0" fx="31.86" fy="122.54">
   <stop offset="0" style="stop-opacity:1; stop-color:white"/>
   <stop offset="0.239216" style="stop-opacity:1; stop-color:white"/>
   <stop offset="0.631373" style="stop-opacity:0; stop-color:white"/>
   <stop offset="1" style="stop-opacity:0; stop-color:white"/>
  </radialGradient>
       <rect style="fill:url(#id8)" x="31.68" y="122.36" width="183.94" height="64.93"/>
      </mask>
      <mask id="id9">
  <linearGradient id="id10" gradientUnits="userSpaceOnUse" x1="76.28" y1="239.08" x2="74.77" y2="294.13">
   <stop offset="0" style="stop-opacity:0.639216; stop-color:white"/>
   <stop offset="0.231373" style="stop-opacity:0.639216; stop-color:white"/>
   <stop offset="0.619608" style="stop-opacity:0; stop-color:white"/>
   <stop offset="1" style="stop-opacity:1; stop-color:white"/>
  </linearGradient>
       <rect style="fill:url(#id10)" x="35.71" y="223.73" width="79.79" height="79.79"/>
      </mask>
      <mask id="id11">
  <linearGradient id="id12" gradientUnits="userSpaceOnUse" x1="144.3" y1="202.74" x2="143.56" y2="230">
   <stop offset="0" style="stop-opacity:0.639216; stop-color:white"/>
   <stop offset="0.231373" style="stop-opacity:0.639216; stop-color:white"/>
   <stop offset="0.619608" style="stop-opacity:0; stop-color:white"/>
   <stop offset="1" style="stop-opacity:1; stop-color:white"/>
  </linearGradient>
       <rect style="fill:url(#id12)" x="124.13" y="195.06" width="39.68" height="39.68"/>
      </mask>
  <linearGradient id="id13" gradientUnits="userSpaceOnUse" x1="221.08" y1="38.58" x2="279.56" y2="17.25">
   <stop offset="0" style="stop-opacity:1; stop-color:#E84944"/>
   <stop offset="0.509804" style="stop-opacity:1; stop-color:#FDD705"/>
   <stop offset="0.619608" style="stop-opacity:1; stop-color:#FEDB3D"/>
   <stop offset="1" style="stop-opacity:1; stop-color:#E84944"/>
  </linearGradient>
  <linearGradient id="id14" gradientUnits="userSpaceOnUse" x1="238.88" y1="1.22" x2="256.94" y2="41.66">
   <stop offset="0" style="stop-opacity:1; stop-color:#FBF059"/>
   <stop offset="1" style="stop-opacity:1; stop-color:#EF8A74"/>
  </linearGradient>
  <linearGradient id="id15" gradientUnits="userSpaceOnUse" x1="76.28" y1="239.08" x2="74.77" y2="294.13">
   <stop offset="0" style="stop-opacity:1; stop-color:white"/>
   <stop offset="0.231373" style="stop-opacity:1; stop-color:white"/>
   <stop offset="0.619608" style="stop-opacity:1; stop-color:white"/>
   <stop offset="1" style="stop-opacity:1; stop-color:white"/>
  </linearGradient>
  <linearGradient id="id16" gradientUnits="userSpaceOnUse" xlink:href="#id15" x1="144.3" y1="202.74" x2="143.56" y2="230">
  </linearGradient>
  <linearGradient id="id17" gradientUnits="userSpaceOnUse" xlink:href="#id15" x1="141.44" y1="36.46" x2="128.16" y2="151.89">
  </linearGradient>
  <linearGradient id="id18" gradientUnits="userSpaceOnUse" x1="114.51" y1="214.56" x2="173.43" y2="214.56">
   <stop offset="0" style="stop-opacity:1; stop-color:#F64545"/>
   <stop offset="0.129412" style="stop-opacity:1; stop-color:#F64545"/>
   <stop offset="0.501961" style="stop-opacity:1; stop-color:#FFD21E"/>
   <stop offset="0.529412" style="stop-opacity:1; stop-color:#FFD21E"/>
   <stop offset="0.611765" style="stop-opacity:1; stop-color:#FFD447"/>
   <stop offset="0.709804" style="stop-opacity:1; stop-color:#FFD447"/>
   <stop offset="1" style="stop-opacity:1; stop-color:#F64545"/>
   <stop offset="1" style="stop-opacity:1; stop-color:#F64545"/>
  </linearGradient>
  <linearGradient id="id19" gradientUnits="userSpaceOnUse" xlink:href="#id18" x1="16.09" y1="262.96" x2="135.12" y2="262.96">
  </linearGradient>
  <linearGradient id="id20" gradientUnits="userSpaceOnUse" x1="168.2" y1="276.33" x2="101.86" y2="42.85">
   <stop offset="0" style="stop-opacity:1; stop-color:#1F7DF6"/>
   <stop offset="0.141176" style="stop-opacity:1; stop-color:#1F7DF6"/>
   <stop offset="0.529412" style="stop-opacity:1; stop-color:#38E1FF"/>
   <stop offset="0.65098" style="stop-opacity:1; stop-color:#38E1FF"/>
   <stop offset="0.968627" style="stop-opacity:1; stop-color:#1F7DF6"/>
   <stop offset="0.980392" style="stop-opacity:1; stop-color:#1F7DF6"/>
   <stop offset="1" style="stop-opacity:1; stop-color:#1F7DF6"/>
  </linearGradient>
  <linearGradient id="id21" gradientUnits="userSpaceOnUse" x1="113.81" y1="199.91" x2="165.57" y2="225.63">
   <stop offset="0" style="stop-opacity:1; stop-color:#FEED63"/>
   <stop offset="0.470588" style="stop-opacity:1; stop-color:#FDB96B"/>
   <stop offset="1" style="stop-opacity:1; stop-color:#FB8574"/>
  </linearGradient>
  <linearGradient id="id22" gradientUnits="userSpaceOnUse" x1="-60.19" y1="91.35" x2="373.69" y2="210.28">
   <stop offset="0" style="stop-opacity:1; stop-color:#EC1177"/>
   <stop offset="0.129412" style="stop-opacity:1; stop-color:#EC1177"/>
   <stop offset="0.501961" style="stop-opacity:1; stop-color:#FB66B7"/>
   <stop offset="0.631373" style="stop-opacity:1; stop-color:#FB66B7"/>
   <stop offset="0.968627" style="stop-opacity:1; stop-color:#EC1177"/>
   <stop offset="0.980392" style="stop-opacity:1; stop-color:#EC1177"/>
   <stop offset="1" style="stop-opacity:1; stop-color:#EC1177"/>
  </linearGradient>
  <linearGradient id="id23" gradientUnits="userSpaceOnUse" xlink:href="#id15" x1="130.1" y1="83.28" x2="167.3" y2="136.25">
  </linearGradient>
  <linearGradient id="id24" gradientUnits="userSpaceOnUse" xlink:href="#id21" x1="14.68" y1="233.35" x2="119.23" y2="285.3">
  </linearGradient>
  <linearGradient id="id25" gradientUnits="userSpaceOnUse" xlink:href="#id15" x1="132.67" y1="91.98" x2="169.84" y2="144.92">
  </linearGradient>
  <radialGradient id="id26" gradientUnits="userSpaceOnUse" gradientTransform="matrix(2644.38 -0 -0 2644.38 -326857 -409274)" cx="123.65" cy="154.83" r="91.79" fx="123.65" fy="154.83">
   <stop offset="0" style="stop-opacity:1; stop-color:white"/>
   <stop offset="0.239216" style="stop-opacity:1; stop-color:white"/>
   <stop offset="0.631373" style="stop-opacity:1; stop-color:white"/>
   <stop offset="1" style="stop-opacity:1; stop-color:white"/>
  </radialGradient>
  <linearGradient id="id27" gradientUnits="userSpaceOnUse" x1="124.21" y1="89.35" x2="132.42" y2="202.59">
   <stop offset="0" style="stop-opacity:1; stop-color:#674C41"/>
   <stop offset="0.129412" style="stop-opacity:1; stop-color:#674C41"/>
   <stop offset="0.619608" style="stop-opacity:1; stop-color:#151515"/>
   <stop offset="0.721569" style="stop-opacity:1; stop-color:#151515"/>
   <stop offset="1" style="stop-opacity:1; stop-color:#151515"/>
  </linearGradient>
 </defs>
 <g id="__x0023_Layer_x0020_2">
  <metadata id="CorelCorpID_0Corel-Layer"/>
  <g id="_1990759941312">
   <g>
    <path class="fil0" d="M243.08 60.14c-0.59,0 -1.19,-0.29 -1.53,-0.75 -0.24,-0.34 -0.3,-0.58 -0.4,-1.14l-0.27 -1.6 -0.55 -3.21 -1.11 -6.42 -0.55 -3.21 -0.29 -1.62c-0.13,-0.72 -0.5,-1.4 -1.03,-1.92 -0.26,-0.26 -0.56,-0.48 -0.9,-0.64l-0.77 -0.36 -1.48 -0.68 -2.97 -1.34 -5.94 -2.67 -2.97 -1.34 -0.74 -0.33 -0.35 -0.17 -0.24 -0.13c-0.31,-0.19 -0.51,-0.47 -0.64,-0.8 -0.27,-0.66 -0.1,-1.49 0.43,-1.94 0.14,-0.14 0.24,-0.19 0.5,-0.33l0.71 -0.4 1.43 -0.79c3.79,-2.12 7.59,-4.21 11.35,-6.38l0.71 -0.4c0.24,-0.13 0.55,-0.34 0.77,-0.57 0.47,-0.46 0.79,-1.06 0.91,-1.7 0.13,-1.18 0.18,-2.19 0.29,-3.29l0.56 -6.49 0.59 -6.48c0,-1.08 0.5,-2.12 1.48,-2.57 0.35,-0.18 0.75,-0.26 1.14,-0.26 0.64,0 1.3,0.24 1.77,0.71 3.13,3.02 6.25,6.04 9.3,9.13l2.28 2.32c0.37,0.4 0.91,0.81 1.49,0.97 0.26,0.09 0.55,0.12 0.82,0.12 0.35,0 0.71,-0.05 0.98,-0.11l6.41 -1.14 6.41 -1.16 3.18 -0.59c0.1,-0.02 0.19,-0.03 0.29,-0.03 0.67,0 1.3,0.38 1.64,0.96 0.18,0.34 0.26,0.71 0.22,1.08 -0.03,0.36 -0.21,0.69 -0.47,1.23l-1.4 2.94 -2.81 5.88 -1.36 2.95c-0.47,1.03 -0.9,1.88 -1.38,3.05 -0.19,0.64 -0.19,1.35 0.02,1.98 0.24,0.68 0.58,1.07 0.84,1.55l1.67 2.8 3.32 5.59 1.64 2.81 0.82 1.41c0.27,0.48 0.58,0.92 0.69,1.37 0.26,0.93 -0.18,1.98 -0.98,2.53 -0.39,0.28 -0.85,0.41 -1.33,0.41 0,0 -0.02,0 -0.03,0 -0.47,-0.02 -1.04,-0.14 -1.57,-0.2l-6.44 -0.93c-2.15,-0.3 -4.3,-0.62 -6.45,-0.96l-1.61 -0.25c-0.32,-0.05 -0.71,-0.13 -1.11,-0.13 -0.22,0 -0.45,0.02 -0.67,0.08 -0.61,0.14 -1.19,0.49 -1.61,0.95l-1.12 1.18 -8.94 9.47 -1.11 1.19c-0.35,0.38 -0.61,0.56 -1,0.68 -0.18,0.05 -0.35,0.08 -0.53,0.08zm-0.29 -55.26c-1.06,0 -2.09,0.76 -2.22,1.97l-1.53 13.59c-0.08,0.72 -0.51,1.36 -1.16,1.71l-12.06 6.45c-1.62,0.87 -1.54,3.21 0.13,3.97l12.46 5.65c0.66,0.3 1.14,0.91 1.27,1.63l2.41 13.46c0.19,1.15 1.19,1.83 2.18,1.83 0.58,0 1.17,-0.23 1.62,-0.72l9.22 -10.1c0.43,-0.46 1.03,-0.72 1.64,-0.72 0.11,0 0.21,0.01 0.31,0.02l13.55 1.87c0.11,0.02 0.21,0.02 0.32,0.02 1.64,0 2.76,-1.81 1.91,-3.31l-6.76 -11.89c-0.37,-0.63 -0.39,-1.4 -0.06,-2.06l5.96 -12.3c0.72,-1.51 -0.4,-3.18 -1.98,-3.18 -0.16,0 -0.3,0.02 -0.47,0.05l-13.39 2.75c-0.14,0.03 -0.31,0.05 -0.45,0.05 -0.56,0 -1.12,-0.22 -1.53,-0.62l-9.87 -9.47c-0.43,-0.43 -0.98,-0.62 -1.51,-0.62z"/>
    <path class="fil1" d="M243.01 61.71c-1.04,0 -2.09,-0.48 -2.75,-1.32 -0.45,-0.52 -0.69,-1.35 -0.75,-1.85l-0.3 -1.6 -0.59 -3.2 -1.19 -6.4 -0.61 -3.2 -0.29 -1.58c-0.06,-0.34 -0.26,-0.66 -0.5,-0.9 -0.13,-0.12 -0.27,-0.22 -0.43,-0.3l-0.71 -0.32 -1.48 -0.67 -2.97 -1.35 -5.92 -2.71 -2.59 -1.18 -0.29 -0.14 -0.08 -0.04 -0.74 -0.34 -0.39 -0.17c-0.16,-0.09 -0.32,-0.17 -0.47,-0.26 -0.63,-0.4 -1.11,-1.01 -1.36,-1.69 -0.55,-1.36 -0.18,-3.03 0.95,-4.01 0.26,-0.24 0.63,-0.46 0.85,-0.57l0.74 -0.37 0.5 -0.26 0.3 -0.16 0.64 -0.33c3.85,-1.98 7.71,-3.98 11.61,-5.9l0.72 -0.36c0.24,-0.11 0.39,-0.21 0.56,-0.36 0.32,-0.28 0.56,-0.67 0.67,-1.09 0.16,-0.97 0.3,-2.12 0.45,-3.17l0.9 -6.45 0.84 -6.46c0.06,-0.53 0.13,-1.12 0.43,-1.61 0.27,-0.5 0.71,-0.9 1.22,-1.13 0.37,-0.18 0.79,-0.27 1.2,-0.27 0.71,0 1.43,0.27 1.93,0.78 0.96,0.91 1.91,1.82 2.87,2.73 0.14,0.13 0.27,0.26 0.42,0.4 2.06,1.94 4.11,3.88 6.21,5.79l2.39 2.19c0.51,0.53 1.12,0.79 1.78,0.79 0.29,0 0.59,-0.05 0.88,-0.15l6.36 -1.48 6.34 -1.46 3.21 -0.71c0.19,-0.04 0.39,-0.06 0.58,-0.06 1.22,0 2.42,0.69 3.02,1.74 0.35,0.61 0.51,1.33 0.45,2.05 -0.02,0.35 -0.11,0.71 -0.24,1.03 -0.14,0.34 -0.26,0.51 -0.37,0.78l-1.45 2.92 -2.87 5.84 -2.89 5.73c-0.13,0.39 -0.14,0.82 -0.03,1.23 0.08,0.36 0.42,0.86 0.66,1.33l1.54 2.86 3.1 5.73 1.59 2.85 0.79 1.42c0.24,0.47 0.58,0.93 0.74,1.55 0.29,1.2 -0.27,2.5 -1.27,3.17 -0.47,0.33 -1.04,0.49 -1.62,0.49 -0.02,0 -0.05,0 -0.08,-0 -0.61,-0.04 -1.11,-0.13 -1.65,-0.2l-6.45 -0.85c-2.15,-0.29 -4.3,-0.56 -6.45,-0.82l-1.62 -0.2c-0.34,-0.04 -0.63,-0.09 -0.9,-0.09 -0.19,0 -0.37,0.02 -0.55,0.08 -0.43,0.12 -0.82,0.36 -1.12,0.72l-1.08 1.22 -8.61 9.77 -0.37 0.42 -0.48 0.52 -0.24 0.28c-0.35,0.44 -0.98,0.95 -1.64,1.14 -0.35,0.12 -0.71,0.17 -1.06,0.17zm-1.78 -61.51c-0.39,0 -0.79,0.09 -1.14,0.26 -0.98,0.44 -1.48,1.49 -1.48,2.57l-0.59 6.48 -0.56 6.49c-0.11,1.1 -0.16,2.12 -0.29,3.29 -0.13,0.64 -0.45,1.24 -0.91,1.7 -0.22,0.23 -0.53,0.43 -0.77,0.57l-0.71 0.4c-3.76,2.18 -7.56,4.27 -11.35,6.38l-1.43 0.79 -0.71 0.4c-0.26,0.15 -0.35,0.2 -0.5,0.33 -0.53,0.45 -0.71,1.28 -0.43,1.94 0.13,0.33 0.34,0.61 0.64,0.8l0.24 0.13 0.35 0.17 0.74 0.33 2.97 1.34 5.94 2.67 2.97 1.34 1.48 0.68 0.77 0.36c0.34,0.17 0.64,0.38 0.9,0.64 0.53,0.51 0.9,1.19 1.03,1.92l0.29 1.62 0.55 3.21 1.11 6.42 0.55 3.21 0.27 1.6c0.1,0.57 0.16,0.81 0.4,1.14 0.34,0.46 0.93,0.75 1.53,0.75 0.18,0 0.35,-0.03 0.53,-0.08 0.39,-0.12 0.64,-0.3 1,-0.68l1.11 -1.19 8.94 -9.47 1.12 -1.18c0.42,-0.46 1,-0.81 1.61,-0.95 0.22,-0.06 0.45,-0.08 0.67,-0.08 0.4,0 0.79,0.07 1.11,0.13l1.61 0.25c2.15,0.34 4.3,0.66 6.45,0.96l6.44 0.93c0.53,0.06 1.11,0.18 1.57,0.2 0.02,0 0.03,0 0.03,0 0.48,0 0.95,-0.14 1.33,-0.41 0.8,-0.55 1.24,-1.6 0.98,-2.53 -0.11,-0.45 -0.42,-0.88 -0.69,-1.37l-0.82 -1.41 -1.64 -2.81 -3.32 -5.59 -1.67 -2.8c-0.26,-0.48 -0.59,-0.87 -0.84,-1.55 -0.21,-0.63 -0.21,-1.34 -0.02,-1.98 0.48,-1.18 0.92,-2.02 1.38,-3.05l1.36 -2.95 2.81 -5.88 1.4 -2.94c0.26,-0.55 0.43,-0.87 0.47,-1.23 0.03,-0.37 -0.05,-0.75 -0.22,-1.08 -0.34,-0.59 -0.96,-0.96 -1.64,-0.96 -0.1,0 -0.19,0.01 -0.29,0.03l-3.18 0.59 -6.41 1.16 -6.41 1.14c-0.27,0.06 -0.63,0.11 -0.98,0.11 -0.27,0 -0.56,-0.03 -0.82,-0.12 -0.58,-0.16 -1.12,-0.56 -1.49,-0.97l-2.28 -2.32c-3.05,-3.09 -6.17,-6.11 -9.3,-9.13 -0.47,-0.47 -1.12,-0.71 -1.77,-0.71z"/>
    <g style="clip-path:url(#id0)">
     <image x="223.06" y="3.36" width="51.89" height="53.34" xlink:href="globebr_Images\globebr_ImgID1.png"/>
    </g>
   </g>
   <g>
    <g>
     <path class="fil2" d="M129.59 213.14c-2.85,0 -5.74,-0.17 -8.59,-0.5 -39.95,-4.7 -68.63,-41.01 -63.93,-80.96 0.19,-1.73 0.45,-3.45 0.8,-5.23 6.54,-34.34 36.67,-59.26 71.65,-59.26 2.83,0 5.69,0.17 8.52,0.49 26.43,3.13 49.1,20.4 59.16,45.05 4.54,11.24 6.19,23.65 4.77,35.91 -4.32,36.78 -35.43,64.51 -72.37,64.51z"/>
     <path class="fil3" d="M129.51 68.8c2.75,0 5.53,0.16 8.33,0.48 26.75,3.17 48.33,20.73 57.85,44.05 4.34,10.75 6.09,22.74 4.66,35.11 -4.27,36.3 -35.08,63.07 -70.76,63.07 -2.78,0 -5.58,-0.16 -8.4,-0.49 -39.13,-4.6 -67.11,-40.03 -62.51,-79.16 0.19,-1.75 0.45,-3.43 0.78,-5.12 6.41,-33.69 36.01,-57.94 70.06,-57.94zm0 -3.24l0 0 0 3.24 -0 -3.24 -0 0c-35.75,0 -66.56,25.48 -73.24,60.58 -0.35,1.81 -0.62,3.57 -0.81,5.37 -2.32,19.76 3.19,39.26 15.54,54.89 12.34,15.63 30.04,25.52 49.82,27.84 2.91,0.34 5.87,0.52 8.78,0.52 37.75,0 69.56,-28.34 73.98,-65.93 1.44,-12.53 -0.24,-25.22 -4.88,-36.7 -10.29,-25.21 -33.46,-42.85 -60.47,-46.06 -2.9,-0.34 -5.82,-0.51 -8.71,-0.51z"/>
    </g>
    <path class="fil4" d="M190.13 150.47c-3.94,33.48 -34.26,57.48 -67.73,53.54 -33.48,-3.94 -57.42,-34.25 -53.49,-67.73 0.17,-1.5 0.39,-2.94 0.66,-4.38 9.2,2.33 18.96,3.99 29.27,4.71 36.8,2.55 65.68,-5.43 87.3,-16.19 3.71,9.2 5.21,19.46 3.99,30.04z"/>
    <path class="fil5" style="mask:url(#id1)" d="M192.07 147.48c-4.06,34.55 -35.35,59.32 -69.91,55.26 -34.55,-4.06 -59.27,-35.35 -55.21,-69.91 0.17,-1.54 0.4,-3.03 0.69,-4.52 6.12,-32.15 36.16,-54.58 69.22,-50.74 23.63,2.8 42.68,18.31 51.09,38.9 3.83,9.5 5.38,20.08 4.12,31.01z"/>
    <path class="fil6" style="mask:url(#id3)" d="M141.87 84.86c0,4.95 -6.36,8.96 -14.2,8.96 -7.84,0 -14.2,-4.01 -14.2,-8.96 0,-4.95 6.36,-8.96 14.2,-8.96 7.84,0 14.2,4.01 14.2,8.96z"/>
    <path class="fil7" style="mask:url(#id5)" d="M147.52 100.23c0,2.32 -2.47,4.2 -5.51,4.2 -3.04,0 -5.51,-1.88 -5.51,-4.2 0,-2.32 2.47,-4.2 5.51,-4.2 3.04,0 5.51,1.88 5.51,4.2z"/>
    <g>
     <path class="fil8" d="M129.41 68.82l0 1.62c2.72,0 5.48,0.16 8.21,0.48 38.18,4.48 65.6,39.18 61.12,77.36 -4.12,35.12 -33.85,61.6 -69.15,61.6 -2.72,0 -5.49,-0.16 -8.21,-0.48 -18.49,-2.17 -35.04,-11.41 -46.58,-26.02 -11.54,-14.61 -16.71,-32.84 -14.54,-51.34 4.12,-35.12 33.85,-61.6 69.15,-61.6l0 -1.62zm-0 0l0 0c-35.68,0 -66.5,26.73 -70.76,63.03 -4.59,39.13 23.41,74.57 62.54,79.16 2.82,0.33 5.62,0.49 8.4,0.49 35.68,0 66.5,-26.73 70.76,-63.03 4.59,-39.13 -23.41,-74.57 -62.54,-79.16 -2.82,-0.33 -5.62,-0.49 -8.4,-0.49z"/>
    </g>
    <g>
     <path class="fil9" d="M11.27 104.78c0,0 4.13,-2.67 16.5,-2.19 12.37,0.48 24.57,1.91 24.57,1.91 0,0 -17.14,-7.83 -38.73,-6.18 -21.59,1.65 -2.33,6.45 -2.33,6.45z"/>
     <path class="fil9" d="M204.13 150.37c40.24,16.63 45.35,28.05 45.35,28.05l6.46 -3.88c-8.88,-12.68 -51.81,-24.17 -51.81,-24.17z"/>
     <path class="fil10" d="M260.08 183.04c-1.94,6.35 -18.92,7.45 -44.63,4.08 -24.55,-3.17 -57.07,-10.49 -92.12,-21.12 -36.73,-11.14 -69.12,-23.84 -91.47,-35.24 -21.31,-10.95 -33.49,-20.66 -31.68,-26.75 1.23,-4.15 9.07,-6.09 21.57,-5.96 -4.92,0.52 -7.97,1.62 -8.55,3.43 -1.3,4.21 10.37,11.92 30.32,21.05 20.6,9.46 50.14,20.41 83.44,30.51 33.17,10.11 63.74,17.43 86.09,20.99 21.77,3.63 35.76,3.69 37.05,-0.52 0.65,-2.01 -1.75,-4.99 -6.48,-8.62 11.66,7.39 17.81,13.73 16.45,18.14z"/>
     <path class="fil11" style="mask:url(#id7)" d="M215.45 187.12c-24.55,-3.17 -57.07,-10.49 -92.12,-21.12 -36.73,-11.14 -69.12,-23.84 -91.47,-35.24 3.69,-2.85 7.58,-5.57 11.66,-8.23 20.6,9.46 50.14,20.41 83.44,30.51 33.17,10.11 63.74,17.43 86.09,20.99 1.1,4.41 1.94,8.81 2.4,13.09z"/>
     <g>
      <path class="fil8" d="M13.76 99.27c-0.76,0.54 -1.25,1.18 -1.49,1.92 -1.45,4.71 8.93,12.19 30.84,22.22 21.54,9.89 51.22,20.74 83.56,30.56 32.29,9.84 62.91,17.3 86.22,21.02 10.73,1.79 19.41,2.7 25.8,2.7 7.5,0 11.54,-1.27 12.34,-3.87 0.27,-0.84 0.19,-1.76 -0.25,-2.77 8.24,6.4 8.9,9.99 8.37,11.71 -1.04,3.39 -7.9,5.26 -19.33,5.26 -6.69,0 -14.84,-0.62 -24.25,-1.86 -25.19,-3.26 -57.85,-10.75 -91.96,-21.09 -35.57,-10.79 -67.99,-23.28 -91.31,-35.18 -30.39,-15.61 -31.94,-23.11 -31.19,-25.61 0.79,-2.66 5.21,-4.39 12.65,-5.01zm6.83 -1.23l0 0c-11.83,0 -19.22,1.95 -20.42,5.97 -1.81,6.09 10.36,15.81 31.68,26.75 22.35,11.4 54.74,24.1 91.47,35.24 35.05,10.62 67.57,17.94 92.12,21.12 9.39,1.23 17.62,1.86 24.37,1.86 11.74,0 19.03,-1.92 20.26,-5.95 1.36,-4.41 -4.79,-10.75 -16.45,-18.14 4.73,3.63 7.13,6.61 6.48,8.62 -0.67,2.17 -4.69,3.2 -11.41,3.2 -6.34,0 -15.08,-0.92 -25.64,-2.68 -22.35,-3.56 -52.93,-10.88 -86.09,-20.99 -33.3,-10.11 -62.84,-21.05 -83.44,-30.51 -19.95,-9.13 -31.61,-16.84 -30.32,-21.05 0.58,-1.81 3.63,-2.92 8.55,-3.43 -0.39,-0 -0.78,-0.01 -1.16,-0.01z"/>
     </g>
    </g>
   </g>
   <g>
    <g>
     <g>
      <path class="fil12" d="M127.93 263.62c-39.25,7.23 -45.11,13.08 -52.33,52.33 -7.23,-39.25 -13.08,-45.11 -52.33,-52.33 39.25,-7.23 45.11,-13.08 52.33,-52.33 7.23,39.25 13.08,45.11 52.33,52.33z"/>
      <path class="fil13" d="M128.06 263.62l-10.16 2.47c-1.67,0.41 -3.34,0.81 -4.98,1.31 -1.64,0.5 -3.32,0.86 -4.92,1.45 -6.49,2.04 -12.79,4.96 -17.54,9.64 -4.62,4.82 -7.31,11.18 -9.2,17.67 -1.87,6.54 -3.31,13.25 -4.61,19.99l-1.11 5.76 -1.01 -5.76c-1.19,-6.76 -2.38,-13.53 -4.2,-20.11 -0.52,-1.62 -0.89,-3.31 -1.54,-4.88 -0.6,-1.59 -1.15,-3.21 -1.95,-4.71 -0.37,-0.76 -0.74,-1.53 -1.15,-2.27l-1.39 -2.13 -0.7 -1.06 -0.83 -0.96 -1.65 -1.93 -1.9 -1.68 -0.95 -0.84 -1.06 -0.71 -2.11 -1.43c-0.74,-0.42 -1.52,-0.78 -2.27,-1.17 -1.49,-0.83 -3.11,-1.39 -4.7,-2.02 -1.57,-0.68 -3.25,-1.07 -4.87,-1.61 -6.57,-1.94 -13.36,-3.11 -20.12,-4.31l-3.66 -0.65 3.66 -0.75c6.73,-1.38 13.44,-2.87 19.95,-4.86 6.47,-2.02 12.76,-4.83 17.48,-9.46 4.58,-4.78 7.26,-11.09 9.15,-17.58 1.88,-6.52 3.27,-13.24 4.55,-19.98l1.34 -7.04 1.3 7.04c1.25,6.75 2.61,13.47 4.45,20.01 1.86,6.5 4.51,12.85 9.1,17.69 4.72,4.7 11.03,7.62 17.52,9.67 1.6,0.59 3.28,0.95 4.92,1.46 1.64,0.5 3.31,0.9 4.98,1.31 1.67,0.42 3.31,0.82 5.1,1.22 1.76,0.42 3.42,0.86 5.06,1.21zm-0.26 0l0 0c-1.74,-0.3 -3.45,-0.51 -5.08,-0.75 -1.6,-0.22 -3.31,-0.57 -5,-0.89 -3.39,-0.62 -6.77,-1.37 -10.11,-2.31 -6.62,-1.86 -13.36,-4.53 -18.58,-9.5 -5.08,-5.1 -8.01,-11.79 -10.07,-18.41 -2.07,-6.67 -3.37,-13.47 -4.69,-20.24l2.64 0c-1.29,6.78 -2.55,13.59 -4.59,20.27 -2.03,6.63 -4.93,13.36 -10.02,18.52 -5.22,5.04 -11.98,7.8 -18.62,9.71 -6.69,1.92 -13.5,3.1 -20.29,4.28l0 -1.4c6.76,1.37 13.5,2.86 20.13,4.83 6.58,2.01 13.13,4.86 18.24,9.7 4.93,5.03 7.85,11.6 9.96,18.16 2.09,6.62 3.56,13.38 4.94,20.14l-2.12 0c1.27,-6.78 2.49,-13.59 4.54,-20.26 2.03,-6.61 4.92,-13.3 9.97,-18.42 5.2,-4.99 11.94,-7.66 18.56,-9.53 3.33,-0.95 6.71,-1.69 10.11,-2.32 1.7,-0.32 3.41,-0.68 4.99,-0.89 1.61,-0.23 3.34,-0.41 5.09,-0.72z"/>
     </g>
    </g>
    <g>
     <path class="fil14" style="mask:url(#id9)" d="M115.33 263.62c-29.79,5.48 -34.24,9.93 -39.72,39.72 -5.48,-29.79 -9.93,-34.24 -39.72,-39.72 29.79,-5.48 34.24,-9.93 39.72,-39.72 5.48,29.79 9.93,34.24 39.72,39.72z"/>
    </g>
   </g>
   <g>
    <g>
     <g>
      <path class="fil15" d="M169.88 214.89c-19.43,3.58 -22.33,6.48 -25.91,25.91 -3.58,-19.43 -6.48,-22.33 -25.91,-25.91 19.43,-3.58 22.33,-6.48 25.91,-25.91 3.58,19.43 6.48,22.33 25.91,25.91z"/>
      <path class="fil16" d="M169.94 214.89l-5.03 1.21c-1.65,0.4 -3.29,0.87 -4.9,1.37 -3.21,1.01 -6.33,2.45 -8.68,4.77 -2.29,2.39 -3.62,5.53 -4.55,8.75 -0.93,3.24 -1.64,6.56 -2.28,9.9l-0.55 2.85 -0.5 -2.85c-0.59,-3.35 -1.18,-6.7 -2.08,-9.96 -0.9,-3.24 -2.21,-6.45 -4.56,-8.88 -2.39,-2.39 -5.61,-3.74 -8.84,-4.69 -3.25,-0.96 -6.61,-1.54 -9.96,-2.13l-1.82 -0.32 1.82 -0.37c3.33,-0.68 6.66,-1.39 9.88,-2.39 3.2,-1.01 6.31,-2.41 8.65,-4.7 2.27,-2.36 3.59,-5.49 4.53,-8.7 0.93,-3.23 1.62,-6.55 2.25,-9.89l0.66 -3.49 0.64 3.49c0.62,3.34 1.29,6.67 2.2,9.9 0.92,3.22 2.23,6.36 4.51,8.76 2.34,2.33 5.46,3.77 8.67,4.79 1.61,0.51 3.25,0.97 4.9,1.37l5.03 1.21zm-0.13 0l0 0c-1.76,-0.29 -3.27,-0.44 -4.99,-0.81 -1.68,-0.31 -3.35,-0.68 -5,-1.14 -3.28,-0.92 -6.61,-2.24 -9.2,-4.7 -2.51,-2.53 -3.96,-5.84 -4.98,-9.11 -1.03,-3.3 -1.67,-6.67 -2.32,-10.02l1.31 0c-0.64,3.36 -1.26,6.73 -2.27,10.04 -1,3.28 -2.44,6.61 -4.96,9.17 -2.58,2.5 -5.93,3.86 -9.22,4.79 -3.32,0.93 -6.68,1.55 -10.04,2.14l0 -0.69c3.34,0.68 6.68,1.42 9.96,2.39 3.26,1 6.5,2.4 9.03,4.8 2.44,2.49 3.88,5.74 4.93,8.99 1.03,3.28 1.76,6.62 2.44,9.97l-1.05 0c0.63,-3.36 1.23,-6.73 2.25,-10.03 1,-3.27 2.44,-6.58 4.94,-9.12 2.57,-2.47 5.91,-3.79 9.19,-4.72 1.65,-0.47 3.32,-0.83 5,-1.14 1.72,-0.37 3.23,-0.51 4.99,-0.8z"/>
     </g>
    </g>
    <g>
     <path class="fil17" style="mask:url(#id11)" d="M163.63 214.89c-14.75,2.72 -16.95,4.92 -19.66,19.66 -2.71,-14.75 -4.92,-16.95 -19.66,-19.66 14.75,-2.71 16.95,-4.92 19.66,-19.66 2.71,14.75 4.92,16.95 19.66,19.66z"/>
    </g>
   </g>
  </g>
 </g>
</svg>
