<?xml version="1.0" encoding="UTF-8"?>
<!DOCTYPE svg PUBLIC "-//W3C//DTD SVG 1.1//EN" "http://www.w3.org/Graphics/SVG/1.1/DTD/svg11.dtd">
<!-- Creator: CorelDRAW -->
<svg xmlns="http://www.w3.org/2000/svg" xml:space="preserve" width="293.962mm" height="70.4816mm" version="1.1" style="shape-rendering:geometricPrecision; text-rendering:geometricPrecision; image-rendering:optimizeQuality; fill-rule:evenodd; clip-rule:evenodd"
viewBox="0 0 32032.57 7680.26"
 xmlns:xlink="http://www.w3.org/1999/xlink"
 xmlns:xodm="http://www.corel.com/coreldraw/odm/2003">
 <defs>
  <style type="text/css">
   <![CDATA[
    .str0 {stroke:#22251A;stroke-width:173.4;stroke-linecap:round;stroke-linejoin:round;stroke-miterlimit:4}
    .str1 {stroke:#22251A;stroke-width:173.4;stroke-linecap:round;stroke-linejoin:round;stroke-miterlimit:4;stroke-dasharray:1227.974355 1227.974355}
    .fil5 {fill:none;fill-rule:nonzero}
    .fil0 {fill:#22251A;fill-rule:nonzero}
    .fil2 {fill:#36302E;fill-rule:nonzero}
    .fil6 {fill:#3E3C36;fill-rule:nonzero}
    .fil1 {fill:#FC673D;fill-rule:nonzero}
    .fil3 {fill:#FEF9DF;fill-rule:nonzero}
    .fil4 {fill:#FFFCED;fill-rule:nonzero}
   ]]>
  </style>
 </defs>
 <g id="Layer_x0020_1">
  <metadata id="CorelCorpID_0Corel-Layer"/>
  <g id="_2428571925232">
   <path class="fil0" d="M29985.57 6354.23c-29.43,0 -59.29,-0.63 -88.75,-1.91l-27935.64 -1197.4c-154.33,-6.61 -303.41,-8.31 -447.55,-9.95 -546.15,-6.21 -1017.82,-11.58 -1291.26,-300.27 -162.95,-172.04 -235.09,-423.93 -220.52,-770.07 0,0 44.57,-2102.37 44.61,-2103.51 22.88,-533.76 247.17,-1030.99 631.55,-1400.11 383.45,-368.23 886.09,-571.02 1415.3,-571.02 29.43,0 59.28,0.64 88.74,1.91l27636.18 1184.56c39.76,1.71 106.31,4.57 469.03,205.83 203.54,112.95 459.11,266.3 701.12,420.69 186.24,118.83 453.08,294.64 666.62,457.42 293.59,223.78 352.01,320.28 350.41,415.1l27.13 1688.28c0.04,3.11 0,6.22 -0.14,9.33 -22.87,533.77 -247.15,1031 -631.54,1400.12 -383.44,368.21 -886.08,570.99 -1415.3,570.99z"/>
   <path class="fil1" d="M31847.07 2684.76l27.18 1691.57c-44.95,1048.69 -927.23,1862.55 -1970.64,1817.83l-27935.64 -1197.4c-1043.4,-44.73 -1852.81,131.68 -1807.87,-917.01l44.54 -2101.83c44.96,-1048.69 927.24,-1862.55 1970.65,-1817.83l27636.17 1184.56c189.09,8.11 2043.77,1150.06 2035.61,1340.11z"/>
   <path class="fil2" d="M29431 7631.07l-553.86 -386.82c-142.74,-99.7 -332.52,-99.7 -475.25,0l-553.85 386.82c-179.22,125.17 -425.18,-3.05 -425.18,-221.66l0 -1758.2 2433.34 0 0 1758.2c0,218.61 -245.96,346.84 -425.18,221.66z"/>
   <path class="fil0" d="M29584.91 7562.52c-30.83,0 -59.92,-9.41 -86.5,-27.97l-553.86 -386.83c-89.9,-62.79 -195.37,-95.98 -305.03,-95.98 -109.65,0 -215.13,33.19 -305.03,95.97l-553.85 386.85c-26.58,18.55 -55.67,27.96 -86.51,27.96 -39.21,0 -78.26,-15.76 -107.17,-43.22 -21.15,-20.1 -46.36,-55.49 -46.36,-109.88l0 -1640.47 2197.84 0 0 1640.47c0,94.57 -79.68,153.1 -153.51,153.1z"/>
   <path class="fil0" d="M1434.04 5778.11c-759.44,0 -1377.3,-617.86 -1377.3,-1377.32l0 -2447.45c0,-759.47 617.86,-1377.33 1377.3,-1377.33l28500.64 0c54.89,0 107.53,21.82 146.34,60.62l1883.87 1883.88c38.81,38.81 60.62,91.46 60.62,146.34l0 1733.94c0,759.45 -617.86,1377.32 -1377.32,1377.32l-29214.15 0z"/>
   <path class="fil3" d="M31818.55 2666.86l0 1733.94c0,646.8 -523.56,1170.36 -1170.36,1170.36l-29214.14 0c-646.79,0 -1170.35,-523.56 -1170.35,-1170.36l0 -2447.46c0,-646.79 523.56,-1170.35 1170.35,-1170.35l28500.63 0 1883.88 1883.88z"/>
   <polygon class="fil4" points="21326.17,782.98 17217.75,5571.16 12979.05,5571.16 17087.46,782.98 "/>
   <polygon class="fil4" points="10552,782.98 6444.36,5571.16 2906.61,5571.16 7014.23,782.98 "/>
   <polygon class="fil4" points="27056.28,782.98 22947.87,5571.16 18709.15,5571.16 22817.56,782.98 "/>
   <line class="fil5 str0" x1="29973.92" y1="4658.96" x2="29699.19" y2= "4659.06" />
   <line class="fil5 str1" x1="29143.32" y1="4659.27" x2="2739.47" y2= "4669.06" />
   <line class="fil5 str0" x1="2461.54" y1="4669.17" x2="2186.81" y2= "4669.27" />
   <path class="fil6" d="M29970.01 2631.54l0 -1968.88c0,-9.09 7.8,-12.48 12.71,-12.48 3.15,0 5.91,1.22 8.4,3.73l1963.43 1963.42c2.62,2.6 3.2,5.66 1.8,9.07 -1.42,3.4 -4,5.14 -7.7,5.14l-1978.63 0z"/>
   <path class="fil0" d="M30005.32 718.05l1878.17 1878.17 -1878.17 0 0 -1878.17zm-22.6 -103.18l0 0c-24.52,0 -48.04,19.04 -48.04,47.79l0 2004.2 2013.98 0c38.88,0 58.36,-47.02 30.86,-74.51l-1963.41 -1963.41c-9.72,-9.72 -21.66,-14.07 -33.39,-14.07z"/>
  </g>
 </g>
</svg>
