<?xml version="1.0" encoding="UTF-8"?>
<!DOCTYPE svg PUBLIC "-//W3C//DTD SVG 1.1//EN" "http://www.w3.org/Graphics/SVG/1.1/DTD/svg11.dtd">
<!-- Creator: CorelDRAW -->
<svg xmlns="http://www.w3.org/2000/svg" xml:space="preserve" width="70.5569mm" height="68.225mm" version="1.1" style="shape-rendering:geometricPrecision; text-rendering:geometricPrecision; image-rendering:optimizeQuality; fill-rule:evenodd; clip-rule:evenodd"
viewBox="0 0 299.18 289.29"
 xmlns:xlink="http://www.w3.org/1999/xlink"
 xmlns:xodm="http://www.corel.com/coreldraw/odm/2003">
 <defs>
  <style type="text/css">
   <![CDATA[
    .fil10 {fill:#331219;fill-rule:nonzero}
    .fil8 {fill:#8E0B27;fill-rule:nonzero}
    .fil1 {fill:#DB601E;fill-rule:nonzero}
    .fil11 {fill:#FFC3D2;fill-rule:nonzero}
    .fil4 {fill:white;fill-rule:nonzero}
    .fil9 {fill:#E6738D;fill-rule:nonzero}
    .fil2 {fill:white;fill-rule:nonzero}
    .fil7 {fill:url(#id0);fill-rule:nonzero}
    .fil14 {fill:url(#id1);fill-rule:nonzero}
    .fil12 {fill:url(#id2);fill-rule:nonzero}
    .fil13 {fill:url(#id3);fill-rule:nonzero}
    .fil0 {fill:url(#id4);fill-rule:nonzero}
    .fil5 {fill:url(#id5);fill-rule:nonzero}
    .fil6 {fill:url(#id6);fill-rule:nonzero}
    .fil3 {fill:url(#id7);fill-rule:nonzero}
   ]]>
  </style>
  <linearGradient id="id0" gradientUnits="userSpaceOnUse" x1="59.44" y1="169.89" x2="256.42" y2="169.89">
   <stop offset="0" style="stop-opacity:1; stop-color:#F16284"/>
   <stop offset="1" style="stop-opacity:1; stop-color:#F42857"/>
  </linearGradient>
  <linearGradient id="id1" gradientUnits="userSpaceOnUse" x1="270.76" y1="223.33" x2="272.07" y2="272.35">
   <stop offset="0" style="stop-opacity:1; stop-color:white"/>
   <stop offset="0.231373" style="stop-opacity:1; stop-color:white"/>
   <stop offset="0.619608" style="stop-opacity:0; stop-color:white"/>
   <stop offset="1" style="stop-opacity:1; stop-color:white"/>
  </linearGradient>
  <linearGradient id="id2" gradientUnits="userSpaceOnUse" x1="239.58" y1="235.8" x2="294.39" y2="263.03">
   <stop offset="0" style="stop-opacity:1; stop-color:#FEED63"/>
   <stop offset="0.470588" style="stop-opacity:1; stop-color:#FDB96B"/>
   <stop offset="1" style="stop-opacity:1; stop-color:#FB8574"/>
  </linearGradient>
  <linearGradient id="id3" gradientUnits="userSpaceOnUse" x1="231.58" y1="249.9" x2="311.46" y2="249.9">
   <stop offset="0" style="stop-opacity:1; stop-color:#F64545"/>
   <stop offset="0.129412" style="stop-opacity:1; stop-color:#F64545"/>
   <stop offset="0.501961" style="stop-opacity:1; stop-color:#FFD21E"/>
   <stop offset="0.529412" style="stop-opacity:1; stop-color:#FFD21E"/>
   <stop offset="0.611765" style="stop-opacity:1; stop-color:#FFD447"/>
   <stop offset="0.709804" style="stop-opacity:1; stop-color:#FFD447"/>
   <stop offset="1" style="stop-opacity:1; stop-color:#F64545"/>
   <stop offset="1" style="stop-opacity:1; stop-color:#F64545"/>
  </linearGradient>
  <radialGradient id="id4" gradientUnits="userSpaceOnUse" gradientTransform="matrix(0.756326 -0 -0 0.756321 48 17)" cx="198.76" cy="70.99" r="50.34" fx="198.76" fy="70.99">
   <stop offset="0" style="stop-opacity:1; stop-color:#FCE490"/>
   <stop offset="1" style="stop-opacity:1; stop-color:#FFC542"/>
  </radialGradient>
  <radialGradient id="id5" gradientUnits="userSpaceOnUse" gradientTransform="matrix(0.874863 -0 -0 0.874864 8 17)" xlink:href="#id4" cx="62.46" cy="137.46" r="43.53" fx="62.46" fy="137.46">
  </radialGradient>
  <radialGradient id="id6" gradientUnits="userSpaceOnUse" gradientTransform="matrix(-0.853129 1.56776 -1.56776 -0.853129 196 179)" xlink:href="#id4" cx="14.06" cy="108.54" r="25.68" fx="14.06" fy="108.54">
  </radialGradient>
  <radialGradient id="id7" gradientUnits="userSpaceOnUse" gradientTransform="matrix(-0.947938 1.74199 -1.74199 -0.947938 443 -341)" xlink:href="#id4" cx="213.31" cy="15.61" r="23.11" fx="213.31" fy="15.61">
  </radialGradient>
 </defs>
 <g id="__x0023_Layer_x0020_2">
  <metadata id="CorelCorpID_0Corel-Layer"/>
  <g id="_1955134214048">
   <g>
    <g>
     <g>
      <g>
       <path class="fil0" d="M197.35 121.33c-4.18,0 -7.94,-2.49 -9.57,-6.34 -22.72,-56 9.08,-88.15 12.78,-91.64 0.04,-0.04 0.12,-0.11 0.16,-0.15 1.9,-1.64 4.34,-2.54 6.84,-2.54 2.92,0 5.73,1.24 7.7,3.39 3.74,4.22 3.39,10.69 -0.72,14.51 -0.03,0.03 -0.05,0.05 -0.06,0.06 -1.61,1.57 -5.73,6.03 -9.13,13.43 -4.2,9.27 -7.9,24.77 -1.63,45.87 1.02,3.47 2.03,6.39 3.2,9.19 1.06,2.59 1.03,5.41 -0.07,7.97 -1.09,2.52 -3.09,4.48 -5.64,5.52 -1.22,0.49 -2.54,0.74 -3.87,0.74z"/>
       <path class="fil1" d="M207.56 24.46c1.8,0 3.59,0.73 4.9,2.16 2.35,2.66 2.13,6.76 -0.53,9.19 -0.46,0.46 -5.77,5.39 -10.03,14.66 -4.79,10.56 -8.28,26.81 -1.82,48.54 0.91,3.11 1.97,6.3 3.34,9.57 1.37,3.34 -0.3,7.14 -3.65,8.51 -0.76,0.3 -1.59,0.46 -2.43,0.46 -2.58,0 -5.01,-1.52 -6.08,-4.03 -22.56,-55.6 10.56,-86.13 11.92,-87.42 1.26,-1.09 2.82,-1.62 4.37,-1.62zm0 -7.6l0 0c-0,0 -0,0 -0,0 -3.42,0 -6.73,1.23 -9.32,3.46 -0.09,0.08 -0.17,0.15 -0.26,0.23 -3.92,3.69 -37.4,37.51 -13.75,95.8 0.01,0.04 0.03,0.07 0.05,0.11 2.23,5.26 7.36,8.65 13.07,8.65 1.83,0 3.59,-0.34 5.25,-1 3.53,-1.44 6.26,-4.12 7.74,-7.55 1.51,-3.5 1.55,-7.37 0.11,-10.88 -1.14,-2.72 -2.11,-5.5 -3.08,-8.83 -5.95,-20 -2.49,-34.57 1.45,-43.27 3.12,-6.79 6.86,-10.84 8.32,-12.27l0.03 -0.03c5.58,-5.21 6.03,-14.03 0.98,-19.73 -0.03,-0.03 -0.05,-0.06 -0.08,-0.09 -2.69,-2.94 -6.52,-4.63 -10.5,-4.63z"/>
      </g>
     </g>
     <path class="fil2" d="M200.08 99c-2.28,-1.9 -4.18,-5.32 -5.39,-10.86 -4.63,-21.12 4.1,-37.9 4.1,-37.9l3.11 0.23c-4.79,10.56 -8.28,26.81 -1.82,48.54z"/>
     <g>
      <path class="fil3" d="M205.61 55.15c-14.16,0 -25.68,-11.52 -25.68,-25.68 0,-14.16 11.52,-25.68 25.68,-25.68 14.16,0 25.68,11.52 25.68,25.68 0,14.16 -11.52,25.68 -25.68,25.68z"/>
      <path class="fil1" d="M205.61 7.6c12.08,0 21.88,9.8 21.88,21.88 0,12.08 -9.8,21.88 -21.88,21.88 -12.08,0 -21.88,-9.8 -21.88,-21.88 0,-12.08 9.8,-21.88 21.88,-21.88zm0 -7.6l0 0c-16.25,0 -29.47,13.22 -29.47,29.47 0,16.25 13.22,29.47 29.47,29.47 16.25,0 29.47,-13.22 29.47,-29.47 0,-16.25 -13.22,-29.47 -29.47,-29.47z"/>
     </g>
     <g>
      <path class="fil4" d="M205.61 11.39c9.97,0 18.08,8.11 18.08,18.08 0,9.97 -8.11,18.08 -18.08,18.08 -9.97,0 -18.08,-8.11 -18.08,-18.08 0,-9.97 8.11,-18.08 18.08,-18.08zm0 -3.8l0 0c-12.08,0 -21.88,9.8 -21.88,21.88 0,12.08 9.8,21.88 21.88,21.88 12.08,0 21.88,-9.8 21.88,-21.88 0,-12.08 -9.8,-21.88 -21.88,-21.88z"/>
     </g>
    </g>
    <g>
     <g>
      <g>
       <path class="fil5" d="M95.64 170.78c-4,0 -7.56,-2.21 -9.28,-5.78 -1.31,-2.76 -2.8,-5.47 -4.7,-8.54 -11.52,-18.77 -25.53,-26.37 -35.25,-29.44 -5.96,-1.85 -10.91,-2.24 -14.02,-2.24 -1.05,0 -1.76,0.05 -2.05,0.07 -0.01,0 -0.05,0 -0.08,0.01 -0.32,0.03 -0.64,0.04 -0.96,0.04 -0,0 -0,0 -0,0 -5.28,0 -9.71,-3.93 -10.3,-9.14 -0.57,-5.72 3.42,-10.72 9.08,-11.45 0.06,-0.01 0.12,-0.01 0.17,-0.02 1.18,-0.1 2.44,-0.15 3.78,-0.15 6.16,0 18.56,1.04 32.33,8.02 17,8.61 30.67,23.34 40.64,43.78 1.8,3.84 1.14,8.3 -1.65,11.41 -0.89,0.99 -1.96,1.81 -3.11,2.37 -1.46,0.71 -3,1.06 -4.59,1.06z"/>
       <path class="fil1" d="M32.01 107.94c11.29,0 47.15,3.73 69.56,49.66 1.15,2.47 0.66,5.29 -1.06,7.21 -0.56,0.62 -1.23,1.14 -1.96,1.5 -0.93,0.45 -1.93,0.67 -2.9,0.67 -2.42,0 -4.74,-1.32 -5.86,-3.64 -1.52,-3.2 -3.18,-6.12 -4.89,-8.88 -11.85,-19.32 -26.28,-27.57 -37.33,-31.07 -6.67,-2.07 -12.16,-2.42 -15.16,-2.42 -1.38,0 -2.24,0.07 -2.44,0.08 -0.22,0.02 -0.44,0.03 -0.66,0.03 -3.31,0 -6.15,-2.47 -6.53,-5.78 -0.35,-3.58 2.22,-6.79 5.79,-7.25 0.28,-0.02 1.5,-0.14 3.46,-0.14zm0 -7.6l0 0c-1.44,0 -2.81,0.05 -4.05,0.16 -0.11,0.01 -0.28,0.03 -0.39,0.04 -7.71,0.99 -13.14,7.82 -12.38,15.53 0,0.04 0.01,0.08 0.01,0.12 0.82,7.13 6.87,12.51 14.08,12.51 0.42,0 0.84,-0.02 1.25,-0.06l0.04 -0c0.26,-0.02 0.88,-0.06 1.81,-0.06 2.33,0 7.1,0.27 12.91,2.07 9.07,2.87 22.22,10.02 33.11,27.79 1.84,2.97 3.26,5.56 4.5,8.16 2.39,4.94 7.26,7.98 12.73,7.98 2.14,0 4.28,-0.49 6.21,-1.43 1.65,-0.82 3.08,-1.91 4.3,-3.27 3.81,-4.25 4.71,-10.33 2.29,-15.51 -0.02,-0.04 -0.03,-0.07 -0.05,-0.11 -10.34,-21.2 -24.59,-36.51 -42.34,-45.5 -14.47,-7.33 -27.54,-8.43 -34.04,-8.43z"/>
      </g>
     </g>
     <path class="fil2" d="M84.89 154.47c0.11,-2.96 -1.17,-6.66 -4.48,-11.27 -12.62,-17.55 -30.94,-22.27 -30.94,-22.27l-1.91 2.47c11.05,3.49 25.48,11.75 37.33,31.07z"/>
     <g>
      <path class="fil6" d="M29.45 137.81c-6.34,0 -12.43,-2.33 -17.14,-6.57 -10.54,-9.46 -11.41,-25.73 -1.95,-36.26 4.86,-5.42 11.83,-8.52 19.11,-8.52 6.34,0 12.43,2.33 17.14,6.57 10.54,9.46 11.41,25.72 1.95,36.26 -4.86,5.42 -11.83,8.52 -19.11,8.52 -0,0 0,0 0,0z"/>
      <path class="fil1" d="M29.47 90.26c5.21,0 10.43,1.85 14.61,5.6 8.99,8.07 9.74,21.9 1.66,30.9 -4.32,4.81 -10.29,7.26 -16.29,7.26 -5.21,0 -10.43,-1.85 -14.61,-5.6 -8.99,-8.07 -9.74,-21.9 -1.66,-30.9 4.32,-4.81 10.29,-7.26 16.29,-7.26zm0 -7.6l0 0c-8.36,0 -16.36,3.57 -21.94,9.78 -10.86,12.09 -9.85,30.76 2.24,41.62 5.42,4.86 12.41,7.54 19.68,7.54 8.36,0 16.36,-3.57 21.94,-9.78 10.86,-12.09 9.85,-30.76 -2.24,-41.62 -5.42,-4.86 -12.41,-7.54 -19.68,-7.54z"/>
     </g>
     <g>
      <path class="fil4" d="M29.47 94.05c4.46,0 8.75,1.64 12.07,4.63 7.42,6.66 8.04,18.11 1.38,25.53 -3.42,3.81 -8.33,6 -13.46,6 -4.46,0 -8.75,-1.64 -12.07,-4.63 -7.42,-6.66 -8.04,-18.11 -1.38,-25.53 3.42,-3.81 8.33,-6 13.46,-6zm0 -3.8l0 0c-6,0 -11.97,2.45 -16.29,7.26 -8.07,8.99 -7.33,22.82 1.66,30.9 4.18,3.75 9.4,5.6 14.61,5.6 6,0 11.97,-2.45 16.29,-7.26 8.07,-8.99 7.33,-22.82 -1.66,-30.9 -4.18,-3.75 -9.4,-5.6 -14.61,-5.6z"/>
     </g>
    </g>
    <g>
     <path class="fil7" d="M201.84 255.45c-0.12,-0.01 -3.02,-0.23 -7.99,-0.83 -0.31,-0.01 -0.63,-0.05 -0.97,-0.13 -21.65,-2.48 -74.66,-10.12 -106.69,-27.99 -18.78,-10.5 -28.67,-29.31 -26.44,-50.3 2.11,-19.94 14.81,-36.32 32.34,-41.72 7.69,-2.37 15.71,-3.58 23.84,-3.58 16.53,0 29.81,4.89 36.71,8.07 1.1,-7.37 4.04,-20.62 11.69,-32.2 0.08,-0.11 0.16,-0.22 0.24,-0.33 5.33,-8 12.13,-13.89 20.21,-17.52 6.79,-3.02 14.36,-4.62 21.92,-4.62 14.04,0 27.3,5.43 36.38,14.91 9.36,9.77 13.95,23.19 13.28,38.83 -1.88,44.39 -36.81,96.09 -47.64,111.09 -0.23,0.38 -0.38,0.61 -0.38,0.61 -0.03,0.05 -0.07,0.11 -0.11,0.15 -1.95,2.65 -3.12,4.13 -3.12,4.13 -0.72,0.92 -1.82,1.45 -2.98,1.45 -0.1,0 -0.19,-0 -0.29,-0.01z"/>
     <path class="fil8" d="M206.7 88.11c23.87,-0 47.28,16.78 45.87,49.78 -1.82,43.07 -35.93,93.8 -47.02,109.15 -0.23,0.38 -0.38,0.61 -0.38,0.61 -1.9,2.58 -3.04,4.03 -3.04,4.03 0,0 -2.96,-0.23 -8.05,-0.84 -0.08,0 -0.08,0 -0.15,0 0,0 -0.08,0 -0.3,-0.08 -20.66,-2.35 -74.13,-10.03 -105.58,-27.57 -38.43,-21.49 -28.64,-74.66 5.16,-85.07 7.98,-2.47 15.66,-3.41 22.72,-3.41 23.18,0 39.87,10.17 39.87,10.17 0,0 1.06,-19.9 11.7,-36 0,0 0,0 0.08,-0.08 4.41,-6.68 10.48,-12.68 18.76,-16.41 6.42,-2.86 13.41,-4.28 20.36,-4.28zm0 -7.6l0 0 0 7.6 -0 -7.6c-0,0 -0,0 -0,0 -8.08,0 -16.2,1.71 -23.45,4.94 -8.71,3.92 -16.02,10.22 -21.74,18.75 -0.12,0.16 -0.24,0.32 -0.35,0.48 -6.55,9.92 -9.81,20.99 -11.42,28.94 -7.82,-3.08 -19.7,-6.52 -33.8,-6.52 -8.51,0 -16.91,1.26 -24.96,3.75 -18.98,5.84 -32.72,23.48 -34.99,44.94 -2.39,22.55 8.21,42.75 28.36,54.01 32.53,18.15 85.89,25.89 107.9,28.43 0.44,0.1 0.88,0.15 1.31,0.18 4.96,0.59 7.87,0.81 8,0.82 0.19,0.01 0.39,0.02 0.58,0.02 2.31,0 4.51,-1.06 5.96,-2.89 0.05,-0.06 1.24,-1.58 3.2,-4.23 0.06,-0.09 0.15,-0.21 0.21,-0.3 0,0 0.15,-0.22 0.39,-0.61 11.08,-15.37 46.35,-67.7 48.27,-113.03 0.71,-16.69 -4.24,-31.08 -14.34,-41.62 -9.79,-10.22 -24.05,-16.08 -39.12,-16.08z"/>
    </g>
    <path class="fil9" d="M252.56 137.89c-1.82,43.07 -35.93,93.8 -47.02,109.15 -0.23,0.38 -0.38,0.61 -0.38,0.61 -1.9,2.58 -3.04,4.03 -3.04,4.03 0,0 -2.96,-0.23 -8.05,-0.84 3.87,-8.51 8.89,-19.98 15.34,-35.17 21.34,-50.43 14.73,-91.45 -3.8,-106.79 -17.77,-14.66 -36.53,-1.22 -38.05,-0.08 4.41,-6.68 10.48,-12.68 18.76,-16.41 28.48,-12.68 68.06,2.89 66.23,45.5z"/>
    <path class="fil2" d="M243.98 160.83c8.35,-35.62 -3.04,-71.55 -41.17,-67.83 -38.13,3.72 -43.83,57.73 -43.83,57.73 -6.91,-3.95 -38.51,-15.87 -62.51,-7.82 -24.08,8.13 -35.24,36.76 -16.79,63.73 17.77,26.05 108.31,43.14 113.93,44.13 -20.66,-2.35 -74.13,-10.03 -105.58,-27.57 -38.43,-21.49 -28.64,-74.66 5.16,-85.07 34.18,-10.56 62.59,6.76 62.59,6.76 0,0 2.05,-39.72 30.53,-52.48 28.48,-12.68 68.06,2.89 66.23,45.5 -1.82,43.07 -35.93,93.8 -47.02,109.15 3.34,-5.77 30.69,-52.86 38.43,-86.21z"/>
    <path class="fil10" d="M200.27 158.22c3.51,8.18 2.13,16.62 -3.09,18.86 -5.22,2.24 -12.29,-2.57 -15.8,-10.75 -3.51,-8.18 -2.13,-16.62 3.09,-18.86 5.22,-2.24 12.29,2.57 15.8,10.75z"/>
    <path class="fil10" d="M149.22 181.2c3.51,8.18 2.13,16.62 -3.09,18.86 -5.22,2.24 -12.29,-2.57 -15.8,-10.75 -3.51,-8.18 -2.13,-16.62 3.09,-18.86 5.22,-2.24 12.29,2.57 15.8,10.75z"/>
    <g>
     <path class="fil11" d="M168.18 218.8c-5.62,0 -9.61,-1.77 -11.25,-4.99 -3.5,-6.89 4.87,-17.92 19.06,-25.12 6.93,-3.52 14.32,-5.54 20.27,-5.54 5.62,0 9.62,1.77 11.25,4.99 1.73,3.4 0.61,7.92 -3.15,12.73 -3.6,4.61 -9.25,9.01 -15.9,12.38 -6.94,3.52 -14.33,5.54 -20.28,5.54z"/>
     <path class="fil8" d="M196.26 184.11c5.05,-0 8.88,1.48 10.4,4.47 3.21,6.32 -5.14,16.99 -18.64,23.84 -7.11,3.61 -14.23,5.44 -19.85,5.44 -5.05,0 -8.88,-1.48 -10.4,-4.47 -3.21,-6.32 5.14,-16.99 18.64,-23.84 7.11,-3.61 14.23,-5.44 19.85,-5.44zm0 -1.9l0 0c0,0 -0,0 -0,0 -6.18,0 -13.54,2 -20.71,5.64 -6.77,3.44 -12.53,7.93 -16.22,12.65 -4,5.12 -5.15,10 -3.25,13.75 1.8,3.55 6.1,5.51 12.09,5.51 6.18,0 13.54,-2 20.71,-5.64 6.77,-3.44 12.53,-7.93 16.22,-12.64 4,-5.12 5.16,-10 3.25,-13.75 -1.8,-3.55 -6.1,-5.51 -12.09,-5.51z"/>
    </g>
   </g>
   <g>
    <g>
     <g>
      <path class="fil12" d="M298.95 251.67c-20.58,3.79 -23.65,6.86 -27.43,27.43 -3.79,-20.58 -6.86,-23.65 -27.43,-27.43 20.58,-3.79 23.65,-6.86 27.43,-27.43 3.79,20.58 6.86,23.65 27.43,27.43z"/>
      <path class="fil13" d="M299.18 251.67c-0.77,0.2 -1.59,0.62 -2.61,0.97l-2.75 0.87c-1.72,0.51 -3.41,1.11 -5.07,1.71 -3.3,1.24 -6.38,2.8 -8.57,5.11 -2.11,2.38 -3.39,5.48 -4.35,8.8 -0.92,3.34 -1.66,6.82 -2.46,10.31l-2.26 9.85 -1.45 -9.85c-0.52,-3.54 -0.97,-7.09 -1.74,-10.53 -0.77,-3.42 -2.01,-6.76 -4.35,-9.3 -2.43,-2.45 -5.75,-3.89 -9.17,-4.81 -3.43,-0.94 -6.99,-1.44 -10.55,-1.91l-6.43 -0.86 6.43 -1.58c3.49,-0.85 6.96,-1.79 10.25,-2.92 3.28,-1.14 6.33,-2.59 8.48,-4.8 2.08,-2.27 3.35,-5.33 4.27,-8.63 0.91,-3.31 1.62,-6.8 2.29,-10.3l2.53 -13.29 2.22 13.29c0.59,3.52 1.26,7.01 2.12,10.35 0.89,3.33 2.11,6.44 4.19,8.84 2.15,2.34 5.24,3.93 8.54,5.18 1.65,0.61 3.34,1.21 5.07,1.72l2.75 0.84c1.02,0.33 1.84,0.74 2.63,0.94zm-0.45 0l0 0c-0.99,-0.14 -1.93,-0.07 -2.68,-0.08 -0.71,0 -1.65,-0.16 -2.55,-0.27 -1.81,-0.23 -3.62,-0.51 -5.42,-0.93 -3.57,-0.81 -7.33,-2.14 -10.39,-4.87 -1.41,-1.43 -2.75,-3.02 -3.62,-4.77 -0.96,-1.73 -1.63,-3.53 -2.24,-5.32 -1.19,-3.58 -1.91,-7.18 -2.67,-10.75l4.75 0c-0.68,3.58 -1.36,7.19 -2.51,10.8 -1.13,3.57 -2.79,7.35 -5.78,10.29 -3.06,2.86 -6.86,4.33 -10.45,5.25 -3.63,0.93 -7.25,1.39 -10.85,1.88l0 -2.44c3.53,0.87 7.06,1.77 10.55,2.88 3.46,1.14 6.97,2.62 9.76,5.24 2.73,2.67 4.41,6.17 5.7,9.62 1.28,3.48 2.23,7.02 3.05,10.57l-3.71 0c0.55,-3.6 1.2,-7.2 2.33,-10.79 0.58,-1.79 1.22,-3.59 2.15,-5.33 0.85,-1.76 2.16,-3.36 3.56,-4.8 3.03,-2.76 6.78,-4.13 10.35,-4.94 1.8,-0.43 3.62,-0.72 5.42,-0.95 0.91,-0.11 1.85,-0.26 2.55,-0.24 0.75,0.01 1.7,0.09 2.7,-0.05z"/>
     </g>
    </g>
    <g>
     <path class="fil14" d="M289.54 251.67c-13.51,2.49 -15.53,4.5 -18.02,18.02 -2.49,-13.51 -4.5,-15.53 -18.02,-18.02 13.51,-2.49 15.53,-4.5 18.02,-18.02 2.49,13.51 4.5,15.53 18.02,18.02z"/>
    </g>
   </g>
  </g>
 </g>
</svg>
