<?xml version="1.0" encoding="UTF-8"?>
<!DOCTYPE svg PUBLIC "-//W3C//DTD SVG 1.1//EN" "http://www.w3.org/Graphics/SVG/1.1/DTD/svg11.dtd">
<!-- Creator: CorelDRAW -->
<svg xmlns="http://www.w3.org/2000/svg" xml:space="preserve" width="109.106mm" height="18.4196mm" version="1.1" style="shape-rendering:geometricPrecision; text-rendering:geometricPrecision; image-rendering:optimizeQuality; fill-rule:evenodd; clip-rule:evenodd"
viewBox="0 0 1379.49 232.89"
 xmlns:xlink="http://www.w3.org/1999/xlink"
 xmlns:xodm="http://www.corel.com/coreldraw/odm/2003">
 <defs>
  <style type="text/css">
   <![CDATA[
    .str0 {stroke:#C7AB8D;stroke-width:2.23;stroke-miterlimit:10}
    .fil0 {fill:none;fill-rule:nonzero}
   ]]>
  </style>
 </defs>
 <g id="Layer_x0020_1">
  <metadata id="CorelCorpID_0Corel-Layer"/>
  <g id="_2805409121296">
   <line class="fil0 str0" x1="26.63" y1="5.41" x2="26.63" y2= "227.48" />
   <line class="fil0 str0" x1="74.46" y1="0" x2="74.46" y2= "232.89" />
   <line class="fil0 str0" x1="122.29" y1="0" x2="122.29" y2= "232.89" />
   <line class="fil0 str0" x1="170.13" y1="0" x2="170.13" y2= "232.89" />
   <line class="fil0 str0" x1="217.95" y1="0" x2="217.95" y2= "232.89" />
   <line class="fil0 str0" x1="265.79" y1="0" x2="265.79" y2= "232.89" />
   <line class="fil0 str0" x1="313.62" y1="0" x2="313.62" y2= "232.89" />
   <line class="fil0 str0" x1="361.45" y1="0" x2="361.45" y2= "232.89" />
   <line class="fil0 str0" x1="409.28" y1="0" x2="409.28" y2= "232.89" />
   <line class="fil0 str0" x1="457.11" y1="0" x2="457.11" y2= "232.89" />
   <line class="fil0 str0" x1="504.94" y1="0" x2="504.94" y2= "232.89" />
   <line class="fil0 str0" x1="552.77" y1="0" x2="552.77" y2= "232.89" />
   <line class="fil0 str0" x1="600.6" y1="0" x2="600.6" y2= "232.89" />
   <line class="fil0 str0" x1="648.43" y1="0" x2="648.43" y2= "232.89" />
   <line class="fil0 str0" x1="696.26" y1="0" x2="696.26" y2= "232.89" />
   <line class="fil0 str0" x1="744.09" y1="0" x2="744.09" y2= "232.89" />
   <line class="fil0 str0" x1="791.92" y1="0" x2="791.92" y2= "232.89" />
   <line class="fil0 str0" x1="839.75" y1="0" x2="839.75" y2= "232.89" />
   <line class="fil0 str0" x1="887.58" y1="0" x2="887.58" y2= "232.89" />
   <line class="fil0 str0" x1="935.41" y1="0" x2="935.41" y2= "232.89" />
   <line class="fil0 str0" x1="983.24" y1="0" x2="983.24" y2= "232.89" />
   <line class="fil0 str0" x1="1031.07" y1="0" x2="1031.07" y2= "232.89" />
   <line class="fil0 str0" x1="1078.9" y1="0" x2="1078.9" y2= "232.89" />
   <line class="fil0 str0" x1="1126.73" y1="0" x2="1126.73" y2= "232.89" />
   <line class="fil0 str0" x1="1174.57" y1="0" x2="1174.57" y2= "232.89" />
   <line class="fil0 str0" x1="1222.39" y1="0" x2="1222.39" y2= "232.89" />
   <line class="fil0 str0" x1="1270.23" y1="0" x2="1270.23" y2= "232.89" />
   <line class="fil0 str0" x1="1318.06" y1="0" x2="1318.06" y2= "232.89" />
   <line class="fil0 str0" x1="1365.89" y1="15.14" x2="1365.89" y2= "217.75" />
   <line class="fil0 str0" x1="7.26" y1="23.36" x2="1372.23" y2= "23.36" />
   <line class="fil0 str0" x1="-0" y1="66.63" x2="1379.49" y2= "66.63" />
   <line class="fil0 str0" x1="-0" y1="109.91" x2="1379.49" y2= "109.91" />
   <line class="fil0 str0" x1="-0" y1="153.19" x2="1379.49" y2= "153.19" />
   <line class="fil0 str0" x1="1.64" y1="196.46" x2="1377.85" y2= "196.46" />
  </g>
 </g>
</svg>
