<?xml version="1.0" encoding="UTF-8"?>
<!DOCTYPE svg PUBLIC "-//W3C//DTD SVG 1.1//EN" "http://www.w3.org/Graphics/SVG/1.1/DTD/svg11.dtd">
<!-- Creator: CorelDRAW -->
<svg xmlns="http://www.w3.org/2000/svg" xml:space="preserve" width="107.695mm" height="18.4194mm" version="1.1" style="shape-rendering:geometricPrecision; text-rendering:geometricPrecision; image-rendering:optimizeQuality; fill-rule:evenodd; clip-rule:evenodd"
viewBox="0 0 1586.51 271.35"
 xmlns:xlink="http://www.w3.org/1999/xlink"
 xmlns:xodm="http://www.corel.com/coreldraw/odm/2003">
 <defs>
  <style type="text/css">
   <![CDATA[
    .str0 {stroke:#FFF7FB;stroke-width:2.6;stroke-miterlimit:10}
    .fil0 {fill:none;fill-rule:nonzero}
   ]]>
  </style>
 </defs>
 <g id="Layer_x0020_1">
  <metadata id="CorelCorpID_0Corel-Layer"/>
  <g id="_2620874709952">
   <line class="fil0 str0" x1="11.17" y1="55.88" x2="11.17" y2= "271.19" />
   <line class="fil0 str0" x1="66.9" y1="6.34" x2="66.9" y2= "271.35" />
   <line class="fil0 str0" x1="122.63" y1="0" x2="122.63" y2= "271.35" />
   <line class="fil0 str0" x1="178.35" y1="0" x2="178.35" y2= "271.35" />
   <line class="fil0 str0" x1="234.08" y1="0" x2="234.08" y2= "271.35" />
   <line class="fil0 str0" x1="289.81" y1="0" x2="289.81" y2= "271.35" />
   <line class="fil0 str0" x1="345.54" y1="0" x2="345.54" y2= "271.35" />
   <line class="fil0 str0" x1="401.27" y1="0" x2="401.27" y2= "271.35" />
   <line class="fil0 str0" x1="457" y1="0" x2="457" y2= "271.35" />
   <line class="fil0 str0" x1="512.73" y1="0" x2="512.73" y2= "271.35" />
   <line class="fil0 str0" x1="568.46" y1="0" x2="568.46" y2= "271.35" />
   <line class="fil0 str0" x1="624.19" y1="0" x2="624.19" y2= "271.35" />
   <line class="fil0 str0" x1="679.92" y1="0" x2="679.92" y2= "271.35" />
   <line class="fil0 str0" x1="735.65" y1="0" x2="735.65" y2= "271.35" />
   <line class="fil0 str0" x1="791.37" y1="0" x2="791.37" y2= "271.35" />
   <line class="fil0 str0" x1="847.1" y1="0" x2="847.1" y2= "271.35" />
   <line class="fil0 str0" x1="902.83" y1="0" x2="902.83" y2= "271.35" />
   <line class="fil0 str0" x1="958.56" y1="0" x2="958.56" y2= "271.35" />
   <line class="fil0 str0" x1="1014.29" y1="0" x2="1014.29" y2= "271.35" />
   <line class="fil0 str0" x1="1070.02" y1="0" x2="1070.02" y2= "271.35" />
   <line class="fil0 str0" x1="1125.75" y1="0" x2="1125.75" y2= "271.35" />
   <line class="fil0 str0" x1="1181.48" y1="0" x2="1181.48" y2= "271.35" />
   <line class="fil0 str0" x1="1237.21" y1="0" x2="1237.21" y2= "271.35" />
   <line class="fil0 str0" x1="1292.94" y1="0" x2="1292.94" y2= "271.35" />
   <line class="fil0 str0" x1="1348.67" y1="0" x2="1348.67" y2= "271.35" />
   <line class="fil0 str0" x1="1404.4" y1="0" x2="1404.4" y2= "271.35" />
   <line class="fil0 str0" x1="1460.13" y1="0" x2="1460.13" y2= "271.35" />
   <line class="fil0 str0" x1="1515.85" y1="0" x2="1515.85" y2= "266.31" />
   <line class="fil0 str0" x1="1571.58" y1="0" x2="1571.58" y2= "222.18" />
   <line class="fil0 str0" x1="29.48" y1="30.54" x2="1586.51" y2= "30.54" />
   <line class="fil0 str0" x1="2.26" y1="80.96" x2="1586.51" y2= "80.96" />
   <line class="fil0 str0" x1="-0" y1="131.38" x2="1586.51" y2= "131.38" />
   <line class="fil0 str0" x1="-0" y1="181.8" x2="1585.7" y2= "181.8" />
   <line class="fil0 str0" x1="-0" y1="232.22" x2="1564.6" y2= "232.22" />
  </g>
 </g>
</svg>
