<?xml version="1.0" encoding="UTF-8"?>
<!DOCTYPE svg PUBLIC "-//W3C//DTD SVG 1.1//EN" "http://www.w3.org/Graphics/SVG/1.1/DTD/svg11.dtd">
<!-- Creator: CorelDRAW -->
<svg xmlns="http://www.w3.org/2000/svg" xml:space="preserve" width="10.5882mm" height="12.8222mm" version="1.1" style="shape-rendering:geometricPrecision; text-rendering:geometricPrecision; image-rendering:optimizeQuality; fill-rule:evenodd; clip-rule:evenodd"
viewBox="0 0 53.69 65.01"
 xmlns:xlink="http://www.w3.org/1999/xlink"
 xmlns:xodm="http://www.corel.com/coreldraw/odm/2003">
 <defs>
  <style type="text/css">
   <![CDATA[
    .fil1 {fill:#6E5948;fill-rule:nonzero}
    .fil5 {fill:#964919;fill-rule:nonzero}
    .fil6 {fill:#BE4625;fill-rule:nonzero}
    .fil11 {fill:#DEA26B;fill-rule:nonzero}
    .fil10 {fill:#FEE2C1;fill-rule:nonzero}
    .fil2 {fill:white;fill-rule:nonzero}
    .fil7 {fill:url(#id0)}
    .fil18 {fill:url(#id1)}
    .fil3 {fill:url(#id2)}
    .fil4 {fill:url(#id3)}
    .fil14 {fill:url(#id4)}
    .fil17 {fill:url(#id5)}
    .fil8 {fill:url(#id6)}
    .fil15 {fill:url(#id7)}
    .fil12 {fill:url(#id8)}
    .fil9 {fill:url(#id9)}
    .fil0 {fill:url(#id10)}
    .fil13 {fill:url(#id11)}
    .fil16 {fill:url(#id12)}
   ]]>
  </style>
  <radialGradient id="id0" gradientUnits="userSpaceOnUse" gradientTransform="matrix(1.22327 -1.41688 -1.23615 -1.40201 42 112)" cx="16.97" cy="36.78" r="6.11" fx="16.97" fy="36.78">
   <stop offset="0" style="stop-opacity:1; stop-color:#FFEE77"/>
   <stop offset="0.0784314" style="stop-opacity:1; stop-color:#FFEE77"/>
   <stop offset="0.529412" style="stop-opacity:1; stop-color:#F5D055"/>
   <stop offset="1" style="stop-opacity:1; stop-color:#EBB234"/>
   <stop offset="1" style="stop-opacity:1; stop-color:#EBB234"/>
  </radialGradient>
  <radialGradient id="id1" gradientUnits="userSpaceOnUse" gradientTransform="matrix(-0.530771 1.51742 1.51069 0.53316 51 -65)" xlink:href="#id0" cx="47.5" cy="14.25" r="6.57" fx="47.5" fy="14.25">
  </radialGradient>
  <radialGradient id="id2" gradientUnits="userSpaceOnUse" gradientTransform="matrix(-2.89336 5.41427 5.25405 2.98234 168 -254)" cx="46.06" cy="2.23" r="2.72" fx="46.06" fy="2.23">
   <stop offset="0" style="stop-opacity:1; stop-color:#F0E9E4"/>
   <stop offset="0.0784314" style="stop-opacity:1; stop-color:#F0E9E4"/>
   <stop offset="0.529412" style="stop-opacity:1; stop-color:#E0DBD5"/>
   <stop offset="1" style="stop-opacity:1; stop-color:#D1CEC7"/>
   <stop offset="1" style="stop-opacity:1; stop-color:#D1CEC7"/>
  </radialGradient>
  <radialGradient id="id3" gradientUnits="userSpaceOnUse" gradientTransform="matrix(-0.693522 2.10054 1.97387 0.738028 4 -16)" xlink:href="#id0" cx="8.02" cy="4.95" r="5.47" fx="8.02" fy="4.95">
  </radialGradient>
  <radialGradient id="id4" gradientUnits="userSpaceOnUse" gradientTransform="matrix(0.184598 -2.15721 -2.10479 -0.189196 144 108)" xlink:href="#id0" cx="15.62" cy="62.23" r="7.93" fx="15.62" fy="62.23">
  </radialGradient>
  <radialGradient id="id5" gradientUnits="userSpaceOnUse" gradientTransform="matrix(3.31954 10.7826 10.4464 -3.42613 44 -528)" cx="43.28" cy="-13.87" r="3.04" fx="43.28" fy="-13.87">
   <stop offset="0" style="stop-opacity:1; stop-color:#FFFDFF"/>
   <stop offset="0.0784314" style="stop-opacity:1; stop-color:#FFFDFF"/>
   <stop offset="0.337255" style="stop-opacity:1; stop-color:#FEFEFB"/>
   <stop offset="1" style="stop-opacity:1; stop-color:#FEFEF8"/>
   <stop offset="1" style="stop-opacity:1; stop-color:#FEFEF8"/>
  </radialGradient>
  <radialGradient id="id6" gradientUnits="userSpaceOnUse" gradientTransform="matrix(-2.05919 -0.381779 -0.37081 2.12014 117 -1)" xlink:href="#id0" cx="36.64" cy="13.79" r="7.98" fx="36.64" fy="13.79">
  </radialGradient>
  <radialGradient id="id7" gradientUnits="userSpaceOnUse" gradientTransform="matrix(3.36231 10.8396 10.5814 -3.44437 322 -358)" xlink:href="#id5" cx="18.84" cy="-34.68" r="3.02" fx="18.84" fy="-34.68">
  </radialGradient>
  <radialGradient id="id8" gradientUnits="userSpaceOnUse" gradientTransform="matrix(-0.839141 8.55365 8.32067 0.862576 -582 297)" xlink:href="#id5" cx="-33.72" cy="62.51" r="4" fx="-33.72" fy="62.51">
  </radialGradient>
  <radialGradient id="id9" gradientUnits="userSpaceOnUse" gradientTransform="matrix(-0.541157 5.63258 5.36595 0.568006 158 -446)" xlink:href="#id5" cx="78.75" cy="-6.77" r="6.08" fx="78.75" fy="-6.77">
  </radialGradient>
  <radialGradient id="id10" gradientUnits="userSpaceOnUse" gradientTransform="matrix(-1.15934 2.10666 2.1049 1.16023 97 -99)" xlink:href="#id2" cx="46.7" cy="1.67" r="7.91" fx="46.7" fy="1.67">
  </radialGradient>
  <radialGradient id="id11" gradientUnits="userSpaceOnUse" gradientTransform="matrix(-0.472143 4.71134 4.68195 0.47514 5 -446)" xlink:href="#id5" cx="97.88" cy="29.72" r="7.26" fx="97.88" fy="29.72">
  </radialGradient>
  <radialGradient id="id12" gradientUnits="userSpaceOnUse" gradientTransform="matrix(1.86491 6.28274 5.86895 -1.99639 -221 -451)" xlink:href="#id5" cx="83.87" cy="25.32" r="5.22" fx="83.87" fy="25.32">
  </radialGradient>
 </defs>
 <g id="Layer_x0020_1">
  <metadata id="CorelCorpID_0Corel-Layer"/>
  <g id="_2805403899120">
   <path class="fil0" d="M42.96 14.09l0.01 0 0.01 0 0.01 0 0.01 0 0.01 0 0.01 0 0.01 0 0.01 0c0.14,0 0.28,-0.01 0.42,-0.01 2.9,-0.13 4.95,-1.06 6.11,-2.75 1.28,-1.86 0.97,-3.94 0.83,-4.38 -0.18,-0.6 0.59,-1.14 0.76,-1.27 0.09,-0.08 0.15,-0.11 0.16,-0.11 0.08,-0.04 0.14,-0.12 0.15,-0.21 0.02,-0.09 -0.01,-0.18 -0.07,-0.24l-1.11 -1.09c-0.01,-0.03 -0.5,-3.43 -4.71,-3.73 -0.13,-0.01 -0.26,-0.02 -0.39,-0.02 -3.42,0 -4.75,3.63 -5.19,4.82 -0.06,0.17 -0.11,0.3 -0.13,0.34 -0.02,0.02 -0.15,0.07 -0.43,0.07 -0.76,0 -2.17,-0.39 -2.95,-1.26 -0.06,-0.06 -0.13,-0.08 -0.2,-0.08 -0.03,0 -0.06,0.01 -0.09,0.01 -0.1,0.03 -0.18,0.12 -0.2,0.23 0,0 -0.02,0.13 -0.04,0.34 -0.04,0.28 -0.08,0.89 0.2,1.58l-0.16 -0.04c-0.02,-0.01 -0.05,-0.01 -0.07,-0.01 -0.06,0 -0.13,0.02 -0.18,0.06 -0.07,0.06 -0.11,0.14 -0.11,0.23 0,0.08 0.27,7.53 7.33,7.53z"/>
   <path class="fil1" d="M45.16 0l0 0c-3.62,0 -5,3.77 -5.46,5 -0.03,0.08 -0.05,0.15 -0.08,0.21 -0.04,0.01 -0.11,0.01 -0.21,0.01 -0.8,0 -2.07,-0.42 -2.63,-1.03 -0.05,-0.06 -0.08,-0.1 -0.13,-0.15 -0.11,-0.11 -0.25,-0.17 -0.4,-0.17 -0.06,0 -0.12,0.01 -0.18,0.03 -0.2,0.07 -0.35,0.24 -0.39,0.45 0,0 -0.02,0.14 -0.05,0.37 -0.03,0.23 -0.07,0.71 0.08,1.28 -0.06,0.02 -0.13,0.05 -0.18,0.1 -0.14,0.11 -0.22,0.28 -0.22,0.46 0,0.08 0.28,7.81 7.62,7.81 0.16,0 0.32,-0 0.49,-0.01 2.99,-0.14 5.12,-1.1 6.34,-2.87 1.22,-1.78 1.11,-3.9 0.86,-4.64 -0.09,-0.32 0.35,-0.72 0.63,-0.91 0.1,-0.08 0.14,-0.11 0.16,-0.12 0.15,-0.09 0.26,-0.24 0.29,-0.42 0.03,-0.17 -0.02,-0.36 -0.15,-0.48l-1.08 -1.13c-0.18,-0.77 -1.1,-3.5 -4.93,-3.78 -0.14,-0.01 -0.28,-0.02 -0.41,-0.02zm0 0.57c0.12,0 0.24,0.01 0.37,0.02 4.03,0.29 4.45,3.48 4.45,3.48l1.19 1.25c0,0 -0.08,0.04 -0.21,0.15 -0.38,0.25 -1.06,0.86 -0.86,1.57 0.31,0.94 0.67,6.43 -6.68,6.76 -0.16,0.01 -0.31,0.01 -0.46,0.01 -6.87,0 -7.05,-7.25 -7.05,-7.25l0.79 0.21c-0.52,-0.75 -0.54,-1.55 -0.48,-1.98 0.02,-0.21 0.04,-0.33 0.04,-0.33 0.04,0.04 0.06,0.08 0.1,0.13 0.72,0.79 2.18,1.22 3.05,1.22 0.34,0 0.59,-0.07 0.66,-0.2 0.26,-0.46 1.35,-5.02 5.08,-5.02z"/>
   <g>
    <image x="34.92" y="4.45" width="17.95" height="9.39" xlink:href="leaftopleft_Images\leaftopleft_ImgID1.png"/>
   </g>
   <path class="fil2" d="M51.16 5.32c0,0 -0.08,0.04 -0.21,0.15 -0.46,-0.42 -1.13,-1.04 -1.19,-1.21 -0.1,-0.25 -0.14,-0.52 -0.31,-0.92 -0.17,-0.4 -1.54,-2.75 -4.76,-2.38 -3.23,0.35 -3.94,4.59 -4.44,4.88 -0.5,0.31 -1.27,0.35 -2.55,-0.11 -0.9,-0.33 -1.31,-0.75 -1.48,-0.96 0.02,-0.21 0.04,-0.33 0.04,-0.33 0.04,0.04 0.06,0.08 0.1,0.13 1,1.11 3.44,1.5 3.72,1.02 0.27,-0.48 1.42,-5.32 5.45,-5.01 4.03,0.29 4.44,3.48 4.44,3.48l1.19 1.25z"/>
   <path class="fil2" d="M46.3 1.22c0,0.27 -0.42,0.49 -0.93,0.49 -0.51,0 -0.93,-0.22 -0.93,-0.49 0,-0.27 0.41,-0.49 0.93,-0.49 0.51,0 0.93,0.22 0.93,0.49z"/>
   <path class="fil2" d="M47.07 1.9c0,0.17 -0.21,0.31 -0.48,0.31 -0.26,0 -0.48,-0.14 -0.48,-0.31 0,-0.17 0.21,-0.31 0.48,-0.31 0.26,0 0.48,0.14 0.48,0.31z"/>
   <path class="fil3" d="M39.51 7.93c0,0 -0.28,1.99 1.02,2.48 1.3,0.49 2.07,-0.49 2.07,-0.49 0,0 1.75,0.89 2.23,-0.16 0.49,-1.05 -1.22,-3.25 -1.22,-3.25l-4.11 1.42z"/>
   <path class="fil1" d="M43.64 6.49c0.39,0.34 0.73,0.74 0.99,1.19 0.26,0.45 0.51,0.94 0.5,1.52 0.03,0.6 -0.5,1.16 -1.06,1.15 -0.54,0.04 -1.05,-0.07 -1.57,-0.25l0.26 -0.06c-0.57,0.81 -1.82,1.04 -2.66,0.46 -0.46,-0.29 -0.65,-0.81 -0.73,-1.25 -0.06,-0.46 -0.02,-0.91 0.11,-1.34 0.01,-0.01 0.02,-0.02 0.04,-0.02 0.01,0 0.02,0.01 0.02,0.03 0.03,0.43 0.11,0.85 0.25,1.23 0.12,0.38 0.35,0.68 0.63,0.86 0.28,0.17 0.69,0.24 1.03,0.22 0.35,-0.03 0.72,-0.21 0.99,-0.45l0.04 -0.04c0.06,-0.06 0.15,-0.06 0.22,-0.02 0.4,0.25 0.88,0.47 1.36,0.44 0.52,-0.02 0.77,-0.52 0.65,-0.95 -0.19,-0.88 -0.68,-1.78 -1.11,-2.7 -0.01,-0.02 -0,-0.03 0.01,-0.04 0.01,-0.01 0.02,-0 0.03,0z"/>
   <path class="fil1" d="M46.62 4.68c0,0.74 -0.26,1.34 -0.59,1.34 -0.32,0 -0.59,-0.6 -0.59,-1.34 0,-0.74 0.26,-1.34 0.59,-1.34 0.33,0 0.59,0.6 0.59,1.34z"/>
   <path class="fil4" d="M4.86 6.61c-0.76,2.19 0.09,5.13 1.34,6.34 -0.03,0.11 -0.06,0.26 -0.09,0.44 -0.17,1.01 -0.28,2.92 0.89,4.31 0.89,1.06 2.35,1.6 4.32,1.6 0.22,0 0.45,-0.01 0.69,-0.02 7.25,-0.42 8.06,-2.04 8.16,-2.42 0.01,-0.05 0.56,-4.99 -3.42,-6.11 -0.22,-0.58 -0.9,-2.22 -2.16,-3.74 -1.62,-1.97 -3.55,-2.98 -5.76,-2.99 -1.98,0 -3.38,0.92 -3.97,2.58z"/>
   <path class="fil5" d="M8.83 3.62c-2.16,0 -3.71,1.01 -4.35,2.86 -0.79,2.27 0.01,5.2 1.28,6.6 -0.02,0.08 -0.03,0.17 -0.05,0.26 -0.18,1.07 -0.3,3.11 0.98,4.63 0.98,1.16 2.53,1.74 4.63,1.74 0.23,0 0.47,-0.01 0.72,-0.02 7.14,-0.41 8.34,-1.99 8.52,-2.66 0.01,-0.04 0.02,-0.08 0.02,-0.12 0.22,-1.83 -0.25,-5.44 -3.52,-6.49 -0.29,-0.72 -0.97,-2.25 -2.15,-3.67 -1.68,-2.04 -3.76,-3.12 -6.03,-3.14l-0.04 0zm0 0.81l0.04 0c2.42,0.02 4.19,1.36 5.41,2.84 1.5,1.8 2.16,3.82 2.16,3.82 3.92,0.92 3.33,5.72 3.33,5.72 0,0 -0.46,1.64 -7.78,2.06 -0.23,0.01 -0.45,0.02 -0.67,0.02 -5.21,0 -5.07,-3.87 -4.81,-5.43 0.06,-0.41 0.15,-0.65 0.15,-0.65 -2.01,-1.59 -3.15,-8.39 2.17,-8.39z"/>
   <g>
    <image x="6.41" y="5.49" width="14.78" height="13.57" xlink:href="leaftopleft_Images\leaftopleft_ImgID2.png"/>
   </g>
   <path class="fil6" d="M16.43 17.27c-0.91,-0.58 -1.65,-1.26 -2.38,-1.98 -0.72,-0.72 -1.37,-1.5 -1.98,-2.31 -1.19,-1.63 -2.18,-3.4 -2.97,-5.24 0.91,1.79 2.01,3.47 3.29,4.99 0.65,0.75 1.34,1.47 2.07,2.12 0.73,0.64 1.54,1.26 2.35,1.71l0.02 0.01c0.2,0.11 0.27,0.36 0.16,0.55 -0.11,0.2 -0.35,0.27 -0.55,0.16 -0.01,-0 -0.02,-0.01 -0.02,-0.01z"/>
   <path class="fil7" d="M17.14 37.66l0.03 0c1.33,0 2.52,-0.73 3.34,-2.05 1.01,-1.63 1.35,-3.97 0.8,-5.4 0.07,-0.09 0.17,-0.21 0.27,-0.36 0.61,-0.86 1.54,-2.58 1.01,-4.38 -0.43,-1.45 -1.71,-2.61 -3.82,-3.47 -2.95,-1.19 -5.22,-1.8 -6.77,-1.8 -1.13,0 -1.51,0.34 -1.64,0.49 -0.03,0.04 -2.64,4.27 0.48,6.99 -0.05,0.61 -0.14,2.39 0.35,4.3 0.62,2.48 1.93,4.21 3.89,5.15 0.71,0.34 1.41,0.52 2.06,0.53z"/>
   <path class="fil5" d="M12 19.79l0 0c-1.23,0 -1.72,0.36 -1.91,0.58 -0.03,0.03 -0.05,0.06 -0.07,0.1 -0.99,1.56 -2.1,5.02 0.4,7.37 -0.05,0.77 -0.08,2.45 0.38,4.23 0.65,2.56 2.07,4.43 4.11,5.42 0.78,0.38 1.54,0.57 2.27,0.57 1.48,0 2.78,-0.8 3.68,-2.24 1.04,-1.67 1.4,-3.98 0.92,-5.54 0.05,-0.06 0.1,-0.13 0.15,-0.21 0.64,-0.92 1.64,-2.76 1.06,-4.72 -0.47,-1.57 -1.83,-2.83 -4.06,-3.73 -2.99,-1.21 -5.32,-1.83 -6.92,-1.83zm0 0.81c1.11,0 3.11,0.34 6.62,1.77 5.46,2.21 3.58,5.88 2.63,7.23 -0.23,0.34 -0.41,0.53 -0.41,0.53 0.97,1.97 -0.27,7.12 -3.67,7.12 -0.58,0 -1.22,-0.15 -1.92,-0.48 -2.18,-1.05 -3.2,-3.03 -3.67,-4.89 -0.58,-2.27 -0.32,-4.38 -0.32,-4.38 -3.14,-2.51 -0.56,-6.59 -0.56,-6.59 0,0 0.26,-0.3 1.3,-0.3z"/>
   <g>
    <image x="9.58" y="19.06" width="14.78" height="13.57" xlink:href="leaftopleft_Images\leaftopleft_ImgID3.png"/>
   </g>
   <path class="fil6" d="M13.91 21.93c0.57,0.92 0.96,1.84 1.3,2.81 0.34,0.96 0.59,1.94 0.8,2.93 0.38,1.99 0.52,4.01 0.44,6.01 -0.06,-2 -0.33,-4 -0.84,-5.92 -0.26,-0.96 -0.58,-1.9 -0.97,-2.81 -0.39,-0.9 -0.85,-1.8 -1.39,-2.55l-0.02 -0.02c-0.13,-0.18 -0.09,-0.44 0.09,-0.57 0.18,-0.13 0.44,-0.09 0.57,0.09 0.01,0.01 0.01,0.02 0.01,0.02z"/>
   <path class="fil8" d="M32.86 7.29l-0.01 0 -0.01 0 -0.01 0 -0.01 0 -0.01 0 -0.01 0c-0.2,0 -0.41,0.01 -0.67,0.04 -6.58,0.65 -8.56,5.44 -8.66,5.71 -0.27,1.28 0.3,3.24 1.38,4.76 1.1,1.54 2.6,2.49 4.24,2.7 0.34,0.05 0.66,0.06 0.96,0.06 1.31,0 2.37,-0.38 3.15,-1.13 0.4,-0.39 0.62,-0.79 0.73,-1.03 3.68,-0.86 5.69,-3 5.39,-5.76 -0.27,-2.57 -2.83,-5.35 -6.46,-5.35z"/>
   <path class="fil5" d="M32.86 6.88l0 0c-0.23,0 -0.47,0.01 -0.71,0.03 -0.02,0 -0.1,0.01 -0.12,0.02 -6.78,0.67 -8.84,5.68 -8.93,5.89 -0.02,0.04 -0.03,0.09 -0.04,0.13 -0.3,1.41 0.28,3.45 1.44,5.08 1.16,1.63 2.77,2.65 4.52,2.87 0.35,0.04 0.68,0.07 1.01,0.07 1.42,0 2.57,-0.42 3.43,-1.24 0.36,-0.35 0.59,-0.7 0.73,-0.98 4.43,-1.11 5.76,-3.88 5.52,-6.16 -0.34,-3.15 -3.42,-5.71 -6.87,-5.71zm0 0.81c6.08,0 9.6,8.44 0.77,10.36 0,0 -0.16,0.55 -0.71,1.09 -0.54,0.52 -1.42,1.01 -2.87,1.01 -0.28,0 -0.58,-0.02 -0.91,-0.06 -3.76,-0.46 -5.7,-4.94 -5.27,-6.97 0,0 1.89,-4.75 8.3,-5.39l0.06 -0.01c0.21,-0.02 0.42,-0.03 0.63,-0.03z"/>
   <g>
    <image x="23.31" y="6.54" width="11.62" height="14.61" xlink:href="leaftopleft_Images\leaftopleft_ImgID4.png"/>
   </g>
   <path class="fil6" d="M26.27 14.08c2.92,-0.84 5.94,-1.28 8.92,-1.01 -2.98,0 -5.93,0.72 -8.64,1.77l-0.02 0.01c-0.21,0.08 -0.45,-0.02 -0.53,-0.23 -0.08,-0.21 0.02,-0.45 0.23,-0.53 0.01,-0.01 0.02,-0.01 0.04,-0.01z"/>
   <path class="fil9" d="M12.17 13.39c-2.46,1.42 -2.47,3.37 -2.2,4.52 -0.26,-0.07 -0.54,-0.1 -0.83,-0.1 -1.37,0 -2.74,0.76 -3.42,1.89 -0.66,1.1 -0.62,2.45 0.1,3.8 0.98,1.83 2.33,2.22 3.29,2.22 1.02,0 1.95,-0.42 2.5,-0.74 0.5,2.04 2.06,2.78 3.44,2.78 1.57,0 3.42,-1 3.93,-2.92 0.64,-2.4 -1,-3.84 -2.37,-4.46 1.25,-1.12 1.71,-2.64 1.24,-4.2 -0.56,-1.85 -2.29,-3.24 -4.02,-3.24 -0.58,0 -1.14,0.15 -1.65,0.45z"/>
   <path class="fil5" d="M13.82 12.54c-0.65,0 -1.28,0.17 -1.86,0.5 -2.18,1.26 -2.65,2.99 -2.51,4.38 -0.1,-0.01 -0.21,-0.01 -0.32,-0.01 -1.51,0 -3.02,0.84 -3.77,2.09 -0.73,1.23 -0.7,2.72 0.09,4.2 1.08,2.01 2.58,2.43 3.64,2.43 0.86,0 1.66,-0.28 2.26,-0.56 0.59,1.61 1.94,2.6 3.68,2.6 2.01,0 3.82,-1.35 4.32,-3.22 0.63,-2.36 -0.72,-3.88 -2.08,-4.67 1.06,-1.18 1.42,-2.68 0.95,-4.21 -0.61,-2.01 -2.51,-3.53 -4.41,-3.53zm0 0.81c2.99,0 5.74,4.63 1.96,7.16 0,0 3.66,1.03 2.8,4.23 -0.44,1.63 -2.02,2.62 -3.54,2.62 -1.47,0 -2.88,-0.92 -3.15,-3.05 0,0 -1.3,1 -2.79,1 -1.01,0 -2.1,-0.46 -2.93,-2 -1.62,-3.01 0.84,-5.09 2.96,-5.09 0.57,0 1.1,0.15 1.53,0.47 0,0 -1.68,-2.99 1.7,-4.94 0.47,-0.27 0.97,-0.39 1.45,-0.39z"/>
   <path class="fil10" d="M13.22 20.55c0,0 3.21,-1.21 2.26,-4.03 -0.96,-2.82 -3.63,-0.86 -3.72,0.91 -0.09,1.76 0.5,2.58 0.5,2.58 0,0 -2.75,-0.59 -3.34,0.82 -0.59,1.4 1.5,2.33 2.54,1.9 1.04,-0.43 1.12,-0.62 1.12,-0.62 0,0 -0.05,3 2.26,2.86 2.3,-0.14 2.45,-1.5 1.66,-2.71 -0.8,-1.21 -3.27,-1.71 -3.27,-1.71z"/>
   <path class="fil11" d="M11.12 21.78c-0.63,0.09 -1.16,-0.05 -1.2,-0.3 -0.03,-0.25 0.45,-0.53 1.07,-0.61 0.63,-0.09 1.17,0.05 1.2,0.3 0.04,0.25 -0.45,0.53 -1.07,0.62z"/>
   <path class="fil11" d="M14.22 22.48c0.4,0.49 0.57,1.02 0.38,1.18 -0.2,0.16 -0.68,-0.1 -1.09,-0.59 -0.4,-0.49 -0.57,-1.02 -0.38,-1.18 0.2,-0.16 0.68,0.1 1.09,0.59z"/>
   <path class="fil11" d="M12.68 18.85c0.09,-0.63 0.36,-1.11 0.61,-1.07 0.25,0.03 0.39,0.57 0.3,1.2 -0.09,0.63 -0.36,1.11 -0.61,1.07 -0.25,-0.04 -0.39,-0.57 -0.3,-1.2z"/>
   <path class="fil12" d="M20.32 8.53c-0.73,-1.08 -1.75,-1.66 -2.93,-1.66 -1.05,0 -2.14,0.5 -2.9,1.34 -0.77,0.84 -1.14,1.89 -1.04,2.97 0.2,2.29 1.99,3.23 3.76,3.37 -0.68,1.25 -0.73,2.56 -0.12,3.75 0.75,1.48 2.42,2.51 4.06,2.51 1.04,0 1.97,-0.43 2.62,-1.2 1.82,-2.17 1.17,-4.01 0.52,-5 1.35,-0.13 2.7,-1.18 3.21,-2.54 0.55,-1.44 0.1,-2.95 -1.23,-4.13 -0.87,-0.77 -1.77,-1.17 -2.69,-1.17 -1.54,0 -2.69,1.09 -3.25,1.76z"/>
   <path class="fil5" d="M23.57 6.37l0 0c-1.42,0 -2.54,0.84 -3.22,1.53 -0.78,-0.92 -1.81,-1.44 -2.95,-1.44 -1.18,0 -2.35,0.54 -3.2,1.47 -0.85,0.92 -1.25,2.09 -1.15,3.28 0.2,2.29 1.82,3.36 3.55,3.67 -0.5,1.21 -0.46,2.45 0.12,3.6 0.82,1.61 2.63,2.73 4.43,2.73 1.16,0 2.21,-0.48 2.93,-1.35 1.61,-1.93 1.47,-3.72 0.86,-4.97 1.28,-0.35 2.43,-1.37 2.94,-2.69 0.61,-1.61 0.12,-3.27 -1.34,-4.58 -0.94,-0.84 -1.94,-1.27 -2.96,-1.27zm0 0.81c0.73,0 1.55,0.28 2.42,1.06 2.96,2.64 0.34,5.98 -2,5.98 -0.22,0 -0.43,-0.03 -0.64,-0.09 0,0 2.6,2.23 0.1,5.22 -0.62,0.73 -1.45,1.05 -2.31,1.05 -2.65,0 -5.57,-3.01 -3.21,-6.24 0,0 -0.09,0.01 -0.23,0.01 -0.83,0 -3.6,-0.21 -3.85,-3.02 -0.19,-2.11 1.66,-3.87 3.54,-3.87 1.07,0 2.16,0.58 2.89,1.99 0,0 1.32,-2.08 3.29,-2.08z"/>
   <path class="fil10" d="M20.32 13.25c0,0 -2.6,2.24 -0.74,4.56 1.87,2.32 3.71,-0.44 3.19,-2.13 -0.52,-1.69 -1.35,-2.26 -1.35,-2.26 0,0 2.78,-0.39 2.85,-1.91 0.08,-1.52 -2.21,-1.68 -3.04,-0.91 -0.83,0.76 -0.84,0.96 -0.84,0.96 0,0 -0.98,-2.84 -3.1,-1.91 -2.12,0.92 -1.79,2.25 -0.63,3.11 1.16,0.86 3.65,0.48 3.65,0.48z"/>
   <path class="fil11" d="M21.87 11.37c0.56,-0.3 1.11,-0.36 1.23,-0.13 0.12,0.22 -0.24,0.65 -0.8,0.94 -0.56,0.3 -1.11,0.36 -1.23,0.13 -0.12,-0.22 0.24,-0.65 0.8,-0.94z"/>
   <path class="fil11" d="M18.71 11.78c-0.55,-0.32 -0.89,-0.76 -0.76,-0.98 0.13,-0.22 0.68,-0.14 1.22,0.18 0.55,0.32 0.89,0.76 0.76,0.98 -0.13,0.22 -0.68,0.14 -1.22,-0.18z"/>
   <path class="fil11" d="M21.4 14.66c0.13,0.62 0.04,1.16 -0.21,1.22 -0.25,0.05 -0.56,-0.4 -0.69,-1.02 -0.13,-0.62 -0.04,-1.16 0.21,-1.22 0.25,-0.05 0.56,0.4 0.69,1.03z"/>
   <path class="fil13" d="M27.09 14.76l-0.01 0c-2.84,0.11 -3.76,1.83 -4.06,2.97 -0.65,-0.59 -1.59,-0.94 -2.6,-0.94 -1.03,0 -1.97,0.37 -2.63,1.03 -0.7,0.7 -1.06,1.71 -1.05,2.91 0.02,3.62 2.95,4.02 4.2,4.02 0.08,0 0.15,-0 0.22,-0.01 -0.27,1.1 -0.11,2.12 0.45,2.95 0.68,0.99 1.92,1.6 3.24,1.6 1.13,0 2.15,-0.43 2.88,-1.22 1.69,-1.82 0.91,-3.85 -0,-5.05 2.43,-0.58 3.22,-2.59 3.13,-4.26 -0.1,-1.94 -1.41,-4 -3.78,-4z"/>
   <path class="fil5" d="M27.21 14.35l-0.15 0c-2.51,0.09 -3.74,1.4 -4.27,2.69 -0.66,-0.42 -1.49,-0.67 -2.38,-0.67 -1.14,0 -2.18,0.41 -2.92,1.16 -0.77,0.78 -1.18,1.88 -1.17,3.19 0.02,2.68 1.64,4.31 4.34,4.41 -0.14,1.02 0.06,1.98 0.61,2.77 0.76,1.09 2.13,1.77 3.58,1.77 1.24,0 2.37,-0.48 3.17,-1.35 1.67,-1.79 1.18,-3.76 0.35,-5.1 2.11,-0.77 2.98,-2.69 2.89,-4.5 -0.11,-2.13 -1.57,-4.39 -4.06,-4.39zm0 0.81c3.81,0 4.95,7.04 -0.27,7.58 0,0 2.76,2.62 0.5,5.05 -0.69,0.75 -1.64,1.09 -2.58,1.09 -2.13,0 -4.2,-1.76 -3.13,-4.59 0,0 -0.32,0.05 -0.79,0.05 -1.31,0 -3.77,-0.42 -3.8,-3.61 -0.02,-2.49 1.65,-3.53 3.28,-3.53 1.21,-0 2.39,0.57 2.86,1.54 0,0 -0.09,-3.43 3.81,-3.57 0.04,0 0.08,-0 0.12,-0z"/>
   <path class="fil10" d="M24.67 21.58c0,0 3.41,0.43 3.88,-2.51 0.47,-2.94 -2.81,-2.46 -3.72,-0.94 -0.9,1.52 -0.77,2.51 -0.77,2.51 0,0 -2.15,-1.8 -3.33,-0.84 -1.18,0.96 0.24,2.77 1.36,2.87 1.12,0.1 1.28,-0.02 1.28,-0.02 0,0 -1.45,2.63 0.66,3.58 2.1,0.95 2.87,-0.18 2.73,-1.62 -0.14,-1.44 -2.09,-3.04 -2.09,-3.04z"/>
   <path class="fil11" d="M22.24 21.68c-0.6,-0.22 -1.01,-0.59 -0.92,-0.82 0.09,-0.24 0.64,-0.26 1.24,-0.04 0.6,0.22 1.01,0.58 0.92,0.82 -0.09,0.24 -0.64,0.26 -1.24,0.04z"/>
   <path class="fil11" d="M24.65 23.76c0.13,0.62 0.03,1.16 -0.22,1.22 -0.25,0.05 -0.55,-0.41 -0.68,-1.03 -0.13,-0.62 -0.03,-1.16 0.22,-1.22 0.25,-0.05 0.55,0.41 0.68,1.03z"/>
   <path class="fil11" d="M24.99 19.82c0.37,-0.52 0.84,-0.81 1.04,-0.66 0.21,0.15 0.08,0.68 -0.3,1.2 -0.37,0.51 -0.84,0.81 -1.04,0.66 -0.21,-0.15 -0.07,-0.68 0.3,-1.2z"/>
   <path class="fil14" d="M8.33 55.03c-0.08,2.2 0.74,3.39 1.43,4 0.42,0.37 0.84,0.55 1.09,0.64 1.04,3.14 2.98,4.94 5.33,4.94 1.52,0 3.02,-0.76 4.13,-2.1 1.28,-1.54 1.8,-3.57 1.41,-5.64 -1.25,-6.5 -6.19,-8.03 -6.47,-8.1 -0.11,-0.01 -0.23,-0.02 -0.36,-0.02 -2.24,0 -6.43,2.39 -6.56,6.29z"/>
   <path class="fil5" d="M14.89 48.33l0 0c-2.69,0 -6.84,2.66 -6.97,6.68 -0.08,2.36 0.81,3.65 1.57,4.32 0.38,0.33 0.75,0.53 1.04,0.64 1.58,4.53 4.46,5.04 5.65,5.04 1.64,0 3.26,-0.82 4.44,-2.24 1.36,-1.64 1.91,-3.79 1.51,-5.92 -0,-0.02 -0.02,-0.1 -0.03,-0.11 -1.29,-6.69 -6.45,-8.29 -6.67,-8.36 -0.04,-0.01 -0.09,-0.02 -0.13,-0.03 -0.13,-0.02 -0.27,-0.02 -0.41,-0.02zm0 0.81c0.11,0 0.21,0.01 0.31,0.02 0,0 4.9,1.45 6.12,7.78l0.02 0.06c0.72,3.87 -2.16,7.19 -5.15,7.19 -1.93,0 -3.91,-1.38 -5,-4.87 0,0 -0.57,-0.11 -1.15,-0.61 -0.67,-0.58 -1.36,-1.66 -1.29,-3.68 0.11,-3.61 4,-5.9 6.15,-5.9z"/>
   <g>
    <image x="8.52" y="47.24" width="14.78" height="11.48" xlink:href="leaftopleft_Images\leaftopleft_ImgID5.png"/>
   </g>
   <path class="fil6" d="M14.46 51.64c1.1,2.83 1.81,5.8 1.81,8.8 -0.27,-2.97 -1.25,-5.84 -2.55,-8.45l-0.01 -0.02c-0.1,-0.2 -0.02,-0.45 0.19,-0.55 0.2,-0.1 0.45,-0.02 0.55,0.18 0.01,0.01 0.01,0.02 0.01,0.03z"/>
   <path class="fil15" d="M0.41 35.73c-0.05,2.84 1.62,3.85 2.75,4.21 -0.83,0.82 -1.26,2.16 -1.03,3.47 0.31,1.76 1.68,2.87 3.68,2.96l0.3 0.01c1.24,0 2.22,-0.39 2.91,-1.16 0.86,-0.96 1.02,-2.28 1.04,-3.05 0.42,0.13 0.82,0.19 1.22,0.19 1.41,0 2.61,-0.82 3.19,-2.2 0.65,-1.53 0.36,-3.24 -0.73,-4.37 -0.73,-0.75 -1.57,-1.13 -2.5,-1.13 -1.05,0 -1.97,0.48 -2.54,0.87 -0.44,-2.47 -2.42,-3.37 -4.09,-3.37 -2.03,0 -4.15,1.33 -4.19,3.57z"/>
   <path class="fil5" d="M4.6 31.76l0 0c-2.23,0 -4.56,1.48 -4.6,3.97 -0.04,2.52 1.2,3.82 2.47,4.41 -0.65,0.91 -0.95,2.15 -0.74,3.35 0.34,1.96 1.86,3.19 4.06,3.3 0.11,0.01 0.21,0.01 0.31,0.01 1.37,0 2.45,-0.43 3.21,-1.29 0.77,-0.86 1.03,-1.97 1.11,-2.81 0.28,0.06 0.57,0.08 0.84,0.08 1.58,0 2.92,-0.92 3.57,-2.45 0.71,-1.68 0.39,-3.56 -0.81,-4.81 -0.81,-0.83 -1.74,-1.26 -2.79,-1.26 -0.88,0 -1.67,0.31 -2.28,0.64 -0.65,-2.16 -2.53,-3.14 -4.36,-3.14zm0 0.81c1.82,-0 3.64,1.12 3.77,3.73 0,0 1.3,-1.23 2.86,-1.23 0.71,0 1.48,0.26 2.21,1 1.97,2.04 0.72,5.89 -2.17,5.89 -0.5,0 -1.05,-0.12 -1.64,-0.38 0,0 0.51,4.39 -3.52,4.39 -0.09,0 -0.18,-0 -0.28,-0.01 -4.33,-0.21 -4,-5.26 -1.65,-6.24 0,0 -3.43,-0.1 -3.36,-4 0.03,-1.98 1.91,-3.17 3.78,-3.17z"/>
   <path class="fil10" d="M7.09 38.51c0,0 0.61,-3.38 -2.29,-4.01 -2.91,-0.63 -2.61,2.67 -1.14,3.66 1.47,0.98 2.47,0.91 2.47,0.91 0,0 -1.92,2.05 -1.02,3.28 0.9,1.23 2.77,-0.09 2.93,-1.2 0.16,-1.11 0.05,-1.28 0.05,-1.28 0,0 2.55,1.59 3.61,-0.46 1.06,-2.05 -0.02,-2.87 -1.47,-2.82 -1.45,0.06 -3.15,1.92 -3.15,1.92z"/>
   <path class="fil11" d="M7.06 40.94c-0.25,0.58 -0.64,0.98 -0.87,0.87 -0.23,-0.1 -0.22,-0.65 0.03,-1.24 0.25,-0.58 0.64,-0.97 0.87,-0.87 0.23,0.1 0.22,0.65 -0.02,1.24z"/>
   <path class="fil11" d="M9.26 38.65c0.63,-0.09 1.16,0.03 1.2,0.28 0.04,0.25 -0.44,0.53 -1.06,0.63 -0.63,0.09 -1.17,-0.03 -1.2,-0.28 -0.04,-0.25 0.44,-0.53 1.07,-0.63z"/>
   <path class="fil11" d="M5.35 38.1c-0.49,-0.4 -0.76,-0.88 -0.6,-1.08 0.16,-0.2 0.69,-0.04 1.18,0.36 0.49,0.4 0.76,0.88 0.6,1.08 -0.16,0.2 -0.69,0.04 -1.18,-0.36z"/>
   <path class="fil16" d="M17 37.22c-2.6,1.13 -2.84,3.07 -2.7,4.24 -0.38,-0.15 -0.8,-0.22 -1.25,-0.22 -1.31,0 -2.6,0.66 -3.29,1.67 -0.48,0.7 -0.91,1.91 -0.22,3.63 0.85,2.15 2.35,2.6 3.46,2.6 0.84,0 1.62,-0.26 2.12,-0.48 0.28,2.19 1.93,3.18 3.55,3.18 1.67,0 3.19,-0.99 3.78,-2.47 0.91,-2.31 -0.55,-3.92 -1.84,-4.7 1.46,-1.02 2.07,-2.58 1.66,-4.28 -0.48,-1.97 -2.18,-3.46 -3.95,-3.46 -0.45,0 -0.89,0.09 -1.32,0.28z"/>
   <path class="fil5" d="M18.32 36.54c-0.51,0 -1.01,0.11 -1.48,0.31 -2.31,1 -2.98,2.67 -3,4.06 -0.25,-0.05 -0.52,-0.08 -0.79,-0.08 -1.47,0 -2.86,0.71 -3.63,1.85 -0.75,1.11 -0.85,2.53 -0.26,4.01 0.94,2.36 2.61,2.86 3.84,2.86 0.67,0 1.3,-0.15 1.81,-0.32 0.48,2.09 2.19,3.04 3.87,3.04 1.84,0 3.51,-1.1 4.16,-2.73 0.9,-2.28 -0.27,-3.94 -1.53,-4.88 1.27,-1.11 1.77,-2.66 1.36,-4.35 -0.52,-2.15 -2.39,-3.77 -4.34,-3.77zm0 0.81c3.13,0 5.65,5.2 1.45,7.36 0,0 3.52,1.44 2.3,4.53 -0.56,1.43 -2.01,2.21 -3.4,2.21 -1.62,0 -3.17,-1.06 -3.19,-3.41 0,0 -1.16,0.7 -2.48,0.7 -1.12,0 -2.35,-0.5 -3.08,-2.35 -1.19,-2.99 1.11,-4.74 3.14,-4.74 0.71,0 1.38,0.21 1.86,0.66 0,0 -1.32,-3.16 2.26,-4.71 0.39,-0.17 0.78,-0.24 1.16,-0.24z"/>
   <path class="fil10" d="M17.22 44.45c0,0 3.33,-0.84 2.7,-3.75 -0.63,-2.91 -3.51,-1.27 -3.8,0.47 -0.29,1.74 0.2,2.62 0.2,2.62 0,0 -2.66,-0.9 -3.41,0.43 -0.75,1.33 1.22,2.49 2.3,2.18 1.08,-0.31 1.19,-0.48 1.19,-0.48 0,0 -0.39,2.98 1.91,3.1 2.3,0.12 2.61,-1.21 1.96,-2.5 -0.65,-1.29 -3.05,-2.07 -3.05,-2.07z"/>
   <path class="fil11" d="M15 45.44c-0.63,0.01 -1.15,-0.18 -1.16,-0.43 -0.01,-0.25 0.5,-0.47 1.14,-0.49 0.63,-0.01 1.15,0.18 1.16,0.43 0.01,0.26 -0.5,0.47 -1.14,0.49z"/>
   <path class="fil11" d="M18 46.49c0.35,0.53 0.45,1.07 0.24,1.21 -0.21,0.14 -0.67,-0.18 -1.01,-0.71 -0.35,-0.53 -0.45,-1.08 -0.24,-1.21 0.21,-0.14 0.67,0.18 1.01,0.71z"/>
   <path class="fil11" d="M16.88 42.7c0.16,-0.61 0.49,-1.06 0.73,-1 0.25,0.06 0.32,0.61 0.16,1.23 -0.16,0.61 -0.49,1.06 -0.73,1 -0.24,-0.06 -0.32,-0.61 -0.16,-1.23z"/>
   <path class="fil17" d="M6.83 58.65l0.03 0c2.02,0 3.15,-1.68 3.61,-2.95 0.69,0.5 1.44,0.77 2.2,0.77 1.2,0 2.34,-0.67 3.05,-1.79 0.75,-1.18 0.87,-2.6 0.32,-3.8 -0.63,-1.37 -1.77,-2.1 -3.27,-2.1 -0.54,0 -1.03,0.09 -1.4,0.19 0.22,-1.43 -0.23,-2.44 -0.7,-3.07 -0.8,-1.07 -2.2,-1.74 -3.66,-1.74 -1.66,0 -3.01,0.87 -3.53,2.26 -0.98,2.66 0.26,4.17 1.21,4.89 -1.05,0.5 -1.9,1.63 -2.12,2.94 -0.29,1.77 0.65,3.26 2.5,4.01 0.62,0.25 1.21,0.38 1.76,0.38z"/>
   <path class="fil5" d="M7 43.76l0 0c-1.84,0 -3.34,0.97 -3.91,2.53 -0.87,2.36 -0.12,4 0.88,4.98 -0.91,0.64 -1.61,1.71 -1.81,2.92 -0.32,1.96 0.71,3.63 2.75,4.45 0.68,0.27 1.33,0.41 1.94,0.41 1.99,0 3.2,-1.46 3.8,-2.75 0.64,0.37 1.32,0.57 2.01,0.57 1.34,0 2.6,-0.74 3.39,-1.97 0.83,-1.3 0.96,-2.87 0.35,-4.19 -0.69,-1.5 -1.99,-2.33 -3.64,-2.33 -0.33,0 -0.65,0.03 -0.94,0.08 0.06,-1.27 -0.39,-2.19 -0.84,-2.8 -0.88,-1.17 -2.4,-1.9 -3.98,-1.9zm0 0.81c2.29,-0 4.74,1.82 3.8,5.01 0,0 0.89,-0.4 1.96,-0.4 1.03,0 2.22,0.38 2.9,1.86 1.04,2.25 -0.72,5.01 -3,5.01 -0.77,0 -1.6,-0.31 -2.41,-1.07 0,0 -0.72,3.24 -3.4,3.24 -0.48,0 -1.02,-0.11 -1.64,-0.35 -4.02,-1.62 -2.04,-6.28 0.49,-6.43 0,0 -3.2,-1.22 -1.86,-4.88 0.5,-1.36 1.79,-1.99 3.15,-1.99z"/>
   <path class="fil10" d="M8.87 51.26c0,0 1.69,-2.99 -0.85,-4.54 -2.54,-1.55 -3.34,1.67 -2.28,3.08 1.06,1.41 2.03,1.67 2.03,1.67 0,0 -2.48,1.31 -2.04,2.76 0.44,1.46 2.65,0.83 3.17,-0.17 0.52,-1 0.47,-1.19 0.47,-1.19 0,0 1.89,2.34 3.56,0.75 1.68,-1.58 0.92,-2.72 -0.46,-3.14 -1.38,-0.42 -3.6,0.78 -3.6,0.78z"/>
   <path class="fil11" d="M8.04 53.55c-0.43,0.47 -0.92,0.71 -1.11,0.54 -0.19,-0.17 0,-0.69 0.43,-1.16 0.43,-0.47 0.92,-0.71 1.11,-0.54 0.19,0.17 -0.01,0.69 -0.43,1.16z"/>
   <path class="fil11" d="M10.87 52.1c0.62,0.12 1.09,0.41 1.04,0.66 -0.05,0.25 -0.59,0.36 -1.21,0.24 -0.62,-0.12 -1.09,-0.42 -1.04,-0.66 0.05,-0.25 0.59,-0.36 1.21,-0.24z"/>
   <path class="fil11" d="M7.37 50.29c-0.33,-0.54 -0.43,-1.08 -0.22,-1.22 0.22,-0.13 0.66,0.19 1,0.73 0.34,0.54 0.43,1.08 0.22,1.22 -0.22,0.13 -0.66,-0.19 -1,-0.73z"/>
   <path class="fil18" d="M47.37 12.96l-0.02 0 -0.02 0 -0.02 0c-0.34,0 -0.68,0.04 -1.01,0.11 -1.19,0.25 -2.36,0.8 -3.42,1.59 -1.72,1.3 -2.66,2.82 -2.7,2.89 -0.09,0.15 -0.08,0.34 0.04,0.47 0.33,0.39 0.68,0.74 1.02,1.04 1.45,1.32 3.03,1.99 4.68,1.99 4.06,0 7.13,-4 7.26,-4.17 0.11,-0.14 0.11,-0.33 0.01,-0.48 -0.1,-0.14 -2.43,-3.44 -5.83,-3.44z"/>
   <path class="fil5" d="M47.37 12.55l0 0c-0.38,0 -0.76,0.04 -1.14,0.12 -1.25,0.26 -2.48,0.84 -3.58,1.67 -1.79,1.35 -2.76,2.93 -2.8,3 -0.18,0.3 -0.15,0.68 0.08,0.95 0.33,0.38 0.68,0.75 1.06,1.08 1.52,1.38 3.19,2.09 4.95,2.09 4.26,0 7.45,-4.16 7.58,-4.33 0.21,-0.28 0.22,-0.67 0.02,-0.95 -0.1,-0.15 -2.55,-3.62 -6.17,-3.62zm0 0.81c3.23,0 5.5,3.27 5.5,3.27 0,0 -3.03,4.01 -6.94,4.01 -1.39,0 -2.89,-0.51 -4.41,-1.88 -0.32,-0.29 -0.66,-0.63 -0.98,-1 0,0 0.91,-1.5 2.59,-2.77 0.88,-0.66 1.99,-1.25 3.26,-1.52 0.33,-0.07 0.66,-0.1 0.97,-0.1z"/>
   <g>
    <image x="41.26" y="11.75" width="11.62" height="9.39" xlink:href="leaftopleft_Images\leaftopleft_ImgID6.png"/>
   </g>
   <path class="fil6" d="M40.4 17.09c2.98,-0.41 5.97,-0.68 8.95,-0.51 -2.95,0.28 -5.84,0.99 -8.65,1.82l-0.02 0.01c-0.36,0.11 -0.73,-0.1 -0.84,-0.46 -0.1,-0.36 0.1,-0.73 0.46,-0.84 0.03,-0.01 0.07,-0.02 0.1,-0.02z"/>
  </g>
 </g>
</svg>
