<?xml version="1.0" encoding="UTF-8"?>
<!DOCTYPE svg PUBLIC "-//W3C//DTD SVG 1.1//EN" "http://www.w3.org/Graphics/SVG/1.1/DTD/svg11.dtd">
<!-- Creator: CorelDRAW -->
<svg xmlns="http://www.w3.org/2000/svg" xml:space="preserve" width="30.5498mm" height="7.6092mm" version="1.1" style="shape-rendering:geometricPrecision; text-rendering:geometricPrecision; image-rendering:optimizeQuality; fill-rule:evenodd; clip-rule:evenodd"
viewBox="0 0 371.37 92.5"
 xmlns:xlink="http://www.w3.org/1999/xlink"
 xmlns:xodm="http://www.corel.com/coreldraw/odm/2003">
 <defs>
  <style type="text/css">
   <![CDATA[
    .fil2 {fill:#0E8003;fill-rule:nonzero}
    .fil1 {fill:#4D4A10;fill-rule:nonzero}
    .fil24 {fill:#964919;fill-rule:nonzero}
    .fil20 {fill:#BE4625;fill-rule:nonzero}
    .fil30 {fill:#DEA26B;fill-rule:nonzero}
    .fil29 {fill:#FEE2C1;fill-rule:nonzero}
    .fil13 {fill:url(#id0)}
    .fil27 {fill:url(#id1)}
    .fil4 {fill:url(#id2)}
    .fil15 {fill:url(#id3)}
    .fil26 {fill:url(#id4)}
    .fil5 {fill:url(#id5)}
    .fil23 {fill:url(#id6)}
    .fil6 {fill:url(#id7)}
    .fil10 {fill:url(#id8)}
    .fil17 {fill:url(#id9)}
    .fil14 {fill:url(#id10)}
    .fil22 {fill:url(#id11)}
    .fil19 {fill:url(#id12)}
    .fil18 {fill:url(#id13)}
    .fil8 {fill:url(#id14)}
    .fil21 {fill:url(#id15)}
    .fil7 {fill:url(#id16)}
    .fil11 {fill:url(#id17)}
    .fil31 {fill:url(#id18)}
    .fil28 {fill:url(#id19)}
    .fil9 {fill:url(#id20)}
    .fil3 {fill:url(#id21)}
    .fil12 {fill:url(#id22)}
    .fil16 {fill:url(#id23)}
    .fil25 {fill:url(#id24)}
    .fil0 {fill:url(#id25)}
   ]]>
  </style>
  <radialGradient id="id0" gradientUnits="userSpaceOnUse" gradientTransform="matrix(6.1647 2.90614 2.78774 -6.42657 -1610 -434)" cx="283.39" cy="52.49" r="10.99" fx="283.39" fy="52.49">
   <stop offset="0" style="stop-opacity:1; stop-color:#C0D151"/>
   <stop offset="0.0784314" style="stop-opacity:1; stop-color:#C0D151"/>
   <stop offset="0.529412" style="stop-opacity:1; stop-color:#AFBF48"/>
   <stop offset="1" style="stop-opacity:1; stop-color:#9FAD40"/>
   <stop offset="1" style="stop-opacity:1; stop-color:#9FAD40"/>
  </radialGradient>
  <radialGradient id="id1" gradientUnits="userSpaceOnUse" gradientTransform="matrix(-0.676367 2.03094 1.92498 0.713547 30 -96)" cx="51.33" cy="29.24" r="21.07" fx="51.33" fy="29.24">
   <stop offset="0" style="stop-opacity:1; stop-color:#FFEE77"/>
   <stop offset="0.0784314" style="stop-opacity:1; stop-color:#FFEE77"/>
   <stop offset="0.529412" style="stop-opacity:1; stop-color:#F5D055"/>
   <stop offset="1" style="stop-opacity:1; stop-color:#EBB234"/>
   <stop offset="1" style="stop-opacity:1; stop-color:#EBB234"/>
  </radialGradient>
  <radialGradient id="id2" gradientUnits="userSpaceOnUse" gradientTransform="matrix(5.94451 4.75818 4.74925 -5.95507 -908 -278)" xlink:href="#id0" cx="133.99" cy="51.69" r="14.81" fx="133.99" fy="51.69">
  </radialGradient>
  <radialGradient id="id3" gradientUnits="userSpaceOnUse" gradientTransform="matrix(-4.25351 -4.75633 -4.68706 4.31716 1911 1185)" xlink:href="#id0" cx="299.4" cy="72.11" r="8.99" fx="299.4" fy="72.11">
  </radialGradient>
  <radialGradient id="id4" gradientUnits="userSpaceOnUse" gradientTransform="matrix(-0.57643 1.7145 1.64054 0.602366 -78 -6)" xlink:href="#id1" cx="18.79" cy="65.49" r="14.89" fx="18.79" fy="65.49">
  </radialGradient>
  <radialGradient id="id5" gradientUnits="userSpaceOnUse" gradientTransform="matrix(5.09401 4.14757 4.07015 -5.19136 -750 -243)" xlink:href="#id0" cx="133.36" cy="50.08" r="16.96" fx="133.36" fy="50.08">
  </radialGradient>
  <radialGradient id="id6" gradientUnits="userSpaceOnUse" gradientTransform="matrix(-0.841053 2.59099 2.39388 0.91039 -8 -193)" xlink:href="#id1" cx="76.82" cy="62.57" r="18.07" fx="76.82" fy="62.57">
  </radialGradient>
  <radialGradient id="id7" gradientUnits="userSpaceOnUse" gradientTransform="matrix(-6.10965 2.98042 -2.86097 -6.36472 1349 -23)" xlink:href="#id0" cx="164.28" cy="63.3" r="10.98" fx="164.28" fy="63.3">
  </radialGradient>
  <radialGradient id="id8" gradientUnits="userSpaceOnUse" gradientTransform="matrix(4.9658 4.24885 4.16517 -5.06571 -1123 -638)" xlink:href="#id0" cx="226.81" cy="53.73" r="11.16" fx="226.81" fy="53.73">
  </radialGradient>
  <radialGradient id="id9" gradientUnits="userSpaceOnUse" gradientTransform="matrix(0.293575 5.87587 -7.15718 -0.196937 504 -1044)" xlink:href="#id0" cx="188.25" cy="51.83" r="12.53" fx="188.25" fy="51.83">
  </radialGradient>
  <radialGradient id="id10" gradientUnits="userSpaceOnUse" gradientTransform="matrix(-3.56935 5.13657 -5.05554 -3.62656 1678 -1300)" xlink:href="#id0" cx="304.25" cy="56.89" r="12.33" fx="304.25" fy="56.89">
  </radialGradient>
  <radialGradient id="id11" gradientUnits="userSpaceOnUse" gradientTransform="matrix(0.645396 1.09762 1.09224 -0.648615 -7 -32)" cx="76.17" cy="31.57" r="17.45" fx="76.17" fy="31.57">
   <stop offset="0" style="stop-opacity:1; stop-color:#F7E7B6"/>
   <stop offset="0.0784314" style="stop-opacity:1; stop-color:#F7E7B6"/>
   <stop offset="0.337255" style="stop-opacity:1; stop-color:#F6E7B5"/>
   <stop offset="1" style="stop-opacity:1; stop-color:#F5E7B4"/>
   <stop offset="1" style="stop-opacity:1; stop-color:#F5E7B4"/>
  </radialGradient>
  <radialGradient id="id12" gradientUnits="userSpaceOnUse" gradientTransform="matrix(1.4702 -1.28249 -1.2731 -1.48121 71 310)" cx="78.25" cy="84.3" r="16.92" fx="78.25" fy="84.3">
   <stop offset="0" style="stop-opacity:1; stop-color:#FFDF96"/>
   <stop offset="0.0784314" style="stop-opacity:1; stop-color:#FFDF96"/>
   <stop offset="0.337255" style="stop-opacity:1; stop-color:#F5D283"/>
   <stop offset="1" style="stop-opacity:1; stop-color:#ECC570"/>
   <stop offset="1" style="stop-opacity:1; stop-color:#ECC570"/>
  </radialGradient>
  <radialGradient id="id13" gradientUnits="userSpaceOnUse" gradientTransform="matrix(1.76876 5.84467 -7.23693 1.65669 217 -1465)" xlink:href="#id0" cx="244.44" cy="55.96" r="7.37" fx="244.44" fy="55.96">
  </radialGradient>
  <radialGradient id="id14" gradientUnits="userSpaceOnUse" gradientTransform="matrix(-4.72736 4.42851 -4.34045 -4.82327 1345 -457)" xlink:href="#id0" cx="186.71" cy="63.43" r="11.26" fx="186.71" fy="63.43">
  </radialGradient>
  <radialGradient id="id15" gradientUnits="userSpaceOnUse" gradientTransform="matrix(4.83483 -0 -0 -4.92634 -394 -1157)" cx="102.63" cy="-195.27" r="23.52" fx="102.63" fy="-195.27">
   <stop offset="0" style="stop-opacity:1; stop-color:#FFD677"/>
   <stop offset="0.0784314" style="stop-opacity:1; stop-color:#FFD677"/>
   <stop offset="0.337255" style="stop-opacity:1; stop-color:#F5CD73"/>
   <stop offset="1" style="stop-opacity:1; stop-color:#ECC570"/>
   <stop offset="1" style="stop-opacity:1; stop-color:#ECC570"/>
  </radialGradient>
  <radialGradient id="id16" gradientUnits="userSpaceOnUse" gradientTransform="matrix(-1.23518 6.08528 -5.97674 -1.2575 662 -883)" xlink:href="#id0" cx="163.46" cy="49.63" r="14.59" fx="163.46" fy="49.63">
  </radialGradient>
  <radialGradient id="id17" gradientUnits="userSpaceOnUse" gradientTransform="matrix(-5.41313 3.85455 -3.77946 -5.52068 1903 -632)" xlink:href="#id0" cx="262.4" cy="58.25" r="10.95" fx="262.4" fy="58.25">
  </radialGradient>
  <radialGradient id="id18" gradientUnits="userSpaceOnUse" gradientTransform="matrix(4.41085 -0 -0 -4.47033 -294 -1018)" xlink:href="#id15" cx="86.25" cy="-186.06" r="21.1" fx="86.25" fy="-186.06">
  </radialGradient>
  <radialGradient id="id19" gradientUnits="userSpaceOnUse" gradientTransform="matrix(4.53518 -0 -0 -4.67323 -164 -534)" cx="46.32" cy="-94.13" r="15.74" fx="46.32" fy="-94.13">
   <stop offset="0" style="stop-opacity:1; stop-color:#FFFDFF"/>
   <stop offset="0.0784314" style="stop-opacity:1; stop-color:#FFFDFF"/>
   <stop offset="0.337255" style="stop-opacity:1; stop-color:#FEFEFB"/>
   <stop offset="1" style="stop-opacity:1; stop-color:#FEFEF8"/>
   <stop offset="1" style="stop-opacity:1; stop-color:#FEFEF8"/>
  </radialGradient>
  <radialGradient id="id20" gradientUnits="userSpaceOnUse" gradientTransform="matrix(-4.72627 4.42843 -4.33922 -4.82292 1523 -810)" xlink:href="#id0" cx="235.65" cy="40.09" r="11.27" fx="235.65" fy="40.09">
  </radialGradient>
  <radialGradient id="id21" gradientUnits="userSpaceOnUse" gradientTransform="matrix(5.79368 4.79741 4.62905 -6.00457 -876 -283)" xlink:href="#id0" cx="133.47" cy="50.96" r="14.72" fx="133.47" fy="50.96">
  </radialGradient>
  <radialGradient id="id22" gradientUnits="userSpaceOnUse" gradientTransform="matrix(-2.46921 5.63039 -5.50659 -2.52501 1487 -1754)" xlink:href="#id0" cx="344.6" cy="52.97" r="14.94" fx="344.6" fy="52.97">
  </radialGradient>
  <radialGradient id="id23" gradientUnits="userSpaceOnUse" gradientTransform="matrix(-4.05543 5.33121 6.61108 4.20225 1397 -2075)" xlink:href="#id0" cx="353.75" cy="59.15" r="9.49" fx="353.75" fy="59.15">
  </radialGradient>
  <radialGradient id="id24" gradientUnits="userSpaceOnUse" gradientTransform="matrix(-0.693539 2.10075 1.97386 0.738081 -31 -15)" xlink:href="#id1" cx="10.16" cy="24.6" r="14.44" fx="10.16" fy="24.6">
  </radialGradient>
  <radialGradient id="id25" gradientUnits="userSpaceOnUse" gradientTransform="matrix(1.50077 6.7954 -6.77092 1.50602 227 -1770)" xlink:href="#id0" cx="256.58" cy="52.44" r="10.59" fx="256.58" fy="52.44">
  </radialGradient>
 </defs>
 <g id="Layer_x0020_1">
  <metadata id="CorelCorpID_0Corel-Layer"/>
  <g id="_2805580605408">
   <path class="fil0" d="M269.56 69.35l0.04 0 0.04 0 0.04 0c0.73,-0.01 1.51,-0.08 2.32,-0.23 3.43,-0.62 6.87,-5.06 9.15,-8.67 1.49,-2.39 2.45,-4.33 2.62,-4.72 0.15,-0.35 0.19,-0.75 0.09,-1.13 -0.29,-1.43 -2.17,-3.01 -5.16,-4.33 -0.88,-0.39 -1.96,-0.58 -3.2,-0.58 -2.72,0 -5.92,0.94 -8.35,2.46 -1.05,0.64 -1.89,1.36 -2.49,2.12 -1.97,2.5 -1.38,4.94 -0.62,6.19 -0.44,0.63 -1.23,1.99 -1.31,3.62 -0.01,0.24 -0,0.5 0.01,0.76 0.26,2.7 2.99,4.52 6.82,4.52z"/>
   <path class="fil1" d="M275.49 49.07c-2.82,0 -6.15,0.98 -8.67,2.55 -1.11,0.68 -2,1.45 -2.64,2.26 -2.01,2.55 -1.59,5.06 -0.85,6.54 -0.49,0.78 -1.14,2.09 -1.21,3.62 -0.01,0.27 -0.01,0.54 0.01,0.83 0.29,3.05 3.27,5.08 7.43,5.08 0.82,0 1.66,-0.08 2.53,-0.23 2.94,-0.53 6.15,-3.54 9.56,-8.95 1.52,-2.43 2.49,-4.4 2.66,-4.8 0.21,-0.47 0.26,-1 0.13,-1.54 -0.33,-1.62 -2.29,-3.31 -5.51,-4.73 -0.96,-0.42 -2.12,-0.63 -3.44,-0.63zm0 1.22c1.1,0 2.12,0.17 2.95,0.53 2.94,1.3 4.58,2.76 4.81,3.89 0.06,0.27 0.04,0.53 -0.06,0.76 -0.21,0.46 -1.17,2.4 -2.58,4.64 -2.22,3.53 -5.55,7.83 -8.74,8.4 -0.81,0.14 -1.59,0.21 -2.32,0.21 -3.58,0 -5.99,-1.63 -6.21,-3.96 -0.02,-0.23 -0.02,-0.45 -0,-0.67 0.09,-2.02 1.45,-3.64 1.45,-3.64 0,0 -2.15,-2.66 0.35,-5.82 0.57,-0.72 1.38,-1.39 2.33,-1.98 2.28,-1.42 5.4,-2.36 8.03,-2.36z"/>
   <g>
    <image x="262.2" y="46.52" width="25.63" height="19.87" xlink:href="leafbottomleft_Images\leafbottomleft_ImgID1.png"/>
   </g>
   <path class="fil2" d="M275.85 57.3c-1.95,0.27 -3.89,0.66 -5.77,1.19 -1.85,0.64 -3.71,1.14 -5.4,2.16 -0.01,0.01 -0.03,0 -0.04,-0.01 -0.01,-0.01 -0,-0.03 0,-0.03 0.63,-0.82 1.56,-1.28 2.44,-1.76 0.93,-0.4 1.89,-0.66 2.87,-0.86 1.95,-0.43 3.92,-0.66 5.89,-0.75 0.02,0 0.03,0.01 0.03,0.03 0,0.02 -0.01,0.03 -0.03,0.03z"/>
   <g>
    <image x="262.2" y="49.01" width="25.63" height="19.87" xlink:href="leafbottomleft_Images\leafbottomleft_ImgID2.png"/>
   </g>
   <path class="fil3" d="M157.06 50.74l-0.1 0c-2.18,0.01 -4.5,0.33 -6.89,0.96 -0.35,0.09 -0.69,0.2 -1,0.3 -1.3,0.43 -2.49,1 -3.53,1.69 -7.51,4.96 -6.5,14.85 -6.36,15.59 0.2,0.39 2.27,3.78 13.56,3.78 0,0 1.26,-0.03 1.26,-0.03 3.5,-0.26 6.57,-2.04 9.12,-5.29 4.03,-5.15 5.3,-12.18 5.35,-12.47 0.05,-0.31 -0.05,-0.61 -0.25,-0.82 -0.15,-0.15 -3.74,-3.71 -11.17,-3.71z"/>
   <path class="fil1" d="M157.07 49.8l0 0c-2.3,0 -4.73,0.33 -7.23,0.99 -0.38,0.1 -0.74,0.22 -1.09,0.34 -1.35,0.45 -2.61,1.05 -3.72,1.78 -7.99,5.27 -6.91,15.71 -6.87,16.15 0.03,0.22 0.09,0.45 0.2,0.65 0.37,0.72 2.8,4.28 14.39,4.28l0.43 0c0.33,-0.01 0.61,-0.02 0.89,-0.04 3.79,-0.29 7.08,-2.18 9.79,-5.64 4.18,-5.34 5.48,-12.58 5.54,-12.89 0.1,-0.6 -0.09,-1.21 -0.51,-1.63 -0.16,-0.16 -4.01,-3.99 -11.82,-3.99zm0 1.87c7.12,0 10.49,3.43 10.49,3.43 0,0 -1.24,7.03 -5.17,12.06 -2.03,2.59 -4.78,4.66 -8.45,4.93 -0.26,0.02 -0.51,0.03 -0.78,0.03l-0.42 0c-11.04,0 -12.73,-3.27 -12.73,-3.27 0,0 -1.08,-9.68 6.04,-14.38 0.94,-0.62 2.04,-1.16 3.31,-1.58 0.3,-0.11 0.62,-0.21 0.95,-0.29 2.54,-0.66 4.79,-0.93 6.76,-0.93z"/>
   <g>
    <image x="144.31" y="49.01" width="28.19" height="24.83" xlink:href="leafbottomleft_Images\leafbottomleft_ImgID3.png"/>
   </g>
   <path class="fil2" d="M157.49 57.9c-3.21,1.15 -6.3,2.58 -9.26,4.22 -1.46,0.85 -2.88,1.76 -4.29,2.68 -1.49,0.82 -2.79,1.87 -4.24,2.8 -0.02,0.02 -0.06,0.01 -0.07,-0.01 -0.01,-0.02 -0.01,-0.04 0,-0.06 2.21,-2.66 5.09,-4.72 8.24,-6.11 3.08,-1.51 6.3,-2.74 9.6,-3.62 0.03,-0.01 0.05,0.01 0.06,0.03 0,0.03 -0.01,0.05 -0.03,0.06z"/>
   <g>
    <image x="139.19" y="49.01" width="28.19" height="24.83" xlink:href="leafbottomleft_Images\leafbottomleft_ImgID4.png"/>
   </g>
   <path class="fil4" d="M135.08 69.76l0.04 0 0.04 0c0.86,-0.01 1.33,-0.2 1.72,-0.46 0.19,-0.2 4.68,-5.03 4.79,-11.39 0.03,-1.18 -0.1,-2.35 -0.38,-3.46 -0.49,-1.96 -1.44,-3.82 -2.8,-5.55 -6.27,-7.91 -12.71,-8.76 -15.19,-8.76 -0.63,0 -0.98,0.05 -0.98,0.05 -0.3,0.05 -0.56,0.24 -0.7,0.5 -0.12,0.26 -3.16,6.28 -3.22,12.61 -0.02,2.39 0.39,4.52 1.2,6.33 0.78,1.78 1.98,3.28 3.56,4.48 6.12,4.67 9.85,5.65 11.92,5.65z"/>
   <path class="fil1" d="M123.29 39.2l0 0c-0.72,0 -1.12,0.07 -1.12,0.07 -0.58,0.09 -1.11,0.47 -1.39,1 -0.14,0.26 -3.26,6.47 -3.32,13.02 -0.03,2.53 0.41,4.79 1.29,6.74 0.84,1.9 2.13,3.53 3.84,4.82 6.32,4.82 10.28,5.84 12.49,5.84 1.08,0 1.71,-0.24 1.93,-0.35 0.21,-0.1 0.4,-0.24 0.55,-0.4 0.2,-0.21 4.93,-5.3 5.04,-12.02 0.03,-1.26 -0.11,-2.51 -0.41,-3.7 -0.52,-2.08 -1.53,-4.06 -2.98,-5.9 -6.52,-8.23 -13.31,-9.12 -15.92,-9.12zm0 1.87c2.2,0 8.39,0.75 14.46,8.41 1.39,1.75 2.2,3.5 2.63,5.2 0.28,1.1 0.38,2.17 0.36,3.21 -0.11,6.08 -4.53,10.77 -4.53,10.77 0,0 -0.35,0.17 -1.12,0.17 -1.64,0 -5.19,-0.75 -11.36,-5.46 -1.54,-1.17 -2.59,-2.57 -3.27,-4.11 -0.84,-1.87 -1.15,-3.92 -1.12,-5.95 0.06,-6.18 3.12,-12.19 3.12,-12.19 0,0 0.3,-0.05 0.84,-0.05z"/>
   <g>
    <image x="118.68" y="36.59" width="25.63" height="24.83" xlink:href="leafbottomleft_Images\leafbottomleft_ImgID5.png"/>
   </g>
   <path class="fil2" d="M127.57 49.71c2.09,2.42 3.99,5.01 5.71,7.73 1.82,2.65 3.19,5.64 3.81,8.83 0,0.03 -0.01,0.05 -0.04,0.06 -0.02,0 -0.04,-0.01 -0.06,-0.03 -0.8,-1.41 -1.4,-2.87 -2.23,-4.23l-2.17 -4.23c-1.55,-2.78 -3.24,-5.48 -5.11,-8.07 -0.02,-0.03 -0.01,-0.06 0.01,-0.07 0.02,-0.02 0.05,-0.01 0.07,0z"/>
   <g>
    <image x="118.68" y="49.01" width="25.63" height="19.87" xlink:href="leafbottomleft_Images\leafbottomleft_ImgID6.png"/>
   </g>
   <path class="fil5" d="M132.88 62.15l-0.03 0 -0.03 0 -0.03 0c-0.68,0.01 -1.39,0.09 -2.11,0.25 -1.44,0.31 -3.02,0.99 -4.58,1.98 -4.91,3.06 -10.12,9.36 -10.34,14.58 -0.2,4.98 0.69,8.62 2.44,9.97 0.49,0.41 1.06,0.63 1.64,0.65l0.66 0.01c1.67,0 4.54,-0.12 7.57,-0.43 6.5,-0.69 14.91,-2.41 18.06,-6.72 2.77,-3.79 3.98,-7.82 3.34,-11.07 -0.39,-1.98 -1.43,-3.53 -3.02,-4.5 -0.34,-0.21 -0.68,-0.38 -1.02,-0.52 -1.19,-0.51 -2.55,-0.77 -4.02,-0.77 -0.75,0 -1.39,0.07 -1.84,0.14 -0.77,-1.18 -2.81,-3.56 -6.68,-3.56z"/>
   <path class="fil1" d="M132.88 61.22c-0.77,0 -1.58,0.09 -2.41,0.27 -1.55,0.33 -3.2,1.04 -4.88,2.1 -5.04,3.15 -10.53,9.6 -10.77,15.33 -0.22,5.37 0.78,9.19 2.83,10.77 0.6,0.5 1.36,0.79 2.16,0.82 0.15,0 0.38,0.01 0.69,0.01 1.69,0 4.6,-0.12 7.68,-0.44 9.73,-1.03 16.02,-3.41 18.72,-7.09 2.92,-4 4.2,-8.31 3.5,-11.81 -0.45,-2.23 -1.63,-4 -3.44,-5.11 -0.39,-0.24 -0.77,-0.43 -1.15,-0.59 -1.3,-0.56 -2.78,-0.85 -4.39,-0.85 -0.52,0 -1,0.03 -1.4,0.07 -1.07,-1.41 -3.3,-3.49 -7.12,-3.49zm0 1.87c4.51,0 6.21,3.66 6.21,3.66 0,0 0.96,-0.24 2.31,-0.24 1.08,0 2.39,0.15 3.65,0.69 0.31,0.13 0.61,0.28 0.91,0.46 3.66,2.24 3.82,8.18 -0.6,14.23 -2.93,3.99 -11.06,5.66 -17.4,6.34 -3.33,0.34 -6.17,0.42 -7.49,0.42 -0.28,0 -0.49,-0 -0.62,-0.01 -0.38,-0.01 -0.75,-0.15 -1.08,-0.43 -1.4,-1.09 -2.3,-4.31 -2.1,-9.22 0.2,-4.7 4.96,-10.74 9.9,-13.83 1.45,-0.91 2.91,-1.57 4.28,-1.86 0.73,-0.15 1.39,-0.22 2.01,-0.22z"/>
   <g>
    <image x="116.12" y="58.94" width="33.32" height="29.8" xlink:href="leafbottomleft_Images\leafbottomleft_ImgID7.png"/>
   </g>
   <path class="fil2" d="M127.23 79.74c1.45,-2.65 3.1,-5.19 5,-7.57 0.92,-1.21 1.94,-2.36 3.11,-3.37 1.24,-0.89 2.52,-1.85 4.05,-2.17 0.03,-0.01 0.06,0.01 0.06,0.04 0,0.02 -0.01,0.04 -0.03,0.05 -1.27,0.84 -2.42,1.73 -3.44,2.82 -1.09,0.98 -2.14,2.05 -3.16,3.14 -2,2.22 -3.82,4.62 -5.52,7.11 -0.01,0.02 -0.05,0.03 -0.07,0.01 -0.02,-0.01 -0.03,-0.04 -0.02,-0.06z"/>
   <g>
    <image x="118.68" y="58.94" width="33.32" height="29.8" xlink:href="leafbottomleft_Images\leafbottomleft_ImgID8.png"/>
   </g>
   <path class="fil6" d="M167.78 91.86l0.01 0 0 0 0.01 0 0.01 0 0.01 0c0.27,-0.01 0.54,-0.08 0.78,-0.19 1.4,-0.63 2.58,-2.91 3.24,-6.25 0.7,-3.52 -1.77,-8.54 -4.54,-11.36 -0.91,-0.93 -1.83,-1.62 -2.74,-2.05 -0.94,-0.45 -1.88,-0.68 -2.79,-0.68 -1.84,0 -3.09,0.93 -3.66,1.46 -0.59,-0.24 -1.69,-0.6 -2.96,-0.6 -0.34,0 -0.69,0.03 -1.04,0.09 -0.25,0.04 -0.51,0.1 -0.78,0.18 -1.2,0.39 -2.14,1.26 -2.72,2.51 -0.95,2.06 -0.79,4.94 0.44,7.91 1.41,3.36 6.73,5.86 10.95,7.36 2.5,0.88 4.76,1.47 5.42,1.59 0.04,0.01 0.28,0.03 0.34,0.04z"/>
   <path class="fil1" d="M161.78 70.67l0 0c-1.76,0 -3.05,0.77 -3.79,1.37 -0.68,-0.24 -1.7,-0.51 -2.83,-0.51 -0.37,0 -0.76,0.03 -1.15,0.09 -0.28,0.05 -0.56,0.11 -0.85,0.2 -1.39,0.45 -2.47,1.44 -3.12,2.86 -1.02,2.22 -0.86,5.29 0.44,8.42 1.21,2.88 5.02,5.48 11.32,7.72 2.83,0.99 5.06,1.54 5.51,1.62 0.15,0.03 0.32,0.05 0.48,0.05 0.39,0 0.76,-0.09 1.12,-0.27 1.58,-0.71 2.86,-3.09 3.57,-6.7 0.76,-3.86 -1.86,-9.03 -4.72,-11.93 -0.95,-0.97 -1.93,-1.71 -2.92,-2.18 -1.03,-0.49 -2.06,-0.74 -3.06,-0.74zm0 1.28c0.73,0 1.57,0.17 2.51,0.62 0.87,0.41 1.74,1.09 2.56,1.92 2.8,2.85 5,7.63 4.37,10.79 -0.66,3.3 -1.77,5.3 -2.88,5.8 -0.19,0.09 -0.38,0.14 -0.56,0.14 -0.07,0 -0.15,-0.01 -0.22,-0.02 -0.52,-0.11 -2.72,-0.66 -5.33,-1.58 -4.11,-1.46 -9.26,-3.88 -10.57,-7 -1.97,-4.73 -0.91,-8.65 1.88,-9.56 0.23,-0.07 0.45,-0.12 0.68,-0.16 0.32,-0.06 0.63,-0.08 0.93,-0.08 1.71,0 3.11,0.73 3.11,0.73 0,0 1.26,-1.59 3.51,-1.59z"/>
   <g>
    <image x="152" y="68.87" width="23.06" height="22.35" xlink:href="leafbottomleft_Images\leafbottomleft_ImgID9.png"/>
   </g>
   <path class="fil2" d="M164.02 84.11c-0.73,-1.93 -1.56,-3.82 -2.53,-5.61 -1.07,-1.74 -2.01,-3.53 -3.44,-5.02 -0.01,-0.01 -0.01,-0.04 0,-0.05 0.01,-0.01 0.03,-0.01 0.04,-0 0.97,0.45 1.66,1.3 2.35,2.09 0.62,0.85 1.11,1.78 1.53,2.74 0.88,1.89 1.57,3.84 2.11,5.84 0.01,0.02 -0,0.03 -0.02,0.04 -0.02,0 -0.04,-0 -0.04,-0.02z"/>
   <g>
    <image x="149.44" y="68.87" width="23.07" height="22.35" xlink:href="leafbottomleft_Images\leafbottomleft_ImgID10.png"/>
   </g>
   <path class="fil7" d="M173.89 76.28l0.03 0 0.03 0 0.03 0c4.05,0 9.25,-2.89 12.9,-5.33 2.62,-1.75 4.75,-3.46 5.31,-3.97 0.36,-0.32 0.59,-0.75 0.68,-1.22 0.39,-1.76 -0.93,-4.48 -3.61,-7.46 -2.42,-2.68 -7.46,-3.88 -11.38,-3.88 -0.87,0 -1.72,0.06 -2.51,0.16 -1.48,0.19 -2.82,0.58 -3.86,1.13 -3.48,1.81 -4.04,4.85 -3.82,6.63 -0.81,0.49 -2.39,1.62 -3.29,3.4 -0.14,0.27 -0.26,0.55 -0.37,0.86 -0.48,1.41 -0.33,2.9 0.45,4.33 1.27,2.34 4.1,4.22 7.77,5.14 0.51,0.13 1.06,0.2 1.65,0.2z"/>
   <path class="fil1" d="M177.87 53.68c-0.9,0 -1.78,0.06 -2.62,0.17 -1.59,0.21 -2.97,0.62 -4.1,1.21 -3.54,1.85 -4.34,4.88 -4.25,6.91 -0.93,0.63 -2.32,1.77 -3.18,3.45 -0.15,0.3 -0.29,0.61 -0.41,0.94 -0.55,1.63 -0.38,3.33 0.49,4.95 1.38,2.53 4.38,4.54 8.24,5.51 0.6,0.15 1.24,0.22 1.92,0.22 4.24,0 9.58,-2.97 13.32,-5.46 2.92,-1.95 5,-3.68 5.4,-4.04 0.48,-0.42 0.79,-1 0.92,-1.66 0.44,-1.98 -0.9,-4.87 -3.8,-8.08 -2.75,-3.05 -8.15,-4.13 -11.94,-4.13zm0 1.51c4.15,0 8.71,1.29 10.82,3.63 2.65,2.94 3.75,5.4 3.44,6.79 -0.06,0.34 -0.22,0.62 -0.44,0.82 -0.47,0.42 -2.53,2.1 -5.24,3.91 -3.73,2.48 -8.7,5.2 -12.48,5.2 -0.54,0 -1.06,-0.06 -1.55,-0.18 -5.84,-1.47 -8.79,-5.23 -7.68,-8.5 0.09,-0.27 0.2,-0.51 0.33,-0.76 1.13,-2.22 3.46,-3.35 3.46,-3.35 0,0 -1.07,-4.06 3.33,-6.36 1,-0.52 2.25,-0.88 3.61,-1.06 0.77,-0.1 1.59,-0.15 2.41,-0.15z"/>
   <g>
    <image x="164.81" y="51.49" width="30.75" height="19.87" xlink:href="leafbottomleft_Images\leafbottomleft_ImgID11.png"/>
   </g>
   <path class="fil2" d="M182.53 64.77c-2.33,-0.67 -4.69,-1.22 -7.07,-1.56 -1.19,-0.15 -2.38,-0.27 -3.57,-0.32 -1.19,-0.16 -2.36,-0.12 -3.58,0.02 -0.02,0 -0.04,-0.01 -0.04,-0.03 -0,-0.02 0,-0.03 0.02,-0.04 1.11,-0.6 2.4,-0.65 3.62,-0.74 1.24,0.02 2.46,0.21 3.65,0.49 2.4,0.49 4.73,1.23 6.99,2.11 0.02,0.01 0.03,0.03 0.03,0.05 -0.01,0.02 -0.04,0.03 -0.05,0.03z"/>
   <g>
    <image x="162.25" y="51.49" width="33.32" height="24.83" xlink:href="leafbottomleft_Images\leafbottomleft_ImgID12.png"/>
   </g>
   <path class="fil8" d="M193.71 88.77l0.03 0 0.03 0 0.03 0 0.03 0 0.03 0 0.03 0 0.03 0 0.03 0 0.03 0 0.08 0 0.08 0 0.08 0c1.66,-0.01 2.89,-0.09 3.26,-0.13 0.38,-0.03 0.75,-0.21 1.03,-0.48 1.09,-0.97 1.51,-3.39 1.16,-6.63 -0.38,-3.4 -4.06,-7.27 -7.41,-9.06 -1.06,-0.57 -2.13,-0.95 -3.08,-1.09 -0.36,-0.05 -0.7,-0.08 -1.02,-0.08 -2.83,0 -4.16,1.79 -4.64,2.64 -0.18,-0.02 -0.39,-0.03 -0.64,-0.03 -0.81,0 -2.03,0.13 -3.16,0.71 -0.22,0.11 -0.43,0.24 -0.65,0.39 -0.98,0.71 -1.59,1.77 -1.76,3.08 -0.27,2.15 0.7,4.73 2.68,7.08 2.25,2.67 7.82,3.42 12.09,3.58 0.57,0.02 1.12,0.03 1.64,0.03z"/>
   <path class="fil1" d="M188.15 70.69l0 0c-2.8,0 -4.29,1.59 -4.97,2.62 -0.1,-0 -0.2,-0.01 -0.31,-0.01 -0.89,0 -2.2,0.14 -3.44,0.78 -0.24,0.12 -0.48,0.26 -0.72,0.42 -1.14,0.81 -1.84,2.02 -2.02,3.5 -0.3,2.32 0.73,5.07 2.81,7.55 1.93,2.28 6.15,3.56 12.54,3.8 0.68,0.02 1.32,0.03 1.91,0.03 1.71,0 3.1,-0.08 3.58,-0.13 0.51,-0.06 1,-0.28 1.4,-0.66 1.23,-1.1 1.72,-3.64 1.33,-7.14 -0.41,-3.73 -4.29,-7.7 -7.72,-9.53 -1.15,-0.62 -2.25,-1.01 -3.28,-1.15 -0.39,-0.06 -0.75,-0.08 -1.11,-0.08zm0 1.23c0.29,0 0.6,0.02 0.93,0.07 0.91,0.13 1.9,0.49 2.88,1.02 3.36,1.79 6.75,5.52 7.08,8.58 0.35,3.2 -0.09,5.34 -0.96,6.11 -0.21,0.2 -0.44,0.31 -0.69,0.33 -0.38,0.04 -1.69,0.12 -3.44,0.12 -0.58,0 -1.21,-0.01 -1.87,-0.03 -4.17,-0.15 -9.56,-0.88 -11.65,-3.36 -3.16,-3.75 -3.31,-7.63 -1.03,-9.26 0.19,-0.13 0.38,-0.24 0.57,-0.34 1.01,-0.52 2.11,-0.63 2.88,-0.63 0.6,0 0.99,0.07 0.99,0.07 0,0 1.03,-2.68 4.28,-2.68z"/>
   <g>
    <image x="177.63" y="68.87" width="25.63" height="19.87" xlink:href="leafbottomleft_Images\leafbottomleft_ImgID13.png"/>
   </g>
   <path class="fil2" d="M192.14 82.58c-1.22,-1.55 -2.52,-3.04 -3.92,-4.4 -1.48,-1.28 -2.84,-2.64 -4.57,-3.59 -0.02,-0.01 -0.02,-0.03 -0.01,-0.05 0.01,-0.01 0.02,-0.01 0.03,-0.01 1.02,0.13 1.9,0.71 2.75,1.23 0.81,0.61 1.53,1.31 2.17,2.06 1.35,1.47 2.54,3.06 3.61,4.72 0.01,0.02 0.01,0.04 -0.01,0.05 -0.01,0.01 -0.03,0 -0.04,-0.01z"/>
   <g>
    <image x="177.63" y="68.87" width="23.06" height="19.87" xlink:href="leafbottomleft_Images\leafbottomleft_ImgID14.png"/>
   </g>
   <path class="fil9" d="M242.64 65.42l0.03 0 0.03 0 0.03 0 0.03 0 0.03 0 0.03 0 0.03 0 0.03 0 0.03 0 0.08 0 0.08 0 0.08 0c1.66,-0.01 2.89,-0.09 3.26,-0.13 0.39,-0.04 0.75,-0.21 1.03,-0.49 1.09,-0.97 1.52,-3.39 1.16,-6.64 -0.37,-3.4 -4.06,-7.26 -7.4,-9.06 -1.07,-0.57 -2.14,-0.94 -3.08,-1.08 -0.36,-0.05 -0.7,-0.07 -1.02,-0.07 -2.82,0 -4.15,1.79 -4.63,2.64 -0.18,-0.01 -0.4,-0.03 -0.65,-0.03 -0.81,0 -2.03,0.12 -3.16,0.7 -0.22,0.12 -0.43,0.24 -0.65,0.39 -0.98,0.7 -1.59,1.76 -1.76,3.07 -0.27,2.15 0.7,4.73 2.68,7.08 2.25,2.67 7.82,3.42 12.09,3.58 0.57,0.03 1.13,0.04 1.64,0.04z"/>
   <path class="fil1" d="M237.08 47.34c-2.8,0 -4.29,1.59 -4.97,2.62 -0.1,-0 -0.2,-0 -0.31,-0 -0.89,0 -2.2,0.13 -3.44,0.77 -0.24,0.12 -0.49,0.27 -0.72,0.43 -1.14,0.81 -1.84,2.02 -2.03,3.5 -0.3,2.32 0.73,5.07 2.81,7.55 1.93,2.28 6.14,3.55 12.54,3.79 0.68,0.02 1.32,0.03 1.91,0.03 1.71,0 3.1,-0.08 3.58,-0.13 0.52,-0.06 1,-0.28 1.4,-0.66 1.23,-1.1 1.72,-3.64 1.33,-7.14 -0.41,-3.74 -4.29,-7.7 -7.72,-9.53 -1.15,-0.61 -2.25,-1 -3.29,-1.15 -0.39,-0.05 -0.75,-0.08 -1.11,-0.08zm0 1.22c0.29,0 0.61,0.02 0.93,0.07 0.91,0.13 1.9,0.49 2.88,1.02 3.36,1.8 6.75,5.52 7.08,8.59 0.35,3.2 -0.09,5.34 -0.96,6.11 -0.21,0.2 -0.44,0.31 -0.69,0.33 -0.38,0.04 -1.69,0.13 -3.44,0.13 -0.58,0 -1.21,-0.01 -1.86,-0.03 -4.17,-0.15 -9.56,-0.88 -11.65,-3.36 -3.16,-3.75 -3.31,-7.63 -1.03,-9.26 0.19,-0.13 0.38,-0.24 0.57,-0.34 1.01,-0.52 2.11,-0.63 2.88,-0.63 0.6,0 0.99,0.07 0.99,0.07 0,0 1.03,-2.68 4.28,-2.68z"/>
   <g>
    <image x="228.88" y="44.04" width="23.07" height="22.35" xlink:href="leafbottomleft_Images\leafbottomleft_ImgID15.png"/>
   </g>
   <path class="fil2" d="M241.08 59.23c-1.22,-1.55 -2.52,-3.04 -3.92,-4.39 -1.48,-1.28 -2.84,-2.65 -4.57,-3.59 -0.02,-0.01 -0.02,-0.03 -0.01,-0.04 0.01,-0.01 0.02,-0.02 0.03,-0.02 1.02,0.13 1.9,0.71 2.75,1.24 0.81,0.6 1.53,1.3 2.17,2.05 1.35,1.47 2.54,3.06 3.61,4.72 0.01,0.02 0.01,0.04 -0.01,0.05 -0.01,0.01 -0.03,0 -0.04,-0.01z"/>
   <g>
    <image x="226.32" y="44.04" width="25.63" height="22.35" xlink:href="leafbottomleft_Images\leafbottomleft_ImgID16.png"/>
   </g>
   <path class="fil10" d="M226.13 61.54l-0.02 0 -0.02 0 -0.02 0 -0.02 0c-0.38,0 -0.79,0.04 -1.23,0.13 -0.95,0.18 -1.97,0.59 -3.03,1.22 -3.26,1.94 -6.77,5.97 -6.99,9.38 -0.21,3.26 0.32,5.65 1.44,6.56 0.31,0.27 0.66,0.42 1.06,0.45 0.19,0.01 0.6,0.03 1.18,0.03 1,0 2.51,-0.03 4.21,-0.17 4.27,-0.36 9.8,-1.35 11.92,-4.11 1.87,-2.44 2.73,-5.06 2.36,-7.19 -0.22,-1.3 -0.88,-2.34 -1.9,-2.99 -0.22,-0.14 -0.44,-0.25 -0.67,-0.36 -0.83,-0.38 -1.77,-0.57 -2.82,-0.57 -0.4,0 -0.75,0.03 -1,0.06 -0.5,-0.8 -1.84,-2.43 -4.46,-2.43z"/>
   <path class="fil1" d="M226.13 60.93c-0.44,0 -0.91,0.04 -1.41,0.14 -1.02,0.19 -2.11,0.63 -3.23,1.3 -3.35,1.98 -7.04,6.12 -7.29,9.86 -0.23,3.51 0.37,6.03 1.68,7.1 0.39,0.33 0.88,0.54 1.4,0.57 0.19,0.01 0.63,0.03 1.24,0.03 0.78,0 2.36,-0.02 4.24,-0.17 6.38,-0.52 10.53,-1.99 12.36,-4.35 1.97,-2.57 2.88,-5.37 2.48,-7.68 -0.26,-1.47 -1.01,-2.64 -2.17,-3.4 -0.25,-0.16 -0.5,-0.29 -0.75,-0.4 -0.9,-0.41 -1.93,-0.62 -3.07,-0.62 -0.26,0 -0.5,0.01 -0.71,0.03 -0.69,-0.96 -2.17,-2.4 -4.77,-2.4zm0 1.22c3.05,0 4.14,2.5 4.14,2.5 0,0 0.55,-0.12 1.34,-0.12 0.73,0 1.67,0.11 2.56,0.51 0.2,0.09 0.4,0.19 0.59,0.32 2.36,1.53 2.37,5.41 -0.61,9.3 -1.98,2.57 -7.33,3.53 -11.49,3.88 -1.68,0.13 -3.16,0.17 -4.15,0.17 -0.57,0 -0.98,-0.01 -1.16,-0.02 -0.25,-0.02 -0.49,-0.12 -0.7,-0.3 -0.9,-0.73 -1.44,-2.86 -1.24,-6.06 0.2,-3.07 3.41,-6.95 6.69,-8.89 0.96,-0.57 1.93,-0.98 2.83,-1.15 0.42,-0.08 0.82,-0.12 1.19,-0.12z"/>
   <g>
    <image x="213.51" y="58.94" width="25.63" height="19.87" xlink:href="leafbottomleft_Images\leafbottomleft_ImgID17.png"/>
   </g>
   <path class="fil2" d="M222.3 72.97c1,-1.71 2.11,-3.35 3.39,-4.88 0.62,-0.78 1.3,-1.51 2.08,-2.15 0.83,-0.56 1.67,-1.18 2.68,-1.36 0.02,-0 0.04,0.01 0.04,0.03 0,0.01 -0,0.03 -0.02,0.04 -1.68,1.02 -2.98,2.45 -4.4,3.79 -1.34,1.42 -2.58,2.96 -3.72,4.57 -0.01,0.01 -0.03,0.02 -0.05,0.01 -0.01,-0.01 -0.01,-0.03 -0.01,-0.04z"/>
   <g>
    <image x="216.07" y="58.94" width="23.07" height="19.87" xlink:href="leafbottomleft_Images\leafbottomleft_ImgID18.png"/>
   </g>
   <path class="fil11" d="M269.55 84.67l0.02 0 0.06 0 0.02 0 0.02 0c0.35,-0.01 0.71,-0.13 1,-0.34 1.21,-0.82 1.95,-3.16 2.03,-6.43 0.08,-3.41 -3.06,-7.74 -6.13,-9.96 -0.98,-0.72 -1.99,-1.23 -2.91,-1.48 -0.62,-0.18 -1.24,-0.27 -1.81,-0.27 -2.3,0 -3.61,1.35 -4.14,2.05 -0.39,-0.08 -1,-0.18 -1.7,-0.18 -0.78,0 -1.5,0.13 -2.15,0.36 -0.23,0.08 -0.46,0.18 -0.7,0.3 -1.08,0.57 -1.82,1.54 -2.16,2.8 -0.55,2.1 0.07,4.79 1.72,7.38 1.87,2.94 7.29,4.42 11.51,5.15 2.74,0.47 4.87,0.61 5.34,0.62z"/>
   <path class="fil1" d="M261.84 65.58c-2.25,0 -3.66,1.17 -4.38,2 -0.39,-0.07 -0.9,-0.13 -1.46,-0.13 -0.84,0 -1.64,0.13 -2.36,0.39 -0.25,0.09 -0.51,0.2 -0.77,0.33 -1.24,0.65 -2.09,1.75 -2.47,3.2 -0.6,2.26 0.05,5.12 1.79,7.86 1.61,2.52 5.62,4.34 11.93,5.43 2.82,0.48 5.02,0.62 5.45,0.63l0 0c0.56,0 1.04,-0.16 1.47,-0.47 1.37,-0.92 2.19,-3.38 2.27,-6.9 0.09,-3.76 -3.23,-8.2 -6.39,-10.47 -1.06,-0.77 -2.1,-1.3 -3.1,-1.58 -0.67,-0.19 -1.34,-0.29 -1.98,-0.29zm0 1.23c0.5,0 1.04,0.07 1.64,0.24 0.88,0.25 1.82,0.74 2.72,1.39 3.1,2.23 5.95,6.37 5.88,9.45 -0.08,3.22 -0.8,5.28 -1.76,5.93 -0.22,0.16 -0.45,0.24 -0.69,0.24 -0.01,0 -0.02,0 -0.03,0 -0.51,-0.01 -2.67,-0.17 -5.28,-0.61 -4.11,-0.71 -9.36,-2.14 -11.1,-4.88 -2.63,-4.14 -2.27,-8 0.21,-9.31 0.2,-0.1 0.41,-0.19 0.62,-0.27 0.66,-0.24 1.35,-0.31 1.95,-0.31 1.12,0 1.97,0.27 1.97,0.27 0,0 1.17,-2.14 3.87,-2.14z"/>
   <g>
    <image x="251.95" y="63.91" width="23.07" height="22.35" xlink:href="leafbottomleft_Images\leafbottomleft_ImgID19.png"/>
   </g>
   <path class="fil2" d="M265.11 77.96c-1,-1.7 -2.09,-3.34 -3.31,-4.88 -1.3,-1.47 -2.47,-2.99 -4.05,-4.16 -0.01,-0.01 -0.02,-0.04 -0.01,-0.05 0.01,-0.01 0.03,-0.02 0.04,-0.01 0.99,0.27 1.78,0.96 2.55,1.59 0.72,0.71 1.34,1.5 1.89,2.33 1.14,1.63 2.11,3.37 2.95,5.15 0.01,0.02 0,0.04 -0.01,0.04 -0.02,0.01 -0.03,0 -0.04,-0.01z"/>
   <g>
    <image x="249.38" y="63.91" width="25.63" height="22.35" xlink:href="leafbottomleft_Images\leafbottomleft_ImgID20.png"/>
   </g>
   <path class="fil12" d="M354.16 60.51l-0.02 0 -0.02 0 -0.02 0 -0.02 0 -0.02 0 -0.02 0 -0.05 0 -0.05 0c-0.97,0.01 -1.87,0.12 -2.66,0.34 -3.85,1.03 -5.07,3.93 -5.24,5.74 -0.91,0.31 -2.73,1.08 -4.01,2.65 -0.2,0.24 -0.38,0.49 -0.56,0.77 -0.79,1.29 -0.97,2.81 -0.51,4.4 0.75,2.6 3.15,5.09 6.58,6.81 1.09,0.55 2.48,0.82 4.12,0.82 3.77,0 8.35,-1.47 11.53,-2.7 3,-1.17 5.48,-2.39 6.15,-2.78 0.42,-0.24 0.75,-0.6 0.94,-1.06 0.77,-1.66 0.06,-4.64 -1.95,-8.2 -2.11,-3.72 -8.26,-6.35 -12.98,-6.74 -0.4,-0.04 -0.81,-0.06 -1.2,-0.06z"/>
   <path class="fil1" d="M354.05 59.74c-1.09,0 -2.08,0.12 -2.97,0.36 -3.92,1.06 -5.38,3.89 -5.74,5.93 -1.06,0.42 -2.7,1.25 -3.91,2.73 -0.22,0.26 -0.42,0.54 -0.61,0.84 -0.91,1.5 -1.11,3.23 -0.6,5.02 0.81,2.81 3.35,5.47 6.97,7.29 1.2,0.6 2.71,0.9 4.47,0.9 3.89,0 8.56,-1.49 11.81,-2.75 3.34,-1.3 5.78,-2.56 6.25,-2.82 0.57,-0.32 1.01,-0.82 1.28,-1.45 0.87,-1.87 0.17,-5.03 -2,-8.85 -2.32,-4.08 -8.73,-6.72 -13.58,-7.13 -0.46,-0.04 -0.92,-0.06 -1.37,-0.06zm0 1.53c0.41,0 0.82,0.02 1.24,0.05 4.75,0.4 10.47,3.01 12.38,6.36 1.99,3.5 2.53,6.18 1.92,7.5 -0.14,0.33 -0.35,0.56 -0.62,0.72 -0.55,0.31 -2.97,1.53 -6.05,2.73 -3.45,1.34 -7.75,2.65 -11.25,2.65 -1.43,0 -2.73,-0.22 -3.78,-0.74 -5.48,-2.75 -7.58,-7.12 -5.76,-10.13 0.15,-0.24 0.32,-0.47 0.49,-0.68 1.61,-1.96 4.17,-2.57 4.17,-2.57 0,0 -0.17,-4.26 4.7,-5.57 0.77,-0.21 1.64,-0.31 2.57,-0.31z"/>
   <g>
    <image x="341.64" y="56.46" width="28.19" height="22.35" xlink:href="leafbottomleft_Images\leafbottomleft_ImgID21.png"/>
   </g>
   <path class="fil2" d="M360.24 72.24c-2.16,-1.18 -4.39,-2.24 -6.68,-3.1 -1.15,-0.41 -2.3,-0.8 -3.47,-1.1 -1.15,-0.41 -2.32,-0.63 -3.56,-0.76 -0.02,0 -0.04,-0.02 -0.04,-0.04 0,-0.02 0.02,-0.03 0.04,-0.03 1.23,-0.35 2.52,-0.12 3.76,0.06 1.23,0.29 2.4,0.74 3.52,1.29 2.27,1.02 4.42,2.26 6.47,3.63 0.02,0.01 0.03,0.04 0.01,0.06 -0.01,0.01 -0.04,0.02 -0.06,0.01z"/>
   <g>
    <image x="339.08" y="56.46" width="30.75" height="24.83" xlink:href="leafbottomleft_Images\leafbottomleft_ImgID22.png"/>
   </g>
   <path class="fil13" d="M286.06 60.36l-0.04 0c-0.93,0.01 -1.87,0.26 -2.83,0.73 -0.91,0.45 -1.83,1.16 -2.71,2.09 -2.76,2.88 -5.16,7.96 -4.42,11.48 0.71,3.35 1.93,5.63 3.31,6.23 0.27,0.13 0.54,0.19 0.83,0.19l0.38 -0.04c0.44,-0.1 2.67,-0.66 5.42,-1.68 4.22,-1.56 9.53,-4.14 10.9,-7.54 1.2,-2.99 1.33,-5.9 0.34,-7.95 -0.6,-1.24 -1.55,-2.1 -2.77,-2.48 -0.26,-0.08 -0.52,-0.13 -0.78,-0.18 -0.33,-0.05 -0.64,-0.07 -0.96,-0.07 -1.31,0 -2.46,0.39 -3.05,0.64 -0.57,-0.53 -1.82,-1.42 -3.62,-1.42z"/>
   <path class="fil1" d="M286.05 59.73c-1.03,0 -2.09,0.27 -3.15,0.79 -0.98,0.49 -1.96,1.24 -2.9,2.23 -2.82,2.96 -5.39,8.18 -4.58,12.05 0.77,3.62 2.08,6 3.71,6.7 0.32,0.15 0.69,0.24 1.06,0.24 0.17,0 0.35,-0.02 0.52,-0.06 0.44,-0.09 2.68,-0.66 5.51,-1.7 6.31,-2.34 10.1,-5 11.27,-7.91 1.27,-3.16 1.39,-6.25 0.33,-8.47 -0.67,-1.41 -1.77,-2.39 -3.16,-2.82 -0.3,-0.09 -0.58,-0.15 -0.87,-0.19 -0.35,-0.06 -0.71,-0.08 -1.06,-0.08 -1.18,0 -2.23,0.3 -2.93,0.55 -0.74,-0.58 -2.02,-1.33 -3.75,-1.33zm0 1.29c2.22,0 3.49,1.55 3.49,1.55 0,0 1.45,-0.78 3.2,-0.78 0.28,0 0.57,0.02 0.86,0.07 0.23,0.03 0.46,0.09 0.69,0.15 2.82,0.87 3.94,4.8 2.02,9.58 -1.27,3.16 -6.41,5.66 -10.52,7.18 -2.61,0.97 -4.81,1.54 -5.34,1.66 -0.08,0.02 -0.16,0.03 -0.24,0.03 -0.18,0 -0.36,-0.04 -0.55,-0.13 -1.11,-0.49 -2.26,-2.48 -2.96,-5.79 -0.67,-3.17 1.48,-8 4.25,-10.9 0.81,-0.85 1.68,-1.54 2.54,-1.96 0.96,-0.48 1.83,-0.66 2.58,-0.66z"/>
   <g>
    <image x="275.01" y="56.46" width="23.06" height="24.83" xlink:href="leafbottomleft_Images\leafbottomleft_ImgID23.png"/>
   </g>
   <path class="fil2" d="M283.84 73.24c0.52,-2.01 1.19,-3.99 2.05,-5.9 0.4,-0.97 0.89,-1.9 1.5,-2.77 0.68,-0.8 1.36,-1.66 2.34,-2.14 0.01,-0.01 0.03,0 0.04,0.02 0.01,0.01 0,0.03 -0,0.04 -1.42,1.51 -2.33,3.32 -3.39,5.09 -0.95,1.82 -1.76,3.73 -2.47,5.67 -0,0.02 -0.03,0.03 -0.04,0.02 -0.02,-0 -0.02,-0.02 -0.02,-0.04z"/>
   <g>
    <image x="277.57" y="56.46" width="23.07" height="24.83" xlink:href="leafbottomleft_Images\leafbottomleft_ImgID24.png"/>
   </g>
   <path class="fil14" d="M308.69 82.25l0.14 0 0.09 0c1.9,-0.01 4.08,-0.23 6.48,-0.66 2.9,-0.52 5.1,-1.15 5.53,-1.3 0.38,-0.13 0.72,-0.39 0.94,-0.72 0.91,-1.24 0.8,-3.82 -0.29,-7.08 -1.14,-3.41 -5.79,-6.57 -9.61,-7.65 -1.03,-0.3 -2,-0.45 -2.89,-0.45l-0.52 0.02c-3.35,0.23 -4.82,2.42 -5.25,3.89 -0.8,0.11 -2.42,0.46 -3.74,1.54 -0.21,0.17 -0.4,0.34 -0.58,0.55 -0.86,0.93 -1.25,2.17 -1.13,3.54 0.2,2.27 1.77,4.7 4.33,6.68 1.39,1.07 3.58,1.62 6.51,1.63z"/>
   <path class="fil1" d="M309.08 63.75c-0.19,0 -0.38,0.01 -0.56,0.02 -3.4,0.24 -5.06,2.34 -5.69,3.96 -0.94,0.18 -2.43,0.6 -3.67,1.62 -0.22,0.18 -0.44,0.38 -0.64,0.6 -0.99,1.09 -1.44,2.48 -1.3,4.04 0.22,2.45 1.88,5.05 4.57,7.13 1.53,1.18 3.9,1.77 7.05,1.77 1.96,0 4.2,-0.22 6.68,-0.66 2.97,-0.53 5.18,-1.18 5.62,-1.32 0.52,-0.17 0.97,-0.51 1.29,-0.99 1.03,-1.4 0.96,-4.12 -0.21,-7.63 -1.26,-3.75 -6.12,-6.96 -10.06,-8.08 -1.09,-0.31 -2.12,-0.47 -3.07,-0.47zm0 1.29c0.84,0 1.77,0.15 2.71,0.42 3.86,1.09 8.16,4.17 9.19,7.24 1.07,3.21 1.09,5.51 0.38,6.5 -0.17,0.25 -0.39,0.41 -0.63,0.49 -0.51,0.17 -2.7,0.78 -5.44,1.28 -2,0.36 -4.3,0.64 -6.45,0.64 -2.5,0 -4.81,-0.39 -6.26,-1.5 -4.07,-3.15 -5.1,-7.1 -3.12,-9.28 0.16,-0.18 0.34,-0.33 0.52,-0.48 1.65,-1.36 3.85,-1.45 3.85,-1.45 0,0 0.55,-3.55 4.78,-3.84 0.15,-0.01 0.31,-0.02 0.47,-0.02z"/>
   <g>
    <image x="298.08" y="61.42" width="28.19" height="19.87" xlink:href="leafbottomleft_Images\leafbottomleft_ImgID25.png"/>
   </g>
   <path class="fil2" d="M314.11 75.26c-1.59,-1.32 -3.26,-2.56 -5,-3.64 -1.81,-0.99 -3.51,-2.08 -5.5,-2.67 -0.02,-0 -0.03,-0.03 -0.03,-0.04 0,-0.01 0.02,-0.02 0.03,-0.03 1.07,-0.09 2.1,0.31 3.09,0.66 0.97,0.44 1.86,1 2.69,1.63 1.71,1.21 3.28,2.58 4.76,4.04 0.01,0.02 0.01,0.04 0,0.05 -0.01,0.01 -0.03,0.01 -0.05,0z"/>
   <g>
    <image x="298.08" y="61.42" width="28.19" height="22.35" xlink:href="leafbottomleft_Images\leafbottomleft_ImgID26.png"/>
   </g>
   <path class="fil15" d="M303.61 52.69l-0.03 0 -0.03 0 -0.03 0 -0.03 0 -0.03 0 -0.18 0c-3.72,0.02 -6.27,0.69 -7.58,1.98 -1.71,1.69 -2.65,3.64 -2.6,5.33 0.04,1.03 0.44,1.9 1.16,2.52 0.15,0.13 0.32,0.25 0.49,0.35 0.95,0.61 2.02,0.77 2.9,0.79 0.42,0.99 1.63,2.42 3.93,2.42 0.01,0 0.3,-0.01 0.31,-0.01 0.75,-0.04 1.59,-0.25 2.48,-0.63 2.74,-1.15 5.89,-3.92 6.42,-6.54 0.51,-2.51 0.35,-4.42 -0.42,-5.25 -0.21,-0.24 -0.48,-0.4 -0.78,-0.46 -0.39,-0.08 -2.1,-0.34 -4.2,-0.46 -0.57,-0.03 -1.16,-0.05 -1.77,-0.06z"/>
   <path class="fil1" d="M303.46 52.21c-3.95,0 -6.67,0.71 -8.1,2.12 -1.81,1.79 -2.8,3.86 -2.74,5.69 0.04,1.17 0.5,2.16 1.33,2.87 0.18,0.15 0.35,0.27 0.53,0.39 1.01,0.64 2.12,0.82 2.86,0.86 0.58,1.08 1.9,2.42 4.23,2.42l0.34 -0.01c0.81,-0.04 1.7,-0.27 2.64,-0.67 2.81,-1.18 6.11,-4 6.7,-6.88 0.55,-2.69 0.35,-4.71 -0.55,-5.68 -0.26,-0.3 -0.63,-0.51 -1.03,-0.59 -0.33,-0.07 -2.03,-0.34 -4.27,-0.47 -0.62,-0.03 -1.28,-0.06 -1.95,-0.06zm0 0.96c0.65,0 1.29,0.02 1.9,0.05 2.07,0.12 3.75,0.37 4.14,0.45 0.19,0.04 0.36,0.14 0.51,0.3 0.62,0.66 0.81,2.37 0.31,4.84 -0.49,2.36 -3.38,5.03 -6.14,6.19 -0.81,0.34 -1.6,0.55 -2.32,0.59 -0.1,0 -0.19,0 -0.28,0 -2.92,0 -3.6,-2.41 -3.6,-2.41 0,0 -0.09,0.01 -0.26,0.01 -0.51,0 -1.71,-0.08 -2.73,-0.73 -0.14,-0.09 -0.29,-0.19 -0.42,-0.31 -1.67,-1.43 -1.27,-4.45 1.46,-7.15 1.47,-1.45 4.57,-1.84 7.43,-1.84z"/>
   <g>
    <image x="292.95" y="49.01" width="20.5" height="17.38" xlink:href="leafbottomleft_Images\leafbottomleft_ImgID27.png"/>
   </g>
   <path class="fil2" d="M305.05 57.58c-0.95,1.22 -1.99,2.38 -3.15,3.42 -1.13,1.04 -2.46,2.07 -4.07,2.22 -0.01,0 -0.03,-0.01 -0.03,-0.02 -0,-0.01 0,-0.02 0.01,-0.03 1.4,-0.64 2.61,-1.54 3.83,-2.47 1.19,-0.97 2.31,-2.03 3.37,-3.15 0.01,-0.01 0.03,-0.01 0.03,-0 0.01,0.01 0.01,0.03 0,0.03z"/>
   <g>
    <image x="292.95" y="49.01" width="20.5" height="17.38" xlink:href="leafbottomleft_Images\leafbottomleft_ImgID28.png"/>
   </g>
   <path class="fil16" d="M335.7 52.75l-0.02 0 -0.02 0 -0.02 0 -0.02 0 -0.02 0c-0.37,0.01 -0.75,0.04 -1.1,0.09 -3.29,0.54 -5.64,1.52 -6.42,2.66 -0.24,0.33 -0.35,0.68 -0.33,1.03 0.03,0.55 0.25,2.49 0.74,4.66 0.82,3.64 2.46,8.22 5.55,9.46 1.52,0.6 3.09,0.92 4.55,0.92 2.64,0 4.77,-1.02 5.72,-2.74 0.12,-0.23 0.21,-0.44 0.29,-0.66 0.53,-1.43 0.29,-2.78 0.11,-3.44 1.17,-0.91 2.69,-2.93 1.72,-5.55 -0.29,-0.81 -0.83,-1.61 -1.6,-2.39 -2.28,-2.33 -6.11,-4.03 -9.11,-4.03z"/>
   <path class="fil1" d="M335.7 52.2c-0.45,0 -0.88,0.03 -1.29,0.1 -2.02,0.33 -5.6,1.16 -6.8,2.9 -0.3,0.4 -0.45,0.88 -0.42,1.36 0.03,0.59 0.26,2.53 0.75,4.74 0.86,3.76 2.58,8.53 5.88,9.85 1.59,0.63 3.23,0.96 4.76,0.96 2.84,0 5.16,-1.13 6.19,-3.03 0.13,-0.25 0.24,-0.49 0.33,-0.73 0.5,-1.34 0.38,-2.62 0.21,-3.42 1.25,-1.1 2.63,-3.23 1.62,-5.95 -0.32,-0.88 -0.9,-1.75 -1.73,-2.58 -2.41,-2.47 -6.32,-4.19 -9.5,-4.19zm0 1.1c3,0 6.63,1.74 8.71,3.86 0.69,0.7 1.21,1.45 1.48,2.19 1.2,3.26 -1.85,5.15 -1.85,5.15 0,0 0.69,1.68 0.03,3.47 -0.07,0.19 -0.15,0.39 -0.26,0.58 -0.84,1.54 -2.8,2.46 -5.23,2.46 -1.34,0 -2.82,-0.27 -4.35,-0.88 -2.84,-1.13 -4.42,-5.55 -5.22,-9.07 -0.5,-2.24 -0.7,-4.12 -0.73,-4.57 -0.01,-0.21 0.06,-0.44 0.23,-0.67 0.65,-0.95 2.76,-1.9 6.07,-2.44 0.36,-0.06 0.73,-0.09 1.11,-0.09z"/>
   <g>
    <image x="326.27" y="49.01" width="23.07" height="19.87" xlink:href="leafbottomleft_Images\leafbottomleft_ImgID29.png"/>
   </g>
   <path class="fil2" d="M334.66 59.5c1.77,0.45 3.51,1.02 5.19,1.77 0.85,0.35 1.68,0.78 2.44,1.31 0.7,0.59 1.47,1.2 1.84,2.09 0,0.01 0,0.03 -0.02,0.03 -0.01,0 -0.03,0 -0.04,-0.01 -0.63,-0.66 -1.33,-1.2 -2.11,-1.63 -0.74,-0.49 -1.52,-0.94 -2.32,-1.37 -1.61,-0.82 -3.29,-1.53 -5.01,-2.13 -0.01,-0 -0.02,-0.02 -0.02,-0.04 0,-0.01 0.02,-0.02 0.03,-0.02z"/>
   <g>
    <image x="326.27" y="51.49" width="23.07" height="19.87" xlink:href="leafbottomleft_Images\leafbottomleft_ImgID30.png"/>
   </g>
   <path class="fil17" d="M201.44 56.14l-0.04 0 -0.04 0 -0.04 0c-0.74,0 -1.45,0.06 -2.11,0.16 -1.3,0.19 -2.38,0.56 -3.2,1.09 -2.76,1.76 -2.65,4.65 -2.11,6.31 -0.64,0.5 -1.77,1.58 -2.21,3.24 -0.06,0.26 -0.12,0.52 -0.15,0.81 -0.39,3.58 3.43,7.32 8.87,8.7 0.49,0.12 1,0.19 1.54,0.19 3.58,0 7.6,-2.77 10.34,-5.09 2.16,-1.84 3.62,-3.44 3.89,-3.77 0.27,-0.32 0.4,-0.74 0.38,-1.2 0,-1.61 -1.65,-4.11 -4.54,-6.87 -2.59,-2.47 -7.18,-3.58 -10.59,-3.58z"/>
   <path class="fil1" d="M201.44 55.48c-0.82,0 -1.6,0.06 -2.32,0.17 -1.38,0.21 -2.55,0.61 -3.46,1.2 -2.86,1.83 -2.97,4.74 -2.5,6.63 -0.72,0.63 -1.69,1.74 -2.1,3.3 -0.08,0.28 -0.14,0.58 -0.18,0.9 -0.43,3.97 3.51,7.93 9.36,9.42 0.54,0.14 1.11,0.21 1.7,0.21 3.78,0 7.94,-2.85 10.77,-5.24 2,-1.7 3.54,-3.34 3.98,-3.87 0.36,-0.44 0.55,-1.01 0.53,-1.65 -0,-2.41 -2.97,-5.61 -4.74,-7.3 -2.4,-2.28 -6.73,-3.76 -11.05,-3.76zm0 1.31c3.62,0 7.84,1.2 10.14,3.4 2.9,2.76 4.34,5.08 4.34,6.39 0.01,0.32 -0.07,0.58 -0.23,0.78 -0.32,0.39 -1.8,1.99 -3.81,3.7 -2.78,2.35 -6.61,4.93 -9.92,4.93 -0.47,0 -0.93,-0.05 -1.38,-0.16 -5.4,-1.38 -8.72,-4.91 -8.38,-8 0.03,-0.25 0.08,-0.49 0.14,-0.71 0.56,-2.1 2.38,-3.17 2.38,-3.17 0,0 -1.73,-3.83 1.66,-6 0.77,-0.5 1.79,-0.83 2.95,-1 0.67,-0.1 1.38,-0.15 2.12,-0.15z"/>
   <g>
    <image x="190.44" y="53.97" width="28.19" height="17.38" xlink:href="leafbottomleft_Images\leafbottomleft_ImgID31.png"/>
   </g>
   <path class="fil2" d="M207.33 65.82c-2.1,-0.61 -4.23,-1.11 -6.37,-1.45 -1.08,-0.15 -2.15,-0.26 -3.22,-0.33 -1.07,-0.15 -2.13,-0.13 -3.21,0.05 -0.02,0 -0.04,-0.01 -0.04,-0.03 -0,-0.01 0,-0.03 0.02,-0.04 0.99,-0.58 2.16,-0.61 3.26,-0.68 1.12,0.04 2.22,0.21 3.29,0.47 2.16,0.47 4.25,1.13 6.29,1.93 0.02,0 0.03,0.03 0.02,0.04 -0.01,0.02 -0.03,0.03 -0.04,0.02z"/>
   <g>
    <image x="190.44" y="53.97" width="28.19" height="22.35" xlink:href="leafbottomleft_Images\leafbottomleft_ImgID32.png"/>
   </g>
   <path class="fil18" d="M251.57 56.99c-0.74,0.31 -1.32,0.69 -1.73,1.12 -1.36,1.46 -0.87,3.16 -0.3,4.06 -0.31,0.39 -0.82,1.2 -0.82,2.25 0,0.16 0,0.33 0.03,0.5 0.31,2.17 3.13,3.82 6.57,3.83 2.44,-0 4.78,-2.56 6.3,-4.69 1.01,-1.42 1.63,-2.59 1.74,-2.82 0.11,-0.23 0.13,-0.5 0.05,-0.76 -0.24,-0.96 -1.6,-2.19 -3.72,-3.39 -1.01,-0.57 -2.41,-0.88 -3.96,-0.88 -1.47,0 -2.98,0.29 -4.15,0.78z"/>
   <path class="fil1" d="M255.72 55.81c-1.54,0 -3.07,0.29 -4.3,0.81 -0.79,0.33 -1.42,0.75 -1.87,1.23 -1.42,1.51 -1.05,3.25 -0.48,4.3 -0.33,0.49 -0.74,1.28 -0.75,2.27 -0,0.18 0,0.36 0.03,0.56 0.34,2.42 3.27,4.17 6.96,4.18 2.61,0 5.05,-2.64 6.63,-4.85 0.93,-1.31 1.6,-2.51 1.77,-2.89 0.15,-0.32 0.18,-0.69 0.06,-1.06 -0.36,-1.42 -2.6,-2.88 -3.9,-3.62 -1.37,-0.77 -3.01,-0.93 -4.16,-0.93zm0 0.8c1.39,0 2.75,0.26 3.76,0.83 2.13,1.21 3.33,2.36 3.53,3.14 0.05,0.19 0.04,0.36 -0.02,0.5 -0.13,0.28 -0.77,1.45 -1.7,2.76 -1.48,2.07 -3.73,4.52 -5.98,4.52 -3.4,-0 -5.9,-1.6 -6.17,-3.48 -0.02,-0.15 -0.03,-0.3 -0.03,-0.45 0.01,-1.33 0.93,-2.23 0.93,-2.23 0,0 -1.6,-2.01 0.09,-3.8 0.38,-0.41 0.94,-0.76 1.59,-1.04 1.13,-0.48 2.58,-0.75 3.99,-0.75z"/>
   <g>
    <image x="246.82" y="53.97" width="20.5" height="12.42" xlink:href="leafbottomleft_Images\leafbottomleft_ImgID33.png"/>
   </g>
   <path class="fil2" d="M257.81 61.41c-1.34,-0.05 -2.67,-0.02 -3.99,0.1 -1.31,0.17 -2.62,0.29 -3.85,0.8 -0.01,0 -0.02,0 -0.03,-0.01 -0,-0.01 -0,-0.02 0,-0.03 1.06,-0.93 2.53,-1.06 3.85,-1.11 1.35,-0.05 2.69,0.03 4.01,0.2 0.01,0 0.02,0.01 0.02,0.03 0,0.01 -0.01,0.02 -0.02,0.02z"/>
   <g>
    <image x="246.82" y="53.97" width="20.5" height="14.9" xlink:href="leafbottomleft_Images\leafbottomleft_ImgID34.png"/>
   </g>
   <path class="fil19" d="M89.58 61.06l-0.02 0 -0.02 0 -0.01 0 -0.01 0c-0.13,0 -0.26,0.03 -0.38,0.08l-28.81 11.61c-0.38,0.15 -0.63,0.5 -0.66,0.9 -0.22,2.55 0.67,7.82 5.59,9.55 1.2,0.42 2.41,0.63 3.62,0.63 2.66,0 4.69,-1.03 5.78,-1.75 1.16,1.09 2.88,1.64 5.13,1.64 5.57,0 12.79,-3.39 13.09,-3.54 0.43,-0.21 0.68,-0.68 0.6,-1.15l-2.87 -17.09c-0.05,-0.33 -0.25,-0.6 -0.54,-0.76 -0.15,-0.09 -0.32,-0.13 -0.49,-0.14z"/>
   <path class="fil20" d="M89.54 59.99c-0.27,0 -0.54,0.05 -0.8,0.15l-28.81 11.61c-0.75,0.31 -1.27,1 -1.34,1.81 -0.24,2.83 0.77,8.7 6.3,10.65 1.31,0.46 2.65,0.7 3.98,0.7 2.43,0 4.39,-0.79 5.68,-1.51 1.31,0.94 3.06,1.41 5.23,1.41 5.81,0 13.24,-3.5 13.55,-3.65 0.87,-0.41 1.35,-1.34 1.2,-2.29l-2.87 -17.1c-0.11,-0.64 -0.5,-1.2 -1.06,-1.52 -0.33,-0.18 -0.69,-0.27 -1.05,-0.27zm0 2.14l2.87 17.1c0,0 -7.23,3.44 -12.63,3.44 -2.13,0 -3.97,-0.54 -4.97,-2.03 0,0 -2.32,2.13 -5.93,2.13 -1,0 -2.09,-0.16 -3.26,-0.57 -5.43,-1.91 -4.88,-8.45 -4.88,-8.45l28.81 -11.61z"/>
   <path class="fil21" d="M101.13 34.71l-0.07 0c-4.67,0 -7.78,2.22 -8.83,3.09 -0.4,-0.06 -1.01,-0.12 -1.74,-0.12 -2.39,0 -8.07,0.78 -9.2,7.94 -0.18,1.09 -0.27,2.04 -0.27,2.91 -0.2,5.13 1.67,7.64 2.81,8.68 -1.77,3.16 -0.44,5.64 0.56,6.87 0.51,0.66 1.05,1.14 1.39,1.41 0.43,2.28 2.96,13.56 10.57,15.65 1.49,0.4 2.95,0.6 4.33,0.6 4.06,0 6.57,-1.72 7.63,-2.63 0.5,0.21 1.23,0.42 2.18,0.42 2.13,0 4.39,-1.01 6.73,-3.01 2.63,-2.3 4.75,-7.7 5.3,-13.73 0.7,-9.27 -2.43,-17.52 -8.57,-22.64 -2.76,-2.3 -5.54,-3.89 -8.27,-4.73 -1.52,-0.46 -3.05,-0.7 -4.54,-0.7z"/>
   <path class="fil20" d="M101.05 33.75l0 0c-4.53,0 -7.72,1.97 -9.11,3.05 -0.4,-0.04 -0.9,-0.08 -1.46,-0.08 -5.57,0 -9.28,3.19 -10.16,8.76 -0.19,1.15 -0.28,2.13 -0.28,3.09 -0.18,4.77 1.33,7.45 2.6,8.84 -1.12,2.51 -0.79,5.1 1,7.3 0.43,0.56 0.88,0.99 1.24,1.31 0.62,3.01 3.38,13.91 11.19,16.06 1.58,0.43 3.12,0.64 4.59,0.64 3.85,0 6.44,-1.46 7.8,-2.5 0.54,0.17 1.21,0.29 2.01,0.29 2.36,0 4.83,-1.09 7.35,-3.24 2.87,-2.5 5.06,-8.03 5.6,-14.11 0,0.01 0,0.01 0,0.01 0.01,0 0.05,-0.2 0.05,-0.44 0.72,-9.44 -2.53,-17.98 -8.93,-23.31 -2.86,-2.39 -5.75,-4.04 -8.6,-4.91 -1.64,-0.49 -3.28,-0.75 -4.89,-0.75zm0 1.92c1.32,0 2.77,0.19 4.33,0.66 2.4,0.73 5.06,2.14 7.93,4.55 6.9,5.75 8.79,14.45 8.23,21.83 0,0.09 -0.04,0.17 -0.04,0.26 -0.52,5.83 -2.62,10.81 -4.93,12.82 -2.59,2.21 -4.65,2.78 -6.1,2.78 -1.52,0 -2.35,-0.63 -2.35,-0.63 0,0 -2.43,2.84 -7.45,2.84 -1.21,0 -2.57,-0.16 -4.08,-0.57 -7.8,-2.14 -9.95,-15.27 -9.95,-15.27 0,0 -0.77,-0.51 -1.5,-1.46 -1.11,-1.37 -2.06,-3.65 -0.04,-6.52 0,0 -3.39,-1.76 -3.13,-8.4 0,-0.86 0.09,-1.76 0.26,-2.79 0.98,-6.18 5.55,-7.13 8.26,-7.13 1.2,0 2.03,0.18 2.03,0.18 0,0 3.18,-3.15 8.54,-3.15z"/>
   <g>
    <image x="80.24" y="31.62" width="46.13" height="49.67" xlink:href="leafbottomleft_Images\leafbottomleft_ImgID35.png"/>
   </g>
   <g>
    <image x="80.24" y="31.62" width="46.13" height="49.67" xlink:href="leafbottomleft_Images\leafbottomleft_ImgID36.png"/>
   </g>
   <path class="fil20" d="M116.14 62.78c1.02,-0.01 1.45,0.53 1.88,1.06 0.23,0.63 0.49,1.39 -0.16,2.19 -0.91,-0.42 -1.15,-0.8 -1.51,-1.26 -0.18,-0.54 -0.44,-1.02 -0.21,-2z"/>
   <path class="fil20" d="M108.6 65.3c0.63,1.02 0.55,1.88 0.56,2.77 -0.21,0.87 -0.33,1.68 -1.12,2.57 -0.82,-0.9 -0.78,-1.88 -0.79,-2.79 0.22,-0.9 0.41,-1.8 1.35,-2.55z"/>
   <path class="fil20" d="M103.07 59.9c-1.18,0.86 -2.34,1.06 -3.45,1.44 -0.59,0.06 -1.12,0.24 -1.68,0.32 -0.57,0.1 -1.11,0.16 -1.8,0.39 0.08,-0.76 0.65,-1.33 1.2,-1.74 0.57,-0.42 1.22,-0.62 1.84,-0.84 1.3,-0.19 2.61,-0.3 3.9,0.43z"/>
   <path class="fil20" d="M95.89 47.93c1.21,-0.6 2.32,-0.42 3.43,-0.24 0.52,0.22 1.08,0.38 1.56,0.73 0.47,0.35 1,0.79 1.15,1.47 -0.66,-0.05 -1.15,-0.04 -1.68,-0.09 -0.53,-0.04 -1.01,-0.19 -1.54,-0.26 -0.98,-0.38 -1.99,-0.65 -2.92,-1.61z"/>
   <path class="fil20" d="M110.62 46.76c-0.96,-0.79 -1.24,-1.67 -1.61,-2.54 -0.15,-0.94 -0.39,-1.79 -0.05,-2.98 1.13,0.56 1.51,1.54 1.9,2.45 0.16,0.98 0.35,1.97 -0.24,3.08z"/>
   <path class="fil22" d="M84.18 14.91l-0.08 0 -0.12 0c-2.57,0.03 -4.85,0.82 -5.26,1.09 -0.67,0.9 -16.48,22.06 -17.32,32.18 -0.19,2.2 0.21,3.86 1.21,4.95 0.88,0.96 2.17,1.44 3.84,1.44 3.4,0 7.33,-2 7.5,-2.08 0.19,-0.1 0.33,-0.29 0.36,-0.5 0,-0.01 0.33,-1.85 1.05,-4.59 0.59,-2.35 1.62,-5.89 3.21,-9.49 2.41,-5.64 6.63,-12.58 13.08,-13.63 0.35,-0.06 0.6,-0.37 0.59,-0.73 -0.01,-0.22 -0.28,-5.59 -4.01,-7.69 -1.1,-0.62 -2.47,-0.93 -4.06,-0.94z"/>
   <path class="fil20" d="M84.1 14.21l0 0c-2.74,0 -5.19,0.86 -5.3,0.9 -0.26,0.09 -0.49,0.26 -0.65,0.48 -0.67,0.9 -16.6,22.23 -17.46,32.55 -0.21,2.39 0.26,4.24 1.39,5.48 1.01,1.11 2.48,1.67 4.36,1.67 3.57,0 7.65,-2.08 7.82,-2.17 0.39,-0.2 0.66,-0.57 0.74,-1.01 0,-0.02 0.33,-1.84 1.03,-4.52 0.58,-2.32 1.6,-5.83 3.17,-9.39 2.34,-5.49 6.42,-12.22 12.56,-13.23 0.7,-0.12 1.2,-0.74 1.18,-1.45 -0.01,-0.24 -0.3,-5.99 -4.37,-8.28 -1.23,-0.69 -2.73,-1.03 -4.48,-1.03zm0 1.41c1.29,0 2.64,0.21 3.79,0.85 3.44,1.94 3.65,7.12 3.65,7.12 -6.45,1.06 -10.84,7.55 -13.61,14.05 -1.54,3.47 -2.59,6.97 -3.25,9.6 -0.73,2.77 -1.06,4.63 -1.06,4.63 0,0 -3.91,2.01 -7.18,2.01 -2.56,0 -4.74,-1.23 -4.35,-5.62 0.84,-10.03 17.18,-31.82 17.18,-31.82 0,0 2.29,-0.81 4.82,-0.81z"/>
   <g>
    <image x="59.74" y="11.76" width="35.88" height="42.22" xlink:href="leafbottomleft_Images\leafbottomleft_ImgID37.png"/>
   </g>
   <path class="fil23" d="M74.23 51.02l-0.1 0 -0.06 0 -0.06 0c-1.15,0.01 -2.3,0.16 -3.38,0.44 -2.5,0.54 -4.34,1.66 -5.32,2.36 -1.06,-0.85 -2.51,-1.3 -4.24,-1.3 -1.63,0 -2.97,0.39 -2.96,0.39 -0.12,0.03 -11.82,2.74 -9.05,15.6 1.55,7.26 5.61,8.78 8.74,8.78 2.11,0 3.92,-0.71 4.7,-1.06 1.59,0.38 3.17,0.57 4.7,0.57 5.99,0 10.01,-2.8 12.32,-5.14 3.85,-3.85 5.89,-9.39 5.08,-13.79 -0.47,-2.54 -1.88,-4.46 -3.98,-5.4 -2.12,-0.95 -4.27,-1.43 -6.38,-1.45z"/>
   <path class="fil24" d="M74.12 49.94l0 0c-1.28,0 -2.56,0.16 -3.8,0.49 -2.15,0.47 -3.86,1.36 -4.99,2.09 -1.16,-0.7 -2.6,-1.07 -4.25,-1.07 -1.77,0 -3.19,0.41 -3.35,0.46 -4.3,0.93 -12.1,5.71 -9.71,16.83 1.8,8.38 6.9,9.63 9.79,9.63 2.05,0 3.82,-0.6 4.8,-1 1.55,0.34 3.09,0.51 4.59,0.51 4.97,0 9.61,-1.94 13.1,-5.46 4.07,-4.07 6.24,-10 5.37,-14.73 -0.54,-2.9 -2.17,-5.1 -4.6,-6.19 -2.29,-1.02 -4.62,-1.54 -6.92,-1.54zm0 2.14c1.81,0 3.84,0.37 6.04,1.36 5.36,2.4 4.37,11.66 -1.41,17.45 -2.78,2.81 -6.71,4.82 -11.57,4.82 -1.51,0 -3.12,-0.19 -4.81,-0.62 0,0 -2.08,1.11 -4.58,1.11 -2.88,0 -6.31,-1.49 -7.69,-7.93 -2.57,-11.97 8.23,-14.32 8.23,-14.32 0,0 1.24,-0.37 2.74,-0.37 1.43,0 3.1,0.33 4.17,1.65 0,0 2.1,-1.97 5.62,-2.74 0.99,-0.25 2.08,-0.42 3.26,-0.42z"/>
   <g>
    <image x="49.49" y="49.01" width="33.32" height="27.32" xlink:href="leafbottomleft_Images\leafbottomleft_ImgID38.png"/>
   </g>
   <path class="fil20" d="M54.67 66.24c1.53,0.37 3.32,0.5 5.02,0.4 1.72,-0.09 3.43,-0.42 5.07,-1 3.3,-1.11 6.24,-3.29 8.56,-6.01 -2.03,2.93 -4.8,5.48 -8.16,7.01 -1.66,0.79 -3.46,1.32 -5.3,1.61 -1.86,0.29 -3.68,0.36 -5.67,0.09 -0.59,-0.08 -1,-0.62 -0.92,-1.21 0.08,-0.59 0.63,-1 1.21,-0.92 0.03,0 0.07,0.01 0.1,0.02l0.08 0.02z"/>
   <path class="fil25" d="M18.88 62.51l0.03 0 0.03 0 0.03 0 0.03 0 0.03 0 0.03 0c0.53,-0.01 1.09,-0.03 1.66,-0.06 19.13,-1.11 21.28,-5.38 21.54,-6.39 0.01,-0.14 1.48,-13.17 -9.04,-16.12 -0.57,-1.53 -2.37,-5.86 -5.69,-9.87 -4.29,-5.2 -9.37,-7.86 -15.21,-7.9 -5.22,0 -8.94,2.43 -10.47,6.82 -2.01,5.77 0.24,13.55 3.52,16.74 -0.07,0.3 -0.15,0.7 -0.23,1.18 -0.46,2.67 -0.75,7.7 2.34,11.36 2.36,2.8 6.2,4.22 11.4,4.22z"/>
   <path class="fil24" d="M12.31 21.11c-5.71,0 -9.79,2.68 -11.48,7.54 -2.08,5.99 0.03,13.72 3.37,17.42 -0.04,0.21 -0.09,0.44 -0.12,0.69 -0.49,2.83 -0.79,8.22 2.59,12.22 2.57,3.05 6.69,4.6 12.22,4.6 0.6,0 1.23,-0.02 1.89,-0.06 18.83,-1.09 22,-5.27 22.48,-7.02 0.03,-0.1 0.05,-0.21 0.06,-0.31 0.59,-4.83 -0.66,-14.35 -9.29,-17.13 -0.75,-1.9 -2.58,-5.93 -5.68,-9.68 -4.43,-5.38 -9.94,-8.24 -15.92,-8.28l-0.12 0zm0 2.14l0.1 0c6.39,0.04 11.07,3.6 14.28,7.5 3.94,4.76 5.7,10.08 5.7,10.08 10.34,2.44 8.79,15.09 8.79,15.09 0,0 -1.2,4.33 -20.54,5.45 -0.61,0.03 -1.2,0.05 -1.76,0.05 -13.74,0 -13.39,-10.21 -12.69,-14.33 0.17,-1.07 0.39,-1.72 0.39,-1.72 -5.31,-4.19 -8.31,-22.13 5.73,-22.13z"/>
   <g>
    <image x="5.92" y="26.66" width="38.44" height="37.25" xlink:href="leafbottomleft_Images\leafbottomleft_ImgID39.png"/>
   </g>
   <path class="fil20" d="M32.36 57.14c-2.4,-1.54 -4.36,-3.31 -6.27,-5.23 -1.89,-1.91 -3.62,-3.97 -5.22,-6.1 -3.15,-4.31 -5.76,-8.97 -7.83,-13.83 2.4,4.71 5.3,9.15 8.67,13.17 1.72,1.99 3.53,3.87 5.48,5.6 1.94,1.7 4.06,3.34 6.2,4.52l0.07 0.03c0.52,0.29 0.71,0.94 0.42,1.46 -0.28,0.52 -0.93,0.71 -1.45,0.42l-0.06 -0.04z"/>
   <path class="fil26" d="M28.46 77.51l0.1 0c8.27,0 14.09,-5.78 14.33,-6.03 0.32,-0.32 0.4,-0.8 0.21,-1.21l-6.66 -14.18c-0.03,-0.12 -0.69,-3.07 -4.76,-4.31 -0.93,-0.3 -1.86,-0.45 -2.75,-0.45 -1.33,0 -2.34,0.33 -2.97,0.63 -0.9,-0.69 -2.68,-1.77 -5.12,-1.77 -0.99,0 -2,0.18 -3,0.53 -1.25,0.44 -2.38,1.72 -3.17,3.6 -2.5,5.99 -1.55,16.92 5.68,21.11 0.57,0.33 1.19,0.66 1.84,0.89 2.04,0.78 4.14,1.18 6.26,1.19z"/>
   <path class="fil24" d="M20.84 49.12c-1.11,0 -2.23,0.2 -3.34,0.59 -1.57,0.54 -2.89,2 -3.8,4.2 -2.6,6.21 -1.91,17.78 6.13,22.45 0.52,0.31 1.23,0.7 2.03,0.98 2.15,0.82 4.42,1.24 6.71,1.24 8.71,0 14.84,-6.09 15.09,-6.34 0.63,-0.64 0.8,-1.6 0.42,-2.42l-6.66 -14.25c-0.3,-0.95 -1.45,-3.61 -5.42,-4.82 -1.02,-0.32 -2.05,-0.49 -3.05,-0.49 -1.16,0 -2.11,0.22 -2.83,0.48 -1.11,-0.75 -2.91,-1.62 -5.27,-1.62zm0 2.14c3.12,0 5,2.01 5,2.01 0,0 1.1,-0.87 3.1,-0.87 0.7,0 1.51,0.11 2.43,0.4 3.52,1.07 4.03,3.52 4.03,3.52l6.73 14.41c0,0 -5.65,5.71 -13.57,5.71 -1.88,0 -3.89,-0.32 -5.99,-1.12 -0.6,-0.22 -1.16,-0.52 -1.67,-0.82 -6.94,-4.03 -7.42,-14.53 -5.23,-19.77 0.64,-1.54 1.54,-2.66 2.53,-3 0.96,-0.33 1.84,-0.47 2.64,-0.47z"/>
   <g>
    <image x="13.61" y="46.52" width="33.32" height="32.28" xlink:href="leafbottomleft_Images\leafbottomleft_ImgID40.png"/>
   </g>
   <path class="fil20" d="M39.88 68.55c-2.11,0.45 -3.87,0.47 -5.77,0.32 -1.85,-0.16 -3.67,-0.57 -5.37,-1.25 -3.42,-1.29 -6.27,-3.61 -8.39,-6.3 2.65,2.21 5.76,3.74 8.96,4.23 1.6,0.27 3.21,0.29 4.78,0.1 1.52,-0.17 3.19,-0.61 4.37,-1.15l0.06 -0.03c1.08,-0.5 2.36,-0.03 2.87,1.06 0.5,1.08 0.03,2.37 -1.06,2.87 -0.14,0.07 -0.3,0.12 -0.45,0.15z"/>
   <path class="fil27" d="M47.52 64.64l0.07 0c6.95,0 15.58,-4.26 17.87,-12.14 1.64,-5.58 0.34,-9.14 -1.05,-11.16 -0.84,-1.2 -1.79,-1.95 -2.38,-2.34 -0.85,-12.14 -7.45,-16.5 -13.42,-16.5 -7.26,0 -15.51,6.26 -16.17,16.55 -1.06,17.43 10.57,24.58 11.23,24.95 1.05,0.4 2.38,0.62 3.85,0.63z"/>
   <path class="fil24" d="M48.6 21.43l0 0c-7.74,0 -16.54,6.65 -17.23,17.38 -0,0.05 -0.01,0.27 -0.01,0.31 -1.09,17.95 11.08,25.42 11.6,25.73 0.1,0.06 0.21,0.12 0.32,0.16 1.21,0.47 2.65,0.7 4.31,0.7 7.35,0 16.47,-4.52 18.9,-12.91 1.76,-5.98 0.32,-9.86 -1.19,-12.06 -0.75,-1.08 -1.58,-1.84 -2.23,-2.32 -1.05,-12.49 -8.09,-16.98 -14.46,-16.98zm0 2.14c6.06,0 11.78,4.64 12.39,16.06 0,0 1.37,0.64 2.52,2.32 1.33,1.93 2.41,5.15 0.91,10.25 -2.26,7.8 -10.93,11.36 -16.84,11.36 -1.36,0 -2.57,-0.19 -3.53,-0.56 0,0 -11.58,-6.9 -10.55,-23.89l0 -0.17c0.6,-9.16 8.08,-15.37 15.1,-15.37z"/>
   <g>
    <image x="31.55" y="36.59" width="38.44" height="27.32" xlink:href="leafbottomleft_Images\leafbottomleft_ImgID41.png"/>
   </g>
   <path class="fil20" d="M47.56 57.15c-0.52,-4.02 -0.66,-7.97 -0.52,-11.95 0.14,-3.96 0.65,-7.92 1.64,-11.73 -1.25,7.77 -0.61,15.74 0.99,23.26l0.01 0.05c0.12,0.58 -0.24,1.15 -0.83,1.27 -0.58,0.12 -1.15,-0.25 -1.27,-0.83 -0,-0.03 -0.01,-0.06 -0.01,-0.09z"/>
   <path class="fil28" d="M31.81 54.98c-1.46,1.68 -2.08,3.7 -1.78,5.84 0.81,5.84 4.47,7.54 6.93,8.02 -1.25,1.9 -1.68,4.55 -0.98,7.03 0.99,3.52 3.88,5.62 7.72,5.62 0.41,0 0.83,-0.02 1.27,-0.06 2.91,-0.31 5.06,-1.46 6.37,-3.4 1.52,-2.23 1.53,-4.98 1.33,-6.7 0.37,0.04 0.73,0.06 1.09,0.06 3.41,0 6.11,-1.95 7.2,-5.23 1.2,-3.57 0.03,-7.57 -2.83,-9.74 -1.46,-1.1 -3.02,-1.67 -4.64,-1.67 -2.57,0 -4.69,1.42 -5.98,2.56 -1.59,-4.13 -5.13,-5.65 -8.17,-5.65 -2.87,0 -5.75,1.27 -7.53,3.31z"/>
   <path class="fil24" d="M39.35 50.6c-3.17,0 -6.37,1.41 -8.34,3.67 -1.65,1.9 -2.37,4.28 -2.03,6.69 0.68,4.9 3.37,7.5 6.39,8.56 -0.86,1.96 -1.06,4.34 -0.41,6.63 1.11,3.95 4.47,6.41 8.76,6.41 0.44,0 0.9,-0.03 1.38,-0.08 3.24,-0.35 5.64,-1.65 7.14,-3.86 1.36,-2 1.64,-4.34 1.6,-6.16 3.81,-0.03 6.93,-2.31 8.16,-5.96 1.34,-4 0.03,-8.49 -3.2,-10.94 -1.65,-1.25 -3.43,-1.89 -5.28,-1.89 -2.23,0 -4.15,0.94 -5.57,1.95 -1.96,-3.65 -5.5,-5.04 -8.58,-5.04zm0 2.14c3.36,0 6.68,1.92 7.66,6.65 0,0 2.76,-3.56 6.49,-3.56 1.24,0 2.59,0.39 3.99,1.45 5.04,3.81 3.22,13.04 -3.74,13.04 -0.74,0 -1.55,-0.11 -2.41,-0.34 0,0 2.6,9.39 -6.48,10.37 -0.4,0.05 -0.78,0.07 -1.15,0.07 -8.01,0 -8.68,-9.84 -4.32,-12.51 0,0 -0.24,0.03 -0.63,0.03 -1.77,0 -6.74,-0.61 -7.66,-7.27 -0.64,-4.62 3.84,-7.93 8.25,-7.93z"/>
   <path class="fil29" d="M45.05 64.42c0,0 0.18,-7.24 -6.08,-7.6 -6.26,-0.36 -4.56,6.42 -1.18,7.99 3.38,1.57 5.43,1.08 5.43,1.08 0,0 -3.32,4.9 -1.06,7.16 2.27,2.27 5.75,-1.08 5.72,-3.45 -0.03,-2.37 -0.31,-2.68 -0.31,-2.68 0,0 5.82,2.47 7.37,-2.14 1.54,-4.61 -0.98,-5.98 -3.97,-5.38 -2.99,0.59 -5.93,5.02 -5.93,5.02z"/>
   <path class="fil30" d="M45.79 69.49c-0.33,1.3 -1.01,2.24 -1.53,2.11 -0.52,-0.13 -0.68,-1.29 -0.35,-2.58 0.33,-1.3 1.01,-2.24 1.53,-2.11 0.52,0.13 0.68,1.29 0.35,2.58z"/>
   <path class="fil30" d="M49.62 64c1.27,-0.4 2.44,-0.31 2.6,0.2 0.16,0.51 -0.74,1.25 -2.01,1.65 -1.28,0.4 -2.44,0.31 -2.6,-0.2 -0.16,-0.51 0.74,-1.25 2.02,-1.65z"/>
   <path class="fil30" d="M41.31 64.12c-1.16,-0.67 -1.88,-1.59 -1.61,-2.05 0.27,-0.46 1.42,-0.3 2.58,0.37 1.16,0.67 1.88,1.59 1.61,2.05 -0.27,0.46 -1.42,0.3 -2.58,-0.37z"/>
   <path class="fil31" d="M83.41 0.91l-0.17 0c-3.5,0.02 -7.18,0.73 -10.43,2.04 -3.12,1.25 -5.56,2.96 -6.86,4.81 -1.14,1.61 -1.77,3.14 -1.92,4.67 -0.23,2.34 0.78,3.96 1.47,4.77 -0.69,1.17 -1.93,3.75 -1.54,6.56 0.29,2.24 1.49,4.15 3.59,5.66 3.76,2.68 6.75,3.25 8.58,3.25 0.76,0 1.38,-0.09 1.83,-0.2 0.85,1.84 3.32,6.1 8.27,6.6 0.41,0.04 0.81,0.06 1.19,0.06 4.04,0 6.16,-2.22 6.99,-3.38 0.49,0.13 1.18,0.27 2,0.27 1.95,0 3.76,-0.76 5.24,-2.19 2.92,-2.76 2.78,-6.86 2.57,-8.52 0.47,-0.31 0.87,-0.75 1.18,-1.33 0.94,-1.77 0.91,-4.58 -0.08,-7.56 -0.93,-2.73 -3.08,-6.84 -8.06,-10.92 -3.65,-3.01 -8.44,-4.6 -13.86,-4.6z"/>
   <path class="fil20" d="M83.4 0l0 0c-3.66,0 -7.52,0.74 -10.86,2.07l0 0c-0.05,0.02 -0.09,0.04 -0.14,0.06 -3.26,1.31 -5.82,3.13 -7.21,5.11 -1.24,1.75 -1.92,3.42 -2.08,5.12 -0.21,2.1 0.49,3.8 1.29,4.94 -0.75,1.44 -1.72,3.92 -1.35,6.6 0.32,2.48 1.65,4.6 3.95,6.27 3.97,2.83 7.15,3.42 9.13,3.42 0.49,0 0.93,-0.03 1.32,-0.09 1.15,2.2 3.81,5.99 8.69,6.49 0.45,0.04 0.87,0.06 1.28,0.06 3.92,0 6.22,-1.92 7.35,-3.27 0.47,0.09 1.02,0.15 1.64,0.15 2.19,0 4.23,-0.84 5.89,-2.45 2.91,-2.75 3.05,-6.7 2.89,-8.75 0.4,-0.35 0.75,-0.8 1.02,-1.33 1.05,-1.99 1.06,-4.93 0.03,-8.09 -0.01,-0.06 -0.03,-0.13 -0.05,-0.19 -0.97,-2.84 -3.2,-7.11 -8.34,-11.33 -3.81,-3.14 -8.81,-4.8 -14.44,-4.8zm0 1.82c4.66,0 9.45,1.24 13.28,4.39 4.27,3.5 6.68,7.3 7.77,10.51l0 0.04c1.42,4.23 0.58,7.52 -1.24,8.03 0,0 1.13,5.25 -2.19,8.39 -1.59,1.54 -3.29,1.94 -4.62,1.94 -1.4,0 -2.38,-0.45 -2.38,-0.45 0,0 -1.75,3.56 -6.61,3.56 -0.35,0 -0.71,-0.02 -1.09,-0.06 -5.69,-0.58 -7.84,-6.82 -7.84,-6.82 0,0 -0.82,0.42 -2.34,0.42 -1.79,0 -4.55,-0.57 -8.05,-3.08 -2.12,-1.53 -2.99,-3.32 -3.21,-5.04 -0.48,-3.43 1.79,-6.57 1.79,-6.57 0,0 -2.01,-1.6 -1.72,-4.56 0.11,-1.2 0.58,-2.59 1.75,-4.23 1.2,-1.72 3.54,-3.32 6.45,-4.49 0.04,-0.04 0.04,-0.04 0.07,-0.04 2.96,-1.18 6.54,-1.94 10.19,-1.94z"/>
   <g>
    <image x="62.3" y="1.82" width="46.13" height="37.25" xlink:href="leafbottomleft_Images\leafbottomleft_ImgID42.png"/>
   </g>
   <g>
    <image x="62.3" y="1.82" width="46.13" height="37.25" xlink:href="leafbottomleft_Images\leafbottomleft_ImgID43.png"/>
   </g>
   <path class="fil20" d="M70.76 12.49c1.01,-1.15 2.36,-1.53 3.71,-1.84 1.35,-0.09 2.9,-0.08 4.05,0.98 -1.42,0.45 -2.55,0.56 -3.8,0.82 -1.26,0.08 -2.48,0.32 -3.96,0.03z"/>
   <path class="fil20" d="M72.85 23.05c0.66,-1.32 1.75,-2.02 2.84,-2.72 1.17,-0.49 2.47,-1.05 3.91,-0.63 -1.01,1.03 -2.01,1.58 -3.07,2.24 -1.14,0.47 -2.23,1.06 -3.69,1.1z"/>
   <path class="fil20" d="M86.75 30.04c-0.47,-1.24 -0.33,-2.29 -0.3,-3.35 0.22,-1.06 0.36,-2 0.92,-3.17 0.95,0.99 0.92,2.28 0.89,3.4 -0.25,1.11 -0.51,2.23 -1.51,3.13z"/>
   <path class="fil20" d="M97.85 27.24c-0.92,-0.9 -1.2,-1.86 -1.6,-2.8 -0.2,-1.02 -0.47,-1.9 -0.34,-3.17 1.21,0.54 1.67,1.65 2.08,2.64 0.21,1.08 0.42,2.16 -0.14,3.34z"/>
   <path class="fil20" d="M101.27 17.15c-1.25,-0.21 -2,-0.86 -2.83,-1.43 -0.7,-0.73 -1.35,-1.35 -1.91,-2.45 1.3,-0.23 2.25,0.49 3.1,1.07 0.72,0.77 1.45,1.54 1.63,2.81z"/>
  </g>
 </g>
</svg>
