<?xml version="1.0" encoding="UTF-8"?>
<!DOCTYPE svg PUBLIC "-//W3C//DTD SVG 1.1//EN" "http://www.w3.org/Graphics/SVG/1.1/DTD/svg11.dtd">
<!-- Creator: CorelDRAW -->
<svg xmlns="http://www.w3.org/2000/svg" xml:space="preserve" width="12.1607mm" height="12.8315mm" version="1.1" style="shape-rendering:geometricPrecision; text-rendering:geometricPrecision; image-rendering:optimizeQuality; fill-rule:evenodd; clip-rule:evenodd"
viewBox="0 0 412.09 434.82"
 xmlns:xlink="http://www.w3.org/1999/xlink"
 xmlns:xodm="http://www.corel.com/coreldraw/odm/2003">
 <defs>
  <style type="text/css">
   <![CDATA[
    .str0 {stroke:#964919;stroke-width:5.86;stroke-linecap:round;stroke-linejoin:round;stroke-miterlimit:10}
    .fil5 {fill:none;fill-rule:nonzero}
    .fil7 {fill:#573E2E;fill-rule:nonzero}
    .fil1 {fill:#964919;fill-rule:nonzero}
    .fil9 {fill:#BE4625;fill-rule:nonzero}
    .fil14 {fill:#DEA26B;fill-rule:nonzero}
    .fil2 {fill:#E9AC84;fill-rule:nonzero}
    .fil13 {fill:#FEE2C1;fill-rule:nonzero}
    .fil3 {fill:url(#id0)}
    .fil0 {fill:url(#id1)}
    .fil11 {fill:url(#id2)}
    .fil8 {fill:url(#id3)}
    .fil20 {fill:url(#id4)}
    .fil19 {fill:url(#id5)}
    .fil17 {fill:url(#id6)}
    .fil10 {fill:url(#id7)}
    .fil16 {fill:url(#id8)}
    .fil21 {fill:url(#id9)}
    .fil6 {fill:url(#id10)}
    .fil18 {fill:url(#id11)}
    .fil15 {fill:url(#id12)}
    .fil24 {fill:url(#id13)}
    .fil12 {fill:url(#id14)}
    .fil23 {fill:url(#id15)}
    .fil22 {fill:url(#id16)}
    .fil4 {fill:url(#id17)}
   ]]>
  </style>
  <radialGradient id="id0" gradientUnits="userSpaceOnUse" gradientTransform="matrix(0.805504 -0 -0 -0.799865 46 528)" cx="236.39" cy="293.59" r="66.96" fx="236.39" fy="293.59">
   <stop offset="0" style="stop-opacity:1; stop-color:#FFFDFF"/>
   <stop offset="0.0784314" style="stop-opacity:1; stop-color:#FFFDFF"/>
   <stop offset="0.337255" style="stop-opacity:1; stop-color:#FEFEFB"/>
   <stop offset="1" style="stop-opacity:1; stop-color:#FEFEF8"/>
   <stop offset="1" style="stop-opacity:1; stop-color:#FEFEF8"/>
  </radialGradient>
  <radialGradient id="id1" gradientUnits="userSpaceOnUse" gradientTransform="matrix(1.37146 1.12833 1.09216 -1.41688 -309 233)" cx="230.96" cy="204.37" r="121.38" fx="230.96" fy="204.37">
   <stop offset="0" style="stop-opacity:1; stop-color:#FFFFC7"/>
   <stop offset="0.0784314" style="stop-opacity:1; stop-color:#FFFFC7"/>
   <stop offset="0.27451" style="stop-opacity:1; stop-color:#FFF3B9"/>
   <stop offset="0.780392" style="stop-opacity:1; stop-color:#FFE8AB"/>
   <stop offset="1" style="stop-opacity:1; stop-color:#FFE8AB"/>
  </radialGradient>
  <radialGradient id="id2" gradientUnits="userSpaceOnUse" gradientTransform="matrix(1.82509 0.369804 0.358638 -1.8819 -177 1136)" cx="40.82" cy="399.42" r="31.99" fx="40.82" fy="399.42">
   <stop offset="0" style="stop-opacity:1; stop-color:#FFEE77"/>
   <stop offset="0.0784314" style="stop-opacity:1; stop-color:#FFEE77"/>
   <stop offset="0.529412" style="stop-opacity:1; stop-color:#F5D055"/>
   <stop offset="1" style="stop-opacity:1; stop-color:#EBB234"/>
   <stop offset="1" style="stop-opacity:1; stop-color:#EBB234"/>
  </radialGradient>
  <radialGradient id="id3" gradientUnits="userSpaceOnUse" gradientTransform="matrix(-0.146162 2.16451 2.11477 0.149598 341 -694)" xlink:href="#id2" cx="327.11" cy="16.07" r="45.76" fx="327.11" fy="16.07">
  </radialGradient>
  <radialGradient id="id4" gradientUnits="userSpaceOnUse" gradientTransform="matrix(6.15901 8.88019 8.88019 -6.15901 -1272 -4424)" xlink:href="#id0" cx="417.94" cy="-99.52" r="19.53" fx="417.94" fy="-99.52">
  </radialGradient>
  <radialGradient id="id5" gradientUnits="userSpaceOnUse" gradientTransform="matrix(8.49355 7.49413 7.49384 -8.49323 -4759 -5355)" xlink:href="#id0" cx="670.14" cy="-35.07" r="18.55" fx="670.14" fy="-35.07">
  </radialGradient>
  <radialGradient id="id6" gradientUnits="userSpaceOnUse" gradientTransform="matrix(5.84574 9.20727 8.91356 -6.03837 143 -3328)" xlink:href="#id0" cx="246.65" cy="-150.11" r="19.35" fx="246.65" fy="-150.11">
  </radialGradient>
  <radialGradient id="id7" gradientUnits="userSpaceOnUse" gradientTransform="matrix(1.02266 -1.84685 -1.63748 -1.15334 441 1180)" xlink:href="#id2" cx="319.88" cy="273.82" r="65.14" fx="319.88" fy="273.82">
  </radialGradient>
  <radialGradient id="id8" gradientUnits="userSpaceOnUse" gradientTransform="matrix(2.03887 0.518183 0.505984 -2.08791 -394 946)" xlink:href="#id2" cx="212.8" cy="342" r="65.93" fx="212.8" fy="342">
  </radialGradient>
  <radialGradient id="id9" gradientUnits="userSpaceOnUse" gradientTransform="matrix(-6.79005 7.74573 7.74571 6.79003 2679 -5118)" xlink:href="#id0" cx="524.76" cy="181.93" r="20.23" fx="524.76" fy="181.93">
  </radialGradient>
  <radialGradient id="id10" gradientUnits="userSpaceOnUse" gradientTransform="matrix(5.51739 4.29958 4.39378 -5.39909 -1917 405)" xlink:href="#id1" cx="219.38" cy="210.77" r="25.54" fx="219.38" fy="210.77">
  </radialGradient>
  <radialGradient id="id11" gradientUnits="userSpaceOnUse" gradientTransform="matrix(2.93206 11.0591 11.0587 -2.93195 2686 -5800)" xlink:href="#id0" cx="412.44" cy="-314.96" r="18.58" fx="412.44" fy="-314.96">
  </radialGradient>
  <radialGradient id="id12" gradientUnits="userSpaceOnUse" gradientTransform="matrix(-8.34861 6.12839 6.12837 8.34858 6857 -5765)" xlink:href="#id0" cx="806.69" cy="111.72" r="20.31" fx="806.69" fy="111.72">
  </radialGradient>
  <radialGradient id="id13" gradientUnits="userSpaceOnUse" gradientTransform="matrix(-0.523089 1.54397 1.48883 0.54249 -431 117)" xlink:href="#id2" cx="14.57" cy="304.18" r="22.3" fx="14.57" fy="304.18">
  </radialGradient>
  <radialGradient id="id14" gradientUnits="userSpaceOnUse" gradientTransform="matrix(-10.7232 1.56622 1.56629 10.7236 8845 -3761)" xlink:href="#id0" cx="789.2" cy="259.64" r="19.65" fx="789.2" fy="259.64">
  </radialGradient>
  <radialGradient id="id15" gradientUnits="userSpaceOnUse" gradientTransform="matrix(7.71657 1.0896 1.05669 -7.95753 648 223)" xlink:href="#id0" cx="-98.56" cy="12.86" r="26.53" fx="-98.56" fy="12.86">
  </radialGradient>
  <radialGradient id="id16" gradientUnits="userSpaceOnUse" gradientTransform="matrix(8.49449 7.49438 7.49438 -8.49449 -3476 -3747)" xlink:href="#id0" cx="479.74" cy="-15.93" r="18.55" fx="479.74" fy="-15.93">
  </radialGradient>
  <radialGradient id="id17" gradientUnits="userSpaceOnUse" gradientTransform="matrix(6.13663 4.84163 4.88685 -6.07968 -2263 317)" xlink:href="#id1" cx="241.07" cy="209.68" r="22.45" fx="241.07" fy="209.68">
  </radialGradient>
 </defs>
 <g id="Layer_x0020_1">
  <metadata id="CorelCorpID_0Corel-Layer"/>
  <g id="_2805580608624">
   <path class="fil0" d="M156.55 94.8c-4.63,4.3 -6.89,9.35 -6.67,15.04 0.28,7.64 5.02,14.87 9.42,19.96 -2.84,-0.47 -5.98,-0.8 -8.88,-0.8 -5.67,0 -9.41,1.28 -11.5,3.93 -1.09,1.39 -2.19,3.84 -1.25,7.64 1.71,6.9 7.45,11.25 16.37,12.63 -7.67,5.06 -16.06,13.72 -15.51,27.32 0.64,16.93 5.98,24.61 9.19,27.75 -16.03,29.19 -14.98,61.86 2.9,87.83 4.58,6.74 10.28,12.91 16.98,18.33 14.93,12.02 33.69,18.61 52.84,18.61l2.5 -0.03c50.7,-1.51 76.13,-29.72 82.7,-38.3 1.64,-2.1 2.51,-3.46 2.51,-3.48 7.62,-9.7 12.24,-21.96 13.39,-35.49 1.7,-20.5 -3.6,-53.69 -38.46,-95.48 -30.48,-36.6 -57.04,-44.29 -73.94,-44.29 -5.75,0 -10.09,0.91 -12.66,1.66 -3.78,-7.33 -15.36,-27.34 -29.18,-27.34 -3.81,0 -7.42,1.52 -10.75,4.53z"/>
   <path class="fil1" d="M167.3 87.34c-4.58,0 -8.84,1.78 -12.69,5.29 -5.25,4.86 -7.89,10.83 -7.65,17.32 0.2,5.91 2.74,11.5 5.85,16.19 -0.81,-0.05 -1.61,-0.07 -2.39,-0.07 -6.61,0 -11.12,1.65 -13.79,5.06 -1.49,1.9 -3.02,5.2 -1.83,10.14 1.6,6.36 5.94,10.88 12.59,13.29 -6.54,5.7 -12.28,14.13 -11.79,26.09 0.57,15.34 5.01,23.73 8.57,28.03 -15.53,29.72 -14.12,62.71 4.05,89.1 4.71,6.95 10.62,13.32 17.51,18.91 15.48,12.44 34.9,19.28 54.68,19.28 0.87,0 1.75,-0.01 2.62,-0.05 51.96,-1.54 78.15,-30.6 84.92,-39.46 1.87,-2.4 2.8,-3.89 2.8,-3.89 7.65,-9.68 12.49,-22.5 13.7,-36.6 1.75,-21.04 -3.61,-55.06 -39.12,-97.61 -31.23,-37.48 -58.68,-45.34 -76.2,-45.34 -4.63,0 -8.39,0.56 -11.17,1.2 -4.87,-8.88 -16.49,-26.87 -30.68,-26.87zm0 5.86c14.56,0 27.7,28.03 27.7,28.03 0,0 5.18,-2.36 14.13,-2.36 15.21,0 41.33,6.77 71.72,43.24 30.71,36.82 39.8,68.98 37.77,93.37 -1.2,14.11 -6.22,25.58 -12.79,33.95 0,0 -0.83,1.31 -2.51,3.47 -7.41,9.68 -32.4,35.74 -80.45,37.18 -0.81,0.02 -1.63,0.04 -2.44,0.04 -19.16,0 -37,-6.73 -51,-17.97 -6.34,-5.14 -11.82,-11 -16.38,-17.69 -16.13,-23.43 -19.84,-55.47 -1.56,-86.91 0,0 -9.2,-5.02 -10.04,-27.14 -0.83,-20.44 21.28,-28.81 24.74,-30 -0.89,0.09 -3.05,0.33 -5.74,0.33 -6.97,0 -17.63,-1.54 -19.96,-10.85 -1.51,-6.2 3.65,-7.95 9.92,-7.95 8.13,0 18.17,2.93 18.17,2.93 0,0 -27.38,-21.88 -10.03,-37.9 2.9,-2.65 5.86,-3.76 8.75,-3.76z"/>
   <g>
    <image x="139.16" y="84.64" width="190.53" height="216.76" xlink:href="leafbottomright_Images\leafbottomright_ImgID1.png"/>
   </g>
   <path class="fil2" d="M252.1 185.94c0,5.44 -5.73,9.84 -12.81,9.84 -7.07,0 -12.79,-4.4 -12.79,-9.84 0,-5.44 5.72,-9.84 12.79,-9.84 7.08,0 12.81,4.4 12.81,9.84z"/>
   <path class="fil2" d="M187.44 201.55c2.41,4.87 -0.76,11.36 -7.08,14.5 -6.34,3.15 -13.43,1.76 -15.84,-3.11 -2.43,-4.87 0.75,-11.36 7.08,-14.51 6.32,-3.14 13.41,-1.75 15.84,3.12z"/>
   <path class="fil3" d="M232.28 257.62c-43.25,5.43 -57.99,37.55 -62.86,54.52 14.6,11.69 33.38,18.5 53.4,17.94 48.12,-1.39 73.02,-27.53 80.53,-37.13 -12.04,-16.75 -32.29,-35.9 -62.1,-35.9 -2.89,0 -5.88,0.18 -8.97,0.56z"/>
   <path class="fil4" d="M258.61 275.1c11.24,16.57 34.92,-4.16 34.92,-4.16l-23.08 -34.32c0,0 -23.08,21.9 -11.83,38.48z"/>
   <path class="fil5 str0" d="M270.45 236.62c0,0 -23.08,21.9 -11.84,38.47 11.24,16.57 34.92,-4.13 34.92,-4.13"/>
   <path class="fil6" d="M164.2 257.92c8.3,26.93 31.67,42.92 46.17,25.75 14.5,-17.15 -7.69,-39.95 -7.69,-39.95l-38.48 14.2z"/>
   <path class="fil5 str0" d="M202.68 243.72c0,0 22.19,22.79 7.7,39.95 -14.5,17.15 -37.89,1.18 -46.17,-25.75"/>
   <path class="fil1" d="M213.16 178.56c3.21,-2.62 6.6,-3.27 10.14,-3.91 3.54,-0.13 7.12,0.13 10.28,1.57 1.49,0.68 2.15,2.45 1.47,3.94 -0.52,1.11 -1.63,1.76 -2.78,1.73l-0.14 0c-2.86,-0.07 -5.52,-0.38 -8.18,0 -2.6,-0.01 -5.37,0.91 -7.51,1.51l-0.68 0.19c-1.54,0.43 -3.13,-0.48 -3.56,-2.02 -0.31,-1.14 0.09,-2.31 0.96,-3.01z"/>
   <path class="fil1" d="M171.73 197.6c1.51,-3.15 3.83,-5.25 6.49,-7.18 2.75,-1.67 5.99,-3.09 9.49,-2.82 1.67,0.12 2.93,1.59 2.8,3.26 -0.07,0.92 -0.54,1.71 -1.23,2.21l-0.34 0.25c-2.1,1.53 -4.17,2.53 -6.2,4.02 -2.11,1.23 -4.22,2.89 -6.52,4.02l-0.45 0.23c-1.49,0.74 -3.29,0.12 -4.02,-1.36 -0.42,-0.86 -0.39,-1.82 -0.02,-2.62z"/>
   <path class="fil7" d="M201.94 202.29c0,0 7.54,-0.88 7.7,-3.85 0.14,-2.95 -4.73,-7.4 -7.4,-6.8 -2.67,0.59 -2.81,9.61 -0.3,10.65z"/>
   <path class="fil8" d="M300.46 14.63c-7.39,9.06 -10.26,20.97 -7.73,33.02 7.9,37.4 36.6,45.71 38.22,46.12 0.55,0.06 1.11,0.08 1.72,0.08 13.05,0 37.24,-14.06 37.55,-37.02 0.23,-12.74 -4.6,-19.5 -8.69,-22.95 -2.47,-2.06 -4.9,-3.07 -6.37,-3.55 -6.29,-17.81 -17.48,-27.98 -30.82,-27.98 -8.81,0 -17.52,4.47 -23.87,12.29z"/>
   <path class="fil1" d="M324.34 0c-9.53,0 -18.9,4.79 -25.7,13.15 -7.84,9.61 -10.86,22.22 -8.31,34.61 0.01,0.09 0.15,0.56 0.17,0.66 8.13,38.51 38.16,47.21 39.42,47.56 0.26,0.07 0.52,0.12 0.78,0.14 0.62,0.06 1.28,0.09 1.96,0.09 13.88,0 39.58,-14.94 39.92,-39.35 0.23,-13.65 -5.07,-20.99 -9.54,-24.76 -2.21,-1.85 -4.4,-2.97 -6.06,-3.61 -6.72,-18.15 -18.52,-28.49 -32.64,-28.49zm0 4.7c11.01,0 22.38,7.78 28.99,27.57 0,0 3.27,0.56 6.68,3.42 3.93,3.3 8.07,9.47 7.87,21.1 -0.28,21.03 -22.87,34.73 -35.22,34.73 -0.51,0 -1.02,-0.02 -1.48,-0.07 0,0 -28.45,-7.83 -36.16,-44.27l-0.09 -0.36c-4.65,-22.5 11.94,-42.11 29.42,-42.11z"/>
   <g>
    <image x="294.41" y="35.69" width="84.68" height="55.93" xlink:href="leafbottomright_Images\leafbottomright_ImgID2.png"/>
   </g>
   <path class="fil9" d="M335.16 77.05c-6.64,-16.25 -11.07,-33.3 -11.41,-50.61 1.88,17.13 7.87,33.58 15.61,48.52l0.05 0.12c0.61,1.16 0.15,2.57 -1.01,3.17 -1.15,0.6 -2.57,0.14 -3.17,-1 -0.03,-0.06 -0.06,-0.13 -0.08,-0.19z"/>
   <path class="fil10" d="M293.77 193.17c-8.82,15.92 -7.28,27.7 -4.44,34.79 1.73,4.25 4.11,7.17 5.66,8.76 -3.84,25.34 2.94,39.73 9.39,47.36 7.2,8.5 17.74,13.19 29.69,13.19 18.98,0 43.09,-12.5 51.28,-40.48 15.12,-52.49 -15.47,-82.24 -17.23,-83.84 -5.67,-3.79 -14.6,-5.96 -24.52,-5.96 -17.13,0 -39.22,6.89 -49.84,26.18z"/>
   <path class="fil1" d="M343.62 163.64c-18.1,0 -41.47,7.34 -52.79,27.93 -9.47,17.06 -7.72,29.87 -4.6,37.63 1.54,3.83 3.56,6.68 5.22,8.62 -3.51,25.61 3.61,40.43 10.38,48.43 7.84,9.26 19.28,14.37 32.24,14.37 24.69,0 47.05,-17.42 54.37,-42.35 0.04,-0.14 0.19,-0.81 0.23,-0.96 15.6,-54.02 -16.43,-85.14 -17.8,-86.44 -0.27,-0.26 -0.57,-0.49 -0.88,-0.7 -6.2,-4.15 -15.82,-6.53 -26.36,-6.53zm0 6.71c9.29,0 17.6,2.03 22.64,5.4 0,0 30.62,28.99 15.87,80.11l-0.13 0.51c-7.02,23.93 -28.4,37.54 -47.93,37.54 -22.37,0 -42.31,-17.84 -35.49,-58.42 0,0 -3.74,-2.89 -6.13,-8.8 -2.74,-6.79 -3.81,-17.33 4.26,-31.89 9.74,-17.69 29.98,-24.45 46.92,-24.45z"/>
   <g>
    <image x="287.35" y="161.55" width="98.79" height="97.89" xlink:href="leafbottomright_Images\leafbottomright_ImgID3.png"/>
   </g>
   <path class="fil9" d="M351.56 191.22c-1.16,12.61 -3.43,24.77 -6.57,36.81 -3.14,12 -7.39,23.72 -13.03,34.68 9.14,-22.86 12.63,-47.62 12.9,-71.68l0 -0.16c0.02,-1.85 1.54,-3.35 3.4,-3.32 1.85,0.02 3.35,1.54 3.32,3.41 0,0.08 -0.01,0.18 -0.01,0.26z"/>
   <path class="fil11" d="M90.96 328.71l-0.03 0c-1,0.03 -25.28,1.14 -27.94,21.48 -2.72,1.49 -10.41,6.09 -17.08,13.45 -8.64,9.52 -12.27,19.84 -10.77,30.69 1.64,11.8 9.15,18.55 20.62,18.55 9.78,0 21.18,-5.24 25.82,-11.69 0.75,0.06 1.82,0.12 3.24,0.13 5.13,0 14.58,-1.05 20.36,-8.13 4.77,-5.83 6.03,-14.42 3.74,-25.53 -7.32,-35.85 -15.97,-38.73 -17.96,-38.95z"/>
   <path class="fil1" d="M91 326.67l-0.09 0c-9.28,0.2 -26.91,5.18 -29.8,22.24 -3.37,1.94 -10.49,6.49 -16.72,13.38 -8.94,9.84 -12.85,21.02 -11.28,32.34 1.79,12.91 10.05,20.31 22.65,20.31 10.08,0 21.37,-5.03 26.76,-11.61 0.4,0.02 0.84,0.05 1.31,0.05l0.96 0.01c5.5,0 15.66,-1.16 21.97,-8.89 5.16,-6.33 6.56,-15.49 4.16,-27.24 -7.21,-35.29 -15.96,-40.12 -19.4,-40.56 -0.17,-0.03 -0.34,-0.03 -0.52,-0.03zm0 4.09c0,0 8.51,1.09 15.91,37.31 5.74,28.08 -13.33,31.23 -22.13,31.23 -0.31,0 -0.61,-0.01 -0.9,-0.01 -2.07,-0.03 -3.35,-0.26 -3.35,-0.26 -3.48,6 -14.62,11.82 -24.79,11.82 -8.81,0 -16.88,-4.36 -18.6,-16.78 -1.66,-12.09 3.78,-21.89 10.27,-29.04 7.91,-8.75 17.48,-13.52 17.48,-13.52 1.8,-20.19 26.11,-20.74 26.11,-20.74z"/>
   <g>
    <image x="47.42" y="322.38" width="70.57" height="76.91" xlink:href="leafbottomright_Images\leafbottomright_ImgID4.png"/>
   </g>
   <path class="fil9" d="M95.69 347.1c-4.57,9.67 -11.08,17.53 -18.25,24.81 -7.28,7.13 -15.37,13.34 -23.99,18.59 8.26,-5.81 15.84,-12.53 22.51,-19.99 6.5,-7.49 12.42,-15.93 15.91,-24.84l0.07 -0.18c0.41,-1.06 1.6,-1.58 2.65,-1.16 1.05,0.41 1.58,1.59 1.16,2.64 -0.02,0.05 -0.04,0.1 -0.06,0.13z"/>
   <path class="fil12" d="M380.85 71.94l-0.1 0 -0.1 0 -0.09 0c-12.71,0 -18.95,7.54 -21.84,13.15 -4.1,-5.83 -11.85,-9.86 -19.96,-9.86 -11.17,0 -19.41,7.28 -22.07,19.47 -1.77,8.21 -0.6,15.08 3.48,20.4 4.98,6.5 13.05,8.94 17.87,9.83 -3.53,7.08 -3.65,14.23 -0.26,20.49 4.08,7.54 12.95,12.63 22.09,12.63 4.87,0 9.5,-1.42 13.41,-4.11 12.67,-8.73 10.72,-22.09 6.79,-30.54 15.78,-0.29 23.93,-12.09 25,-23.79 1.06,-11.6 -4.71,-24.6 -17.79,-27 -2.31,-0.43 -4.45,-0.63 -6.43,-0.64z"/>
   <path class="fil1" d="M380.55 69.42c-11.08,0 -18.14,5.42 -22.2,11.25 -4.79,-4.86 -11.95,-7.95 -19.6,-7.95 -12.44,0 -21.6,8.02 -24.51,21.46 -1.94,8.97 -0.62,16.52 3.92,22.45 4.5,5.86 11.21,8.7 16.34,10.08 -2.6,6.86 -2.26,13.75 1.06,19.91 4.56,8.46 14.1,13.94 24.29,13.94 5.38,0 10.52,-1.58 14.85,-4.55 12.48,-8.59 12.23,-21.15 9,-30.34 14.99,-1.91 22.79,-13.92 23.87,-25.84 1.16,-12.72 -5.28,-27.02 -19.84,-29.71 -2.49,-0.45 -4.9,-0.69 -7.18,-0.69zm0 5.03c1.92,0 4,0.19 6.26,0.61 22.81,4.21 21.6,45.81 -7.33,45.81 -1.23,0 -2.5,-0.07 -3.83,-0.23 0,0 13.14,19.55 -3.82,31.21 -3.67,2.52 -7.85,3.66 -11.99,3.66 -14.95,0 -29.42,-14.86 -17.78,-32.58 0,0 -28.61,-1.45 -22.93,-27.7 2.72,-12.6 11.15,-17.49 19.59,-17.49 9.17,0 18.34,5.77 20.19,13.75 0,0 3.37,-17.05 21.62,-17.05z"/>
   <path class="fil13" d="M363.46 110.54c0,0 20.03,7.21 26.84,-9.93 6.8,-17.13 -13.68,-18.66 -21.18,-10.7 -7.52,7.96 -8.06,14.17 -8.06,14.17 0,0 -10.58,-13.8 -19.01,-9.58 -8.43,4.23 -2.3,17.04 4.34,19.15 6.64,2.13 7.76,1.62 7.76,1.62 0,0 -12.29,13.95 -0.86,22.53 11.44,8.58 17.58,2.81 18.7,-6.08 1.13,-8.88 -8.52,-21.19 -8.52,-21.19z"/>
   <path class="fil14" d="M348.62 107.91c-3.31,-2.12 -5.31,-4.9 -4.46,-6.23 0.85,-1.33 4.22,-0.69 7.53,1.42 3.31,2.1 5.3,4.9 4.45,6.23 -0.84,1.32 -4.21,0.69 -7.52,-1.42z"/>
   <path class="fil14" d="M360.41 123.69c-0.06,3.93 -1.39,7.09 -2.97,7.06 -1.58,-0.02 -2.8,-3.23 -2.75,-7.15 0.07,-3.93 1.4,-7.09 2.98,-7.07 1.57,0.02 2.8,3.23 2.74,7.15z"/>
   <path class="fil14" d="M367.76 100.38c2.93,-2.61 6.16,-3.77 7.21,-2.6 1.04,1.18 -0.49,4.26 -3.42,6.86 -2.93,2.61 -6.16,3.76 -7.21,2.58 -1.05,-1.17 0.48,-4.24 3.42,-6.85z"/>
   <path class="fil15" d="M379.49 131.1l-0.09 0 -0.09 0c-1.91,0.02 -3.85,0.32 -5.75,0.9 -16.83,5.02 -19.71,16.76 -19.75,24.11 -3,-1.62 -6.61,-2.46 -10.48,-2.46 -7.75,0 -14.96,3.35 -19.28,8.99 -3.01,3.91 -6.03,10.77 -3.25,21.2 4.13,15.48 14.58,18.74 22.63,18.74 3.95,0 7.58,-0.8 10.14,-1.57 0.06,6.04 1.92,11.23 5.48,15.18 4.1,4.58 10.34,7.2 17.1,7.2 9.37,0 17.79,-4.83 22.01,-12.62 7.31,-13.52 -0.51,-24.53 -7.88,-30.27 11.98,-6.39 14.75,-17.7 13.11,-26.76 -2.32,-12.9 -12.59,-22.63 -23.87,-22.63z"/>
   <path class="fil1" d="M379.49 128.59c-2.23,0 -4.47,0.34 -6.67,0.99 -14.93,4.47 -20.29,14.23 -21.42,22.79 -2.5,-0.81 -5.22,-1.24 -8.08,-1.24 -8.53,0 -16.5,3.73 -21.29,9.97 -3.36,4.36 -6.72,11.97 -3.68,23.39 3.54,13.29 12.43,20.61 25.07,20.61 2.83,0 5.51,-0.38 7.79,-0.87 0.74,6.48 3.44,10.89 5.93,13.65 4.59,5.12 11.5,8.04 18.98,8.04 10.29,0 19.57,-5.33 24.21,-13.93 7.21,-13.34 1.27,-24.4 -5.8,-31.12 10.55,-7.19 12.96,-18.42 11.31,-27.58 -2.53,-14.08 -13.87,-24.7 -26.35,-24.7zm0 5.04c20.47,0 34,35.87 5.59,46.44 0,0 20.6,11.42 10.82,29.52 -4.04,7.48 -12.03,11.3 -19.78,11.3 -11.02,0 -21.6,-7.69 -19.88,-23.48 0,0 -5.89,2.65 -12.83,2.65 -7.67,0 -16.58,-3.24 -20.2,-16.87 -4.76,-17.91 8.25,-27.03 20.11,-27.03 5.34,0 10.46,1.85 13.61,5.58 0,0 -5.82,-20.42 17.35,-27.34 1.77,-0.53 3.51,-0.78 5.22,-0.78z"/>
   <path class="fil13" d="M369.63 176.64c0,0 21.12,-2.71 19.38,-21.06 -1.76,-18.35 -20.68,-10.39 -23.74,0.13 -3.06,10.49 -0.72,16.27 -0.72,16.27 0,0 -15.71,-7.47 -21.29,0.13 -5.57,7.59 5.72,16.21 12.59,15.07 6.88,-1.14 7.65,-2.09 7.65,-2.09 0,0 -4.59,18.01 9.5,20.45 14.08,2.44 16.93,-5.51 13.87,-13.94 -3.05,-8.42 -17.24,-14.97 -17.24,-14.97z"/>
   <path class="fil14" d="M355.21 181.04c-3.91,-0.37 -6.96,-1.95 -6.8,-3.51 0.15,-1.57 3.44,-2.53 7.34,-2.17 3.92,0.37 6.96,1.95 6.81,3.52 -0.16,1.57 -3.44,2.53 -7.35,2.16z"/>
   <path class="fil14" d="M372.9 189.73c1.73,3.52 2,6.94 0.57,7.64 -1.41,0.69 -3.96,-1.6 -5.69,-5.12 -1.74,-3.53 -2,-6.95 -0.59,-7.64 1.42,-0.69 3.97,1.6 5.7,5.12z"/>
   <path class="fil14" d="M368.83 165.62c1.42,-3.66 3.77,-6.17 5.24,-5.59 1.47,0.58 1.5,4.01 0.08,7.67 -1.42,3.66 -3.78,6.15 -5.25,5.59 -1.46,-0.58 -1.49,-4.01 -0.07,-7.67z"/>
   <path class="fil16" d="M245.85 297.86c-3.5,2.98 -5.55,6.13 -6.57,8.1 -37.02,6.16 -48.83,27.61 -47.47,45.87 1.65,22.28 22.82,46.34 54.12,46.34l2.26 -0.08c54.59,-1.85 73.39,-40.19 74.36,-42.35 2.93,-10.42 -0.67,-26.84 -8.77,-39.93 -8.21,-13.25 -20.08,-21.96 -33.47,-24.51 -3.93,-0.76 -7.71,-1.14 -11.25,-1.14 -9.29,0 -17.08,2.59 -23.19,7.7z"/>
   <path class="fil1" d="M269.03 286.8l0 0c-10.09,0 -18.61,2.86 -25.33,8.49 -3.14,2.65 -5.25,5.46 -6.56,7.64 -37.99,6.86 -50.13,29.69 -48.68,49.15 1.77,23.78 24.23,49.43 57.44,49.43l1.83 -0.02c0.15,-0.01 0.83,-0.07 0.97,-0.08 56.2,-1.9 75.88,-42 76.68,-43.69 0.17,-0.35 0.3,-0.71 0.41,-1.06 3.22,-11.44 -0.46,-28.56 -9.17,-42.62 -8.7,-14.05 -21.39,-23.29 -35.71,-26.01 -4.12,-0.8 -8.13,-1.21 -11.87,-1.21zm0 6.71c3.19,0 6.72,0.33 10.63,1.09 30.72,5.85 44.29,43.75 39.66,60.23 0,0 -18.09,38.09 -71.26,39.91l-0.53 0.05c-0.55,0.01 -1.1,0.02 -1.64,0.02 -52.42,0 -79.82,-74.51 -4.35,-85.81 0,0 1.59,-4.46 6.47,-8.56 4.27,-3.59 10.9,-6.92 21.02,-6.92z"/>
   <g>
    <image x="245.01" y="280.42" width="84.68" height="118.87" xlink:href="leafbottomright_Images\leafbottomright_ImgID5.png"/>
   </g>
   <path class="fil9" d="M300.06 345.65c-12.35,2.81 -24.61,4.43 -37.04,5.15 -12.38,0.73 -24.85,0.32 -37.01,-1.65 24.57,1.61 49.19,-2.74 72.15,-9.93l0.16 -0.05c1.76,-0.55 3.65,0.43 4.21,2.2 0.55,1.77 -0.44,3.66 -2.21,4.21 -0.07,0.04 -0.17,0.06 -0.25,0.07z"/>
   <path class="fil17" d="M294.02 356.38l0.11 0 0.11 0c2.16,-0.02 4.45,-0.29 6.79,-0.84 8.19,-1.88 13.89,-5.85 16.99,-11.79 3.78,-7.28 2.56,-15.62 1.33,-20.35l0.7 0c10.77,0 18.84,-5.99 21.55,-16.04 2.95,-10.88 -1.66,-22.72 -10.97,-28.18 -3.76,-2.21 -7.61,-3.32 -11.42,-3.32 -8.95,0 -15.59,6.04 -19.08,10.19 -4.49,-9.19 -12.44,-14.37 -22.33,-14.37 -8.71,0 -17.66,4.33 -22.82,11.03 -4.22,5.44 -5.6,11.96 -3.96,18.33 4.51,17.11 16.2,20.34 23.44,20.59 -3.12,5.47 -3.78,12.96 -1.41,19.78 3.24,9.37 11.08,14.97 20.97,14.97z"/>
   <path class="fil1" d="M277.78 269.16c-9.59,0 -19.09,4.6 -24.81,12 -4.69,6.08 -6.25,13.37 -4.37,20.5 4.23,16.17 14.75,20.85 22.06,22.09 -2.07,5.55 -2.17,12.18 0.01,18.5 3.62,10.41 12.34,16.64 23.35,16.64 2.43,0 4.96,-0.3 7.57,-0.89 8.94,-2.06 15.23,-6.46 18.66,-13.09 3.41,-6.55 3.12,-13.84 2.19,-19.08 10.65,-0.87 18.81,-7.52 21.6,-17.8 3.24,-11.96 -1.86,-25 -12.15,-31.02 -4.15,-2.43 -8.42,-3.66 -12.68,-3.66 -8.11,0 -14.45,4.41 -18.59,8.49 -5.14,-8.06 -13.26,-12.67 -22.83,-12.67zm0 5.03c8.87,0 17.66,4.83 21.7,16.94 0,0 7.67,-12.76 19.73,-12.76 3.12,0 6.52,0.84 10.15,2.98 16.77,9.81 13.68,39.53 -9.31,39.53 -1.35,0 -2.75,-0.11 -4.23,-0.31 0,0 10.84,26.5 -15.35,32.51 -2.3,0.53 -4.45,0.77 -6.45,0.77 -20.73,0 -25.09,-26.34 -13.82,-35.21 0,0 -1.91,0.48 -4.75,0.48 -6.47,0 -17.73,-2.47 -21.98,-18.75 -3.74,-14.28 10.39,-26.19 24.31,-26.19z"/>
   <path class="fil13" d="M295.51 306.48c0,0 -1.98,-21.2 -20.38,-20.08 -18.4,1.11 -11.09,20.31 -0.69,23.73 10.39,3.42 16.25,1.28 16.25,1.28 0,0 -8.01,15.43 -0.61,21.26 7.4,5.84 16.4,-5.14 15.51,-12.05 -0.9,-6.92 -1.84,-7.72 -1.84,-7.72 0,0 17.86,5.22 20.78,-8.78 2.92,-14 -4.93,-17.11 -13.45,-14.35 -8.51,2.76 -15.55,16.71 -15.55,16.71z"/>
   <path class="fil14" d="M299.42 321.03c-0.5,3.9 -2.19,6.89 -3.74,6.68 -1.57,-0.2 -2.43,-3.52 -1.92,-7.42 0.52,-3.89 2.19,-6.88 3.75,-6.67 1.57,0.2 2.42,3.53 1.91,7.41z"/>
   <path class="fil14" d="M308.7 303.66c3.59,-1.61 7.01,-1.75 7.65,-0.31 0.65,1.44 -1.72,3.9 -5.31,5.51 -3.59,1.61 -7.01,1.76 -7.65,0.31 -0.66,-1.44 1.74,-3.91 5.31,-5.51z"/>
   <path class="fil14" d="M284.47 306.9c-3.61,-1.55 -6.03,-3.98 -5.4,-5.43 0.62,-1.45 4.05,-1.37 7.65,0.18 3.61,1.55 6.03,3.98 5.42,5.43 -0.63,1.45 -4.05,1.36 -7.67,-0.18z"/>
   <path class="fil18" d="M315.22 183.02l0.05 0 0.05 0 0.05 0 0.05 0 0.05 0 0.05 0 0.05 0 0.34 0c7.04,-0.07 12.71,-2.33 16.81,-6.77 5.32,-5.71 6.62,-13.61 6.91,-18.3 2.85,0.99 5.67,1.49 8.39,1.49 8.54,0 15.88,-4.97 19.63,-13.33 4.11,-9.14 2.68,-19.65 -3.65,-26.75 -4.52,-5.07 -9.92,-7.64 -16.05,-7.64 -6.13,0 -11.61,2.62 -15.08,4.77 -2.13,-15.11 -13.99,-21.92 -25.7,-21.92 -11.83,0 -24.83,7.36 -25.61,21.03 -1.02,17.54 9.05,24.26 15.95,26.79 -5.32,4.83 -8.34,13.08 -7.26,21.22 1.44,10.97 9.7,18.18 22.03,19.27 1.02,0.09 1.99,0.14 2.94,0.15z"/>
   <path class="fil1" d="M307.17 92.05l0 0c-12.98,0 -27.24,8.21 -28.13,23.41 -0.89,15.59 6.49,23.96 14.17,27.93 -4.23,5.45 -6.46,13.05 -5.45,20.56 1.63,12.23 10.71,20.25 24.32,21.44 1.22,0.11 2.38,0.16 3.5,0.16 7.94,0 14.32,-2.54 19,-7.58 4.73,-5.09 6.56,-11.72 7.26,-16.74 2.08,0.49 4.16,0.75 6.19,0.75 9.56,0 17.76,-5.55 21.92,-14.82 4.51,-10.05 2.91,-21.63 -4.05,-29.46 -4.95,-5.56 -11.16,-8.49 -17.93,-8.49 -5.06,0 -9.71,1.62 -13.29,3.42 -3.63,-14.08 -15.97,-20.58 -27.5,-20.58zm0 5.03c11.66,0 23.39,7.35 23.53,24.06 0,0 7.93,-6.91 17.26,-6.91 4.64,0 9.62,1.71 14.17,6.81 11.49,12.9 3.22,35.89 -14.11,35.89 -3.32,0 -6.97,-0.84 -10.88,-2.76 0,0 1.98,26.34 -21.57,26.34 -0.98,0 -2,-0.05 -3.06,-0.13 -26.76,-2.37 -23.41,-33.57 -8.65,-39.02 0,0 -21.18,-1.48 -19.78,-25.62 0.68,-11.84 11.86,-18.66 23.09,-18.66z"/>
   <path class="fil13" d="M322.18 134.51c0,0 4.66,-20.78 -13.2,-25.39 -17.84,-4.62 -16.81,15.9 -7.97,22.36 8.83,6.46 15.05,6.23 15.05,6.23 0,0 -12.37,12.22 -7.14,20.05 5.25,7.83 17.19,0.17 18.47,-6.68 1.28,-6.85 0.63,-7.9 0.63,-7.9 0,0 15.37,10.46 22.48,-1.96 7.09,-12.42 0.58,-17.8 -8.37,-17.8 -8.95,0 -19.95,11.1 -19.95,11.1z"/>
   <path class="fil14" d="M321.42 149.56c-1.68,3.55 -4.21,5.88 -5.63,5.2 -1.42,-0.68 -1.21,-4.1 0.48,-7.65 1.67,-3.54 4.2,-5.87 5.63,-5.19 1.41,0.67 1.21,4.1 -0.48,7.64z"/>
   <path class="fil14" d="M335.61 135.9c3.91,-0.43 7.21,0.5 7.37,2.06 0.17,1.57 -2.86,3.18 -6.75,3.61 -3.9,0.43 -7.21,-0.49 -7.38,-2.05 -0.18,-1.57 2.86,-3.18 6.76,-3.61z"/>
   <path class="fil14" d="M311.56 131.51c-2.95,-2.59 -4.51,-5.64 -3.47,-6.82 1.04,-1.2 4.27,-0.06 7.22,2.53 2.97,2.58 4.51,5.64 3.47,6.82 -1.03,1.18 -4.27,0.05 -7.22,-2.53z"/>
   <path class="fil19" d="M347.18 342.28l0.24 0c10.47,0 17.6,-8.05 20.88,-12.78 4.64,5.65 10.61,8.69 17.1,8.69 6.73,0 13.58,-3.38 18.29,-9.05 4.77,-5.72 6.78,-12.93 5.51,-19.9 -2.14,-11.86 -11.19,-18.65 -24.81,-18.65l-0.29 0c3.32,-7.71 3.07,-15.48 -0.77,-22.25 -4.83,-8.51 -14.79,-14.24 -24.79,-14.24 -7.45,0 -13.76,3.21 -17.77,8.99 -9.99,14.43 -4.91,25.41 -0.36,31.17 -7.87,1.49 -15.29,8.08 -18.05,16.5 -3.14,9.55 0.36,18.95 9.61,25.77 5.07,3.75 10.19,5.68 15.19,5.74z"/>
   <path class="fil1" d="M358.55 251.6c-8.3,0 -15.35,3.58 -19.84,10.07 -8.87,12.83 -6.93,23.8 -2.48,31.19 -7.27,2.75 -13.64,9.2 -16.25,17.12 -3.51,10.65 0.32,21.07 10.5,28.59 5.6,4.14 11.31,6.23 16.93,6.23 9.84,0 16.95,-6.31 21.07,-11.37 4.76,4.73 10.59,7.28 16.91,7.28 7.47,0 15.04,-3.72 20.24,-9.96 5.24,-6.28 7.45,-14.27 6.05,-21.95 -2.21,-12.18 -10.89,-19.57 -24.01,-20.6 2.25,-7.32 1.55,-14.6 -2.14,-21.09 -5.26,-9.29 -16.1,-15.52 -26.98,-15.52zm0 5.04c15.88,0 33.48,16.4 21.29,36.78 0,0 1.83,-0.31 4.55,-0.31 6.95,0 19.69,2.04 22.33,16.59 2.45,13.51 -9.09,25.98 -21.34,25.98 -6.12,0 -12.41,-3.09 -17.25,-10.7 0,0 -7.57,14.79 -20.73,14.79 -4.11,0 -8.79,-1.45 -13.94,-5.25 -20.4,-15.05 -4.53,-38.06 10.28,-38.06 0.88,0 1.78,0.08 2.64,0.25 0,0 -17.3,-12.29 -3.54,-32.17 3.8,-5.5 9.62,-7.9 15.7,-7.9z"/>
   <path class="fil13" d="M365.61 300.41c0,0 14.8,-15.31 1.96,-28.55 -12.83,-13.24 -22.63,4.82 -18.45,14.93 4.17,10.11 9.61,13.15 9.61,13.15 0,0 -16.94,3.98 -16.53,13.41 0.39,9.41 14.58,9.09 19.23,3.9 4.66,-5.18 4.67,-6.41 4.67,-6.41 0,0 7.68,16.94 20.19,10.03 12.51,-6.91 9.78,-14.88 2.13,-19.54 -7.64,-4.66 -22.82,-0.92 -22.82,-0.92z"/>
   <path class="fil14" d="M357.12 312.86c-3.29,2.15 -6.65,2.82 -7.51,1.51 -0.86,-1.31 1.1,-4.14 4.38,-6.28 3.29,-2.15 6.65,-2.83 7.52,-1.5 0.86,1.31 -1.1,4.12 -4.39,6.28z"/>
   <path class="fil14" d="M376.36 308.58c3.55,1.67 5.89,4.19 5.22,5.61 -0.67,1.42 -4.1,1.23 -7.65,-0.44 -3.55,-1.66 -5.9,-4.17 -5.23,-5.59 0.67,-1.43 4.1,-1.23 7.65,0.43z"/>
   <path class="fil14" d="M358.11 292.3c-1.19,-3.74 -0.91,-7.16 0.6,-7.64 1.49,-0.47 3.67,2.19 4.84,5.93 1.18,3.75 0.91,7.17 -0.6,7.64 -1.49,0.48 -3.67,-2.19 -4.84,-5.93z"/>
   <path class="fil20" d="M293.7 333.54c-0.72,17.55 9.47,24.1 16.39,26.5 -5.24,4.92 -8.11,13.23 -6.89,21.36 1.66,10.93 10.02,17.99 22.38,18.86 0.92,0.08 1.82,0.09 2.68,0.09 7.42,0 13.32,-2.33 17.5,-6.93 5.32,-5.82 6.52,-13.82 6.72,-18.55 2.73,0.91 5.43,1.36 8.03,1.36 8.63,0 15.98,-5.03 19.69,-13.46 4.06,-9.29 2.48,-19.83 -4.01,-26.89 -4.52,-4.89 -9.84,-7.39 -15.82,-7.39 -6.28,0 -11.87,2.8 -15.36,5.04 -2.38,-14.8 -14.1,-21.5 -25.57,-21.5 -12.06,0 -25.19,7.53 -25.75,21.49z"/>
   <path class="fil1" d="M319.44 309.54l0 0c-13.24,0 -27.65,8.38 -28.28,23.9 -0.63,15.6 6.9,23.84 14.63,27.68 -4.13,5.51 -6.21,13.16 -5.09,20.66 1.84,12.19 11.07,20.05 24.69,21.02 0.99,0.07 1.93,0.11 2.86,0.11 8.15,0 14.67,-2.61 19.37,-7.76 4.74,-5.2 6.49,-11.93 7.1,-17.02 1.95,0.43 3.89,0.66 5.79,0.66 9.66,0 17.88,-5.61 21.98,-14.98 4.47,-10.2 2.73,-21.82 -4.46,-29.6 -4.94,-5.37 -11.03,-8.2 -17.66,-8.2 -5.21,0 -9.97,1.75 -13.63,3.66 -3.74,-13.82 -15.65,-20.11 -27.3,-20.11zm0 5.03c11.5,0 23.04,7.17 23.45,23.66 0,0 8,-7.2 17.48,-7.2 4.54,0 9.43,1.66 13.96,6.56 11.78,12.78 3.72,36.13 -13.83,36.13 -3.23,0 -6.78,-0.79 -10.59,-2.57 0,0 2.46,26.71 -21.66,26.71 -0.81,0 -1.64,-0.03 -2.51,-0.09 -26.8,-1.9 -23.98,-33.16 -9.33,-38.85 0,0 -21.2,-1.11 -20.21,-25.27 0.48,-12.01 11.85,-19.07 23.24,-19.07z"/>
   <path class="fil13" d="M334.63 351.75c0,0 4.29,-20.85 -13.63,-25.15 -17.92,-4.32 -16.53,16.17 -7.59,22.49 8.94,6.3 15.16,5.96 15.16,5.96 0,0 -12.17,12.42 -6.79,20.17 5.38,7.74 17.18,-0.13 18.35,-7 1.16,-6.87 0.5,-7.91 0.5,-7.91 0,0 15.55,10.2 22.43,-2.34 6.89,-12.53 0.29,-17.8 -8.67,-17.64 -8.95,0.16 -19.76,11.44 -19.76,11.44z"/>
   <path class="fil14" d="M334.12 366.81c-1.62,3.58 -4.1,5.94 -5.53,5.3 -1.43,-0.66 -1.28,-4.08 0.34,-7.65 1.63,-3.59 4.11,-5.95 5.55,-5.29 1.42,0.64 1.28,4.08 -0.35,7.65z"/>
   <path class="fil14" d="M348.07 352.9c3.9,-0.49 7.22,0.37 7.41,1.94 0.2,1.57 -2.8,3.23 -6.69,3.73 -3.9,0.49 -7.21,-0.38 -7.41,-1.94 -0.19,-1.57 2.8,-3.23 6.69,-3.73z"/>
   <path class="fil14" d="M323.95 348.93c-3,-2.53 -4.6,-5.57 -3.59,-6.76 1.02,-1.21 4.27,-0.13 7.27,2.4 3,2.53 4.6,5.57 3.59,6.78 -1.02,1.2 -4.28,0.12 -7.27,-2.42z"/>
   <path class="fil21" d="M120.81 294.11l-0.16 0c-3.38,0.03 -6.64,0.87 -9.71,2.54 -15.38,8.45 -15.73,20.53 -14.23,27.72 -1.76,-0.5 -3.65,-0.75 -5.64,-0.75 -8.39,0 -16.86,4.6 -21.05,11.45 -4.1,6.71 -4.02,14.99 0.23,23.34 5.96,11.72 14.48,14.19 20.56,14.19 6.12,0 11.69,-2.4 15.06,-4.24 2.94,12.97 13.08,17.7 21.43,17.7 11.25,0 21.21,-7.22 24.22,-17.54 4.3,-14.76 -5.65,-23.9 -14.06,-27.95 8,-6.81 11.04,-16.31 8.19,-26.11 -3.4,-11.62 -14.07,-20.36 -24.85,-20.36z"/>
   <path class="fil1" d="M120.81 291.58c-3.87,0 -7.59,0.97 -11.07,2.87 -13.65,7.5 -16.83,18.17 -16.15,26.78 -0.82,-0.08 -1.66,-0.13 -2.51,-0.13 -9.39,0 -18.5,4.97 -23.21,12.66 -4.58,7.48 -4.53,16.64 0.13,25.81 6.55,12.85 16.02,15.54 22.8,15.54 5.13,0 9.89,-1.54 13.47,-3.16 4.04,12.12 14.4,16.62 23.05,16.62 12.35,0 23.3,-7.95 26.61,-19.33 4.26,-14.56 -3.9,-24.14 -12.22,-29.22 6.81,-7.22 9.18,-16.59 6.36,-26.28 -3.69,-12.64 -15.41,-22.17 -27.27,-22.17zm0 5.03c18.7,0 35.51,29.33 11.52,44.63 0,0 22.55,6.84 16.77,26.59 -2.88,9.87 -12.51,15.71 -21.78,15.71 -9.26,0 -18.17,-5.82 -19.56,-19.3 0,0 -7.94,5.83 -16.96,5.83 -6.36,0 -13.27,-2.9 -18.31,-12.8 -9.52,-18.69 5.58,-31.14 18.59,-31.14 3.66,0 7.15,0.99 9.87,3.1 0,0 -9.98,-18.73 11.21,-30.36 2.83,-1.56 5.76,-2.25 8.64,-2.25z"/>
   <path class="fil13" d="M116.49 341.13c0,0 20.08,-7.08 14.51,-24.66 -5.56,-17.57 -22.39,-5.81 -23.18,5.11 -0.79,10.91 2.71,16.07 2.71,16.07 0,0 -16.93,-4.01 -20.78,4.59 -3.86,8.61 8.99,14.66 15.47,12.1 6.49,-2.55 7.04,-3.65 7.04,-3.65 0,0 -0.7,18.59 13.58,18 14.3,-0.58 15.39,-8.94 10.64,-16.53 -4.76,-7.59 -20,-11.02 -20,-11.02z"/>
   <path class="fil14" d="M103.33 348.47c-3.9,0.45 -7.21,-0.44 -7.39,-2.01 -0.19,-1.57 2.82,-3.21 6.73,-3.66 3.9,-0.45 7.2,0.44 7.39,2.01 0.18,1.57 -2.83,3.2 -6.73,3.66z"/>
   <path class="fil14" d="M122.44 353.24c2.44,3.07 3.41,6.37 2.18,7.34 -1.24,0.98 -4.22,-0.73 -6.66,-3.8 -2.43,-3.09 -3.4,-6.37 -2.17,-7.35 1.24,-0.97 4.22,0.73 6.65,3.81z"/>
   <path class="fil14" d="M113.4 330.52c0.62,-3.87 2.39,-6.81 3.96,-6.56 1.54,0.25 2.31,3.6 1.68,7.47 -0.63,3.87 -2.4,6.81 -3.95,6.56 -1.56,-0.25 -2.31,-3.6 -1.69,-7.47z"/>
   <path class="fil22" d="M150.36 282.22c-9.99,14.43 -4.91,25.39 -0.35,31.16 -7.88,1.49 -15.3,8.09 -18.06,16.51 -3.14,9.57 0.37,18.96 9.61,25.77 5.16,3.82 10.37,5.75 15.43,5.75 10.47,0 17.61,-8.06 20.9,-12.79 4.64,5.65 10.58,8.69 17.06,8.69 6.75,0 13.59,-3.38 18.33,-9.05 4.76,-5.69 6.77,-12.95 5.51,-19.9 -2.15,-11.86 -11.2,-18.66 -24.82,-18.66l-0.29 0c3.32,-7.69 3.07,-15.44 -0.77,-22.22 -4.83,-8.52 -14.77,-14.24 -24.78,-14.24 -7.45,0 -13.77,3.18 -17.78,8.98z"/>
   <path class="fil1" d="M168.13 270.72c-8.3,0 -15.35,3.58 -19.84,10.06 -8.87,12.83 -6.93,23.8 -2.47,31.19 -7.27,2.75 -13.64,9.21 -16.25,17.12 -3.51,10.65 0.33,21.07 10.5,28.59 5.6,4.14 11.31,6.23 16.93,6.23 9.84,0 16.95,-6.31 21.07,-11.37 4.76,4.73 10.59,7.28 16.91,7.28 7.47,0 15.04,-3.72 20.24,-9.96 5.24,-6.28 7.45,-14.27 6.05,-21.95 -2.21,-12.18 -10.89,-19.57 -24,-20.6 2.25,-7.32 1.54,-14.6 -2.14,-21.09 -5.26,-9.29 -16.1,-15.52 -26.98,-15.52zm0 5.03c15.89,0 33.48,16.41 21.29,36.78 0,0 1.83,-0.31 4.55,-0.31 6.95,0 19.69,2.04 22.33,16.59 2.45,13.52 -9.09,25.98 -21.34,25.98 -6.12,0 -12.41,-3.1 -17.25,-10.7 0,0 -7.57,14.79 -20.73,14.79 -4.11,0 -8.79,-1.45 -13.94,-5.25 -20.4,-15.05 -4.53,-38.06 10.28,-38.06 0.88,0 1.78,0.08 2.64,0.25 0,0 -17.3,-12.29 -3.54,-32.17 3.8,-5.5 9.62,-7.9 15.7,-7.9z"/>
   <path class="fil13" d="M175.19 319.52c0,0 14.8,-15.3 1.96,-28.55 -12.83,-13.23 -22.63,4.82 -18.45,14.93 4.17,10.12 9.61,13.15 9.61,13.15 0,0 -16.94,3.99 -16.53,13.41 0.39,9.41 14.58,9.09 19.23,3.9 4.66,-5.18 4.67,-6.41 4.67,-6.41 0,0 7.68,16.94 20.19,10.03 12.53,-6.91 9.78,-14.88 2.13,-19.55 -7.64,-4.66 -22.82,-0.92 -22.82,-0.92z"/>
   <path class="fil14" d="M166.7 331.97c-3.29,2.15 -6.65,2.82 -7.51,1.51 -0.86,-1.31 1.1,-4.12 4.38,-6.28 3.28,-2.15 6.64,-2.83 7.51,-1.51 0.86,1.31 -1.1,4.12 -4.39,6.28z"/>
   <path class="fil14" d="M185.93 327.7c3.55,1.66 5.89,4.17 5.22,5.59 -0.67,1.43 -4.1,1.23 -7.65,-0.43 -3.55,-1.67 -5.9,-4.17 -5.23,-5.61 0.67,-1.42 4.1,-1.23 7.65,0.44z"/>
   <path class="fil14" d="M167.69 311.43c-1.18,-3.74 -0.91,-7.17 0.6,-7.64 1.49,-0.47 3.67,2.18 4.84,5.93 1.18,3.74 0.91,7.17 -0.6,7.64 -1.49,0.47 -3.67,-2.19 -4.84,-5.93z"/>
   <path class="fil23" d="M156.54 365.07c-4.55,-3.06 -9.47,-4.66 -14.37,-4.66 -10.32,0 -20.2,7.03 -24.6,17.51 -3.79,9.04 -2.37,18.22 3.81,24.53 5.97,6.09 12.45,9.18 19.25,9.18 4.55,0 8.41,-1.39 11.28,-2.89 0,4.24 1.4,8.73 4.16,12.8 4.54,6.74 11.63,10.77 18.96,10.77 5.8,0 11.62,-2.53 16.79,-7.3 6.17,-5.7 9.17,-11.98 8.91,-18.67 -0.33,-8.19 -5.54,-14.84 -8.94,-18.33 10.69,-5.78 13.19,-15.57 11.76,-23.29 -2.15,-11.69 -12.43,-20.59 -24.22,-20.72 -15.15,0 -21.17,11.97 -22.8,21.06z"/>
   <path class="fil1" d="M179.34 341.49c-14.92,0 -21.85,10.35 -24.48,19.65 -4.08,-2.15 -8.38,-3.27 -12.69,-3.27 -11.31,0 -22.12,7.67 -26.91,19.06 -4.21,10.02 -2.6,20.2 4.33,27.28 6.46,6.59 13.53,9.92 21.06,9.92 3.38,0 6.46,-0.7 9.06,-1.67 0.58,3.56 2.02,7.15 4.27,10.47 5.01,7.44 12.89,11.88 21.05,11.88 6.45,0 12.84,-2.75 18.51,-7.96 6.74,-6.22 10.02,-13.15 9.72,-20.61 -0.3,-7.39 -4.16,-13.58 -7.57,-17.66 9.6,-6.5 11.81,-16.39 10.34,-24.33 -2.37,-12.84 -13.69,-22.63 -26.34,-22.77 -0.01,0 -0.34,0 -0.35,0zm0 5.03l0.29 0c20.58,0.23 32.87,30.84 7.69,40.79 0,0 22.57,17.64 2.8,35.84 -5.11,4.72 -10.3,6.64 -15.09,6.64 -13.66,0 -23.95,-15.68 -19.58,-26.49 0,0 -6.09,5.81 -14.8,5.81 -5.14,0 -11.19,-2.01 -17.47,-8.42 -13.12,-13.4 0.69,-37.77 18.99,-37.77 5.27,0 10.91,2.03 16.39,6.93 0,0 0.5,-23.32 20.79,-23.32z"/>
   <path class="fil13" d="M162.71 385.13c0,0 -12.23,-17.43 -27.65,-7.33 -15.44,10.08 0.43,23.13 11.15,20.95 10.73,-2.19 14.74,-6.95 14.74,-6.95 0,0 0.7,17.38 10.02,18.77 9.33,1.4 11.69,-12.6 7.49,-18.16 -4.2,-5.55 -5.4,-5.78 -5.4,-5.78 0,0 18.08,-4.33 13.68,-17.93 -4.41,-13.61 -12.77,-12.42 -18.79,-5.8 -6.03,6.62 -5.23,22.24 -5.23,22.24z"/>
   <path class="fil14" d="M173.33 395.83c1.49,3.63 1.52,7.07 0.06,7.66 -1.46,0.6 -3.85,-1.86 -5.33,-5.5 -1.49,-3.64 -1.52,-7.07 -0.06,-7.65 1.46,-0.61 3.84,1.85 5.33,5.49z"/>
   <path class="fil14" d="M172.77 376.14c2.31,-3.17 5.23,-4.98 6.49,-4.06 1.27,0.93 0.43,4.26 -1.88,7.42 -2.31,3.18 -5.21,4.99 -6.49,4.08 -1.28,-0.94 -0.43,-4.26 1.87,-7.44z"/>
   <path class="fil14" d="M153.33 390.97c-3.9,0.44 -7.21,-0.46 -7.39,-2.03 -0.17,-1.57 2.85,-3.19 6.74,-3.65 3.9,-0.44 7.21,0.46 7.39,2.03 0.18,1.58 -2.83,3.21 -6.74,3.65z"/>
   <path class="fil24" d="M2.69 311.06c-2.61,8.09 3.22,19.22 10.07,24.14 5.13,3.69 13.76,5.99 22.52,5.99 10.73,0 18.58,-3.48 21.02,-9.27 0.18,-0.43 0.2,-0.94 0.07,-1.39 -0.08,-0.26 -8.5,-27.79 -35.18,-28.68l-1.42 -0.02c-11.66,0 -15.72,5.05 -17.07,9.24z"/>
   <path class="fil1" d="M19.77 299.77c-13.57,0 -17.75,6.68 -19.03,10.67 -2.92,9.06 3.24,20.97 10.82,26.42 5.46,3.91 14.55,6.35 23.72,6.35 11.75,0 20.1,-3.84 22.91,-10.52 0.37,-0.87 0.43,-1.84 0.15,-2.75 -2.98,-10.1 -14.56,-29.4 -37.08,-30.15l-1.48 -0.02zm0 4.09c0.44,0 0.88,0.01 1.35,0.03 25.51,0.86 33.29,27.22 33.29,27.22 -2.34,5.58 -10.46,8.02 -19.14,8.02 -7.95,0 -16.39,-2.04 -21.33,-5.59 -10.14,-7.28 -18.07,-29.67 5.82,-29.67z"/>
  </g>
 </g>
</svg>
