<?xml version="1.0" encoding="UTF-8"?>
<!DOCTYPE svg PUBLIC "-//W3C//DTD SVG 1.1//EN" "http://www.w3.org/Graphics/SVG/1.1/DTD/svg11.dtd">
<!-- Creator: CorelDRAW -->
<svg xmlns="http://www.w3.org/2000/svg" xml:space="preserve" width="24.7892mm" height="8.6763mm" version="1.1" style="shape-rendering:geometricPrecision; text-rendering:geometricPrecision; image-rendering:optimizeQuality; fill-rule:evenodd; clip-rule:evenodd"
viewBox="0 0 587.84 205.75"
 xmlns:xlink="http://www.w3.org/1999/xlink"
 xmlns:xodm="http://www.corel.com/coreldraw/odm/2003">
 <defs>
  <style type="text/css">
   <![CDATA[
    .fil2 {fill:#0E8003;fill-rule:nonzero}
    .fil1 {fill:#4D4A10;fill-rule:nonzero}
    .fil9 {fill:#7A5F19;fill-rule:nonzero}
    .fil20 {fill:#964919;fill-rule:nonzero}
    .fil22 {fill:#C46021;fill-rule:nonzero}
    .fil11 {fill:url(#id0)}
    .fil19 {fill:url(#id1)}
    .fil3 {fill:url(#id2)}
    .fil14 {fill:url(#id3)}
    .fil24 {fill:url(#id4)}
    .fil21 {fill:url(#id5)}
    .fil13 {fill:url(#id6)}
    .fil23 {fill:url(#id7)}
    .fil12 {fill:url(#id8)}
    .fil17 {fill:url(#id9)}
    .fil6 {fill:url(#id10)}
    .fil10 {fill:url(#id11)}
    .fil8 {fill:url(#id12)}
    .fil4 {fill:url(#id13)}
    .fil0 {fill:url(#id14)}
    .fil15 {fill:url(#id15)}
    .fil16 {fill:url(#id16)}
    .fil7 {fill:url(#id17)}
    .fil5 {fill:url(#id18)}
    .fil18 {fill:url(#id19)}
   ]]>
  </style>
  <radialGradient id="id0" gradientUnits="userSpaceOnUse" gradientTransform="matrix(-3.49829 7.14519 7.14519 3.49829 342 -1269)" cx="159.26" cy="52.39" r="27.98" fx="159.26" fy="52.39">
   <stop offset="0" style="stop-opacity:1; stop-color:#FFD65E"/>
   <stop offset="0.0196078" style="stop-opacity:1; stop-color:#FFD65E"/>
   <stop offset="0.501961" style="stop-opacity:1; stop-color:#F0C041"/>
   <stop offset="1" style="stop-opacity:1; stop-color:#E1AB24"/>
   <stop offset="1" style="stop-opacity:1; stop-color:#E1AB24"/>
  </radialGradient>
  <radialGradient id="id1" gradientUnits="userSpaceOnUse" gradientTransform="matrix(0.249493 2.51889 2.48408 -0.252989 -6 -61)" cx="29.87" cy="11.25" r="35.23" fx="29.87" fy="11.25">
   <stop offset="0" style="stop-opacity:1; stop-color:#FFE8BA"/>
   <stop offset="0.0784314" style="stop-opacity:1; stop-color:#FFE8BA"/>
   <stop offset="0.529412" style="stop-opacity:1; stop-color:#FEE2AA"/>
   <stop offset="1" style="stop-opacity:1; stop-color:#FDDC9A"/>
  </radialGradient>
  <radialGradient id="id2" gradientUnits="userSpaceOnUse" gradientTransform="matrix(-6.85182 2.35585 -2.35585 -6.85182 4244 -404)" cx="510.01" cy="101.56" r="20.76" fx="510.01" fy="101.56">
   <stop offset="0" style="stop-opacity:1; stop-color:#C0D151"/>
   <stop offset="0.0784314" style="stop-opacity:1; stop-color:#C0D151"/>
   <stop offset="0.529412" style="stop-opacity:1; stop-color:#AFBF48"/>
   <stop offset="1" style="stop-opacity:1; stop-color:#9FAD40"/>
   <stop offset="1" style="stop-opacity:1; stop-color:#9FAD40"/>
  </radialGradient>
  <radialGradient id="id3" gradientUnits="userSpaceOnUse" gradientTransform="matrix(-6.10997 2.97962 -2.86125 -6.3633 1590 -598)" xlink:href="#id0" cx="220.45" cy="8.05" r="29.12" fx="220.45" fy="8.05">
  </radialGradient>
  <radialGradient id="id4" gradientUnits="userSpaceOnUse" gradientTransform="matrix(-0.742682 2.11379 2.11396 0.742742 602 -873)" cx="420.37" cy="61.82" r="14.6" fx="420.37" fy="61.82">
   <stop offset="0" style="stop-opacity:1; stop-color:#FFEE77"/>
   <stop offset="0.0784314" style="stop-opacity:1; stop-color:#FFEE77"/>
   <stop offset="0.529412" style="stop-opacity:1; stop-color:#F5D055"/>
   <stop offset="1" style="stop-opacity:1; stop-color:#EBB234"/>
   <stop offset="1" style="stop-opacity:1; stop-color:#EBB234"/>
  </radialGradient>
  <radialGradient id="id5" gradientUnits="userSpaceOnUse" gradientTransform="matrix(-0.742885 2.11436 2.11436 0.742885 -71 -69)" xlink:href="#id4" cx="40.94" cy="67.55" r="8.99" fx="40.94" fy="67.55">
  </radialGradient>
  <radialGradient id="id6" gradientUnits="userSpaceOnUse" gradientTransform="matrix(5.11434 4.16424 4.16442 -5.11456 -559 -181)" xlink:href="#id0" cx="98.13" cy="37.27" r="34.52" fx="98.13" fy="37.27">
  </radialGradient>
  <radialGradient id="id7" gradientUnits="userSpaceOnUse" gradientTransform="matrix(0.249616 2.51837 2.51842 -0.24962 371 -1049)" xlink:href="#id1" cx="402.9" cy="-27.29" r="55.84" fx="402.9" fy="-27.29">
  </radialGradient>
  <radialGradient id="id8" gradientUnits="userSpaceOnUse" gradientTransform="matrix(5.94414 4.75823 4.74919 -5.95544 -684 -191)" xlink:href="#id0" cx="99.42" cy="40.55" r="30.14" fx="99.42" fy="40.55">
  </radialGradient>
  <radialGradient id="id9" gradientUnits="userSpaceOnUse" gradientTransform="matrix(6.42669 1.45372 1.37653 -6.78701 -1499 71)" xlink:href="#id0" cx="261.51" cy="57.95" r="28.18" fx="261.51" fy="57.95">
  </radialGradient>
  <radialGradient id="id10" gradientUnits="userSpaceOnUse" gradientTransform="matrix(-6.74455 1.44946 -1.44946 -6.74455 4714 327)" xlink:href="#id2" cx="580.46" cy="150.81" r="20.99" fx="580.46" fy="150.81">
  </radialGradient>
  <radialGradient id="id11" gradientUnits="userSpaceOnUse" gradientTransform="matrix(-3.07708 5.41588 -6.01447 -4.52449 1004 -1370)" xlink:href="#id0" cx="250.19" cy="-2.64" r="30.94" fx="250.19" fy="-2.64">
  </radialGradient>
  <radialGradient id="id12" gradientUnits="userSpaceOnUse" gradientTransform="matrix(-3.09448 5.36071 -5.36079 -3.09453 1524 -1527)" xlink:href="#id0" cx="317.11" cy="42.13" r="31.43" fx="317.11" fy="42.13">
  </radialGradient>
  <radialGradient id="id13" gradientUnits="userSpaceOnUse" gradientTransform="matrix(5.45789 -3.04318 -4.22406 -6.19078 -1723 2568)" xlink:href="#id2" cx="517.47" cy="138.13" r="19.66" fx="517.47" fy="138.13">
  </radialGradient>
  <radialGradient id="id14" gradientUnits="userSpaceOnUse" gradientTransform="matrix(-4.15126 4.82329 -4.82315 -4.15113 2580 -2086)" xlink:href="#id2" cx="468.96" cy="34.11" r="39.85" fx="468.96" fy="34.11">
  </radialGradient>
  <radialGradient id="id15" gradientUnits="userSpaceOnUse" gradientTransform="matrix(-1.23491 6.08471 -5.97547 -1.25739 479 -810)" xlink:href="#id0" cx="143.06" cy="26.68" r="29.71" fx="143.06" fy="26.68">
  </radialGradient>
  <radialGradient id="id16" gradientUnits="userSpaceOnUse" gradientTransform="matrix(1.38156 6.77044 -6.77003 1.38148 214 -1918)" xlink:href="#id0" cx="280.62" cy="47.48" r="19.5" fx="280.62" fy="47.48">
  </radialGradient>
  <radialGradient id="id17" gradientUnits="userSpaceOnUse" gradientTransform="matrix(-5.52546 -2.61606 2.61591 -5.52515 3291 2396)" xlink:href="#id2" cx="561.36" cy="142.18" r="29.14" fx="561.36" fy="142.18">
  </radialGradient>
  <radialGradient id="id18" gradientUnits="userSpaceOnUse" gradientTransform="matrix(-1.96752 5.82891 -5.82861 -1.96742 2068 -2747)" xlink:href="#id2" cx="517.67" cy="91.29" r="23.54" fx="517.67" fy="91.29">
  </radialGradient>
  <radialGradient id="id19" gradientUnits="userSpaceOnUse" gradientTransform="matrix(-0.06981 5.8664 -7.03792 -0.650994 863 -1612)" xlink:href="#id0" cx="296.58" cy="77.54" r="20.37" fx="296.58" fy="77.54">
  </radialGradient>
 </defs>
 <g id="Layer_x0020_1">
  <metadata id="CorelCorpID_0Corel-Layer"/>
  <g id="_2805403903296">
   <path class="fil0" d="M486.34 119.05l0.18 0 0.18 0 0.18 0c3.65,-0.01 7.26,-0.19 10.63,-0.43 9.66,-0.74 17.07,-2.07 18.52,-2.39 1.29,-0.28 2.47,-1.01 3.35,-2.05 3.38,-3.77 3.91,-12.26 1.44,-23.25 -2.6,-11.53 -16.74,-23.44 -28.9,-28.29 -3.96,-1.6 -7.66,-2.45 -11.02,-2.55 -0.02,0 -0.84,-0.02 -0.86,-0.02 -10.46,0 -15.78,6.49 -17.63,10.98 -2.75,0.08 -8.11,0.69 -12.77,3.78 -0.72,0.48 -1.42,1 -2.09,1.59 -3.12,2.8 -4.81,6.68 -4.89,11.23 -0.12,7.5 4.23,15.99 11.92,23.32 5.66,5.37 16.35,8.09 31.76,8.09z"/>
   <path class="fil1" d="M480.04 57.96l0 0c-10.64,0 -16.51,6.14 -19.01,11.06 -3.17,0.25 -8.14,1.13 -12.56,4.07 -0.78,0.52 -1.55,1.09 -2.29,1.75 -3.61,3.22 -5.54,7.64 -5.62,12.79 -0.13,8.09 4.46,17.16 12.57,24.88 6.08,5.76 17.26,8.67 33.22,8.67 3.58,0 7.39,-0.15 11.33,-0.44 9.88,-0.75 17.36,-2.12 18.81,-2.44 1.75,-0.38 3.33,-1.35 4.55,-2.79 3.82,-4.24 4.51,-13.17 1.85,-25.03 -2.84,-12.67 -17.69,-24.81 -30.19,-29.79 -4.17,-1.68 -8.12,-2.59 -11.73,-2.7l-0.92 -0.02zm0 4.23c0.26,0 0.53,0 0.79,0.01 3.17,0.1 6.71,0.96 10.29,2.4 12.25,4.88 25.3,16.41 27.62,26.79 2.44,10.85 1.73,18.4 -0.94,21.38 -0.64,0.75 -1.4,1.21 -2.23,1.4 -1.71,0.37 -9.08,1.66 -18.22,2.35 -3.48,0.25 -7.22,0.43 -11.01,0.43 -11.85,0 -24.14,-1.66 -30.3,-7.51 -12.27,-11.68 -14.31,-24.95 -7.08,-31.42 0.59,-0.53 1.21,-0.99 1.85,-1.41 4.75,-3.14 10.42,-3.45 12.39,-3.45 0.46,0 0.71,0.02 0.71,0.02 0,0 2.88,-10.98 16.13,-10.98z"/>
   <g>
    <image x="446.56" y="54.7" width="79.35" height="64.41" xlink:href="leaftopright_Images\leaftopright_ImgID1.png"/>
   </g>
   <path class="fil2" d="M495.41 97.46c-4.78,-4.86 -9.81,-9.46 -15.16,-13.59 -2.72,-2.01 -5.46,-3.96 -8.3,-5.71 -2.77,-1.88 -5.62,-3.55 -8.78,-4.88 -0.06,-0.03 -0.09,-0.09 -0.07,-0.15 0.02,-0.04 0.07,-0.07 0.11,-0.07 3.53,0.09 6.83,1.58 9.9,3.19 3.01,1.76 5.75,3.9 8.28,6.23 5.19,4.53 9.88,9.54 14.2,14.83 0.03,0.05 0.03,0.13 -0.02,0.16 -0.05,0.04 -0.12,0.03 -0.16,-0.01z"/>
   <g>
    <image x="441.6" y="54.7" width="84.3" height="64.41" xlink:href="leaftopright_Images\leaftopright_ImgID2.png"/>
   </g>
   <path class="fil3" d="M502.36 116.5l-0.1 0 -0.14 0c-2.87,0.04 -5.01,1.27 -6.08,2.05 -1.32,-0.72 -4.12,-1.96 -7.62,-1.96l-0.04 0c-0.5,0.02 -1.01,0.07 -1.55,0.17 -2.43,0.48 -4.47,1.94 -5.89,4.23 -2.34,3.79 -2.72,9.44 -1.03,15.5 1.94,6.9 11.7,13.02 19.55,16.93 4.69,2.33 8.94,4.01 10.14,4.41 0.13,0.04 0.97,0.18 1.11,0.18 0.42,0 0.84,-0.08 1.21,-0.21 2.87,-0.88 5.71,-5.05 7.81,-11.4 2.18,-6.67 -1.41,-17.02 -6.13,-23.17 -1.49,-1.98 -3.16,-3.6 -4.83,-4.66 -2.12,-1.35 -4.27,-2.04 -6.42,-2.07z"/>
   <path class="fil1" d="M502.25 115.25c-2.79,0 -4.94,0.99 -6.3,1.84 -1.56,-0.78 -4.13,-1.76 -7.02,-1.76l-0.62 0.02c-0.55,0.02 -1.12,0.08 -1.7,0.19 -2.82,0.54 -5.14,2.2 -6.75,4.8 -2.52,4.08 -2.94,10.09 -1.15,16.49 1.66,5.9 8.45,11.85 20.19,17.73 5.25,2.62 9.48,4.19 10.32,4.48 0.48,0.16 0.99,0.24 1.5,0.24 0.56,0 1.12,-0.1 1.66,-0.28 3.24,-1 6.3,-5.35 8.54,-12.19 2.41,-7.32 -1.46,-18 -6.32,-24.34 -1.61,-2.12 -3.35,-3.79 -5.15,-4.93 -2.34,-1.51 -4.77,-2.27 -7.2,-2.27zm0 2.51c1.7,0 3.68,0.48 5.85,1.87 1.58,1.01 3.12,2.53 4.51,4.34 4.75,6.21 7.9,16.04 5.93,22.04 -2.06,6.27 -4.71,9.9 -6.99,10.6 -0.28,0.1 -0.57,0.15 -0.84,0.15 -0.25,0 -0.49,-0.04 -0.71,-0.12 -0.99,-0.32 -5.14,-1.92 -9.99,-4.33 -7.65,-3.83 -17.09,-9.76 -18.89,-16.15 -2.7,-9.68 0.29,-17.07 5.95,-18.15 0.46,-0.09 0.91,-0.14 1.36,-0.15 0.17,-0.01 0.32,-0.02 0.49,-0.02 3.93,0 7.22,2.24 7.22,2.24 0,0 2.36,-2.32 6.1,-2.32z"/>
   <g>
    <image x="486.24" y="109.2" width="39.67" height="49.54" xlink:href="leaftopright_Images\leaftopright_ImgID3.png"/>
   </g>
   <path class="fil2" d="M504.81 142.01c-0.96,-3.92 -2.13,-7.8 -3.59,-11.53 -1.67,-3.65 -3.06,-7.35 -5.49,-10.58 -0.02,-0.03 -0.02,-0.08 0.02,-0.09 0.02,-0.02 0.05,-0.02 0.08,-0.01 1.78,1.12 2.93,2.94 4.07,4.63 1,1.82 1.74,3.73 2.32,5.69 1.26,3.87 2.14,7.86 2.73,11.87 0,0.02 -0.03,0.07 -0.06,0.07 -0.03,0.01 -0.07,-0.02 -0.07,-0.05z"/>
   <g>
    <image x="476.32" y="109.2" width="44.63" height="49.54" xlink:href="leaftopright_Images\leaftopright_ImgID4.png"/>
   </g>
   <path class="fil4" d="M556.65 166.44l0.11 0 0.1 0 0.1 0c2.1,-0.02 3.71,-0.38 4.76,-1.04 0.68,-0.38 1.15,-0.93 1.39,-1.57 0.26,-0.69 1.4,-4.24 2.28,-8.91 1.32,-7.15 1.94,-16.64 -2.63,-21.22 -4.19,-4.18 -9.21,-6.58 -13.76,-6.58 -2.34,0 -4.43,0.66 -6.04,1.92 -0.37,0.3 -0.7,0.62 -1.01,0.94 -2.06,2.14 -2.68,4.74 -2.86,6.07 -2.8,0.72 -7.08,3.16 -7.38,8.62 -0.09,1.65 0.26,3.5 1.05,5.5 2.32,6.09 8.73,13.37 15.42,15.02 3.19,0.79 6.12,1.22 8.49,1.24z"/>
   <path class="fil1" d="M548.99 126.04l0 0c-2.58,0 -4.9,0.74 -6.68,2.14 -0.44,0.34 -0.81,0.69 -1.15,1.05 -1.93,2.01 -2.7,4.4 -3.01,5.96 -3.09,1.01 -7.2,3.76 -7.51,9.41 -0.11,1.81 0.27,3.82 1.11,5.96 2.43,6.32 9.13,13.91 16.16,15.66 3.37,0.84 6.35,1.26 8.86,1.26 2.41,0 4.27,-0.4 5.54,-1.2 0.85,-0.49 1.49,-1.23 1.81,-2.1 0.4,-1.08 1.5,-4.73 2.32,-9.08 1.38,-7.41 1.98,-17.26 -2.92,-22.18 -4.4,-4.38 -9.69,-6.89 -14.52,-6.89zm0 2.14c3.99,0 8.8,2.07 13.01,6.27 4.22,4.22 3.61,13.34 2.33,20.27 -0.82,4.39 -1.92,7.92 -2.22,8.73 -0.15,0.4 -0.46,0.75 -0.93,1.03 -0.9,0.57 -2.41,0.88 -4.42,0.88 -2.21,0 -5.03,-0.38 -8.35,-1.2 -6.07,-1.52 -12.33,-8.26 -14.68,-14.37 -0.69,-1.79 -1.05,-3.54 -0.96,-5.08 0.36,-6.76 7.3,-7.79 7.3,-7.79 0,0 0.06,-3.54 2.63,-6.22 0.28,-0.29 0.58,-0.57 0.91,-0.84 1.43,-1.12 3.29,-1.69 5.37,-1.69z"/>
   <g>
    <image x="530.87" y="124.07" width="39.67" height="44.59" xlink:href="leaftopright_Images\leaftopright_ImgID5.png"/>
   </g>
   <path class="fil2" d="M553 153.16c-2.82,-2.17 -5.5,-4.55 -7.93,-7.19 -1.25,-1.28 -2.39,-2.68 -3.36,-4.22 -0.79,-1.61 -1.71,-3.3 -1.66,-5.16 0,-0.03 0.03,-0.06 0.06,-0.06 0.02,0 0.04,0.03 0.05,0.04 0.6,1.67 1.44,3.18 2.52,4.57 0.95,1.45 1.99,2.86 3.09,4.24 2.24,2.73 4.71,5.28 7.32,7.7 0.02,0.02 0.02,0.05 0,0.08 -0.02,0.03 -0.05,0.03 -0.08,0.01z"/>
   <g>
    <image x="530.87" y="119.11" width="39.67" height="49.54" xlink:href="leaftopright_Images\leaftopright_ImgID6.png"/>
   </g>
   <path class="fil5" d="M530.86 135.84l0.08 0 0.08 0c6.23,0 14.07,-3.23 19.56,-5.94 4.48,-2.23 8.23,-4.52 9.25,-5.23 0.63,-0.43 1.1,-1.06 1.33,-1.8 0.97,-2.7 -0.55,-7.28 -4.22,-12.57 -3.79,-5.46 -13.72,-8.73 -21.29,-8.73 -2.43,0.01 -4.56,0.35 -6.36,1.01 -5.88,2.17 -7.39,6.88 -7.4,9.75 -1.38,0.61 -4.12,2.08 -5.91,4.73 -0.28,0.39 -0.54,0.83 -0.76,1.28 -1.06,2.14 -1.11,4.55 -0.18,6.97 1.54,3.97 5.65,7.53 11.26,9.74 1.31,0.51 2.85,0.78 4.56,0.79z"/>
   <path class="fil1" d="M535.81 100.37l-0.18 0c-2.56,0 -4.84,0.37 -6.76,1.09 -6,2.21 -7.88,6.85 -8.16,10.09 -1.61,0.81 -4.05,2.34 -5.75,4.83 -0.3,0.44 -0.59,0.9 -0.83,1.41 -1.21,2.47 -1.29,5.21 -0.23,7.95 1.66,4.29 6.02,8.09 11.95,10.42 1.5,0.6 3.24,0.89 5.18,0.89 6.45,0 14.47,-3.3 20.08,-6.07 5.05,-2.51 8.69,-4.83 9.4,-5.31 0.84,-0.57 1.46,-1.41 1.8,-2.44 1.1,-3.06 -0.44,-7.91 -4.38,-13.6 -4.16,-6.01 -14.51,-9.25 -22.12,-9.25zm0 2.41c7.48,0 16.72,3.27 20.14,8.22 3.61,5.2 4.84,9.33 4.07,11.48 -0.18,0.53 -0.48,0.93 -0.88,1.21 -0.83,0.56 -4.44,2.81 -9.1,5.13 -5.79,2.87 -13.21,5.82 -19.01,5.82 -1.57,0 -3.03,-0.22 -4.29,-0.71 -8.97,-3.54 -12.89,-10.1 -10.46,-15.06 0.2,-0.4 0.43,-0.78 0.68,-1.14 2.25,-3.3 6.17,-4.61 6.17,-4.61 0,0 -0.87,-6.66 6.58,-9.41 1.69,-0.62 3.74,-0.92 5.94,-0.93l0.16 0z"/>
   <g>
    <image x="515.99" y="94.34" width="49.59" height="34.68" xlink:href="leaftopright_Images\leaftopright_ImgID7.png"/>
   </g>
   <path class="fil2" d="M544.94 119.19c-3.55,-1.54 -7.19,-2.89 -10.9,-3.92 -3.76,-0.83 -7.39,-1.91 -11.28,-1.93 -0.03,0 -0.07,-0.03 -0.07,-0.07 0,-0.03 0.02,-0.04 0.04,-0.06 1.89,-0.72 3.94,-0.54 5.91,-0.43 1.97,0.29 3.87,0.83 5.7,1.52 3.7,1.27 7.25,2.91 10.66,4.78 0.03,0.03 0.04,0.06 0.02,0.09 -0.02,0.02 -0.06,0.03 -0.08,0.02z"/>
   <g>
    <image x="511.03" y="94.34" width="54.55" height="44.59" xlink:href="leaftopright_Images\leaftopright_ImgID8.png"/>
   </g>
   <path class="fil6" d="M575.81 204.54l0.02 0 0.02 0 0.02 0 0.79 -0.08c2.83,-0.54 5.99,-4.19 8.69,-10.01 2.8,-6.11 0.54,-16.39 -3.29,-22.78 -1.21,-2.06 -2.63,-3.77 -4.1,-4.96 -2.23,-1.83 -4.64,-2.75 -7.13,-2.75 -2.27,0 -4.04,0.78 -5.01,1.33 -1.23,-0.88 -3.89,-2.5 -7.1,-2.71l-0.08 1.2 -1.4 -1.2c-2.38,0.19 -4.49,1.35 -6.09,3.39 -2.64,3.35 -3.62,8.69 -2.68,14.66 1.1,6.78 9.71,13.69 16.77,18.3 4.2,2.73 8.06,4.8 9.18,5.32 0.43,0.2 0.88,0.31 1.37,0.32z"/>
   <path class="fil1" d="M557.95 161.34c-0.25,0 -0.51,0.01 -0.76,0.03 -2.74,0.21 -5.14,1.54 -6.97,3.84 -2.85,3.61 -3.92,9.29 -2.91,15.59 0.93,5.8 6.74,12.23 17.28,19.12 4.73,3.08 8.57,5.04 9.35,5.4 0.6,0.28 1.26,0.43 1.94,0.43 0.36,0 0.72,-0.04 1.08,-0.13 3.2,-0.6 6.59,-4.39 9.49,-10.67 3.1,-6.72 0.59,-17.33 -3.35,-23.91 -1.3,-2.2 -2.78,-3.97 -4.37,-5.27 -2.46,-2.01 -5.11,-3.03 -7.88,-3.03 -2.08,0 -3.79,0.58 -4.94,1.14 -1.51,-0.98 -4.07,-2.32 -7.1,-2.52 -0.28,-0.02 -0.57,-0.03 -0.87,-0.03zm0 2.41c0.24,0 0.49,0.01 0.71,0.03 3.99,0.26 7.12,2.98 7.12,2.98 0,0 2.05,-1.6 5.08,-1.6 1.84,0 4.04,0.59 6.36,2.49 1.4,1.14 2.7,2.75 3.82,4.64 3.85,6.44 5.76,16.15 3.23,21.66 -2.65,5.75 -5.58,8.91 -7.82,9.34 -0.19,0.04 -0.38,0.06 -0.56,0.06 -0.33,0 -0.65,-0.07 -0.93,-0.2 -0.9,-0.43 -4.68,-2.4 -9.04,-5.24 -6.88,-4.49 -15.22,-11.19 -16.23,-17.48 -1.51,-9.53 2.16,-16.23 7.66,-16.66 0.2,-0.01 0.41,-0.02 0.6,-0.02z"/>
   <g>
    <image x="555.67" y="158.75" width="29.75" height="44.59" xlink:href="leaftopright_Images\leaftopright_ImgID9.png"/>
   </g>
   <path class="fil2" d="M571.62 188.61c-0.48,-3.84 -1.16,-7.67 -2.15,-11.38 -1.2,-3.65 -2.12,-7.34 -4.06,-10.69 -0.02,-0.03 -0.01,-0.07 0.02,-0.09 0.03,-0.01 0.05,-0.01 0.08,0.01 1.57,1.26 2.46,3.12 3.37,4.86 0.74,1.84 1.25,3.75 1.58,5.68 0.78,3.84 1.17,7.73 1.29,11.61 0,0.03 -0.03,0.07 -0.06,0.07 -0.03,0 -0.07,-0.02 -0.07,-0.06z"/>
   <g>
    <image x="545.75" y="153.8" width="39.67" height="49.54" xlink:href="leaftopright_Images\leaftopright_ImgID10.png"/>
   </g>
   <path class="fil7" d="M521.25 192.89l0.06 0 0.06 0 0.16 0c3.31,-0.05 7.71,-1.57 12.72,-4.4 7.25,-4.13 12.38,-16.11 13.15,-25.31 0.26,-3.01 0.08,-5.69 -0.55,-7.96 -2.21,-8.25 -8.45,-9.88 -11.18,-10.19 -0.61,-1.77 -2.12,-5.34 -5.21,-7.87 -0.45,-0.38 -0.94,-0.74 -1.48,-1.09 -1.61,-0.97 -3.39,-1.47 -5.3,-1.47 -6.11,0 -12.46,5.1 -16.57,13.31 -3.8,7.61 -0.11,20.8 3.66,30.53 2.27,5.84 4.68,10.68 5.42,12 0.46,0.83 1.2,1.47 2.07,1.84 0.83,0.39 1.84,0.59 3,0.6z"/>
   <path class="fil1" d="M523.68 133.12c-6.67,0 -13.53,5.41 -17.9,14.13 -3.25,6.52 -2.04,17.19 3.6,31.75 2.53,6.5 4.98,11.28 5.5,12.19 0.62,1.1 1.6,1.97 2.83,2.5 0.97,0.45 2.23,0.7 3.65,0.7 3.6,0 8.31,-1.59 13.62,-4.6 7.97,-4.53 13.11,-17.02 13.9,-26.5 0.28,-3.16 0.08,-6.01 -0.6,-8.47 -2.24,-8.32 -8.25,-10.56 -11.53,-11.15 -0.81,-2.07 -2.44,-5.29 -5.33,-7.66 -0.51,-0.43 -1.05,-0.83 -1.65,-1.2 -1.87,-1.13 -3.91,-1.7 -6.09,-1.7zm0 2.99c1.6,0 3.14,0.41 4.52,1.25 0.48,0.3 0.91,0.62 1.32,0.96 3.82,3.15 5,8.14 5,8.14 0,0 0.04,-0.01 0.11,-0.01 0.95,0 8.39,0.29 10.78,9.17 0.59,2.16 0.74,4.72 0.49,7.44 -0.78,9.26 -5.86,20.44 -12.4,24.14 -5.08,2.88 -9.28,4.21 -12.15,4.21 -0.99,0 -1.82,-0.15 -2.48,-0.46 -0.63,-0.28 -1.1,-0.69 -1.4,-1.21 -0.6,-1.08 -2.99,-5.8 -5.32,-11.81 -3.68,-9.49 -7.25,-22.26 -3.72,-29.33 4.09,-8.16 10.04,-12.48 15.23,-12.48z"/>
   <g>
    <image x="511.03" y="129.02" width="44.63" height="64.41" xlink:href="leaftopright_Images\leaftopright_ImgID11.png"/>
   </g>
   <path class="fil2" d="M524.61 172.69c2.29,-4.22 4.37,-8.57 6.07,-13.02 0.78,-2.24 1.55,-4.5 2.14,-6.77 0.81,-2.23 1.23,-4.53 1.49,-6.94 0,-0.04 0.04,-0.08 0.08,-0.08 0.03,0 0.07,0.03 0.08,0.06 0.68,2.41 0.23,4.93 -0.12,7.34 -0.58,2.39 -1.46,4.68 -2.51,6.87 -1.99,4.42 -4.4,8.62 -7.1,12.63 -0.02,0.03 -0.07,0.05 -0.11,0.02 -0.04,-0.02 -0.04,-0.08 -0.03,-0.11z"/>
   <g>
    <image x="506.07" y="129.02" width="49.59" height="64.41" xlink:href="leaftopright_Images\leaftopright_ImgID12.png"/>
   </g>
   <path class="fil8" d="M332.87 59.77l-0.08 0 -0.08 0 -0.05 0 -0.05 0 -0.05 0 -0.05 0c-0.99,0.01 -1.93,0.08 -2.83,0.23 -8.36,1.28 -11.62,7.1 -12.41,10.88 -1.99,0.44 -6,1.65 -9.09,4.65 -0.48,0.46 -0.92,0.95 -1.35,1.49 -1.97,2.55 -2.68,5.71 -2.1,9.16 0.97,5.67 5.45,11.46 12.26,15.9 3,1.93 7.27,2.92 12.68,2.92 5.75,0 12.73,-1.08 20.75,-3.2 7.22,-1.93 12.58,-3.96 13.63,-4.41 0.94,-0.4 1.71,-1.11 2.23,-2.02 2.02,-3.31 1.23,-9.78 -2.19,-17.74 -3.57,-8.32 -15.91,-15.31 -25.77,-17.26 -1.91,-0.38 -3.75,-0.59 -5.46,-0.6z"/>
   <path class="fil1" d="M332.71 58.15c-1.15,0 -2.25,0.08 -3.29,0.24 -8.52,1.31 -12.26,6.94 -13.48,11.14 -2.35,0.64 -5.98,2 -8.89,4.83 -0.52,0.5 -1.02,1.05 -1.49,1.64 -2.27,2.94 -3.09,6.54 -2.44,10.43 1.05,6.11 5.77,12.31 12.98,16.99 3.27,2.12 7.83,3.19 13.56,3.19 5.89,0 13.02,-1.1 21.17,-3.26 7.34,-1.96 12.79,-4.04 13.84,-4.48 1.27,-0.53 2.33,-1.49 3.04,-2.75 2.28,-3.74 1.55,-10.57 -2.12,-19.13 -3.94,-9.15 -16.83,-16.22 -26.96,-18.21 -2.07,-0.42 -4.07,-0.63 -5.93,-0.63zm0 3.25c1.67,0 3.47,0.2 5.3,0.57 9.92,1.95 21.38,8.8 24.6,16.3 3.36,7.84 3.89,13.63 2.29,16.26 -0.38,0.65 -0.88,1.11 -1.49,1.36 -1.24,0.53 -6.62,2.53 -13.4,4.33 -6.27,1.66 -13.77,3.15 -20.35,3.15 -4.63,0 -8.82,-0.74 -11.8,-2.67 -10.9,-7.08 -14.31,-16.79 -9.76,-22.69 0.38,-0.49 0.78,-0.91 1.2,-1.32 3.87,-3.75 9.4,-4.43 9.4,-4.43 0,0 0.65,-9.04 11.22,-10.66 0.88,-0.14 1.81,-0.21 2.79,-0.21z"/>
   <g>
    <image x="307.7" y="54.7" width="64.47" height="49.54" xlink:href="leaftopright_Images\leaftopright_ImgID13.png"/>
   </g>
   <path class="fil9" d="M345.82 86.2c-4.43,-2.79 -8.99,-5.36 -13.63,-7.57 -2.34,-1.08 -4.79,-1.84 -7.04,-2.92 -2.25,-1.17 -4.48,-2.12 -7,-3.19 -0.09,-0.03 -0.14,-0.14 -0.11,-0.23 0.03,-0.05 0.07,-0.09 0.12,-0.11 2.74,-0.94 5.59,-0.38 8.22,0.27 2.65,0.74 4.92,2.29 7.14,3.75 4.52,2.84 8.66,6.13 12.51,9.73 0.07,0.07 0.08,0.18 0.01,0.25 -0.06,0.06 -0.16,0.07 -0.23,0.02z"/>
   <g>
    <image x="302.74" y="54.7" width="69.43" height="49.54" xlink:href="leaftopright_Images\leaftopright_ImgID14.png"/>
   </g>
   <path class="fil10" d="M244.21 32.72c-2.15,0.15 -6.24,0.85 -9.66,3.85 -0.54,0.46 -1.05,0.97 -1.56,1.57 -6.13,7.3 -3.27,21.17 6.66,32.28 4.39,4.89 12.28,7.35 23.46,7.35 3.42,0 6.82,-0.23 9.96,-0.58 7.47,-0.85 13.08,-2.24 14.15,-2.56 1.06,-0.3 1.98,-1.04 2.63,-2.07 2.38,-3.55 2.44,-11.5 0.16,-21.83 -2.4,-10.88 -13.66,-22 -23.15,-26.46 -3.13,-1.5 -6.06,-2.28 -9.06,-2.34 -8.42,0 -12.35,6.41 -13.58,10.79z"/>
   <path class="fil1" d="M257.78 20.19c-8.73,0 -13.18,6.13 -14.9,10.91 -2.5,0.34 -6.27,1.33 -9.5,4.18 -0.58,0.5 -1.15,1.07 -1.71,1.71 -6.82,8.11 -4,22.64 6.68,34.59 4.74,5.27 13.06,7.94 24.75,7.94 3.18,0 6.59,-0.2 10.15,-0.59 6.92,-0.79 12.74,-2.11 14.48,-2.63 1.45,-0.43 2.7,-1.41 3.61,-2.85 3.55,-5.3 1.76,-16.74 0.36,-23.08 -2.52,-11.41 -14.23,-23.03 -24.11,-27.68 -3.35,-1.6 -6.51,-2.43 -9.39,-2.49 -0.02,0 -0.39,0 -0.41,0zm0 3.48c0.12,0 0.23,0 0.34,0.01 2.44,0.04 5.17,0.82 7.97,2.15 9.57,4.51 20,15.36 22.19,25.28 2.28,10.37 2.03,17.59 0.09,20.49 -0.45,0.73 -1.01,1.18 -1.65,1.37 -1.3,0.38 -6.9,1.71 -13.87,2.49 -3.06,0.34 -6.4,0.58 -9.76,0.58 -8.65,0 -17.45,-1.55 -22.15,-6.78 -9.85,-11.02 -11.92,-23.7 -6.63,-30 0.43,-0.51 0.9,-0.96 1.36,-1.37 3.68,-3.23 8.27,-3.47 9.55,-3.47 0.23,0 0.35,0.01 0.35,0.01 0,0 1.81,-10.75 12.2,-10.75z"/>
   <g>
    <image x="233.31" y="15.07" width="64.47" height="64.41" xlink:href="leaftopright_Images\leaftopright_ImgID15.png"/>
   </g>
   <path class="fil9" d="M270.57 57.28c-3.9,-4.29 -7.99,-8.41 -12.27,-12.19 -2.17,-1.88 -4.54,-3.45 -6.63,-5.27 -2.09,-1.9 -4.19,-3.6 -6.68,-5.23 -0.09,-0.05 -0.12,-0.17 -0.07,-0.25 0.02,-0.05 0.09,-0.08 0.14,-0.09 3.19,-0.26 6.08,1.26 8.66,2.76 2.56,1.62 4.56,3.89 6.52,6.09 3.97,4.36 7.48,9.04 10.61,13.97 0.05,0.08 0.03,0.19 -0.06,0.24 -0.07,0.05 -0.17,0.03 -0.23,-0.03z"/>
   <g>
    <image x="228.35" y="15.07" width="69.43" height="64.41" xlink:href="leaftopright_Images\leaftopright_ImgID16.png"/>
   </g>
   <path class="fil11" d="M165.08 126.8l0.04 0 0.05 0 0.03 0 0.03 0c0.58,-0.02 1.11,-0.3 1.47,-0.77 0.42,-0.55 10.06,-13.94 -0.13,-37.36 -0.29,-0.68 -0.61,-1.34 -0.94,-1.93 -1.27,-2.48 -2.78,-4.69 -4.49,-6.57 -7,-7.7 -16.44,-9.32 -23.12,-9.32 -5.46,0 -9.43,1.05 -10.22,1.4 -0.73,0.54 -7.04,5.9 -3.17,29.67l0.27 1.31c1.63,6.96 6.17,12.57 13.49,16.69 11.44,6.4 25.68,6.86 26.71,6.88z"/>
   <path class="fil1" d="M138.02 68.95l0 0c-5.71,0 -9.92,1.12 -10.1,1.17 -0.45,0.13 -0.87,0.33 -1.25,0.6 -1.36,0.99 -7.89,7.12 -3.99,31.15 0.12,0.64 0.23,1.22 0.35,1.78 1.76,7.52 6.6,13.55 14.41,17.94 12.04,6.73 27.02,7.11 27.65,7.13l0.07 0c1.2,0 2.34,-0.57 3.05,-1.54 0.44,-0.59 10.72,-14.83 0.1,-39.26 -0.32,-0.73 -0.66,-1.42 -1.02,-2.1 -1.32,-2.57 -2.93,-4.91 -4.74,-6.92 -7.47,-8.22 -17.47,-9.95 -24.54,-9.95zm0 3.81c6.52,0 15.26,1.59 21.72,8.7 1.55,1.71 2.97,3.75 4.21,6.16 0.31,0.58 0.6,1.2 0.88,1.81 9.86,22.69 0.34,35.47 0.34,35.47 0,0 -14.52,-0.28 -25.86,-6.63 -5.85,-3.3 -10.86,-8.17 -12.56,-15.47 -0.12,-0.5 -0.21,-1.03 -0.31,-1.55 -3.72,-22.93 2.49,-27.46 2.49,-27.46 0,0 3.82,-1.04 9.09,-1.04z"/>
   <g>
    <image x="124.21" y="74.52" width="54.55" height="54.5" xlink:href="leaftopright_Images\leaftopright_ImgID17.png"/>
   </g>
   <path class="fil9" d="M156.37 105.54c-3.39,-6.05 -7.29,-11.78 -11.57,-17.16 -2.2,-2.64 -4.48,-5.19 -6.76,-7.73l-6.74 -7.87c-0.04,-0.06 -0.03,-0.14 0.02,-0.19 0.04,-0.03 0.11,-0.04 0.15,-0.02 3.18,1.6 5.96,3.84 8.53,6.26 2.42,2.57 4.64,5.31 6.52,8.27 3.97,5.78 7.39,11.9 10.1,18.32 0.03,0.08 0,0.15 -0.07,0.18 -0.07,0.03 -0.14,0 -0.18,-0.06z"/>
   <g>
    <image x="124.21" y="64.61" width="49.59" height="54.5" xlink:href="leaftopright_Images\leaftopright_ImgID18.png"/>
   </g>
   <path class="fil12" d="M101.63 77.33l0.09 0 0.09 0c1.75,-0.02 2.71,-0.42 3.49,-0.94 0.39,-0.41 9.52,-10.24 9.75,-23.19 0.05,-2.43 -0.23,-4.79 -0.78,-7.04 -1,-3.96 -2.93,-7.76 -5.71,-11.29 -12.77,-16.1 -25.88,-17.84 -30.93,-17.84 -1.28,0 -1.99,0.11 -1.99,0.11 -0.6,0.1 -1.13,0.48 -1.41,1.02 -0.27,0.52 -6.42,12.77 -6.56,25.65 -0.05,4.87 0.78,9.22 2.45,12.91 1.57,3.58 4.01,6.65 7.24,9.11 12.45,9.5 20.06,11.49 24.27,11.49z"/>
   <path class="fil1" d="M77.63 15.13l0 0c-1.46,0 -2.27,0.14 -2.27,0.14 -1.2,0.2 -2.28,0.95 -2.83,2.03 -0.27,0.54 -6.63,13.18 -6.76,26.5 -0.05,5.14 0.84,9.76 2.63,13.73 1.7,3.86 4.33,7.18 7.82,9.82 12.87,9.82 20.92,11.89 25.41,11.89 2.2,0 3.49,-0.5 3.93,-0.72 0.43,-0.2 0.8,-0.48 1.13,-0.82 0.4,-0.43 10.02,-10.78 10.27,-24.47 0.06,-2.57 -0.23,-5.11 -0.84,-7.54 -1.07,-4.23 -3.11,-8.26 -6.07,-12 -13.28,-16.75 -27.09,-18.56 -32.41,-18.56zm0 3.81c4.48,0 17.07,1.53 29.43,17.11 2.82,3.57 4.49,7.14 5.36,10.57 0.56,2.23 0.76,4.42 0.72,6.54 -0.22,12.37 -9.23,21.93 -9.23,21.93 0,0 -0.71,0.34 -2.29,0.34 -3.34,0 -10.57,-1.54 -23.11,-11.11 -3.12,-2.37 -5.27,-5.24 -6.64,-8.36 -1.73,-3.82 -2.34,-7.99 -2.29,-12.12 0.13,-12.59 6.35,-24.81 6.35,-24.81 0,0 0.61,-0.09 1.71,-0.09z"/>
   <g>
    <image x="64.69" y="10.11" width="54.55" height="49.54" xlink:href="leaftopright_Images\leaftopright_ImgID19.png"/>
   </g>
   <path class="fil9" d="M86.37 36.51c4.34,4.88 8.27,10.11 11.83,15.63 1.87,2.69 3.49,5.57 4.9,8.55 1.21,3.06 2.29,6.22 2.65,9.54 0.01,0.08 -0.04,0.14 -0.12,0.15 -0.06,0.01 -0.11,-0.03 -0.13,-0.06 -1.8,-2.81 -3.2,-5.69 -4.81,-8.48l-4.33 -8.62c-3.09,-5.67 -6.48,-11.22 -10.2,-16.55 -0.04,-0.06 -0.03,-0.14 0.03,-0.18 0.05,-0.04 0.13,-0.03 0.18,0.02z"/>
   <g>
    <image x="64.69" y="34.89" width="54.55" height="44.59" xlink:href="leaftopright_Images\leaftopright_ImgID20.png"/>
   </g>
   <path class="fil13" d="M97.15 61.84l-0.07 0 -0.07 0 -0.07 0c-1.37,0.01 -2.81,0.18 -4.28,0.5 -2.95,0.63 -6.1,1.98 -9.34,4.03 -10,6.24 -20.6,19.06 -21.05,29.67 -0.41,10.15 1.42,17.56 4.97,20.31 0.98,0.81 2.14,1.27 3.35,1.31l1.33 0.02c3.4,0 9.23,-0.23 15.43,-0.88 13.23,-1.4 30.34,-4.9 36.78,-13.67 5.63,-7.71 8.11,-15.93 6.79,-22.54 -0.79,-4.02 -2.91,-7.18 -6.14,-9.16 -0.69,-0.4 -1.38,-0.75 -2.08,-1.06 -2.42,-1.04 -5.18,-1.57 -8.19,-1.57 -1.52,0 -2.83,0.14 -3.75,0.28 -1.57,-2.4 -5.71,-7.24 -13.61,-7.24z"/>
   <path class="fil1" d="M97.15 59.94c-1.57,0 -3.22,0.18 -4.89,0.54 -3.16,0.68 -6.51,2.12 -9.95,4.28 -10.26,6.41 -21.43,19.54 -21.93,31.21 -0.44,10.92 1.6,18.71 5.76,21.93 1.22,1.01 2.78,1.62 4.39,1.67 0.29,0.01 0.77,0.02 1.39,0.02 3.45,0 9.36,-0.23 15.64,-0.88 19.79,-2.1 32.61,-6.96 38.1,-14.44 5.95,-8.14 8.54,-16.91 7.13,-24.04 -0.89,-4.55 -3.31,-8.15 -6.99,-10.4 -0.79,-0.48 -1.57,-0.86 -2.35,-1.2 -2.65,-1.15 -5.67,-1.72 -8.94,-1.72 -1.07,0 -2.04,0.06 -2.86,0.14 -2.18,-2.86 -6.72,-7.11 -14.5,-7.11zm0 3.81c9.18,0 12.65,7.45 12.65,7.45 0,0 1.97,-0.49 4.71,-0.49 2.18,0 4.86,0.3 7.44,1.41 0.63,0.27 1.25,0.57 1.86,0.94 7.45,4.57 7.77,16.65 -1.21,28.95 -5.96,8.13 -22.52,11.54 -35.42,12.9 -6.78,0.7 -12.56,0.87 -15.25,0.87 -0.56,0 -0.98,-0.01 -1.25,-0.03 -0.77,-0.02 -1.52,-0.31 -2.2,-0.87 -2.84,-2.21 -4.68,-8.77 -4.28,-18.76 0.39,-9.57 10.1,-21.87 20.14,-28.15 2.95,-1.85 5.93,-3.19 8.73,-3.78 1.47,-0.31 2.84,-0.45 4.09,-0.45z"/>
   <g>
    <image x="59.73" y="54.7" width="69.43" height="64.41" xlink:href="leaftopright_Images\leaftopright_ImgID21.png"/>
   </g>
   <path class="fil9" d="M85.62 97.64c2.89,-5.44 6.18,-10.68 10,-15.56 1.83,-2.52 3.91,-4.88 6.31,-6.93 2.5,-1.88 5.26,-3.72 8.46,-4.2 0.08,-0.01 0.14,0.04 0.15,0.12 0.01,0.05 -0.01,0.1 -0.05,0.14 -2.51,1.86 -4.69,3.8 -6.78,5.95 -2.21,1.99 -4.33,4.13 -6.45,6.31 -4.1,4.47 -7.88,9.3 -11.4,14.31 -0.04,0.06 -0.13,0.08 -0.19,0.04 -0.05,-0.04 -0.07,-0.12 -0.04,-0.18z"/>
   <g>
    <image x="64.69" y="54.7" width="74.39" height="64.41" xlink:href="leaftopright_Images\leaftopright_ImgID22.png"/>
   </g>
   <path class="fil14" d="M213.94 29.3l-0.11 0c-4.87,0 -8.2,2.45 -9.72,3.88 -1.56,-0.64 -4.5,-1.6 -7.85,-1.6 -0.9,0 -1.83,0.07 -2.76,0.23 -0.67,0.11 -1.36,0.28 -2.04,0.48 -3.2,1.04 -5.7,3.35 -7.22,6.66 -2.52,5.47 -2.09,13.12 1.18,20.97 3.75,8.93 17.86,15.54 29.04,19.53 7.38,2.61 13.21,4.01 14.35,4.24 0.11,0.02 0.83,0.09 0.95,0.09 0.75,0 1.51,-0.18 2.17,-0.51 3.71,-1.67 6.84,-7.71 8.6,-16.6 1.83,-9.31 -4.69,-22.63 -12.05,-30.13 -2.4,-2.46 -4.85,-4.29 -7.26,-5.44 -2.46,-1.19 -4.91,-1.8 -7.28,-1.82z"/>
   <path class="fil1" d="M213.82 27.61l0 0c-4.68,0 -8.1,2.04 -10.06,3.64 -1.81,-0.65 -4.51,-1.36 -7.52,-1.36 -0.99,0 -2.01,0.08 -3.04,0.26 -0.74,0.13 -1.5,0.3 -2.25,0.54 -3.69,1.2 -6.54,3.81 -8.27,7.57 -2.72,5.9 -2.29,14.04 1.16,22.33 3.19,7.64 13.29,14.53 30.01,20.48 7.5,2.64 13.43,4.07 14.61,4.31 0.4,0.08 0.83,0.13 1.26,0.13 1.01,0 2.02,-0.24 2.98,-0.71 4.18,-1.87 7.58,-8.2 9.47,-17.77 2.02,-10.23 -4.94,-23.93 -12.51,-31.65 -2.52,-2.58 -5.12,-4.53 -7.73,-5.78 -2.72,-1.31 -5.46,-1.98 -8.12,-1.98zm0 3.4c1.95,0 4.17,0.44 6.66,1.64 2.29,1.1 4.61,2.88 6.77,5.09 7.41,7.55 13.25,20.23 11.6,28.61 -1.73,8.76 -4.69,14.06 -7.63,15.39 -0.49,0.24 -1,0.36 -1.49,0.36 -0.2,0 -0.4,-0.02 -0.59,-0.06 -1.38,-0.28 -7.21,-1.73 -14.13,-4.18 -10.91,-3.87 -24.56,-10.28 -28.03,-18.58 -5.22,-12.55 -2.42,-22.95 4.99,-25.36 0.6,-0.19 1.2,-0.33 1.81,-0.43 0.84,-0.14 1.66,-0.21 2.47,-0.21 4.52,0 8.26,1.94 8.26,1.94 0,0 3.35,-4.22 9.32,-4.22z"/>
   <g>
    <image x="193.64" y="24.98" width="54.55" height="59.45" xlink:href="leaftopright_Images\leaftopright_ImgID23.png"/>
   </g>
   <path class="fil9" d="M219.67 63.27c-2.16,-5.03 -4.54,-9.95 -7.24,-14.61 -1.38,-2.32 -3.02,-4.43 -4.33,-6.69 -1.27,-2.34 -2.65,-4.48 -4.23,-6.84 -0.07,-0.08 -0.04,-0.2 0.04,-0.26 0.04,-0.03 0.11,-0.04 0.16,-0.03 2.88,0.84 4.99,3.01 6.88,5.13 1.83,2.21 2.89,4.88 3.96,7.44 2.22,5.1 3.87,10.39 5.09,15.76 0.02,0.09 -0.04,0.18 -0.14,0.21 -0.08,0.02 -0.17,-0.03 -0.2,-0.11z"/>
   <g>
    <image x="183.72" y="24.98" width="54.55" height="59.45" xlink:href="leaftopright_Images\leaftopright_ImgID24.png"/>
   </g>
   <path class="fil15" d="M164.28 80.97l0.06 0 0.06 0 0.06 0c8.24,0 18.82,-5.9 26.26,-10.84 5.3,-3.55 9.65,-7.05 10.82,-8.1 0.73,-0.64 1.21,-1.51 1.39,-2.48 0.8,-3.57 -1.88,-9.11 -7.35,-15.17 -4.93,-5.46 -15.18,-7.91 -23.16,-7.91 -1.77,0 -3.48,0.11 -5.12,0.32 -3.02,0.4 -5.73,1.2 -7.85,2.32 -7.08,3.69 -8.22,9.88 -7.77,13.48 -1.64,1.01 -4.85,3.31 -6.7,6.93 -0.28,0.55 -0.53,1.13 -0.76,1.74 -0.97,2.88 -0.64,5.93 0.92,8.82 2.59,4.78 8.36,8.58 15.81,10.47 1.03,0.26 2.16,0.4 3.35,0.42z"/>
   <path class="fil1" d="M172.4 34.94c-1.84,0 -3.64,0.12 -5.33,0.35 -3.23,0.42 -6.04,1.24 -8.36,2.46 -7.2,3.76 -8.83,9.93 -8.64,14.06 -1.9,1.27 -4.74,3.61 -6.48,7.02 -0.31,0.6 -0.59,1.24 -0.83,1.92 -1.13,3.31 -0.78,6.78 1.01,10.07 2.79,5.15 8.9,9.24 16.76,11.22 1.21,0.3 2.53,0.46 3.91,0.46 8.62,0 19.5,-6.04 27.11,-11.11 5.96,-3.98 10.19,-7.5 11,-8.22 0.97,-0.86 1.61,-2.03 1.88,-3.38 0.89,-4.04 -1.84,-9.91 -7.73,-16.45 -5.61,-6.2 -16.6,-8.4 -24.31,-8.4zm0 3.06c8.44,0 17.73,2.63 22.03,7.39 5.39,5.97 7.62,10.98 7,13.81 -0.14,0.7 -0.44,1.26 -0.91,1.68 -0.95,0.84 -5.14,4.27 -10.65,7.96 -7.6,5.05 -17.73,10.58 -25.41,10.58 -1.11,0 -2.16,-0.11 -3.15,-0.36 -11.9,-3 -17.9,-10.65 -15.64,-17.3 0.18,-0.54 0.42,-1.05 0.66,-1.55 2.31,-4.53 7.05,-6.82 7.05,-6.82 0,0 -2.18,-8.27 6.77,-12.94 2.03,-1.06 4.57,-1.77 7.34,-2.14 1.58,-0.21 3.23,-0.32 4.92,-0.32z"/>
   <g>
    <image x="144.04" y="29.93" width="64.47" height="39.63" xlink:href="leaftopright_Images\leaftopright_ImgID25.png"/>
   </g>
   <path class="fil9" d="M181.85 57.57c-4.79,-1.22 -9.62,-2.21 -14.46,-2.82 -2.43,-0.21 -4.83,-0.44 -7.2,-0.54 -2.39,-0.3 -4.7,-0.43 -7.24,-0.43 -0.08,0 -0.14,-0.06 -0.14,-0.14 0,-0.05 0.02,-0.09 0.06,-0.12 2.19,-1.5 4.89,-1.82 7.41,-1.99 2.57,0.03 5.07,0.44 7.5,1.11 4.89,1.1 9.6,2.72 14.17,4.68 0.07,0.02 0.09,0.1 0.07,0.18 -0.02,0.06 -0.1,0.08 -0.16,0.08z"/>
   <g>
    <image x="144.04" y="29.93" width="64.47" height="49.54" xlink:href="leaftopright_Images\leaftopright_ImgID26.png"/>
   </g>
   <path class="fil16" d="M304.26 78.59l0.06 0 0.06 0 0.06 0 0.06 0c1.21,-0.01 2.48,-0.12 3.82,-0.33 6.31,-1.02 12.72,-9.03 16.99,-15.58 2.77,-4.27 4.59,-7.82 4.91,-8.54 0.32,-0.64 0.38,-1.36 0.23,-2.07 -0.48,-2.63 -3.88,-5.57 -9.3,-8.07 -1.69,-0.78 -3.75,-1.17 -6.16,-1.17 -4.88,0 -10.63,1.63 -14.98,4.24 -1.94,1.15 -3.49,2.43 -4.6,3.8 -3.69,4.52 -2.67,9 -1.32,11.29 -0.82,1.15 -2.32,3.61 -2.51,6.58 -0.02,0.45 -0.04,0.9 0,1.39 0.39,5.05 5.5,8.45 12.69,8.45z"/>
   <path class="fil1" d="M314.97 41.72c-5.07,0 -11.02,1.68 -15.56,4.4 -2.04,1.21 -3.69,2.58 -4.89,4.06 -3.75,4.6 -3.06,9.21 -1.75,11.93 -0.91,1.4 -2.14,3.78 -2.33,6.57 -0.03,0.49 -0.03,1 0,1.53 0.44,5.69 5.99,9.5 13.81,9.5 1.36,0 2.8,-0.12 4.25,-0.34 5.38,-0.87 11.34,-6.28 17.74,-16.08 2.85,-4.39 4.69,-7.97 5.01,-8.68 0.4,-0.86 0.5,-1.83 0.28,-2.81 -0.56,-2.97 -4.09,-6.12 -9.92,-8.81 -1.83,-0.84 -4.06,-1.26 -6.64,-1.26zm0 2.23c2.14,0 4.12,0.33 5.71,1.07 5.34,2.45 8.28,5.17 8.68,7.25 0.11,0.5 0.07,0.97 -0.13,1.38 -0.39,0.85 -2.23,4.35 -4.85,8.41 -4.18,6.38 -10.38,14.15 -16.22,15.08 -1.37,0.23 -2.67,0.33 -3.9,0.33 -6.73,0 -11.24,-3.1 -11.58,-7.43 -0.03,-0.42 -0.03,-0.82 0,-1.22 0.24,-3.71 2.77,-6.61 2.77,-6.61 0,0 -3.85,-4.92 0.81,-10.62 1.05,-1.3 2.55,-2.52 4.31,-3.55 4.11,-2.47 9.67,-4.08 14.4,-4.08z"/>
   <g>
    <image x="287.86" y="34.89" width="49.59" height="34.68" xlink:href="leaftopright_Images\leaftopright_ImgID27.png"/>
   </g>
   <path class="fil9" d="M315.75 56.84c-3.55,0.62 -7.07,1.4 -10.46,2.42l-4.95 1.76c-1.69,0.44 -3.27,0.98 -5.05,1.6 -0.06,0.03 -0.14,0 -0.16,-0.06 -0.02,-0.03 -0.01,-0.08 0.01,-0.12 2.15,-3.38 6.14,-4.67 9.71,-5.05 3.62,-0.63 7.26,-0.86 10.89,-0.79 0.07,0 0.12,0.06 0.12,0.13 0,0.06 -0.05,0.11 -0.1,0.12z"/>
   <g>
    <image x="287.86" y="39.84" width="49.59" height="39.64" xlink:href="leaftopright_Images\leaftopright_ImgID28.png"/>
   </g>
   <path class="fil17" d="M291.7 74.29l-0.03 0 -0.03 0 -0.03 0 -0.04 0 -0.03 0 -0.03 0 -0 0 -0.01 0 -0.01 0 -0.02 0 -0.88 0.02c-4.32,0.24 -7.93,2.39 -9.59,3.56 -1.32,-0.76 -3.77,-1.87 -6.88,-1.87 -3.31,0 -6.52,1.22 -9.51,3.63 -1.98,1.58 -3.92,3.87 -5.58,6.62 -5.25,8.57 -8.45,22.38 -4.75,30.65 3.55,7.91 7.77,12.87 11.54,13.61 0.12,0.03 1.02,0.14 1.14,0.14 0.67,0 1.3,-0.14 1.9,-0.41 1.5,-0.68 6.71,-3.39 12.46,-7.04 9.56,-6.12 21.27,-15.32 22.84,-24.44 1.36,-8.02 0.11,-15.23 -3.41,-19.79 -2.13,-2.75 -4.94,-4.37 -8.16,-4.64 -0.29,-0.03 -0.58,-0.04 -0.88,-0.04z"/>
   <path class="fil1" d="M291.5 72.67c-0.34,0 -0.69,0.01 -1.03,0.03 -4.05,0.23 -7.53,1.99 -9.58,3.28 -1.57,-0.77 -3.92,-1.59 -6.79,-1.59 -3.68,0 -7.22,1.33 -10.51,3.97 -2.16,1.71 -4.16,4.09 -5.96,7.05 -5.39,8.8 -8.91,23.06 -4.84,32.16 3.82,8.51 8.35,13.67 12.74,14.54 0.4,0.1 0.92,0.16 1.42,0.16 0.9,0 1.76,-0.18 2.57,-0.55 1.04,-0.48 6.26,-3.08 12.66,-7.15 14.3,-9.14 22.23,-17.73 23.57,-25.53 1.43,-8.47 0.07,-16.15 -3.72,-21.06 -2.42,-3.13 -5.63,-4.95 -9.3,-5.27 -0.43,-0.04 -0.83,-0.05 -1.23,-0.05zm0 3.25c0.31,0 0.63,0.01 0.94,0.03 7.42,0.65 12.27,9.74 10.11,22.54 -1.46,8.48 -12.79,17.38 -22.11,23.34 -5.92,3.77 -11.04,6.37 -12.27,6.93 -0.37,0.17 -0.78,0.26 -1.21,0.26 -0.26,0 -0.52,-0.03 -0.79,-0.09 -3.01,-0.6 -6.91,-4.91 -10.41,-12.69 -3.35,-7.45 -0.63,-20.52 4.64,-29.14 1.54,-2.53 3.31,-4.69 5.22,-6.21 3.09,-2.48 6.03,-3.26 8.48,-3.26 4.15,0 6.94,2.23 6.94,2.23 0,0 4.25,-3.61 9.63,-3.92 0.28,-0.02 0.55,-0.03 0.83,-0.03z"/>
   <g>
    <image x="253.15" y="69.57" width="44.63" height="64.41" xlink:href="leaftopright_Images\leaftopright_ImgID29.png"/>
   </g>
   <path class="fil9" d="M272.61 109.22c-0.04,-5.27 0.33,-10.55 1.29,-15.79 0.44,-2.62 0.84,-5.34 2.08,-7.79 1.3,-2.38 2.83,-4.86 5.36,-6.24 0.09,-0.05 0.2,-0.02 0.25,0.07 0.03,0.04 0.03,0.11 0.02,0.15 -0.93,2.58 -1.73,4.86 -2.4,7.31 -0.73,2.39 -1.82,4.7 -2.6,7.16 -1.53,4.91 -2.71,10 -3.65,15.15 -0.02,0.1 -0.11,0.16 -0.2,0.15 -0.08,-0.02 -0.15,-0.09 -0.15,-0.18z"/>
   <g>
    <image x="258.11" y="69.57" width="54.55" height="59.45" xlink:href="leaftopright_Images\leaftopright_ImgID30.png"/>
   </g>
   <path class="fil18" d="M316.46 119.17l0.05 0 0.05 0 0.05 0c5.63,0 12.09,-3.92 16.51,-7.2 3.33,-2.49 5.98,-4.97 6.68,-5.71 0.47,-0.5 0.72,-1.16 0.74,-1.89 0.17,-2.6 -2.27,-6.82 -6.64,-11.57 -4.4,-4.76 -12.63,-6.93 -18.4,-6.93 -0.68,0 -1.34,0.03 -1.97,0.09 -2.12,0.18 -3.91,0.68 -5.31,1.45 -4.63,2.57 -4.75,7.26 -4.04,10 -1.09,0.74 -3.03,2.37 -3.92,5.03 -0.13,0.39 -0.24,0.82 -0.32,1.28 -0.99,5.74 4.8,12.18 13.46,14.98 0.95,0.3 1.97,0.46 3.05,0.48z"/>
   <path class="fil1" d="M315.5 84.81c-0.7,0 -1.4,0.03 -2.07,0.09 -2.26,0.19 -4.19,0.73 -5.72,1.58 -4.81,2.67 -5.3,7.36 -4.72,10.48 -1.23,0.95 -2.9,2.63 -3.72,5.12 -0.15,0.45 -0.28,0.93 -0.38,1.43 -1.1,6.38 4.87,13.19 14.18,16.2 1.11,0.36 2.29,0.54 3.55,0.54 5.92,0 12.59,-4.03 17.14,-7.41 3.41,-2.55 6.07,-5.04 6.83,-5.85 0.64,-0.68 1,-1.58 1.02,-2.62 0.24,-3.89 -4.23,-9.38 -6.93,-12.3 -4.6,-4.99 -13.18,-7.26 -19.18,-7.26zm0 2.12c6.19,0 13.81,2.45 17.63,6.59 4.39,4.76 6.49,8.66 6.36,10.78 -0.02,0.53 -0.18,0.94 -0.45,1.23 -0.56,0.6 -3.11,3.03 -6.54,5.6 -4.54,3.37 -10.67,6.98 -15.87,6.98 -1.01,0 -1.98,-0.13 -2.89,-0.42 -8.6,-2.78 -13.6,-8.84 -12.75,-13.8 0.08,-0.4 0.18,-0.78 0.3,-1.14 1.11,-3.34 4.16,-4.89 4.16,-4.89 0,0 -2.41,-6.36 3.3,-9.54 1.3,-0.72 2.99,-1.15 4.87,-1.31 0.61,-0.06 1.24,-0.09 1.88,-0.09z"/>
   <g>
    <image x="297.78" y="79.48" width="49.59" height="34.68" xlink:href="leaftopright_Images\leaftopright_ImgID31.png"/>
   </g>
   <path class="fil9" d="M325.65 102.3c-3.45,-0.88 -6.92,-1.64 -10.34,-2.19 -1.72,-0.25 -3.46,-0.18 -5.06,-0.6l-5.04 -1.3c-0.11,-0.02 -0.18,-0.12 -0.16,-0.23 0.01,-0.04 0.04,-0.07 0.06,-0.11 1.53,-1.5 3.65,-1.7 5.51,-1.82 1.91,-0.02 3.67,0.72 5.37,1.36 3.45,1.2 6.7,2.74 9.8,4.56 0.08,0.05 0.11,0.16 0.06,0.24 -0.04,0.07 -0.13,0.1 -0.2,0.08z"/>
   <g>
    <image x="297.78" y="79.48" width="49.59" height="39.63" xlink:href="leaftopright_Images\leaftopright_ImgID32.png"/>
   </g>
   <path class="fil19" d="M39.22 30.1l-0.03 0 -0.02 0 -0.02 0 -0.02 0 -0.03 0 -0.02 0 -0.15 0c-3.1,0.04 -5.68,1.28 -7.44,3.6 -2.73,3.56 -3.23,9.34 -2.81,15.07 -4.74,-5.32 -10.47,-8.11 -15.08,-8.11 -2.98,0 -5.5,1.14 -7.13,3.2 -1.42,1.78 -2.81,5.13 -1.45,10.88 1.14,4.79 3.23,8.36 5.74,10.99 -3.04,0.66 -5.85,3.11 -7.24,6.43 -1.9,4.5 -0.81,9.54 2.98,13.83 2.25,2.55 5.25,3.9 8.67,3.9 0.24,0 0.49,-0.01 0.72,-0.02 -3.02,4.47 -4.07,8.99 -2.77,12.86 1.55,4.59 6.1,7.23 12.48,7.23 7.29,0 12.01,-4.68 15.01,-9.85 0.79,2.64 2.01,4.98 3.66,6.89 2.74,3.2 6.54,5.03 10.42,5.03 6.12,-0.01 11.09,-4.22 12.99,-11 1.86,-6.58 0.84,-12.67 -3.01,-18.15 -1.17,-1.61 -2.49,-3 -3.82,-4.15 20.94,-2.03 22.12,-12.95 21.97,-16.28 -0.32,-7.24 -6.86,-13.59 -14.01,-13.59 -1.2,0 -2.41,0.18 -3.55,0.53 -3.93,1.15 -7.55,2.65 -10.75,4.22 1.35,-4.13 1.41,-8.54 0.03,-12.58 -2.09,-6.06 -7.14,-10.02 -13.82,-10.83 -0.52,-0.06 -1.01,-0.09 -1.48,-0.1z"/>
   <path class="fil20" d="M39.07 27.51c-4.01,0 -7.33,1.6 -9.64,4.63 -2.12,2.78 -3.1,6.54 -3.39,10.64 -4.14,-3.1 -8.57,-4.69 -12.45,-4.69 -3.78,0 -7.03,1.48 -9.16,4.18 -1.76,2.22 -3.53,6.31 -1.93,13.07 0.88,3.69 2.32,6.79 4.15,9.39 -2.4,1.45 -4.36,3.7 -5.51,6.43 -2.3,5.46 -1.05,11.49 3.43,16.56 1.97,2.21 4.39,3.7 7.14,4.36 -1.81,3.97 -2.22,7.93 -1.04,11.48 1.89,5.63 7.47,8.99 14.93,8.99 5.63,0 10.56,-2.51 14.45,-7.09 0.65,1.16 1.4,2.23 2.25,3.23 3.23,3.76 7.75,5.93 12.38,5.93 7.2,0 13.28,-5.06 15.47,-12.9 2.05,-7.24 0.89,-14.26 -3.36,-20.29 -0.21,-0.28 -0.42,-0.56 -0.63,-0.83 18.33,-3.48 19.38,-14.65 19.23,-18.25 -0.38,-8.7 -7.98,-16.05 -16.59,-16.05 -1.47,0 -2.92,0.22 -4.33,0.64 -2.25,0.66 -4.41,1.43 -6.44,2.27 0.27,-3.04 -0.08,-6.11 -1.07,-9 -2.43,-7.04 -8.24,-11.62 -15.95,-12.56 -0.69,-0.08 -1.32,-0.13 -1.94,-0.13zm0 5.16c0.42,0 0.86,0.03 1.32,0.08 13.99,1.71 16.37,18.43 6.7,28.09 4.44,-2.95 11.15,-6.71 18.88,-8.98 0.94,-0.28 1.89,-0.42 2.83,-0.42 11.96,0 21.44,22.12 -8.74,24.75l-0.11 0c-2.17,0.23 -4.55,0.34 -7.05,0.34 0,0 5.8,2.5 9.67,7.85 2.73,3.86 4.54,9.1 2.61,15.92 -1.72,6.13 -6.06,9.13 -10.5,9.13 -7.04,0 -14.36,-7.49 -12.13,-21.98 -1.14,5.46 -5.35,19.9 -16.95,19.9 -13.54,0 -14.33,-12.96 0.12,-23.88 -2.6,1.69 -6.65,3.82 -10.56,3.82 -2.42,0 -4.78,-0.8 -6.73,-3.01 -7.04,-7.97 -1.13,-15.93 3.76,-16.15l0.17 0c3.89,0 8.37,3.04 14.32,3.04 1.48,0 3.05,-0.18 4.73,-0.65 0,0 -0.54,0.04 -1.47,0.04 -4.63,0 -18.81,-1.25 -22.41,-16.42 -1.74,-7.34 1.36,-10.89 6.07,-10.89 6.36,0 15.63,6.49 19.74,18.86l0.12 0.11c0.23,0.57 0.46,1.26 0.57,1.83 0,-0.23 -0.11,-0.45 -0.11,-0.69l0 -0.11c-1.87,-6.82 -7.25,-30.57 5.16,-30.57z"/>
   <g>
    <image x="5.18" y="34.89" width="34.71" height="39.63" xlink:href="leaftopright_Images\leaftopright_ImgID33.png"/>
   </g>
   <g>
    <image x="5.18" y="59.66" width="69.43" height="54.5" xlink:href="leaftopright_Images\leaftopright_ImgID34.png"/>
   </g>
   <g>
    <image x="29.98" y="24.98" width="59.51" height="54.5" xlink:href="leaftopright_Images\leaftopright_ImgID35.png"/>
   </g>
   <path class="fil21" d="M30.88 73.66c0,4.95 4.03,8.98 8.99,8.98 4.94,0 8.98,-4.02 8.98,-8.98 0,-4.95 -4.03,-8.99 -8.98,-8.99 -4.96,0 -8.99,4.03 -8.99,8.99z"/>
   <path class="fil22" d="M39.87 63.26c-5.74,0 -10.41,4.67 -10.41,10.41 0,5.74 4.67,10.41 10.41,10.41 5.74,0 10.41,-4.67 10.41,-10.41 0,-5.74 -4.67,-10.41 -10.41,-10.41zm0 2.85c4.18,0 7.56,3.39 7.56,7.56 0,4.17 -3.39,7.56 -7.56,7.56 -4.18,0 -7.56,-3.39 -7.56,-7.56 0,-4.17 3.38,-7.56 7.56,-7.56z"/>
   <path class="fil23" d="M417.5 2.58l-0.18 0c-4.68,0 -8.41,1.76 -11.05,5.23 -4.99,6.56 -4.99,18.37 -3.67,28.79 -7.9,-11.03 -18.44,-16.84 -26.68,-16.84 -4.32,0 -7.99,1.62 -10.32,4.57 -2.07,2.63 -4.11,7.58 -2.03,16.31 2.16,9.12 6.54,15.36 11.65,19.62 -0.55,-0.05 -1.69,-0.08 -1.7,-0.08 -5.02,0.23 -10.16,4.24 -12.48,9.74 -2.83,6.72 -1.17,14.31 4.57,20.79 3.38,3.83 7.71,5.76 12.86,5.76 1.58,0 3.17,-0.18 4.74,-0.51 -6.29,7.8 -8.75,15.83 -6.52,22.48 2.27,6.76 9.1,10.63 18.76,10.63 12.82,0 20.49,-9.58 24.94,-18.94 1.02,5.8 3.24,10.81 6.57,14.71 4.15,4.84 9.88,7.61 15.71,7.61 9.16,0 16.65,-6.41 19.54,-16.71 2.89,-10.2 1.34,-19.63 -4.64,-28.07 -2.75,-3.81 -6.06,-6.78 -8.99,-8.96 1.05,-0.08 2.06,-0.16 3.07,-0.26 33.45,-2.93 35.33,-19.75 35.1,-24.85 -0.47,-10.93 -10.36,-20.53 -21.15,-20.53 -1.81,0 -3.6,0.27 -5.3,0.79 -7.89,2.32 -15.01,5.5 -20.95,8.68 3.46,-7.44 4.13,-15.79 1.55,-23.27 -3.18,-9.25 -10.89,-15.28 -21.12,-16.52 -0.79,-0.1 -1.55,-0.15 -2.28,-0.16z"/>
   <path class="fil20" d="M417.32 0c-5.45,0 -9.98,2.16 -13.09,6.24 -4.17,5.46 -5.25,13.88 -4.91,22.49 -7.53,-7.6 -16.25,-11.56 -23.39,-11.56 -5.13,0 -9.51,1.97 -12.34,5.55 -2.43,3.07 -4.84,8.77 -2.53,18.5 1.73,7.3 4.78,12.87 8.48,17.12 -4.6,1.58 -8.71,5.47 -10.86,10.56 -3.25,7.68 -1.42,16.25 5.01,23.51 3.7,4.19 8.6,6.48 14.2,6.64 -4.32,7.02 -5.7,14.09 -3.64,20.2 2.64,7.88 10.37,12.41 21.19,12.41 11.43,0 19.08,-6.78 24.1,-14.66 1.3,3.6 3.13,6.8 5.46,9.53 4.64,5.4 11.08,8.51 17.67,8.51 10.37,0 18.81,-7.13 22.03,-18.6 3.1,-10.96 1.42,-21.13 -5.01,-30.23 -1.49,-2.06 -3.12,-3.89 -4.79,-5.5 32.82,-3.89 34.66,-21.71 34.43,-27.21 -0.54,-12.25 -11.62,-23 -23.73,-23 -2.07,0 -4.11,0.31 -6.09,0.91 -5.62,1.65 -10.87,3.74 -15.58,5.96 1.62,-6.3 1.5,-12.88 -0.6,-18.93 -3.53,-10.22 -12,-16.87 -23.26,-18.25 -0.97,-0.12 -1.89,-0.18 -2.77,-0.18zm0 5.16c0.69,0 1.4,0.05 2.14,0.13 22.73,2.77 26.6,29.92 10.9,45.63 7.2,-4.8 18.1,-10.9 30.67,-14.6 1.53,-0.46 3.07,-0.69 4.58,-0.69 19.45,0 34.84,35.94 -14.18,40.22l-0.19 0c-3.5,0.37 -7.39,0.55 -11.44,0.55 0,0 9.42,4.07 15.69,12.75 4.43,6.28 7.4,14.77 4.25,25.86 -2.79,9.96 -9.83,14.82 -17.06,14.82 -11.42,0 -23.32,-12.16 -19.7,-35.7 -1.85,8.87 -8.68,32.33 -27.53,32.33 -21.98,0 -23.27,-21.06 0.19,-38.8 -4.23,2.74 -10.8,6.2 -17.16,6.2 -3.92,0 -7.75,-1.31 -10.92,-4.9 -11.45,-12.93 -1.85,-25.87 6.1,-26.23 0.09,-0.01 0.18,-0.01 0.28,-0.01 6.31,0 13.58,4.95 23.26,4.95 2.41,0 4.96,-0.3 7.69,-1.06 0,0 -0.89,0.08 -2.38,0.08 -7.52,0 -30.56,-2.06 -36.41,-26.69 -2.83,-11.94 2.22,-17.7 9.85,-17.7 10.33,0 25.39,10.55 32.08,30.63l0.18 0.18c0.37,0.92 0.74,2.03 0.93,2.95 0,-0.37 -0.18,-0.74 -0.18,-1.1l0 -0.19c-3.04,-11.08 -11.78,-49.64 8.38,-49.64z"/>
   <g>
    <image x="362.25" y="15.07" width="54.55" height="54.5" xlink:href="leaftopright_Images\leaftopright_ImgID36.png"/>
   </g>
   <g>
    <image x="362.25" y="54.7" width="104.14" height="79.27" xlink:href="leaftopright_Images\leaftopright_ImgID37.png"/>
   </g>
   <g>
    <image x="401.93" y="5.16" width="89.27" height="74.32" xlink:href="leaftopright_Images\leaftopright_ImgID38.png"/>
   </g>
   <path class="fil24" d="M404.02 71.74c0,8.05 6.55,14.6 14.6,14.6 8.05,0 14.6,-6.55 14.6,-14.6 0,-8.05 -6.55,-14.59 -14.6,-14.59 -8.05,0 -14.6,6.54 -14.6,14.59z"/>
   <path class="fil22" d="M418.61 54.84c-9.32,0 -16.91,7.58 -16.91,16.91 0,9.31 7.59,16.9 16.91,16.9 9.32,0 16.91,-7.59 16.91,-16.9 0,-9.33 -7.59,-16.91 -16.91,-16.91zm0 4.62c6.78,0 12.28,5.5 12.28,12.29 0,6.78 -5.49,12.28 -12.28,12.28 -6.78,0 -12.28,-5.5 -12.28,-12.28 0,-6.79 5.5,-12.29 12.28,-12.29z"/>
  </g>
 </g>
</svg>
