<?xml version="1.0" encoding="UTF-8"?>
<!DOCTYPE svg PUBLIC "-//W3C//DTD SVG 1.1//EN" "http://www.w3.org/Graphics/SVG/1.1/DTD/svg11.dtd">
<!-- Creator: CorelDRAW -->
<svg xmlns="http://www.w3.org/2000/svg" xml:space="preserve" width="7.3368mm" height="16.342mm" version="1.1" style="shape-rendering:geometricPrecision; text-rendering:geometricPrecision; image-rendering:optimizeQuality; fill-rule:evenodd; clip-rule:evenodd"
viewBox="0 0 42.25 94.11"
 xmlns:xlink="http://www.w3.org/1999/xlink"
 xmlns:xodm="http://www.corel.com/coreldraw/odm/2003">
 <defs>
  <style type="text/css">
   <![CDATA[
    .fil0 {fill:#FFADEC;fill-rule:nonzero}
   ]]>
  </style>
 </defs>
 <g id="__x0023_Layer_x0020_1">
  <metadata id="CorelCorpID_0Corel-Layer"/>
  <g id="_3089231120384">
   <path class="fil0" d="M42.25 94.1c-0.52,-0.12 -1.03,-0.23 -1.54,-0.36 -5.58,-1.38 -10.81,-3.46 -15.54,-6.08 -8.74,-4.9 -15.77,-11.74 -20.15,-19.79 -2.89,-5.34 -4.65,-11.21 -4.96,-17.39 -0.04,-0.68 -0.05,-1.36 -0.05,-2.05l0 -3.24c0,-17.91 12,-33.48 29.71,-41.5 3.13,-1.42 6.41,-2.59 9.85,-3.51l1.08 -0.19c-10.18,3.21 -25.32,12.01 -33.74,36.18 -10.54,30.33 21.17,50.6 35.35,57.93l0 -0.01z"/>
  </g>
 </g>
</svg>
