<?xml version="1.0" encoding="UTF-8"?>
<!DOCTYPE svg PUBLIC "-//W3C//DTD SVG 1.1//EN" "http://www.w3.org/Graphics/SVG/1.1/DTD/svg11.dtd">
<!-- Creator: CorelDRAW -->
<svg xmlns="http://www.w3.org/2000/svg" xml:space="preserve" width="17.8646mm" height="7.7415mm" version="1.1" style="shape-rendering:geometricPrecision; text-rendering:geometricPrecision; image-rendering:optimizeQuality; fill-rule:evenodd; clip-rule:evenodd"
viewBox="0 0 152.71 66.18"
 xmlns:xlink="http://www.w3.org/1999/xlink"
 xmlns:xodm="http://www.corel.com/coreldraw/odm/2003">
 <defs>
  <style type="text/css">
   <![CDATA[
    .fil0 {fill:#9C3FBE;fill-rule:nonzero}
   ]]>
  </style>
 </defs>
 <g id="__x0023_Layer_x0020_1">
  <metadata id="CorelCorpID_0Corel-Layer"/>
  <path class="fil0" d="M0.13 66.18c-0.6,-7.78 0.89,-15.72 3.79,-23.11 3.01,-7.36 7.59,-14.1 13.21,-19.8 11.23,-11.53 26.42,-18.66 42.07,-21.7 7.82,-1.4 16.06,-1.73 23.7,-1.51 7.76,0.16 15.51,0.21 23.27,0.48 15.51,0.37 31.03,1.12 46.54,2.24 -15.51,1.11 -31.03,1.86 -46.54,2.24 -7.76,0.27 -15.51,0.32 -23.27,0.48 -7.87,-0.05 -15.2,0.31 -22.64,1.71 -7.43,1.21 -14.56,3.75 -21.35,6.9 -6.81,3.14 -13.15,7.31 -18.69,12.38 -11.05,10.07 -18.95,24.07 -20.09,39.7z"/>
 </g>
</svg>
