<?xml version="1.0" encoding="UTF-8"?>
<!DOCTYPE svg PUBLIC "-//W3C//DTD SVG 1.1//EN" "http://www.w3.org/Graphics/SVG/1.1/DTD/svg11.dtd">
<!-- Creator: CorelDRAW -->
<svg xmlns="http://www.w3.org/2000/svg" xml:space="preserve" width="88.2291mm" height="49.8251mm" version="1.1" style="shape-rendering:geometricPrecision; text-rendering:geometricPrecision; image-rendering:optimizeQuality; fill-rule:evenodd; clip-rule:evenodd"
viewBox="0 0 872.55 492.75"
 xmlns:xlink="http://www.w3.org/1999/xlink"
 xmlns:xodm="http://www.corel.com/coreldraw/odm/2003">
 <defs>
  <style type="text/css">
   <![CDATA[
    .str1 {stroke:#332C2B;stroke-width:1.98;stroke-miterlimit:22.9256}
    .str0 {stroke:#332C2B;stroke-width:17.44;stroke-linecap:round;stroke-linejoin:round;stroke-miterlimit:10}
    .fil0 {fill:#332C2B;fill-rule:nonzero}
   ]]>
  </style>
 </defs>
 <g id="__x0023_Layer_x0020_1">
  <metadata id="CorelCorpID_0Corel-Layer"/>
  <g id="_1337185453424">
   <g>
    <path class="fil0 str0" d="M863.83 269.94c0,107.55 -175.76,164.13 -427.55,164.13 -251.79,0 -427.55,-56.58 -427.55,-164.13 0,-125.65 175.77,-261.21 427.55,-261.21 251.79,0 427.55,127.01 427.55,261.21z"/>
    <path class="fil0 str1" d="M869.06 269.94l0 -0.07 -0 -0.07 -0 -0.07 -0 -0.07 -0 -0.07 -0 -0.07 -0.01 -0.07 -0.01 -0.07 -0.01 -0.07 -0.01 -0.07 -0.01 -0.07 -0.01 -0.07 -0.01 -0.06 -0.01 -0.07 -0.01 -0.06 -0.01 -0.06 -0.01 -0.06 -0.01 -0.06 -0.01 -0.06 -0.02 -0.06 -0.02 -0.06 -0.02 -0.06 -0.02 -0.06 -0.02 -0.06 -0.02 -0.06 -0.02 -0.06 -0.02 -0.06 -0.02 -0.06 -0.02 -0.06 -0.02 -0.06 -0.02 -0.06 -0.02 -0.06 -0.02 -0.06 -0.03 -0.06 -0.03 -0.06 -0.03 -0.06 -0.03 -0.06 -0.03 -0.06 -0.03 -0.06 -0.03 -0.06 -0.03 -0.06 -0.03 -0.06 -0.03 -0.05 -0.03 -0.05 -0.03 -0.05 -0.03 -0.05 -0.03 -0.05 -0.03 -0.05 -0.04 -0.05 -0.04 -0.05 -0.04 -0.05 -0.04 -0.05 -0.04 -0.05 -0.04 -0.05 -0.04 -0.05 -0.04 -0.05 -0.04 -0.05 -0.04 -0.05 -0.04 -0.05 -0.04 -0.05 -0.04 -0.05 -0.04 -0.05 -0.04 -0.05 -0.04 -0.04 -0.04 -0.04 -0.05 -0.04 -0.05 -0.04 -0.05 -0.04 -0.05 -0.04 -0.05 -0.04 -0.05 -0.04 -0.05 -0.04 -0.05 -0.04 -0.05 -0.04 -0.05 -0.04 -0.05 -0.04 -0.05 -0.04 -0.05 -0.04 -0.05 -0.04 -0.05 -0.04 -0.05 -0.03 -0.05 -0.03 -0.05 -0.03 -0.05 -0.03 -0.05 -0.03 -0.05 -0.03 -0.06 -0.03 -0.06 -0.03 -0.06 -0.03 -0.06 -0.03 -0.06 -0.03 -0.06 -0.03 -0.06 -0.03 -0.06 -0.03 -0.06 -0.03 -0.06 -0.02 -0.06 -0.02 -0.06 -0.02 -0.06 -0.02 -0.06 -0.02 -0.06 -0.02 -0.06 -0.02 -0.06 -0.02 -0.06 -0.02 -0.06 -0.02 -0.06 -0.02 -0.06 -0.02 -0.06 -0.02 -0.06 -0.02 -0.06 -0.01 -0.06 -0.01 -0.06 -0.01 -0.06 -0.01 -0.06 -0.01 -0.07 -0.01 -0.06 -0.01 -0.07 -0.01 -0.07 -0.01 -0.07 -0.01 -0.07 -0.01 -0.07 -0.01 -0.07 -0.01 -0.07 -0 -0.07 -0 -0.07 -0 -0.07 -0 -0.07 -0 -0.07 0 -0.07 0 -0.07 0 -0.07 0 -0.07 0 -0.07 0 -0.07 0 -0.07 0.01 -0.07 0.01 -0.07 0.01 -0.07 0.01 -0.07 0.01 -0.07 0.01 -0.06 0.01 -0.07 0.01 -0.06 0.01 -0.06 0.01 -0.06 0.01 -0.06 0.01 -0.06 0.01 -0.06 0.02 -0.06 0.02 -0.06 0.02 -0.06 0.02 -0.06 0.02 -0.06 0.02 -0.06 0.02 -0.06 0.02 -0.06 0.02 -0.06 0.02 -0.06 0.02 -0.06 0.02 -0.06 0.02 -0.06 0.02 -0.06 0.03 -0.06 0.03 -0.06 0.03 -0.06 0.03 -0.06 0.03 -0.06 0.03 -0.06 0.03 -0.06 0.03 -0.06 0.03 -0.05 0.03 -0.05 0.03 -0.05 0.03 -0.05 0.03 -0.05 0.03 -0.05 0.03 -0.05 0.04 -0.05 0.04 -0.05 0.04 -0.05 0.04 -0.05 0.04 -0.05 0.04 -0.05 0.04 -0.05 0.04 -0.05 0.04 -0.05 0.04 -0.05 0.04 -0.05 0.04 -0.05 0.04 -0.05 0.04 -0.05 0.04 -0.04 0.04 -0.04 0.04 -0.04 0.05 -0.04 0.05 -0.04 0.05 -0.04 0.05 -0.04 0.05 -0.04 0.05 -0.04 0.05 -0.04 0.05 -0.04 0.05 -0.04 0.05 -0.04 0.05 -0.04 0.05 -0.04 0.05 -0.04 0.05 -0.04 0.05 -0.03 0.05 -0.03 0.05 -0.03 0.05 -0.03 0.05 -0.03 0.05 -0.03 0.05 -0.03 0.06 -0.03 0.06 -0.03 0.06 -0.03 0.06 -0.03 0.06 -0.03 0.06 -0.03 0.06 -0.03 0.06 -0.03 0.06 -0.02 0.06 -0.02 0.06 -0.02 0.06 -0.02 0.06 -0.02 0.06 -0.02 0.06 -0.02 0.06 -0.02 0.06 -0.02 0.06 -0.02 0.06 -0.02 0.06 -0.02 0.06 -0.02 0.06 -0.02 0.06 -0.01 0.06 -0.01 0.06 -0.01 0.06 -0.01 0.06 -0.01 0.06 -0.01 0.07 -0.01 0.06 -0.01 0.07 -0.01 0.07 -0.01 0.07 -0.01 0.07 -0.01 0.07 -0.01 0.07 -0 0.07 -0 0.07 -0 0.07 -0 0.07 -0 0.07 0 0.07zm-422.32 169.36l0 0 2.96 -0 2.95 -0.01 2.94 -0.01 2.93 -0.02 2.93 -0.02 2.92 -0.03 2.91 -0.03 2.91 -0.04 2.9 -0.04 2.89 -0.05 2.89 -0.05 2.88 -0.06 2.87 -0.06 2.86 -0.07 2.86 -0.08 2.85 -0.08 2.84 -0.09 2.83 -0.09 2.83 -0.1 2.82 -0.1 2.81 -0.11 2.8 -0.11 2.8 -0.12 2.79 -0.12 2.78 -0.13 2.77 -0.13 2.76 -0.14 2.75 -0.14 2.75 -0.15 2.74 -0.15 2.73 -0.16 2.72 -0.16 2.72 -0.17 2.71 -0.17 2.7 -0.18 2.69 -0.18 2.69 -0.19 2.67 -0.19 2.67 -0.2 2.66 -0.2 2.65 -0.21 2.64 -0.21 2.63 -0.22 2.62 -0.22 2.62 -0.23 2.61 -0.23 2.6 -0.24 2.59 -0.25 2.58 -0.25 2.58 -0.26 2.57 -0.26 2.56 -0.27 2.55 -0.27 2.54 -0.28 2.53 -0.28 2.52 -0.29 2.51 -0.29 2.51 -0.3 2.49 -0.3 2.49 -0.31 2.48 -0.31 2.47 -0.32 2.46 -0.32 2.45 -0.33 2.44 -0.33 2.43 -0.34 2.42 -0.34 2.41 -0.35 2.4 -0.35 2.39 -0.36 2.39 -0.36 2.38 -0.37 2.36 -0.37 2.36 -0.38 2.35 -0.38 2.34 -0.39 2.33 -0.39 2.32 -0.4 2.31 -0.4 2.3 -0.41 2.29 -0.41 2.28 -0.42 2.27 -0.42 2.26 -0.43 2.25 -0.43 2.24 -0.44 2.23 -0.44 2.22 -0.45 2.21 -0.45 2.2 -0.46 2.19 -0.46 2.18 -0.47 2.17 -0.47 2.16 -0.48 2.15 -0.48 2.14 -0.49 2.13 -0.49 2.12 -0.5 2.11 -0.5 2.1 -0.51 2.09 -0.52 2.08 -0.52 2.07 -0.52 2.06 -0.53 2.05 -0.54 2.03 -0.54 2.03 -0.54 2.01 -0.55 2 -0.55 1.99 -0.56 1.98 -0.57 1.97 -0.57 1.96 -0.58 1.95 -0.58 1.94 -0.59 1.93 -0.59 1.92 -0.6 1.91 -0.6 1.89 -0.61 1.88 -0.61 1.87 -0.62 1.86 -0.62 1.85 -0.63 1.84 -0.63 1.83 -0.64 1.82 -0.64 1.81 -0.65 1.79 -0.65 1.78 -0.66 1.77 -0.66 1.76 -0.67 1.75 -0.67 1.74 -0.68 1.73 -0.68 1.71 -0.69 1.7 -0.69 1.69 -0.7 1.68 -0.7 1.67 -0.71 1.66 -0.71 1.65 -0.72 1.63 -0.72 1.62 -0.73 1.61 -0.73 1.6 -0.74 1.59 -0.75 1.57 -0.75 1.56 -0.75 1.55 -0.76 1.54 -0.76 1.53 -0.77 1.52 -0.78 1.5 -0.78 1.49 -0.79 1.48 -0.79 1.47 -0.8 1.45 -0.8 1.44 -0.81 1.43 -0.81 1.42 -0.82 1.4 -0.82 1.39 -0.83 1.38 -0.83 1.37 -0.84 1.36 -0.85 1.34 -0.85 1.33 -0.85 1.32 -0.86 1.31 -0.87 1.29 -0.87 1.28 -0.88 1.26 -0.88 1.25 -0.89 1.24 -0.89 1.23 -0.9 1.21 -0.9 1.2 -0.91 1.19 -0.91 1.17 -0.92 1.16 -0.92 1.15 -0.93 1.13 -0.93 1.12 -0.94 1.11 -0.95 1.09 -0.95 1.08 -0.96 1.07 -0.96 1.06 -0.97 1.04 -0.98 1.03 -0.98 1.01 -0.99 1 -0.99 0.99 -1 0.97 -1 0.96 -1.01 0.95 -1.01 0.93 -1.02 0.92 -1.02 0.9 -1.03 0.89 -1.03 0.87 -1.04 0.86 -1.05 0.85 -1.05 0.83 -1.06 0.82 -1.06 0.8 -1.07 0.79 -1.08 0.77 -1.08 0.76 -1.08 0.74 -1.09 0.73 -1.1 0.71 -1.1 0.7 -1.11 0.69 -1.12 0.67 -1.12 0.66 -1.12 0.64 -1.13 0.62 -1.13 0.61 -1.14 0.59 -1.15 0.58 -1.15 0.56 -1.16 0.55 -1.16 0.53 -1.17 0.52 -1.17 0.5 -1.18 0.49 -1.18 0.47 -1.19 0.45 -1.19 0.44 -1.2 0.42 -1.21 0.41 -1.21 0.39 -1.22 0.37 -1.22 0.36 -1.23 0.34 -1.23 0.32 -1.24 0.31 -1.24 0.29 -1.25 0.28 -1.25 0.26 -1.26 0.24 -1.26 0.23 -1.26 0.21 -1.27 0.19 -1.28 0.18 -1.28 0.16 -1.28 0.14 -1.29 0.13 -1.29 0.11 -1.3 0.09 -1.3 0.08 -1.31 0.06 -1.31 0.04 -1.32 0.02 -1.32 0.01 -1.32 -10.47 0 -0.01 1.19 -0.02 1.18 -0.04 1.18 -0.05 1.18 -0.07 1.17 -0.08 1.17 -0.1 1.16 -0.11 1.16 -0.13 1.15 -0.14 1.15 -0.16 1.14 -0.17 1.14 -0.19 1.13 -0.2 1.13 -0.22 1.12 -0.23 1.12 -0.25 1.11 -0.26 1.11 -0.27 1.11 -0.29 1.1 -0.3 1.09 -0.32 1.09 -0.33 1.09 -0.35 1.08 -0.36 1.08 -0.37 1.08 -0.39 1.07 -0.4 1.07 -0.42 1.06 -0.43 1.06 -0.45 1.05 -0.46 1.05 -0.48 1.05 -0.49 1.05 -0.5 1.04 -0.52 1.03 -0.53 1.03 -0.55 1.03 -0.56 1.02 -0.58 1.02 -0.59 1.01 -0.61 1.01 -0.62 1 -0.63 1 -0.65 1 -0.66 0.99 -0.68 0.99 -0.69 0.99 -0.7 0.98 -0.72 0.98 -0.73 0.98 -0.75 0.97 -0.76 0.97 -0.77 0.96 -0.79 0.96 -0.8 0.96 -0.82 0.95 -0.83 0.95 -0.85 0.94 -0.86 0.94 -0.87 0.93 -0.89 0.93 -0.9 0.93 -0.91 0.92 -0.93 0.92 -0.94 0.91 -0.96 0.91 -0.97 0.91 -0.98 0.9 -1 0.9 -1.01 0.89 -1.03 0.89 -1.04 0.89 -1.05 0.88 -1.07 0.88 -1.08 0.87 -1.09 0.87 -1.11 0.87 -1.12 0.86 -1.13 0.86 -1.15 0.85 -1.16 0.85 -1.17 0.84 -1.19 0.84 -1.2 0.84 -1.21 0.83 -1.23 0.83 -1.24 0.82 -1.25 0.82 -1.27 0.82 -1.28 0.81 -1.29 0.81 -1.3 0.8 -1.32 0.8 -1.33 0.79 -1.34 0.79 -1.36 0.78 -1.37 0.78 -1.38 0.77 -1.4 0.77 -1.41 0.77 -1.42 0.76 -1.43 0.76 -1.45 0.75 -1.46 0.75 -1.47 0.74 -1.49 0.74 -1.5 0.73 -1.51 0.73 -1.52 0.73 -1.53 0.72 -1.55 0.71 -1.56 0.71 -1.57 0.71 -1.58 0.7 -1.59 0.7 -1.61 0.69 -1.62 0.69 -1.63 0.68 -1.64 0.68 -1.66 0.67 -1.67 0.67 -1.68 0.66 -1.69 0.66 -1.7 0.65 -1.72 0.65 -1.72 0.64 -1.74 0.64 -1.75 0.64 -1.76 0.63 -1.78 0.63 -1.79 0.62 -1.8 0.62 -1.81 0.61 -1.82 0.61 -1.83 0.6 -1.84 0.6 -1.86 0.59 -1.87 0.59 -1.88 0.58 -1.89 0.58 -1.9 0.57 -1.91 0.57 -1.92 0.56 -1.93 0.56 -1.95 0.56 -1.95 0.55 -1.97 0.54 -1.98 0.54 -1.99 0.54 -2 0.53 -2.01 0.53 -2.02 0.52 -2.03 0.52 -2.05 0.51 -2.05 0.51 -2.06 0.5 -2.07 0.5 -2.09 0.49 -2.1 0.49 -2.11 0.48 -2.12 0.48 -2.13 0.47 -2.14 0.47 -2.15 0.46 -2.16 0.46 -2.17 0.45 -2.18 0.45 -2.19 0.44 -2.2 0.44 -2.21 0.43 -2.22 0.43 -2.23 0.42 -2.24 0.42 -2.25 0.41 -2.26 0.41 -2.27 0.4 -2.28 0.4 -2.29 0.39 -2.3 0.39 -2.31 0.38 -2.32 0.38 -2.33 0.37 -2.34 0.37 -2.35 0.36 -2.36 0.36 -2.37 0.35 -2.38 0.35 -2.39 0.34 -2.39 0.34 -2.41 0.33 -2.41 0.33 -2.42 0.32 -2.43 0.32 -2.44 0.31 -2.45 0.31 -2.46 0.3 -2.47 0.3 -2.48 0.29 -2.49 0.29 -2.5 0.28 -2.51 0.28 -2.52 0.27 -2.52 0.27 -2.53 0.26 -2.54 0.26 -2.55 0.25 -2.56 0.25 -2.57 0.24 -2.58 0.24 -2.59 0.23 -2.59 0.23 -2.6 0.22 -2.61 0.22 -2.62 0.21 -2.63 0.21 -2.64 0.2 -2.64 0.2 -2.65 0.19 -2.66 0.19 -2.67 0.18 -2.68 0.18 -2.69 0.17 -2.69 0.17 -2.7 0.16 -2.71 0.16 -2.72 0.15 -2.73 0.15 -2.74 0.14 -2.74 0.14 -2.75 0.13 -2.76 0.13 -2.77 0.12 -2.77 0.12 -2.78 0.11 -2.79 0.11 -2.8 0.1 -2.81 0.09 -2.81 0.09 -2.82 0.09 -2.83 0.08 -2.84 0.08 -2.84 0.07 -2.85 0.06 -2.86 0.06 -2.87 0.05 -2.87 0.05 -2.88 0.04 -2.89 0.04 -2.9 0.03 -2.9 0.03 -2.91 0.02 -2.92 0.02 -2.92 0.01 -2.93 0.01 -2.94 0 0 0zm0 0l-0.07 0 -0.07 0 -0.07 0 -0.07 0 -0.07 0 -0.07 0 -0.07 0.01 -0.07 0.01 -0.07 0.01 -0.07 0.01 -0.07 0.01 -0.07 0.01 -0.06 0.01 -0.07 0.01 -0.06 0.01 -0.06 0.01 -0.06 0.01 -0.06 0.01 -0.06 0.01 -0.06 0.02 -0.06 0.02 -0.06 0.02 -0.06 0.02 -0.06 0.02 -0.06 0.02 -0.06 0.02 -0.06 0.02 -0.06 0.02 -0.06 0.02 -0.06 0.02 -0.06 0.02 -0.06 0.02 -0.06 0.02 -0.06 0.03 -0.06 0.03 -0.06 0.03 -0.06 0.03 -0.06 0.03 -0.06 0.03 -0.06 0.03 -0.06 0.03 -0.06 0.03 -0.05 0.03 -0.05 0.03 -0.05 0.03 -0.05 0.03 -0.05 0.03 -0.05 0.03 -0.05 0.04 -0.05 0.04 -0.05 0.04 -0.05 0.04 -0.05 0.04 -0.05 0.04 -0.05 0.04 -0.05 0.04 -0.05 0.04 -0.05 0.04 -0.05 0.04 -0.05 0.04 -0.05 0.04 -0.05 0.04 -0.05 0.04 -0.04 0.04 -0.04 0.04 -0.04 0.05 -0.04 0.05 -0.04 0.05 -0.04 0.05 -0.04 0.05 -0.04 0.05 -0.04 0.05 -0.04 0.05 -0.04 0.05 -0.04 0.05 -0.04 0.05 -0.04 0.05 -0.04 0.05 -0.04 0.05 -0.04 0.05 -0.03 0.05 -0.03 0.05 -0.03 0.05 -0.03 0.05 -0.03 0.05 -0.03 0.05 -0.03 0.06 -0.03 0.06 -0.03 0.06 -0.03 0.06 -0.03 0.06 -0.03 0.06 -0.03 0.06 -0.03 0.06 -0.03 0.06 -0.02 0.06 -0.02 0.06 -0.02 0.06 -0.02 0.06 -0.02 0.06 -0.02 0.06 -0.02 0.06 -0.02 0.06 -0.02 0.06 -0.02 0.06 -0.02 0.06 -0.02 0.06 -0.02 0.06 -0.02 0.06 -0.01 0.06 -0.01 0.06 -0.01 0.06 -0.01 0.06 -0.01 0.06 -0.01 0.07 -0.01 0.06 -0.01 0.07 -0.01 0.07 -0.01 0.07 -0.01 0.07 -0.01 0.07 -0.01 0.07 -0 0.07 -0 0.07 -0 0.07 -0 0.07 -0 0.07 0 0.07 0 0.07 0 0.07 0 0.07 0 0.07 0 0.07 0 0.07 0.01 0.07 0.01 0.07 0.01 0.07 0.01 0.07 0.01 0.07 0.01 0.07 0.01 0.06 0.01 0.07 0.01 0.06 0.01 0.06 0.01 0.06 0.01 0.06 0.01 0.06 0.02 0.06 0.02 0.06 0.02 0.06 0.02 0.06 0.02 0.06 0.02 0.06 0.02 0.06 0.02 0.06 0.02 0.06 0.02 0.06 0.02 0.06 0.02 0.06 0.02 0.06 0.02 0.06 0.03 0.06 0.03 0.06 0.03 0.06 0.03 0.06 0.03 0.06 0.03 0.06 0.03 0.06 0.03 0.06 0.03 0.06 0.03 0.05 0.03 0.05 0.03 0.05 0.03 0.05 0.03 0.05 0.03 0.05 0.04 0.05 0.04 0.05 0.04 0.05 0.04 0.05 0.04 0.05 0.04 0.05 0.04 0.05 0.04 0.05 0.04 0.05 0.04 0.05 0.04 0.05 0.04 0.05 0.04 0.05 0.04 0.05 0.04 0.05 0.04 0.04 0.04 0.04 0.05 0.04 0.05 0.04 0.05 0.04 0.05 0.04 0.05 0.04 0.05 0.04 0.05 0.04 0.05 0.04 0.05 0.04 0.05 0.04 0.05 0.04 0.05 0.04 0.05 0.04 0.05 0.04 0.05 0.04 0.05 0.03 0.05 0.03 0.05 0.03 0.05 0.03 0.05 0.03 0.05 0.03 0.06 0.03 0.06 0.03 0.06 0.03 0.06 0.03 0.06 0.03 0.06 0.03 0.06 0.03 0.06 0.03 0.06 0.03 0.06 0.02 0.06 0.02 0.06 0.02 0.06 0.02 0.06 0.02 0.06 0.02 0.06 0.02 0.06 0.02 0.06 0.02 0.06 0.02 0.06 0.02 0.06 0.02 0.06 0.02 0.06 0.02 0.06 0.01 0.06 0.01 0.06 0.01 0.06 0.01 0.06 0.01 0.07 0.01 0.06 0.01 0.07 0.01 0.07 0.01 0.07 0.01 0.07 0.01 0.07 0.01 0.07 0.01 0.07 0 0.07 0 0.07 0 0.07 0 0.07 0 0.07 0zm-432.79 -169.36l0 0 0.01 1.32 0.02 1.32 0.04 1.32 0.06 1.31 0.08 1.31 0.09 1.3 0.11 1.3 0.13 1.29 0.14 1.29 0.16 1.28 0.18 1.28 0.19 1.28 0.21 1.27 0.23 1.26 0.24 1.26 0.26 1.26 0.28 1.25 0.29 1.25 0.31 1.24 0.32 1.24 0.34 1.23 0.36 1.23 0.37 1.22 0.39 1.22 0.41 1.21 0.42 1.21 0.44 1.2 0.45 1.2 0.47 1.19 0.48 1.18 0.5 1.18 0.52 1.17 0.53 1.17 0.55 1.16 0.56 1.16 0.58 1.15 0.59 1.15 0.61 1.14 0.62 1.13 0.64 1.13 0.66 1.12 0.67 1.12 0.69 1.12 0.7 1.11 0.71 1.1 0.73 1.1 0.74 1.09 0.76 1.09 0.77 1.08 0.79 1.08 0.8 1.07 0.81 1.06 0.83 1.06 0.85 1.05 0.86 1.05 0.87 1.04 0.89 1.03 0.9 1.03 0.91 1.02 0.93 1.02 0.95 1.01 0.96 1.01 0.97 1 0.99 1 1 0.99 1.01 0.99 1.03 0.98 1.04 0.98 1.06 0.97 1.07 0.96 1.08 0.96 1.09 0.95 1.11 0.95 1.12 0.94 1.13 0.94 1.15 0.93 1.16 0.92 1.17 0.92 1.19 0.92 1.2 0.91 1.21 0.9 1.23 0.9 1.24 0.89 1.25 0.89 1.27 0.88 1.28 0.88 1.29 0.87 1.3 0.87 1.32 0.86 1.33 0.85 1.34 0.85 1.35 0.84 1.37 0.84 1.38 0.83 1.39 0.83 1.4 0.82 1.42 0.82 1.43 0.81 1.44 0.81 1.45 0.8 1.47 0.8 1.48 0.79 1.49 0.79 1.5 0.78 1.52 0.78 1.53 0.77 1.54 0.76 1.55 0.76 1.56 0.75 1.57 0.75 1.59 0.75 1.6 0.74 1.61 0.73 1.62 0.73 1.63 0.72 1.65 0.72 1.66 0.71 1.67 0.71 1.68 0.7 1.69 0.7 1.71 0.69 1.71 0.69 1.73 0.68 1.74 0.68 1.75 0.67 1.76 0.67 1.77 0.66 1.78 0.66 1.8 0.65 1.81 0.65 1.82 0.64 1.83 0.64 1.84 0.63 1.85 0.63 1.87 0.62 1.87 0.62 1.89 0.61 1.9 0.61 1.91 0.6 1.92 0.6 1.93 0.59 1.94 0.59 1.95 0.58 1.96 0.58 1.97 0.57 1.98 0.57 1.99 0.56 2 0.55 2.01 0.55 2.03 0.54 2.03 0.54 2.05 0.54 2.06 0.53 2.07 0.52 2.08 0.52 2.09 0.52 2.1 0.51 2.11 0.5 2.12 0.5 2.13 0.49 2.14 0.49 2.15 0.48 2.16 0.48 2.17 0.47 2.18 0.47 2.19 0.46 2.2 0.46 2.21 0.45 2.22 0.45 2.23 0.44 2.24 0.44 2.25 0.43 2.26 0.43 2.27 0.42 2.28 0.42 2.29 0.41 2.3 0.41 2.31 0.4 2.32 0.4 2.33 0.39 2.34 0.39 2.35 0.38 2.36 0.38 2.37 0.37 2.38 0.37 2.39 0.36 2.39 0.36 2.4 0.35 2.41 0.35 2.42 0.34 2.43 0.34 2.44 0.33 2.45 0.33 2.46 0.32 2.47 0.32 2.48 0.31 2.49 0.31 2.49 0.3 2.51 0.3 2.51 0.29 2.52 0.29 2.53 0.28 2.54 0.28 2.55 0.27 2.56 0.27 2.57 0.26 2.58 0.26 2.58 0.25 2.59 0.25 2.6 0.24 2.61 0.23 2.62 0.23 2.62 0.22 2.63 0.22 2.64 0.21 2.65 0.21 2.66 0.2 2.67 0.2 2.67 0.19 2.69 0.19 2.69 0.18 2.7 0.18 2.71 0.17 2.72 0.17 2.72 0.16 2.73 0.16 2.74 0.15 2.75 0.15 2.76 0.14 2.76 0.14 2.77 0.13 2.78 0.13 2.79 0.12 2.8 0.12 2.8 0.11 2.81 0.11 2.82 0.1 2.83 0.1 2.83 0.09 2.84 0.09 2.85 0.08 2.86 0.08 2.86 0.07 2.87 0.06 2.88 0.06 2.89 0.05 2.89 0.05 2.9 0.04 2.91 0.04 2.91 0.03 2.92 0.03 2.93 0.02 2.93 0.02 2.94 0.01 2.95 0.01 2.96 0 0 -10.47 -2.94 -0 -2.93 -0.01 -2.92 -0.01 -2.92 -0.02 -2.91 -0.02 -2.9 -0.03 -2.9 -0.03 -2.89 -0.04 -2.88 -0.04 -2.87 -0.05 -2.87 -0.05 -2.86 -0.06 -2.85 -0.06 -2.84 -0.07 -2.84 -0.08 -2.83 -0.08 -2.82 -0.09 -2.81 -0.09 -2.81 -0.09 -2.8 -0.1 -2.79 -0.11 -2.78 -0.11 -2.77 -0.12 -2.77 -0.12 -2.76 -0.13 -2.75 -0.13 -2.74 -0.14 -2.74 -0.14 -2.73 -0.15 -2.72 -0.15 -2.71 -0.16 -2.7 -0.16 -2.69 -0.17 -2.69 -0.17 -2.68 -0.18 -2.67 -0.18 -2.66 -0.19 -2.65 -0.19 -2.64 -0.2 -2.64 -0.2 -2.63 -0.21 -2.62 -0.21 -2.61 -0.22 -2.6 -0.22 -2.59 -0.23 -2.59 -0.23 -2.58 -0.24 -2.57 -0.24 -2.56 -0.25 -2.55 -0.25 -2.54 -0.26 -2.53 -0.26 -2.52 -0.27 -2.52 -0.27 -2.51 -0.28 -2.5 -0.28 -2.49 -0.29 -2.48 -0.29 -2.47 -0.3 -2.46 -0.3 -2.45 -0.31 -2.44 -0.31 -2.43 -0.32 -2.42 -0.32 -2.42 -0.33 -2.4 -0.33 -2.4 -0.34 -2.39 -0.34 -2.38 -0.35 -2.37 -0.35 -2.36 -0.36 -2.35 -0.36 -2.34 -0.37 -2.33 -0.37 -2.32 -0.38 -2.31 -0.38 -2.3 -0.39 -2.29 -0.39 -2.28 -0.4 -2.27 -0.4 -2.26 -0.41 -2.25 -0.41 -2.24 -0.42 -2.23 -0.42 -2.22 -0.43 -2.21 -0.43 -2.2 -0.44 -2.19 -0.44 -2.18 -0.45 -2.17 -0.45 -2.16 -0.46 -2.15 -0.46 -2.14 -0.47 -2.13 -0.47 -2.12 -0.48 -2.11 -0.48 -2.1 -0.49 -2.09 -0.49 -2.08 -0.5 -2.06 -0.5 -2.05 -0.51 -2.04 -0.51 -2.03 -0.52 -2.02 -0.52 -2.01 -0.53 -2 -0.53 -1.99 -0.54 -1.98 -0.54 -1.97 -0.54 -1.96 -0.55 -1.95 -0.56 -1.93 -0.56 -1.92 -0.56 -1.91 -0.57 -1.9 -0.57 -1.89 -0.58 -1.88 -0.58 -1.87 -0.59 -1.86 -0.59 -1.84 -0.6 -1.83 -0.6 -1.82 -0.61 -1.81 -0.61 -1.8 -0.62 -1.79 -0.62 -1.78 -0.63 -1.76 -0.63 -1.75 -0.64 -1.74 -0.64 -1.73 -0.64 -1.71 -0.65 -1.7 -0.66 -1.69 -0.66 -1.68 -0.66 -1.67 -0.67 -1.65 -0.67 -1.64 -0.68 -1.63 -0.68 -1.62 -0.69 -1.61 -0.69 -1.59 -0.7 -1.58 -0.7 -1.57 -0.71 -1.56 -0.71 -1.55 -0.71 -1.53 -0.72 -1.52 -0.73 -1.51 -0.73 -1.5 -0.73 -1.49 -0.74 -1.47 -0.74 -1.46 -0.75 -1.45 -0.75 -1.43 -0.76 -1.42 -0.76 -1.41 -0.77 -1.4 -0.77 -1.38 -0.77 -1.37 -0.78 -1.36 -0.78 -1.34 -0.79 -1.33 -0.79 -1.32 -0.8 -1.3 -0.8 -1.29 -0.81 -1.28 -0.81 -1.27 -0.82 -1.25 -0.82 -1.24 -0.82 -1.23 -0.83 -1.21 -0.83 -1.2 -0.84 -1.19 -0.84 -1.17 -0.84 -1.16 -0.85 -1.15 -0.86 -1.13 -0.86 -1.12 -0.86 -1.11 -0.87 -1.09 -0.87 -1.08 -0.87 -1.07 -0.88 -1.05 -0.88 -1.04 -0.89 -1.03 -0.89 -1.01 -0.89 -1 -0.9 -0.98 -0.9 -0.97 -0.91 -0.96 -0.91 -0.94 -0.91 -0.93 -0.92 -0.91 -0.92 -0.9 -0.93 -0.89 -0.93 -0.87 -0.93 -0.86 -0.94 -0.85 -0.94 -0.83 -0.95 -0.82 -0.95 -0.8 -0.96 -0.79 -0.96 -0.77 -0.96 -0.76 -0.97 -0.75 -0.97 -0.73 -0.98 -0.72 -0.98 -0.7 -0.98 -0.69 -0.99 -0.68 -0.99 -0.66 -0.99 -0.65 -1 -0.63 -1 -0.62 -1 -0.61 -1.01 -0.59 -1.01 -0.58 -1.02 -0.56 -1.02 -0.55 -1.03 -0.53 -1.03 -0.52 -1.03 -0.5 -1.04 -0.49 -1.05 -0.48 -1.05 -0.46 -1.05 -0.45 -1.05 -0.43 -1.06 -0.42 -1.06 -0.4 -1.07 -0.39 -1.07 -0.37 -1.08 -0.36 -1.08 -0.35 -1.08 -0.33 -1.09 -0.32 -1.09 -0.3 -1.09 -0.29 -1.1 -0.27 -1.11 -0.26 -1.11 -0.25 -1.11 -0.23 -1.12 -0.22 -1.12 -0.2 -1.13 -0.19 -1.13 -0.17 -1.14 -0.16 -1.14 -0.14 -1.15 -0.13 -1.15 -0.11 -1.16 -0.1 -1.16 -0.08 -1.17 -0.07 -1.17 -0.05 -1.18 -0.04 -1.18 -0.02 -1.18 -0.01 -1.19 0 0zm0 0l0 -0.07 -0 -0.07 -0 -0.07 -0 -0.07 -0 -0.07 -0 -0.07 -0.01 -0.07 -0.01 -0.07 -0.01 -0.07 -0.01 -0.07 -0.01 -0.07 -0.01 -0.07 -0.01 -0.06 -0.01 -0.07 -0.01 -0.06 -0.01 -0.06 -0.01 -0.06 -0.01 -0.06 -0.01 -0.06 -0.02 -0.06 -0.02 -0.06 -0.02 -0.06 -0.02 -0.06 -0.02 -0.06 -0.02 -0.06 -0.02 -0.06 -0.02 -0.06 -0.02 -0.06 -0.02 -0.06 -0.02 -0.06 -0.02 -0.06 -0.02 -0.06 -0.02 -0.06 -0.03 -0.06 -0.03 -0.06 -0.03 -0.06 -0.03 -0.06 -0.03 -0.06 -0.03 -0.06 -0.03 -0.06 -0.03 -0.06 -0.03 -0.06 -0.03 -0.05 -0.03 -0.05 -0.03 -0.05 -0.03 -0.05 -0.03 -0.05 -0.03 -0.05 -0.04 -0.05 -0.04 -0.05 -0.04 -0.05 -0.04 -0.05 -0.04 -0.05 -0.04 -0.05 -0.04 -0.05 -0.04 -0.05 -0.04 -0.05 -0.04 -0.05 -0.04 -0.05 -0.04 -0.05 -0.04 -0.05 -0.04 -0.05 -0.04 -0.05 -0.04 -0.04 -0.04 -0.04 -0.05 -0.04 -0.05 -0.04 -0.05 -0.04 -0.05 -0.04 -0.05 -0.04 -0.05 -0.04 -0.05 -0.04 -0.05 -0.04 -0.05 -0.04 -0.05 -0.04 -0.05 -0.04 -0.05 -0.04 -0.05 -0.04 -0.05 -0.04 -0.05 -0.04 -0.05 -0.03 -0.05 -0.03 -0.05 -0.03 -0.05 -0.03 -0.05 -0.03 -0.05 -0.03 -0.06 -0.03 -0.06 -0.03 -0.06 -0.03 -0.06 -0.03 -0.06 -0.03 -0.06 -0.03 -0.06 -0.03 -0.06 -0.03 -0.06 -0.03 -0.06 -0.02 -0.06 -0.02 -0.06 -0.02 -0.06 -0.02 -0.06 -0.02 -0.06 -0.02 -0.06 -0.02 -0.06 -0.02 -0.06 -0.02 -0.06 -0.02 -0.06 -0.02 -0.06 -0.02 -0.06 -0.02 -0.06 -0.02 -0.06 -0.01 -0.06 -0.01 -0.06 -0.01 -0.06 -0.01 -0.06 -0.01 -0.07 -0.01 -0.06 -0.01 -0.07 -0.01 -0.07 -0.01 -0.07 -0.01 -0.07 -0.01 -0.07 -0.01 -0.07 -0.01 -0.07 -0 -0.07 -0 -0.07 -0 -0.07 -0 -0.07 -0 -0.07 0 -0.07 0 -0.07 0 -0.07 0 -0.07 0 -0.07 0 -0.07 0 -0.07 0.01 -0.07 0.01 -0.07 0.01 -0.07 0.01 -0.07 0.01 -0.07 0.01 -0.06 0.01 -0.07 0.01 -0.06 0.01 -0.06 0.01 -0.06 0.01 -0.06 0.01 -0.06 0.01 -0.06 0.02 -0.06 0.02 -0.06 0.02 -0.06 0.02 -0.06 0.02 -0.06 0.02 -0.06 0.02 -0.06 0.02 -0.06 0.02 -0.06 0.02 -0.06 0.02 -0.06 0.02 -0.06 0.02 -0.06 0.02 -0.06 0.03 -0.06 0.03 -0.06 0.03 -0.06 0.03 -0.06 0.03 -0.06 0.03 -0.06 0.03 -0.06 0.03 -0.06 0.03 -0.05 0.03 -0.05 0.03 -0.05 0.03 -0.05 0.03 -0.05 0.03 -0.05 0.03 -0.05 0.04 -0.05 0.04 -0.05 0.04 -0.05 0.04 -0.05 0.04 -0.05 0.04 -0.05 0.04 -0.05 0.04 -0.05 0.04 -0.05 0.04 -0.05 0.04 -0.05 0.04 -0.05 0.04 -0.05 0.04 -0.05 0.04 -0.04 0.04 -0.04 0.04 -0.04 0.05 -0.04 0.05 -0.04 0.05 -0.04 0.05 -0.04 0.05 -0.04 0.05 -0.04 0.05 -0.04 0.05 -0.04 0.05 -0.04 0.05 -0.04 0.05 -0.04 0.05 -0.04 0.05 -0.04 0.05 -0.04 0.05 -0.03 0.05 -0.03 0.05 -0.03 0.05 -0.03 0.05 -0.03 0.05 -0.03 0.05 -0.03 0.06 -0.03 0.06 -0.03 0.06 -0.03 0.06 -0.03 0.06 -0.03 0.06 -0.03 0.06 -0.03 0.06 -0.03 0.06 -0.02 0.06 -0.02 0.06 -0.02 0.06 -0.02 0.06 -0.02 0.06 -0.02 0.06 -0.02 0.06 -0.02 0.06 -0.02 0.06 -0.02 0.06 -0.02 0.06 -0.02 0.06 -0.02 0.06 -0.02 0.06 -0.01 0.06 -0.01 0.06 -0.01 0.06 -0.01 0.06 -0.01 0.06 -0.01 0.07 -0.01 0.06 -0.01 0.07 -0.01 0.07 -0.01 0.07 -0.01 0.07 -0.01 0.07 -0.01 0.07 -0 0.07 -0 0.07 -0 0.07 -0 0.07 -0 0.07 0 0.07zm432.79 -266.45l0 0 -2.97 0.01 -2.96 0.02 -2.96 0.03 -2.95 0.04 -2.94 0.06 -2.93 0.07 -2.93 0.08 -2.92 0.09 -2.91 0.1 -2.9 0.12 -2.9 0.13 -2.89 0.14 -2.88 0.15 -2.87 0.17 -2.87 0.18 -2.86 0.19 -2.85 0.2 -2.85 0.21 -2.84 0.22 -2.83 0.23 -2.82 0.25 -2.81 0.26 -2.81 0.27 -2.8 0.28 -2.79 0.29 -2.78 0.3 -2.78 0.31 -2.77 0.32 -2.76 0.34 -2.75 0.35 -2.74 0.36 -2.74 0.37 -2.73 0.38 -2.72 0.39 -2.71 0.4 -2.7 0.41 -2.7 0.42 -2.69 0.43 -2.68 0.44 -2.67 0.45 -2.66 0.46 -2.65 0.47 -2.65 0.48 -2.64 0.49 -2.63 0.51 -2.62 0.52 -2.61 0.53 -2.6 0.53 -2.59 0.55 -2.58 0.56 -2.58 0.57 -2.57 0.57 -2.56 0.59 -2.55 0.59 -2.54 0.6 -2.53 0.61 -2.52 0.62 -2.51 0.63 -2.5 0.64 -2.5 0.65 -2.49 0.66 -2.48 0.67 -2.47 0.68 -2.46 0.69 -2.45 0.7 -2.44 0.71 -2.43 0.72 -2.42 0.73 -2.41 0.73 -2.4 0.74 -2.39 0.75 -2.38 0.76 -2.38 0.77 -2.37 0.78 -2.35 0.79 -2.35 0.8 -2.34 0.81 -2.33 0.81 -2.32 0.82 -2.31 0.83 -2.3 0.84 -2.29 0.85 -2.28 0.86 -2.27 0.86 -2.26 0.87 -2.25 0.88 -2.24 0.89 -2.23 0.9 -2.22 0.9 -2.21 0.91 -2.2 0.92 -2.19 0.93 -2.18 0.94 -2.17 0.94 -2.15 0.95 -2.15 0.96 -2.14 0.97 -2.13 0.97 -2.11 0.98 -2.11 0.99 -2.09 0.99 -2.08 1 -2.07 1.01 -2.06 1.02 -2.05 1.02 -2.04 1.03 -2.03 1.04 -2.02 1.05 -2.01 1.05 -2 1.06 -1.99 1.07 -1.97 1.07 -1.96 1.08 -1.95 1.08 -1.94 1.09 -1.93 1.1 -1.92 1.11 -1.91 1.11 -1.9 1.12 -1.89 1.13 -1.87 1.13 -1.87 1.14 -1.85 1.14 -1.84 1.15 -1.83 1.16 -1.82 1.16 -1.81 1.17 -1.8 1.17 -1.79 1.18 -1.77 1.19 -1.76 1.19 -1.75 1.2 -1.74 1.2 -1.73 1.21 -1.72 1.22 -1.7 1.22 -1.69 1.23 -1.68 1.23 -1.67 1.24 -1.66 1.24 -1.64 1.25 -1.63 1.25 -1.62 1.26 -1.61 1.26 -1.6 1.27 -1.58 1.27 -1.57 1.28 -1.56 1.28 -1.55 1.29 -1.53 1.29 -1.52 1.3 -1.51 1.3 -1.5 1.31 -1.49 1.31 -1.47 1.32 -1.46 1.32 -1.45 1.33 -1.43 1.33 -1.42 1.34 -1.41 1.34 -1.4 1.34 -1.38 1.35 -1.37 1.35 -1.36 1.36 -1.35 1.36 -1.33 1.36 -1.32 1.37 -1.31 1.37 -1.29 1.38 -1.28 1.38 -1.27 1.39 -1.26 1.39 -1.24 1.39 -1.23 1.4 -1.22 1.4 -1.2 1.4 -1.19 1.41 -1.18 1.41 -1.16 1.42 -1.15 1.42 -1.14 1.42 -1.12 1.43 -1.11 1.43 -1.09 1.43 -1.08 1.43 -1.07 1.44 -1.05 1.44 -1.04 1.44 -1.03 1.45 -1.01 1.45 -1 1.45 -0.99 1.46 -0.97 1.46 -0.96 1.46 -0.94 1.46 -0.93 1.47 -0.91 1.47 -0.9 1.47 -0.89 1.47 -0.87 1.48 -0.86 1.48 -0.84 1.48 -0.83 1.48 -0.82 1.49 -0.8 1.49 -0.79 1.49 -0.77 1.49 -0.76 1.49 -0.74 1.5 -0.73 1.5 -0.71 1.5 -0.7 1.5 -0.69 1.5 -0.67 1.51 -0.65 1.51 -0.64 1.51 -0.63 1.51 -0.61 1.51 -0.6 1.51 -0.58 1.51 -0.57 1.52 -0.55 1.52 -0.54 1.52 -0.52 1.52 -0.51 1.52 -0.49 1.52 -0.47 1.52 -0.46 1.52 -0.44 1.53 -0.43 1.53 -0.41 1.53 -0.4 1.53 -0.38 1.53 -0.36 1.53 -0.35 1.53 -0.33 1.53 -0.32 1.53 -0.3 1.53 -0.29 1.53 -0.27 1.53 -0.25 1.53 -0.24 1.53 -0.22 1.53 -0.21 1.53 -0.19 1.54 -0.17 1.53 -0.16 1.53 -0.14 1.53 -0.12 1.53 -0.11 1.53 -0.09 1.53 -0.07 1.53 -0.06 1.53 -0.04 1.53 -0.02 1.53 -0.01 1.53 10.47 0 0.01 -1.42 0.02 -1.42 0.04 -1.42 0.05 -1.42 0.07 -1.42 0.08 -1.42 0.1 -1.42 0.12 -1.42 0.13 -1.42 0.15 -1.43 0.16 -1.43 0.18 -1.42 0.19 -1.43 0.21 -1.43 0.22 -1.43 0.24 -1.43 0.25 -1.43 0.27 -1.43 0.28 -1.43 0.3 -1.43 0.31 -1.43 0.33 -1.43 0.34 -1.43 0.36 -1.43 0.37 -1.43 0.38 -1.43 0.4 -1.43 0.41 -1.43 0.43 -1.43 0.45 -1.43 0.46 -1.43 0.47 -1.43 0.49 -1.43 0.5 -1.43 0.52 -1.43 0.53 -1.43 0.55 -1.43 0.56 -1.43 0.58 -1.43 0.59 -1.43 0.61 -1.42 0.62 -1.42 0.63 -1.42 0.65 -1.42 0.66 -1.42 0.68 -1.42 0.69 -1.42 0.71 -1.42 0.72 -1.42 0.73 -1.41 0.75 -1.42 0.76 -1.41 0.77 -1.41 0.79 -1.41 0.8 -1.41 0.82 -1.41 0.83 -1.41 0.85 -1.4 0.86 -1.4 0.87 -1.4 0.89 -1.4 0.9 -1.4 0.91 -1.4 0.93 -1.39 0.94 -1.39 0.96 -1.39 0.97 -1.39 0.98 -1.38 1 -1.38 1.01 -1.38 1.02 -1.38 1.04 -1.37 1.05 -1.37 1.06 -1.37 1.08 -1.37 1.09 -1.36 1.1 -1.36 1.12 -1.36 1.13 -1.35 1.15 -1.35 1.16 -1.35 1.17 -1.35 1.18 -1.34 1.19 -1.34 1.21 -1.34 1.22 -1.33 1.24 -1.33 1.25 -1.33 1.26 -1.32 1.27 -1.32 1.29 -1.32 1.3 -1.31 1.31 -1.31 1.33 -1.31 1.34 -1.3 1.35 -1.3 1.36 -1.29 1.38 -1.29 1.39 -1.29 1.4 -1.28 1.41 -1.28 1.43 -1.27 1.44 -1.27 1.45 -1.27 1.46 -1.26 1.48 -1.26 1.49 -1.25 1.5 -1.25 1.51 -1.25 1.52 -1.24 1.54 -1.24 1.55 -1.23 1.56 -1.23 1.57 -1.22 1.59 -1.22 1.6 -1.21 1.61 -1.21 1.62 -1.2 1.63 -1.2 1.65 -1.19 1.66 -1.19 1.67 -1.18 1.68 -1.18 1.69 -1.17 1.7 -1.17 1.71 -1.16 1.73 -1.16 1.74 -1.15 1.75 -1.14 1.76 -1.14 1.77 -1.13 1.78 -1.13 1.8 -1.12 1.81 -1.12 1.82 -1.11 1.83 -1.11 1.84 -1.1 1.85 -1.09 1.86 -1.09 1.87 -1.08 1.89 -1.07 1.9 -1.07 1.91 -1.06 1.92 -1.05 1.93 -1.05 1.94 -1.04 1.95 -1.04 1.96 -1.03 1.97 -1.02 1.98 -1.01 1.99 -1.01 2.01 -1 2.02 -1 2.03 -0.99 2.04 -0.98 2.05 -0.98 2.06 -0.97 2.07 -0.96 2.08 -0.95 2.09 -0.94 2.1 -0.94 2.11 -0.93 2.12 -0.92 2.13 -0.92 2.14 -0.91 2.15 -0.9 2.16 -0.89 2.17 -0.89 2.18 -0.88 2.19 -0.87 2.2 -0.86 2.21 -0.85 2.22 -0.85 2.23 -0.84 2.24 -0.83 2.25 -0.82 2.26 -0.81 2.27 -0.81 2.28 -0.8 2.29 -0.79 2.3 -0.78 2.31 -0.77 2.32 -0.76 2.33 -0.76 2.34 -0.75 2.35 -0.74 2.36 -0.73 2.37 -0.72 2.38 -0.71 2.39 -0.7 2.4 -0.7 2.41 -0.69 2.41 -0.68 2.42 -0.67 2.43 -0.66 2.44 -0.65 2.45 -0.64 2.46 -0.63 2.47 -0.62 2.48 -0.61 2.49 -0.6 2.49 -0.59 2.51 -0.58 2.51 -0.58 2.52 -0.56 2.53 -0.56 2.54 -0.55 2.55 -0.54 2.56 -0.53 2.57 -0.52 2.57 -0.51 2.58 -0.5 2.59 -0.49 2.6 -0.48 2.61 -0.47 2.62 -0.46 2.62 -0.45 2.63 -0.44 2.64 -0.43 2.65 -0.41 2.66 -0.4 2.67 -0.39 2.68 -0.38 2.68 -0.37 2.69 -0.36 2.7 -0.35 2.71 -0.34 2.71 -0.33 2.72 -0.32 2.73 -0.31 2.74 -0.3 2.75 -0.29 2.75 -0.27 2.76 -0.26 2.77 -0.25 2.78 -0.24 2.79 -0.23 2.79 -0.22 2.8 -0.21 2.81 -0.2 2.82 -0.18 2.83 -0.17 2.83 -0.16 2.84 -0.15 2.85 -0.14 2.85 -0.13 2.86 -0.11 2.87 -0.1 2.87 -0.09 2.88 -0.08 2.89 -0.07 2.9 -0.05 2.9 -0.04 2.91 -0.03 2.92 -0.02 2.93 -0 0 0zm0 0l0.07 0 0.07 -0 0.07 -0 0.07 -0 0.07 -0 0.07 -0 0.07 -0.01 0.07 -0.01 0.07 -0.01 0.07 -0.01 0.07 -0.01 0.07 -0.01 0.06 -0.01 0.07 -0.01 0.06 -0.01 0.06 -0.01 0.06 -0.01 0.06 -0.01 0.06 -0.01 0.06 -0.02 0.06 -0.02 0.06 -0.02 0.06 -0.02 0.06 -0.02 0.06 -0.02 0.06 -0.02 0.06 -0.02 0.06 -0.02 0.06 -0.02 0.06 -0.02 0.06 -0.02 0.06 -0.02 0.06 -0.02 0.06 -0.03 0.06 -0.03 0.06 -0.03 0.06 -0.03 0.06 -0.03 0.06 -0.03 0.06 -0.03 0.06 -0.03 0.06 -0.03 0.05 -0.03 0.05 -0.03 0.05 -0.03 0.05 -0.03 0.05 -0.03 0.05 -0.03 0.05 -0.04 0.05 -0.04 0.05 -0.04 0.05 -0.04 0.05 -0.04 0.05 -0.04 0.05 -0.04 0.05 -0.04 0.05 -0.04 0.05 -0.04 0.05 -0.04 0.05 -0.04 0.05 -0.04 0.05 -0.04 0.05 -0.04 0.04 -0.04 0.04 -0.04 0.04 -0.05 0.04 -0.05 0.04 -0.05 0.04 -0.05 0.04 -0.05 0.04 -0.05 0.04 -0.05 0.04 -0.05 0.04 -0.05 0.04 -0.05 0.04 -0.05 0.04 -0.05 0.04 -0.05 0.04 -0.05 0.04 -0.05 0.03 -0.05 0.03 -0.05 0.03 -0.05 0.03 -0.05 0.03 -0.05 0.03 -0.05 0.03 -0.06 0.03 -0.06 0.03 -0.06 0.03 -0.06 0.03 -0.06 0.03 -0.06 0.03 -0.06 0.03 -0.06 0.03 -0.06 0.02 -0.06 0.02 -0.06 0.02 -0.06 0.02 -0.06 0.02 -0.06 0.02 -0.06 0.02 -0.06 0.02 -0.06 0.02 -0.06 0.02 -0.06 0.02 -0.06 0.02 -0.06 0.02 -0.06 0.02 -0.06 0.01 -0.06 0.01 -0.06 0.01 -0.06 0.01 -0.06 0.01 -0.06 0.01 -0.07 0.01 -0.06 0.01 -0.07 0.01 -0.07 0.01 -0.07 0.01 -0.07 0.01 -0.07 0.01 -0.07 0 -0.07 0 -0.07 0 -0.07 0 -0.07 0 -0.07 0 -0.07 0 -0.07 -0 -0.07 -0 -0.07 -0 -0.07 -0 -0.07 -0 -0.07 -0.01 -0.07 -0.01 -0.07 -0.01 -0.07 -0.01 -0.07 -0.01 -0.07 -0.01 -0.07 -0.01 -0.06 -0.01 -0.07 -0.01 -0.06 -0.01 -0.06 -0.01 -0.06 -0.01 -0.06 -0.01 -0.06 -0.02 -0.06 -0.02 -0.06 -0.02 -0.06 -0.02 -0.06 -0.02 -0.06 -0.02 -0.06 -0.02 -0.06 -0.02 -0.06 -0.02 -0.06 -0.02 -0.06 -0.02 -0.06 -0.02 -0.06 -0.02 -0.06 -0.02 -0.06 -0.03 -0.06 -0.03 -0.06 -0.03 -0.06 -0.03 -0.06 -0.03 -0.06 -0.03 -0.06 -0.03 -0.06 -0.03 -0.06 -0.03 -0.06 -0.03 -0.05 -0.03 -0.05 -0.03 -0.05 -0.03 -0.05 -0.03 -0.05 -0.03 -0.05 -0.04 -0.05 -0.04 -0.05 -0.04 -0.05 -0.04 -0.05 -0.04 -0.05 -0.04 -0.05 -0.04 -0.05 -0.04 -0.05 -0.04 -0.05 -0.04 -0.05 -0.04 -0.05 -0.04 -0.05 -0.04 -0.05 -0.04 -0.05 -0.04 -0.05 -0.04 -0.04 -0.04 -0.04 -0.05 -0.04 -0.05 -0.04 -0.05 -0.04 -0.05 -0.04 -0.05 -0.04 -0.05 -0.04 -0.05 -0.04 -0.05 -0.04 -0.05 -0.04 -0.05 -0.04 -0.05 -0.04 -0.05 -0.04 -0.05 -0.04 -0.05 -0.04 -0.05 -0.04 -0.05 -0.03 -0.05 -0.03 -0.05 -0.03 -0.05 -0.03 -0.05 -0.03 -0.05 -0.03 -0.06 -0.03 -0.06 -0.03 -0.06 -0.03 -0.06 -0.03 -0.06 -0.03 -0.06 -0.03 -0.06 -0.03 -0.06 -0.03 -0.06 -0.03 -0.06 -0.02 -0.06 -0.02 -0.06 -0.02 -0.06 -0.02 -0.06 -0.02 -0.06 -0.02 -0.06 -0.02 -0.06 -0.02 -0.06 -0.02 -0.06 -0.02 -0.06 -0.02 -0.06 -0.02 -0.06 -0.02 -0.06 -0.02 -0.06 -0.01 -0.06 -0.01 -0.06 -0.01 -0.06 -0.01 -0.06 -0.01 -0.07 -0.01 -0.06 -0.01 -0.07 -0.01 -0.07 -0.01 -0.07 -0.01 -0.07 -0.01 -0.07 -0.01 -0.07 -0.01 -0.07 -0 -0.07 -0 -0.07 -0 -0.07 -0 -0.07 -0 -0.07 0zm432.79 266.45l-0.01 -1.62 -0.02 -1.63 -0.04 -1.63 -0.06 -1.62 -0.07 -1.62 -0.09 -1.62 -0.11 -1.62 -0.12 -1.62 -0.14 -1.62 -0.16 -1.61 -0.17 -1.62 -0.19 -1.62 -0.2 -1.61 -0.22 -1.61 -0.24 -1.61 -0.25 -1.61 -0.27 -1.61 -0.28 -1.61 -0.3 -1.6 -0.32 -1.6 -0.33 -1.6 -0.35 -1.6 -0.36 -1.59 -0.38 -1.6 -0.4 -1.59 -0.41 -1.59 -0.43 -1.59 -0.44 -1.59 -0.46 -1.59 -0.47 -1.58 -0.49 -1.58 -0.5 -1.58 -0.52 -1.57 -0.53 -1.57 -0.55 -1.57 -0.56 -1.57 -0.58 -1.56 -0.6 -1.56 -0.61 -1.56 -0.63 -1.56 -0.64 -1.55 -0.65 -1.55 -0.67 -1.55 -0.69 -1.54 -0.7 -1.54 -0.72 -1.54 -0.73 -1.53 -0.74 -1.53 -0.76 -1.53 -0.77 -1.53 -0.79 -1.52 -0.8 -1.52 -0.81 -1.52 -0.83 -1.51 -0.85 -1.51 -0.86 -1.51 -0.87 -1.5 -0.89 -1.5 -0.9 -1.5 -0.91 -1.49 -0.93 -1.49 -0.94 -1.49 -0.96 -1.48 -0.97 -1.48 -0.99 -1.47 -1 -1.47 -1.01 -1.47 -1.03 -1.46 -1.04 -1.46 -1.06 -1.45 -1.07 -1.45 -1.08 -1.44 -1.09 -1.44 -1.11 -1.44 -1.12 -1.43 -1.14 -1.43 -1.15 -1.43 -1.16 -1.42 -1.18 -1.42 -1.19 -1.41 -1.21 -1.41 -1.22 -1.4 -1.23 -1.4 -1.24 -1.39 -1.26 -1.39 -1.27 -1.39 -1.28 -1.38 -1.3 -1.38 -1.31 -1.37 -1.32 -1.37 -1.33 -1.36 -1.35 -1.36 -1.36 -1.35 -1.37 -1.35 -1.39 -1.34 -1.4 -1.34 -1.41 -1.33 -1.42 -1.33 -1.44 -1.32 -1.45 -1.32 -1.46 -1.31 -1.48 -1.31 -1.48 -1.3 -1.5 -1.3 -1.51 -1.29 -1.52 -1.29 -1.54 -1.28 -1.55 -1.27 -1.56 -1.27 -1.57 -1.26 -1.58 -1.26 -1.6 -1.25 -1.61 -1.25 -1.62 -1.24 -1.63 -1.23 -1.64 -1.23 -1.66 -1.22 -1.67 -1.22 -1.68 -1.21 -1.69 -1.2 -1.7 -1.2 -1.71 -1.19 -1.73 -1.19 -1.74 -1.18 -1.75 -1.18 -1.76 -1.17 -1.77 -1.16 -1.79 -1.16 -1.8 -1.15 -1.81 -1.14 -1.82 -1.14 -1.83 -1.13 -1.84 -1.12 -1.85 -1.12 -1.87 -1.11 -1.88 -1.1 -1.89 -1.1 -1.9 -1.09 -1.91 -1.08 -1.92 -1.08 -1.93 -1.07 -1.94 -1.06 -1.95 -1.06 -1.96 -1.05 -1.98 -1.04 -1.99 -1.03 -2 -1.03 -2.01 -1.02 -2.02 -1.01 -2.03 -1.01 -2.04 -1 -2.05 -0.99 -2.06 -0.99 -2.07 -0.98 -2.08 -0.97 -2.09 -0.96 -2.11 -0.96 -2.11 -0.95 -2.13 -0.94 -2.14 -0.93 -2.15 -0.92 -2.16 -0.92 -2.17 -0.91 -2.18 -0.9 -2.19 -0.89 -2.2 -0.89 -2.21 -0.88 -2.22 -0.87 -2.23 -0.86 -2.24 -0.85 -2.25 -0.85 -2.26 -0.84 -2.27 -0.83 -2.28 -0.82 -2.29 -0.81 -2.3 -0.81 -2.31 -0.8 -2.32 -0.79 -2.33 -0.78 -2.34 -0.77 -2.35 -0.76 -2.35 -0.75 -2.36 -0.75 -2.37 -0.74 -2.39 -0.73 -2.39 -0.72 -2.4 -0.71 -2.41 -0.7 -2.42 -0.69 -2.43 -0.68 -2.44 -0.68 -2.45 -0.67 -2.46 -0.66 -2.47 -0.65 -2.48 -0.64 -2.49 -0.63 -2.5 -0.62 -2.5 -0.61 -2.51 -0.6 -2.52 -0.59 -2.53 -0.58 -2.54 -0.58 -2.55 -0.56 -2.56 -0.56 -2.57 -0.55 -2.58 -0.54 -2.58 -0.53 -2.59 -0.52 -2.6 -0.51 -2.61 -0.5 -2.62 -0.49 -2.63 -0.48 -2.64 -0.47 -2.64 -0.46 -2.65 -0.45 -2.66 -0.44 -2.67 -0.43 -2.68 -0.42 -2.69 -0.41 -2.69 -0.4 -2.7 -0.39 -2.71 -0.38 -2.72 -0.37 -2.73 -0.36 -2.74 -0.35 -2.74 -0.34 -2.75 -0.33 -2.76 -0.32 -2.77 -0.31 -2.77 -0.3 -2.78 -0.28 -2.79 -0.27 -2.8 -0.26 -2.8 -0.25 -2.81 -0.24 -2.82 -0.23 -2.83 -0.22 -2.84 -0.21 -2.84 -0.2 -2.85 -0.19 -2.86 -0.18 -2.87 -0.17 -2.87 -0.15 -2.88 -0.14 -2.89 -0.13 -2.9 -0.12 -2.9 -0.11 -2.91 -0.1 -2.92 -0.09 -2.93 -0.08 -2.93 -0.06 -2.94 -0.05 -2.95 -0.04 -2.95 -0.03 -2.96 -0.02 -2.97 -0.01 0 10.47 2.93 0 2.92 0.02 2.91 0.03 2.91 0.04 2.9 0.05 2.89 0.06 2.88 0.07 2.88 0.09 2.87 0.1 2.86 0.11 2.86 0.12 2.85 0.13 2.84 0.14 2.83 0.15 2.82 0.16 2.82 0.17 2.81 0.18 2.8 0.2 2.79 0.21 2.79 0.22 2.78 0.23 2.77 0.24 2.77 0.25 2.76 0.26 2.75 0.27 2.74 0.28 2.73 0.29 2.72 0.3 2.72 0.31 2.71 0.32 2.7 0.33 2.69 0.34 2.68 0.35 2.68 0.36 2.67 0.37 2.66 0.38 2.65 0.39 2.64 0.4 2.64 0.41 2.62 0.42 2.62 0.43 2.61 0.44 2.6 0.45 2.59 0.46 2.58 0.47 2.58 0.48 2.57 0.49 2.56 0.5 2.55 0.51 2.54 0.52 2.53 0.53 2.52 0.54 2.51 0.55 2.51 0.56 2.5 0.56 2.49 0.57 2.48 0.58 2.47 0.59 2.46 0.6 2.45 0.61 2.44 0.62 2.43 0.63 2.42 0.64 2.42 0.65 2.4 0.65 2.4 0.66 2.39 0.67 2.38 0.68 2.37 0.69 2.36 0.7 2.35 0.71 2.34 0.72 2.33 0.72 2.32 0.73 2.31 0.74 2.3 0.75 2.29 0.76 2.28 0.77 2.27 0.77 2.26 0.78 2.25 0.79 2.24 0.8 2.23 0.81 2.22 0.81 2.21 0.82 2.2 0.83 2.19 0.84 2.18 0.84 2.17 0.85 2.16 0.86 2.15 0.87 2.14 0.88 2.13 0.88 2.12 0.89 2.11 0.9 2.1 0.9 2.09 0.91 2.08 0.92 2.07 0.93 2.06 0.93 2.05 0.94 2.04 0.95 2.03 0.96 2.02 0.96 2.01 0.97 1.99 0.98 1.98 0.99 1.97 0.99 1.96 1 1.95 1 1.94 1.01 1.93 1.02 1.92 1.02 1.91 1.03 1.89 1.04 1.88 1.04 1.87 1.05 1.86 1.06 1.85 1.06 1.84 1.07 1.83 1.08 1.82 1.08 1.81 1.09 1.8 1.09 1.78 1.1 1.77 1.11 1.76 1.11 1.75 1.12 1.74 1.13 1.73 1.13 1.71 1.14 1.7 1.14 1.69 1.15 1.68 1.15 1.67 1.16 1.66 1.16 1.64 1.17 1.63 1.18 1.62 1.18 1.61 1.19 1.6 1.19 1.58 1.2 1.57 1.2 1.56 1.21 1.55 1.22 1.54 1.22 1.52 1.22 1.51 1.23 1.5 1.24 1.49 1.24 1.48 1.24 1.46 1.25 1.45 1.25 1.44 1.26 1.42 1.26 1.41 1.27 1.4 1.27 1.39 1.28 1.37 1.28 1.36 1.29 1.35 1.29 1.34 1.29 1.32 1.3 1.31 1.3 1.3 1.31 1.29 1.31 1.27 1.32 1.26 1.32 1.25 1.33 1.23 1.33 1.22 1.33 1.21 1.34 1.2 1.34 1.18 1.34 1.17 1.35 1.15 1.35 1.14 1.36 1.13 1.36 1.12 1.36 1.1 1.37 1.09 1.37 1.08 1.38 1.06 1.38 1.05 1.38 1.04 1.39 1.02 1.39 1.01 1.39 0.99 1.39 0.98 1.4 0.97 1.4 0.96 1.4 0.94 1.41 0.93 1.41 0.91 1.41 0.9 1.42 0.89 1.42 0.87 1.42 0.86 1.43 0.84 1.43 0.83 1.43 0.82 1.43 0.8 1.44 0.79 1.44 0.78 1.44 0.76 1.44 0.75 1.45 0.73 1.45 0.72 1.45 0.71 1.45 0.69 1.46 0.68 1.46 0.66 1.46 0.65 1.46 0.63 1.46 0.62 1.47 0.61 1.47 0.59 1.47 0.58 1.47 0.56 1.47 0.55 1.48 0.53 1.48 0.52 1.48 0.5 1.48 0.49 1.48 0.47 1.48 0.46 1.49 0.45 1.49 0.43 1.49 0.42 1.49 0.4 1.49 0.39 1.49 0.37 1.5 0.36 1.5 0.34 1.5 0.33 1.5 0.31 1.5 0.3 1.5 0.28 1.5 0.27 1.5 0.25 1.51 0.24 1.51 0.22 1.51 0.21 1.51 0.19 1.51 0.18 1.51 0.16 1.51 0.15 1.51 0.13 1.51 0.12 1.51 0.1 1.52 0.09 1.52 0.07 1.52 0.05 1.52 0.04 1.52 0.02 1.52 0.01 1.52zm0 0l0 0.07 0 0.07 0 0.07 0 0.07 0 0.07 0 0.07 0.01 0.07 0.01 0.07 0.01 0.07 0.01 0.07 0.01 0.07 0.01 0.07 0.01 0.06 0.01 0.07 0.01 0.06 0.01 0.06 0.01 0.06 0.01 0.06 0.01 0.06 0.02 0.06 0.02 0.06 0.02 0.06 0.02 0.06 0.02 0.06 0.02 0.06 0.02 0.06 0.02 0.06 0.02 0.06 0.02 0.06 0.02 0.06 0.02 0.06 0.02 0.06 0.02 0.06 0.03 0.06 0.03 0.06 0.03 0.06 0.03 0.06 0.03 0.06 0.03 0.06 0.03 0.06 0.03 0.06 0.03 0.06 0.03 0.05 0.03 0.05 0.03 0.05 0.03 0.05 0.03 0.05 0.03 0.05 0.04 0.05 0.04 0.05 0.04 0.05 0.04 0.05 0.04 0.05 0.04 0.05 0.04 0.05 0.04 0.05 0.04 0.05 0.04 0.05 0.04 0.05 0.04 0.05 0.04 0.05 0.04 0.05 0.04 0.05 0.04 0.04 0.04 0.04 0.05 0.04 0.05 0.04 0.05 0.04 0.05 0.04 0.05 0.04 0.05 0.04 0.05 0.04 0.05 0.04 0.05 0.04 0.05 0.04 0.05 0.04 0.05 0.04 0.05 0.04 0.05 0.04 0.05 0.04 0.05 0.03 0.05 0.03 0.05 0.03 0.05 0.03 0.05 0.03 0.05 0.03 0.06 0.03 0.06 0.03 0.06 0.03 0.06 0.03 0.06 0.03 0.06 0.03 0.06 0.03 0.06 0.03 0.06 0.03 0.06 0.02 0.06 0.02 0.06 0.02 0.06 0.02 0.06 0.02 0.06 0.02 0.06 0.02 0.06 0.02 0.06 0.02 0.06 0.02 0.06 0.02 0.06 0.02 0.06 0.02 0.06 0.02 0.06 0.01 0.06 0.01 0.06 0.01 0.06 0.01 0.06 0.01 0.07 0.01 0.06 0.01 0.07 0.01 0.07 0.01 0.07 0.01 0.07 0.01 0.07 0.01 0.07 0.01 0.07 0 0.07 0 0.07 0 0.07 0 0.07 0 0.07 0 0.07 0 0.07 -0 0.07 -0 0.07 -0 0.07 -0 0.07 -0 0.07 -0.01 0.07 -0.01 0.07 -0.01 0.07 -0.01 0.07 -0.01 0.07 -0.01 0.06 -0.01 0.07 -0.01 0.06 -0.01 0.06 -0.01 0.06 -0.01 0.06 -0.01 0.06 -0.01 0.06 -0.02 0.06 -0.02 0.06 -0.02 0.06 -0.02 0.06 -0.02 0.06 -0.02 0.06 -0.02 0.06 -0.02 0.06 -0.02 0.06 -0.02 0.06 -0.02 0.06 -0.02 0.06 -0.02 0.06 -0.02 0.06 -0.03 0.06 -0.03 0.06 -0.03 0.06 -0.03 0.06 -0.03 0.06 -0.03 0.06 -0.03 0.06 -0.03 0.06 -0.03 0.05 -0.03 0.05 -0.03 0.05 -0.03 0.05 -0.03 0.05 -0.03 0.05 -0.03 0.05 -0.04 0.05 -0.04 0.05 -0.04 0.05 -0.04 0.05 -0.04 0.05 -0.04 0.05 -0.04 0.05 -0.04 0.05 -0.04 0.05 -0.04 0.05 -0.04 0.05 -0.04 0.05 -0.04 0.05 -0.04 0.05 -0.04 0.04 -0.04 0.04 -0.04 0.04 -0.05 0.04 -0.05 0.04 -0.05 0.04 -0.05 0.04 -0.05 0.04 -0.05 0.04 -0.05 0.04 -0.05 0.04 -0.05 0.04 -0.05 0.04 -0.05 0.04 -0.05 0.04 -0.05 0.04 -0.05 0.04 -0.05 0.03 -0.05 0.03 -0.05 0.03 -0.05 0.03 -0.05 0.03 -0.05 0.03 -0.05 0.03 -0.06 0.03 -0.06 0.03 -0.06 0.03 -0.06 0.03 -0.06 0.03 -0.06 0.03 -0.06 0.03 -0.06 0.03 -0.06 0.02 -0.06 0.02 -0.06 0.02 -0.06 0.02 -0.06 0.02 -0.06 0.02 -0.06 0.02 -0.06 0.02 -0.06 0.02 -0.06 0.02 -0.06 0.02 -0.06 0.02 -0.06 0.02 -0.06 0.02 -0.06 0.01 -0.06 0.01 -0.06 0.01 -0.06 0.01 -0.06 0.01 -0.06 0.01 -0.07 0.01 -0.06 0.01 -0.07 0.01 -0.07 0.01 -0.07 0.01 -0.07 0.01 -0.07 0.01 -0.07 0 -0.07 0 -0.07 0 -0.07 0 -0.07 0 -0.07 0 -0.07z"/>
   </g>
   <g>
    <path class="fil0 str1" d="M38.26 486.43c-3.99,0 -7.86,-1.9 -10.34,-5.09 -2.49,-3.19 -3.34,-7.28 -2.34,-11.23l29.7 -117.9c0.61,-2.41 2.77,-4.03 5.16,-4.03 0.37,0 0.74,0.04 1.12,0.12l184.16 39.28c2.27,0.48 3.96,2.38 4.19,4.68 0.23,2.31 -1.06,4.5 -3.19,5.42l-203.25 87.65c-1.67,0.72 -3.42,1.09 -5.21,1.09z"/>
    <path class="fil0 str1" d="M60.44 353.52l184.16 39.28 -203.25 87.65c-1.04,0.45 -2.08,0.65 -3.1,0.65 -4.77,0 -8.81,-4.53 -7.52,-9.69l29.7 -117.9zm-0.01 -10.66l0 0c-4.78,0 -9.11,3.24 -10.33,8.06l-29.7 117.9c-1.4,5.55 -0.19,11.31 3.31,15.81 3.49,4.47 8.92,7.14 14.54,7.14 2.51,0 4.97,-0.51 7.32,-1.52l203.25 -87.65c4.26,-1.84 6.84,-6.22 6.39,-10.83 -0.46,-4.62 -3.85,-8.41 -8.38,-9.38l-184.16 -39.28c-0.75,-0.16 -1.5,-0.24 -2.23,-0.24z"/>
   </g>
  </g>
 </g>
</svg>
