<?xml version="1.0" encoding="UTF-8"?>
<!DOCTYPE svg PUBLIC "-//W3C//DTD SVG 1.1//EN" "http://www.w3.org/Graphics/SVG/1.1/DTD/svg11.dtd">
<!-- Creator: CorelDRAW -->
<svg xmlns="http://www.w3.org/2000/svg" xml:space="preserve" width="25.0705mm" height="24.9682mm" version="1.1" style="shape-rendering:geometricPrecision; text-rendering:geometricPrecision; image-rendering:optimizeQuality; fill-rule:evenodd; clip-rule:evenodd"
viewBox="0 0 129.63 129.1"
 xmlns:xlink="http://www.w3.org/1999/xlink"
 xmlns:xodm="http://www.corel.com/coreldraw/odm/2003">
 <defs>
  <style type="text/css">
   <![CDATA[
    .fil2 {fill:#FEFEFE;fill-rule:nonzero}
    .fil0 {fill:#C7C0DF;fill-rule:nonzero}
    .fil1 {fill:#2F4C74;fill-rule:nonzero}
   ]]>
  </style>
 </defs>
 <g id="Layer_x0020_1">
  <metadata id="CorelCorpID_0Corel-Layer"/>
  <g id="_2445262377728">
   <path class="fil0" d="M28.19 125.4c-13.51,0 -24.5,-10.99 -24.5,-24.49l0 -72.71c0,-13.51 10.99,-24.5 24.5,-24.5l73.24 0c13.51,0 24.5,10.99 24.5,24.5l0 72.71c0,13.51 -10.99,24.49 -24.5,24.49l-73.24 0z"/>
   <path class="fil1" d="M101.43 0l-73.24 0c-15.57,0 -28.19,12.62 -28.19,28.19l0 72.71c0,15.57 12.62,28.19 28.19,28.19l73.24 0c15.57,0 28.19,-12.62 28.19,-28.19l0 -72.71c0,-15.57 -12.62,-28.19 -28.19,-28.19zm0 7.39c11.47,0 20.8,9.33 20.8,20.8l0 72.71c0,11.47 -9.33,20.8 -20.8,20.8l-73.24 0c-11.47,0 -20.8,-9.33 -20.8,-20.8l0 -72.71c0,-11.47 9.33,-20.8 20.8,-20.8l73.24 0z"/>
   <path class="fil2" d="M34.7 65.66c3.74,3.35 7.41,6.65 11.15,10 0.5,-0.98 0.94,-1.85 1.4,-2.72 3.07,-5.79 6.11,-11.58 9.22,-17.35 4.46,-8.28 8.96,-16.54 13.45,-24.81 1.16,-2.14 2.34,-4.28 3.48,-6.43 0.29,-0.55 0.63,-0.78 1.27,-0.78 8.67,0.02 17.34,0.01 26.01,0.01 1.01,0 1.02,0.01 1.02,1.04 0,7.68 -0.01,15.37 0.01,23.06 0,0.68 -0.22,1.15 -0.71,1.6 -8.14,7.41 -16.27,14.83 -24.39,22.27 -3.56,3.26 -7.04,6.6 -10.64,9.82 -1.61,1.44 -3.44,2.63 -5.15,3.95 -0.69,0.54 -1.33,1.14 -2.09,1.8 0.95,0.85 1.79,1.63 2.65,2.39 2.83,2.53 5.65,5.06 8.5,7.57 0.5,0.44 0.49,0.73 0.03,1.17 -2.02,1.92 -4.01,3.86 -6,5.81 -0.41,0.4 -0.66,0.32 -1.04,-0.03 -3.51,-3.31 -7.04,-6.6 -10.54,-9.93 -0.5,-0.48 -0.82,-0.54 -1.42,-0.13 -4.96,3.39 -9.96,6.72 -14.92,10.11 -0.57,0.39 -0.9,0.33 -1.36,-0.15 -1.51,-1.59 -3.05,-3.14 -4.63,-4.67 -0.48,-0.47 -0.53,-0.81 -0.18,-1.38 3.11,-5.09 6.18,-10.19 9.28,-15.28 0.28,-0.45 0.24,-0.66 -0.15,-1.02 -3.02,-2.8 -6,-5.63 -9.01,-8.43 -0.47,-0.43 -0.47,-0.74 -0.09,-1.22 1.48,-1.9 2.93,-3.84 4.39,-5.76 0.12,-0.15 0.26,-0.29 0.47,-0.53z"/>
  </g>
 </g>
</svg>
