<?xml version="1.0" encoding="UTF-8"?>
<!DOCTYPE svg PUBLIC "-//W3C//DTD SVG 1.1//EN" "http://www.w3.org/Graphics/SVG/1.1/DTD/svg11.dtd">
<!-- Creator: CorelDRAW -->
<svg xmlns="http://www.w3.org/2000/svg" xml:space="preserve" width="13.9524mm" height="15.6215mm" version="1.1" style="shape-rendering:geometricPrecision; text-rendering:geometricPrecision; image-rendering:optimizeQuality; fill-rule:evenodd; clip-rule:evenodd"
viewBox="0 0 1760.22 1970.79"
 xmlns:xlink="http://www.w3.org/1999/xlink"
 xmlns:xodm="http://www.corel.com/coreldraw/odm/2003">
 <defs>
  <style type="text/css">
   <![CDATA[
    .fil0 {fill:#FEFEFE;fill-rule:nonzero}
   ]]>
  </style>
 </defs>
 <g id="Layer_x0020_1">
  <metadata id="CorelCorpID_0Corel-Layer"/>
  <path class="fil0" d="M125.19 1026.68c91.19,81.8 180.74,162.18 272.11,244.1 12.28,-23.93 22.92,-45.25 34.09,-66.31 74.81,-141.17 149.09,-282.66 224.89,-423.34 108.81,-202.06 218.7,-403.58 328.19,-605.28 28.35,-52.29 57.14,-104.37 84.96,-156.93 6.99,-13.31 15.44,-18.96 30.93,-18.91 211.54,0.44 423.12,0.32 634.65,0.35 24.66,0 24.84,0.18 24.84,25.46 0.04,187.5 -0.14,375.06 0.35,562.6 0.04,16.5 -5.3,27.99 -17.41,38.98 -198.54,180.91 -396.95,361.96 -595.04,543.42 -86.84,79.53 -171.79,161.16 -259.65,239.49 -39.35,35.07 -84.02,64.09 -125.77,96.49 -16.92,13.13 -32.5,27.91 -51.01,43.98 23.1,20.83 43.79,39.69 64.71,58.35 68.98,61.64 137.84,123.5 207.3,184.65 12.2,10.74 12.07,17.8 0.67,28.66 -49.18,46.82 -97.95,94.09 -146.37,141.71 -9.93,9.7 -16.21,7.75 -25.37,-0.85 -85.64,-80.87 -171.89,-161.07 -257.25,-242.25 -12.29,-11.66 -20.07,-13.08 -34.58,-3.15 -121.1,82.65 -243.01,164.04 -364.14,246.6 -14.02,9.56 -21.85,8.1 -33.07,-3.65 -36.9,-38.68 -74.51,-76.73 -112.87,-113.98 -11.66,-11.35 -12.91,-19.67 -4.37,-33.65 75.8,-124.08 150.75,-248.7 226.49,-372.82 6.77,-11.04 5.88,-16.2 -3.6,-24.93 -73.61,-68.23 -146.38,-137.39 -219.96,-205.61 -11.39,-10.6 -11.57,-17.94 -2.27,-29.86 36.18,-46.46 71.43,-93.65 107.13,-140.5 2.85,-3.75 6.23,-7.08 11.39,-12.82z"/>
 </g>
</svg>
