<?xml version="1.0" encoding="UTF-8"?>
<!DOCTYPE svg PUBLIC "-//W3C//DTD SVG 1.1//EN" "http://www.w3.org/Graphics/SVG/1.1/DTD/svg11.dtd">
<!-- Creator: CorelDRAW -->
<svg xmlns="http://www.w3.org/2000/svg" xml:space="preserve" width="5.1743mm" height="4.1528mm" version="1.1" style="shape-rendering:geometricPrecision; text-rendering:geometricPrecision; image-rendering:optimizeQuality; fill-rule:evenodd; clip-rule:evenodd"
viewBox="0 0 16.47 13.22"
 xmlns:xlink="http://www.w3.org/1999/xlink"
 xmlns:xodm="http://www.corel.com/coreldraw/odm/2003">
 <defs>
  <style type="text/css">
   <![CDATA[
    .fil2 {fill:#0E8003;fill-rule:nonzero}
    .fil1 {fill:#4D4A10;fill-rule:nonzero}
    .fil0 {fill:url(#id0)}
    .fil3 {fill:url(#id1)}
   ]]>
  </style>
  <radialGradient id="id0" gradientUnits="userSpaceOnUse" gradientTransform="matrix(-4.90132 4.38587 5.70466 5.30222 38 -65)" cx="10.6" cy="4.28" r="3.9" fx="10.6" fy="4.28">
   <stop offset="0" style="stop-opacity:1; stop-color:#C0D151"/>
   <stop offset="0.0784314" style="stop-opacity:1; stop-color:#C0D151"/>
   <stop offset="0.529412" style="stop-opacity:1; stop-color:#AFBF48"/>
   <stop offset="1" style="stop-opacity:1; stop-color:#9FAD40"/>
   <stop offset="1" style="stop-opacity:1; stop-color:#9FAD40"/>
  </radialGradient>
  <radialGradient id="id1" gradientUnits="userSpaceOnUse" gradientTransform="matrix(-2.78047 5.49918 -5.37886 -2.84273 29 -30)" xlink:href="#id0" cx="6.17" cy="1.06" r="6.02" fx="6.17" fy="1.06">
  </radialGradient>
 </defs>
 <g id="Layer_x0020_1">
  <metadata id="CorelCorpID_0Corel-Layer"/>
  <g id="_2805403912416">
   <path class="fil0" d="M0.5 0.8c-0.12,0.11 -0.19,0.24 -0.21,0.38 -0.02,0.15 -0.09,0.91 -0.05,1.9 0.06,1.51 0.36,3.45 1.5,4.17 0.79,0.5 1.65,0.77 2.43,0.77 0.76,0 1.4,-0.26 1.78,-0.73 0.06,-0.08 0.12,-0.16 0.16,-0.24 0.32,-0.52 0.32,-1.08 0.3,-1.36 0.54,-0.27 1.29,-0.96 1.1,-2.08 -0.06,-0.34 -0.22,-0.71 -0.46,-1.07 -0.75,-1.12 -2.37,-2.3 -3.8,-2.33l-0.25 -0c-1.24,0 -2.13,0.21 -2.5,0.58z"/>
   <path class="fil1" d="M3 0c-0.75,0 -2.1,0.08 -2.67,0.65 -0.15,0.14 -0.24,0.32 -0.27,0.51 -0.03,0.24 -0.09,1.02 -0.05,1.94 0.06,1.56 0.39,3.58 1.6,4.35 0.83,0.52 1.73,0.81 2.55,0.81 0.83,0 1.53,-0.29 1.95,-0.81 0.07,-0.09 0.13,-0.18 0.18,-0.27 0.3,-0.49 0.35,-1.01 0.34,-1.34 0.58,-0.34 1.28,-1.09 1.09,-2.24 -0.06,-0.37 -0.23,-0.76 -0.49,-1.15 -0.78,-1.17 -2.48,-2.4 -3.98,-2.43l-0.25 -0zm0 0.44c0.08,0 0.16,0 0.24,0 1.3,0.03 2.87,1.11 3.62,2.23 0.22,0.33 0.37,0.67 0.43,0.98 0.23,1.38 -1.12,1.91 -1.12,1.91 0,0 0.15,0.72 -0.25,1.38 -0.04,0.07 -0.09,0.14 -0.15,0.21 -0.34,0.42 -0.92,0.65 -1.61,0.65 -0.7,0 -1.51,-0.23 -2.31,-0.74 -1.04,-0.66 -1.34,-2.53 -1.39,-3.99 -0.03,-0.93 0.03,-1.69 0.05,-1.87 0.01,-0.09 0.06,-0.17 0.14,-0.25 0.31,-0.31 1.13,-0.52 2.35,-0.52z"/>
   <g>
    <image x="0.44" y="0.44" width="7.7" height="6.99" xlink:href="nameleaf_Images\nameleaf_ImgID1.png"/>
   </g>
   <path class="fil2" d="M2.81 2.88c0.67,0.31 1.32,0.67 1.93,1.09 0.31,0.2 0.61,0.43 0.87,0.7 0.24,0.29 0.5,0.59 0.57,0.97 0,0.01 -0,0.01 -0.01,0.01 -0,0 -0.01,-0 -0.01,-0.01 -0.2,-0.31 -0.44,-0.58 -0.72,-0.81 -0.26,-0.25 -0.53,-0.49 -0.82,-0.72 -0.58,-0.45 -1.19,-0.85 -1.83,-1.22 -0.01,-0 -0.01,-0.01 -0,-0.02 0,-0 0.01,-0.01 0.01,-0z"/>
   <g>
    <image x="0.44" y="0.44" width="7.7" height="7.63" xlink:href="nameleaf_Images\nameleaf_ImgID2.png"/>
   </g>
   <path class="fil3" d="M9.53 4.26l-0.01 0 -0.01 0 -0.01 0 -0.01 0 -0.01 0c-0.29,0 -0.56,0.03 -0.8,0.08 -1.58,0.33 -2.13,1.47 -2.24,2.2 -0.37,0.1 -1.12,0.37 -1.68,0.98 -0.09,0.09 -0.16,0.19 -0.24,0.3 -0.35,0.51 -0.45,1.12 -0.3,1.76 0.24,1.07 1.16,2.12 2.5,2.89 0.51,0.29 1.18,0.43 2.01,0.43 1.46,0 3.17,-0.46 4.35,-0.84 1.35,-0.44 2.35,-0.89 2.54,-0.98 0.17,-0.08 0.32,-0.23 0.41,-0.41 0.35,-0.65 0.13,-1.87 -0.6,-3.35 -0.77,-1.55 -3.19,-2.74 -5.08,-3.01 -0.27,-0.04 -0.53,-0.06 -0.78,-0.06z"/>
   <path class="fil1" d="M9.49 3.95c-0.32,0 -0.62,0.03 -0.9,0.09 -1.6,0.34 -2.26,1.45 -2.45,2.26 -0.44,0.14 -1.12,0.44 -1.64,1.01 -0.09,0.1 -0.18,0.21 -0.27,0.33 -0.4,0.58 -0.52,1.28 -0.35,2.01 0.26,1.15 1.23,2.28 2.65,3.09 0.55,0.32 1.28,0.48 2.16,0.48 1.2,0 2.7,-0.29 4.44,-0.85 1.38,-0.45 2.39,-0.9 2.59,-1 0.23,-0.12 0.42,-0.31 0.55,-0.56 0.39,-0.73 0.18,-2.02 -0.61,-3.61 -0.84,-1.7 -3.37,-2.91 -5.32,-3.18 -0.3,-0.04 -0.59,-0.06 -0.86,-0.06zm0 0.62c0.25,0 0.51,0.02 0.77,0.06 1.91,0.27 4.16,1.45 4.85,2.84 0.72,1.46 0.88,2.55 0.61,3.07 -0.06,0.13 -0.16,0.22 -0.27,0.28 -0.23,0.11 -1.23,0.55 -2.5,0.97 -1.31,0.42 -2.91,0.82 -4.25,0.82 -0.72,0 -1.36,-0.11 -1.85,-0.39 -2.15,-1.23 -2.9,-3.04 -2.1,-4.21 0.07,-0.09 0.14,-0.18 0.21,-0.26 0.69,-0.75 1.74,-0.94 1.74,-0.94 0,0 0.03,-1.72 2.02,-2.15 0.24,-0.05 0.5,-0.07 0.77,-0.07z"/>
   <g>
    <image x="4.94" y="3.62" width="10.91" height="8.26" xlink:href="nameleaf_Images\nameleaf_ImgID3.png"/>
   </g>
   <path class="fil2" d="M12.02 9.14c-0.85,-0.52 -1.72,-1 -2.62,-1.4 -0.46,-0.19 -0.91,-0.37 -1.38,-0.52 -0.46,-0.17 -0.92,-0.31 -1.42,-0.39 -0.01,-0 -0.02,-0.01 -0.01,-0.02 0,-0.01 0.01,-0.01 0.01,-0.01 0.5,-0.11 1.02,-0.01 1.51,0.11 0.49,0.15 0.95,0.35 1.39,0.6 0.89,0.46 1.73,1.01 2.53,1.61 0.01,0.01 0.01,0.02 0,0.02 -0.01,0.01 -0.02,0.01 -0.02,0z"/>
   <g>
    <image x="4.3" y="3.62" width="11.56" height="8.9" xlink:href="nameleaf_Images\nameleaf_ImgID4.png"/>
   </g>
  </g>
 </g>
</svg>
