<?xml version="1.0" encoding="UTF-8"?>
<!DOCTYPE svg PUBLIC "-//W3C//DTD SVG 1.1//EN" "http://www.w3.org/Graphics/SVG/1.1/DTD/svg11.dtd">
<!-- Creator: CorelDRAW -->
<svg xmlns="http://www.w3.org/2000/svg" xml:space="preserve" width="24.2369mm" height="28.0186mm" version="1.1" style="shape-rendering:geometricPrecision; text-rendering:geometricPrecision; image-rendering:optimizeQuality; fill-rule:evenodd; clip-rule:evenodd"
viewBox="0 0 51.95 60.05"
 xmlns:xlink="http://www.w3.org/1999/xlink"
 xmlns:xodm="http://www.corel.com/coreldraw/odm/2003">
 <defs>
  <style type="text/css">
   <![CDATA[
    .fil1 {fill:url(#id1)}
    .fil0 {fill:url(#id2)}
   ]]>
  </style>
    <clipPath id="id0">
     <path d="M27.49 48.52c-2.45,-13.31 -4.43,-15.3 -17.75,-17.75 13.32,-2.44 15.3,-4.43 17.75,-17.74 2.45,13.31 4.44,15.3 17.75,17.74 -13.31,2.45 -15.3,4.44 -17.75,17.75l0 0z"/>
    </clipPath>
  <linearGradient id="id1" gradientUnits="userSpaceOnUse" x1="-2.85" y1="30.03" x2="57.85" y2="30.03">
   <stop offset="0" style="stop-opacity:1; stop-color:#E84944"/>
   <stop offset="0.509804" style="stop-opacity:1; stop-color:#FDD705"/>
   <stop offset="0.619608" style="stop-opacity:1; stop-color:#FEDB3D"/>
   <stop offset="1" style="stop-opacity:1; stop-color:#E84944"/>
  </linearGradient>
  <linearGradient id="id2" gradientUnits="userSpaceOnUse" x1="8.57" y1="21.36" x2="41.05" y2="37.5">
   <stop offset="0" style="stop-opacity:1; stop-color:#FBF059"/>
   <stop offset="1" style="stop-opacity:1; stop-color:#EF8A74"/>
  </linearGradient>
 </defs>
 <g id="__x0023_Layer_x0020_2">
  <metadata id="CorelCorpID_0Corel-Layer"/>
  <g id="_1990759927728">
   <path class="fil0" d="M27.4 50.65c-0.42,-1.7 -0.89,-3.4 -1.45,-5.08 -1.03,-3.06 -2.45,-6.12 -4.79,-8.47 -2.4,-2.29 -5.48,-3.6 -8.54,-4.56 -2.09,-0.64 -4.2,-1.19 -6.33,-1.68 2.16,-0.37 4.33,-0.79 6.47,-1.39 0.78,-0.25 1.58,-0.42 2.35,-0.74 0.78,-0.29 1.56,-0.56 2.31,-0.95 0.38,-0.19 0.76,-0.36 1.13,-0.56l1.07 -0.69 0.54 -0.35 0.49 -0.42 0.98 -0.84c2.46,-2.48 3.85,-5.68 4.82,-8.79 0.41,-1.33 0.76,-2.67 1.07,-4 0.32,1.33 0.67,2.66 1.09,3.98 0.28,0.78 0.48,1.57 0.83,2.33 0.32,0.77 0.61,1.54 1.04,2.28 0.2,0.37 0.39,0.74 0.61,1.11l0.73 1.05 0.37 0.52 0.43 0.47 0.86 0.94c2.53,2.35 5.73,3.55 8.84,4.38 1.57,0.42 3.15,0.74 4.74,1 0.79,0.13 1.6,0.29 2.3,0.36 0.72,0.07 1.54,0.11 2.37,0.25 -0.84,0.14 -1.66,0.17 -2.38,0.24 -0.7,0.06 -1.51,0.22 -2.3,0.35 -1.59,0.26 -3.17,0.57 -4.74,0.99 -1.57,0.42 -3.14,0.9 -4.63,1.63 -0.37,0.18 -0.75,0.35 -1.12,0.55l-1.07 0.67 -0.53 0.34 -0.49 0.41 -0.97 0.82 -0.86 0.95 -0.43 0.48 -0.36 0.52 -0.72 1.05c-0.21,0.36 -0.4,0.74 -0.6,1.11 -0.42,0.74 -0.7,1.51 -1.02,2.28 -0.34,0.76 -0.54,1.55 -0.81,2.33 -0.53,1.72 -0.94,3.44 -1.3,5.18zm0.1 -37.62c-2.45,13.31 -4.44,15.29 -17.74,17.75 13.31,2.45 15.29,4.44 17.74,17.74 2.45,-13.31 4.44,-15.3 17.74,-17.74 -13.31,-2.45 -15.29,-4.44 -17.74,-17.75z"/>
   <path class="fil1" d="M27.38 60.05l-0.77 -4.78c-0.51,-3.15 -1.02,-6.29 -1.82,-9.35 -0.23,-0.75 -0.39,-1.54 -0.68,-2.26 -0.27,-0.74 -0.51,-1.49 -0.87,-2.18 -0.17,-0.35 -0.33,-0.71 -0.51,-1.05l-0.63 -0.99 -0.31 -0.49 -0.38 -0.45 -0.75 -0.89c-1.17,-1.17 -2.56,-2.07 -4.06,-2.8 -1.34,-0.65 -2.76,-1.15 -4.2,-1.56 -0.67,-0.19 -1.35,-0.37 -2.03,-0.53 -2.41,-0.57 -4.87,-0.96 -7.33,-1.37l-3.05 -0.51 3.05 -0.67c1.33,-0.29 2.65,-0.59 3.97,-0.92 1.47,-0.36 2.92,-0.75 4.35,-1.18 0.3,-0.09 0.6,-0.18 0.9,-0.27 2.32,-0.75 4.56,-1.71 6.42,-3.08 0.53,-0.39 1.03,-0.81 1.5,-1.27 2.04,-2.15 3.24,-5.01 4.1,-8 0.85,-3 1.48,-6.12 2.07,-9.24l1.18 -6.22 1.11 6.22c0.56,3.13 1.16,6.25 1.99,9.27 0.84,3 2.02,5.88 4.05,8.09 2.1,2.15 4.96,3.54 7.95,4.54 0.74,0.29 1.52,0.46 2.27,0.71 0.76,0.25 1.53,0.45 2.3,0.65l2.4 0.63c0.85,0.23 1.61,0.49 2.34,0.66 -0.73,0.17 -1.48,0.44 -2.34,0.67l-2.4 0.63c-0.77,0.21 -1.54,0.41 -2.3,0.66 -0.75,0.25 -1.53,0.43 -2.27,0.72 -0.74,0.28 -1.5,0.49 -2.2,0.83 -0.71,0.31 -1.45,0.59 -2.11,0.99 -0.34,0.19 -0.68,0.36 -1.01,0.56l-0.93 0.66 -0.47 0.33 -0.42 0.38 -0.69 0.62 -0.15 0.13c-0.52,0.56 -0.98,1.16 -1.4,1.79 -1.24,1.88 -2.08,4.05 -2.73,6.29 -0.39,1.35 -0.73,2.72 -1.05,4.1 -0.39,1.7 -0.75,3.43 -1.11,5.15l-1.01 4.78zm1.01 -5.11zm-22.09 -24.09l22.09 24.09zm-22.09 -24.09c2.12,0.5 4.23,1.04 6.33,1.68 3.06,0.97 6.14,2.27 8.54,4.56 2.33,2.35 3.76,5.41 4.79,8.47 0.56,1.68 1.03,3.37 1.45,5.08 0.36,-1.73 0.78,-3.46 1.3,-5.18 0.27,-0.78 0.47,-1.57 0.81,-2.33 0.31,-0.77 0.6,-1.54 1.02,-2.28 0.2,-0.37 0.38,-0.74 0.6,-1.11l0.72 -1.05 0.36 -0.52 0.43 -0.48 0.86 -0.95 0.97 -0.82 0.49 -0.41 0.53 -0.34 1.07 -0.67c0.37,-0.2 0.75,-0.37 1.12,-0.55 1.49,-0.73 3.07,-1.21 4.63,-1.63 1.57,-0.42 3.15,-0.73 4.74,-0.99 0.79,-0.13 1.6,-0.29 2.3,-0.35 0.72,-0.07 1.54,-0.1 2.38,-0.24 -0.83,-0.14 -1.65,-0.17 -2.37,-0.25 -0.7,-0.07 -1.51,-0.22 -2.3,-0.36 -1.59,-0.26 -3.17,-0.58 -4.74,-1 -3.11,-0.83 -6.31,-2.03 -8.84,-4.38l-0.86 -0.94 -0.43 -0.47 -0.37 -0.52 -0.73 -1.05c-0.21,-0.36 -0.41,-0.74 -0.61,-1.11 -0.43,-0.73 -0.72,-1.51 -1.04,-2.28 -0.35,-0.76 -0.55,-1.55 -0.83,-2.33 -0.42,-1.32 -0.77,-2.65 -1.09,-3.98 -0.31,1.34 -0.66,2.68 -1.07,4 -0.97,3.11 -2.36,6.31 -4.82,8.79l-0.98 0.84 -0.49 0.42 -0.54 0.35 -1.07 0.69c-0.37,0.2 -0.75,0.38 -1.13,0.56 -0.75,0.4 -1.53,0.66 -2.31,0.95 -0.77,0.32 -1.57,0.49 -2.35,0.74 -2.14,0.6 -4.31,1.02 -6.47,1.39z"/>
   <g style="clip-path:url(#id0)">
    <image x="9.15" y="12.52" width="36.76" height="36.69" xlink:href="namestars_Images\namestars_ImgID1.png"/>
   </g>
  </g>
 </g>
</svg>
