<?xml version="1.0" encoding="UTF-8"?>
<!DOCTYPE svg PUBLIC "-//W3C//DTD SVG 1.1//EN" "http://www.w3.org/Graphics/SVG/1.1/DTD/svg11.dtd">
<!-- Creator: CorelDRAW -->
<svg xmlns="http://www.w3.org/2000/svg" xml:space="preserve" width="79.5203mm" height="68.263mm" version="1.1" style="shape-rendering:geometricPrecision; text-rendering:geometricPrecision; image-rendering:optimizeQuality; fill-rule:evenodd; clip-rule:evenodd"
viewBox="0 0 486.07 417.26"
 xmlns:xlink="http://www.w3.org/1999/xlink"
 xmlns:xodm="http://www.corel.com/coreldraw/odm/2003">
 <defs>
  <style type="text/css">
   <![CDATA[
    .str0 {stroke:#F4197F;stroke-width:10.95;stroke-linecap:round;stroke-linejoin:round;stroke-miterlimit:10}
    .fil9 {fill:none;fill-rule:nonzero}
    .fil11 {fill:black;fill-rule:nonzero}
    .fil10 {fill:#8B3739;fill-rule:nonzero}
    .fil3 {fill:#BC7275;fill-rule:nonzero}
    .fil8 {fill:#C1525E;fill-rule:nonzero}
    .fil1 {fill:#EA6EA6;fill-rule:nonzero}
    .fil7 {fill:#EF7884;fill-rule:nonzero}
    .fil12 {fill:white;fill-rule:nonzero}
    .fil2 {fill:white;fill-rule:nonzero;fill-opacity:0.741176}
    .fil18 {fill:#EA6EA6;fill-rule:nonzero}
    .fil4 {fill:#FFD4E8;fill-rule:nonzero}
    .fil15 {fill:url(#id0);fill-rule:nonzero}
    .fil14 {fill:url(#id1);fill-rule:nonzero}
    .fil13 {fill:url(#id2);fill-rule:nonzero}
    .fil16 {fill:url(#id3);fill-rule:nonzero}
    .fil6 {fill:url(#id4);fill-rule:nonzero}
    .fil0 {fill:url(#id5);fill-rule:nonzero}
    .fil5 {fill:url(#id6);fill-rule:nonzero}
    .fil17 {fill:url(#id7);fill-rule:nonzero}
   ]]>
  </style>
  <linearGradient id="id0" gradientUnits="userSpaceOnUse" x1="48.05" y1="122.61" x2="49.94" y2="193.26">
   <stop offset="0" style="stop-opacity:1; stop-color:white"/>
   <stop offset="0.231373" style="stop-opacity:1; stop-color:white"/>
   <stop offset="0.619608" style="stop-opacity:0; stop-color:white"/>
   <stop offset="1" style="stop-opacity:1; stop-color:white"/>
  </linearGradient>
  <linearGradient id="id1" gradientUnits="userSpaceOnUse" x1="-8.43" y1="160.9" x2="106.72" y2="160.9">
   <stop offset="0" style="stop-opacity:1; stop-color:#F64545"/>
   <stop offset="0.129412" style="stop-opacity:1; stop-color:#F64545"/>
   <stop offset="0.501961" style="stop-opacity:1; stop-color:#FFD21E"/>
   <stop offset="0.529412" style="stop-opacity:1; stop-color:#FFD21E"/>
   <stop offset="0.611765" style="stop-opacity:1; stop-color:#FFD447"/>
   <stop offset="0.709804" style="stop-opacity:1; stop-color:#FFD447"/>
   <stop offset="1" style="stop-opacity:1; stop-color:#F64545"/>
   <stop offset="1" style="stop-opacity:1; stop-color:#F64545"/>
  </linearGradient>
  <linearGradient id="id2" gradientUnits="userSpaceOnUse" x1="3.1" y1="140.57" x2="82.12" y2="179.83">
   <stop offset="0" style="stop-opacity:1; stop-color:#FEED63"/>
   <stop offset="0.470588" style="stop-opacity:1; stop-color:#FDB96B"/>
   <stop offset="1" style="stop-opacity:1; stop-color:#FB8574"/>
  </linearGradient>
  <radialGradient id="id3" gradientUnits="userSpaceOnUse" gradientTransform="matrix(0.528148 2.49904 -2.49904 0.528148 800 -128)" cx="107.79" cy="299.65" r="40.29" fx="107.79" fy="299.65">
   <stop offset="0" style="stop-opacity:1; stop-color:#FFE8F1"/>
   <stop offset="1" style="stop-opacity:1; stop-color:#FFB9DA"/>
  </radialGradient>
  <radialGradient id="id4" gradientUnits="userSpaceOnUse" gradientTransform="matrix(0.296777 1.72502 -1.72501 0.296776 431 -353)" xlink:href="#id3" cx="262.88" cy="142.86" r="154.9" fx="262.88" fy="142.86">
  </radialGradient>
  <radialGradient id="id5" gradientUnits="userSpaceOnUse" gradientTransform="matrix(1.32817 2.01943 -2.01943 1.32817 53 -970)" xlink:href="#id3" cx="463.6" cy="101.49" r="63.6" fx="463.6" fy="101.49">
  </radialGradient>
  <radialGradient id="id6" gradientUnits="userSpaceOnUse" gradientTransform="matrix(1.32818 2.01946 -2.01945 1.32818 182 -173)" xlink:href="#id3" cx="69" cy="101.49" r="63.6" fx="69" fy="101.49">
  </radialGradient>
  <radialGradient id="id7" gradientUnits="userSpaceOnUse" gradientTransform="matrix(0.528148 2.49904 -2.49904 0.528148 949 -920)" xlink:href="#id3" cx="424.81" cy="299.65" r="40.29" fx="424.81" fy="299.65">
  </radialGradient>
 </defs>
 <g id="__x0023_Layer_x0020_2">
  <metadata id="CorelCorpID_0Corel-Layer"/>
  <g id="_1955134279504">
   <g>
    <g>
     <g>
      <path class="fil0" d="M403.33 256.78c-32.18,-0.01 -82.67,-108.69 -88.32,-121.08 -0.56,-1.23 -0.48,-2.65 0.21,-3.81 0.69,-1.16 1.91,-1.9 3.26,-1.99 0.24,-0.02 23.93,-1.55 52.34,-2.63 13.11,-0.53 27.62,-0.87 41.95,-0.99 47.87,-0 58.51,3.72 62.43,6.96 12.55,10.44 5.34,22.42 -2.28,35.11 -3.3,5.48 -7.03,11.7 -9.77,18.52l-0.82 2.05c-4.26,10.62 -9.55,23.83 -17.13,36.04 -6.26,10.48 -13.44,18.57 -21.3,23.99 -5.49,3.75 -11.41,6.28 -17.61,7.54 -0.97,0.19 -1.96,0.29 -2.95,0.29 -0,0 -0,0 -0.01,0z"/>
      <path class="fil1" d="M412.8 130.39c28.58,0 54.09,1.31 59.78,6.02 14.34,11.93 -4.16,26.28 -13.25,48.94 -4.27,10.62 -9.75,24.75 -17.63,37.45 -5.36,8.98 -12.04,17.19 -20.14,22.77 -4.82,3.29 -10.18,5.69 -16.1,6.9 -0.7,0.14 -1.41,0.2 -2.13,0.2 -30.47,0 -84.59,-118.67 -84.59,-118.67 0,0 23.54,-1.53 52.23,-2.63 13.47,-0.55 28.03,-0.88 41.83,-0.99zm0 -8.21l0 0c-0.02,0 -0.04,0 -0.07,0 -14.39,0.11 -28.95,0.46 -42.09,0.99 -28.45,1.09 -52.19,2.62 -52.43,2.64 -2.69,0.18 -5.13,1.66 -6.51,3.98 -1.39,2.32 -1.54,5.17 -0.42,7.62 0.56,1.23 13.9,30.39 31.25,60.07 33.21,56.83 50.61,63.41 60.81,63.41 1.26,0 2.51,-0.12 3.72,-0.36 6.78,-1.38 13.2,-4.13 19.13,-8.17 8.37,-5.77 15.94,-14.27 22.53,-25.29 7.75,-12.5 13.11,-25.87 17.42,-36.62l0.82 -2.04c2.62,-6.53 6.11,-12.33 9.48,-17.94 7.42,-12.34 16.65,-27.69 1.4,-40.38 -4.98,-4.12 -16.3,-7.92 -65.03,-7.92z"/>
     </g>
     <path class="fil2" d="M418.94 246.23c0.44,-0.11 1.42,-0.33 2.63,-0.66 19.6,-13.58 30.44,-42.04 37.77,-60.22 9.09,-22.66 27.59,-37.01 13.25,-48.94 -8.43,-7.01 -60.44,-6.57 -101.61,-5.04 8.32,0.33 90.66,3.18 97.34,8.76 7.01,5.91 1.75,16.1 -6.9,32.19 -8.65,16.1 -8.76,25.51 -19.16,44.67 -9.63,17.74 -21.46,27.7 -23.32,29.23z"/>
     <g>
      <path class="fil3" d="M361.46 158.1c0,0 50.67,-22.36 99.94,-10.48 0,0 -7.69,9.43 -23.41,33.55 -15.73,24.11 -23.41,38.79 -37.74,37.39 -14.33,-1.4 -38.79,-60.45 -38.79,-60.45z"/>
     </g>
     <path class="fil4" d="M318.75 134c0,0 56.72,124.38 86.72,118.47 5.91,-1.2 11.28,-3.61 16.1,-6.9 8.1,-5.58 14.78,-13.8 20.14,-22.77 -9.52,-9.31 -23.43,-25.51 -30.33,-45.22 -6.13,-17.52 -2.74,-35.15 1.42,-47.19 -13.8,0.11 -28.36,0.44 -41.83,0.99 -28.69,1.1 -52.23,2.63 -52.23,2.63z"/>
    </g>
    <g>
     <g>
      <path class="fil5" d="M129.27 256.78c-0.99,0 -1.98,-0.09 -2.92,-0.28 -6.22,-1.27 -12.14,-3.8 -17.61,-7.53 -7.88,-5.43 -15.06,-13.52 -21.36,-24.06 -7.54,-12.14 -12.83,-25.35 -17.08,-35.96l-0.83 -2.06c-2.74,-6.83 -6.47,-13.04 -9.77,-18.52 -7.63,-12.69 -14.83,-24.67 -2.3,-35.11 3.93,-3.25 14.56,-6.97 62.41,-6.97 14.36,0.11 28.87,0.46 41.99,0.99 28.4,1.08 52.09,2.62 52.33,2.63 1.35,0.09 2.56,0.83 3.26,1.99 0.69,1.16 0.77,2.58 0.21,3.81 -5.65,12.39 -56.14,121.08 -88.32,121.08z"/>
      <path class="fil1" d="M119.8 130.39c13.8,0.11 28.36,0.44 41.83,0.99 28.68,1.1 52.23,2.63 52.23,2.63 0,0 -54.11,118.67 -84.59,118.67 -0.73,0 -1.43,-0.07 -2.13,-0.2 -5.91,-1.2 -11.28,-3.61 -16.1,-6.9 -8.1,-5.58 -14.78,-13.8 -20.14,-22.77 -7.88,-12.7 -13.36,-26.83 -17.63,-37.45 -9.09,-22.66 -27.59,-37.01 -13.25,-48.94 5.69,-4.71 31.2,-6.02 59.78,-6.02zm0 -8.21l0 0c-48.74,0 -60.05,3.8 -65.01,7.91 -15.26,12.7 -6.03,28.05 1.38,40.39 3.37,5.61 6.86,11.41 9.48,17.94l0.82 2.04c4.31,10.75 9.67,24.12 17.42,36.62 6.59,11.02 14.16,19.52 22.5,25.26 5.96,4.07 12.38,6.81 19.12,8.18 1.26,0.25 2.51,0.37 3.77,0.37 10.2,0 27.6,-6.57 60.81,-63.41 17.35,-29.69 30.69,-58.85 31.25,-60.07 1.12,-2.46 0.96,-5.31 -0.42,-7.62 -1.39,-2.32 -3.82,-3.8 -6.51,-3.98 -0.24,-0.02 -23.98,-1.55 -52.45,-2.64 -13.13,-0.53 -27.68,-0.88 -42.07,-0.99 -0.02,0 -0.04,0 -0.07,0z"/>
     </g>
     <path class="fil2" d="M113.67 246.23c-0.44,-0.11 -1.42,-0.33 -2.63,-0.66 -19.6,-13.58 -30.44,-42.04 -37.77,-60.22 -9.09,-22.66 -27.59,-37.01 -13.25,-48.94 8.43,-7.01 60.44,-6.57 101.61,-5.04 -8.32,0.33 -90.66,3.18 -97.34,8.76 -7.01,5.91 -1.75,16.1 6.9,32.19 8.65,16.1 8.76,25.51 19.16,44.67 9.63,17.74 21.46,27.7 23.32,29.23z"/>
     <g>
      <path class="fil3" d="M171.15 158.1c0,0 -50.67,-22.36 -99.94,-10.48 0,0 7.69,9.43 23.41,33.55 15.73,24.11 23.41,38.79 37.74,37.39 14.33,-1.4 38.79,-60.45 38.79,-60.45z"/>
     </g>
     <path class="fil4" d="M213.86 134c0,0 -56.72,124.38 -86.72,118.47 -5.91,-1.2 -11.28,-3.61 -16.1,-6.9 -8.1,-5.58 -14.78,-13.8 -20.14,-22.77 9.52,-9.31 23.43,-25.51 30.33,-45.22 6.13,-17.52 2.74,-35.15 -1.42,-47.19 13.8,0.11 28.36,0.44 41.83,0.99 28.68,1.1 52.23,2.63 52.23,2.63z"/>
    </g>
    <g>
     <path class="fil6" d="M266.23 413.15c-24.53,-0.4 -47.43,-2.4 -68.06,-5.93 -0.13,-0.01 -0.25,-0.02 -0.35,-0.04 -38.62,-6.72 -66.78,-18.36 -83.71,-34.59 -11.55,-11.14 -16.99,-25.39 -16.15,-42.36 0.92,-18.03 8.93,-34.9 13.24,-43.96 0.98,-2.07 1.83,-3.85 2.25,-4.94 1.81,-4.61 1.16,-12.02 0.41,-20.59 -0.68,-7.75 -1.44,-16.53 -0.67,-25.79 1.89,-21.08 21.25,-69.86 59.36,-92.63 12.86,-7.72 27.61,-13.62 43.84,-17.55 19.39,-4.69 36.13,-5.39 44.38,-5.39 2.92,0 4.84,0.09 5.52,0.12 0.69,-0.04 2.68,-0.13 5.7,-0.13 14.96,0 53.48,2.24 88.06,22.95 38.1,22.77 57.46,71.55 59.35,92.61 0.84,9.41 0.07,18.3 -0.61,26.14 -0.73,8.45 -1.37,15.74 0.36,20.28 0.43,1.15 1.31,3.02 2.33,5.18 7.37,15.63 26.96,57.14 -2.99,86.06 -15.05,14.48 -54.82,39.01 -152.13,40.57 -0.02,0 -0.04,0 -0.07,0 -0.02,0 -0.04,-0 -0.07,-0z"/>
     <path class="fil1" d="M272 123.47c14.12,0 52.08,2.08 85.95,22.36 37.01,22.12 55.62,69.96 57.37,89.45 1.75,19.6 -3.83,37.45 0,47.52 3.83,10.18 32.19,56.06 0.33,86.83 -31.97,30.77 -101.61,38.65 -149.35,39.42 -20.15,-0.33 -44.12,-1.86 -67.67,-5.91 0,0 0,0 -0.11,0 -32.08,-5.58 -63.07,-15.77 -81.57,-33.5 -12.26,-11.83 -15.55,-25.84 -14.89,-39.2 1.09,-21.46 12.81,-41.39 15.22,-47.63 3.94,-10.07 -1.64,-27.92 0,-47.52 1.75,-19.49 20.37,-67.34 57.37,-89.45 14.23,-8.54 29.13,-13.8 42.7,-17.08 18.94,-4.58 35.28,-5.28 43.42,-5.28 3.53,0 5.52,0.13 5.52,0.13 0,0 2.06,-0.14 5.7,-0.14zm0 -8.21l0 0c-2.85,0 -4.8,0.08 -5.7,0.12 -0.88,-0.04 -2.76,-0.12 -5.51,-0.12 -8.44,0 -25.55,0.72 -45.35,5.51 -16.63,4.02 -31.77,10.09 -45,18.02 -39.37,23.53 -59.37,73.98 -61.33,95.76 -0.81,9.66 -0.03,18.63 0.67,26.54 0.68,7.73 1.31,15.03 -0.13,18.73 -0.38,0.99 -1.2,2.71 -2.15,4.7 -4.43,9.32 -12.67,26.67 -13.63,45.5 -0.9,18.22 4.96,33.54 17.39,45.53 17.55,16.82 46.43,28.82 85.86,35.68 0.19,0.03 0.38,0.06 0.57,0.08 20.79,3.55 43.82,5.55 68.48,5.95 0.04,0 0.09,0 0.13,0 0.04,0 0.09,0 0.13,-0 20.79,-0.33 51.92,-2.1 82.19,-8.64 32.82,-7.09 57.29,-18.22 72.72,-33.07 32.08,-30.98 11.58,-74.42 3.86,-90.78 -0.98,-2.08 -1.83,-3.88 -2.2,-4.86 -1.41,-3.69 -0.78,-10.88 -0.12,-18.49 0.7,-8.01 1.49,-17.1 0.61,-26.86 -1.96,-21.78 -21.96,-72.24 -61.34,-95.77 -35.45,-21.23 -74.86,-23.53 -90.16,-23.53z"/>
    </g>
    <path class="fil4" d="M198.63 403.13c0,0 0,0 -0.11,0 -32.08,-5.58 -63.07,-15.77 -81.57,-33.5 -31.86,-30.77 -3.5,-76.64 0.33,-86.83 3.94,-10.07 -1.64,-27.92 0,-47.52 1.75,-19.49 20.37,-67.34 57.37,-89.45 14.23,-8.54 29.12,-13.8 42.7,-17.08 0,0 -43.8,42.92 -55.73,89.89 -11.94,46.97 7.66,73.03 0,93.18 -7.66,20.15 -3.29,55.73 40.95,62.41 34.6,5.26 13.91,19.82 -3.94,28.91z"/>
    <path class="fil2" d="M266.3 123.6c0,0 -45.02,3.6 -75.35,18.82 -30.33,15.33 -44.6,35.16 -58.18,61.76 -13.47,26.5 -10.91,48.27 -8.94,61.85 1.97,13.58 -2.41,18.94 -9.31,32.41 -6.9,13.36 -5.47,28.25 -5.47,28.25l-6.99 3.74c1.09,-21.46 12.81,-41.39 15.22,-47.63 3.94,-10.07 -1.64,-27.92 0,-47.52 1.75,-19.49 20.37,-67.34 57.37,-89.45 14.23,-8.54 29.12,-13.8 42.7,-17.08 27.15,-6.57 48.94,-5.15 48.94,-5.15z"/>
    <g>
     <path class="fil7" d="M266.19 362.57c-14.1,0 -27.23,-3.91 -36.02,-10.71 -6.94,-5.2 -10.79,-11.97 -10.79,-19.01 0,-16.61 20.56,-29.62 46.81,-29.62 26.18,0 46.7,13.01 46.7,29.62 0,8.94 -6,17.21 -16.47,22.7 -0.01,0.01 -0.03,0.02 -0.04,0.03 -0.15,0.1 -0.3,0.2 -0.45,0.28 -8.3,4.39 -18.58,6.72 -29.73,6.72z"/>
     <path class="fil8" d="M266.19 307.33c23.54,0 42.59,11.39 42.59,25.51 0,7.66 -5.58,14.56 -14.45,19.16 -0.11,0.11 -0.22,0.11 -0.33,0.22 -7.45,3.94 -17.08,6.24 -27.81,6.24 -13.69,0 -25.73,-3.83 -33.51,-9.85 -5.69,-4.27 -9.2,-9.85 -9.2,-15.77 0,-14.12 19.05,-25.51 42.7,-25.51zm0 -8.21l0 0c-28.55,0 -50.91,14.81 -50.91,33.72 0,8.35 4.41,16.26 12.43,22.3 9.49,7.33 23.52,11.53 38.48,11.53 11.82,0 22.76,-2.49 31.65,-7.19 0.22,-0.12 0.44,-0.24 0.65,-0.38 0.02,-0.01 0.05,-0.03 0.07,-0.04 11.72,-6.23 18.44,-15.76 18.44,-26.22 0,-18.91 -22.31,-33.72 -50.8,-33.72z"/>
    </g>
    <path class="fil2" d="M308.78 332.84c0,7.66 -5.58,14.56 -14.45,19.16 16.1,-9.75 13.58,-27.59 -2.85,-35.15 -16.53,-7.56 -43.69,-6.13 -57.59,5.15 -12.7,10.4 -2.85,24.42 -1.2,26.61 -5.69,-4.27 -9.2,-9.85 -9.2,-15.77 0,-14.12 19.05,-25.51 42.7,-25.51 23.54,0 42.59,11.39 42.59,25.51z"/>
    <g>
     <path class="fil9 str0" d="M229.51 181.17c0,0 7.69,-23.3 -7.22,-41 -14.91,-17.7 -45.43,-37.04 -59.64,-44.96 -14.21,-7.92 -29.82,-23.53 -25.39,-40.54 4.43,-17.01 27.49,-18.17 39.14,-14.91 0,0 -4.02,-21.78 9.26,-30.87 13.28,-9.09 31.27,0.7 30.23,20.27 -1.05,19.57 -2.91,40.65 -2.91,40.65"/>
     <polyline class="fil9 str0" points="202.6,59.56 213.26,71.09 225.14,61.83 "/>
    </g>
    <path class="fil10" d="M257.81 329.44c0,4.12 -3.34,7.45 -7.45,7.45 -4.12,0 -7.45,-3.34 -7.45,-7.45 0,-4.12 3.34,-7.45 7.45,-7.45 4.12,0 7.45,3.34 7.45,7.45z"/>
    <path class="fil10" d="M289.38 329.44c0,4.12 -3.34,7.45 -7.45,7.45 -4.12,0 -7.45,-3.34 -7.45,-7.45 0,-4.12 3.34,-7.45 7.45,-7.45 4.12,0 7.45,3.34 7.45,7.45z"/>
    <g>
     <path class="fil11" d="M238.63 280.84c0,14.62 -11.85,26.47 -26.47,26.47 -14.62,0 -26.47,-11.85 -26.47,-26.47 0,-14.62 11.85,-26.47 26.47,-26.47 14.62,0 26.47,11.85 26.47,26.47z"/>
     <path class="fil12" d="M227.76 273.5c0,5.73 -4.64,10.37 -10.37,10.37 -5.73,0 -10.37,-4.64 -10.37,-10.37 0,-5.72 4.64,-10.37 10.37,-10.37 5.72,0 10.37,4.64 10.37,10.37z"/>
    </g>
    <g>
     <path class="fil11" d="M293.99 280.84c0,14.62 11.85,26.47 26.47,26.47 14.62,0 26.47,-11.85 26.47,-26.47 0,-14.62 -11.85,-26.47 -26.47,-26.47 -14.62,0 -26.47,11.85 -26.47,26.47z"/>
     <path class="fil12" d="M304.87 273.5c0,5.73 4.64,10.37 10.37,10.37 5.73,0 10.37,-4.64 10.37,-10.37 0,-5.72 -4.64,-10.37 -10.37,-10.37 -5.73,0 -10.37,4.64 -10.37,10.37z"/>
    </g>
    <g>
     <path class="fil1" d="M197.01 236.38c2.45,-16.29 26.89,-20.08 35.99,-7.34 -12.49,3.12 -23.43,3.67 -35.99,7.34z"/>
    </g>
    <g>
     <path class="fil1" d="M336.75 236.38c-12.55,-3.67 -23.51,-4.22 -35.99,-7.34 9.1,-12.74 33.54,-8.96 35.99,7.34z"/>
    </g>
    <g>
     <path class="fil9 str0" d="M303.12 181.17c0,0 -7.69,-23.3 7.22,-41 14.91,-17.7 45.43,-37.04 59.64,-44.96 14.21,-7.92 29.82,-23.53 25.39,-40.54 -4.43,-17.01 -27.49,-18.17 -39.14,-14.91 0,0 4.02,-21.78 -9.26,-30.87 -13.28,-9.09 -31.28,0.7 -30.23,20.27 1.05,19.57 2.91,40.65 2.91,40.65"/>
     <polyline class="fil9 str0" points="330.03,59.56 319.37,71.09 307.49,61.83 "/>
    </g>
    <path class="fil4" d="M333.97 403.13c0,0 0,0 0.11,0 32.08,-5.58 63.07,-15.77 81.57,-33.5 31.86,-30.77 3.5,-76.64 -0.33,-86.83 -3.94,-10.07 1.64,-27.92 0,-47.52 -1.75,-19.49 -20.37,-67.34 -57.37,-89.45 -14.23,-8.54 -29.12,-13.8 -42.7,-17.08 0,0 43.8,42.92 55.73,89.89 11.94,46.97 -7.66,73.03 0,93.18 7.66,20.15 3.28,55.73 -40.95,62.41 -34.6,5.26 -13.91,19.82 3.94,28.91z"/>
    <path class="fil2" d="M266.31 123.6c0,0 45.02,3.6 75.35,18.82 30.33,15.33 44.6,35.16 58.18,61.76 13.47,26.5 10.91,48.27 8.94,61.85 -1.97,13.58 2.41,18.94 9.31,32.41 6.9,13.36 5.47,28.25 5.47,28.25l6.99 3.74c-1.09,-21.46 -12.81,-41.39 -15.22,-47.63 -3.94,-10.07 1.64,-27.92 0,-47.52 -1.75,-19.49 -20.37,-67.34 -57.37,-89.45 -14.23,-8.54 -29.12,-13.8 -42.7,-17.08 -27.15,-6.57 -48.94,-5.15 -48.94,-5.15z"/>
   </g>
   <g>
    <g>
     <g>
      <path class="fil13" d="M88.69 163.45c-29.66,5.46 -34.09,9.89 -39.55,39.55 -5.46,-29.66 -9.89,-34.09 -39.55,-39.55 29.66,-5.46 34.09,-9.89 39.55,-39.55 5.46,29.66 9.89,34.09 39.55,39.55z"/>
      <path class="fil14" d="M89.02 163.45c-1.12,0.29 -2.29,0.9 -3.77,1.4l-3.96 1.25c-2.48,0.74 -4.92,1.6 -7.3,2.46 -4.75,1.79 -9.2,4.04 -12.35,7.37 -3.04,3.42 -4.89,7.9 -6.27,12.69 -1.33,4.81 -2.4,9.83 -3.55,14.86l-3.25 14.2 -2.09 -14.2c-0.75,-5.11 -1.4,-10.22 -2.51,-15.18 -1.1,-4.94 -2.89,-9.75 -6.27,-13.41 -3.5,-3.53 -8.29,-5.61 -13.21,-6.93 -4.94,-1.36 -10.08,-2.07 -15.21,-2.76l-9.27 -1.24 9.27 -2.27c5.03,-1.23 10.03,-2.59 14.77,-4.2 4.73,-1.64 9.12,-3.73 12.22,-6.92 3,-3.28 4.83,-7.68 6.16,-12.45 1.31,-4.78 2.34,-9.8 3.3,-14.85l3.64 -19.16 3.21 19.16c0.85,5.07 1.82,10.11 3.06,14.92 1.28,4.8 3.04,9.28 6.03,12.74 3.1,3.37 7.55,5.66 12.31,7.46 2.39,0.88 4.82,1.74 7.3,2.49l3.96 1.2c1.47,0.48 2.66,1.07 3.79,1.36zm-0.65 0l0 0c-1.42,-0.2 -2.78,-0.11 -3.87,-0.12 -1.02,0 -2.37,-0.23 -3.68,-0.39 -2.61,-0.33 -5.22,-0.74 -7.82,-1.35 -5.15,-1.16 -10.56,-3.08 -14.98,-7.02 -2.04,-2.05 -3.96,-4.35 -5.22,-6.88 -1.38,-2.49 -2.35,-5.09 -3.23,-7.66 -1.72,-5.16 -2.76,-10.35 -3.85,-15.49l6.85 0c-0.98,5.16 -1.96,10.36 -3.61,15.56 -1.63,5.14 -4.02,10.6 -8.33,14.83 -4.42,4.12 -9.89,6.25 -15.06,7.57 -5.23,1.34 -10.45,2 -15.64,2.71l0 -3.51c5.09,1.25 10.17,2.55 15.21,4.15 4.99,1.64 10.05,3.78 14.07,7.56 3.93,3.85 6.36,8.89 8.22,13.87 1.85,5.02 3.21,10.13 4.4,15.24l-5.34 0c0.79,-5.19 1.73,-10.39 3.36,-15.55 0.83,-2.58 1.76,-5.17 3.1,-7.68 1.23,-2.54 3.11,-4.84 5.13,-6.91 4.36,-3.98 9.77,-5.95 14.93,-7.12 2.6,-0.61 5.21,-1.04 7.82,-1.37 1.31,-0.16 2.67,-0.37 3.67,-0.35 1.08,0.01 2.46,0.12 3.89,-0.08z"/>
     </g>
    </g>
    <g>
     <path class="fil15" d="M75.11 163.45c-19.48,3.59 -22.38,6.49 -25.97,25.97 -3.59,-19.48 -6.49,-22.38 -25.97,-25.97 19.48,-3.59 22.38,-6.49 25.97,-25.97 3.59,19.48 6.49,22.38 25.97,25.97z"/>
    </g>
   </g>
   <g>
    <g>
     <g>
      <path class="fil16" d="M133.49 388.3c-2.83,0 -6.19,-2.34 -14.39,-8.54 -2.62,-1.98 -6.39,-4.83 -8.22,-5.89 -1.55,0.87 -4.54,3.04 -6.81,4.7 -7.53,5.5 -12.38,8.83 -16.23,8.83 -1.03,0 -1.98,-0.23 -2.82,-0.69 -1.75,-0.92 -3.13,-2.77 -5.05,-6.77 -2.95,-6.13 -6.36,-16.71 -7.08,-28.02 -0.65,-8.21 0.34,-15.46 2.96,-21.49 8.88,-20.56 36.59,-22.64 37.76,-22.72 0.09,-0.01 0.18,-0.01 0.27,-0.01 8.07,0 33.01,7.19 37.74,29.19 0.81,3.7 1.02,7.72 0.63,12.27 -0.5,8.77 -3.45,19.28 -7.88,28.01 -5.67,11.12 -9.6,11.12 -10.89,11.12z"/>
      <path class="fil1" d="M113.89 311.82c6.9,0 29.56,6.57 33.72,25.95 0.77,3.5 0.88,7.23 0.55,11.06 -0.55,9.64 -3.94,19.6 -7.45,26.5 -2.74,5.36 -5.58,8.87 -7.23,8.87 -3.29,0 -19.27,-14.34 -22.45,-14.67 -0.03,-0 -0.07,-0 -0.1,-0 -3.2,-0 -18.09,13.79 -23.1,13.79 -0.34,0 -0.64,-0.06 -0.89,-0.2 -0.88,-0.44 -1.97,-2.19 -3.28,-4.93 -2.85,-5.91 -6.02,-16.1 -6.68,-26.5 -0.55,-6.9 0.11,-13.8 2.63,-19.6 7.99,-18.5 34.27,-20.26 34.27,-20.26zm0 -8.21l0 0c-0.18,0 -0.36,0.01 -0.55,0.02 -1.28,0.08 -31.39,2.35 -41.26,25.19 -2.88,6.63 -3.98,14.52 -3.28,23.44 0.76,11.87 4.35,23 7.47,29.48 1.99,4.14 3.83,7.03 6.81,8.61 1.44,0.78 3.04,1.17 4.76,1.17 5.2,0 10.48,-3.66 18.65,-9.62 1.29,-0.94 2.97,-2.17 4.36,-3.12 1.76,1.24 4.05,2.97 5.77,4.27 8.82,6.66 12.57,9.36 16.87,9.36 5.35,0 9.83,-4.12 14.54,-13.35 2.25,-4.42 7.53,-16.11 8.32,-29.65 0.41,-4.92 0.18,-9.31 -0.72,-13.4 -5.24,-24.42 -32.83,-32.4 -41.75,-32.4z"/>
     </g>
     <path class="fil4" d="M148.16 348.83c-0.55,9.64 -3.94,19.6 -7.45,26.5 -2.74,5.36 -5.58,8.87 -7.23,8.87 -3.29,0 -19.27,-14.34 -22.45,-14.67 -3.17,-0.33 -20.25,15.77 -24.09,13.58 -0.88,-0.44 -1.97,-2.19 -3.28,-4.93 -2.85,-5.91 -6.02,-16.1 -6.68,-26.5 4.49,4.05 10.07,7.56 14.89,6.79 9.97,-1.64 18.5,-6.02 22.23,-6.46 3.61,-0.44 16.31,7.77 22.56,6.57 3.07,-0.55 7.55,-5.04 11.5,-9.75z"/>
     <path class="fil2" d="M140.72 375.32c2.52,-10.18 6.79,-31.53 1.31,-40.73 -7.33,-12.37 -22.67,-18.28 -26.71,-17.85 -4.05,0.55 -20.26,2.3 -29.02,15.44 -8.76,13.14 -2.63,45.99 -2.63,45.99 -4.71,-9.74 -10.4,-31.53 -4.05,-46.1 7.99,-18.5 34.27,-20.26 34.27,-20.26 6.9,0 29.56,6.57 33.72,25.95 2.63,12.37 -1.97,27.92 -6.9,37.56z"/>
    </g>
    <g>
     <g>
      <path class="fil17" d="M399.11 388.3c-1.29,0 -5.22,0 -10.89,-11.11 -4.43,-8.73 -7.38,-19.25 -7.89,-28.13 -0.38,-4.44 -0.18,-8.45 0.64,-12.17 4.72,-21.99 29.67,-29.18 37.74,-29.18 0.09,0 0.18,0 0.27,0.01 1.17,0.08 28.88,2.16 37.76,22.73 2.62,6.03 3.61,13.28 2.95,21.55 -0.71,11.23 -4.12,21.82 -7.07,27.95 -1.92,4 -3.3,5.85 -5.05,6.77 -0.84,0.46 -1.79,0.69 -2.82,0.69 -3.85,0 -8.7,-3.34 -16.23,-8.84 -2.27,-1.66 -5.25,-3.83 -6.8,-4.7 -1.83,1.06 -5.6,3.91 -8.22,5.89 -8.2,6.19 -11.56,8.54 -14.39,8.54z"/>
      <path class="fil18" d="M418.71 311.82c0,0 26.28,1.75 34.27,20.26 2.52,5.8 3.18,12.7 2.63,19.6 -0.66,10.4 -3.83,20.58 -6.68,26.5 -1.32,2.74 -2.41,4.49 -3.29,4.93 -0.24,0.14 -0.54,0.2 -0.89,0.2 -5.01,0 -19.9,-13.79 -23.1,-13.79 -0.03,0 -0.07,0 -0.1,0 -3.18,0.33 -19.16,14.67 -22.45,14.67 -1.64,0 -4.49,-3.5 -7.23,-8.87 -3.5,-6.9 -6.9,-16.86 -7.45,-26.5 -0.33,-3.83 -0.22,-7.55 0.55,-11.06 4.16,-19.38 26.82,-25.95 33.72,-25.95zm0 -8.21l0 0c-8.92,0 -36.5,7.99 -41.75,32.44 -0.89,4.06 -1.12,8.44 -0.71,13.37 0.8,13.53 6.08,25.22 8.32,29.63 4.72,9.25 9.2,13.36 14.55,13.36 4.3,0 8.05,-2.7 16.87,-9.36 1.72,-1.3 4.01,-3.03 5.77,-4.27 1.39,0.95 3.06,2.18 4.35,3.12 8.18,5.97 13.45,9.62 18.65,9.62 1.72,0 3.31,-0.39 4.76,-1.17 2.98,-1.57 4.83,-4.47 6.82,-8.61 3.11,-6.46 6.71,-17.6 7.47,-29.47 0.7,-8.92 -0.4,-16.81 -3.29,-23.45 -9.86,-22.83 -39.98,-25.1 -41.26,-25.18 -0.18,-0.01 -0.36,-0.02 -0.55,-0.02z"/>
     </g>
     <path class="fil4" d="M384.44 348.83c0.55,9.64 3.94,19.6 7.45,26.5 2.74,5.36 5.58,8.87 7.23,8.87 3.29,0 19.27,-14.34 22.45,-14.67 3.17,-0.33 20.25,15.77 24.09,13.58 0.88,-0.44 1.97,-2.19 3.28,-4.93 2.85,-5.91 6.02,-16.1 6.68,-26.5 -4.49,4.05 -10.07,7.56 -14.89,6.79 -9.97,-1.64 -18.5,-6.02 -22.23,-6.46 -3.61,-0.44 -16.31,7.77 -22.56,6.57 -3.07,-0.55 -7.55,-5.04 -11.5,-9.75z"/>
     <path class="fil2" d="M391.89 375.32c-2.52,-10.18 -6.79,-31.53 -1.31,-40.73 7.33,-12.37 22.67,-18.28 26.71,-17.85 4.05,0.55 20.26,2.3 29.02,15.44 8.76,13.14 2.63,45.99 2.63,45.99 4.71,-9.74 10.4,-31.53 4.05,-46.1 -7.99,-18.5 -34.27,-20.26 -34.27,-20.26 -6.9,0 -29.56,6.57 -33.72,25.95 -2.63,12.37 1.97,27.92 6.9,37.56z"/>
    </g>
   </g>
  </g>
 </g>
</svg>
