<?xml version="1.0" encoding="UTF-8"?>
<!DOCTYPE svg PUBLIC "-//W3C//DTD SVG 1.1//EN" "http://www.w3.org/Graphics/SVG/1.1/DTD/svg11.dtd">
<!-- Creator: CorelDRAW -->
<svg xmlns="http://www.w3.org/2000/svg" xml:space="preserve" width="17.6041mm" height="21.7355mm" version="1.1" style="shape-rendering:geometricPrecision; text-rendering:geometricPrecision; image-rendering:optimizeQuality; fill-rule:evenodd; clip-rule:evenodd"
viewBox="0 0 157.54 194.51"
 xmlns:xlink="http://www.w3.org/1999/xlink"
 xmlns:xodm="http://www.corel.com/coreldraw/odm/2003">
 <defs>
  <style type="text/css">
   <![CDATA[
    .fil1 {fill:#FEFEFE}
    .fil0 {fill:#B3B3B3}
   ]]>
  </style>
 </defs>
 <rect class="fil0" x="-2143.28" y="-53.59" width="2525.65" height="1894.23"/>
 <g id="Layer_x0020_1">
  <metadata id="CorelCorpID_0Corel-Layer"/>
  <path class="fil1" d="M4.66 0.33c-6.09,2.12 -4.46,10.71 -4.46,17.69l0 164.9c-0,3.49 -0.5,6.87 1.74,9.35 4.72,5.21 10.74,0.03 14.59,-2.49 8.85,-5.8 17.89,-11.11 26.92,-16.92l107.86 -68.03c2.37,-1.53 4.75,-2.46 5.75,-5.23 2.38,-6.64 -4.66,-9.31 -8.96,-12.08 -28.54,-18.38 -59.23,-36.89 -87.69,-55.26l-40.37 -25.43c-5.6,-3.57 -10.78,-8.11 -15.38,-6.51z"/>
 </g>
</svg>
