<?xml version="1.0" encoding="UTF-8"?>
<!DOCTYPE svg PUBLIC "-//W3C//DTD SVG 1.1//EN" "http://www.w3.org/Graphics/SVG/1.1/DTD/svg11.dtd">
<!-- Creator: CorelDRAW -->
<svg xmlns="http://www.w3.org/2000/svg" xml:space="preserve" width="7.3374mm" height="16.3419mm" version="1.1" style="shape-rendering:geometricPrecision; text-rendering:geometricPrecision; image-rendering:optimizeQuality; fill-rule:evenodd; clip-rule:evenodd"
viewBox="0 0 59.6 132.75"
 xmlns:xlink="http://www.w3.org/1999/xlink"
 xmlns:xodm="http://www.corel.com/coreldraw/odm/2003">
 <defs>
  <style type="text/css">
   <![CDATA[
    .fil0 {fill:#FF5DD8;fill-rule:nonzero}
   ]]>
  </style>
 </defs>
 <g id="__x0023_Layer_x0020_1">
  <metadata id="CorelCorpID_0Corel-Layer"/>
  <g id="_3089231117120">
   <path class="fil0" d="M0 132.75c0.74,-0.16 1.46,-0.33 2.18,-0.51 7.88,-1.95 15.26,-4.88 21.92,-8.58 12.33,-6.91 22.24,-16.56 28.42,-27.91 4.09,-7.54 6.56,-15.82 7,-24.52 0.06,-0.96 0.08,-1.92 0.08,-2.89l0 -4.58c0,-25.25 -16.93,-47.22 -41.91,-58.54 -4.41,-2 -9.03,-3.65 -13.9,-4.94l-1.52 -0.26c14.36,4.53 35.72,16.94 47.59,51.04 14.88,42.79 -29.86,71.38 -49.87,81.71l0 -0z"/>
  </g>
 </g>
</svg>
