<?xml version="1.0" encoding="UTF-8"?>
<!DOCTYPE svg PUBLIC "-//W3C//DTD SVG 1.1//EN" "http://www.w3.org/Graphics/SVG/1.1/DTD/svg11.dtd">
<!-- Creator: CorelDRAW -->
<svg xmlns="http://www.w3.org/2000/svg" xml:space="preserve" width="17.8646mm" height="7.7415mm" version="1.1" style="shape-rendering:geometricPrecision; text-rendering:geometricPrecision; image-rendering:optimizeQuality; fill-rule:evenodd; clip-rule:evenodd"
viewBox="0 0 163.82 70.99"
 xmlns:xlink="http://www.w3.org/1999/xlink"
 xmlns:xodm="http://www.corel.com/coreldraw/odm/2003">
 <defs>
  <style type="text/css">
   <![CDATA[
    .fil0 {fill:#9C3FBE;fill-rule:nonzero}
   ]]>
  </style>
 </defs>
 <g id="__x0023_Layer_x0020_1">
  <metadata id="CorelCorpID_0Corel-Layer"/>
  <path class="fil0" d="M163.68 0c0.64,8.35 -0.95,16.87 -4.07,24.79 -3.23,7.89 -8.14,15.12 -14.17,21.24 -12.05,12.37 -28.34,20.02 -45.13,23.28 -8.39,1.5 -17.23,1.85 -25.42,1.61 -8.32,-0.17 -16.64,-0.23 -24.96,-0.51 -16.64,-0.4 -33.28,-1.2 -49.93,-2.4 16.64,-1.19 33.28,-2 49.93,-2.4 8.32,-0.29 16.64,-0.34 24.96,-0.51 8.44,0.06 16.3,-0.34 24.29,-1.83 7.97,-1.3 15.62,-4.02 22.9,-7.4 7.3,-3.37 14.11,-7.84 20.05,-13.28 11.85,-10.81 20.33,-25.82 21.55,-42.59z"/>
 </g>
</svg>
