<?xml version="1.0" encoding="UTF-8"?>
<!DOCTYPE svg PUBLIC "-//W3C//DTD SVG 1.1//EN" "http://www.w3.org/Graphics/SVG/1.1/DTD/svg11.dtd">
<!-- Creator: CorelDRAW -->
<svg xmlns="http://www.w3.org/2000/svg" xml:space="preserve" width="23.7183mm" height="27.0517mm" version="1.1" style="shape-rendering:geometricPrecision; text-rendering:geometricPrecision; image-rendering:optimizeQuality; fill-rule:evenodd; clip-rule:evenodd"
viewBox="0 0 56.79 64.77"
 xmlns:xlink="http://www.w3.org/1999/xlink"
 xmlns:xodm="http://www.corel.com/coreldraw/odm/2003">
 <defs>
  <style type="text/css">
   <![CDATA[
    .fil0 {fill:#FEFDFE;fill-rule:nonzero}
    .fil1 {fill:#2F4C74;fill-rule:nonzero}
   ]]>
  </style>
 </defs>
 <g id="Layer_x0020_1">
  <metadata id="CorelCorpID_0Corel-Layer"/>
  <g id="_2445230876192">
   <path class="fil0" d="M19.08 44.44c-0.42,0 -0.77,-0.26 -0.92,-0.63 -0.04,-0.11 -0.07,-0.23 -0.07,-0.36l0 -0.31c-0.02,-1.36 -0.23,-6.2 -2.36,-10.76 -2.69,-5.76 -7.32,-8.68 -13.76,-8.68 -0.55,0 -0.99,-0.44 -0.99,-0.99 0,-0.55 0.44,-0.99 0.99,-0.99 6.44,0 11.07,-2.92 13.76,-8.68 2.13,-4.56 2.35,-9.4 2.36,-10.77l0 -0.3c0,-0.54 0.44,-0.99 0.99,-0.99l0 0c0.42,0 0.77,0.26 0.92,0.62 0.04,0.11 0.07,0.23 0.07,0.36l0 0.31c0.02,1.36 0.23,6.2 2.36,10.76 2.69,5.76 7.32,8.68 13.76,8.68 0.54,0 0.99,0.44 0.99,0.99 0,0.54 -0.44,0.99 -0.99,0.99 -6.44,0 -11.07,2.92 -13.76,8.68 -2.13,4.56 -2.34,9.4 -2.36,10.77l0 0.3c0,0.55 -0.44,0.99 -0.99,0.99l-0 0z"/>
   <path class="fil1" d="M19.08 0l0 0 -0.02 0c-1.08,0.01 -1.96,0.89 -1.96,1.97l0 0.31c-0.03,3.06 -0.92,18.45 -15.13,18.45 -1.09,0 -1.97,0.88 -1.97,1.97 0,1.09 0.88,1.97 1.97,1.97 14.21,0 15.1,15.39 15.13,18.48l0 0.29c0,1.08 0.87,1.97 1.96,1.97l0.01 0 0 0 0 0 0 0 0 0 0 0 0.01 -0c1.08,-0.01 1.96,-0.89 1.96,-1.97l0 -0.31c0.03,-3.06 0.92,-18.45 15.13,-18.45 1.09,0 1.97,-0.88 1.97,-1.97 0,-1.09 -0.88,-1.97 -1.97,-1.97 -14.21,0 -15.1,-15.39 -15.13,-18.48l0 -0.29c0,-1.08 -0.87,-1.96 -1.96,-1.97l-0.02 0zm0 1.97l0 0.31c0.03,2.57 0.81,20.43 17.11,20.43 -16.3,0 -17.08,17.86 -17.11,20.43l0 0.31 0 -0.04 -0 0.04 0 -0.31c-0.03,-2.57 -0.81,-20.43 -17.11,-20.43 16.3,0 17.08,-17.86 17.11,-20.43l0 -0.31 0 0.04 0 -0.04z"/>
   <path class="fil0" d="M42.11 52.59c-0.32,0 -0.6,-0.2 -0.71,-0.49 -0.03,-0.08 -0.05,-0.17 -0.05,-0.27l0 -0.24c-0.01,-1.05 -0.18,-4.77 -1.82,-8.28 -2.07,-4.43 -5.63,-6.68 -10.58,-6.68 -0.42,0 -0.76,-0.34 -0.76,-0.76 0,-0.42 0.34,-0.76 0.76,-0.76 4.95,0 8.51,-2.25 10.58,-6.68 1.64,-3.51 1.8,-7.23 1.82,-8.29l0 -0.23c0,-0.42 0.34,-0.76 0.76,-0.76l0 0c0.3,0 0.56,0.18 0.69,0.43 0.05,0.1 0.07,0.21 0.07,0.32l0 0.24c0.01,1.05 0.18,4.77 1.82,8.28 2.07,4.43 5.63,6.68 10.58,6.68 0.42,0 0.76,0.34 0.76,0.76 0,0.42 -0.34,0.76 -0.76,0.76 -4.95,0 -8.51,2.25 -10.58,6.68 -1.64,3.51 -1.8,7.23 -1.82,8.29l0 0.23c0,0.41 -0.33,0.75 -0.75,0.76l-0.01 0z"/>
   <path class="fil1" d="M42.11 18.4c-0.65,0 -1.2,0.4 -1.42,0.98 -0.06,0.17 -0.1,0.35 -0.1,0.54l0 0.24c-0.03,2.36 -0.71,14.2 -11.64,14.2 -0.84,0 -1.52,0.68 -1.52,1.52 0,0.84 0.68,1.52 1.52,1.52 10.93,0 11.61,11.84 11.64,14.21l0 0.22c0,0.83 0.67,1.51 1.51,1.52l0.01 0c0.65,0 1.2,-0.4 1.42,-0.97 0.06,-0.17 0.1,-0.35 0.1,-0.54l0 -0.24c0.03,-2.36 0.71,-14.2 11.64,-14.2 0.84,0 1.52,-0.68 1.52,-1.52 0,-0.84 -0.68,-1.52 -1.52,-1.52 -10.93,0 -11.61,-11.84 -11.64,-14.21l0 -0.22c0,-0.83 -0.67,-1.51 -1.51,-1.52l-0.01 0zm0 1.52l0 0.24c0.02,1.98 0.62,15.71 13.16,15.71 -12.54,0 -13.14,13.73 -13.16,15.71l0 0.24 -0 -0.03 0 0.03 0 -0.24c-0.02,-1.98 -0.62,-15.71 -13.16,-15.71 12.53,0 13.14,-13.73 13.16,-15.71l0 -0.24 0 0.03 0 -0.03z"/>
   <path class="fil0" d="M11.84 64.19c-0.32,0 -0.57,-0.24 -0.57,-0.56l0 -0.18c-0.01,-0.79 -0.13,-3.58 -1.36,-6.21 -1.55,-3.32 -4.22,-5.01 -7.94,-5.01 -0.31,0 -0.57,-0.26 -0.57,-0.57 0,-0.31 0.26,-0.57 0.57,-0.57 3.71,0 6.38,-1.68 7.94,-5.01 1.23,-2.63 1.35,-5.42 1.36,-6.22l0 -0.17c0,-0.28 0.2,-0.51 0.46,-0.56l0 0 0.1 -0.01c0.31,0 0.57,0.26 0.57,0.57l0 0.18c0.01,0.79 0.13,3.58 1.36,6.21 1.55,3.32 4.22,5.01 7.94,5.01 0.31,0 0.57,0.26 0.57,0.57 0,0.31 -0.26,0.57 -0.57,0.57 -3.71,0 -6.38,1.68 -7.94,5.01 -1.23,2.63 -1.35,5.42 -1.36,6.21l0 0.16c-0,0.31 -0.26,0.58 -0.57,0.58z"/>
   <path class="fil1" d="M11.84 38.57c-0.48,0 -0.9,0.3 -1.06,0.73 -0.05,0.13 -0.08,0.26 -0.08,0.41l0 0.18c-0.02,1.77 -0.53,10.65 -8.73,10.65 -0.63,0 -1.14,0.51 -1.14,1.14 0,0.63 0.51,1.14 1.14,1.14 8.2,0 8.71,8.88 8.73,10.66l0 0.17c0,0.63 0.5,1.13 1.13,1.14l0.01 0c0.48,0 0.9,-0.3 1.06,-0.73 0.05,-0.13 0.08,-0.26 0.08,-0.41l0 -0.18c0.02,-1.77 0.53,-10.65 8.73,-10.65 0.63,0 1.14,-0.51 1.14,-1.14 0,-0.63 -0.51,-1.14 -1.14,-1.14 -8.2,0 -8.71,-8.88 -8.73,-10.66l0 -0.17c0,-0.63 -0.5,-1.13 -1.13,-1.14l-0.01 0zm0 1.14l0 0.18c0.02,1.48 0.47,11.79 9.87,11.79 -9.4,0 -9.85,10.3 -9.87,11.79l0 0.18 0 -0.02 -0 0.02 0 -0.18c-0.02,-1.49 -0.47,-11.79 -9.87,-11.79 9.4,0 9.85,-10.3 9.87,-11.79l-0 -0.18 0 0.02 0 -0.02z"/>
  </g>
 </g>
</svg>
