<?xml version="1.0" encoding="UTF-8"?>
<!DOCTYPE svg PUBLIC "-//W3C//DTD SVG 1.1//EN" "http://www.w3.org/Graphics/SVG/1.1/DTD/svg11.dtd">
<!-- Creator: CorelDRAW -->
<svg xmlns="http://www.w3.org/2000/svg" xml:space="preserve" width="23.2551mm" height="28.0208mm" version="1.1" style="shape-rendering:geometricPrecision; text-rendering:geometricPrecision; image-rendering:optimizeQuality; fill-rule:evenodd; clip-rule:evenodd"
viewBox="0 0 325.89 392.67"
 xmlns:xlink="http://www.w3.org/1999/xlink"
 xmlns:xodm="http://www.corel.com/coreldraw/odm/2003">
 <defs>
  <style type="text/css">
   <![CDATA[
    .fil0 {fill:#FEFDFE;fill-rule:nonzero}
    .fil1 {fill:#2F4C74;fill-rule:nonzero}
   ]]>
  </style>
 </defs>
 <g id="Layer_x0020_1">
  <metadata id="CorelCorpID_0Corel-Layer"/>
  <g id="_2445230873456">
   <path class="fil0" d="M111.68 271.81c-2.52,0 -4.7,-1.61 -5.49,-3.86 -0.2,-0.59 -0.3,-1.24 -0.3,-1.92l0 -1.81c-0.1,-7.98 -1.33,-36.3 -13.84,-62.99 -15.72,-33.72 -42.81,-50.81 -80.53,-50.81 -3.16,0 -5.78,-2.59 -5.78,-5.77 0,-3.19 2.62,-5.78 5.78,-5.78 37.72,0 64.81,-17.1 80.53,-50.81 12.51,-26.69 13.74,-55 13.84,-63.05l0 -1.76c0,-3.19 2.57,-5.78 5.78,-5.78 2.52,0 4.65,1.63 5.44,3.9 0.2,0.59 0.35,1.22 0.35,1.88l0 1.81c0.05,7.98 1.34,36.3 13.79,62.99 15.77,33.71 42.86,50.81 80.53,50.81 3.16,0 5.78,2.59 5.78,5.78 0,3.19 -2.62,5.77 -5.78,5.77 -37.67,0 -64.76,17.09 -80.53,50.81 -12.46,26.69 -13.74,55 -13.79,63.05l0 1.75c0,3.19 -2.62,5.77 -5.78,5.77z"/>
   <path class="fil1" d="M111.68 11.72l-0.1 0 0 0 0 0 -0.05 0c-6.33,0.06 -11.42,5.22 -11.42,11.55l0 1.81c-0.2,17.94 -5.39,108.01 -88.59,108.01 -6.38,0 -11.52,5.18 -11.52,11.55 0,6.38 5.14,11.56 11.52,11.56 83.2,0 88.39,90.08 88.59,108.14l0 1.69c0,6.34 5.09,11.49 11.42,11.55l0.05 0 0 0 0 0 0.1 0 0.1 0c6.33,-0.06 11.42,-5.22 11.42,-11.56l0 -1.82c0.2,-17.93 5.44,-108 88.59,-108 6.38,0 11.57,-5.18 11.57,-11.56 0,-6.38 -5.19,-11.55 -11.57,-11.55 -83.15,0 -88.39,-90.08 -88.59,-108.14l0 -1.69c0,-6.34 -5.09,-11.49 -11.42,-11.55l-0.1 0zm0 11.55l0 1.81c0.15,15.06 4.75,119.57 100.11,119.57 -95.36,0 -99.96,104.5 -100.11,119.57l0 1.82 0 -0.24 0 0.24 0 -1.82c-0.2,-15.06 -4.75,-119.57 -100.16,-119.57 95.41,0 99.96,-104.5 100.16,-119.57l0 -1.81 0 0.24 0 -0.24z"/>
   <path class="fil0" d="M223.95 388.22c-1.88,0 -3.46,-1.16 -4.15,-2.82 -0.2,-0.5 -0.3,-1.05 -0.3,-1.62l0 -1.4c-0.05,-6.14 -1.04,-27.93 -10.63,-48.45 -12.11,-25.93 -32.92,-39.08 -61.94,-39.08 -2.42,0 -4.45,-1.99 -4.45,-4.44 0,-2.45 2.03,-4.45 4.45,-4.45 29.02,0 49.83,-13.14 61.94,-39.07 9.59,-20.52 10.58,-42.31 10.63,-48.5l0 -1.35c0,-2.45 1.98,-4.44 4.45,-4.44 1.93,0 3.51,1.19 4.15,2.87 0.2,0.48 0.3,1.01 0.3,1.57l0 1.4c0.05,6.14 1.04,27.92 10.63,48.45 12.11,25.93 32.98,39.07 61.94,39.07 2.47,0 4.45,1.99 4.45,4.45 0,2.46 -1.98,4.44 -4.45,4.44 -28.97,0 -49.83,13.15 -61.94,39.08 -9.59,20.53 -10.58,42.31 -10.63,48.5l0 1.35c0,2.39 -1.88,4.36 -4.3,4.44l-0.15 0z"/>
   <path class="fil1" d="M223.95 188.16c-3.81,0 -7.02,2.37 -8.31,5.73 -0.4,0.97 -0.59,2.04 -0.59,3.15l0 1.4c-0.15,13.8 -4.15,83.09 -68.12,83.09 -4.89,0 -8.9,3.98 -8.9,8.88 0,4.91 4,8.89 8.9,8.89 63.97,0 67.98,69.29 68.12,83.18l0 1.3c0,4.88 3.95,8.84 8.8,8.89l0.1 0c3.81,0 7.02,-2.37 8.3,-5.72 0.4,-0.98 0.59,-2.05 0.59,-3.16l0 -1.4c0.15,-13.79 4.15,-83.08 68.12,-83.08 4.89,0 8.9,-3.98 8.9,-8.89 0,-4.91 -4,-8.88 -8.9,-8.88 -63.97,0 -67.97,-69.29 -68.12,-83.18l0 -1.3c0,-4.88 -3.96,-8.84 -8.8,-8.88l-0.1 0zm0 8.88l0 1.4c0.15,11.59 3.66,91.97 77.02,91.97 -73.36,0 -76.87,80.38 -77.02,91.97l0 1.4 0 -0.18 0 0.18 0 -1.4c-0.15,-11.59 -3.66,-91.97 -77.02,-91.97 73.36,0 76.87,-80.38 77.02,-91.97l0 -1.4 0 0.19 0 -0.19z"/>
   <path class="fil0" d="M261.42 150.05c-1.33,0 -2.52,-0.83 -3.02,-2.02 -0.2,-0.4 -0.3,-0.85 -0.3,-1.31l0 -1.05c-0.05,-4.61 -0.79,-20.95 -7.96,-36.34 -9.1,-19.45 -24.72,-29.31 -46.47,-29.31 -1.83,0 -3.31,-1.49 -3.31,-3.33 0,-1.84 1.48,-3.33 3.31,-3.33 21.75,0 37.37,-9.86 46.47,-29.31 7.17,-15.39 7.91,-31.73 7.96,-36.37l0 -1.01c0,-1.84 1.48,-3.33 3.31,-3.33 1.38,0 2.57,0.84 3.12,2.04 0.15,0.4 0.25,0.83 0.25,1.29l0 1.05c0.05,4.6 0.79,20.95 7.96,36.34 9.1,19.45 24.72,29.31 46.47,29.31 1.83,0 3.31,1.49 3.31,3.33 0,1.84 -1.48,3.33 -3.31,3.33 -21.75,0 -37.37,9.86 -46.47,29.31 -7.17,15.39 -7.91,31.73 -7.96,36.37l0 1.01c0,1.84 -1.48,3.33 -3.36,3.33z"/>
   <path class="fil1" d="M261.42 0c-2.82,0 -5.24,1.77 -6.18,4.26 -0.3,0.74 -0.45,1.56 -0.45,2.41l0 1.05c-0.15,10.34 -3.11,62.31 -51.12,62.31 -3.66,0 -6.67,2.98 -6.67,6.66 0,3.68 3.02,6.66 6.67,6.66 48,0 50.97,51.96 51.12,62.38l0 0.97c0,3.65 2.92,6.62 6.58,6.66l0.05 0c2.87,0 5.29,-1.77 6.23,-4.29 0.3,-0.73 0.45,-1.53 0.45,-2.37l0 -1.05c0.15,-10.35 3.11,-62.31 51.12,-62.31 3.66,0 6.67,-2.99 6.67,-6.66 0,-3.68 -3.01,-6.66 -6.67,-6.66 -48,0 -50.97,-51.97 -51.12,-62.38l0 -0.97c0,-3.67 -2.97,-6.64 -6.62,-6.67l-0.05 0zm0 6.67l0 1.05c0.1,8.69 2.77,68.97 57.79,68.97 -55.02,0 -57.69,60.28 -57.79,68.97l0 1.05 0 -0.14 0 0.14 0 -1.05c-0.1,-8.69 -2.72,-68.97 -57.74,-68.97 55.02,0 57.64,-60.29 57.74,-68.97l0 -1.05 0 0.13 0 -0.13z"/>
  </g>
 </g>
</svg>
