<?xml version="1.0" encoding="UTF-8"?>
<!DOCTYPE svg PUBLIC "-//W3C//DTD SVG 1.1//EN" "http://www.w3.org/Graphics/SVG/1.1/DTD/svg11.dtd">
<!-- Creator: CorelDRAW -->
<svg xmlns="http://www.w3.org/2000/svg" xml:space="preserve" width="18.6044mm" height="16.5677mm" version="1.1" style="shape-rendering:geometricPrecision; text-rendering:geometricPrecision; image-rendering:optimizeQuality; fill-rule:evenodd; clip-rule:evenodd"
viewBox="0 0 705.76 628.5"
 xmlns:xlink="http://www.w3.org/1999/xlink"
 xmlns:xodm="http://www.corel.com/coreldraw/odm/2003">
 <defs>
  <style type="text/css">
   <![CDATA[
    .fil1 {fill:black;fill-rule:nonzero}
    .fil2 {fill:#2A0665;fill-rule:nonzero}
    .fil3 {fill:#400995;fill-rule:nonzero}
    .fil0 {fill:#FF0069;fill-rule:nonzero}
   ]]>
  </style>
 </defs>
 <g id="__x0023_Layer_x0020_1">
  <metadata id="CorelCorpID_0Corel-Layer"/>
  <g id="_2759741801472">
   <g>
    <path class="fil0" d="M313.22 614.62c-22.62,0 -45.33,-2.12 -67.51,-6.3 -69.66,-12.94 -131.87,-45.81 -170.62,-90.16 -29.34,-33.64 -48.35,-69.94 -56.52,-107.91 -23.45,-106.97 44.62,-202.01 121.15,-228.7 19.47,-6.78 39.53,-10.22 59.61,-10.22 44.01,0 86.17,16.98 115.67,46.58 27.66,27.81 42.73,65.27 42.45,105.45 -0.27,45.43 -19.35,83.01 -53.71,105.82 -20.61,13.65 -46.12,21.14 -71.86,21.14 -20.62,0 -40.7,-4.73 -58.07,-13.67 -45.34,-23.3 -57.02,-76.66 -48.48,-119.2 3.99,-19.37 11.95,-35.73 22.44,-47 -2.34,1.99 -4.59,4.1 -6.73,6.33 -19.86,20.61 -29.66,50.06 -28.36,85.18 0.23,6.73 1.13,13.34 2.69,19.68 10.93,47.38 56.14,77.87 115.23,77.87 19.32,0 38.86,-3.3 58.06,-9.81 17.89,-6.13 34.82,-14.73 50.32,-25.54 33.55,-23.31 61.01,-61.45 81.63,-113.37 14.68,-37.32 22.52,-73.79 26.51,-97.8 3.44,-20.15 4.39,-33.22 4.4,-33.35 0.39,-5.58 4.1,-10.39 9.4,-12.2l17.85 -6.02c-5.36,-75.84 4.32,-133.47 4.76,-136 1.16,-6.7 6.97,-11.54 13.68,-11.54 0.34,0 0.68,0.02 1.03,0.04 1.38,0.1 138.31,11.8 179.12,159.64 16.92,61.19 19.08,119.61 6.42,173.61 -13.22,56.78 -42.35,107.18 -86.59,149.77 -32.39,31.43 -71.77,57.15 -117.01,76.37 -0.14,0.05 -0.43,0.17 -0.75,0.3 -50.59,26.82 -108.02,41 -166.17,41zm-126.67 -267.39l0 0c1.18,16 20.44,30.89 41.2,30.89 9.66,0 18.72,-3.3 26.21,-9.57 2.6,-2.05 4.76,-4.21 6.75,-6.7 11.87,-14.49 17.39,-32.58 15.63,-51.06 -1.47,-17.36 -8.91,-32.98 -20.97,-44.28 -0.43,-0.31 -0.85,-0.64 -1.24,-1.01 -5.58,-5.14 -11.92,-9.15 -19.37,-12.27 -7.9,-3.25 -17.29,-4.99 -27.09,-4.99 -9.89,0 -19.7,1.65 -29.02,4.78 6.77,-1.75 13.61,-2.63 20.46,-2.63 38.12,0 67.98,27.51 69.47,64.01 0.73,19.57 -6.29,31.11 -12.31,37.35 -6.85,7.11 -16.1,11.19 -25.39,11.19 -7.72,0 -14.68,-2.91 -19.08,-8 -3.89,-4.5 -5.57,-10.27 -4.7,-16.27 1.24,-8.52 -0.14,-23.3 -9.04,-26.63 -0.9,-0.34 -1.7,-0.51 -2.36,-0.51 -0.46,0 -1.55,0 -3.07,1.61 -1.74,1.84 -7.33,9.54 -6.09,31.14 0.03,0.61 0.03,1.21 -0.02,1.83 0.02,0.43 0.04,0.98 0.04,1.11z"/>
    <g>
     <path class="fil1" d="M497.2 27.78c0,0 128.07,9.37 166.75,149.49 17.13,61.96 17.8,117.63 6.29,166.74 -13.25,56.88 -43.09,104.79 -82.7,142.93 -32.12,31.18 -70.93,55.81 -112.82,73.61 -0.4,0.13 -0.67,0.27 -1.07,0.4 -51.99,27.74 -107.37,39.78 -160.42,39.78 -22.2,0 -43.99,-2.11 -64.95,-6.05 -67.71,-12.58 -126.6,-44.3 -162.73,-85.65 -29.18,-33.45 -46.17,-68.12 -53.4,-101.71 -21.55,-98.23 39.21,-187.22 112.15,-212.65 18.43,-6.42 37.02,-9.44 55.03,-9.44 40.99,0 79.05,15.63 105.82,42.49 23.82,23.96 38.68,56.88 38.41,95.55 -0.27,44.84 -20.07,76.15 -47.51,94.35 -19.03,12.59 -41.75,18.83 -64.19,18.83 -18.11,0 -36.04,-4.06 -51.71,-12.14 -38.81,-19.94 -48.71,-66.78 -41.22,-104.12 4.81,-23.42 16.46,-43.09 32.12,-49.91 9.47,-4.1 18.99,-5.99 28.05,-5.99 29.71,0 54.36,20.43 55.6,50.69 0.93,24.82 -13.49,34.09 -23.83,34.09 -6.1,0 -10.78,-3.23 -10.03,-8.4 2.01,-13.92 -1.07,-35.33 -17.94,-41.62 -2.44,-0.93 -4.87,-1.39 -7.22,-1.39 -13.63,-0 -24.85,15.58 -23.02,47.43 -0.14,0.67 0,1.47 0,2.14 1.76,24.91 27.67,44.78 55.08,44.78 12.06,0 24.4,-3.84 35.12,-12.8 3.08,-2.41 6.02,-5.35 8.7,-8.7 14.59,-17.8 20.61,-39.88 18.6,-61.03 -1.74,-20.48 -10.71,-40.01 -26.5,-54.2l-0.13 0c-6.69,-6.15 -14.45,-11.11 -23.42,-14.85 -9.73,-4.01 -20.84,-6.07 -32.45,-6.07 -51.15,0 -112.15,39.88 -108.88,128.12 0.27,7.89 1.34,15.39 3.08,22.48 13.01,56.38 66.61,88.44 128.72,88.44 20.31,0 41.51,-3.43 62.52,-10.55 18.33,-6.29 36.53,-15.25 53.8,-27.3 41.62,-28.91 68.79,-74.81 86.59,-119.64 14.86,-37.74 23.02,-74.81 27.3,-100.64 3.61,-21.14 4.55,-34.66 4.55,-34.66l28.1 -9.5c-7.09,-80.3 3.75,-143.33 3.75,-143.33zm-0.02 -27.78l0 0c-13.41,0 -25.04,9.66 -27.35,23.07 -0.42,2.47 -9.49,56.4 -5.6,128.6l-7.78 2.63c-10.62,3.59 -18.04,13.21 -18.81,24.39 -0.01,0.09 -0.93,12.62 -4.22,31.9 -3.89,23.47 -11.5,58.89 -25.77,95.14 -14.21,35.79 -31.7,64.6 -52.19,86 10.27,-19.96 15.72,-43.05 15.88,-68.3 0.3,-43.89 -16.21,-84.85 -46.49,-115.3 -32.11,-32.22 -77.85,-50.68 -125.52,-50.68 -21.64,0 -43.23,3.69 -64.17,10.98 -82.14,28.64 -155.25,130.38 -130.14,244.83 8.65,40.19 28.71,78.59 59.59,114.01 40.8,46.68 105.88,81.2 178.59,94.7 22.96,4.32 46.54,6.52 70.02,6.52 60.11,0 119.51,-14.59 171.91,-42.21 0.15,-0.06 0.29,-0.12 0.44,-0.18 46.82,-19.9 87.63,-46.56 121.3,-79.24 46.11,-44.4 76.56,-97.1 90.41,-156.55 13.19,-56.26 10.97,-116.98 -6.57,-180.45 -43.39,-157.18 -185.46,-169.34 -191.49,-169.78 -0.69,-0.05 -1.37,-0.08 -2.05,-0.08z"/>
    </g>
   </g>
   <path class="fil2" d="M448.16 514.39c0,0 35.31,-16.51 34.17,13.1 -1.14,29.61 -67.77,24.49 -67.77,24.49 0,0 -5.41,-50.86 15.09,-62.16 20.5,-11.3 28.76,11.48 18.51,24.57z"/>
   <path class="fil2" d="M670.23 344.01c-13.25,56.88 -43.09,104.79 -82.7,142.93l-95.29 -137.84 -31.45 -133.83c3.61,-21.14 4.55,-34.66 4.55,-34.66l28.1 -9.5c-7.09,-80.3 3.75,-143.33 3.75,-143.33 0,0 128.07,9.37 166.75,149.49 17.13,61.96 17.8,117.63 6.29,166.74z"/>
   <g>
    <path class="fil2" d="M254.7 314.97c1.47,39.48 -35.87,39.62 -33.86,25.7 2.01,-13.92 -1.07,-35.33 -17.94,-41.62 -16.59,-6.29 -32.39,8.7 -30.24,46.04l-33.72 -24.89c4.81,-23.42 16.46,-43.09 32.12,-49.91 40.55,-17.53 82.03,5.22 83.64,44.7z"/>
   </g>
   <path class="fil2" d="M343.56 323.26c-0.27,44.84 -20.07,76.15 -47.51,94.35l-33.19 -38.41c3.08,-2.41 6.02,-5.35 8.7,-8.7 14.59,-17.8 20.61,-39.88 18.6,-61.03 -1.74,-20.48 -10.71,-40.01 -26.5,-54.2l41.49 -27.57c23.82,23.96 38.68,56.88 38.41,95.55z"/>
   <path class="fil3" d="M293.11 462.85l-44.84 131.82c-67.71,-12.58 -126.6,-44.3 -162.73,-85.65 -29.18,-33.45 -46.17,-68.12 -53.4,-101.71l69.72 -22.35c17.26,74.81 105.99,106.79 191.24,77.89z"/>
  </g>
 </g>
</svg>
