<?xml version="1.0" encoding="UTF-8"?>
<!DOCTYPE svg PUBLIC "-//W3C//DTD SVG 1.1//EN" "http://www.w3.org/Graphics/SVG/1.1/DTD/svg11.dtd">
<!-- Creator: CorelDRAW -->
<svg xmlns="http://www.w3.org/2000/svg" xml:space="preserve" width="9.789mm" height="10.1737mm" version="1.1" style="shape-rendering:geometricPrecision; text-rendering:geometricPrecision; image-rendering:optimizeQuality; fill-rule:evenodd; clip-rule:evenodd"
viewBox="0 0 143.88 149.53"
 xmlns:xlink="http://www.w3.org/1999/xlink"
 xmlns:xodm="http://www.corel.com/coreldraw/odm/2003">
 <defs>
  <style type="text/css">
   <![CDATA[
    .fil1 {fill:black;fill-rule:nonzero}
    .fil2 {fill:#400995;fill-rule:nonzero}
    .fil0 {fill:#FF0069;fill-rule:nonzero}
   ]]>
  </style>
 </defs>
 <g id="__x0023_Layer_x0020_1">
  <metadata id="CorelCorpID_0Corel-Layer"/>
  <g id="_2759741788896">
   <g>
    <path class="fil0" d="M38.37 148.86c-3.38,-2.87 -6.48,-5.91 -9.28,-9.1 -11.37,-13.03 -18.73,-27.1 -21.9,-41.81 -9.09,-41.45 17.29,-78.27 46.94,-88.61 7.54,-2.63 15.32,-3.96 23.09,-3.96 17.05,0 33.39,6.58 44.82,18.05 10.72,10.78 16.56,25.29 16.45,40.86 -0.1,17.6 -7.5,32.16 -20.81,41 -7.99,5.29 -17.87,8.19 -27.84,8.19 -7.99,0 -15.77,-1.83 -22.5,-5.3 -17.57,-9.03 -22.09,-29.7 -18.78,-46.19 1.55,-7.5 4.63,-13.84 8.69,-18.21 -0.91,0.77 -1.78,1.59 -2.61,2.45 -7.69,7.99 -11.49,19.39 -10.99,33 0.09,2.61 0.44,5.17 1.04,7.63 4.24,18.36 21.75,30.17 44.65,30.17 7.49,0 15.06,-1.28 22.49,-3.8 4.71,-1.62 9.26,-3.67 13.57,-6.14 -12.59,15.21 -32.57,31.03 -64,40.25 -8.02,2.35 -15.71,2.72 -23.03,1.51zm33.91 -75.33c0.46,6.2 7.92,11.97 15.96,11.97 3.74,0 7.25,-1.28 10.15,-3.71 1.01,-0.8 1.84,-1.63 2.62,-2.6 4.6,-5.62 6.74,-12.62 6.06,-19.78 -0.57,-6.72 -3.45,-12.78 -8.13,-17.16 -0.17,-0.12 -0.33,-0.25 -0.48,-0.39 -2.16,-1.99 -4.62,-3.55 -7.51,-4.75 -3.06,-1.26 -6.7,-1.93 -10.49,-1.93 -3.83,0 -7.63,0.64 -11.24,1.85 2.62,-0.68 5.27,-1.02 7.93,-1.02 14.77,0 26.34,10.66 26.92,24.8 0.28,7.58 -2.44,12.05 -4.77,14.47 -2.65,2.76 -6.24,4.33 -9.84,4.33 -2.99,0 -5.69,-1.13 -7.39,-3.1 -1.51,-1.74 -2.16,-3.98 -1.82,-6.3 0.48,-3.3 -0.05,-9.03 -3.5,-10.32 -0.35,-0.13 -0.66,-0.2 -0.91,-0.2 -0.18,0 -0.6,0 -1.19,0.62 -0.67,0.71 -2.84,3.7 -2.36,12.07 0.01,0.24 0.01,0.47 -0.01,0.71 0.01,0.17 0.01,0.38 0.01,0.43z"/>
    <g>
     <path class="fil1" d="M47.96 149.51c-5.63,-4.03 -10.62,-8.5 -14.81,-13.3 -11.3,-12.96 -17.89,-26.39 -20.69,-39.41 -8.35,-38.06 15.19,-72.54 43.45,-82.39 7.14,-2.49 14.34,-3.66 21.32,-3.66 15.88,0 30.63,6.05 41,16.46 9.23,9.28 14.99,22.04 14.88,37.02 -0.1,17.37 -7.78,29.5 -18.41,36.56 -7.37,4.88 -16.18,7.29 -24.87,7.29 -7.02,0 -13.96,-1.57 -20.03,-4.7 -15.04,-7.73 -18.87,-25.87 -15.97,-40.34 1.87,-9.07 6.38,-16.7 12.44,-19.34 3.67,-1.59 7.36,-2.32 10.87,-2.32 11.51,0 21.06,7.92 21.54,19.64 0.36,9.62 -5.23,13.21 -9.23,13.21 -2.36,0 -4.18,-1.25 -3.89,-3.25 0.78,-5.39 -0.42,-13.69 -6.95,-16.13 -0.95,-0.36 -1.89,-0.54 -2.8,-0.54 -5.28,-0 -9.63,6.04 -8.92,18.38 -0.05,0.26 0,0.57 0,0.83 0.68,9.65 10.72,17.35 21.34,17.35 4.67,0 9.46,-1.49 13.61,-4.96 1.19,-0.93 2.33,-2.07 3.37,-3.37 5.65,-6.9 7.99,-15.45 7.21,-23.64 -0.67,-7.93 -4.15,-15.5 -10.27,-21l-0.05 0c-2.59,-2.38 -5.6,-4.3 -9.07,-5.75 -3.77,-1.56 -8.07,-2.35 -12.57,-2.35 -19.82,0 -43.45,15.45 -42.18,49.64 0.1,3.06 0.52,5.96 1.19,8.71 5.04,21.84 25.81,34.27 49.87,34.27 7.87,0 16.08,-1.33 24.22,-4.09 0.61,-0.21 1.23,-0.43 1.84,-0.66 14.58,-13.57 22.44,-27.98 26.54,-38.03 1.24,-4.81 1.9,-9.94 1.93,-15.33 0.12,-17.01 -6.28,-32.87 -18.01,-44.67 -12.44,-12.48 -30.16,-19.64 -48.63,-19.64 -8.39,0 -16.75,1.43 -24.86,4.26 -31.83,11.1 -60.15,50.52 -50.42,94.86 3.35,15.57 11.12,30.45 23.09,44.17 0.72,0.82 1.45,1.63 2.21,2.43 6.57,2.61 13.49,4 20.72,3.79z"/>
    </g>
   </g>
   <g>
    <path class="fil2" d="M98.68 61.03c0.57,15.3 -13.9,15.35 -13.12,9.96 0.78,-5.39 -0.42,-13.69 -6.95,-16.13 -6.43,-2.44 -12.55,3.37 -11.72,17.84l-13.07 -9.64c1.87,-9.07 6.38,-16.7 12.44,-19.34 15.71,-6.79 31.78,2.02 32.41,17.32z"/>
   </g>
   <path class="fil2" d="M133.11 64.25c-0.1,17.37 -7.78,29.5 -18.41,36.56l-12.86 -14.88c1.19,-0.93 2.33,-2.07 3.37,-3.37 5.65,-6.9 7.99,-15.45 7.21,-23.64 -0.67,-7.93 -4.15,-15.5 -10.27,-21l16.07 -10.68c9.23,9.28 14.99,22.04 14.88,37.02z"/>
   <path class="fil2" d="M113.57 118.33l-0.5 1.46c-12.28,10.82 -28.99,20.91 -51.67,27.56 -4.59,1.35 -9.08,2.04 -13.45,2.17 -5.63,-4.03 -10.62,-8.5 -14.81,-13.3 -11.3,-12.96 -17.89,-26.39 -20.69,-39.41l27.01 -8.66c6.69,28.99 41.06,41.38 74.09,30.18z"/>
  </g>
 </g>
</svg>
