<?xml version="1.0" encoding="UTF-8"?>
<!DOCTYPE svg PUBLIC "-//W3C//DTD SVG 1.1//EN" "http://www.w3.org/Graphics/SVG/1.1/DTD/svg11.dtd">
<!-- Creator: CorelDRAW -->
<svg xmlns="http://www.w3.org/2000/svg" xml:space="preserve" width="43.5755mm" height="34.5838mm" version="1.1" style="shape-rendering:geometricPrecision; text-rendering:geometricPrecision; image-rendering:optimizeQuality; fill-rule:evenodd; clip-rule:evenodd"
viewBox="0 0 259.14 205.67"
 xmlns:xlink="http://www.w3.org/1999/xlink"
 xmlns:xodm="http://www.corel.com/coreldraw/odm/2003">
 <defs>
  <style type="text/css">
   <![CDATA[
    .fil0 {fill:#8B78B5;fill-rule:nonzero}
   ]]>
  </style>
 </defs>
 <g id="Layer_x0020_1">
  <metadata id="CorelCorpID_0Corel-Layer"/>
  <g id="_2003667749568">
   <path class="fil0" d="M-0 205.67l0 -5.63c3.38,-0.02 6.74,-0.12 10.07,-0.29 1.55,-0.08 2.87,1.11 2.96,2.67 0.08,1.55 -1.11,2.87 -2.67,2.95 -3.43,0.18 -6.89,0.28 -10.36,0.3zm216.98 -203.13c-0.74,7.44 -1.85,14.77 -3.31,21.98 -0.31,1.52 0.67,3.01 2.2,3.32 1.52,0.31 3.01,-0.67 3.32,-2.2 1.5,-7.39 2.64,-14.91 3.4,-22.54 0.15,-1.55 -0.98,-2.92 -2.52,-3.08 -1.55,-0.15 -2.92,0.98 -3.08,2.52zm-8.84 43.5c-2.22,7.11 -4.79,14.07 -7.69,20.85 -0.61,1.43 0.05,3.08 1.48,3.69 1.43,0.61 3.08,-0.05 3.69,-1.48 2.98,-6.96 5.62,-14.09 7.89,-21.39 0.46,-1.48 -0.36,-3.06 -1.85,-3.52 -1.48,-0.46 -3.06,0.36 -3.52,1.85zm-17.47 40.81c-3.6,6.5 -7.53,12.8 -11.75,18.87 -0.89,1.28 -0.57,3.03 0.7,3.91 1.28,0.89 3.03,0.57 3.92,-0.7 4.33,-6.23 8.36,-12.69 12.05,-19.35 0.75,-1.36 0.26,-3.07 -1.1,-3.83 -1.36,-0.76 -3.07,-0.26 -3.83,1.1zm-25.35 36.46c-4.83,5.63 -9.93,11.02 -15.3,16.13 -1.13,1.07 -1.17,2.85 -0.1,3.98 1.07,1.12 2.85,1.17 3.98,0.09 5.5,-5.24 10.74,-10.77 15.69,-16.54 1.01,-1.18 0.87,-2.96 -0.31,-3.97 -1.18,-1.01 -2.96,-0.87 -3.97,0.31zm-32.14 30.64c-5.84,4.54 -11.92,8.79 -18.22,12.74 -1.32,0.82 -1.72,2.56 -0.89,3.88 0.82,1.32 2.56,1.71 3.88,0.89 6.45,-4.04 12.69,-8.41 18.68,-13.06 1.23,-0.95 1.45,-2.72 0.49,-3.95 -0.95,-1.23 -2.72,-1.45 -3.95,-0.49zm-37.62 23.57c-6.62,3.27 -13.43,6.21 -20.41,8.81 -1.46,0.54 -2.2,2.16 -1.66,3.62 0.54,1.46 2.16,2.2 3.62,1.66 7.16,-2.66 14.14,-5.68 20.93,-9.03 1.39,-0.69 1.97,-2.38 1.28,-3.77 -0.69,-1.39 -2.37,-1.97 -3.77,-1.28zm-41.6 15.48c-7.12,1.85 -14.38,3.35 -21.77,4.49 -1.54,0.24 -2.59,1.67 -2.35,3.21 0.24,1.54 1.67,2.59 3.21,2.35 7.57,-1.16 15.02,-2.7 22.33,-4.6 1.5,-0.39 2.41,-1.93 2.02,-3.43 -0.39,-1.5 -1.93,-2.41 -3.43,-2.02z"/>
   <path class="fil0" d="M248.89 85.74c-0,0.93 -0.37,1.69 -1.07,2.3 -1.8,1.57 -3.59,3.16 -5.41,4.72 -0.63,0.54 -0.83,1.13 -0.61,1.95 0.64,2.32 1.23,4.66 1.84,6.99 0.32,1.23 -0.09,2.41 -1.09,3.16 -1.01,0.76 -2.25,0.82 -3.36,0.16 -2.32,-1.38 -4.64,-2.76 -6.96,-4.16 -0.19,-0.12 -0.32,-0.11 -0.51,0.01 -2.27,1.47 -4.54,2.93 -6.82,4.38 -1.69,1.08 -3.9,0.3 -4.49,-1.59 -0.18,-0.56 -0.17,-1.13 -0.03,-1.69 0.54,-2.36 1.07,-4.72 1.61,-7.07 0.16,-0.7 -0.03,-1.25 -0.59,-1.71 -1.88,-1.52 -3.75,-3.06 -5.63,-4.59 -0.95,-0.78 -1.36,-1.79 -1.1,-3 0.26,-1.19 1,-2 2.2,-2.27 0.72,-0.16 1.47,-0.18 2.21,-0.25 1.92,-0.18 3.84,-0.34 5.77,-0.52 0.63,-0.06 1.03,-0.45 1.25,-1.03 0.89,-2.29 1.78,-4.58 2.68,-6.87 0.7,-1.78 2.79,-2.48 4.4,-1.47 0.53,0.33 0.9,0.79 1.15,1.36 0.96,2.24 1.93,4.48 2.88,6.73 0.29,0.68 0.76,1.04 1.51,1.08 2.12,0.11 4.23,0.24 6.35,0.36 0.48,0.03 0.97,0.03 1.44,0.13 1.4,0.28 2.36,1.47 2.38,2.9z"/>
   <path class="fil0" d="M258.8 51.55c0.2,0.61 0.12,1.18 -0.2,1.73 -0.84,1.41 -1.67,2.83 -2.52,4.23 -0.3,0.49 -0.3,0.92 0.02,1.4 0.91,1.38 1.8,2.77 2.7,4.16 0.47,0.73 0.46,1.59 -0.03,2.29 -0.49,0.71 -1.29,1.02 -2.16,0.83 -1.81,-0.4 -3.62,-0.81 -5.43,-1.22l-0.33 0.12c-1.17,1.44 -2.33,2.88 -3.51,4.32 -0.87,1.07 -2.48,1.03 -3.27,-0.07 -0.23,-0.33 -0.35,-0.7 -0.38,-1.1 -0.15,-1.65 -0.31,-3.3 -0.46,-4.96 -0.04,-0.5 -0.29,-0.81 -0.75,-0.99 -1.55,-0.59 -3.1,-1.19 -4.65,-1.79 -0.79,-0.31 -1.27,-0.87 -1.36,-1.72 -0.08,-0.83 0.22,-1.52 0.95,-1.95 0.43,-0.26 0.92,-0.43 1.39,-0.64 1.21,-0.53 2.43,-1.04 3.65,-1.58 0.4,-0.17 0.57,-0.51 0.6,-0.94 0.09,-1.68 0.18,-3.37 0.27,-5.05 0.08,-1.31 1.29,-2.21 2.55,-1.9 0.42,0.1 0.76,0.33 1.04,0.64 1.11,1.25 2.22,2.51 3.32,3.77 0.34,0.38 0.72,0.52 1.21,0.38 1.4,-0.38 2.81,-0.75 4.22,-1.12 0.32,-0.08 0.64,-0.19 0.97,-0.23 0.97,-0.12 1.86,0.46 2.18,1.38z"/>
  </g>
 </g>
</svg>
