<?xml version="1.0" encoding="UTF-8"?>
<!DOCTYPE svg PUBLIC "-//W3C//DTD SVG 1.1//EN" "http://www.w3.org/Graphics/SVG/1.1/DTD/svg11.dtd">
<!-- Creator: CorelDRAW -->
<svg xmlns="http://www.w3.org/2000/svg" xml:space="preserve" width="12.669mm" height="16.802mm" version="1.1" style="shape-rendering:geometricPrecision; text-rendering:geometricPrecision; image-rendering:optimizeQuality; fill-rule:evenodd; clip-rule:evenodd"
viewBox="0 0 66.13 87.71"
 xmlns:xlink="http://www.w3.org/1999/xlink"
 xmlns:xodm="http://www.corel.com/coreldraw/odm/2003">
 <defs>
  <style type="text/css">
   <![CDATA[
    .fil0 {fill:#8B78B5;fill-rule:nonzero}
   ]]>
  </style>
 </defs>
 <g id="Layer_x0020_1">
  <metadata id="CorelCorpID_0Corel-Layer"/>
  <g id="_2039837556880">
   <path class="fil0" d="M50.91 58.01c0,1.38 -0.54,2.51 -1.58,3.42 -2.68,2.33 -5.33,4.69 -8.03,7 -0.94,0.8 -1.23,1.68 -0.9,2.89 0.95,3.45 1.83,6.91 2.73,10.37 0.48,1.83 -0.13,3.58 -1.61,4.69 -1.49,1.12 -3.35,1.22 -4.99,0.24 -3.45,-2.05 -6.9,-4.1 -10.33,-6.17 -0.29,-0.17 -0.48,-0.16 -0.75,0.02 -3.37,2.18 -6.74,4.35 -10.13,6.51 -2.51,1.6 -5.78,0.44 -6.67,-2.36 -0.26,-0.83 -0.24,-1.67 -0.05,-2.52 0.8,-3.5 1.59,-7 2.4,-10.5 0.24,-1.04 -0.05,-1.86 -0.88,-2.53 -2.79,-2.26 -5.57,-4.54 -8.36,-6.82 -1.42,-1.16 -2.03,-2.65 -1.63,-4.45 0.39,-1.77 1.48,-2.97 3.26,-3.37 1.07,-0.24 2.19,-0.27 3.29,-0.37 2.85,-0.26 5.71,-0.51 8.56,-0.78 0.94,-0.09 1.52,-0.67 1.86,-1.53 1.32,-3.4 2.64,-6.81 3.98,-10.21 1.04,-2.65 4.15,-3.68 6.53,-2.18 0.78,0.49 1.34,1.18 1.7,2.02 1.43,3.33 2.86,6.65 4.27,9.99 0.43,1.02 1.13,1.55 2.24,1.6 3.14,0.16 6.29,0.35 9.43,0.54 0.71,0.04 1.44,0.05 2.14,0.18 2.08,0.41 3.51,2.19 3.54,4.31z"/>
   <path class="fil0" d="M65.62 7.26c0.29,0.9 0.18,1.75 -0.3,2.57 -1.24,2.1 -2.47,4.2 -3.74,6.28 -0.44,0.73 -0.44,1.36 0.03,2.08 1.36,2.05 2.67,4.12 4,6.18 0.7,1.09 0.68,2.36 -0.05,3.4 -0.73,1.05 -1.92,1.51 -3.2,1.23 -2.69,-0.6 -5.38,-1.2 -8.06,-1.81 -0.22,-0.05 -0.34,0 -0.49,0.17 -1.73,2.14 -3.47,4.28 -5.21,6.41 -1.3,1.58 -3.68,1.52 -4.85,-0.11 -0.35,-0.49 -0.52,-1.04 -0.57,-1.63 -0.23,-2.45 -0.46,-4.91 -0.69,-7.36 -0.07,-0.73 -0.43,-1.2 -1.12,-1.46 -2.31,-0.88 -4.61,-1.77 -6.91,-2.66 -1.17,-0.45 -1.89,-1.29 -2.02,-2.55 -0.13,-1.24 0.33,-2.25 1.4,-2.89 0.65,-0.38 1.37,-0.64 2.06,-0.95 1.8,-0.78 3.61,-1.55 5.41,-2.34 0.6,-0.26 0.85,-0.76 0.88,-1.4 0.13,-2.5 0.26,-5 0.41,-7.51 0.11,-1.95 1.92,-3.28 3.79,-2.82 0.61,0.15 1.12,0.48 1.54,0.95 1.64,1.87 3.29,3.73 4.93,5.6 0.5,0.57 1.06,0.77 1.81,0.57 2.08,-0.57 4.17,-1.12 6.26,-1.67 0.48,-0.13 0.95,-0.28 1.43,-0.34 1.45,-0.17 2.76,0.67 3.23,2.05z"/>
  </g>
 </g>
</svg>
