<?xml version="1.0" encoding="UTF-8"?>
<!DOCTYPE svg PUBLIC "-//W3C//DTD SVG 1.1//EN" "http://www.w3.org/Graphics/SVG/1.1/DTD/svg11.dtd">
<!-- Creator: CorelDRAW -->
<svg xmlns="http://www.w3.org/2000/svg" xml:space="preserve" width="31.2262mm" height="45.3366mm" version="1.1" style="shape-rendering:geometricPrecision; text-rendering:geometricPrecision; image-rendering:optimizeQuality; fill-rule:evenodd; clip-rule:evenodd"
viewBox="0 0 132.78 192.77"
 xmlns:xlink="http://www.w3.org/1999/xlink"
 xmlns:xodm="http://www.corel.com/coreldraw/odm/2003">
 <defs>
  <style type="text/css">
   <![CDATA[
    .fil1 {fill:#FEFEFE;fill-rule:nonzero}
    .fil0 {fill:#8B78B5;fill-rule:nonzero}
   ]]>
  </style>
 </defs>
 <g id="Layer_x0020_1">
  <metadata id="CorelCorpID_0Corel-Layer"/>
  <g id="_2003667765600">
   <path class="fil0" d="M11.15 0c-6.16,0 -11.15,4.99 -11.15,11.15l0 168.98c0,10.82 12.73,16.62 20.89,9.52l42.78 -37.2c1.55,-1.35 3.87,-1.35 5.42,0l42.37 36.84c8.33,7.24 21.31,1.33 21.31,-9.71l0 -168.43c0,-6.16 -4.99,-11.15 -11.15,-11.15l-110.48 0z"/>
   <path class="fil1" d="M107.66 60.21c-0.04,2.24 -0.95,4.06 -2.66,5.5 -4.4,3.72 -8.78,7.47 -13.21,11.14 -1.54,1.28 -2.05,2.7 -1.54,4.66 1.44,5.62 2.79,11.26 4.15,16.9 0.72,2.98 -0.31,5.81 -2.74,7.57 -2.45,1.78 -5.46,1.89 -8.11,0.26 -5.54,-3.42 -11.08,-6.84 -16.6,-10.28 -0.46,-0.29 -0.77,-0.27 -1.22,0.01 -5.52,3.44 -11.06,6.87 -16.6,10.28 -4.12,2.53 -9.39,0.55 -10.76,-4 -0.41,-1.36 -0.35,-2.71 -0.01,-4.08 1.39,-5.66 2.76,-11.32 4.17,-16.97 0.42,-1.69 -0.03,-3.02 -1.36,-4.13 -4.47,-3.75 -8.92,-7.52 -13.38,-11.29 -2.27,-1.92 -3.21,-4.35 -2.53,-7.26 0.67,-2.86 2.48,-4.78 5.38,-5.38 1.74,-0.36 3.56,-0.38 5.34,-0.52 4.63,-0.35 9.27,-0.67 13.9,-1.04 1.53,-0.12 2.49,-1.04 3.06,-2.43 2.23,-5.49 4.46,-10.97 6.72,-16.45 1.76,-4.27 6.83,-5.85 10.65,-3.36 1.26,0.82 2.14,1.95 2.71,3.33 2.23,5.44 4.47,10.87 6.67,16.32 0.67,1.66 1.79,2.54 3.6,2.66 5.1,0.34 10.19,0.74 15.28,1.12 1.16,0.09 2.33,0.11 3.46,0.36 3.36,0.72 5.63,3.64 5.63,7.08z"/>
  </g>
 </g>
</svg>
