<?xml version="1.0" encoding="UTF-8"?>
<!DOCTYPE svg PUBLIC "-//W3C//DTD SVG 1.1//EN" "http://www.w3.org/Graphics/SVG/1.1/DTD/svg11.dtd">
<!-- Creator: CorelDRAW -->
<svg xmlns="http://www.w3.org/2000/svg" xml:space="preserve" width="4.4942mm" height="4.4922mm" version="1.1" style="shape-rendering:geometricPrecision; text-rendering:geometricPrecision; image-rendering:optimizeQuality; fill-rule:evenodd; clip-rule:evenodd"
viewBox="0 0 10.28 10.27"
 xmlns:xlink="http://www.w3.org/1999/xlink"
 xmlns:xodm="http://www.corel.com/coreldraw/odm/2003">
 <defs>
  <style type="text/css">
   <![CDATA[
    .fil0 {fill:gray}
    .fil2 {fill:#FB74C7;fill-rule:nonzero;fill-opacity:0.219608}
    .fil3 {fill:url(#id0);fill-rule:nonzero}
    .fil1 {fill:url(#id1);fill-rule:nonzero}
   ]]>
  </style>
  <linearGradient id="id0" gradientUnits="userSpaceOnUse" x1="0" y1="5.14" x2="10.28" y2="5.14">
   <stop offset="0" style="stop-opacity:1; stop-color:#FFFBE8"/>
   <stop offset="0.341176" style="stop-opacity:1; stop-color:#FFFBE8"/>
   <stop offset="0.909804" style="stop-opacity:1; stop-color:#F1F1EF"/>
   <stop offset="1" style="stop-opacity:1; stop-color:#F1F1EF"/>
  </linearGradient>
  <linearGradient id="id1" gradientUnits="userSpaceOnUse" x1="6.1" y1="8.11" x2="4.72" y2="3.85">
   <stop offset="0" style="stop-opacity:1; stop-color:#E8F9FF"/>
   <stop offset="0.341176" style="stop-opacity:1; stop-color:#E8F9FF"/>
   <stop offset="0.909804" style="stop-opacity:1; stop-color:#EAEDF1"/>
   <stop offset="1" style="stop-opacity:1; stop-color:#EAEDF1"/>
  </linearGradient>
 </defs>
 <rect class="fil0" x="-98.11" y="-68.36" width="645.5" height="484.13"/>
 <g id="__x0023_Layer_x0020_1">
  <metadata id="CorelCorpID_0Corel-Layer"/>
  <g id="_2743826134480">
   <g>
    <path class="fil1" d="M10.28 5.14c-4.12,0.55 -4.58,1.01 -5.14,5.13 -0.55,-4.12 -1.01,-4.58 -5.14,-5.13 4.13,-0.56 4.59,-1.02 5.14,-5.14 0.56,4.12 1.02,4.58 5.14,5.14z"/>
   </g>
   <path class="fil2" d="M10.28 5.14c-4.12,0.55 -4.58,1.01 -5.14,5.13l0 -10.27c0.56,4.12 1.02,4.58 5.14,5.14z"/>
   <path class="fil2" d="M10.28 5.14c-4.12,0.55 -4.58,1.01 -5.14,5.13 -0.55,-4.12 -1.01,-4.58 -5.14,-5.13l10.28 0z"/>
   <g>
    <path class="fil3" d="M5.14 1.1c0.48,2.89 1.14,3.55 4.03,4.03 -2.89,0.48 -3.55,1.14 -4.03,4.03 -0.48,-2.89 -1.14,-3.55 -4.03,-4.03 2.89,-0.48 3.55,-1.14 4.03,-4.03zm0 -1.1l0 0c-0.56,4.12 -1.02,4.58 -5.14,5.14 4.12,0.56 4.58,1.02 5.14,5.14 0.56,-4.12 1.02,-4.58 5.14,-5.14 -4.12,-0.56 -4.58,-1.02 -5.14,-5.14z"/>
   </g>
  </g>
 </g>
</svg>
