<?xml version="1.0" encoding="UTF-8"?>
<!DOCTYPE svg PUBLIC "-//W3C//DTD SVG 1.1//EN" "http://www.w3.org/Graphics/SVG/1.1/DTD/svg11.dtd">
<!-- Creator: CorelDRAW -->
<svg xmlns="http://www.w3.org/2000/svg" xml:space="preserve" width="43.6366mm" height="34.5838mm" version="1.1" style="shape-rendering:geometricPrecision; text-rendering:geometricPrecision; image-rendering:optimizeQuality; fill-rule:evenodd; clip-rule:evenodd"
viewBox="0 0 269 213.19"
 xmlns:xlink="http://www.w3.org/1999/xlink"
 xmlns:xodm="http://www.corel.com/coreldraw/odm/2003">
 <defs>
  <style type="text/css">
   <![CDATA[
    .fil0 {fill:#8B78B5;fill-rule:nonzero}
   ]]>
  </style>
 </defs>
 <g id="Layer_x0020_1">
  <metadata id="CorelCorpID_0Corel-Layer"/>
  <g id="_2003883771728">
   <path class="fil0" d="M269 0l0 5.83c-3.5,0.02 -6.97,0.12 -10.44,0.3 -1.61,0.08 -2.98,-1.15 -3.07,-2.76 -0.07,-1.61 1.17,-2.98 2.76,-3.06 3.56,-0.18 7.13,-0.29 10.74,-0.31zm-224.91 210.56c0.78,-7.71 1.94,-15.31 3.44,-22.78 0.33,-1.58 -0.7,-3.12 -2.26,-3.44 -1.59,-0.32 -3.13,0.7 -3.46,2.28 -1.54,7.66 -2.72,15.45 -3.52,23.36 -0.15,1.6 1.02,3.03 2.63,3.19 1.59,0.16 3.02,-1.01 3.17,-2.61zm9.18 -45.09c2.31,-7.37 4.96,-14.59 7.98,-21.61 0.63,-1.48 -0.06,-3.19 -1.54,-3.83 -1.48,-0.63 -3.2,0.05 -3.83,1.53 -3.09,7.21 -5.83,14.61 -8.18,22.17 -0.48,1.54 0.37,3.17 1.91,3.65 1.54,0.48 3.17,-0.38 3.65,-1.92zm18.12 -42.31c3.72,-6.74 7.81,-13.27 12.18,-19.56 0.91,-1.32 0.59,-3.14 -0.74,-4.06 -1.33,-0.92 -3.13,-0.59 -4.05,0.73 -4.5,6.46 -8.68,13.15 -12.5,20.06 -0.78,1.41 -0.26,3.18 1.13,3.96 1.41,0.78 3.2,0.27 3.98,-1.14zm26.27 -37.79c5,-5.84 10.29,-11.42 15.85,-16.72 1.17,-1.11 1.22,-2.96 0.11,-4.12 -1.13,-1.17 -2.96,-1.21 -4.13,-0.1 -5.7,5.44 -11.13,11.16 -16.27,17.15 -1.04,1.22 -0.89,3.07 0.33,4.11 1.22,1.05 3.07,0.9 4.11,-0.32zm33.32 -31.76c6.05,-4.71 12.35,-9.12 18.88,-13.2 1.37,-0.86 1.78,-2.66 0.91,-4.02 -0.85,-1.36 -2.65,-1.78 -4,-0.92 -6.7,4.19 -13.16,8.71 -19.38,13.54 -1.26,0.99 -1.5,2.82 -0.5,4.09 0.98,1.27 2.81,1.5 4.09,0.51zm38.99 -24.43c6.87,-3.38 13.92,-6.44 21.16,-9.13 1.5,-0.56 2.26,-2.24 1.72,-3.75 -0.57,-1.51 -2.26,-2.28 -3.76,-1.72 -7.42,2.76 -14.66,5.89 -21.7,9.36 -1.44,0.71 -2.02,2.46 -1.33,3.91 0.72,1.44 2.48,2.04 3.91,1.32zm43.12 -16.05c7.37,-1.92 14.92,-3.47 22.55,-4.65 1.61,-0.24 2.7,-1.73 2.46,-3.33 -0.26,-1.59 -1.74,-2.68 -3.33,-2.44 -7.85,1.21 -15.57,2.8 -23.16,4.77 -1.54,0.4 -2.48,2 -2.09,3.56 0.41,1.56 2,2.49 3.57,2.09z"/>
   <path class="fil0" d="M35.52 143.27c0.02,0.96 -0.35,1.76 -1.07,2.4 -1.83,1.66 -3.65,3.34 -5.52,4.98 -0.63,0.57 -0.83,1.19 -0.59,2.03 0.7,2.4 1.35,4.81 2.02,7.21 0.35,1.27 -0.04,2.5 -1.07,3.29 -1.04,0.8 -2.33,0.89 -3.48,0.22 -2.44,-1.39 -4.87,-2.79 -7.29,-4.19 -0.22,-0.12 -0.35,-0.1 -0.52,0.02 -2.33,1.56 -4.68,3.11 -7,4.66 -1.74,1.15 -4.05,0.37 -4.68,-1.57 -0.2,-0.58 -0.2,-1.16 -0.07,-1.76 0.5,-2.45 1.02,-4.91 1.54,-7.36 0.15,-0.73 -0.04,-1.3 -0.65,-1.76 -1.96,-1.55 -3.94,-3.11 -5.89,-4.67 -1.02,-0.79 -1.46,-1.83 -1.2,-3.09 0.24,-1.24 1,-2.09 2.24,-2.39 0.74,-0.18 1.52,-0.21 2.28,-0.3 2,-0.22 3.98,-0.42 5.96,-0.64 0.67,-0.07 1.07,-0.48 1.28,-1.09 0.89,-2.39 1.76,-4.78 2.67,-7.17 0.7,-1.86 2.85,-2.61 4.52,-1.6 0.54,0.33 0.96,0.81 1.22,1.39 1.02,2.31 2.07,4.61 3.09,6.92 0.3,0.7 0.81,1.07 1.59,1.09 2.2,0.07 4.39,0.17 6.59,0.27 0.5,0.02 1,0.02 1.5,0.11 1.46,0.26 2.46,1.49 2.5,2.97z"/>
   <path class="fil0" d="M45.05 119.23c-0.3,0.59 -0.78,0.95 -1.44,1.11 -1.63,0.41 -3.28,0.83 -4.94,1.23 -0.59,0.14 -0.89,0.45 -1.02,1.04 -0.35,1.68 -0.74,3.35 -1.11,5.02 -0.2,0.88 -0.85,1.5 -1.72,1.65 -0.87,0.15 -1.7,-0.21 -2.17,-0.99 -1.02,-1.63 -2.04,-3.26 -3.07,-4.89l-0.3 -0.15c-1.91,0.19 -3.83,0.38 -5.74,0.56 -1.44,0.13 -2.57,-1.08 -2.35,-2.46 0.09,-0.41 0.28,-0.77 0.54,-1.08 1.11,-1.32 2.2,-2.64 3.31,-3.95 0.35,-0.39 0.39,-0.8 0.2,-1.27 -0.7,-1.58 -1.39,-3.16 -2.09,-4.74 -0.35,-0.81 -0.28,-1.57 0.28,-2.25 0.54,-0.67 1.28,-0.94 2.13,-0.72 0.5,0.13 1,0.37 1.48,0.56 1.28,0.51 2.54,1.03 3.83,1.54 0.41,0.17 0.78,0.05 1.13,-0.25 1.3,-1.16 2.61,-2.33 3.91,-3.48 1.02,-0.9 2.57,-0.66 3.26,0.5 0.22,0.38 0.3,0.79 0.28,1.23 -0.11,1.73 -0.24,3.46 -0.37,5.19 -0.02,0.53 0.15,0.9 0.61,1.17 1.31,0.75 2.61,1.52 3.91,2.29 0.28,0.17 0.59,0.33 0.87,0.55 0.78,0.63 1.02,1.7 0.57,2.61z"/>
  </g>
 </g>
</svg>
