<?xml version="1.0" encoding="UTF-8"?>
<!DOCTYPE svg PUBLIC "-//W3C//DTD SVG 1.1//EN" "http://www.w3.org/Graphics/SVG/1.1/DTD/svg11.dtd">
<!-- Creator: CorelDRAW -->
<svg xmlns="http://www.w3.org/2000/svg" xml:space="preserve" width="23.2551mm" height="28.0208mm" version="1.1" style="shape-rendering:geometricPrecision; text-rendering:geometricPrecision; image-rendering:optimizeQuality; fill-rule:evenodd; clip-rule:evenodd"
viewBox="0 0 64.89 78.19"
 xmlns:xlink="http://www.w3.org/1999/xlink"
 xmlns:xodm="http://www.corel.com/coreldraw/odm/2003">
 <defs>
  <style type="text/css">
   <![CDATA[
    .fil1 {fill:#FEFDFE;fill-rule:nonzero}
    .fil0 {fill:#2F4C74;fill-rule:nonzero}
   ]]>
  </style>
 </defs>
 <g id="Layer_x0020_1">
  <metadata id="CorelCorpID_0Corel-Layer"/>
  <g id="_2445230861456">
   <path class="fil0" d="M44.59 37.47c-0.76,0 -1.4,0.47 -1.65,1.14 -0.08,0.19 -0.12,0.41 -0.12,0.63l0 0.28c-0.03,2.75 -0.83,16.54 -13.57,16.54 -0.97,0 -1.77,0.79 -1.77,1.77 0,0.98 0.8,1.77 1.77,1.77 12.74,0 13.54,13.8 13.57,16.56l0 0.26c0,0.97 0.79,1.76 1.75,1.77l0.02 0c0.76,0 1.4,-0.47 1.65,-1.14 0.08,-0.2 0.12,-0.41 0.12,-0.63l0 -0.28c0.03,-2.75 0.83,-16.54 13.56,-16.54 0.97,0 1.77,-0.79 1.77,-1.77 0,-0.98 -0.8,-1.77 -1.77,-1.77 -12.74,0 -13.54,-13.8 -13.56,-16.56l0 -0.26c0,-0.97 -0.79,-1.76 -1.75,-1.77l-0.02 0zm0 1.77l0 0.28c0.03,2.31 0.73,18.31 15.34,18.31 -14.61,0 -15.31,16.01 -15.34,18.31l0 0.28 0 -0.04 0 0.04 0 -0.28c-0.03,-2.31 -0.73,-18.31 -15.34,-18.31 14.61,0 15.31,-16.01 15.34,-18.31l0 -0.28 0 0.04 0 -0.04z"/>
   <g>
    <path class="fil1" d="M22.24 54.12c-0.5,0 -0.94,-0.32 -1.09,-0.77 -0.04,-0.12 -0.06,-0.25 -0.06,-0.38l0 -0.36c-0.02,-1.59 -0.27,-7.23 -2.76,-12.54 -3.13,-6.71 -8.53,-10.12 -16.04,-10.12 -0.63,0 -1.15,-0.51 -1.15,-1.15 0,-0.64 0.52,-1.15 1.15,-1.15 7.51,0 12.91,-3.4 16.04,-10.12 2.49,-5.31 2.74,-10.95 2.76,-12.55l0 -0.35c0,-0.64 0.51,-1.15 1.15,-1.15 0.5,0 0.93,0.32 1.08,0.78 0.04,0.12 0.07,0.24 0.07,0.38l0 0.36c0.01,1.59 0.27,7.23 2.75,12.54 3.14,6.71 8.53,10.12 16.04,10.12 0.63,0 1.15,0.51 1.15,1.15 0,0.64 -0.52,1.15 -1.15,1.15 -7.5,0 -12.9,3.4 -16.04,10.12 -2.48,5.31 -2.74,10.95 -2.75,12.55l0 0.35c0,0.64 -0.52,1.15 -1.15,1.15z"/>
    <path class="fil0" d="M22.24 2.33l-0.02 0 0 0 0 0 -0.01 0c-1.26,0.01 -2.27,1.04 -2.27,2.3l0 0.36c-0.04,3.57 -1.07,21.51 -17.64,21.51 -1.27,0 -2.29,1.03 -2.29,2.3 0,1.27 1.02,2.3 2.29,2.3 16.57,0 17.6,17.94 17.64,21.53l0 0.34c0,1.26 1.01,2.29 2.27,2.3l0.01 0 0 0 0 0 0.02 0 0.02 0c1.26,-0.01 2.27,-1.04 2.27,-2.3l0 -0.36c0.04,-3.57 1.08,-21.51 17.64,-21.51 1.27,0 2.3,-1.03 2.3,-2.3 0,-1.27 -1.03,-2.3 -2.3,-2.3 -16.56,0 -17.6,-17.94 -17.64,-21.53l0 -0.34c0,-1.26 -1.01,-2.29 -2.27,-2.3l-0.02 0zm0 2.3l0 0.36c0.03,3 0.95,23.81 19.93,23.81 -18.99,0 -19.9,20.81 -19.93,23.81l0 0.36 0 -0.05 0 0.05 0 -0.36c-0.04,-3 -0.95,-23.81 -19.94,-23.81 19,0 19.9,-20.81 19.94,-23.81l0 -0.36 0 0.05 0 -0.05z"/>
    <path class="fil1" d="M52.06 29.88c-0.27,0 -0.5,-0.17 -0.6,-0.4 -0.04,-0.08 -0.06,-0.17 -0.06,-0.26l0 -0.21c-0.01,-0.92 -0.16,-4.17 -1.58,-7.24 -1.81,-3.87 -4.92,-5.84 -9.25,-5.84 -0.36,0 -0.66,-0.3 -0.66,-0.66 0,-0.37 0.3,-0.66 0.66,-0.66 4.33,0 7.44,-1.96 9.25,-5.84 1.43,-3.06 1.57,-6.32 1.58,-7.24l0 -0.2c0,-0.37 0.3,-0.66 0.66,-0.66 0.28,0 0.51,0.17 0.62,0.41 0.03,0.08 0.05,0.17 0.05,0.26l0 0.21c0.01,0.92 0.16,4.17 1.58,7.24 1.81,3.87 4.92,5.84 9.25,5.84 0.36,0 0.66,0.3 0.66,0.66 0,0.37 -0.3,0.66 -0.66,0.66 -4.33,0 -7.44,1.96 -9.25,5.84 -1.43,3.06 -1.58,6.32 -1.58,7.24l0 0.2c0,0.37 -0.3,0.66 -0.67,0.66z"/>
    <path class="fil0" d="M52.06 0c-0.56,0 -1.04,0.35 -1.23,0.85 -0.06,0.15 -0.09,0.31 -0.09,0.48l0 0.21c-0.03,2.06 -0.62,12.41 -10.18,12.41 -0.73,0 -1.33,0.59 -1.33,1.33 0,0.73 0.6,1.33 1.33,1.33 9.56,0 10.15,10.35 10.18,12.42l0 0.19c0,0.73 0.58,1.32 1.31,1.33l0.01 0c0.57,0 1.05,-0.35 1.24,-0.85 0.06,-0.15 0.09,-0.3 0.09,-0.47l0 -0.21c0.03,-2.06 0.62,-12.41 10.18,-12.41 0.73,0 1.33,-0.59 1.33,-1.33 0,-0.73 -0.6,-1.33 -1.33,-1.33 -9.56,0 -10.15,-10.35 -10.18,-12.42l0 -0.19c0,-0.73 -0.59,-1.32 -1.32,-1.33l-0.01 0zm0 1.33l0 0.21c0.02,1.73 0.55,13.73 11.51,13.73 -10.96,0 -11.49,12 -11.51,13.73l0 0.21 0 -0.03 0 0.03 0 -0.21c-0.02,-1.73 -0.54,-13.73 -11.5,-13.73 10.96,0 11.48,-12 11.5,-13.73l0 -0.21 0 0.03 0 -0.03z"/>
   </g>
  </g>
 </g>
</svg>
