<?xml version="1.0" encoding="UTF-8"?>
<!DOCTYPE svg PUBLIC "-//W3C//DTD SVG 1.1//EN" "http://www.w3.org/Graphics/SVG/1.1/DTD/svg11.dtd">
<!-- Creator: CorelDRAW -->
<svg xmlns="http://www.w3.org/2000/svg" xml:space="preserve" width="23.7183mm" height="27.0517mm" version="1.1" style="shape-rendering:geometricPrecision; text-rendering:geometricPrecision; image-rendering:optimizeQuality; fill-rule:evenodd; clip-rule:evenodd"
viewBox="0 0 102.46 116.86"
 xmlns:xlink="http://www.w3.org/1999/xlink"
 xmlns:xodm="http://www.corel.com/coreldraw/odm/2003">
 <defs>
  <style type="text/css">
   <![CDATA[
    .fil0 {fill:#FEFDFE;fill-rule:nonzero}
    .fil1 {fill:#2F4C74;fill-rule:nonzero}
   ]]>
  </style>
 </defs>
 <g id="Layer_x0020_1">
  <metadata id="CorelCorpID_0Corel-Layer"/>
  <g id="_2445230871392">
   <path class="fil0" d="M34.43 80.18c-0.75,0 -1.4,-0.47 -1.66,-1.13 -0.08,-0.2 -0.12,-0.42 -0.12,-0.65l0 -0.56c-0.03,-2.46 -0.42,-11.19 -4.26,-19.42 -4.86,-10.39 -13.21,-15.66 -24.82,-15.66 -0.98,0 -1.78,-0.8 -1.78,-1.78 0,-0.98 0.8,-1.78 1.78,-1.78 11.62,0 19.97,-5.27 24.82,-15.66 3.84,-8.22 4.23,-16.96 4.26,-19.43l0 -0.54c0,-0.98 0.8,-1.78 1.78,-1.78l0 0c0.75,0 1.4,0.47 1.66,1.13 0.08,0.2 0.13,0.42 0.13,0.65l0 0.56c0.03,2.46 0.42,11.19 4.26,19.41 4.86,10.39 13.21,15.66 24.83,15.66 0.98,0 1.78,0.8 1.78,1.78 0,0.98 -0.8,1.78 -1.78,1.78 -11.62,0 -19.97,5.27 -24.83,15.66 -3.84,8.22 -4.23,16.96 -4.26,19.44l0 0.54c0,0.98 -0.8,1.78 -1.78,1.78l-0 0z"/>
   <path class="fil1" d="M34.43 0l0 0 -0.03 0c-1.96,0.02 -3.53,1.61 -3.53,3.56l0 0.56c-0.06,5.53 -1.66,33.29 -27.3,33.29 -1.97,0 -3.56,1.6 -3.56,3.56 0,1.97 1.59,3.56 3.56,3.56 25.64,0 27.24,27.77 27.3,33.33l0 0.52c0,1.96 1.58,3.55 3.53,3.56l0.02 0 0 0 0 0 0 0 0 0 0 0 0.03 -0c1.96,-0.02 3.53,-1.61 3.53,-3.56l0 -0.56c0.06,-5.53 1.66,-33.29 27.3,-33.29 1.97,0 3.56,-1.6 3.56,-3.56 0,-1.97 -1.59,-3.56 -3.56,-3.56 -25.64,0 -27.24,-27.77 -27.3,-33.33l0 -0.52c0,-1.96 -1.58,-3.54 -3.53,-3.56l-0.03 0zm0 3.56l0 0.56c0.05,4.64 1.46,36.86 30.86,36.86 -29.4,0 -30.81,32.21 -30.86,36.86l0 0.56 0 -0.07 -0 0.07 0 -0.56c-0.05,-4.64 -1.46,-36.86 -30.86,-36.86 29.4,0 30.81,-32.21 30.86,-36.86l0 -0.56 0 0.07 0 -0.07z"/>
   <path class="fil0" d="M75.98 94.88c-0.58,0 -1.08,-0.36 -1.28,-0.88 -0.06,-0.15 -0.09,-0.32 -0.09,-0.49l0 -0.43c-0.02,-1.89 -0.32,-8.61 -3.27,-14.93 -3.74,-7.99 -10.16,-12.05 -19.09,-12.05 -0.76,0 -1.37,-0.61 -1.37,-1.37 0,-0.76 0.61,-1.37 1.37,-1.37 8.93,0 15.36,-4.05 19.09,-12.05 2.95,-6.33 3.25,-13.04 3.27,-14.95l0 -0.42c0,-0.76 0.61,-1.37 1.37,-1.37l0 0c0.55,0 1.02,0.32 1.24,0.78 0.09,0.18 0.13,0.37 0.13,0.59l0 0.43c0.02,1.89 0.32,8.61 3.27,14.94 3.73,7.99 10.16,12.05 19.09,12.05 0.76,0 1.37,0.61 1.37,1.37 0,0.76 -0.61,1.37 -1.37,1.37 -8.94,0 -15.36,4.05 -19.09,12.05 -2.96,6.33 -3.25,13.04 -3.27,14.95l0 0.42c0,0.75 -0.6,1.36 -1.35,1.37l-0.02 0z"/>
   <path class="fil1" d="M75.98 33.2c-1.17,0 -2.17,0.73 -2.56,1.76 -0.12,0.3 -0.18,0.63 -0.18,0.98l0 0.43c-0.05,4.25 -1.28,25.61 -21,25.61 -1.51,0 -2.74,1.23 -2.74,2.74 0,1.51 1.23,2.74 2.74,2.74 19.72,0 20.95,21.36 21,25.64l0 0.4c0,1.5 1.21,2.73 2.72,2.74l0.02 0c1.16,0 2.16,-0.73 2.56,-1.76 0.12,-0.3 0.18,-0.63 0.18,-0.98l0 -0.43c0.05,-4.25 1.28,-25.61 21,-25.61 1.51,0 2.74,-1.23 2.74,-2.74 0,-1.51 -1.23,-2.74 -2.74,-2.74 -19.72,0 -20.95,-21.36 -21,-25.64l0 -0.4c0,-1.5 -1.21,-2.73 -2.72,-2.74l-0.02 0zm0 2.74l0 0.43c0.04,3.57 1.12,28.35 23.74,28.35 -22.62,0 -23.7,24.78 -23.74,28.35l0 0.43 -0 -0.06 0 0.06 0 -0.43c-0.04,-3.57 -1.13,-28.35 -23.74,-28.35 22.61,0 23.7,-24.78 23.74,-28.35l0 -0.43 0 0.06 0 -0.06z"/>
   <path class="fil0" d="M21.36 115.81c-0.57,0 -1.03,-0.44 -1.03,-1.01l0 -0.32c-0.02,-1.42 -0.24,-6.46 -2.46,-11.2 -2.8,-6 -7.62,-9.03 -14.32,-9.03 -0.57,0 -1.03,-0.46 -1.03,-1.03 0,-0.57 0.46,-1.03 1.03,-1.03 6.7,0 11.52,-3.04 14.32,-9.03 2.22,-4.75 2.44,-9.78 2.46,-11.21l0 -0.31c0,-0.5 0.36,-0.92 0.84,-1.01l0 0 0.19 -0.02c0.57,0 1.03,0.46 1.03,1.03l0 0.32c0.02,1.42 0.24,6.46 2.46,11.2 2.8,5.99 7.62,9.03 14.32,9.03 0.57,0 1.03,0.46 1.03,1.03 0,0.57 -0.46,1.03 -1.03,1.03 -6.7,0 -11.52,3.04 -14.32,9.03 -2.22,4.74 -2.44,9.78 -2.46,11.21l0 0.28c-0.01,0.56 -0.46,1.04 -1.03,1.04z"/>
   <path class="fil1" d="M21.36 69.58c-0.87,0 -1.62,0.55 -1.92,1.32 -0.09,0.23 -0.14,0.47 -0.14,0.73l0 0.32c-0.03,3.19 -0.96,19.21 -15.75,19.21 -1.14,0 -2.06,0.92 -2.06,2.06 0,1.13 0.92,2.05 2.06,2.05 14.79,0 15.71,16.02 15.75,19.23l0 0.3c0,1.13 0.91,2.04 2.04,2.05l0.02 0c0.87,0 1.62,-0.55 1.92,-1.32 0.09,-0.23 0.14,-0.48 0.14,-0.74l0 -0.32c0.04,-3.19 0.96,-19.21 15.75,-19.21 1.14,0 2.05,-0.92 2.05,-2.05 0,-1.14 -0.92,-2.06 -2.05,-2.06 -14.79,0 -15.71,-16.02 -15.75,-19.23l0 -0.3c0,-1.13 -0.91,-2.05 -2.04,-2.06l-0.02 0zm0 2.06l0 0.32c0.03,2.68 0.84,21.26 17.8,21.26 -16.96,0 -17.77,18.58 -17.8,21.26l0 0.32 0 -0.04 -0 0.04 0 -0.32c-0.03,-2.68 -0.84,-21.26 -17.8,-21.26 16.96,0 17.77,-18.58 17.8,-21.26l-0 -0.32 0 0.04 0 -0.04z"/>
  </g>
 </g>
</svg>
