<?xml version="1.0" encoding="UTF-8"?>
<!DOCTYPE svg PUBLIC "-//W3C//DTD SVG 1.1//EN" "http://www.w3.org/Graphics/SVG/1.1/DTD/svg11.dtd">
<!-- Creator: CorelDRAW -->
<svg xmlns="http://www.w3.org/2000/svg" xml:space="preserve" width="21.6217mm" height="22.4589mm" version="1.1" style="shape-rendering:geometricPrecision; text-rendering:geometricPrecision; image-rendering:optimizeQuality; fill-rule:evenodd; clip-rule:evenodd"
viewBox="0 0 49.3 51.21"
 xmlns:xlink="http://www.w3.org/1999/xlink"
 xmlns:xodm="http://www.corel.com/coreldraw/odm/2003">
 <defs>
  <style type="text/css">
   <![CDATA[
    .fil2 {fill:#FEFEFE;fill-rule:nonzero}
    .fil0 {fill:#EA685F;fill-rule:nonzero}
    .fil1 {fill:#2F4C74;fill-rule:nonzero}
   ]]>
  </style>
 </defs>
 <g id="Layer_x0020_1">
  <metadata id="CorelCorpID_0Corel-Layer"/>
  <g id="_2445230863040">
   <path class="fil0" d="M13.17 50.21c0.03,-0.72 0.06,-1.45 0.11,-2.18l0.06 -1.06c0.24,-4.1 0.47,-8.21 0.73,-12.31 0.04,-0.64 -0.19,-1.11 -0.73,-1.54 -3.52,-2.72 -7.02,-5.45 -10.53,-8.19l-1.83 -1.43c1.51,-0.4 9.41,-2.45 9.41,-2.45 1.93,-0.5 3.93,-1.02 5.88,-1.57 0.47,-0.13 0.94,-0.58 1.11,-1.05 1.42,-3.88 2.82,-7.76 4.22,-11.65l1.13 -3.16 1.28 1.99c2.37,3.69 4.74,7.38 7.08,11.09 0.43,0.68 0.99,1 1.8,1.02 3.19,0.08 6.38,0.17 9.56,0.27 1.97,0.06 3.94,0.13 5.91,0.2l-1.52 1.86c-2.78,3.4 -5.56,6.8 -8.35,10.18 -0.49,0.59 -0.6,1.16 -0.39,1.91 0.9,3.07 1.78,6.15 2.66,9.22l1.16 4.04c0.07,0.25 0.15,0.49 0.23,0.73 0.08,0.25 0.16,0.51 0.23,0.76l0.04 0.17 -0.17 -0.07c-0.72,-0.28 -1.39,-0.53 -2.06,-0.8l-2.28 -0.89c-3.36,-1.31 -6.72,-2.62 -10.07,-3.94 -0.26,-0.1 -0.5,-0.15 -0.72,-0.15 -0.35,0 -0.67,0.11 -1.01,0.35 -3.55,2.43 -7.11,4.84 -10.68,7.25l-2.28 1.54 0.01 -0.16z"/>
   <path class="fil1" d="M22.6 2.62c-0.13,0.3 -0.23,0.48 -0.29,0.66 -1.8,4.99 -3.6,9.99 -5.42,14.98 -0.1,0.3 -0.46,0.64 -0.76,0.73 -2.28,0.64 -4.57,1.23 -6.86,1.83 -2.98,0.78 -5.95,1.54 -8.93,2.32 -0.1,0.02 -0.17,0.12 -0.33,0.24 0.25,0.21 0.44,0.39 0.65,0.55 4.12,3.21 8.24,6.42 12.36,9.61 0.38,0.29 0.56,0.6 0.53,1.09 -0.27,4.46 -0.53,8.91 -0.79,13.37 -0.06,1.04 -0.1,2.08 -0.16,3.11l0.19 0.09c0.25,-0.15 0.5,-0.3 0.73,-0.46 4.3,-2.91 8.61,-5.82 12.89,-8.75 0.26,-0.17 0.47,-0.25 0.72,-0.25 0.17,0 0.34,0.04 0.53,0.12 4.12,1.62 8.24,3.22 12.36,4.83 0.99,0.39 1.98,0.76 3.12,1.21 -0.1,-0.5 -0.14,-0.82 -0.23,-1.14 -0.14,-0.5 -0.32,-1 -0.47,-1.5 -1.27,-4.42 -2.53,-8.85 -3.83,-13.26 -0.16,-0.57 -0.09,-0.97 0.29,-1.43 3.31,-4.01 6.6,-8.03 9.89,-12.06 0.16,-0.2 0.31,-0.42 0.51,-0.71 -0.26,-0.06 -0.4,-0.12 -0.55,-0.12 -2.1,-0.07 -4.19,-0.15 -6.28,-0.21 -3.19,-0.09 -6.38,-0.19 -9.56,-0.27 -0.61,-0.02 -1.01,-0.21 -1.38,-0.78 -2.81,-4.45 -5.66,-8.88 -8.5,-13.3 -0.1,-0.16 -0.24,-0.29 -0.43,-0.5zm0.27 2.19l0.79 1.22c2.3,3.58 4.68,7.29 6.99,10.95 0.53,0.84 1.24,1.24 2.24,1.26 3.19,0.08 6.37,0.17 9.56,0.27 1.62,0.05 3.24,0.1 4.86,0.16l-0.86 1.05c-2.74,3.34 -5.55,6.79 -8.35,10.17 -0.6,0.72 -0.75,1.48 -0.48,2.39 0.92,3.12 1.81,6.24 2.71,9.36l1.12 3.89c0.06,0.22 0.13,0.43 0.2,0.65 -0.43,-0.16 -0.83,-0.32 -1.24,-0.48l-2.35 -0.92c-3.34,-1.3 -6.67,-2.6 -10,-3.91 -0.32,-0.13 -0.62,-0.19 -0.92,-0.19 -0.45,0 -0.88,0.14 -1.3,0.44 -3.56,2.43 -7.2,4.89 -10.71,7.27l-1.39 0.94c0.02,-0.43 0.04,-0.85 0.07,-1.28l0.04 -0.76c0.24,-4.2 0.49,-8.41 0.75,-12.61 0.05,-0.81 -0.26,-1.46 -0.93,-1.98 -3.63,-2.81 -7.24,-5.62 -10.85,-8.44l-0.68 -0.53c1.11,-0.29 2.22,-0.58 3.34,-0.87 1.35,-0.35 2.7,-0.7 4.05,-1.05l1.02 -0.26c1.92,-0.5 3.92,-1.02 5.87,-1.57 0.62,-0.18 1.23,-0.75 1.46,-1.38 1.42,-3.87 2.83,-7.8 4.21,-11.61l0.79 -2.2z"/>
   <path class="fil2" d="M13.85 45.45l0.06 -1.02c0.24,-4.11 0.47,-8.23 0.73,-12.34 0.05,-0.83 -0.26,-1.49 -0.95,-2.02 -3.59,-2.78 -7.16,-5.56 -10.74,-8.35l-0.72 -0.56c1.08,-0.28 8.33,-2.17 8.33,-2.17 1.92,-0.5 3.9,-1.01 5.85,-1.56 0.64,-0.18 1.26,-0.77 1.5,-1.41 1.42,-3.88 2.82,-7.76 4.22,-11.65l0.75 -2.06 0.68 1.07c2.36,3.67 4.71,7.34 7.04,11.02 0.54,0.85 1.26,1.26 2.28,1.29 3.19,0.08 6.37,0.17 9.56,0.27 1.58,0.05 3.17,0.1 4.75,0.16l-0.93 1.13c-2.74,3.34 -5.47,6.69 -8.21,10.02 -0.61,0.74 -0.76,1.51 -0.5,2.43 0.9,3.06 1.78,6.13 2.66,9.2l1.17 4.06c0.05,0.18 0.11,0.37 0.17,0.55 -0.39,-0.15 -3.37,-1.31 -3.37,-1.31 -3.37,-1.31 -6.75,-2.63 -10.11,-3.96 -0.33,-0.13 -0.64,-0.19 -0.94,-0.19 -0.46,0 -0.89,0.15 -1.34,0.45 -3.5,2.39 -7.01,4.76 -10.51,7.14l-1.5 1.02c0.02,-0.39 0.04,-0.79 0.06,-1.18z"/>
   <path class="fil1" d="M22.6 0c-0.13,0.3 -0.23,0.48 -0.29,0.66 -1.8,4.99 -3.6,9.99 -5.42,14.98 -0.1,0.3 -0.46,0.64 -0.76,0.73 -2.28,0.64 -4.57,1.23 -6.86,1.83 -2.98,0.78 -5.95,1.54 -8.93,2.32 -0.1,0.02 -0.17,0.12 -0.33,0.24 0.25,0.21 0.44,0.39 0.65,0.55 4.12,3.21 8.24,6.42 12.36,9.61 0.38,0.29 0.56,0.6 0.53,1.09 -0.27,4.46 -0.53,8.91 -0.79,13.37 -0.06,1.04 -0.1,2.08 -0.16,3.11l0.19 0.09c0.25,-0.15 0.5,-0.3 0.73,-0.46 4.3,-2.91 8.61,-5.82 12.89,-8.75 0.26,-0.17 0.47,-0.26 0.72,-0.26 0.17,0 0.34,0.04 0.53,0.12 4.12,1.62 8.24,3.22 12.36,4.83 0.99,0.38 1.98,0.76 3.12,1.21 -0.1,-0.5 -0.14,-0.82 -0.23,-1.14 -0.14,-0.5 -0.32,-1 -0.47,-1.5 -1.27,-4.42 -2.53,-8.85 -3.83,-13.26 -0.16,-0.57 -0.09,-0.97 0.29,-1.43 3.31,-4.01 6.6,-8.03 9.89,-12.06 0.16,-0.2 0.31,-0.42 0.51,-0.71 -0.26,-0.06 -0.4,-0.11 -0.55,-0.12 -2.1,-0.07 -4.19,-0.15 -6.28,-0.21 -3.19,-0.1 -6.38,-0.19 -9.56,-0.27 -0.61,-0.02 -1.01,-0.21 -1.38,-0.78 -2.81,-4.45 -5.66,-8.88 -8.5,-13.3 -0.1,-0.16 -0.24,-0.29 -0.43,-0.5zm0.56 4.77c2.16,3.35 4.37,6.8 6.52,10.21 0.73,1.16 1.79,1.76 3.17,1.8 3.19,0.08 6.37,0.17 9.56,0.27 0.84,0.03 1.69,0.05 2.53,0.08 -2.53,3.11 -5.15,6.3 -7.73,9.43 -0.84,1.01 -1.08,2.17 -0.7,3.44 0.91,3.12 1.8,6.24 2.7,9.36l0.66 2.31 -1.42 -0.56c-3.32,-1.3 -6.65,-2.59 -9.97,-3.91 -0.47,-0.18 -0.9,-0.27 -1.34,-0.27 -0.68,0 -1.34,0.21 -1.95,0.64 -3.38,2.31 -6.83,4.64 -10.18,6.91 0.24,-4.11 0.48,-8.22 0.73,-12.33 0.06,-0.82 -0.14,-2.01 -1.38,-2.96 -3.23,-2.51 -6.46,-5.02 -9.69,-7.53 0.36,-0.09 0.72,-0.19 1.09,-0.28 1.34,-0.35 2.69,-0.7 4.05,-1.05l1.01 -0.26c1.94,-0.5 3.93,-1.02 5.9,-1.58 0.98,-0.28 1.87,-1.11 2.23,-2.09 1.42,-3.87 2.84,-7.8 4.21,-11.61l0.01 -0.02z"/>
  </g>
 </g>
</svg>
