<?xml version="1.0" encoding="UTF-8"?>
<!DOCTYPE svg PUBLIC "-//W3C//DTD SVG 1.1//EN" "http://www.w3.org/Graphics/SVG/1.1/DTD/svg11.dtd">
<!-- Creator: CorelDRAW -->
<svg xmlns="http://www.w3.org/2000/svg" xml:space="preserve" width="35.5664mm" height="33.1976mm" version="1.1" style="shape-rendering:geometricPrecision; text-rendering:geometricPrecision; image-rendering:optimizeQuality; fill-rule:evenodd; clip-rule:evenodd"
viewBox="0 0 142.8 133.29"
 xmlns:xlink="http://www.w3.org/1999/xlink"
 xmlns:xodm="http://www.corel.com/coreldraw/odm/2003">
 <defs>
  <style type="text/css">
   <![CDATA[
    .fil2 {fill:#FEFEFE;fill-rule:nonzero}
    .fil1 {fill:#EA685F;fill-rule:nonzero}
    .fil0 {fill:#2F4C74;fill-rule:nonzero}
   ]]>
  </style>
 </defs>
 <g id="Layer_x0020_1">
  <metadata id="CorelCorpID_0Corel-Layer"/>
  <g id="_2445230868080">
   <path class="fil0" d="M36.65 15.79c-6.86,3.83 -17.77,11.21 -23.87,16.15 5.82,-1.96 11.65,-3.91 17.47,-5.87 -4.73,6.4 -9.4,13 -12.02,20.51 -2.34,6.7 -2.95,13.87 -3.16,20.97 -0.25,8.44 0.06,16.98 2.31,25.12 2.25,8.13 6.59,15.89 13.26,21.06 4.44,3.45 9.75,5.63 15.15,7.21 13.61,3.97 28.38,4.22 41.92,0.02 13.54,-4.21 25.73,-12.97 33.45,-24.86 2.87,-4.42 5.14,-9.31 6,-14.51 0.74,-4.43 0.44,-8.98 -0.07,-13.44 -1.85,-15.99 -6.69,-31.95 -16.32,-44.84 -9.63,-12.89 -24.48,-22.4 -40.55,-23.25 -16.07,-0.85 -32.85,8.09 -39.07,22.94l5.52 -7.2z"/>
   <path class="fil1" d="M39.88 102.74c0.8,-2.25 1.59,-4.51 2.42,-6.75 3.54,-9.63 7.07,-19.27 10.64,-28.89 0.4,-1.07 0.2,-1.85 -0.44,-2.75 -6.95,-9.78 -13.88,-19.58 -20.8,-29.38 -0.35,-0.49 -0.66,-1.02 -1.07,-1.65 0.43,-0.15 0.65,-0.31 0.88,-0.3 7.06,0.27 14.13,0.56 21.19,0.84 5.44,0.21 10.88,0.44 16.33,0.55 0.73,0.01 1.73,-0.5 2.17,-1.09 7.34,-9.75 14.61,-19.56 21.89,-29.34 0.27,-0.37 0.59,-0.7 1.08,-1.27 0.27,0.61 0.5,0.99 0.61,1.4 3.31,11.64 6.64,23.27 9.86,34.94 0.41,1.48 1.17,2.18 2.51,2.62 6.96,2.3 13.91,4.62 20.86,6.96 4.57,1.53 9.12,3.09 13.68,4.64 0.32,0.11 0.6,0.33 1.12,0.63 -0.64,0.49 -1.1,0.89 -1.6,1.22 -9.92,6.66 -19.83,13.33 -29.78,19.95 -1.14,0.76 -1.57,1.59 -1.58,2.95 -0.09,10.58 -0.27,21.15 -0.41,31.73 -0.02,1.2 0.05,2.41 0.02,3.61 -0.02,0.75 -0.12,1.5 -0.23,2.67 -2.23,-1.74 -4.16,-3.24 -6.08,-4.74 -7.99,-6.28 -15.99,-12.54 -23.96,-18.85 -0.92,-0.73 -1.71,-0.89 -2.84,-0.53 -11.39,3.59 -22.79,7.13 -34.2,10.67 -0.63,0.2 -1.27,0.35 -1.91,0.53l-0.37 -0.34z"/>
   <path class="fil2" d="M94.29 104.42c-6.52,-5.11 -13.03,-10.22 -19.52,-15.37 -1.07,-0.85 -2.16,-1.26 -3.35,-1.26 -0.58,0 -1.17,0.1 -1.82,0.3 -9.54,3.01 -19.09,5.98 -28.64,8.95l-3.22 1c0.31,-0.85 1.26,-3.46 1.26,-3.46 3.42,-9.33 6.85,-18.66 10.31,-27.98 0.66,-1.79 0.42,-3.45 -0.75,-5.09 -6.1,-8.58 -12.18,-17.18 -18.25,-25.78l-1.01 -1.43c2.57,0.1 19.64,0.78 19.64,0.78 4.6,0.18 9.35,0.37 14.05,0.45l0 0c1.59,0 3.3,-0.86 4.23,-2.1 5.69,-7.56 11.34,-15.16 16.99,-22.76l3.06 -4.11 0.84 2.95c2.68,9.43 5.46,19.19 8.11,28.79 0.62,2.24 1.93,3.62 4.15,4.34 6.96,2.3 13.9,4.62 20.85,6.95 3.46,1.16 6.91,2.33 10.36,3.51l-2.14 1.44c-8.46,5.68 -16.91,11.36 -25.39,17 -1.82,1.21 -2.68,2.81 -2.7,5.02 -0.07,7.42 -0.17,14.84 -0.28,22.25l-0.13 9.46c-0.01,0.44 -0,0.88 0,1.32 -0.75,-0.58 -6.64,-5.2 -6.64,-5.2z"/>
   <path class="fil0" d="M88.17 1.31c-0.49,0.57 -0.81,0.9 -1.08,1.27 -7.29,9.79 -14.56,19.59 -21.89,29.34 -0.44,0.58 -1.42,1.09 -2.14,1.09l-0.03 0c-5.44,-0.1 -10.88,-0.33 -16.33,-0.55 -7.06,-0.27 -14.13,-0.57 -21.19,-0.84l-0.02 0c-0.22,0 -0.44,0.16 -0.86,0.3 0.41,0.63 0.72,1.16 1.07,1.65 6.92,9.8 13.85,19.6 20.8,29.38 0.64,0.9 0.84,1.68 0.44,2.75 -3.57,9.62 -7.11,19.26 -10.64,28.89 -0.82,2.24 -1.61,4.5 -2.42,6.75l0.37 0.34c0.64,-0.18 1.28,-0.33 1.91,-0.53 11.4,-3.55 22.81,-7.08 34.2,-10.67 0.39,-0.12 0.74,-0.19 1.06,-0.19 0.63,0 1.17,0.23 1.78,0.71 7.96,6.31 15.96,12.58 23.96,18.85 1.92,1.5 3.84,3 6.08,4.74 0.1,-1.16 0.21,-1.91 0.23,-2.67 0.03,-1.2 -0.04,-2.41 -0.02,-3.61 0.14,-10.57 0.31,-21.15 0.41,-31.73 0.01,-1.36 0.44,-2.19 1.58,-2.95 9.95,-6.61 19.86,-13.29 29.78,-19.95 0.5,-0.33 0.96,-0.73 1.6,-1.22 -0.52,-0.3 -0.8,-0.52 -1.12,-0.63 -4.56,-1.56 -9.11,-3.11 -13.68,-4.64 -6.95,-2.33 -13.9,-4.66 -20.86,-6.96 -1.34,-0.44 -2.1,-1.14 -2.51,-2.62 -3.22,-11.66 -6.55,-23.3 -9.86,-34.94 -0.12,-0.41 -0.34,-0.79 -0.61,-1.4zm-1.93 10.86c2.51,8.81 5.08,17.88 7.55,26.81 0.84,3.04 2.78,5.08 5.79,6.07 7.16,2.36 14.22,4.73 20.84,6.95 1.85,0.62 3.69,1.24 5.53,1.87 -7.66,5.14 -15.53,10.43 -23.3,15.6 -2.51,1.67 -3.8,4.06 -3.83,7.1 -0.07,7.46 -0.18,15.05 -0.28,22.39 -0.03,1.84 -0.05,3.68 -0.08,5.53l-2.75 -2.16c-6.36,-4.99 -12.93,-10.15 -19.37,-15.25 -1.51,-1.2 -3.16,-1.81 -4.91,-1.81 -0.84,0 -1.68,0.14 -2.58,0.42 -8.98,2.83 -18.12,5.67 -26.99,8.43 3.21,-8.75 6.53,-17.78 9.82,-26.65 0.66,-1.78 1.01,-4.51 -1.06,-7.43 -5.45,-7.67 -10.88,-15.35 -16.31,-23.03 0.86,0.03 1.72,0.07 2.58,0.1 3.21,0.13 6.41,0.26 9.62,0.38l2.4 0.09c4.59,0.18 9.33,0.37 14.03,0.45l0.08 0 0.05 0c2.29,0 4.77,-1.25 6.17,-3.11 5.69,-7.56 11.43,-15.27 16.98,-22.74l0.03 -0.04z"/>
   <path class="fil1" d="M23.19 131.42c0.06,-1.24 0.12,-2.49 0.19,-3.73l0.06 -1c0.44,-7.51 0.87,-15.03 1.34,-22.54 0.07,-1.13 -0.33,-1.96 -1.29,-2.7 -6.44,-4.99 -12.87,-10 -19.3,-15.01l-2.47 -1.92c2.54,-0.66 16.49,-4.29 16.49,-4.29 3.42,-0.89 6.97,-1.81 10.44,-2.79 0.82,-0.23 1.66,-1.03 1.96,-1.86 2.5,-6.81 4.95,-13.63 7.41,-20.45l2.02 -5.62 2.43 3.79c4.11,6.4 8.22,12.8 12.28,19.23 0.76,1.21 1.74,1.76 3.18,1.8 5.61,0.14 11.22,0.31 16.83,0.47 3.47,0.1 6.94,0.22 10.42,0.35l-2.57 3.14c-4.93,6.03 -9.86,12.06 -14.82,18.06 -0.86,1.04 -1.06,2.05 -0.68,3.36 1.62,5.52 3.2,11.05 4.79,16.58l1.95 6.77c0.12,0.43 0.26,0.86 0.4,1.29 0.14,0.45 0.29,0.9 0.42,1.35l0.08 0.29c0,0 -2.77,-1.07 -3.93,-1.52l-3.95 -1.54c-5.93,-2.31 -11.87,-4.62 -17.79,-6.96 -0.46,-0.18 -0.88,-0.27 -1.28,-0.27 -0.6,0 -1.17,0.19 -1.78,0.61 -6.37,4.35 -12.75,8.67 -19.13,12.99l-3.69 2.5 0.02 -0.38z"/>
   <path class="fil0" d="M39.79 47.72c-0.23,0.52 -0.39,0.84 -0.51,1.17 -3.17,8.79 -6.33,17.59 -9.54,26.37 -0.2,0.53 -0.81,1.13 -1.35,1.28 -4.01,1.13 -8.06,2.17 -12.09,3.22 -5.24,1.37 -10.48,2.72 -15.72,4.09 -0.16,0.04 -0.3,0.21 -0.58,0.42 0.44,0.37 0.78,0.69 1.15,0.97 7.25,5.65 14.5,11.3 21.77,16.93 0.67,0.52 0.99,1.05 0.93,1.92 -0.48,7.85 -0.94,15.7 -1.39,23.54 -0.1,1.83 -0.18,3.66 -0.27,5.48l0.34 0.17c0.43,-0.27 0.87,-0.53 1.28,-0.81 7.57,-5.13 15.15,-10.25 22.7,-15.41 0.44,-0.3 0.84,-0.45 1.26,-0.45 0.29,0 0.6,0.07 0.94,0.21 7.24,2.86 14.49,5.68 21.75,8.51 1.74,0.68 3.48,1.35 5.51,2.13 -0.18,-0.88 -0.27,-1.45 -0.42,-2.01 -0.25,-0.89 -0.56,-1.76 -0.82,-2.64 -2.24,-7.79 -4.46,-15.58 -6.74,-23.35 -0.29,-1 -0.16,-1.7 0.5,-2.51 5.83,-7.06 11.61,-14.15 17.41,-21.23 0.29,-0.36 0.54,-0.75 0.9,-1.25 -0.45,-0.1 -0.71,-0.2 -0.96,-0.21 -3.69,-0.13 -7.37,-0.26 -11.06,-0.37 -5.61,-0.17 -11.22,-0.33 -16.84,-0.47 -1.08,-0.03 -1.79,-0.37 -2.42,-1.37 -4.95,-7.84 -9.97,-15.63 -14.98,-23.43 -0.18,-0.28 -0.43,-0.5 -0.76,-0.89zm0.48 3.86l1.4 2.18c4.05,6.3 8.24,12.82 12.3,19.26 0.93,1.47 2.18,2.18 3.93,2.23 5.61,0.14 11.22,0.3 16.83,0.47 2.85,0.09 5.7,0.18 8.55,0.28l-1.51 1.84c-4.81,5.88 -9.78,11.97 -14.7,17.92 -1.05,1.27 -1.32,2.61 -0.85,4.2 1.61,5.5 3.19,11 4.77,16.5l1.97 6.84c0.11,0.38 0.23,0.76 0.35,1.14 -0.74,-0.29 -1.46,-0.56 -2.18,-0.84l-4.14 -1.61c-5.87,-2.29 -11.74,-4.57 -17.6,-6.89 -0.57,-0.23 -1.1,-0.34 -1.62,-0.34 -0.79,0 -1.54,0.25 -2.3,0.77 -6.27,4.29 -12.67,8.62 -18.86,12.81l-2.43 1.65c0.04,-0.75 0.08,-1.51 0.12,-2.26l0.08 -1.28c0.43,-7.42 0.86,-14.84 1.32,-22.25 0.09,-1.43 -0.45,-2.57 -1.64,-3.49 -6.37,-4.93 -12.73,-9.89 -19.09,-14.84l-1.21 -0.94c1.96,-0.51 3.93,-1.02 5.89,-1.53 2.37,-0.61 4.75,-1.23 7.12,-1.85l1.78 -0.46c3.39,-0.88 6.9,-1.8 10.34,-2.77 1.09,-0.31 2.18,-1.33 2.58,-2.42 2.49,-6.81 4.99,-13.74 7.41,-20.44l1.4 -3.87z"/>
   <path class="fil2" d="M24.44 122.14c0.44,-7.51 0.87,-15.03 1.34,-22.54 0.09,-1.45 -0.46,-2.62 -1.68,-3.56 -6.47,-5.01 -12.92,-10.03 -19.37,-15.06l-0.79 -0.61c1.88,-0.49 14.63,-3.8 14.63,-3.8 3.39,-0.88 6.9,-1.79 10.34,-2.76 1.12,-0.32 2.23,-1.36 2.64,-2.48 2.48,-6.76 4.92,-13.54 7.36,-20.32l1.38 -3.83 1.37 2.14c4.09,6.37 8.19,12.75 12.23,19.15 0.95,1.5 2.22,2.22 4,2.27 5.61,0.14 11.22,0.3 16.83,0.47 2.79,0.08 5.59,0.18 8.38,0.27l-1.66 2.03c-4.8,5.88 -9.61,11.75 -14.44,17.6 -1.07,1.29 -1.34,2.66 -0.87,4.29 1.63,5.55 3.22,11.11 4.82,16.67l1.92 6.67c0.09,0.32 0.19,0.65 0.3,0.97 -0.68,-0.26 -6.54,-2.55 -6.54,-2.55 -5.74,-2.24 -11.47,-4.47 -17.2,-6.74 -0.58,-0.23 -1.12,-0.34 -1.65,-0.34 -0.8,0 -1.57,0.25 -2.35,0.78 -6.28,4.29 -12.59,8.56 -18.89,12.82l-2.26 1.53c0.03,-0.69 0.17,-3.08 0.17,-3.08z"/>
   <path class="fil0" d="M39.79 43.11c-0.23,0.53 -0.39,0.84 -0.51,1.17 -3.17,8.79 -6.33,17.59 -9.54,26.37 -0.2,0.53 -0.81,1.13 -1.35,1.28 -4.01,1.13 -8.06,2.17 -12.09,3.22 -5.24,1.37 -10.48,2.72 -15.72,4.09 -0.16,0.04 -0.3,0.21 -0.58,0.42 0.44,0.37 0.78,0.69 1.15,0.97 7.25,5.65 14.5,11.3 21.77,16.93 0.67,0.52 0.99,1.05 0.93,1.92 -0.48,7.85 -0.94,15.69 -1.39,23.54 -0.1,1.83 -0.18,3.66 -0.27,5.48l0.34 0.17c0.43,-0.27 0.87,-0.53 1.28,-0.81 7.57,-5.13 15.15,-10.25 22.7,-15.41 0.44,-0.3 0.84,-0.45 1.26,-0.45 0.29,0 0.6,0.07 0.94,0.21 7.24,2.86 14.49,5.68 21.75,8.51 1.74,0.68 3.48,1.35 5.51,2.13 -0.18,-0.88 -0.27,-1.45 -0.42,-2.01 -0.25,-0.89 -0.56,-1.76 -0.82,-2.64 -2.24,-7.78 -4.46,-15.58 -6.74,-23.35 -0.29,-1 -0.16,-1.71 0.5,-2.51 5.83,-7.06 11.61,-14.15 17.41,-21.23 0.29,-0.36 0.54,-0.75 0.9,-1.25 -0.45,-0.1 -0.71,-0.2 -0.96,-0.21 -3.69,-0.13 -7.37,-0.26 -11.06,-0.37 -5.61,-0.17 -11.22,-0.33 -16.84,-0.47 -1.08,-0.03 -1.79,-0.37 -2.42,-1.37 -4.95,-7.84 -9.97,-15.63 -14.98,-23.43 -0.18,-0.28 -0.43,-0.5 -0.76,-0.89zm0.99 8.39c3.79,5.9 7.69,11.98 11.48,17.98 1.29,2.04 3.17,3.1 5.59,3.17 5.61,0.14 11.21,0.31 16.82,0.47 1.49,0.05 2.98,0.09 4.47,0.14 -4.47,5.47 -9.07,11.09 -13.62,16.6 -1.47,1.78 -1.89,3.82 -1.23,6.06 1.61,5.49 3.19,10.99 4.76,16.49l1.17 4.06 -2.49 -0.97c-5.87,-2.29 -11.74,-4.57 -17.59,-6.89 -0.81,-0.32 -1.58,-0.48 -2.36,-0.48 -1.19,0 -2.35,0.38 -3.44,1.12 -5.95,4.07 -12.02,8.18 -17.92,12.17 0.42,-7.24 0.84,-14.48 1.29,-21.72 0.09,-1.45 -0.26,-3.53 -2.42,-5.21 -5.7,-4.41 -11.38,-8.84 -17.07,-13.26 0.64,-0.17 1.28,-0.33 1.92,-0.5 2.38,-0.62 4.76,-1.23 7.14,-1.85l1.78 -0.46c3.4,-0.89 6.92,-1.8 10.38,-2.78 1.72,-0.49 3.3,-1.96 3.92,-3.67 2.5,-6.81 4.99,-13.74 7.41,-20.44l0.01 -0.04z"/>
  </g>
 </g>
</svg>
