<?xml version="1.0" encoding="UTF-8"?>
<!DOCTYPE svg PUBLIC "-//W3C//DTD SVG 1.1//EN" "http://www.w3.org/Graphics/SVG/1.1/DTD/svg11.dtd">
<!-- Creator: CorelDRAW -->
<svg xmlns="http://www.w3.org/2000/svg" xml:space="preserve" width="25.0705mm" height="24.9682mm" version="1.1" style="shape-rendering:geometricPrecision; text-rendering:geometricPrecision; image-rendering:optimizeQuality; fill-rule:evenodd; clip-rule:evenodd"
viewBox="0 0 98.7 98.3"
 xmlns:xlink="http://www.w3.org/1999/xlink"
 xmlns:xodm="http://www.corel.com/coreldraw/odm/2003">
 <defs>
  <style type="text/css">
   <![CDATA[
    .fil2 {fill:#FEFEFE}
    .fil0 {fill:#C7C0DF;fill-rule:nonzero}
    .fil1 {fill:#2F4C74;fill-rule:nonzero}
   ]]>
  </style>
 </defs>
 <g id="Layer_x0020_1">
  <metadata id="CorelCorpID_0Corel-Layer"/>
  <g id="_2445309110064">
   <path class="fil0" d="M21.47 95.48c-10.29,0 -18.65,-8.37 -18.65,-18.65l0 -55.37c0,-10.29 8.37,-18.65 18.65,-18.65l55.77 0c10.28,0 18.65,8.37 18.65,18.65l0 55.37c0,10.28 -8.37,18.65 -18.65,18.65l-55.77 0z"/>
   <path class="fil1" d="M77.24 0l-55.77 0c-11.86,0 -21.47,9.61 -21.47,21.47l0 55.37c0,11.86 9.61,21.47 21.47,21.47l55.77 0c11.86,0 21.47,-9.61 21.47,-21.47l0 -55.37c0,-11.86 -9.61,-21.47 -21.47,-21.47zm0 5.63c8.73,0 15.84,7.1 15.84,15.84l0 55.37c0,8.73 -7.1,15.84 -15.84,15.84l-55.77 0c-8.73,0 -15.84,-7.11 -15.84,-15.84l0 -55.37c0,-8.73 7.11,-15.84 15.84,-15.84l55.77 0z"/>
   <path class="fil2" d="M35.06 25.2c-1.52,0.53 -1.11,2.67 -1.11,4.41l0 41.15c-0,0.87 -0.12,1.72 0.44,2.33 1.18,1.3 2.68,0.01 3.64,-0.62 2.21,-1.45 4.46,-2.77 6.72,-4.22l26.92 -16.98c0.59,-0.38 1.19,-0.61 1.43,-1.3 0.6,-1.66 -1.16,-2.32 -2.24,-3.01 -7.12,-4.59 -14.78,-9.21 -21.88,-13.79l-10.08 -6.35c-1.4,-0.89 -2.69,-2.02 -3.84,-1.63z"/>
  </g>
 </g>
</svg>
