<?xml version="1.0" encoding="UTF-8"?>
<!DOCTYPE svg PUBLIC "-//W3C//DTD SVG 1.1//EN" "http://www.w3.org/Graphics/SVG/1.1/DTD/svg11.dtd">
<!-- Creator: CorelDRAW -->
<svg xmlns="http://www.w3.org/2000/svg" xml:space="preserve" width="17.8631mm" height="20mm" version="1.1" style="shape-rendering:geometricPrecision; text-rendering:geometricPrecision; image-rendering:optimizeQuality; fill-rule:evenodd; clip-rule:evenodd"
viewBox="0 0 384.15 430.11"
 xmlns:xlink="http://www.w3.org/1999/xlink"
 xmlns:xodm="http://www.corel.com/coreldraw/odm/2003">
 <defs>
  <style type="text/css">
   <![CDATA[
    .fil0 {fill:#B3B3B3}
    .fil1 {fill:#FEFEFE;fill-rule:nonzero}
   ]]>
  </style>
 </defs>
 <rect class="fil0" x="-3928.42" y="-148.46" width="6069.32" height="4551.99"/>
 <g id="Layer_x0020_1">
  <metadata id="CorelCorpID_0Corel-Layer"/>
  <path class="fil1" d="M27.32 224.06c19.9,17.85 39.44,35.39 59.39,53.27 2.68,-5.22 5,-9.88 7.44,-14.47 16.33,-30.81 32.54,-61.69 49.08,-92.39 23.75,-44.1 47.73,-88.08 71.63,-132.1 6.18,-11.41 12.47,-22.78 18.54,-34.25 1.52,-2.91 3.37,-4.14 6.75,-4.13 46.17,0.09 92.34,0.07 138.51,0.08 5.38,0 5.42,0.04 5.42,5.56 0.01,40.92 -0.03,81.85 0.08,122.78 0.01,3.6 -1.16,6.11 -3.8,8.51 -43.33,39.48 -86.63,78.99 -129.86,118.6 -18.95,17.36 -37.49,35.17 -56.66,52.26 -8.59,7.66 -18.34,13.99 -27.45,21.06 -3.69,2.87 -7.09,6.09 -11.13,9.6 5.04,4.55 9.56,8.66 14.12,12.73 15.06,13.45 30.08,26.95 45.24,40.3 2.66,2.34 2.63,3.88 0.14,6.25 -10.73,10.22 -21.38,20.54 -31.94,30.93 -2.17,2.12 -3.54,1.69 -5.54,-0.18 -18.69,-17.65 -37.51,-35.15 -56.14,-52.87 -2.68,-2.54 -4.38,-2.86 -7.55,-0.69 -26.43,18.04 -53.03,35.8 -79.47,53.82 -3.06,2.09 -4.77,1.77 -7.22,-0.8 -8.05,-8.44 -16.26,-16.75 -24.63,-24.88 -2.54,-2.48 -2.82,-4.29 -0.95,-7.34 16.54,-27.08 32.9,-54.28 49.43,-81.37 1.48,-2.41 1.28,-3.54 -0.78,-5.44 -16.07,-14.89 -31.95,-29.98 -48,-44.87 -2.49,-2.31 -2.52,-3.92 -0.5,-6.52 7.9,-10.14 15.59,-20.44 23.38,-30.66 0.62,-0.82 1.36,-1.54 2.49,-2.8z"/>
 </g>
</svg>
