<?xml version="1.0" encoding="UTF-8"?>
<!DOCTYPE svg PUBLIC "-//W3C//DTD SVG 1.1//EN" "http://www.w3.org/Graphics/SVG/1.1/DTD/svg11.dtd">
<!-- Creator: CorelDRAW -->
<svg xmlns="http://www.w3.org/2000/svg" xml:space="preserve" width="17.863mm" height="20mm" version="1.1" style="shape-rendering:geometricPrecision; text-rendering:geometricPrecision; image-rendering:optimizeQuality; fill-rule:evenodd; clip-rule:evenodd"
viewBox="0 0 483.85 541.73"
 xmlns:xlink="http://www.w3.org/1999/xlink"
 xmlns:xodm="http://www.corel.com/coreldraw/odm/2003">
 <defs>
  <style type="text/css">
   <![CDATA[
    .fil0 {fill:#FEFEFE;fill-rule:nonzero}
   ]]>
  </style>
 </defs>
 <g id="Layer_x0020_1">
  <metadata id="CorelCorpID_0Corel-Layer"/>
  <path class="fil0" d="M34.41 282.21c25.07,22.48 49.68,44.58 74.8,67.1 3.38,-6.58 6.3,-12.44 9.37,-18.23 20.56,-38.8 40.98,-77.7 61.82,-116.37 29.91,-55.54 60.12,-110.94 90.22,-166.38 7.79,-14.37 15.7,-28.69 23.35,-43.14 1.92,-3.66 4.24,-5.21 8.5,-5.2 58.15,0.12 116.31,0.09 174.45,0.09 6.78,0 6.83,0.05 6.83,7 0.01,51.54 -0.04,103.1 0.1,154.65 0.01,4.54 -1.46,7.7 -4.79,10.72 -54.57,49.73 -109.11,99.5 -163.57,149.38 -23.87,21.86 -47.22,44.3 -71.37,65.83 -10.82,9.64 -23.1,17.62 -34.57,26.52 -4.65,3.61 -8.94,7.67 -14.02,12.09 6.35,5.73 12.04,10.91 17.79,16.04 18.96,16.95 37.89,33.95 56.99,50.76 3.35,2.95 3.32,4.89 0.18,7.88 -13.52,12.87 -26.92,25.87 -40.23,38.96 -2.73,2.67 -4.46,2.13 -6.97,-0.23 -23.54,-22.23 -47.25,-44.27 -70.71,-66.59 -3.38,-3.2 -5.52,-3.6 -9.51,-0.87 -33.29,22.72 -66.8,45.09 -100.1,67.79 -3.85,2.63 -6.01,2.23 -9.09,-1 -10.14,-10.63 -20.48,-21.09 -31.03,-31.33 -3.2,-3.12 -3.55,-5.41 -1.2,-9.25 20.84,-34.11 41.44,-68.36 62.26,-102.48 1.86,-3.03 1.61,-4.45 -0.99,-6.85 -20.24,-18.75 -40.24,-37.76 -60.46,-56.52 -3.13,-2.91 -3.18,-4.93 -0.63,-8.21 9.95,-12.77 19.64,-25.74 29.45,-38.62 0.78,-1.03 1.71,-1.94 3.13,-3.52z"/>
 </g>
</svg>
