<?xml version="1.0" encoding="UTF-8"?>
<!DOCTYPE svg PUBLIC "-//W3C//DTD SVG 1.1//EN" "http://www.w3.org/Graphics/SVG/1.1/DTD/svg11.dtd">
<!-- Creator: CorelDRAW -->
<svg xmlns="http://www.w3.org/2000/svg" xml:space="preserve" width="25.0705mm" height="24.9682mm" version="1.1" style="shape-rendering:geometricPrecision; text-rendering:geometricPrecision; image-rendering:optimizeQuality; fill-rule:evenodd; clip-rule:evenodd"
viewBox="0 0 113.86 113.39"
 xmlns:xlink="http://www.w3.org/1999/xlink"
 xmlns:xodm="http://www.corel.com/coreldraw/odm/2003">
 <defs>
  <style type="text/css">
   <![CDATA[
    .fil2 {fill:#FEFEFE}
    .fil0 {fill:#C7C0DF;fill-rule:nonzero}
    .fil1 {fill:#2F4C74;fill-rule:nonzero}
   ]]>
  </style>
 </defs>
 <g id="Layer_x0020_1">
  <metadata id="CorelCorpID_0Corel-Layer"/>
  <g id="_2445262348208">
   <path class="fil0" d="M24.76 110.14c-11.87,0 -21.52,-9.65 -21.52,-21.51l0 -63.87c0,-11.86 9.65,-21.52 21.52,-21.52l64.33 0c11.86,0 21.52,9.65 21.52,21.52l0 63.87c0,11.86 -9.65,21.51 -21.52,21.51l-64.33 0z"/>
   <path class="fil1" d="M89.09 0l-64.33 0c-13.68,0 -24.76,11.09 -24.76,24.76l0 63.87c0,13.68 11.09,24.76 24.76,24.76l64.33 0c13.68,0 24.76,-11.09 24.76,-24.76l0 -63.87c0,-13.68 -11.09,-24.76 -24.76,-24.76zm0 6.49c10.07,0 18.27,8.2 18.27,18.27l0 63.87c0,10.07 -8.19,18.27 -18.27,18.27l-64.33 0c-10.07,0 -18.27,-8.2 -18.27,-18.27l0 -63.87c0,-10.07 8.2,-18.27 18.27,-18.27l64.33 0z"/>
   <path class="fil2" d="M56.29 89.31c5.52,0 7.08,-2.13 10.06,-6.09l22.46 -29.59c2.52,-3.37 4.8,-5.63 3.95,-10.51 -0.41,-2.32 -1.9,-4.42 -3.35,-5.9l-6.18 -6.99c-0.37,-0.46 -0.45,-0.57 -0.88,-1 -0.73,-0.73 -1.48,-1.94 -2.72,-2.92 -1.36,-1.08 -3.37,-2.21 -5.31,-2.21l-34.81 0c-0.94,0 -2.15,0.41 -2.89,0.71 -2.03,0.82 -2.93,2.01 -4.2,3.32l-2.58 2.91c-0.38,0.45 -0.45,0.58 -0.87,1.01 -0.4,0.41 -0.46,0.62 -0.86,1.02 -0.87,0.9 -5.39,6.02 -5.95,7.06 -1.54,2.87 -1.66,6.11 -0.32,8.99 0.93,1.99 17.97,23.97 19.15,25.54 1.02,1.36 8.35,11.36 9.87,12.55 1.28,1 3.25,2.1 5.42,2.1z"/>
  </g>
 </g>
</svg>
