<?xml version="1.0" encoding="UTF-8"?>
<!DOCTYPE svg PUBLIC "-//W3C//DTD SVG 1.1//EN" "http://www.w3.org/Graphics/SVG/1.1/DTD/svg11.dtd">
<!-- Creator: CorelDRAW -->
<svg xmlns="http://www.w3.org/2000/svg" xml:space="preserve" width="26.96mm" height="9.6789mm" version="1.1" style="shape-rendering:geometricPrecision; text-rendering:geometricPrecision; image-rendering:optimizeQuality; fill-rule:evenodd; clip-rule:evenodd"
viewBox="0 0 972.71 349.21"
 xmlns:xlink="http://www.w3.org/1999/xlink"
 xmlns:xodm="http://www.corel.com/coreldraw/odm/2003">
 <defs>
  <style type="text/css">
   <![CDATA[
    .fil1 {fill:black;fill-rule:nonzero}
    .fil0 {fill:#FF0069;fill-rule:nonzero}
   ]]>
  </style>
 </defs>
 <g id="__x0023_Layer_x0020_1">
  <metadata id="CorelCorpID_0Corel-Layer"/>
  <g id="_2759741778672">
   <g>
    <path class="fil0" d="M147.84 341.07c-0.78,0 -1.57,-0.11 -2.36,-0.35 -83.54,-25.26 -113.78,-77.24 -115.03,-79.44 -0.97,-1.72 -1.29,-3.73 -0.89,-5.66 5.89,-28.58 18.92,-61.02 25.03,-75.35l-41.73 -19.29c-3.51,-1.61 -5.39,-5.48 -4.51,-9.23 20.23,-86.45 73.4,-118.46 75.66,-119.77 1.25,-0.73 2.67,-1.12 4.12,-1.12 0.18,0 0.36,0.01 0.54,0.03 27.06,1.81 55.05,13.53 66.41,18.78 26.02,-23.78 55.4,-39.84 56.71,-40.55 1.21,-0.65 2.54,-0.98 3.88,-0.98 0.99,0 2,0.19 2.94,0.55 82.57,32.01 101.42,95.51 102.18,98.19 0.88,3.11 -0.16,6.44 -2.64,8.49 -11.46,9.5 -19.45,18.84 -23.8,24.45 36.25,36.94 47.23,67.01 47.69,68.33 0.58,1.64 0.63,3.44 0.11,5.12 -22.5,73 -87.86,104.49 -90.63,105.8 -1.11,0.52 -2.29,0.78 -3.47,0.78 -2.28,0 -4.52,-0.96 -6.1,-2.76 -14.76,-16.73 -38.73,-36.22 -50.78,-45.65l-36.21 65.43c-1.46,2.64 -4.22,4.2 -7.12,4.2z"/>
    <path class="fil1" d="M215.67 16.28c79.74,30.9 97.29,92.83 97.29,92.83 -19.37,16.04 -29.28,31.57 -29.28,31.57 39.35,38.31 50.69,70.19 50.69,70.19 -21.69,70.4 -86.32,100.84 -86.32,100.84 -21.03,-23.86 -59.42,-52.49 -59.42,-52.49l-40.8 73.71c-81.38,-24.6 -110.31,-75.66 -110.31,-75.66 7.57,-36.72 27.7,-81.04 27.7,-81.04l-48.95 -22.64c19.66,-84.03 71.85,-114.6 71.85,-114.6 33.03,2.23 68.45,20.43 68.45,20.43 26.45,-25.45 59.09,-43.14 59.09,-43.14zm0 -16.28l0 0c-2.68,0 -5.35,0.66 -7.76,1.97 -1.27,0.69 -28.64,15.63 -54.33,38.12 -13.85,-6.01 -39.42,-15.65 -64.36,-17.34 -0.36,-0.02 -0.73,-0.04 -1.1,-0.04 -2.89,0 -5.73,0.77 -8.23,2.23 -2.38,1.39 -58.46,35.14 -79.47,124.94 -1.76,7.52 2.01,15.24 9.02,18.48l34.61 16.01c-6.81,16.65 -17.3,44.53 -22.47,69.61 -0.79,3.86 -0.16,7.88 1.78,11.31 1.31,2.32 33.13,57.03 119.76,83.22 1.56,0.47 3.15,0.7 4.71,0.7 5.8,0 11.31,-3.11 14.24,-8.4l31.56 -57.02c12.59,10.16 30.48,25.37 42.21,38.67 3.17,3.59 7.65,5.52 12.22,5.52 2.34,0 4.71,-0.51 6.93,-1.55 2.9,-1.37 71.4,-34.38 94.94,-110.78 1.04,-3.35 0.96,-6.95 -0.22,-10.25 -0.47,-1.32 -11,-30.18 -44.5,-66.02 4.32,-5 10.38,-11.34 18.13,-17.74 4.97,-4.12 7.04,-10.77 5.28,-16.98 -0.81,-2.85 -20.76,-70.12 -107.07,-103.57 -1.9,-0.74 -3.89,-1.1 -5.88,-1.1z"/>
   </g>
   <g>
    <path class="fil0" d="M501.99 320.7c-1.01,0 -2.02,-0.22 -2.97,-0.69 -63.41,-31.82 -80.42,-77.66 -81.11,-79.6 -0.54,-1.5 -0.52,-3.16 0.07,-4.65 8.69,-22.08 23.64,-46.25 30.51,-56.88l-30.74 -21.25c-2.59,-1.79 -3.56,-5.14 -2.33,-8.03 28.2,-66.42 75.25,-84.68 77.24,-85.43 0.75,-0.27 1.53,-0.41 2.32,-0.41 0.52,0 1.05,0.06 1.57,0.19 21.42,5.21 42.21,18.48 50.58,24.27 24.14,-15.45 49.91,-24.22 51.05,-24.61 0.69,-0.23 1.4,-0.35 2.11,-0.35 1.19,0 2.37,0.31 3.41,0.94 61.69,37.09 67.98,90.59 68.22,92.84 0.27,2.61 -1.02,5.13 -3.29,6.44 -10.5,6 -18.21,12.39 -22.46,16.27 23.91,34.63 28.52,60.24 28.71,61.35 0.24,1.4 0.03,2.85 -0.62,4.11 -28.15,55.36 -84.89,71.51 -87.29,72.17 -0.58,0.16 -1.17,0.23 -1.75,0.23 -2.26,0 -4.41,-1.15 -5.64,-3.15 -9.48,-15.45 -25.99,-34.38 -34.34,-43.61l-38.09 47.38c-1.29,1.61 -3.2,2.46 -5.16,2.46z"/>
    <path class="fil1" d="M600.29 69.87c59.58,35.82 65.04,87.86 65.04,87.86 -17.75,10.16 -27.84,21.22 -27.84,21.22 26.2,36.15 30.86,63.26 30.86,63.26 -27.15,53.38 -83.14,68.79 -83.14,68.79 -13.54,-22.03 -40.31,-50.29 -40.31,-50.29l-42.91 53.38c-61.77,-31 -77.85,-75.92 -77.85,-75.92 11.16,-28.37 33.44,-61.07 33.44,-61.07l-36.07 -24.93c27.42,-64.58 73.46,-81.82 73.46,-81.82 26.15,6.37 52,25.87 52,25.87 24.71,-16.71 53.32,-26.35 53.32,-26.35zm0 -13.23l0 0c-1.42,0 -2.85,0.23 -4.23,0.69 -1.11,0.38 -25.1,8.54 -48.81,22.99 -10.26,-6.74 -29.4,-18.01 -49.15,-22.82 -1.03,-0.25 -2.09,-0.38 -3.14,-0.38 -1.58,0 -3.15,0.28 -4.64,0.84 -2.1,0.79 -51.7,20.03 -81,89.04 -2.45,5.78 -0.51,12.49 4.66,16.06l25.5 17.63c-7.76,12.39 -20.04,33.27 -27.66,52.64 -1.17,2.98 -1.22,6.29 -0.14,9.3 0.73,2.04 18.62,50.28 84.37,83.28 1.89,0.95 3.92,1.41 5.93,1.41 3.91,0 7.74,-1.73 10.32,-4.94l33.19 -41.29c8.68,9.89 20.89,24.56 28.44,36.84 2.45,3.99 6.76,6.31 11.27,6.31 1.17,0 2.35,-0.16 3.51,-0.48 2.51,-0.69 61.96,-17.62 91.43,-75.55 1.29,-2.54 1.73,-5.43 1.25,-8.24 -0.19,-1.12 -4.63,-25.7 -26.48,-59.06 4.15,-3.4 9.89,-7.64 16.98,-11.69 4.55,-2.6 7.14,-7.65 6.59,-12.87 -0.25,-2.39 -6.89,-59.05 -71.38,-97.82 -2.08,-1.25 -4.44,-1.89 -6.82,-1.89z"/>
   </g>
   <g>
    <path class="fil0" d="M861.83 334.23c-2.49,0 -4.7,-1.6 -5.47,-3.99 -4.8,-14.97 -14.8,-34.32 -19.93,-43.82l-41.86 32.06c-1.03,0.78 -2.25,1.18 -3.49,1.18 -1.32,0 -2.65,-0.46 -3.72,-1.37 -46.85,-39.89 -51.73,-82.03 -51.91,-83.79 -0.15,-1.38 0.22,-2.77 1.02,-3.9 11.87,-16.8 29.44,-34.09 37.42,-41.63l-21.51 -24.24c-1.8,-2.03 -1.93,-5.06 -0.3,-7.23 37.46,-50.15 80.85,-55.84 82.68,-56.05 0.22,-0.04 0.45,-0.05 0.68,-0.05 0.92,0 1.83,0.22 2.64,0.65 16.97,8.83 31.75,24.29 37.61,30.89 23.52,-8.04 47.03,-10.11 48.08,-10.19 0.16,-0.01 0.32,-0.03 0.49,-0.03 1.51,0 2.96,0.6 4.04,1.67 44.33,43.98 38.59,90.32 38.32,92.27 -0.3,2.26 -1.92,4.11 -4.1,4.75 -10.07,2.9 -17.89,6.67 -22.27,9.07 13,34.1 11.61,56.62 11.54,57.6 -0.09,1.23 -0.57,2.41 -1.37,3.34 -35.13,40.82 -86.26,42.75 -88.42,42.8 -0.05,0.01 -0.1,0.01 -0.16,0.01z"/>
    <path class="fil1" d="M835.44 107.16c20.71,10.76 38.47,32.51 38.47,32.51 24.27,-8.98 50.35,-11.2 50.35,-11.2 42.8,42.46 36.67,87.43 36.67,87.43 -17.04,4.9 -27.82,12.14 -27.82,12.14 14.62,35.86 12.95,59.65 12.95,59.65 -33.88,39.37 -84.23,40.8 -84.23,40.8 -6.86,-21.35 -23.59,-50.68 -23.59,-50.68l-47.16 36.12c-45.64,-38.85 -49.92,-80.01 -49.92,-80.01 15.25,-21.59 40.76,-44.54 40.76,-44.54l-25.24 -28.44c36.41,-48.75 78.76,-53.78 78.76,-53.78zm0 -11.48l0 0c-0.45,0 -0.9,0.03 -1.35,0.08 -1.93,0.23 -47.69,6.21 -86.6,58.3 -3.26,4.36 -3.01,10.41 0.61,14.49l17.85 20.11c-9.1,8.84 -23.74,23.89 -34.16,38.63 -1.61,2.27 -2.33,5.04 -2.04,7.81 0.19,1.87 5.31,46.2 53.9,87.56 2.14,1.82 4.79,2.74 7.44,2.74 2.46,0 4.91,-0.78 6.98,-2.36l36.48 -27.94c5.27,10.12 12.54,24.99 16.36,36.9 1.53,4.76 5.95,7.97 10.92,7.97 0.11,0 0.22,-0 0.33,-0 2.26,-0.06 55.83,-2.07 92.6,-44.79 1.61,-1.88 2.58,-4.22 2.75,-6.69 0.07,-0.99 1.41,-22.61 -10.13,-55.21 4.2,-2.01 9.91,-4.39 16.72,-6.35 4.37,-1.26 7.59,-4.98 8.2,-9.48 0.28,-2.07 6.37,-51.16 -39.96,-97.13 -2.16,-2.14 -5.07,-3.33 -8.09,-3.33 -0.32,0 -0.65,0.01 -0.97,0.04 -1.02,0.09 -22.91,2.02 -45.85,9.3 -7.25,-7.79 -21.06,-21.23 -36.7,-29.36 -1.64,-0.85 -3.46,-1.29 -5.29,-1.29z"/>
   </g>
  </g>
 </g>
</svg>
