<?xml version="1.0" encoding="UTF-8"?>
<!DOCTYPE svg PUBLIC "-//W3C//DTD SVG 1.1//EN" "http://www.w3.org/Graphics/SVG/1.1/DTD/svg11.dtd">
<!-- Creator: CorelDRAW -->
<svg xmlns="http://www.w3.org/2000/svg" xml:space="preserve" width="10.6359mm" height="11.138mm" version="1.1" style="shape-rendering:geometricPrecision; text-rendering:geometricPrecision; image-rendering:optimizeQuality; fill-rule:evenodd; clip-rule:evenodd"
viewBox="0 0 30.62 32.07"
 xmlns:xlink="http://www.w3.org/1999/xlink"
 xmlns:xodm="http://www.corel.com/coreldraw/odm/2003">
 <defs>
  <style type="text/css">
   <![CDATA[
    .fil1 {fill:url(#id0);fill-rule:nonzero}
    .fil0 {fill:url(#id1);fill-rule:nonzero}
   ]]>
  </style>
  <linearGradient id="id0" gradientUnits="objectBoundingBox" x1="0%" y1="0%" x2="1103.4%" y2="0%">
   <stop offset="0" style="stop-opacity:1; stop-color:#BF6D1D"/>
   <stop offset="0.0196078" style="stop-opacity:1; stop-color:#BF6D1D"/>
   <stop offset="0.258824" style="stop-opacity:1; stop-color:#FBE747"/>
   <stop offset="0.278431" style="stop-opacity:1; stop-color:#FBE747"/>
   <stop offset="0.478431" style="stop-opacity:1; stop-color:#BF6D1D"/>
   <stop offset="0.501961" style="stop-opacity:1; stop-color:#BF6D1D"/>
   <stop offset="0.709804" style="stop-opacity:1; stop-color:#FBE747"/>
   <stop offset="0.729412" style="stop-opacity:1; stop-color:#FBE747"/>
   <stop offset="0.988235" style="stop-opacity:1; stop-color:#BF6D1D"/>
   <stop offset="0.988235" style="stop-opacity:1; stop-color:#BF6D1D"/>
   <stop offset="1" style="stop-opacity:1; stop-color:#BF6D1D"/>
  </linearGradient>
  <linearGradient id="id1" gradientUnits="objectBoundingBox" x1="389.985%" y1="55.9294%" x2="389.985%" y2="0%">
   <stop offset="0" style="stop-opacity:1; stop-color:#A492E6"/>
   <stop offset="0.529412" style="stop-opacity:1; stop-color:#8677BB"/>
   <stop offset="1" style="stop-opacity:1; stop-color:#685C90"/>
  </linearGradient>
 </defs>
 <g id="__x0023_Layer_x0020_1">
  <metadata id="CorelCorpID_0Corel-Layer"/>
  <g id="_2388326726032">
   <g>
    <g>
     <path class="fil0" d="M20.54 0.54l0.14 0.13m4.24 4.15l3.2 2.84m2.42 3.1l0.08 -0.28m-10.71 -9.81l-7.77 7.1c0.25,0.53 0.41,0.91 0.7,1.42 -1.84,1.63 -4.86,4.73 -5.57,6.75 -1.02,2.9 1.5,5.53 2.79,6.71 1.29,1.18 0.54,4.94 -8.38,7.73 0,0 13.71,-0.52 15.61,-4.03 1.9,-3.51 -2.05,-4.69 -0.87,-6.77 0.6,-1.05 1.79,-2.08 3.25,-2.92 0.35,0.24 0.72,0.48 1.09,0.7l8.44 -8.08 -8.47 -7.64 0.08 -0.08 -0.9 -0.9z"/>
     <path class="fil1" d="M10.59 8.42l0.03 0.06 0.18 -0.17 -0.21 0.11zm0.24 0.54c-2.84,2.63 -4.57,4.79 -5.14,6.42 -0.67,1.9 -0.66,4.91 3.19,8.46 0.04,0.46 -1.07,2.86 -7.69,4.94 -0.8,0.25 -1.3,1.06 -1.16,1.89 0.14,0.83 0.88,1.43 1.72,1.4 3.44,-0.13 14.84,-0.87 17.03,-4.91 1.55,-2.86 0.23,-4.84 -0.55,-6.02 -0.15,-0.23 -0.38,-0.57 -0.45,-0.75 0.26,-0.42 0.76,-0.91 1.43,-1.41l-0.07 -0.03 10.22 -10.16c-0.37,-0.22 -0.73,-0.46 -1.09,-0.7 -1.46,0.84 -11.37,10.45 -11.97,11.5 -1.18,2.08 2.9,3.26 1,6.77 -1.9,3.51 -15.61,4.03 -15.61,4.03 8.92,-2.79 9.67,-6.55 8.38,-7.73 -1.29,-1.18 -3.81,-3.81 -2.79,-6.71 0.71,-2.02 11.6,-12.76 13.44,-14.39 -0.29,-0.51 -0.55,-1.02 -0.8,-1.55l-9.08 8.96z"/>
    </g>
   </g>
   <g>
    <path class="fil0" d="M20.54 0.54l0.14 0.13m4.24 4.15l3.2 2.84m2.42 3.1l0.08 -0.28m-10.71 -9.81l-7.77 7.1c0.25,0.53 0.41,0.91 0.7,1.42 -1.84,1.63 -4.86,4.73 -5.57,6.75 -1.02,2.9 1.5,5.53 2.79,6.71 1.29,1.18 0.54,4.94 -8.38,7.73 0,0 13.71,-0.52 15.61,-4.03 1.9,-3.51 -2.05,-4.69 -0.87,-6.77 0.6,-1.05 1.79,-2.08 3.25,-2.92 0.35,0.24 0.72,0.48 1.09,0.7l8.44 -8.08 -8.47 -7.64 0.08 -0.08 -0.9 -0.9z"/>
    <path class="fil1" d="M10.59 8.42l0.03 0.06 0.18 -0.17 -0.21 0.11zm0.24 0.54c-2.84,2.63 -4.57,4.79 -5.14,6.42 -0.67,1.9 -0.66,4.91 3.19,8.46 0.04,0.46 -1.07,2.86 -7.69,4.94 -0.8,0.25 -1.3,1.06 -1.16,1.89 0.14,0.83 0.88,1.43 1.72,1.4 3.44,-0.13 14.84,-0.87 17.03,-4.91 1.55,-2.86 0.23,-4.84 -0.55,-6.02 -0.15,-0.23 -0.38,-0.57 -0.45,-0.75 0.26,-0.42 0.76,-0.91 1.43,-1.41l-0.07 -0.03 10.22 -10.16c-0.37,-0.22 -0.73,-0.46 -1.09,-0.7 -1.46,0.84 -11.37,10.45 -11.97,11.5 -1.18,2.08 2.9,3.26 1,6.77 -1.9,3.51 -15.61,4.03 -15.61,4.03 8.92,-2.79 9.67,-6.55 8.38,-7.73 -1.29,-1.18 -3.81,-3.81 -2.79,-6.71 0.71,-2.02 11.6,-12.76 13.44,-14.39 -0.29,-0.51 -0.55,-1.02 -0.8,-1.55l-9.08 8.96z"/>
   </g>
  </g>
 </g>
</svg>
