<?xml version="1.0" encoding="UTF-8"?>
<!DOCTYPE svg PUBLIC "-//W3C//DTD SVG 1.1//EN" "http://www.w3.org/Graphics/SVG/1.1/DTD/svg11.dtd">
<!-- Creator: CorelDRAW -->
<svg xmlns="http://www.w3.org/2000/svg" xml:space="preserve" width="78.3973mm" height="19.73mm" version="1.1" style="shape-rendering:geometricPrecision; text-rendering:geometricPrecision; image-rendering:optimizeQuality; fill-rule:evenodd; clip-rule:evenodd"
viewBox="0 0 5184.71 1304.82"
 xmlns:xlink="http://www.w3.org/1999/xlink"
 xmlns:xodm="http://www.corel.com/coreldraw/odm/2003">
 <defs>
  <style type="text/css">
   <![CDATA[
    .fil0 {fill:#332C2B;fill-rule:nonzero}
   ]]>
  </style>
 </defs>
 <g id="Layer_x0020_1">
  <metadata id="CorelCorpID_0Corel-Layer"/>
  <path class="fil0" d="M4676.44 0l-3975.72 0c-280.71,0 -508.27,227.57 -508.27,508.28l0 62.5c0,91.01 24.22,176.23 66.11,250.12 -42.21,37.36 -113.96,105.71 -130.26,152.05 -23.44,66.62 34.54,127.07 64.15,154.21 29.61,27.14 12.33,113.49 -192.45,177.65 0,0 315,-11.93 358.58,-92.53 43.59,-80.6 -50.17,-107.74 -23.03,-155.44 13.7,-24.08 44.16,-47.7 77.74,-67.03 81.77,56.2 180.7,89.23 287.42,89.23l3975.72 0c280.71,0 508.27,-227.56 508.27,-508.27l0 -62.5c0,-280.71 -227.56,-508.28 -508.27,-508.28z"/>
 </g>
</svg>
