<?xml version="1.0" encoding="UTF-8"?>
<!DOCTYPE svg PUBLIC "-//W3C//DTD SVG 1.1//EN" "http://www.w3.org/Graphics/SVG/1.1/DTD/svg11.dtd">
<!-- Creator: CorelDRAW -->
<svg xmlns="http://www.w3.org/2000/svg" xml:space="preserve" width="11.1427mm" height="11.9486mm" version="1.1" style="shape-rendering:geometricPrecision; text-rendering:geometricPrecision; image-rendering:optimizeQuality; fill-rule:evenodd; clip-rule:evenodd"
viewBox="0 0 37.53 40.24"
 xmlns:xlink="http://www.w3.org/1999/xlink"
 xmlns:xodm="http://www.corel.com/coreldraw/odm/2003">
 <defs>
  <style type="text/css">
   <![CDATA[
    .fil1 {fill:url(#id0);fill-rule:nonzero}
    .fil0 {fill:url(#id1);fill-rule:nonzero}
   ]]>
  </style>
  <linearGradient id="id0" gradientUnits="userSpaceOnUse" x1="-0" y1="-10.51" x2="411.91" y2="-10.51">
   <stop offset="0" style="stop-opacity:1; stop-color:#BF6D1D"/>
   <stop offset="0.0196078" style="stop-opacity:1; stop-color:#BF6D1D"/>
   <stop offset="0.258824" style="stop-opacity:1; stop-color:#FBE747"/>
   <stop offset="0.278431" style="stop-opacity:1; stop-color:#FBE747"/>
   <stop offset="0.478431" style="stop-opacity:1; stop-color:#BF6D1D"/>
   <stop offset="0.501961" style="stop-opacity:1; stop-color:#BF6D1D"/>
   <stop offset="0.709804" style="stop-opacity:1; stop-color:#FBE747"/>
   <stop offset="0.729412" style="stop-opacity:1; stop-color:#FBE747"/>
   <stop offset="0.988235" style="stop-opacity:1; stop-color:#BF6D1D"/>
   <stop offset="0.988235" style="stop-opacity:1; stop-color:#BF6D1D"/>
   <stop offset="1" style="stop-opacity:1; stop-color:#BF6D1D"/>
  </linearGradient>
  <linearGradient id="id1" gradientUnits="userSpaceOnUse" x1="133.99" y1="22.89" x2="133.99" y2="-17.99">
   <stop offset="0" style="stop-opacity:1; stop-color:#483984"/>
   <stop offset="0.529412" style="stop-opacity:1; stop-color:#31275A"/>
   <stop offset="1" style="stop-opacity:1; stop-color:#19152F"/>
  </linearGradient>
 </defs>
 <g id="__x0023_Layer_x0020_1">
  <metadata id="CorelCorpID_0Corel-Layer"/>
  <g id="_2388326753632">
   <path class="fil0" d="M14.45 12.34c0.22,0.44 0.44,0.87 0.69,1.29 -2.15,1.9 -5.8,5.38 -6.63,7.74 -1.19,3.39 1.76,6.47 3.27,7.85 1.51,1.38 0.63,5.78 -9.8,9.05 0,0 16.04,-0.61 18.26,-4.71 2.22,-4.1 -2.19,-5.25 -0.81,-7.68 0.7,-1.23 1.88,-2.66 3.59,-3.65 0.46,0.31 0.58,0.33 1.06,0.62l13 -12.96c-2.06,-2.17 -5,-5.36 -7.8,-8.41 -2.77,2.2 -10.21,7.56 -14.82,10.86z"/>
   <path class="fil1" d="M11.61 15.13c-2.35,2.37 -4.14,4.06 -4.69,5.63 -0.78,2.22 -1.04,5.7 3.46,9.86 0.05,0.54 -1.25,3.35 -9,5.77 -0.94,0.3 -1.52,1.24 -1.35,2.21 0.17,0.97 1.03,1.67 2.01,1.63 4.03,-0.15 17.36,-1.02 19.92,-5.74 1.81,-3.35 0.27,-5.66 -0.64,-7.04 -0.18,-0.27 -0.44,-0.67 -0.53,-0.87 0.64,-1.06 15.69,-15.58 16.74,-16.57 -0.48,-0.28 -0.94,-0.58 -1.4,-0.9 -1.71,0.98 -16.37,15.3 -17.07,16.53 -1.38,2.43 3.39,3.81 1.17,7.92 -2.22,4.1 -18.26,4.71 -18.26,4.71 10.43,-3.27 11.31,-7.66 9.8,-9.05 -1.51,-1.38 -4.46,-4.46 -3.27,-7.85 0.83,-2.36 18.62,-17.99 20.77,-19.9 -0.24,-0.42 -0.54,-1.04 -0.76,-1.48l-16.91 15.13z"/>
  </g>
 </g>
</svg>
