<?xml version="1.0" encoding="UTF-8"?>
<!DOCTYPE svg PUBLIC "-//W3C//DTD SVG 1.1//EN" "http://www.w3.org/Graphics/SVG/1.1/DTD/svg11.dtd">
<!-- Creator: CorelDRAW -->
<svg xmlns="http://www.w3.org/2000/svg" xml:space="preserve" width="51.7522mm" height="8.4431mm" version="1.1" style="shape-rendering:geometricPrecision; text-rendering:geometricPrecision; image-rendering:optimizeQuality; fill-rule:evenodd; clip-rule:evenodd"
viewBox="0 0 645.14 105.25"
 xmlns:xlink="http://www.w3.org/1999/xlink"
 xmlns:xodm="http://www.corel.com/coreldraw/odm/2003">
 <defs>
  <style type="text/css">
   <![CDATA[
    .str0 {stroke:black;stroke-width:2.49;stroke-miterlimit:22.9256}
    .fil1 {fill:black}
    .fil0 {fill:black;fill-rule:nonzero}
   ]]>
  </style>
 </defs>
 <g id="Layer_x0020_1">
  <metadata id="CorelCorpID_0Corel-Layer"/>
  <g id="_2076137469600">
   <g>
    <path class="fil0" d="M630.02 72.99c-1.09,0.71 -2.31,1.27 -3.55,1.65 -7.14,2.2 -13.63,0.92 -19.78,-3.35 -8.36,-5.81 -16.47,-5.68 -24.94,-0.13 -2.11,1.38 -4.32,2.77 -6.69,3.52 -7.03,2.25 -13.45,0.8 -19.53,-3.41 -8.39,-5.81 -16.53,-5.69 -24.93,-0.07 -9.12,6.1 -17.05,6.11 -26.21,0.02 -8.46,-5.63 -16.53,-5.63 -24.96,-0 -9.14,6.09 -17.08,6.09 -26.21,-0 -8.32,-5.57 -16.42,-5.59 -24.77,-0.14 -1.77,1.16 -3.56,2.42 -5.52,3.16 -6.88,2.61 -13.5,1.97 -19.65,-2.23 -3.2,-2.19 -6.44,-4.14 -10.41,-4.69 -6.49,-0.89 -11.97,1.21 -17.27,4.82 -7.15,4.86 -14.79,5.03 -22.21,0.58 -4.31,-2.59 -8.43,-5.46 -13.72,-5.56l0 0.03c-5.98,-0.41 -10.46,2.82 -15.06,5.82 -1.08,0.71 -2.31,1.27 -3.55,1.65 -7.14,2.2 -13.63,0.92 -19.78,-3.35 -8.35,-5.81 -16.47,-5.68 -24.94,-0.13 -2.1,1.38 -4.32,2.77 -6.69,3.52 -7.03,2.25 -13.46,0.8 -19.53,-3.41 -8.39,-5.81 -16.53,-5.69 -24.93,-0.07 -9.12,6.1 -17.05,6.11 -26.21,0.02 -8.46,-5.63 -16.53,-5.63 -24.96,-0 -9.14,6.09 -17.08,6.09 -26.21,-0 -8.32,-5.57 -16.42,-5.59 -24.76,-0.14 -1.78,1.16 -3.56,2.42 -5.52,3.16 -6.88,2.61 -13.5,1.97 -19.65,-2.23 -3.2,-2.19 -6.44,-4.14 -10.41,-4.69 -6.49,-0.89 -11.96,1.21 -17.27,4.82 -7.15,4.86 -14.79,5.03 -22.21,0.58 -4.58,-2.74 -8.91,-5.85 -14.7,-5.58l0 -9.13 305.39 0 0.97 0 305.39 0 0 9.17c-5.98,-0.41 -10.46,2.82 -15.06,5.82z"/>
    <path class="fil0" d="M40.36 85.07c0,11.14 -9.03,20.18 -20.18,20.18 -11.15,0 -20.18,-9.03 -20.18,-20.18 0,-11.14 9.03,-20.18 20.18,-20.18 11.14,0 20.18,9.03 20.18,20.18z"/>
    <path class="fil0" d="M14.14 48.65c0,0 0.17,10.33 -2.25,14.95 -2.42,4.62 -4.89,5.41 -6.59,8.41 -1.7,2.99 21.62,27.29 21.62,27.29 0,0 11.18,-3.23 13,-11.3 1.82,-8.07 4.52,-11.75 20.13,-12.15 1.92,-0.05 8.21,-3.41 8.21,-3.41l-0.69 -13.23 -53.44 -10.56z"/>
   </g>
   <rect class="fil1 str0" x="15.32" y="1.25" width="628.57" height="56.74"/>
  </g>
 </g>
</svg>
