<?xml version="1.0" encoding="UTF-8"?>
<!DOCTYPE svg PUBLIC "-//W3C//DTD SVG 1.1//EN" "http://www.w3.org/Graphics/SVG/1.1/DTD/svg11.dtd">
<!-- Creator: CorelDRAW -->
<svg xmlns="http://www.w3.org/2000/svg" xml:space="preserve" width="49.0746mm" height="7.4771mm" version="1.1" style="shape-rendering:geometricPrecision; text-rendering:geometricPrecision; image-rendering:optimizeQuality; fill-rule:evenodd; clip-rule:evenodd"
viewBox="0 0 584.89 89.12"
 xmlns:xlink="http://www.w3.org/1999/xlink"
 xmlns:xodm="http://www.corel.com/coreldraw/odm/2003">
 <defs>
  <style type="text/css">
   <![CDATA[
    .fil0 {fill:black;fill-rule:nonzero}
   ]]>
  </style>
 </defs>
 <g id="Layer_x0020_1">
  <metadata id="CorelCorpID_0Corel-Layer"/>
  <path class="fil0" d="M570.5 2.79c-1.04,-0.67 -2.21,-1.21 -3.39,-1.58 -6.83,-2.11 -13.03,-0.88 -18.92,3.21 -7.99,5.55 -15.75,5.43 -23.84,0.13 -2.01,-1.32 -4.13,-2.64 -6.4,-3.37 -6.72,-2.15 -12.86,-0.76 -18.67,3.26 -8.02,5.56 -15.81,5.45 -23.84,0.07 -8.72,-5.84 -16.3,-5.84 -25.06,-0.02 -8.08,5.38 -15.8,5.38 -23.86,0.01 -8.74,-5.83 -16.33,-5.83 -25.05,0 -7.95,5.32 -15.7,5.35 -23.68,0.13 -1.69,-1.11 -3.4,-2.31 -5.28,-3.02 -6.58,-2.49 -12.91,-1.88 -18.78,2.13 -3.06,2.09 -6.16,3.97 -9.95,4.49 -6.2,0.86 -11.44,-1.16 -16.51,-4.61 -6.83,-4.65 -14.14,-4.81 -21.24,-0.56 -4.12,2.47 -8.06,5.22 -13.12,5.32l0 -0.03c-5.71,0.39 -10,-2.7 -14.4,-5.57 -1.03,-0.67 -2.21,-1.21 -3.39,-1.58 -6.83,-2.11 -13.03,-0.88 -18.92,3.21 -7.99,5.55 -15.75,5.43 -23.84,0.13 -2.01,-1.32 -4.13,-2.64 -6.4,-3.37 -6.72,-2.15 -12.87,-0.76 -18.67,3.26 -8.02,5.56 -15.81,5.45 -23.84,0.07 -8.72,-5.84 -16.31,-5.84 -25.06,-0.02 -8.08,5.38 -15.8,5.38 -23.86,0.01 -8.74,-5.83 -16.33,-5.83 -25.05,0 -7.95,5.32 -15.7,5.35 -23.68,0.13 -1.7,-1.11 -3.41,-2.31 -5.28,-3.02 -6.58,-2.49 -12.91,-1.88 -18.78,2.13 -3.06,2.09 -6.16,3.97 -9.95,4.49 -6.2,0.86 -11.44,-1.16 -16.51,-4.61 -6.83,-4.65 -14.14,-4.81 -21.24,-0.56 -4.38,2.62 -8.52,20.04 -14.05,19.78l0 66.27 291.98 0 0.93 0 291.98 0 0 -69c-5.71,0.39 -10,-14.46 -14.4,-17.33z"/>
 </g>
</svg>
